<?xml version="1.0" standalone="no"?>
<!DOCTYPE svg PUBLIC "-//W3C//DTD SVG 1.1//EN" "http://www.w3.org/Graphics/SVG/1.1/DTD/svg11.dtd" >
<svg xmlns="http://www.w3.org/2000/svg" xmlns:xlink="http://www.w3.org/1999/xlink" version="1.1">
<metadata>
Created by FontForge 20170731 at Mon Aug  1 15:47:03 2022
 By Aleksey,,,
(c) 2014 Adobe Systems Incorporated. All Rights Reserved.
</metadata>
<defs>
<font id="AcuminPro-UltraBlack" horiz-adv-x="819" >
  <font-face 
    font-family="Acumin Pro"
    font-weight="950"
    font-stretch="normal"
    units-per-em="2048"
    panose-1="2 11 10 4 2 2 2 2 2 4"
    ascent="1505"
    descent="-543"
    x-height="1090"
    cap-height="1413"
    bbox="-518 -575 2798 2177"
    underline-thickness="102"
    underline-position="-307"
    unicode-range="U+0020-FB02"
  />
<missing-glyph horiz-adv-x="1024" 
d="M0 0v1434h1024v-1434h-1024zM512 809l348 522h-696zM573 717l349 -522v1044zM164 102h696l-348 523zM102 1239v-1044l349 522z" />
    <glyph glyph-name="f_f" unicode="ff" horiz-adv-x="1607" 
d="M899 762h-227v-762h-547v762h-121v328h121v4q0 211 118.5 302t338.5 91q133 0 188 -14v-285q-14 2 -43 2q-55 0 -55 -53v-47h227v4q0 206 114.5 299.5t329.5 93.5q43 0 108.5 -5t92.5 -12v-284q-14 4 -43 4q-55 0 -55 -53v-47h139v-328h-139v-762h-547v762z" />
    <glyph glyph-name=".notdef" horiz-adv-x="1024" 
d="M0 0v1434h1024v-1434h-1024zM512 809l348 522h-696zM573 717l349 -522v1044zM164 102h696l-348 523zM102 1239v-1044l349 522z" />
    <glyph glyph-name=".null" horiz-adv-x="0" 
 />
    <glyph glyph-name="nonmarkingreturn" horiz-adv-x="682" 
 />
    <glyph glyph-name="space" unicode=" " horiz-adv-x="389" 
 />
    <glyph glyph-name="exclam" unicode="!" horiz-adv-x="811" 
d="M655 575h-432l-73 605v233h577v-235zM705 2h-539v461h539v-461z" />
    <glyph glyph-name="quotedbl" unicode="&#x22;" horiz-adv-x="1007" 
d="M410 727h-310l-41 428v318h396v-322zM901 727h-305l-43 428v318h395v-322z" />
    <glyph glyph-name="numbersign" unicode="#" horiz-adv-x="1366" 
d="M639 0l53 250h-184l-51 -250h-305l53 252h-125v366h203l36 179h-145v366h223l43 209h297l-43 -209h191l43 209h299l-43 -209h108l-2 -366h-182l-37 -179h156v-370h-232l-51 -248h-305zM770 618l37 179h-186l-37 -179h186z" />
    <glyph glyph-name="dollar" unicode="$" horiz-adv-x="1333" 
d="M805 -150h-287v144q-118 15 -207 53.5t-143 94.5t-81.5 122.5t-31.5 143.5h457q25 -121 152 -121q44 0 68 19t24 52q0 40 -36 63.5t-142 49.5q-120 29 -207 66t-141.5 77.5t-87 92.5t-44.5 104t-12 119q0 164 109.5 284.5t322.5 149.5v117h287v-117q194 -27 305.5 -128
t120.5 -271h-438q-9 53 -38 83.5t-91 30.5q-41 0 -65 -17.5t-24 -51.5q0 -37 37.5 -56t157.5 -51q95 -24 170.5 -54t127 -60t89 -66.5t59 -69.5t33.5 -74t15.5 -74.5t3.5 -76.5q-3 -187 -123.5 -297t-339.5 -137v-144z" />
    <glyph glyph-name="percent" unicode="%" horiz-adv-x="1953" 
d="M492 1382q203 0 306 -109.5t103 -291.5q0 -177 -107.5 -289t-304.5 -112q-213 0 -320.5 107t-107.5 294q0 84 25 154.5t75.5 127t135 88t195.5 31.5zM492 1167q-38 0 -58 -40t-20 -146q0 -102 17.5 -147.5t55.5 -45.5t57 42.5t19 150.5q0 76 -10 118.5t-24 55t-37 12.5z
M586 0h-185l961 1356h186zM1481 784q203 0 306 -109.5t103 -291.5q0 -177 -107 -289t-304 -112q-213 0 -320.5 107t-107.5 294q0 84 25 154.5t75 127t134.5 88t195.5 31.5zM1481 569q-38 0 -58 -40t-20 -146q0 -102 17.5 -147.5t56.5 -45.5q38 0 56.5 42.5t18.5 150.5
q0 76 -10 118.5t-24 55t-37 12.5z" />
    <glyph glyph-name="ampersand" unicode="&#x26;" horiz-adv-x="1939" 
d="M764 293q67 0 125 24l-305 254q-39 -33 -39 -110q0 -67 52.5 -117.5t166.5 -50.5zM1397 883h483l-399 -496l446 -387h-659l-105 86q-198 -117 -481 -117q-275 0 -440.5 115t-165.5 319q0 71 22 128t65 100t91 73.5t115 61.5q-129 120 -129 270q0 82 32.5 154t98 129.5
t175.5 91t253 33.5q249 0 396.5 -100.5t147.5 -272.5q0 -41 -11 -78t-25 -63.5t-42 -53.5t-46 -42t-54.5 -35.5t-50.5 -27t-49 -23.5l137 -119zM817 1167q-37 0 -57.5 -25.5t-20.5 -58.5q0 -37 22 -68.5t77 -74.5q65 59 65 133q0 46 -23.5 70t-62.5 24z" />
    <glyph glyph-name="quotesingle" unicode="'" horiz-adv-x="546" 
d="M444 727h-346l-39 428v311h428v-315z" />
    <glyph glyph-name="parenleft" unicode="(" horiz-adv-x="825" 
d="M406 1470h378q-43 -73 -56.5 -95.5t-54 -97.5t-57.5 -116.5t-46 -120.5t-41.5 -143.5t-23.5 -152t-11 -177.5q0 -490 290 -938h-378q-322 372 -322 940q0 266 91 498t231 403z" />
    <glyph glyph-name="parenright" unicode=")" horiz-adv-x="825" 
d="M422 -371h-379q113 189 158 287q133 290 133 616q0 489 -291 938h379q321 -371 321 -940q0 -266 -91 -498.5t-230 -402.5z" />
    <glyph glyph-name="asterisk" unicode="*" horiz-adv-x="1038" 
d="M350 1413h344l-110 -350l239 266l172 -303l-350 -63l344 -84l-174 -287l-229 270l104 -338h-342l103 326l-238 -244l-170 301l354 62l-348 84l174 286l238 -266z" />
    <glyph glyph-name="plus" unicode="+" horiz-adv-x="1263" 
d="M465 1085h342v-380h367v-330h-367v-375h-342v375h-375v330h375v380z" />
    <glyph glyph-name="comma" unicode="," horiz-adv-x="669" 
d="M383 -172h-363q51 164 84 356.5t41 345.5h445q-19 -195 -79.5 -392.5t-127.5 -309.5z" />
    <glyph glyph-name="hyphen" unicode="-" horiz-adv-x="776" 
d="M63 729h650v-377h-650v377z" />
    <glyph glyph-name="period" unicode="." horiz-adv-x="624" 
d="M561 2h-498v528h498v-528z" />
    <glyph glyph-name="slash" unicode="/" horiz-adv-x="837" 
d="M387 -76h-328l392 1501h327z" />
    <glyph glyph-name="zero" unicode="0" horiz-adv-x="1398" 
d="M700 1384q163 0 286 -53t197.5 -149t111 -220.5t36.5 -277.5q0 -122 -21 -226t-68.5 -195t-120 -155t-180.5 -100.5t-245 -36.5q-133 0 -239.5 37t-178.5 101t-120 154.5t-69 193t-21 219.5q0 113 20 213t67 192t118 158t180 105.5t247 39.5zM700 1059q-31 0 -46 -23
t-23 -103.5t-8 -248.5q0 -175 7.5 -257t22.5 -106t47 -24q25 0 38.5 13t22.5 56t12 114t3 198q0 134 -3 207t-12.5 113.5t-22.5 50.5t-38 10z" />
    <glyph glyph-name="one" unicode="1" horiz-adv-x="843" 
d="M733 0h-555v887q-95 7 -139 22v305q70 6 131 30t94.5 48.5t77.5 63.5h391v-1356z" />
    <glyph glyph-name="two" unicode="2" horiz-adv-x="1298" 
d="M1210 0h-1132v59q0 100 21 187t53 149.5t82.5 120.5t95.5 95.5t106 80.5q165 117 209.5 163t44.5 108q0 98 -72 98q-46 0 -63.5 -38.5t-19.5 -131.5h-480q1 43 7 82t23 90.5t43.5 94t73.5 86t108 73.5t152 48.5t202 18.5q124 0 223.5 -23.5t165.5 -63.5t110 -97
t63 -121.5t19 -138.5q0 -85 -24.5 -148t-92 -130t-192.5 -144q-164 -101 -207 -160h543z" />
    <glyph glyph-name="three" unicode="3" horiz-adv-x="1310" 
d="M539 963h-465q46 421 588 421q268 0 413.5 -107t145.5 -276q0 -196 -205 -268v-8q250 -82 250 -313q0 -201 -155.5 -322t-453.5 -121q-109 0 -199.5 17.5t-151 45t-107.5 66.5t-73.5 76.5t-44.5 81.5t-24 75.5t-8 63.5h488q8 -116 88 -116q82 0 82 135q0 83 -34.5 115
t-125.5 32h-107v305h115q87 0 113 26.5t26 84.5q0 100 -69 100q-40 0 -61 -26.5t-25 -87.5z" />
    <glyph glyph-name="four" unicode="4" horiz-adv-x="1343" 
d="M1165 0h-512v268h-600v305l443 783h669v-742h150l-37 -346h-113v-268zM653 614v78q0 136 9 277q-41 -111 -158 -355h149z" />
    <glyph glyph-name="five" unicode="5" horiz-adv-x="1361" 
d="M1262 1356l-66 -375h-578l-14 -117q77 47 238 47q219 0 341 -121t122 -315q0 -237 -162.5 -370.5t-454.5 -133.5q-127 0 -230 25t-171.5 66t-116.5 99t-72 120t-32 133h503q7 -56 27.5 -88.5t65.5 -32.5q88 0 88 160q0 155 -93 155q-68 0 -96 -76l-465 29
q25 123 63.5 387t49.5 408h1053z" />
    <glyph glyph-name="six" unicode="6" horiz-adv-x="1366" 
d="M1274 1004h-469q-9 94 -84 94q-52 0 -77 -55t-26 -191q100 74 263 74q191 0 312.5 -116t121.5 -329q0 -242 -166 -377t-449 -135q-164 0 -286 48t-197 139t-112 216t-37 285q0 119 20 223t68 198t120.5 160.5t184.5 106t254 39.5q131 0 233.5 -29t160.5 -70.5t97 -96.5
t52.5 -99t15.5 -85zM690 262q41 0 58.5 44t17.5 136q0 41 -1 62.5t-4.5 48t-11.5 39.5t-22.5 22t-36.5 9q-43 0 -59.5 -41.5t-16.5 -128.5q0 -102 15 -146.5t61 -44.5z" />
    <glyph glyph-name="seven" unicode="7" horiz-adv-x="1206" 
d="M51 1356h1131v-324q-158 -217 -272 -482.5t-158 -549.5h-594q36 255 178.5 533t302.5 448h-588v375z" />
    <glyph glyph-name="eight" unicode="8" horiz-adv-x="1366" 
d="M659 -31q-147 0 -264.5 34.5t-192 94t-114 136.5t-39.5 165q0 209 219 310q-91 53 -131.5 121.5t-40.5 160.5q0 57 17.5 110.5t60 106t107 91.5t166 63t229.5 24q283 0 437.5 -107t154.5 -286q0 -189 -174 -282q223 -95 223 -308q0 -70 -20.5 -131.5t-69.5 -118
t-123 -96.5t-188 -64t-257 -24zM684 268q52 0 71 38t19 102q0 70 -19.5 104.5t-68.5 34.5q-88 0 -88 -137q0 -71 23 -106.5t63 -35.5zM678 1090q-80 0 -80 -121q0 -123 84 -123q82 0 82 125q0 61 -18.5 90t-67.5 29z" />
    <glyph glyph-name="nine" unicode="9" horiz-adv-x="1384" 
d="M82 371h518q8 -42 25 -63t49 -21q28 0 47 19t28.5 56.5t13 78.5t3.5 98q-88 -76 -254 -76q-197 0 -321.5 113t-124.5 311q0 230 159.5 364.5t452.5 134.5q164 0 288.5 -50.5t200 -143t113 -214t37.5 -271.5q0 -119 -17 -220t-61.5 -199t-115 -166.5t-185 -110.5
t-264.5 -42q-126 0 -228 27t-165.5 68.5t-108 97t-64 106.5t-26.5 103zM692 1075q-40 0 -59 -35t-19 -114q0 -35 3 -60t10.5 -49t23 -36.5t39.5 -12.5q26 0 43 13t24 39t9 49t2 59q0 82 -17 114.5t-59 32.5z" />
    <glyph glyph-name="colon" unicode=":" horiz-adv-x="741" 
d="M598 0h-457v465h457v-465zM598 623h-457v467h457v-467z" />
    <glyph glyph-name="semicolon" unicode=";" horiz-adv-x="749" 
d="M387 -193h-350q51 136 85.5 321.5t39.5 326.5h444q-21 -188 -84 -368.5t-135 -279.5zM608 623h-456v467h456v-467z" />
    <glyph glyph-name="less" unicode="&#x3c;" horiz-adv-x="1034" 
d="M90 385v317l854 388v-349l-452 -198l452 -193v-348z" />
    <glyph glyph-name="equal" unicode="=" horiz-adv-x="1263" 
d="M90 451h1084v-326h-1084v326zM90 961h1084v-330h-1084v330z" />
    <glyph glyph-name="greater" unicode="&#x3e;" horiz-adv-x="1034" 
d="M944 707v-318l-854 -387v348l453 199l-453 192v349z" />
    <glyph glyph-name="question" unicode="?" horiz-adv-x="1253" 
d="M918 522h-525v41q0 115 44.5 200.5t146.5 170.5q86 71 86 143q0 70 -60 70q-39 0 -55 -34.5t-18 -106.5l-437 2q5 191 144.5 302t421.5 111q141 0 250 -34t173 -91t96 -126t32 -146q0 -34 -6.5 -64t-14 -52t-27 -47.5t-30.5 -39.5t-41 -38.5t-42 -33.5l-48 -36
q-55 -41 -72.5 -82t-17.5 -99v-10zM918 0h-525v406h525v-406z" />
    <glyph glyph-name="at" unicode="@" horiz-adv-x="1875" 
d="M1278 -78l33 -219q-119 -57 -383 -57q-177 0 -329.5 56t-267 160t-180 264.5t-65.5 358.5q0 151 40 288t118 248t186.5 193t251 127t305.5 45q178 0 328.5 -56.5t252.5 -153.5t159 -228.5t57 -279.5q0 -150 -41.5 -268.5t-113 -192t-163 -112t-196.5 -38.5
q-103 0 -156.5 33.5t-81.5 95.5q-107 -129 -270 -129q-130 0 -205.5 85t-75.5 247q0 150 49.5 280t140 209.5t199.5 79.5q64 0 112 -22.5t67 -67.5l16 66h373l-107 -541q-17 -76 29 -76q68 0 125 90t57 259q0 223 -143.5 358t-421.5 135q-96 0 -185.5 -26t-168.5 -81
t-137 -133.5t-92 -190t-34 -243.5q0 -277 154.5 -440.5t427.5 -163.5q70 0 104.5 1t104.5 10.5t127 29.5zM958 674q-40 0 -69 -100t-29 -175q0 -61 31 -61q27 0 47 41t39 131q20 92 16 128t-35 36z" />
    <glyph glyph-name="A" unicode="A" horiz-adv-x="1542" 
d="M915 221h-329l-47 -221h-545l395 1413h752l407 -1413h-585zM655 594h183q-8 50 -23 132t-34.5 186.5t-28.5 156.5h-13q-69 -402 -84 -475z" />
    <glyph glyph-name="B" unicode="B" horiz-adv-x="1538" 
d="M113 0v1413h829q241 0 377.5 -100.5t136.5 -274.5q0 -106 -57 -186.5t-168 -116.5q51 -16 95.5 -41.5t83.5 -63.5t62 -93.5t23 -122.5q0 -69 -18.5 -129t-61.5 -113t-109 -90.5t-166 -59.5t-227 -22h-800zM653 879h154q57 0 84 30.5t27 73.5q0 107 -127 107h-138v-211z
M653 557v-235h125q65 0 100 31.5t35 86.5q0 50 -30 83.5t-95 33.5h-135z" />
    <glyph glyph-name="C" unicode="C" horiz-adv-x="1523" 
d="M948 504h557q-34 -261 -217 -401t-506 -140q-176 0 -315 54t-228 151.5t-135.5 230.5t-46.5 293q0 162 44 297t133 239.5t236 163t339 58.5q136 0 249.5 -30t191 -80t132.5 -118.5t82 -143t33 -154.5h-555q-13 176 -141 176q-49 0 -81.5 -26t-49.5 -79.5t-24 -120.5
t-7 -163q0 -89 6 -153.5t22 -123t49.5 -89t82.5 -30.5q74 0 106 50.5t43 138.5z" />
    <glyph glyph-name="D" unicode="D" horiz-adv-x="1599" 
d="M113 0v1413h669q188 0 335 -54t238.5 -149.5t139 -220.5t47.5 -272q0 -153 -46.5 -281.5t-137 -227t-236 -153.5t-331.5 -55h-678zM678 1053v-693h57q124 0 173.5 79.5t49.5 277.5q0 194 -45.5 265t-167.5 71h-67z" />
    <glyph glyph-name="E" unicode="E" horiz-adv-x="1361" 
d="M1247 897v-373h-596v-151h680l-59 -373h-1159v1413h1159v-373h-621v-143h596z" />
    <glyph glyph-name="F" unicode="F" horiz-adv-x="1304" 
d="M113 0v1413h1153v-373h-598v-190h559v-377h-559v-473h-555z" />
    <glyph glyph-name="G" unicode="G" horiz-adv-x="1609" 
d="M1522 836v-836h-344q-18 52 -29 131q-125 -168 -426 -168q-138 0 -250.5 40.5t-188.5 109.5t-128 163t-75.5 198.5t-23.5 219.5q0 227 84 395.5t258.5 264.5t423.5 96q151 0 273.5 -33.5t198.5 -84.5t128.5 -117.5t74.5 -127t26 -118.5h-553q-11 59 -43 94t-103 35
q-56 0 -94 -30t-57 -86.5t-27 -121.5t-8 -151q0 -85 7.5 -150t26.5 -123t56.5 -89.5t91.5 -31.5q48 0 82 18.5t51 49t24 61t7 64.5v4h-203v324h740z" />
    <glyph glyph-name="H" unicode="H" horiz-adv-x="1611" 
d="M113 0v1413h567v-504h250v504h569v-1413h-569v537h-250v-537h-567z" />
    <glyph glyph-name="I" unicode="I" horiz-adv-x="792" 
d="M113 1413h567v-1413h-567v1413z" />
    <glyph glyph-name="J" unicode="J" horiz-adv-x="923" 
d="M825 1413v-891q0 -142 -30 -242t-97.5 -169.5t-178 -102.5t-271.5 -33q-125 0 -213 19v366q70 -4 92 -4q75 0 106 36t31 108v913h561z" />
    <glyph glyph-name="K" unicode="K" horiz-adv-x="1581" 
d="M113 0v1413h563v-495q111 192 268 495h664l-447 -567l463 -846h-645l-209 483l-94 -112v-371h-563z" />
    <glyph glyph-name="L" unicode="L" horiz-adv-x="1308" 
d="M113 0v1413h567v-1040h610l-59 -373h-1118z" />
    <glyph glyph-name="M" unicode="M" horiz-adv-x="1947" 
d="M1294 0v365q0 293 13 679h-13q-7 -53 -60 -443.5t-85 -600.5h-424q-9 73 -125 1036h-16q20 -332 20 -665v-371h-491v1413h782q51 -517 66 -723h16q17 124 43.5 360.5t46.5 362.5h768v-1413h-541z" />
    <glyph glyph-name="N" unicode="N" horiz-adv-x="1611" 
d="M633 0h-520v1413h655q113 -338 223 -760h13q-25 286 -25 621v139h520v-1413h-627q-70 212 -245 797h-9q4 -40 7 -91t4.5 -88t2.5 -110.5t1 -102v-122v-115.5v-168z" />
    <glyph glyph-name="O" unicode="O" horiz-adv-x="1628" 
d="M827 1450q146 0 268.5 -39.5t209 -109t147.5 -164t90 -204.5t29 -231q0 -157 -47 -289t-138.5 -233.5t-240.5 -159t-340 -57.5q-152 0 -277.5 40t-211.5 108.5t-145.5 163.5t-86.5 202.5t-27 227.5q0 121 28 229.5t89 203.5t150 164t218 108.5t285 39.5zM815 1098
q-94 0 -135 -96t-41 -291q0 -197 39.5 -296.5t140.5 -99.5q50 0 84 25.5t53.5 77t28 119.5t8.5 163q0 82 -4 140.5t-15.5 110t-31 82t-51.5 48t-76 17.5z" />
    <glyph glyph-name="P" unicode="P" horiz-adv-x="1499" 
d="M113 0v1413h764q257 0 413 -129t156 -342q0 -119 -44 -211.5t-123 -151t-185 -88.5t-234 -30h-198v-461h-549zM662 1071v-266h90q69 0 107 36.5t38 96.5q0 133 -154 133h-81z" />
    <glyph glyph-name="Q" unicode="Q" horiz-adv-x="1628" 
d="M827 1450q146 0 268.5 -39.5t209 -109t147.5 -164t90 -204.5t29 -231q0 -160 -49 -297t-146 -235l262 -174l-254 -301l-417 280q-77 -12 -162 -12q-152 0 -277.5 40t-211.5 108.5t-145.5 163.5t-86.5 202.5t-27 227.5q0 121 28 229.5t89 203.5t150 164t218 108.5
t285 39.5zM815 1098q-94 0 -135 -96t-41 -291q0 -197 39.5 -296.5t140.5 -99.5q50 0 84 25.5t53.5 77t28 119.5t8.5 163q0 82 -4 140.5t-15.5 110t-31 82t-51.5 48t-76 17.5z" />
    <glyph glyph-name="R" unicode="R" horiz-adv-x="1507" 
d="M739 500h-82v-500h-544v1413h817q134 0 236.5 -32t162.5 -88t89.5 -124.5t29.5 -148.5q0 -72 -22 -132t-59.5 -99.5t-76.5 -65t-82 -39.5q107 -32 162 -133t55 -260v-35q0 -182 15 -256h-543q-29 74 -29 287v69q0 71 -26 107.5t-103 36.5zM657 1077v-241h95
q141 0 141 122q0 119 -143 119h-93z" />
    <glyph glyph-name="S" unicode="S" horiz-adv-x="1470" 
d="M35 444h528q15 -145 170 -145q123 0 123 78q0 46 -49.5 71t-210.5 66q-133 34 -229 76t-152.5 85t-89 96.5t-43 102.5t-10.5 113q0 65 18 127t64.5 124t116.5 108t183 75t255 29q165 0 292.5 -37t205.5 -101.5t120 -145t49 -175.5h-520q-13 121 -135 121q-98 0 -98 -65
q0 -37 45.5 -59t205.5 -66q139 -38 239.5 -83t160 -90t93.5 -100.5t45 -105.5t11 -115q0 -210 -173 -337.5t-517 -127.5q-325 0 -501.5 130.5t-196.5 350.5z" />
    <glyph glyph-name="T" unicode="T" horiz-adv-x="1349" 
d="M395 0v1040h-368v373h1296v-373h-362v-1040h-566z" />
    <glyph glyph-name="U" unicode="U" horiz-adv-x="1583" 
d="M98 1413h566v-921q0 -156 133 -156q58 0 88 41.5t30 114.5v921h570v-833q0 -617 -701 -617q-348 0 -517 152t-169 467v831z" />
    <glyph glyph-name="V" unicode="V" horiz-adv-x="1529" 
d="M1094 0h-666l-463 1413h592l125 -545q36 -145 86 -432h10q35 230 82 428l123 549h582z" />
    <glyph glyph-name="W" unicode="W" horiz-adv-x="2029" 
d="M883 0h-572l-313 1413h584q50 -717 59 -876h14q26 161 64 433t69 443h502q50 -327 125 -858h15q9 177 65 858h537l-324 -1413h-571q-26 153 -68.5 422.5t-54.5 341.5h-10q-23 -153 -63.5 -402.5t-57.5 -361.5z" />
    <glyph glyph-name="X" unicode="X" horiz-adv-x="1476" 
d="M1513 0h-647l-149 426h-8l-148 -426h-598l387 692l-383 721h649l132 -412h12l131 412h590l-389 -657z" />
    <glyph glyph-name="Y" unicode="Y" horiz-adv-x="1466" 
d="M1014 0h-568v479q0 35 -18 66l-481 868h637q76 -217 170 -508q28 89 94.5 273.5t83.5 234.5h588l-492 -874q-14 -25 -14 -64v-475z" />
    <glyph glyph-name="Z" unicode="Z" horiz-adv-x="1388" 
d="M47 0v287l608 753h-575v373h1225v-336l-555 -704h612l-53 -373h-1262z" />
    <glyph glyph-name="bracketleft" unicode="[" horiz-adv-x="770" 
d="M709 -371h-580v1837h580v-315h-236v-1200h236v-322z" />
    <glyph glyph-name="backslash" unicode="\" horiz-adv-x="837" 
d="M451 -76l-392 1501h328l391 -1501h-327z" />
    <glyph glyph-name="bracketright" unicode="]" horiz-adv-x="770" 
d="M63 1466h580v-1837h-580v316h236v1200h-236v321z" />
    <glyph glyph-name="asciicircum" unicode="^" horiz-adv-x="1175" 
d="M1133 604h-392l-163 434l-152 -434h-385l336 780h416z" />
    <glyph glyph-name="underscore" unicode="_" horiz-adv-x="1103" 
d="M-2 -139h1108v-170h-1108v170z" />
    <glyph glyph-name="grave" unicode="`" 
d="M-160 1497h527l280 -319h-373z" />
    <glyph glyph-name="a" unicode="a" horiz-adv-x="1337" 
d="M1245 676v-295q0 -310 10 -381h-485q-14 44 -20 104q-117 -133 -322 -133q-165 0 -272 92t-107 263q0 194 146 282t426 88h106v60q0 47 -16 66.5t-52 19.5q-65 0 -71 -92h-490q2 34 9 65.5t24 70t43 70t70 62.5t100.5 52.5t139 34.5t182.5 13q114 0 204 -14t153 -42
t106.5 -65.5t68.5 -89t36 -107t11 -124.5zM727 430v45h-51q-105 0 -105 -94q0 -37 20.5 -59.5t51.5 -22.5q49 0 66.5 30t17.5 101z" />
    <glyph glyph-name="b" unicode="b" horiz-adv-x="1402" 
d="M88 340v1126h547v-454q114 106 287 106q83 0 156.5 -32t133.5 -96t95.5 -172.5t35.5 -248.5q0 -287 -128.5 -442.5t-340.5 -155.5q-161 0 -247 105q-8 -70 -9 -76h-532q2 102 2 340zM784 551q0 131 -19 183t-60 52q-54 0 -70.5 -51.5t-16.5 -195.5q0 -136 15 -191t67 -55
q46 0 65 60t19 198z" />
    <glyph glyph-name="c" unicode="c" horiz-adv-x="1318" 
d="M770 416h502q-9 -73 -29.5 -133.5t-65 -120t-109 -100.5t-166.5 -66t-232 -25q-131 0 -235.5 31t-174 83.5t-115.5 125t-66 152.5t-20 169q0 126 39.5 232t115.5 185.5t196.5 124t273.5 44.5q133 0 238.5 -31.5t167.5 -78t104 -108.5t58 -114.5t20 -105.5h-508
q0 135 -64 135q-44 0 -59.5 -57.5t-15.5 -204.5q0 -161 15 -222t54 -61q20 0 34.5 11t22.5 34.5t11.5 45t7.5 55.5z" />
    <glyph glyph-name="d" unicode="d" horiz-adv-x="1400" 
d="M764 1466h547v-1079q0 -344 2 -387h-533q-9 42 -12 102q-46 -65 -112.5 -98t-174.5 -33q-89 0 -161.5 32.5t-120 87.5t-80 129t-46.5 154t-14 167q0 165 52.5 294t159 206t251.5 77q78 0 145 -19.5t97 -60.5v428zM618 553q0 -130 21 -191t66 -61q27 0 43.5 14.5t24.5 50
t10.5 76t2.5 111.5q0 155 -13.5 199.5t-65.5 44.5q-89 0 -89 -244z" />
    <glyph glyph-name="e" unicode="e" horiz-adv-x="1378" 
d="M1321 449h-711q0 -55 5.5 -89.5t26.5 -60t58 -25.5q76 0 91 86h526q-14 -57 -37.5 -106t-71.5 -103t-113 -92t-168 -63t-231 -25q-145 0 -258 33.5t-183 88.5t-115.5 131.5t-63 156t-17.5 168.5q0 92 20.5 173.5t68.5 155t120 126t182 83.5t248 31q144 0 256.5 -35.5
t181 -92t112.5 -134t60.5 -153t16.5 -158.5q0 -42 -4 -96zM610 686h166q0 34 -2.5 55.5t-10 43.5t-25 32t-44.5 10q-84 0 -84 -141z" />
    <glyph glyph-name="f" unicode="f" horiz-adv-x="833" 
d="M672 0h-547v762h-121v328h121v20q0 186 103 281.5t339 95.5q139 0 205 -17v-284q-14 4 -45 4q-55 0 -55 -53v-47h139v-328h-139v-762z" />
    <glyph glyph-name="g" unicode="g" horiz-adv-x="1398" 
d="M1311 776v-573q0 -116 -17 -204t-61 -164t-116.5 -124t-185.5 -75t-267 -27q-100 0 -183.5 14t-140.5 37t-102.5 55.5t-72.5 65t-46 71.5t-27 68.5t-12 61.5h522q7 -34 23.5 -51t56.5 -17q46 0 65 35t19 129v82q-43 -60 -108 -91.5t-173 -31.5q-134 0 -232 69t-146 184
t-48 261q0 257 124 412t327 155q109 0 174 -35t82 -84q3 53 10 91h539q-4 -86 -4 -314zM618 580q0 -115 17 -170.5t65 -55.5q22 0 37 9.5t24 25t13.5 45t6 60.5t1.5 79q0 141 -12 186.5t-63 45.5q-46 0 -67.5 -50.5t-21.5 -174.5z" />
    <glyph glyph-name="h" unicode="h" horiz-adv-x="1378" 
d="M88 1466h547v-477q125 129 311 129q180 0 263 -108t83 -297v-713h-544v664q0 50 -13 72t-41 22q-36 0 -47.5 -30.5t-11.5 -106.5v-621h-547v1466z" />
    <glyph glyph-name="i" unicode="i" horiz-adv-x="722" 
d="M88 0v1090h547v-1090h-547zM635 1174h-547v292h547v-292z" />
    <glyph glyph-name="j" unicode="j" horiz-adv-x="731" 
d="M98 1090h543v-936q0 -81 -5 -141t-18 -119.5t-36.5 -101.5t-61.5 -78.5t-91.5 -58t-126.5 -34t-167 -12.5q-18 0 -147 6v348h22q50 0 69 19.5t19 68.5v1039zM643 1174h-545v292h545v-292z" />
    <glyph glyph-name="k" unicode="k" horiz-adv-x="1382" 
d="M635 1466v-739q20 47 77.5 173.5t84.5 189.5h602l-293 -408q56 -124 162 -355.5t149 -326.5h-610q-15 47 -53.5 189.5t-42.5 154.5l-76 -90v-254h-547v1466h547z" />
    <glyph glyph-name="l" unicode="l" horiz-adv-x="722" 
d="M635 0h-547v1466h547v-1466z" />
    <glyph glyph-name="m" unicode="m" horiz-adv-x="2015" 
d="M88 0v760q0 240 -2 330h526q11 -68 13 -107q121 135 319 135q201 0 281 -133q29 25 40.5 34.5t47.5 33t66 34.5t79 21t103 10q169 0 267.5 -108.5t98.5 -311.5v-698h-536v672q0 45 -12.5 65.5t-41.5 20.5q-59 0 -59 -96v-662h-539v684q0 74 -51 74q-36 0 -48.5 -23
t-12.5 -78v-657h-539z" />
    <glyph glyph-name="n" unicode="n" horiz-adv-x="1380" 
d="M88 0v793q0 101 -4 297h539q7 -33 12 -103q114 131 309 131q161 0 254.5 -102.5t93.5 -294.5v-721h-544v653q0 63 -13.5 84t-42.5 21t-43 -28t-14 -95v-635h-547z" />
    <glyph glyph-name="o" unicode="o" horiz-adv-x="1413" 
d="M711 1118q154 0 278 -46t202.5 -125t120.5 -182t42 -220q0 -267 -170.5 -420.5t-483.5 -153.5q-135 0 -244 31.5t-182 85t-122 127.5t-71 156t-22 174q0 95 23 178.5t73 156.5t125 125.5t185 82.5t246 30zM709 807q-30 0 -47 -18.5t-27 -77.5t-10 -168
q0 -158 17.5 -212.5t64.5 -54.5q43 0 61 54.5t18 206.5q0 114 -7.5 171t-23 78t-46.5 21z" />
    <glyph glyph-name="p" unicode="p" horiz-adv-x="1406" 
d="M633 -371h-545v1110q0 296 -2 351h535q10 -48 10 -111q22 27 40 44t55 42.5t89 39t117 13.5q79 0 151.5 -33t132 -97t95 -172.5t35.5 -246.5q0 -127 -28.5 -230t-76 -170.5t-111 -113t-130.5 -65t-138 -19.5q-148 0 -229 84v-426zM784 547q0 103 -12 158t-28 68t-44 13
q-51 0 -66.5 -51t-15.5 -200q0 -133 17 -187.5t63 -54.5q49 0 67.5 52t18.5 202z" />
    <glyph glyph-name="q" unicode="q" horiz-adv-x="1404" 
d="M772 -371v457q-84 -115 -285 -115q-199 0 -313.5 157t-114.5 411q0 136 35.5 246.5t97 182.5t143.5 111t177 39q62 0 109.5 -11t77 -30.5t46.5 -37.5t31 -42q4 54 10 93h533q-2 -76 -2 -326v-1135h-545zM618 545q0 -140 21.5 -196t65.5 -56q50 0 65.5 52t15.5 196
q0 149 -14 198t-63 49q-29 0 -47 -16t-31 -72t-13 -155z" />
    <glyph glyph-name="r" unicode="r" horiz-adv-x="978" 
d="M88 0v745q0 157 -4 345h532q13 -115 13 -164q15 33 38.5 63t60.5 60t93 49t123 20v-479q-94 5 -154 -5t-94.5 -37.5t-47.5 -69t-13 -107.5v-420h-547z" />
    <glyph glyph-name="s" unicode="s" horiz-adv-x="1241" 
d="M39 346h475q7 -38 36.5 -59t74.5 -21q75 0 75 43q0 26 -38.5 40t-153.5 36q-96 18 -170 42t-121.5 53t-79 59.5t-47 68t-21.5 71t-6 75.5q0 51 14 98.5t52 97t96.5 86t155.5 59.5t221 23q110 0 202 -20t154 -53t106 -78t65.5 -93t25.5 -100h-459q-13 74 -98 74
q-66 0 -66 -41q0 -24 40.5 -37.5t189.5 -44.5q228 -47 328 -133t100 -232q0 -86 -31.5 -155t-98.5 -122.5t-180.5 -82.5t-267.5 -29q-138 0 -246.5 31t-176 84.5t-105 119t-45.5 140.5z" />
    <glyph glyph-name="t" unicode="t" horiz-adv-x="917" 
d="M18 762v328h146v270h534v-270h162v-328h-162v-381q0 -39 19 -55.5t76 -16.5q22 0 45 2v-301q-44 -14 -131 -23.5t-150 -9.5q-118 0 -197.5 24.5t-123 74t-61 113.5t-17.5 155v418h-140z" />
    <glyph glyph-name="u" unicode="u" horiz-adv-x="1378" 
d="M1290 1090v-684q0 -304 2 -406h-536q-8 27 -8 111q-58 -73 -133 -107.5t-183 -34.5q-346 0 -346 389v732h545v-660q0 -53 12.5 -75.5t42.5 -22.5q33 0 45 26.5t12 92.5v639h547z" />
    <glyph glyph-name="v" unicode="v" horiz-adv-x="1265" 
d="M-16 1090h585q64 -499 80 -656h21q11 100 35 322.5t36 333.5h541l-319 -1090h-656z" />
    <glyph glyph-name="w" unicode="w" horiz-adv-x="1863" 
d="M-14 1090h581q13 -164 23 -303.5t17.5 -241.5t10.5 -144h13q32 262 71 689h508q32 -343 60 -699h14q35 424 59 699h535l-297 -1090h-596q-11 100 -28 308t-19 233h-12q-14 -179 -60 -541h-594z" />
    <glyph glyph-name="x" unicode="x" horiz-adv-x="1204" 
d="M-57 1090h604q66 -307 67 -310h15q10 47 30 163.5t27 146.5h571l-305 -521l308 -569h-592q-5 19 -68 307h-12q-3 -10 -14.5 -59t-28 -122.5t-29.5 -125.5h-573l297 553z" />
    <glyph glyph-name="y" unicode="y" horiz-adv-x="1265" 
d="M-31 1090h602q47 -318 82 -656h17q5 42 32.5 280.5t45.5 375.5h534l-258 -863q-36 -122 -61.5 -193.5t-65.5 -152t-85 -123t-111.5 -81t-155 -53.5t-207.5 -15q-65 0 -205 12v346q2 0 14.5 -1t30.5 -2t33 -1q112 0 133 47z" />
    <glyph glyph-name="z" unicode="z" horiz-adv-x="1142" 
d="M43 0v301q8 9 166.5 177t267.5 284h-414v328h1014v-320q-88 -104 -399 -442h455l-68 -328h-1022z" />
    <glyph glyph-name="braceleft" unicode="{" horiz-adv-x="831" 
d="M41 369v358q67 0 107.5 9t62.5 31t29.5 51t7.5 77v168q0 107 31.5 186t88 125.5t128.5 69t159 22.5h113v-295h-37q-57 0 -74.5 -26t-17.5 -72v-182q0 -55 -4 -94t-18.5 -81t-40.5 -70.5t-71.5 -52t-109.5 -36.5q62 -5 107.5 -28t71.5 -54.5t41 -78t19.5 -89.5t4.5 -98
v-180q0 -21 2.5 -34.5t11 -33.5t31.5 -30.5t59 -10.5h25v-291h-117q-67 0 -124 11.5t-109.5 40.5t-89 73.5t-58.5 114.5t-22 160v174q0 91 -41 127t-166 39z" />
    <glyph glyph-name="bar" unicode="|" horiz-adv-x="583" 
d="M117 1599h348v-2131h-348v2131z" />
    <glyph glyph-name="braceright" unicode="}" horiz-adv-x="831" 
d="M791 727v-358q-67 0 -107.5 -9t-62.5 -31t-29.5 -51t-7.5 -77v-168q0 -107 -31.5 -186.5t-88.5 -126t-129 -69t-159 -22.5h-113v295h37q57 0 75 26.5t18 72.5v182q0 70 7.5 116.5t31.5 94t74.5 77.5t129.5 46q-62 5 -107.5 28t-71 54.5t-40.5 78t-19.5 89t-4.5 98.5v180
q0 20 -2.5 34.5t-11.5 34t-32 30t-59 10.5h-25v290h117q85 0 154 -19.5t127 -63.5t90.5 -124t32.5 -192v-174q0 -91 41 -127t166 -39z" />
    <glyph glyph-name="asciitilde" unicode="~" horiz-adv-x="1345" 
d="M414 326h-299v100q0 88 18 155.5t46.5 108t70 66t82 34.5t88.5 9q68 0 141.5 -23.5t125 -52.5t103 -52.5t78.5 -23.5q31 0 47.5 18.5t16.5 73.5v39h297v-94q-3 -387 -287 -387q-64 0 -139.5 23t-130.5 50.5t-111.5 50.5t-87.5 23q-59 0 -59 -86v-32z" />
    <glyph glyph-name="uni00A0" unicode="&#xa0;" horiz-adv-x="389" 
 />
    <glyph glyph-name="exclamdown" unicode="&#xa1;" horiz-adv-x="780" 
d="M150 516h432l73 -604v-234h-577v236zM100 1090h539v-461h-539v461z" />
    <glyph glyph-name="cent" unicode="&#xa2;" horiz-adv-x="1316" 
d="M784 545h473q-16 -143 -119.5 -251.5t-291.5 -141.5v-146h-289v144q-124 18 -216.5 69.5t-146 127.5t-79 163t-25.5 186q0 106 27.5 195t82.5 161t146 119.5t211 63.5v117h289v-121q89 -14 160.5 -45t116.5 -70.5t75.5 -88t43.5 -95t15 -94.5h-477q-5 57 -18.5 84.5
t-50.5 27.5q-36 0 -53 -57t-17 -188q0 -156 17 -212.5t55 -56.5q59 0 71 109z" />
    <glyph glyph-name="sterling" unicode="&#xa3;" horiz-adv-x="1306" 
d="M1239 0h-1165v307q85 24 113 76t28 164v18h-166v244h141q-4 58 -4 92q0 83 17 152.5t57 131t101.5 104t155.5 67t214 24.5q116 0 206 -23.5t146.5 -62.5t94 -94.5t53 -112.5t18.5 -124h-424q-4 52 -19 74t-44 22t-43 -21t-14 -73q0 -46 12 -156h252v-244h-250
q-20 -131 -70 -207h645z" />
    <glyph glyph-name="currency" unicode="&#xa4;" horiz-adv-x="1257" 
d="M633 1133q111 0 213 -48l135 132l258 -269l-154 -149q19 -71 19 -148q0 -80 -23 -164l158 -147l-258 -268l-133 133q-100 -49 -223 -49q-121 0 -215 49l-134 -133l-262 268l152 145q-25 77 -25 158q0 77 25 154l-152 151l262 269l134 -134q106 50 223 50zM627 807
q-15 0 -28.5 -4.5t-33 -18.5t-31.5 -50t-12 -89q0 -164 105 -164q17 0 30.5 4.5t31.5 19t28 51.5t10 93q0 158 -100 158z" />
    <glyph glyph-name="yen" unicode="&#xa5;" horiz-adv-x="1245" 
d="M1120 250h-248v-250h-532v250h-240v246h240v84h-240v245h166l-321 531h587q84 -352 93 -406h12q9 62 80 406h569l-338 -531h172v-245h-248v-84h248v-246z" />
    <glyph glyph-name="brokenbar" unicode="&#xa6;" horiz-adv-x="585" 
d="M119 367h348v-734h-348v734zM119 1411h348v-729h-348v729z" />
    <glyph glyph-name="section" unicode="&#xa7;" horiz-adv-x="1300" 
d="M1153 1085h-397q-21 82 -117 82q-36 0 -54 -12t-18 -31q0 -24 33 -38t193 -64q240 -75 336 -169.5t96 -229.5q0 -172 -166 -277q102 -81 102 -225q0 -188 -145 -281.5t-393 -93.5t-387 94t-160 266h442q23 -77 107 -77q77 0 77 45q0 18 -8.5 28.5t-43.5 25t-105 32.5
q-149 39 -246.5 80.5t-151.5 91.5t-75 103t-21 124q0 87 45 152t135 116q-100 82 -100 236q0 170 124 277.5t363 107.5q117 0 208.5 -21t149.5 -55t97.5 -82.5t57 -98t22.5 -106.5zM442 653q0 -26 22.5 -42t88.5 -40q44 -16 132.5 -44t121.5 -40q18 15 18 48q0 42 -65 70
q-22 10 -90 32q-18 5 -91 29.5t-114 33.5q-23 -18 -23 -47z" />
    <glyph glyph-name="dieresis" unicode="&#xa8;" 
d="M360 1176h-397v321h397v-321zM856 1176h-397v321h397v-321z" />
    <glyph glyph-name="copyright" unicode="&#xa9;" horiz-adv-x="1634" 
d="M913 625h293q-20 -141 -112.5 -222t-266.5 -81q-94 0 -169 31.5t-121.5 86t-70.5 124t-24 147.5q0 79 24.5 148.5t71 124t122 86.5t169.5 32q82 0 148.5 -22t107 -55.5t68.5 -75.5t39 -79t12 -69h-293q-13 82 -80 82q-42 0 -62.5 -37.5t-20.5 -120.5q0 -93 21.5 -136.5
t68.5 -43.5q35 0 51 19.5t24 60.5zM821 1448q201 0 366.5 -89.5t265 -260t99.5 -391.5q0 -169 -58 -309.5t-157.5 -234t-232.5 -145t-283 -51.5q-156 0 -290.5 50.5t-234.5 143t-157 233.5t-57 313q0 217 98.5 387.5t266.5 262t374 91.5zM817 1280q-159 0 -283.5 -67
t-197 -196.5t-72.5 -301.5q0 -254 156.5 -413t396.5 -159q118 0 217.5 35t175 102.5t118 176.5t42.5 248q0 132 -43.5 241.5t-118.5 181.5t-176 112t-215 40z" />
    <glyph glyph-name="ordfeminine" unicode="&#xaa;" horiz-adv-x="911" 
d="M842 981v-184q0 -174 4 -256h-346q-1 1 -13 75q-73 -88 -219 -88q-97 0 -164 58.5t-67 161.5q0 102 81.5 163.5t266.5 61.5h96v18q0 33 -12.5 47.5t-40.5 14.5q-54 0 -57 -60h-308q3 36 10.5 65t32.5 64.5t64 59t110 39.5t166 16q97 0 170 -16.5t115 -41.5t68 -60.5
t34.5 -68t8.5 -69.5zM485 809v31h-36q-56 0 -56 -54q0 -23 14.5 -34t28.5 -11q27 0 38 16.5t11 51.5z" />
    <glyph glyph-name="guillemotleft" unicode="&#xab;" horiz-adv-x="1259" 
d="M690 958l-289 -417l287 -414h-344l-293 414l293 417h346zM1208 958l-282 -417l280 -414h-340l-288 414l288 417h342z" />
    <glyph glyph-name="logicalnot" unicode="&#xac;" horiz-adv-x="1292" 
d="M90 803h1081v-717h-340v393h-741v324z" />
    <glyph glyph-name="uni00AD" unicode="&#xad;" horiz-adv-x="776" 
d="M63 729h650v-377h-650v377z" />
    <glyph glyph-name="registered" unicode="&#xae;" horiz-adv-x="624" 
d="M301 1022h-106v262h167q47 0 74 -18.5t27 -53.5q0 -50 -51 -63q41 -16 41 -66q0 -45 6 -61h-111q-4 14 -4 55q0 19 -6 25t-23 6h-14v-86zM309 1214v-36h17q24 0 24 18t-26 18h-15zM315 1450q142 0 227 -88t85 -211q0 -142 -89 -224.5t-223 -82.5q-122 0 -209.5 85.5
t-87.5 221.5q0 124 84 211.5t213 87.5zM317 1372q-93 0 -150.5 -61.5t-57.5 -163.5q0 -103 57 -163t149 -60q222 0 222 225q0 97 -59 160t-161 63z" />
    <glyph glyph-name="macron" unicode="&#xaf;" 
d="M47 1479h723v-283h-723v283z" />
    <glyph glyph-name="degree" unicode="&#xb0;" horiz-adv-x="792" 
d="M395 1401q166 0 257 -87.5t91 -221.5q0 -149 -99.5 -234.5t-252.5 -85.5q-160 0 -251 86.5t-91 226.5q0 141 90.5 228.5t255.5 87.5zM391 1221q-56 0 -82 -36.5t-26 -97.5q0 -56 28 -91t80 -35q53 0 81 34.5t28 89.5q0 62 -27 99t-82 37z" />
    <glyph glyph-name="plusminus" unicode="&#xb1;" horiz-adv-x="1265" 
d="M465 1352h340v-303h366v-328h-366v-295h-340v295h-375v328h375v303zM1176 0h-1082v332h1082v-332z" />
    <glyph glyph-name="two.sups" unicode="&#xb2;" horiz-adv-x="899" 
d="M827 885h-764v28q0 131 53.5 223.5t186.5 166.5q116 64 132 77q24 19 24 45q0 18 -2 28.5t-11.5 21t-27.5 10.5q-27 0 -36.5 -18.5t-14.5 -61.5h-326q6 62 28 113t66.5 96.5t123 71.5t185.5 26q91 0 162.5 -17.5t115.5 -45.5t73 -65t40 -72.5t11 -71.5q0 -88 -38 -136.5
t-159 -105.5q-71 -32 -88 -53h313z" />
    <glyph glyph-name="three.sups" unicode="&#xb3;" horiz-adv-x="897" 
d="M330 1208v189h78q59 0 59 39q0 47 -47 47q-28 0 -39 -12t-14 -37h-320q3 39 15 74.5t41 73.5t72 66t114 46t162 18q182 0 284.5 -65.5t102.5 -182.5q0 -110 -121 -151q18 -4 41 -15t49.5 -32t44.5 -56.5t18 -79.5q0 -37 -10 -70.5t-39 -69t-74.5 -60.5t-122.5 -41.5
t-178 -16.5q-99 0 -176 21.5t-121 52.5t-72.5 72t-38.5 74.5t-11 66.5h342q3 -27 17.5 -44t37.5 -17q51 0 51 53q0 57 -78 57h-67z" />
    <glyph glyph-name="acute" unicode="&#xb4;" 
d="M444 1497h519l-416 -319h-375z" />
    <glyph glyph-name="uni00B5" unicode="&#xb5;" horiz-adv-x="1378" 
d="M565 -27q-23 0 -37 7q0 -26 4.5 -97t11 -151t7.5 -103h-465v1461h545v-676q0 -78 55 -78q23 0 40 22t17 78v654h547v-738q0 -291 4 -352h-520q-12 58 -14 78q-64 -105 -195 -105z" />
    <glyph glyph-name="paragraph" unicode="&#xb6;" horiz-adv-x="1351" 
d="M1198 -322h-311v553h-250q-258 0 -416 155t-158 419q0 115 35 210.5t92.5 158.5t132 106.5t151 62.5t153.5 19h264q0 53 12 113h301q-6 -114 -6 -299v-1498zM834 526h53v541h-58q-67 0 -92.5 -57t-25.5 -201q0 -160 25.5 -221.5t97.5 -61.5z" />
    <glyph glyph-name="periodcentered" unicode="&#xb7;" horiz-adv-x="624" 
d="M561 412h-498v528h498v-528z" />
    <glyph glyph-name="cedilla" unicode="&#xb8;" 
d="M338 10h272l-94 -71q199 -46 199 -195q0 -65 -31 -111.5t-82 -70t-102.5 -33.5t-106.5 -10q-133 0 -198 18v178q46 -8 79 -8q48 0 48 41q0 21 -20 33.5t-79 15.5l-4 113z" />
    <glyph glyph-name="one.sups" unicode="&#xb9;" horiz-adv-x="641" 
d="M551 885h-397v465q-61 5 -103 18v236q81 3 146 30t102 64h252v-813z" />
    <glyph glyph-name="ordmasculine" unicode="&#xba;" horiz-adv-x="950" 
d="M477 1237q204 0 315 -99.5t111 -254.5q0 -168 -111 -259.5t-323 -91.5q-203 0 -313.5 98.5t-110.5 250.5q0 160 112 258t320 98zM475 1016q-28 0 -39.5 -30t-11.5 -103q0 -72 12.5 -103.5t40.5 -31.5q27 0 37 27t12 102q1 80 -10 109.5t-41 29.5z" />
    <glyph glyph-name="guillemotright" unicode="&#xbb;" horiz-adv-x="1259" 
d="M569 127l289 418l-287 413h344l293 -413l-293 -418h-346zM51 127l283 418l-281 413h340l289 -413l-289 -418h-342z" />
    <glyph glyph-name="onequarter" unicode="&#xbc;" horiz-adv-x="1839" 
d="M559 0h-248l811 1356h244zM551 543h-397v465q-61 5 -103 18v236q81 3 146 30t102 64h252v-813zM1698 0h-357v150h-389v258l252 407h494v-416h110l-24 -249h-86v-150zM1255 399h86v23q0 60 7 160q-18 -29 -47.5 -91.5t-45.5 -91.5z" />
    <glyph glyph-name="onehalf" unicode="&#xbd;" horiz-adv-x="1853" 
d="M522 0h-248l811 1356h244zM551 543h-397v465q-61 5 -103 18v236q81 3 146 30t102 64h252v-813zM1767 -29h-763v29q0 131 53 223.5t186 165.5q115 64 132 78q24 20 24 45q0 17 -2 28t-11.5 21t-27.5 10q-27 0 -36.5 -18t-14.5 -61h-326q6 62 28 113t66.5 96.5t123 71.5
t185.5 26q91 0 162.5 -18t115.5 -45.5t73 -64.5t40 -73t11 -72q0 -87 -38 -135.5t-159 -105.5q-70 -32 -88 -54h314z" />
    <glyph glyph-name="threequarters" unicode="&#xbe;" horiz-adv-x="2097" 
d="M817 0h-248l811 1356h244zM1954 0h-357v150h-389v258l252 407h494v-416h110l-24 -249h-86v-150zM1511 399h86v23q0 60 7 160q-18 -29 -47.5 -91.5t-45.5 -91.5zM356 866v189h78q60 0 60 39q0 47 -48 47q-28 0 -39 -12t-14 -37h-319q3 39 15 74.5t41 73.5t71.5 66
t113.5 46t162 18q182 0 284.5 -65.5t102.5 -182.5q0 -110 -121 -151q18 -4 41 -15t50 -32t45 -56.5t18 -79.5q0 -37 -10 -70.5t-39 -69t-74.5 -60.5t-122.5 -41.5t-178 -16.5q-83 0 -151 14.5t-112 39.5t-75.5 54t-48.5 63t-24.5 61.5t-8.5 54.5h342q3 -27 18 -44t38 -17
q51 0 51 53q0 57 -78 57h-68z" />
    <glyph glyph-name="questiondown" unicode="&#xbf;" horiz-adv-x="1144" 
d="M2 41q0 109 53.5 184t155.5 150q98 72 98 147q0 31 -4 43h500q24 -53 24 -123q0 -75 -46.5 -144.5t-147.5 -147.5q-86 -66 -86 -140q0 -69 55 -69q37 0 56 35.5t22 121.5l436 -2q-5 -221 -139 -325.5t-424 -104.5q-117 0 -211 19.5t-157 53.5t-105.5 81.5t-61 102.5
t-18.5 118zM301 1087h524v-405h-524v405z" />
    <glyph glyph-name="Agrave" unicode="&#xc0;" horiz-adv-x="1542" 
d="M915 221h-329l-47 -221h-545l395 1413h752l407 -1413h-585zM655 594h183q-8 50 -23 132t-34.5 186.5t-28.5 156.5h-13q-69 -402 -84 -475zM150 1772h589l265 -269h-420z" />
    <glyph glyph-name="Aacute" unicode="&#xc1;" horiz-adv-x="1542" 
d="M915 221h-329l-47 -221h-545l395 1413h752l407 -1413h-585zM655 594h183q-8 50 -23 132t-34.5 186.5t-28.5 156.5h-13q-69 -402 -84 -475zM793 1772h593l-448 -269h-416z" />
    <glyph glyph-name="Acircumflex" unicode="&#xc2;" horiz-adv-x="1542" 
d="M915 221h-329l-47 -221h-545l395 1413h752l407 -1413h-585zM655 594h183q-8 50 -23 132t-34.5 186.5t-28.5 156.5h-13q-69 -402 -84 -475zM510 1763h520l209 -268h-397l-74 113l-68 -113h-413z" />
    <glyph glyph-name="Atilde" unicode="&#xc3;" horiz-adv-x="1542" 
d="M915 221h-329l-47 -221h-545l395 1413h752l407 -1413h-585zM655 594h183q-8 50 -23 132t-34.5 186.5t-28.5 156.5h-13q-69 -402 -84 -475zM627 1499h-254v53q0 72 15.5 123.5t36.5 78t54.5 42t59 18.5t59.5 3q71 0 169.5 -34t125.5 -34q16 0 21.5 8.5t5.5 30.5v27h249
v-33q0 -79 -15.5 -136t-38 -87t-57.5 -47t-62.5 -21t-65.5 -4q-64 0 -162 31.5t-117 31.5q-24 0 -24 -30v-21z" />
    <glyph glyph-name="Adieresis" unicode="&#xc4;" horiz-adv-x="1542" 
d="M915 221h-329l-47 -221h-545l395 1413h752l407 -1413h-585zM655 594h183q-8 50 -23 132t-34.5 186.5t-28.5 156.5h-13q-69 -402 -84 -475zM713 1509h-398v322h398v-322zM1208 1509h-397v322h397v-322z" />
    <glyph glyph-name="Aring" unicode="&#xc5;" horiz-adv-x="1542" 
d="M915 221h-329l-47 -221h-545l395 1413h752l407 -1413h-585zM655 594h183q-8 50 -23 132t-34.5 186.5t-28.5 156.5h-13q-69 -402 -84 -475zM772 1481q-147 0 -225 57t-78 158q0 104 77 160.5t228 56.5q145 0 220 -55t75 -160q0 -108 -77 -162.5t-220 -54.5zM766 1649
q78 0 78 47q0 51 -74 51t-74 -51q0 -47 70 -47z" />
    <glyph glyph-name="AE" unicode="&#xc6;" horiz-adv-x="2185" 
d="M639 1413h1466v-369h-610v-149h586v-365h-586v-165h659l-57 -365h-1132v246h-361l-106 -246h-564zM784 610h181v412h-11z" />
    <glyph glyph-name="Ccedilla" unicode="&#xc7;" horiz-adv-x="1523" 
d="M948 504h557q-30 -230 -176 -367t-401 -166l-43 -32q198 -46 198 -195q0 -65 -31 -111.5t-81.5 -70t-102 -33.5t-106.5 -10q-134 0 -199 18v178q46 -8 80 -8q47 0 47 41q0 21 -19.5 33.5t-78.5 15.5l-4 113l71 61q-195 23 -332 122t-203.5 251.5t-66.5 347.5
q0 162 44 297t133 239.5t236 163t339 58.5q136 0 249.5 -30t191 -80t132.5 -118.5t82 -143t33 -154.5h-555q-13 176 -141 176q-49 0 -81.5 -26t-49.5 -79.5t-24 -120.5t-7 -163q0 -89 6 -153.5t22 -123t49.5 -89t82.5 -30.5q74 0 106 50.5t43 138.5z" />
    <glyph glyph-name="Egrave" unicode="&#xc8;" horiz-adv-x="1361" 
d="M1247 897v-373h-596v-151h680l-59 -373h-1159v1413h1159v-373h-621v-143h596zM115 1772h590l264 -269h-420z" />
    <glyph glyph-name="Eacute" unicode="&#xc9;" horiz-adv-x="1361" 
d="M1247 897v-373h-596v-151h680l-59 -373h-1159v1413h1159v-373h-621v-143h596zM729 1772h594l-449 -269h-415z" />
    <glyph glyph-name="Ecircumflex" unicode="&#xca;" horiz-adv-x="1361" 
d="M1247 897v-373h-596v-151h680l-59 -373h-1159v1413h1159v-373h-621v-143h596zM440 1780h521l208 -269h-397l-74 113l-67 -113h-414z" />
    <glyph glyph-name="Edieresis" unicode="&#xcb;" horiz-adv-x="1361" 
d="M1247 897v-373h-596v-151h680l-59 -373h-1159v1413h1159v-373h-621v-143h596zM643 1509h-397v322h397v-322zM1139 1509h-398v322h398v-322z" />
    <glyph glyph-name="Igrave" unicode="&#xcc;" horiz-adv-x="792" 
d="M113 1413h567v-1413h-567v1413zM-246 1772h590l264 -269h-420z" />
    <glyph glyph-name="Iacute" unicode="&#xcd;" horiz-adv-x="792" 
d="M113 1413h567v-1413h-567v1413zM459 1772h594l-449 -269h-416z" />
    <glyph glyph-name="Icircumflex" unicode="&#xce;" horiz-adv-x="792" 
d="M113 1413h567v-1413h-567v1413zM135 1763h520l209 -268h-397l-74 113l-67 -113h-414z" />
    <glyph glyph-name="Idieresis" unicode="&#xcf;" horiz-adv-x="792" 
d="M113 1413h567v-1413h-567v1413zM338 1509h-397v322h397v-322zM834 1509h-398v322h398v-322z" />
    <glyph glyph-name="Eth" unicode="&#xd0;" horiz-adv-x="1636" 
d="M43 848h107v565h669q188 0 335 -54t238.5 -149.5t139 -220.5t47.5 -272q0 -153 -46.5 -281.5t-137.5 -227t-236.5 -153.5t-331.5 -55h-677v600h-107v248zM715 1053v-205h162v-248h-162v-240h57q124 0 173.5 79.5t49.5 277.5q0 194 -45.5 265t-167.5 71h-67z" />
    <glyph glyph-name="Ntilde" unicode="&#xd1;" horiz-adv-x="1611" 
d="M633 0h-520v1413h655q113 -338 223 -760h13q-25 286 -25 621v139h520v-1413h-627q-70 212 -245 797h-9q4 -40 7 -91t4.5 -88t2.5 -110.5t1 -102v-122v-115.5v-168zM680 1503h-254v53q0 72 15.5 123.5t36.5 78t54.5 42t59 18.5t59.5 3q71 0 169.5 -34t125.5 -34
q16 0 21.5 8.5t5.5 30.5v27h250v-33q0 -79 -15.5 -136t-38 -87t-58 -47t-63 -21t-65.5 -4q-64 0 -161.5 31.5t-116.5 31.5q-25 0 -25 -30v-21z" />
    <glyph glyph-name="Ograve" unicode="&#xd2;" horiz-adv-x="1628" 
d="M827 1450q146 0 268.5 -39.5t209 -109t147.5 -164t90 -204.5t29 -231q0 -157 -47 -289t-138.5 -233.5t-240.5 -159t-340 -57.5q-152 0 -277.5 40t-211.5 108.5t-145.5 163.5t-86.5 202.5t-27 227.5q0 121 28 229.5t89 203.5t150 164t218 108.5t285 39.5zM815 1098
q-94 0 -135 -96t-41 -291q0 -197 39.5 -296.5t140.5 -99.5q50 0 84 25.5t53.5 77t28 119.5t8.5 163q0 82 -4 140.5t-15.5 110t-31 82t-51.5 48t-76 17.5zM193 1808h589l265 -268h-420z" />
    <glyph glyph-name="Oacute" unicode="&#xd3;" horiz-adv-x="1628" 
d="M827 1450q146 0 268.5 -39.5t209 -109t147.5 -164t90 -204.5t29 -231q0 -157 -47 -289t-138.5 -233.5t-240.5 -159t-340 -57.5q-152 0 -277.5 40t-211.5 108.5t-145.5 163.5t-86.5 202.5t-27 227.5q0 121 28 229.5t89 203.5t150 164t218 108.5t285 39.5zM815 1098
q-94 0 -135 -96t-41 -291q0 -197 39.5 -296.5t140.5 -99.5q50 0 84 25.5t53.5 77t28 119.5t8.5 163q0 82 -4 140.5t-15.5 110t-31 82t-51.5 48t-76 17.5zM836 1792h594l-449 -268h-416z" />
    <glyph glyph-name="Ocircumflex" unicode="&#xd4;" horiz-adv-x="1628" 
d="M827 1450q146 0 268.5 -39.5t209 -109t147.5 -164t90 -204.5t29 -231q0 -157 -47 -289t-138.5 -233.5t-240.5 -159t-340 -57.5q-152 0 -277.5 40t-211.5 108.5t-145.5 163.5t-86.5 202.5t-27 227.5q0 121 28 229.5t89 203.5t150 164t218 108.5t285 39.5zM815 1098
q-94 0 -135 -96t-41 -291q0 -197 39.5 -296.5t140.5 -99.5q50 0 84 25.5t53.5 77t28 119.5t8.5 163q0 82 -4 140.5t-15.5 110t-31 82t-51.5 48t-76 17.5zM553 1798h520l209 -268h-397l-74 112l-68 -112h-413z" />
    <glyph glyph-name="Otilde" unicode="&#xd5;" horiz-adv-x="1628" 
d="M827 1450q146 0 268.5 -39.5t209 -109t147.5 -164t90 -204.5t29 -231q0 -157 -47 -289t-138.5 -233.5t-240.5 -159t-340 -57.5q-152 0 -277.5 40t-211.5 108.5t-145.5 163.5t-86.5 202.5t-27 227.5q0 121 28 229.5t89 203.5t150 164t218 108.5t285 39.5zM815 1098
q-94 0 -135 -96t-41 -291q0 -197 39.5 -296.5t140.5 -99.5q50 0 84 25.5t53.5 77t28 119.5t8.5 163q0 82 -4 140.5t-15.5 110t-31 82t-51.5 48t-76 17.5zM670 1530h-254v53q0 72 15.5 123.5t36.5 78t55 41.5t58.5 18t59.5 3q71 0 169.5 -33.5t125.5 -33.5q16 0 21.5 8.5
t5.5 30.5v26h249v-33q0 -57 -8 -103t-21 -76t-33 -52t-39 -34t-45.5 -19t-46.5 -8.5t-46 -1.5q-64 0 -162 31.5t-117 31.5q-24 0 -24 -31v-20z" />
    <glyph glyph-name="Odieresis" unicode="&#xd6;" horiz-adv-x="1628" 
d="M827 1450q146 0 268.5 -39.5t209 -109t147.5 -164t90 -204.5t29 -231q0 -157 -47 -289t-138.5 -233.5t-240.5 -159t-340 -57.5q-152 0 -277.5 40t-211.5 108.5t-145.5 163.5t-86.5 202.5t-27 227.5q0 121 28 229.5t89 203.5t150 164t218 108.5t285 39.5zM815 1098
q-94 0 -135 -96t-41 -291q0 -197 39.5 -296.5t140.5 -99.5q50 0 84 25.5t53.5 77t28 119.5t8.5 163q0 82 -4 140.5t-15.5 110t-31 82t-51.5 48t-76 17.5zM756 1530h-398v321h398v-321zM1251 1530h-397v321h397v-321z" />
    <glyph glyph-name="multiply" unicode="&#xd7;" horiz-adv-x="1259" 
d="M1169 207l-200 -207l-336 342l-334 -342l-209 207l340 342l-340 344l201 203l340 -344l342 344l196 -203l-335 -346z" />
    <glyph glyph-name="Oslash" unicode="&#xd8;" horiz-adv-x="1628" 
d="M827 1450q204 0 361 -74l41 58h198l-102 -146q121 -101 183.5 -254t62.5 -336q0 -124 -27.5 -232.5t-87 -201.5t-148 -159.5t-217 -104t-286.5 -37.5q-214 0 -371 74l-41 -55h-198l102 143q-120 100 -180 249.5t-60 325.5q0 162 46 296t137.5 236.5t241.5 160t345 57.5z
M610 707q0 -77 8 -132l330 465q-47 56 -133 56q-106 0 -155.5 -106t-49.5 -283zM819 317q203 0 203 379q0 96 -8 156l-332 -467q49 -68 137 -68z" />
    <glyph glyph-name="Ugrave" unicode="&#xd9;" horiz-adv-x="1583" 
d="M98 1413h566v-921q0 -156 133 -156q58 0 88 41.5t30 114.5v921h570v-833q0 -617 -701 -617q-348 0 -517 152t-169 467v831zM190 1772h590l264 -269h-419z" />
    <glyph glyph-name="Uacute" unicode="&#xda;" horiz-adv-x="1583" 
d="M98 1413h566v-921q0 -156 133 -156q58 0 88 41.5t30 114.5v921h570v-833q0 -617 -701 -617q-348 0 -517 152t-169 467v831zM813 1772h594l-449 -269h-415z" />
    <glyph glyph-name="Ucircumflex" unicode="&#xdb;" horiz-adv-x="1583" 
d="M98 1413h566v-921q0 -156 133 -156q58 0 88 41.5t30 114.5v921h570v-833q0 -617 -701 -617q-348 0 -517 152t-169 467v831zM530 1763h521l209 -268h-398l-74 113l-67 -113h-414z" />
    <glyph glyph-name="Udieresis" unicode="&#xdc;" horiz-adv-x="1583" 
d="M98 1413h566v-921q0 -156 133 -156q58 0 88 41.5t30 114.5v921h570v-833q0 -617 -701 -617q-348 0 -517 152t-169 467v831zM733 1509h-397v322h397v-322zM1229 1509h-398v322h398v-322z" />
    <glyph glyph-name="Yacute" unicode="&#xdd;" horiz-adv-x="1466" 
d="M1014 0h-568v479q0 35 -18 66l-481 868h637q76 -217 170 -508q28 89 94.5 273.5t83.5 234.5h588l-492 -874q-14 -25 -14 -64v-475zM784 1772h594l-448 -269h-416z" />
    <glyph glyph-name="Thorn" unicode="&#xde;" horiz-adv-x="1482" 
d="M113 0v1413h553v-235h170q176 0 306 -49t205.5 -152t75.5 -252q0 -120 -45.5 -214.5t-126 -153.5t-186 -90t-229.5 -31h-168v-236h-555zM666 872v-329h49q79 0 114 40.5t35 129.5q0 85 -35 122t-112 37h-51z" />
    <glyph glyph-name="germandbls" unicode="&#xdf;" horiz-adv-x="1574" 
d="M764 1495q161 0 284.5 -27.5t197.5 -71t120.5 -105t63 -122t16.5 -129.5q0 -25 -2 -45l-238 -137v-6l35 -25q154 -109 216.5 -208t62.5 -218q0 -204 -132.5 -318t-379.5 -114q-94 0 -181.5 19.5t-140.5 50.5v328q122 -91 250 -91q92 0 92 64q0 31 -25 60.5t-92 68.5
l-69 41q-101 59 -140 144.5t-8 171t127 145.5l111 69q0 146 -150 146q-147 0 -147 -160v-1026h-547v1014q0 89 18.5 159t65.5 132t122.5 102.5t194 64t275.5 23.5z" />
    <glyph glyph-name="agrave" unicode="&#xe0;" horiz-adv-x="1337" 
d="M1245 676v-295q0 -310 10 -381h-485q-14 44 -20 104q-117 -133 -322 -133q-165 0 -272 92t-107 263q0 194 146 282t426 88h106v60q0 47 -16 66.5t-52 19.5q-65 0 -71 -92h-490q2 34 9 65.5t24 70t43 70t70 62.5t100.5 52.5t139 34.5t182.5 13q114 0 204 -14t153 -42
t106.5 -65.5t68.5 -89t36 -107t11 -124.5zM727 430v45h-51q-105 0 -105 -94q0 -37 20.5 -59.5t51.5 -22.5q49 0 66.5 30t17.5 101zM106 1513h527l280 -319h-372z" />
    <glyph glyph-name="aacute" unicode="&#xe1;" horiz-adv-x="1337" 
d="M1245 676v-295q0 -310 10 -381h-485q-14 44 -20 104q-117 -133 -322 -133q-165 0 -272 92t-107 263q0 194 146 282t426 88h106v60q0 47 -16 66.5t-52 19.5q-65 0 -71 -92h-490q2 34 9 65.5t24 70t43 70t70 62.5t100.5 52.5t139 34.5t182.5 13q114 0 204 -14t153 -42
t106.5 -65.5t68.5 -89t36 -107t11 -124.5zM727 430v45h-51q-105 0 -105 -94q0 -37 20.5 -59.5t51.5 -22.5q49 0 66.5 30t17.5 101zM711 1511h518l-416 -319h-375z" />
    <glyph glyph-name="acircumflex" unicode="&#xe2;" horiz-adv-x="1337" 
d="M1245 676v-295q0 -310 10 -381h-485q-14 44 -20 104q-117 -133 -322 -133q-165 0 -272 92t-107 263q0 194 146 282t426 88h106v60q0 47 -16 66.5t-52 19.5q-65 0 -71 -92h-490q2 34 9 65.5t24 70t43 70t70 62.5t100.5 52.5t139 34.5t182.5 13q114 0 204 -14t153 -42
t106.5 -65.5t68.5 -89t36 -107t11 -124.5zM727 430v45h-51q-105 0 -105 -94q0 -37 20.5 -59.5t51.5 -22.5q49 0 66.5 30t17.5 101zM457 1479h446l238 -293h-387l-78 110l-72 -110h-393z" />
    <glyph glyph-name="atilde" unicode="&#xe3;" horiz-adv-x="1337" 
d="M1245 676v-295q0 -310 10 -381h-485q-14 44 -20 104q-117 -133 -322 -133q-165 0 -272 92t-107 263q0 194 146 282t426 88h106v60q0 47 -16 66.5t-52 19.5q-65 0 -71 -92h-490q2 34 9 65.5t24 70t43 70t70 62.5t100.5 52.5t139 34.5t182.5 13q114 0 204 -14t153 -42
t106.5 -65.5t68.5 -89t36 -107t11 -124.5zM727 430v45h-51q-105 0 -105 -94q0 -37 20.5 -59.5t51.5 -22.5q49 0 66.5 30t17.5 101zM530 1196h-254v53q0 71 14.5 122t35.5 77.5t53.5 42t58.5 19t62 3.5q71 0 170.5 -33.5t126.5 -33.5q26 0 26 35v30h250v-38
q0 -78 -15.5 -134.5t-37 -85.5t-54 -45.5t-56.5 -20t-56 -3.5q-64 0 -169 31.5t-124 31.5q-31 0 -31 -30v-21z" />
    <glyph glyph-name="adieresis" unicode="&#xe4;" horiz-adv-x="1337" 
d="M1245 676v-295q0 -310 10 -381h-485q-14 44 -20 104q-117 -133 -322 -133q-165 0 -272 92t-107 263q0 194 146 282t426 88h106v60q0 47 -16 66.5t-52 19.5q-65 0 -71 -92h-490q2 34 9 65.5t24 70t43 70t70 62.5t100.5 52.5t139 34.5t182.5 13q114 0 204 -14t153 -42
t106.5 -65.5t68.5 -89t36 -107t11 -124.5zM727 430v45h-51q-105 0 -105 -94q0 -37 20.5 -59.5t51.5 -22.5q49 0 66.5 30t17.5 101zM627 1194h-398v322h398v-322zM1122 1194h-397v322h397v-322z" />
    <glyph glyph-name="aring" unicode="&#xe5;" horiz-adv-x="1337" 
d="M1245 676v-295q0 -310 10 -381h-485q-14 44 -20 104q-117 -133 -322 -133q-165 0 -272 92t-107 263q0 194 146 282t426 88h106v60q0 47 -16 66.5t-52 19.5q-65 0 -71 -92h-490q2 34 9 65.5t24 70t43 70t70 62.5t100.5 52.5t139 34.5t182.5 13q114 0 204 -14t153 -42
t106.5 -65.5t68.5 -89t36 -107t11 -124.5zM727 430v45h-51q-105 0 -105 -94q0 -37 20.5 -59.5t51.5 -22.5q49 0 66.5 30t17.5 101zM678 1178q-147 0 -225 57t-78 158q0 104 77 160.5t228 56.5q145 0 220 -55t75 -160q0 -108 -77 -162.5t-220 -54.5zM672 1346q78 0 78 47
q0 51 -74 51t-74 -51q0 -47 70 -47z" />
    <glyph glyph-name="ae" unicode="&#xe6;" horiz-adv-x="1986" 
d="M1399 358h526q-9 -53 -30.5 -103t-66.5 -103t-107 -92t-160 -64t-218 -25q-151 0 -269 37t-181 101q-103 -76 -194.5 -107t-227.5 -31q-181 0 -301.5 99.5t-120.5 261.5q0 72 21.5 129.5t63 95.5t89.5 64.5t115 42.5t124 24t132 14q66 6 133 9v28q0 52 -13.5 77.5
t-49.5 25.5q-39 0 -55.5 -23t-18.5 -67h-492q2 59 18 109.5t55 98.5t98.5 82.5t154.5 55t217 20.5q127 0 227.5 -25.5t153.5 -66.5q50 38 139 65t207 27q120 0 216.5 -30t160.5 -81t107 -121.5t62 -148.5t19 -166q0 -56 -4 -122h-710q-3 -175 94 -175q72 0 86 84zM727 432
v51q-9 -2 -26 -4t-25 -4q-54 -10 -78.5 -31.5t-24.5 -70.5q0 -37 20.5 -55.5t53.5 -18.5q47 0 63.5 30.5t16.5 102.5zM1219 686h167q0 73 -16.5 107t-66.5 34q-84 0 -84 -141z" />
    <glyph glyph-name="ccedilla" unicode="&#xe7;" horiz-adv-x="1318" 
d="M770 416h502q-44 -378 -451 -434l-55 -43q199 -46 199 -195q0 -65 -31 -111.5t-82 -70t-102.5 -33.5t-106.5 -10q-134 0 -199 18v178q46 -8 80 -8q47 0 47 41q0 21 -19.5 33.5t-78.5 15.5l-4 113l82 67q-130 16 -227.5 68.5t-153.5 129.5t-83.5 166.5t-27.5 190.5
q0 126 39.5 232t115.5 185.5t196.5 124t273.5 44.5q133 0 238.5 -31.5t167.5 -78t104 -108.5t58 -114.5t20 -105.5h-508q0 135 -64 135q-44 0 -59.5 -57.5t-15.5 -204.5q0 -161 15 -222t54 -61q20 0 34.5 11t22.5 34.5t11.5 45t7.5 55.5z" />
    <glyph glyph-name="egrave" unicode="&#xe8;" horiz-adv-x="1378" 
d="M1321 449h-711q0 -55 5.5 -89.5t26.5 -60t58 -25.5q76 0 91 86h526q-14 -57 -37.5 -106t-71.5 -103t-113 -92t-168 -63t-231 -25q-145 0 -258 33.5t-183 88.5t-115.5 131.5t-63 156t-17.5 168.5q0 92 20.5 173.5t68.5 155t120 126t182 83.5t248 31q144 0 256.5 -35.5
t181 -92t112.5 -134t60.5 -153t16.5 -158.5q0 -42 -4 -96zM610 686h166q0 34 -2.5 55.5t-10 43.5t-25 32t-44.5 10q-84 0 -84 -141zM119 1497h526l281 -319h-373z" />
    <glyph glyph-name="eacute" unicode="&#xe9;" horiz-adv-x="1378" 
d="M1321 449h-711q0 -55 5.5 -89.5t26.5 -60t58 -25.5q76 0 91 86h526q-14 -57 -37.5 -106t-71.5 -103t-113 -92t-168 -63t-231 -25q-145 0 -258 33.5t-183 88.5t-115.5 131.5t-63 156t-17.5 168.5q0 92 20.5 173.5t68.5 155t120 126t182 83.5t248 31q144 0 256.5 -35.5
t181 -92t112.5 -134t60.5 -153t16.5 -158.5q0 -42 -4 -96zM610 686h166q0 34 -2.5 55.5t-10 43.5t-25 32t-44.5 10q-84 0 -84 -141zM723 1497h518l-416 -319h-374z" />
    <glyph glyph-name="ecircumflex" unicode="&#xea;" horiz-adv-x="1378" 
d="M1321 449h-711q0 -55 5.5 -89.5t26.5 -60t58 -25.5q76 0 91 86h526q-14 -57 -37.5 -106t-71.5 -103t-113 -92t-168 -63t-231 -25q-145 0 -258 33.5t-183 88.5t-115.5 131.5t-63 156t-17.5 168.5q0 92 20.5 173.5t68.5 155t120 126t182 83.5t248 31q144 0 256.5 -35.5
t181 -92t112.5 -134t60.5 -153t16.5 -158.5q0 -42 -4 -96zM610 686h166q0 34 -2.5 55.5t-10 43.5t-25 32t-44.5 10q-84 0 -84 -141zM469 1470h446l238 -292h-387l-78 110l-72 -110h-393z" />
    <glyph glyph-name="edieresis" unicode="&#xeb;" horiz-adv-x="1378" 
d="M1321 449h-711q0 -55 5.5 -89.5t26.5 -60t58 -25.5q76 0 91 86h526q-14 -57 -37.5 -106t-71.5 -103t-113 -92t-168 -63t-231 -25q-145 0 -258 33.5t-183 88.5t-115.5 131.5t-63 156t-17.5 168.5q0 92 20.5 173.5t68.5 155t120 126t182 83.5t248 31q144 0 256.5 -35.5
t181 -92t112.5 -134t60.5 -153t16.5 -158.5q0 -42 -4 -96zM610 686h166q0 34 -2.5 55.5t-10 43.5t-25 32t-44.5 10q-84 0 -84 -141zM639 1176h-397v321h397v-321zM1135 1176h-398v321h398v-321z" />
    <glyph glyph-name="igrave" unicode="&#xec;" horiz-adv-x="722" 
d="M88 0v1090h547v-1090h-547zM-250 1497h526l281 -319h-373z" />
    <glyph glyph-name="iacute" unicode="&#xed;" horiz-adv-x="722" 
d="M88 0v1090h547v-1090h-547zM440 1497h518l-415 -319h-375z" />
    <glyph glyph-name="icircumflex" unicode="&#xee;" horiz-adv-x="722" 
d="M88 0v1090h547v-1090h-547zM141 1470h447l237 -292h-387l-78 110l-71 -110h-393z" />
    <glyph glyph-name="idieresis" unicode="&#xef;" horiz-adv-x="722" 
d="M88 0v1090h547v-1090h-547zM311 1176h-397v321h397v-321zM807 1176h-397v321h397v-321z" />
    <glyph glyph-name="eth" unicode="&#xf0;" horiz-adv-x="1382" 
d="M184 1204v283q334 0 602 -113l273 125l61 -145l-157 -74q169 -114 263.5 -286t94.5 -398q0 -137 -36 -245.5t-96 -178.5t-144.5 -116t-176.5 -65.5t-196 -19.5q-283 0 -450 144.5t-167 390.5q0 158 78.5 268.5t209.5 162t304 52.5h23q-23 60 -101 109l-301 -142l-67 148
l161 74q-77 20 -178 26zM688 705q-45 0 -62.5 -43.5t-17.5 -165.5q0 -123 17.5 -176.5t66.5 -53.5q37 0 55.5 49.5t18.5 180.5q0 40 -0.5 64t-3 51.5t-7.5 42t-13.5 27.5t-22 18.5t-31.5 5.5z" />
    <glyph glyph-name="ntilde" unicode="&#xf1;" horiz-adv-x="1380" 
d="M88 0v793q0 101 -4 297h539q7 -33 12 -103q114 131 309 131q161 0 254.5 -102.5t93.5 -294.5v-721h-544v653q0 63 -13.5 84t-42.5 21t-43 -28t-14 -95v-635h-547zM545 1206h-254v54q0 71 14.5 122t35 77.5t53.5 42t58.5 19t61.5 3.5q71 0 170.5 -34t126.5 -34t27 35v31
h249v-39q0 -78 -15.5 -134.5t-37 -85.5t-54 -45.5t-56.5 -20t-56 -3.5q-64 0 -169 31.5t-124 31.5q-30 0 -30 -30v-21z" />
    <glyph glyph-name="ograve" unicode="&#xf2;" horiz-adv-x="1413" 
d="M711 1118q154 0 278 -46t202.5 -125t120.5 -182t42 -220q0 -267 -170.5 -420.5t-483.5 -153.5q-135 0 -244 31.5t-182 85t-122 127.5t-71 156t-22 174q0 95 23 178.5t73 156.5t125 125.5t185 82.5t246 30zM709 807q-30 0 -47 -18.5t-27 -77.5t-10 -168
q0 -158 17.5 -212.5t64.5 -54.5q43 0 61 54.5t18 206.5q0 114 -7.5 171t-23 78t-46.5 21zM133 1511h526l281 -319h-373z" />
    <glyph glyph-name="oacute" unicode="&#xf3;" horiz-adv-x="1413" 
d="M711 1118q154 0 278 -46t202.5 -125t120.5 -182t42 -220q0 -267 -170.5 -420.5t-483.5 -153.5q-135 0 -244 31.5t-182 85t-122 127.5t-71 156t-22 174q0 95 23 178.5t73 156.5t125 125.5t185 82.5t246 30zM709 807q-30 0 -47 -18.5t-27 -77.5t-10 -168
q0 -158 17.5 -212.5t64.5 -54.5q43 0 61 54.5t18 206.5q0 114 -7.5 171t-23 78t-46.5 21zM756 1518h518l-416 -320h-375z" />
    <glyph glyph-name="ocircumflex" unicode="&#xf4;" horiz-adv-x="1413" 
d="M711 1118q154 0 278 -46t202.5 -125t120.5 -182t42 -220q0 -267 -170.5 -420.5t-483.5 -153.5q-135 0 -244 31.5t-182 85t-122 127.5t-71 156t-22 174q0 95 23 178.5t73 156.5t125 125.5t185 82.5t246 30zM709 807q-30 0 -47 -18.5t-27 -77.5t-10 -168
q0 -158 17.5 -212.5t64.5 -54.5q43 0 61 54.5t18 206.5q0 114 -7.5 171t-23 78t-46.5 21zM487 1470h447l237 -292h-387l-77 110l-72 -110h-393z" />
    <glyph glyph-name="otilde" unicode="&#xf5;" horiz-adv-x="1413" 
d="M711 1118q154 0 278 -46t202.5 -125t120.5 -182t42 -220q0 -267 -170.5 -420.5t-483.5 -153.5q-135 0 -244 31.5t-182 85t-122 127.5t-71 156t-22 174q0 95 23 178.5t73 156.5t125 125.5t185 82.5t246 30zM709 807q-30 0 -47 -18.5t-27 -77.5t-10 -168
q0 -158 17.5 -212.5t64.5 -54.5q43 0 61 54.5t18 206.5q0 114 -7.5 171t-23 78t-46.5 21zM561 1196h-254v53q0 71 14.5 122t35 77.5t53.5 42t58.5 19t61.5 3.5q71 0 170.5 -33.5t126.5 -33.5t27 35v30h250v-38q0 -78 -15.5 -134.5t-37 -85.5t-54 -45.5t-56.5 -20t-56 -3.5
q-64 0 -169 31.5t-124 31.5q-31 0 -31 -30v-21z" />
    <glyph glyph-name="odieresis" unicode="&#xf6;" horiz-adv-x="1413" 
d="M711 1118q154 0 278 -46t202.5 -125t120.5 -182t42 -220q0 -267 -170.5 -420.5t-483.5 -153.5q-135 0 -244 31.5t-182 85t-122 127.5t-71 156t-22 174q0 95 23 178.5t73 156.5t125 125.5t185 82.5t246 30zM709 807q-30 0 -47 -18.5t-27 -77.5t-10 -168
q0 -158 17.5 -212.5t64.5 -54.5q43 0 61 54.5t18 206.5q0 114 -7.5 171t-23 78t-46.5 21zM657 1196h-397v322h397v-322zM1153 1196h-397v322h397v-322z" />
    <glyph glyph-name="divide" unicode="&#xf7;" horiz-adv-x="1261" 
d="M817 6h-360v291h360v-291zM1171 375h-1081v330h1081v-330zM817 791h-360v296h360v-296z" />
    <glyph glyph-name="oslash" unicode="&#xf8;" horiz-adv-x="1413" 
d="M713 1118q181 0 319 -61l49 61h158l-100 -125q106 -80 160.5 -197t54.5 -251q0 -145 -54 -257.5t-146.5 -180t-207.5 -102t-246 -34.5q-184 0 -329 66l-54 -68h-157l104 131q-101 76 -153 190.5t-52 246.5q0 87 21.5 168.5t71.5 157.5t123.5 132t186 89.5t251.5 33.5z
M702 815q-65 0 -94.5 -65t-29.5 -207v-51l217 268q-27 55 -93 55zM700 272q65 0 92 63t27 202v57l-213 -264q28 -58 94 -58z" />
    <glyph glyph-name="ugrave" unicode="&#xf9;" horiz-adv-x="1378" 
d="M1290 1090v-684q0 -304 2 -406h-536q-8 27 -8 111q-58 -73 -133 -107.5t-183 -34.5q-346 0 -346 389v732h545v-660q0 -53 12.5 -75.5t42.5 -22.5q33 0 45 26.5t12 92.5v639h547zM102 1497h527l280 -319h-372z" />
    <glyph glyph-name="uacute" unicode="&#xfa;" horiz-adv-x="1378" 
d="M1290 1090v-684q0 -304 2 -406h-536q-8 27 -8 111q-58 -73 -133 -107.5t-183 -34.5q-346 0 -346 389v732h545v-660q0 -53 12.5 -75.5t42.5 -22.5q33 0 45 26.5t12 92.5v639h547zM743 1497h519l-416 -319h-375z" />
    <glyph glyph-name="ucircumflex" unicode="&#xfb;" horiz-adv-x="1378" 
d="M1290 1090v-684q0 -304 2 -406h-536q-8 27 -8 111q-58 -73 -133 -107.5t-183 -34.5q-346 0 -346 389v732h545v-660q0 -53 12.5 -75.5t42.5 -22.5q33 0 45 26.5t12 92.5v639h547zM469 1470h446l238 -292h-387l-78 110l-72 -110h-393z" />
    <glyph glyph-name="udieresis" unicode="&#xfc;" horiz-adv-x="1378" 
d="M1290 1090v-684q0 -304 2 -406h-536q-8 27 -8 111q-58 -73 -133 -107.5t-183 -34.5q-346 0 -346 389v732h545v-660q0 -53 12.5 -75.5t42.5 -22.5q33 0 45 26.5t12 92.5v639h547zM639 1176h-397v321h397v-321zM1135 1176h-398v321h398v-321z" />
    <glyph glyph-name="yacute" unicode="&#xfd;" horiz-adv-x="1265" 
d="M-31 1090h602q47 -318 82 -656h17q5 42 32.5 280.5t45.5 375.5h534l-258 -863q-36 -122 -61.5 -193.5t-65.5 -152t-85 -123t-111.5 -81t-155 -53.5t-207.5 -15q-65 0 -205 12v346q2 0 14.5 -1t30.5 -2t33 -1q112 0 133 47zM688 1497h518l-415 -319h-375z" />
    <glyph glyph-name="thorn" unicode="&#xfe;" horiz-adv-x="1400" 
d="M635 -371h-545v1837h545v-448q111 100 285 100q82 0 156 -32.5t136 -97t99 -176t37 -255.5q0 -123 -28.5 -223t-76 -166.5t-112 -111.5t-135 -65t-146.5 -20q-136 0 -215 70v-412zM786 537q0 108 -11 163.5t-27.5 70.5t-47.5 15q-45 0 -62 -59.5t-17 -191.5
q0 -62 3 -103.5t11.5 -74.5t24.5 -48.5t40 -15.5q19 0 32.5 8.5t27 33t20 75t6.5 127.5z" />
    <glyph glyph-name="ydieresis" unicode="&#xff;" horiz-adv-x="1265" 
d="M-31 1090h602q47 -318 82 -656h17q5 42 32.5 280.5t45.5 375.5h534l-258 -863q-36 -122 -61.5 -193.5t-65.5 -152t-85 -123t-111.5 -81t-155 -53.5t-207.5 -15q-65 0 -205 12v346q2 0 14.5 -1t30.5 -2t33 -1q112 0 133 47zM584 1176h-398v321h398v-321zM1079 1176h-397
v321h397v-321z" />
    <glyph glyph-name="Amacron" unicode="&#x100;" horiz-adv-x="1542" 
d="M915 221h-329l-47 -221h-545l395 1413h752l407 -1413h-585zM655 594h183q-8 50 -23 132t-34.5 186.5t-28.5 156.5h-13q-69 -402 -84 -475zM410 1780h723v-269h-723v269z" />
    <glyph glyph-name="amacron" unicode="&#x101;" horiz-adv-x="1337" 
d="M1245 676v-295q0 -310 10 -381h-485q-14 44 -20 104q-117 -133 -322 -133q-165 0 -272 92t-107 263q0 194 146 282t426 88h106v60q0 47 -16 66.5t-52 19.5q-65 0 -71 -92h-490q2 34 9 65.5t24 70t43 70t70 62.5t100.5 52.5t139 34.5t182.5 13q114 0 204 -14t153 -42
t106.5 -65.5t68.5 -89t36 -107t11 -124.5zM727 430v45h-51q-105 0 -105 -94q0 -37 20.5 -59.5t51.5 -22.5q49 0 66.5 30t17.5 101zM313 1479h723v-283h-723v283z" />
    <glyph glyph-name="Abreve" unicode="&#x102;" horiz-adv-x="1542" 
d="M915 221h-329l-47 -221h-545l395 1413h752l407 -1413h-585zM655 594h183q-8 50 -23 132t-34.5 186.5t-28.5 156.5h-13q-69 -402 -84 -475zM369 1819h309q6 -22 9.5 -32.5t13.5 -27.5t27 -25t42 -8q45 0 64.5 28t21.5 65h311q-7 -44 -20 -84t-43 -86t-72 -79t-111.5 -55
t-156.5 -22q-85 0 -153.5 21.5t-111 54.5t-72 78t-42.5 87t-16 85z" />
    <glyph glyph-name="abreve" unicode="&#x103;" horiz-adv-x="1337" 
d="M1245 676v-295q0 -310 10 -381h-485q-14 44 -20 104q-117 -133 -322 -133q-165 0 -272 92t-107 263q0 194 146 282t426 88h106v60q0 47 -16 66.5t-52 19.5q-65 0 -71 -92h-490q2 34 9 65.5t24 70t43 70t70 62.5t100.5 52.5t139 34.5t182.5 13q114 0 204 -14t153 -42
t106.5 -65.5t68.5 -89t36 -107t11 -124.5zM727 430v45h-51q-105 0 -105 -94q0 -37 20.5 -59.5t51.5 -22.5q49 0 66.5 30t17.5 101zM276 1503h340q3 -13 6 -21.5t9.5 -19t18 -15.5t28.5 -5q52 0 57 61h340q-45 -325 -403 -325q-86 0 -154 19.5t-111 51t-72.5 75.5t-42.5 87.5
t-16 91.5z" />
    <glyph glyph-name="Aogonek" unicode="&#x104;" horiz-adv-x="1542" 
d="M915 221h-329l-47 -221h-545l395 1413h752l407 -1413h-143q-47 -41 -47 -86q0 -68 115 -68q44 0 67 4v-280q-102 -51 -283 -51q-137 0 -224 61.5t-87 183.5q0 67 36.5 129.5t94.5 106.5h-114zM655 594h183q-8 50 -23 132t-34.5 186.5t-28.5 156.5h-13q-69 -402 -84 -475z
" />
    <glyph glyph-name="aogonek" unicode="&#x105;" horiz-adv-x="1337" 
d="M1245 676v-295q0 -310 10 -381h-96q-47 -41 -47 -86q0 -68 115 -68q44 0 67 4v-280q-102 -51 -282 -51q-138 0 -225 62t-87 183q0 67 36.5 129.5t94.5 106.5h-61q-14 44 -20 104q-117 -133 -322 -133q-165 0 -272 92t-107 263q0 194 146 282t426 88h106v60q0 47 -16 66.5
t-52 19.5q-65 0 -71 -92h-490q2 34 9 65.5t24 70t43 70t70 62.5t100.5 52.5t139 34.5t182.5 13q114 0 204 -14t153 -42t106.5 -65.5t68.5 -89t36 -107t11 -124.5zM727 430v45h-51q-105 0 -105 -94q0 -37 20.5 -59.5t51.5 -22.5q49 0 66.5 30t17.5 101z" />
    <glyph glyph-name="Cacute" unicode="&#x106;" horiz-adv-x="1523" 
d="M948 504h557q-34 -261 -217 -401t-506 -140q-176 0 -315 54t-228 151.5t-135.5 230.5t-46.5 293q0 162 44 297t133 239.5t236 163t339 58.5q136 0 249.5 -30t191 -80t132.5 -118.5t82 -143t33 -154.5h-555q-13 176 -141 176q-49 0 -81.5 -26t-49.5 -79.5t-24 -120.5
t-7 -163q0 -89 6 -153.5t22 -123t49.5 -89t82.5 -30.5q74 0 106 50.5t43 138.5zM805 1792h594l-449 -268h-415z" />
    <glyph glyph-name="cacute" unicode="&#x107;" horiz-adv-x="1318" 
d="M770 416h502q-9 -73 -29.5 -133.5t-65 -120t-109 -100.5t-166.5 -66t-232 -25q-131 0 -235.5 31t-174 83.5t-115.5 125t-66 152.5t-20 169q0 126 39.5 232t115.5 185.5t196.5 124t273.5 44.5q133 0 238.5 -31.5t167.5 -78t104 -108.5t58 -114.5t20 -105.5h-508
q0 135 -64 135q-44 0 -59.5 -57.5t-15.5 -204.5q0 -161 15 -222t54 -61q20 0 34.5 11t22.5 34.5t11.5 45t7.5 55.5zM735 1509h518l-415 -319h-375z" />
    <glyph glyph-name="Ccircumflex" unicode="&#x108;" horiz-adv-x="1523" 
d="M948 504h557q-34 -261 -217 -401t-506 -140q-176 0 -315 54t-228 151.5t-135.5 230.5t-46.5 293q0 162 44 297t133 239.5t236 163t339 58.5q136 0 249.5 -30t191 -80t132.5 -118.5t82 -143t33 -154.5h-555q-13 176 -141 176q-49 0 -81.5 -26t-49.5 -79.5t-24 -120.5
t-7 -163q0 -89 6 -153.5t22 -123t49.5 -89t82.5 -30.5q74 0 106 50.5t43 138.5zM543 1784h520l209 -268h-398l-73 112l-68 -112h-414z" />
    <glyph glyph-name="ccircumflex" unicode="&#x109;" horiz-adv-x="1318" 
d="M770 416h502q-9 -73 -29.5 -133.5t-65 -120t-109 -100.5t-166.5 -66t-232 -25q-131 0 -235.5 31t-174 83.5t-115.5 125t-66 152.5t-20 169q0 126 39.5 232t115.5 185.5t196.5 124t273.5 44.5q133 0 238.5 -31.5t167.5 -78t104 -108.5t58 -114.5t20 -105.5h-508
q0 135 -64 135q-44 0 -59.5 -57.5t-15.5 -204.5q0 -161 15 -222t54 -61q20 0 34.5 11t22.5 34.5t11.5 45t7.5 55.5zM461 1477h446l238 -293h-387l-78 110l-72 -110h-393z" />
    <glyph glyph-name="Cdotaccent" unicode="&#x10a;" horiz-adv-x="1523" 
d="M948 504h557q-34 -261 -217 -401t-506 -140q-176 0 -315 54t-228 151.5t-135.5 230.5t-46.5 293q0 162 44 297t133 239.5t236 163t339 58.5q136 0 249.5 -30t191 -80t132.5 -118.5t82 -143t33 -154.5h-555q-13 176 -141 176q-49 0 -81.5 -26t-49.5 -79.5t-24 -120.5
t-7 -163q0 -89 6 -153.5t22 -123t49.5 -89t82.5 -30.5q74 0 106 50.5t43 138.5zM1010 1530h-424v321h424v-321z" />
    <glyph glyph-name="cdotaccent" unicode="&#x10b;" horiz-adv-x="1318" 
d="M770 416h502q-9 -73 -29.5 -133.5t-65 -120t-109 -100.5t-166.5 -66t-232 -25q-131 0 -235.5 31t-174 83.5t-115.5 125t-66 152.5t-20 169q0 126 39.5 232t115.5 185.5t196.5 124t273.5 44.5q133 0 238.5 -31.5t167.5 -78t104 -108.5t58 -114.5t20 -105.5h-508
q0 135 -64 135q-44 0 -59.5 -57.5t-15.5 -204.5q0 -161 15 -222t54 -61q20 0 34.5 11t22.5 34.5t11.5 45t7.5 55.5zM911 1192h-424v321h424v-321z" />
    <glyph glyph-name="Ccaron" unicode="&#x10c;" horiz-adv-x="1523" 
d="M948 504h557q-34 -261 -217 -401t-506 -140q-176 0 -315 54t-228 151.5t-135.5 230.5t-46.5 293q0 162 44 297t133 239.5t236 163t339 58.5q136 0 249.5 -30t191 -80t132.5 -118.5t82 -143t33 -154.5h-555q-13 176 -141 176q-49 0 -81.5 -26t-49.5 -79.5t-24 -120.5
t-7 -163q0 -89 6 -153.5t22 -123t49.5 -89t82.5 -30.5q74 0 106 50.5t43 138.5zM1036 1516h-479l-238 268h414l68 -109l73 109h398z" />
    <glyph glyph-name="ccaron" unicode="&#x10d;" horiz-adv-x="1318" 
d="M770 416h502q-9 -73 -29.5 -133.5t-65 -120t-109 -100.5t-166.5 -66t-232 -25q-131 0 -235.5 31t-174 83.5t-115.5 125t-66 152.5t-20 169q0 126 39.5 232t115.5 185.5t196.5 124t273.5 44.5q133 0 238.5 -31.5t167.5 -78t104 -108.5t58 -114.5t20 -105.5h-508
q0 135 -64 135q-44 0 -59.5 -57.5t-15.5 -204.5q0 -161 15 -222t54 -61q20 0 34.5 11t22.5 34.5t11.5 45t7.5 55.5zM885 1184h-422l-248 293h367l94 -111l92 111h377z" />
    <glyph glyph-name="Dcaron" unicode="&#x10e;" horiz-adv-x="1599" 
d="M113 0v1413h669q188 0 335 -54t238.5 -149.5t139 -220.5t47.5 -272q0 -153 -46.5 -281.5t-137 -227t-236 -153.5t-331.5 -55h-678zM678 1053v-693h57q124 0 173.5 79.5t49.5 277.5q0 194 -45.5 265t-167.5 71h-67zM950 1495h-479l-238 268h414l68 -108l73 108h398z" />
    <glyph glyph-name="dcaron" unicode="&#x10f;" horiz-adv-x="1605" 
d="M764 1466h547v-1079q0 -344 2 -387h-533q-9 42 -12 102q-46 -65 -112.5 -98t-174.5 -33q-89 0 -161.5 32.5t-120 87.5t-80 129t-46.5 154t-14 167q0 165 52.5 294t159 206t251.5 77q78 0 145 -19.5t97 -60.5v428zM618 553q0 -130 21 -191t66 -61q27 0 43.5 14.5t24.5 50
t10.5 76t2.5 111.5q0 155 -13.5 199.5t-65.5 44.5q-89 0 -89 -244zM1649 846h-258l-29 620h315z" />
    <glyph glyph-name="Dcroat" unicode="&#x110;" horiz-adv-x="1636" 
d="M43 848h107v565h669q188 0 335 -54t238.5 -149.5t139 -220.5t47.5 -272q0 -153 -46.5 -281.5t-137.5 -227t-236.5 -153.5t-331.5 -55h-677v600h-107v248zM715 1053v-205h162v-248h-162v-240h57q124 0 173.5 79.5t49.5 277.5q0 194 -45.5 265t-167.5 71h-67z" />
    <glyph glyph-name="dcroat" unicode="&#x111;" horiz-adv-x="1400" 
d="M764 1466h547v-106h110v-219h-110v-805q0 -265 4 -336h-533q-12 57 -14 102q-46 -65 -112.5 -98t-174.5 -33q-86 0 -157.5 31t-119.5 83.5t-81.5 123t-48.5 149t-15 162.5q0 266 130 411.5t341 145.5q76 0 140 -20t94 -62v146h-397v219h397v106zM618 532q0 -231 87 -231
q20 0 34 7.5t23 25.5t14 34t7 48t2.5 52t0.5 60v4q0 48 -0.5 74t-3 55.5t-7.5 44t-14 28t-22 18t-32 4.5q-89 0 -89 -224z" />
    <glyph glyph-name="Emacron" unicode="&#x112;" horiz-adv-x="1361" 
d="M1247 897v-373h-596v-151h680l-59 -373h-1159v1413h1159v-373h-621v-143h596zM340 1780h723v-269h-723v269z" />
    <glyph glyph-name="emacron" unicode="&#x113;" horiz-adv-x="1378" 
d="M1321 449h-711q0 -55 5.5 -89.5t26.5 -60t58 -25.5q76 0 91 86h526q-14 -57 -37.5 -106t-71.5 -103t-113 -92t-168 -63t-231 -25q-145 0 -258 33.5t-183 88.5t-115.5 131.5t-63 156t-17.5 168.5q0 92 20.5 173.5t68.5 155t120 126t182 83.5t248 31q144 0 256.5 -35.5
t181 -92t112.5 -134t60.5 -153t16.5 -158.5q0 -42 -4 -96zM610 686h166q0 34 -2.5 55.5t-10 43.5t-25 32t-44.5 10q-84 0 -84 -141zM346 1479h723v-283h-723v283z" />
    <glyph glyph-name="Ebreve" unicode="&#x114;" horiz-adv-x="1361" 
d="M1247 897v-373h-596v-151h680l-59 -373h-1159v1413h1159v-373h-621v-143h596zM299 1819h309q6 -22 9.5 -32.5t13.5 -27.5t27 -25t42 -8q45 0 64.5 28t21.5 65h312q-7 -44 -20 -84t-43 -86t-72.5 -79t-112 -55t-156.5 -22q-85 0 -153.5 21.5t-111 54.5t-72 78t-42.5 87
t-16 85z" />
    <glyph glyph-name="ebreve" unicode="&#x115;" horiz-adv-x="1378" 
d="M1321 449h-711q0 -55 5.5 -89.5t26.5 -60t58 -25.5q76 0 91 86h526q-14 -57 -37.5 -106t-71.5 -103t-113 -92t-168 -63t-231 -25q-145 0 -258 33.5t-183 88.5t-115.5 131.5t-63 156t-17.5 168.5q0 92 20.5 173.5t68.5 155t120 126t182 83.5t248 31q144 0 256.5 -35.5
t181 -92t112.5 -134t60.5 -153t16.5 -158.5q0 -42 -4 -96zM610 686h166q0 34 -2.5 55.5t-10 43.5t-25 32t-44.5 10q-84 0 -84 -141zM309 1505h340q3 -13 6 -21.5t9.5 -19t18 -15.5t28.5 -5q52 0 57 61h340q-45 -325 -403 -325q-86 0 -154 19.5t-111 51t-72.5 75.5
t-42.5 87.5t-16 91.5z" />
    <glyph glyph-name="Edotaccent" unicode="&#x116;" horiz-adv-x="1361" 
d="M1247 897v-373h-596v-151h680l-59 -373h-1159v1413h1159v-373h-621v-143h596zM928 1509h-424v322h424v-322z" />
    <glyph glyph-name="edotaccent" unicode="&#x117;" horiz-adv-x="1378" 
d="M1321 449h-711q0 -55 5.5 -89.5t26.5 -60t58 -25.5q76 0 91 86h526q-14 -57 -37.5 -106t-71.5 -103t-113 -92t-168 -63t-231 -25q-145 0 -258 33.5t-183 88.5t-115.5 131.5t-63 156t-17.5 168.5q0 92 20.5 173.5t68.5 155t120 126t182 83.5t248 31q144 0 256.5 -35.5
t181 -92t112.5 -134t60.5 -153t16.5 -158.5q0 -42 -4 -96zM610 686h166q0 34 -2.5 55.5t-10 43.5t-25 32t-44.5 10q-84 0 -84 -141zM920 1188h-424v321h424v-321z" />
    <glyph glyph-name="Eogonek" unicode="&#x118;" horiz-adv-x="1361" 
d="M1247 897v-373h-596v-151h680l-59 -373h-146q-47 -41 -47 -86q0 -68 115 -68q45 0 68 4v-280q-102 -51 -283 -51q-137 0 -224 61.5t-87 183.5q0 67 36.5 129.5t94.5 106.5h-686v1413h1159v-373h-621v-143h596z" />
    <glyph glyph-name="eogonek" unicode="&#x119;" horiz-adv-x="1378" 
d="M1321 449h-711q0 -55 5.5 -89.5t26.5 -60t58 -25.5q76 0 91 86h526q-72 -285 -373 -360q-47 -41 -47 -86q0 -68 115 -68q44 0 67 4v-280q-102 -51 -282 -51q-138 0 -225 62t-87 183q0 115 103 211q-120 12 -213 51t-151.5 93.5t-96.5 127t-53 146.5t-15 156
q0 92 20.5 173.5t68.5 155t120 126t182 83.5t248 31q144 0 256.5 -35.5t181 -92t112.5 -134t60.5 -153t16.5 -158.5q0 -42 -4 -96zM610 686h166q0 34 -2.5 55.5t-10 43.5t-25 32t-44.5 10q-84 0 -84 -141z" />
    <glyph glyph-name="Ecaron" unicode="&#x11a;" horiz-adv-x="1361" 
d="M1247 897v-373h-596v-151h680l-59 -373h-1159v1413h1159v-373h-621v-143h596zM934 1495h-479l-238 268h414l67 -108l74 108h397z" />
    <glyph glyph-name="ecaron" unicode="&#x11b;" horiz-adv-x="1378" 
d="M1321 449h-711q0 -55 5.5 -89.5t26.5 -60t58 -25.5q76 0 91 86h526q-14 -57 -37.5 -106t-71.5 -103t-113 -92t-168 -63t-231 -25q-145 0 -258 33.5t-183 88.5t-115.5 131.5t-63 156t-17.5 168.5q0 92 20.5 173.5t68.5 155t120 126t182 83.5t248 31q144 0 256.5 -35.5
t181 -92t112.5 -134t60.5 -153t16.5 -158.5q0 -42 -4 -96zM610 686h166q0 34 -2.5 55.5t-10 43.5t-25 32t-44.5 10q-84 0 -84 -141zM913 1178h-421l-248 292h366l95 -110l92 110h377z" />
    <glyph glyph-name="Gcircumflex" unicode="&#x11c;" horiz-adv-x="1609" 
d="M1522 836v-836h-344q-18 52 -29 131q-125 -168 -426 -168q-138 0 -250.5 40.5t-188.5 109.5t-128 163t-75.5 198.5t-23.5 219.5q0 227 84 395.5t258.5 264.5t423.5 96q151 0 273.5 -33.5t198.5 -84.5t128.5 -117.5t74.5 -127t26 -118.5h-553q-11 59 -43 94t-103 35
q-56 0 -94 -30t-57 -86.5t-27 -121.5t-8 -151q0 -85 7.5 -150t26.5 -123t56.5 -89.5t91.5 -31.5q48 0 82 18.5t51 49t24 61t7 64.5v4h-203v324h740zM565 1784h520l209 -268h-397l-74 112l-67 -112h-414z" />
    <glyph glyph-name="gcircumflex" unicode="&#x11d;" horiz-adv-x="1398" 
d="M1311 776v-573q0 -116 -17 -204t-61 -164t-116.5 -124t-185.5 -75t-267 -27q-100 0 -183.5 14t-140.5 37t-102.5 55.5t-72.5 65t-46 71.5t-27 68.5t-12 61.5h522q7 -34 23.5 -51t56.5 -17q46 0 65 35t19 129v82q-43 -60 -108 -91.5t-173 -31.5q-134 0 -232 69t-146 184
t-48 261q0 257 124 412t327 155q109 0 174 -35t82 -84q3 53 10 91h539q-4 -86 -4 -314zM618 580q0 -115 17 -170.5t65 -55.5q22 0 37 9.5t24 25t13.5 45t6 60.5t1.5 79q0 141 -12 186.5t-63 45.5q-46 0 -67.5 -50.5t-21.5 -174.5zM508 1470h446l238 -292h-387l-78 110
l-72 -110h-393z" />
    <glyph glyph-name="Gbreve" unicode="&#x11e;" horiz-adv-x="1609" 
d="M1522 836v-836h-344q-18 52 -29 131q-125 -168 -426 -168q-138 0 -250.5 40.5t-188.5 109.5t-128 163t-75.5 198.5t-23.5 219.5q0 227 84 395.5t258.5 264.5t423.5 96q151 0 273.5 -33.5t198.5 -84.5t128.5 -117.5t74.5 -127t26 -118.5h-553q-11 59 -43 94t-103 35
q-56 0 -94 -30t-57 -86.5t-27 -121.5t-8 -151q0 -85 7.5 -150t26.5 -123t56.5 -89.5t91.5 -31.5q48 0 82 18.5t51 49t24 61t7 64.5v4h-203v324h740zM424 1839h309q6 -21 9.5 -31.5t13.5 -28t27 -25t42 -7.5q45 0 64.5 28t21.5 64h312q-7 -44 -20 -84t-43 -86t-72.5 -79
t-112 -55t-156.5 -22q-85 0 -153.5 21.5t-111 54.5t-72 78t-42.5 87t-16 85z" />
    <glyph glyph-name="gbreve" unicode="&#x11f;" horiz-adv-x="1398" 
d="M1311 776v-573q0 -116 -17 -204t-61 -164t-116.5 -124t-185.5 -75t-267 -27q-100 0 -183.5 14t-140.5 37t-102.5 55.5t-72.5 65t-46 71.5t-27 68.5t-12 61.5h522q7 -34 23.5 -51t56.5 -17q46 0 65 35t19 129v82q-43 -60 -108 -91.5t-173 -31.5q-134 0 -232 69t-146 184
t-48 261q0 257 124 412t327 155q109 0 174 -35t82 -84q3 53 10 91h539q-4 -86 -4 -314zM618 580q0 -115 17 -170.5t65 -55.5q22 0 37 9.5t24 25t13.5 45t6 60.5t1.5 79q0 141 -12 186.5t-63 45.5q-46 0 -67.5 -50.5t-21.5 -174.5zM340 1497h340q4 -19 8 -29t17.5 -21
t35.5 -11q53 0 58 61h340q-46 -326 -404 -326q-106 0 -184.5 29t-121.5 78.5t-64 103.5t-25 115z" />
    <glyph glyph-name="Gdotaccent" unicode="&#x120;" horiz-adv-x="1609" 
d="M1522 836v-836h-344q-18 52 -29 131q-125 -168 -426 -168q-138 0 -250.5 40.5t-188.5 109.5t-128 163t-75.5 198.5t-23.5 219.5q0 227 84 395.5t258.5 264.5t423.5 96q151 0 273.5 -33.5t198.5 -84.5t128.5 -117.5t74.5 -127t26 -118.5h-553q-11 59 -43 94t-103 35
q-56 0 -94 -30t-57 -86.5t-27 -121.5t-8 -151q0 -85 7.5 -150t26.5 -123t56.5 -89.5t91.5 -31.5q48 0 82 18.5t51 49t24 61t7 64.5v4h-203v324h740zM1012 1530h-424v321h424v-321z" />
    <glyph glyph-name="gdotaccent" unicode="&#x121;" horiz-adv-x="1398" 
d="M1311 776v-573q0 -116 -17 -204t-61 -164t-116.5 -124t-185.5 -75t-267 -27q-100 0 -183.5 14t-140.5 37t-102.5 55.5t-72.5 65t-46 71.5t-27 68.5t-12 61.5h522q7 -34 23.5 -51t56.5 -17q46 0 65 35t19 129v82q-43 -60 -108 -91.5t-173 -31.5q-134 0 -232 69t-146 184
t-48 261q0 257 124 412t327 155q109 0 174 -35t82 -84q3 53 10 91h539q-4 -86 -4 -314zM618 580q0 -115 17 -170.5t65 -55.5q22 0 37 9.5t24 25t13.5 45t6 60.5t1.5 79q0 141 -12 186.5t-63 45.5q-46 0 -67.5 -50.5t-21.5 -174.5zM950 1196h-424v322h424v-322z" />
    <glyph glyph-name="uni0122" unicode="&#x122;" horiz-adv-x="1609" 
d="M1522 836v-836h-344q-18 52 -29 131q-125 -168 -426 -168q-138 0 -250.5 40.5t-188.5 109.5t-128 163t-75.5 198.5t-23.5 219.5q0 227 84 395.5t258.5 264.5t423.5 96q151 0 273.5 -33.5t198.5 -84.5t128.5 -117.5t74.5 -127t26 -118.5h-553q-11 59 -43 94t-103 35
q-56 0 -94 -30t-57 -86.5t-27 -121.5t-8 -151q0 -85 7.5 -150t26.5 -123t56.5 -89.5t91.5 -31.5q48 0 82 18.5t51 49t24 61t7 64.5v4h-203v324h740zM866 -498h-366q122 199 151 398h406q-20 -97 -74 -213t-117 -185z" />
    <glyph glyph-name="uni0123" unicode="&#x123;" horiz-adv-x="1398" 
d="M727 1616h403q-60 -88 -105 -205.5t-52 -210.5h-486q21 113 88.5 226.5t151.5 189.5zM1311 776v-573q0 -116 -17 -204t-61 -164t-116.5 -124t-185.5 -75t-267 -27q-100 0 -183.5 14t-140.5 37t-102.5 55.5t-72.5 65t-46 71.5t-27 68.5t-12 61.5h522q7 -34 23.5 -51
t56.5 -17q46 0 65 35t19 129v82q-43 -60 -108 -91.5t-173 -31.5q-134 0 -232 69t-146 184t-48 261q0 257 124 412t327 155q109 0 174 -35t82 -84q3 53 10 91h539q-4 -86 -4 -314zM618 580q0 -115 17 -170.5t65 -55.5q22 0 37 9.5t24 25t13.5 45t6 60.5t1.5 79
q0 141 -12 186.5t-63 45.5q-46 0 -67.5 -50.5t-21.5 -174.5z" />
    <glyph glyph-name="Hcircumflex" unicode="&#x124;" horiz-adv-x="1611" 
d="M113 0v1413h567v-504h250v504h569v-1413h-569v537h-250v-537h-567zM545 1763h520l209 -268h-397l-74 113l-68 -113h-413z" />
    <glyph glyph-name="hcircumflex" unicode="&#x125;" horiz-adv-x="1378" 
d="M121 1819h493l222 -273h-398l-73 103l-70 -103h-406zM88 1466h547v-477q125 129 311 129q180 0 263 -108t83 -297v-713h-544v664q0 50 -13 72t-41 22q-36 0 -47.5 -30.5t-11.5 -106.5v-621h-547v1466z" />
    <glyph glyph-name="Hbar" unicode="&#x126;" horiz-adv-x="1611" 
d="M4 1253h109v160h567v-160h250v160h569v-160h109v-227h-109v-1026h-569v537h-250v-537h-567v1026h-109v227zM680 909h250v117h-250v-117z" />
    <glyph glyph-name="hbar" unicode="&#x127;" horiz-adv-x="1378" 
d="M88 1466h547v-86h364v-219h-364v-200q125 129 313 129q96 0 164.5 -29.5t107 -85.5t55.5 -127t17 -164v-684h-544v635q0 50 -13 72t-41 22q-35 0 -47 -34.5t-12 -100.5v-594h-547v1161h-143v219h143v86z" />
    <glyph glyph-name="Itilde" unicode="&#x128;" horiz-adv-x="792" 
d="M113 1413h567v-1413h-567v1413zM252 1509h-254v54q0 72 15.5 123.5t36.5 78t55 41.5t58.5 18t59.5 3q71 0 169.5 -34t125.5 -34q16 0 21.5 8.5t5.5 30.5v27h250v-33q0 -79 -15.5 -136t-38 -87t-58 -47t-63 -21t-65.5 -4q-64 0 -162 32t-117 32q-24 0 -24 -31v-21z" />
    <glyph glyph-name="itilde" unicode="&#x129;" horiz-adv-x="722" 
d="M88 0v1090h547v-1090h-547zM215 1176h-254v53q0 71 14.5 122t35 77.5t53.5 42t58.5 19t61.5 3.5q71 0 170.5 -34t126.5 -34t27 35v31h250v-39q0 -78 -15.5 -134.5t-37 -85.5t-54 -45.5t-56.5 -20t-56 -3.5q-64 0 -169 32t-124 32q-31 0 -31 -31v-20z" />
    <glyph glyph-name="Imacron" unicode="&#x12a;" horiz-adv-x="792" 
d="M113 1413h567v-1413h-567v1413zM35 1780h723v-269h-723v269z" />
    <glyph glyph-name="imacron" unicode="&#x12b;" horiz-adv-x="722" 
d="M88 0v1090h547v-1090h-547zM-2 1479h723v-283h-723v283z" />
    <glyph glyph-name="Iogonek" unicode="&#x12e;" horiz-adv-x="792" 
d="M113 1413h567v-1413h-113q-47 -41 -47 -86q0 -68 115 -68q44 0 67 4v-280q-102 -51 -282 -51q-137 0 -224 61.5t-87 183.5q0 67 36.5 129.5t94.5 106.5h-127v1413z" />
    <glyph glyph-name="iogonek" unicode="&#x12f;" horiz-adv-x="722" 
d="M88 0v1090h547v-1090h-111q-47 -41 -47 -86q0 -68 115 -68q44 0 67 4v-280q-102 -51 -282 -51q-137 0 -224 61.5t-87 183.5q0 67 36.5 129.5t94.5 106.5h-109zM635 1174h-547v292h547v-292z" />
    <glyph glyph-name="Idotaccent" unicode="&#x130;" horiz-adv-x="792" 
d="M113 1413h567v-1413h-567v1413zM602 1509h-424v322h424v-322z" />
    <glyph glyph-name="dotlessi" unicode="&#x131;" horiz-adv-x="722" 
d="M88 0v1090h547v-1090h-547z" />
    <glyph glyph-name="Jcircumflex" unicode="&#x134;" horiz-adv-x="923" 
d="M825 1413v-891q0 -142 -30 -242t-97.5 -169.5t-178 -102.5t-271.5 -33q-125 0 -213 19v366q70 -4 92 -4q75 0 106 36t31 108v913h561zM283 1763h520l209 -268h-398l-73 113l-68 -113h-414z" />
    <glyph glyph-name="jcircumflex" unicode="&#x135;" horiz-adv-x="731" 
d="M98 1090h543v-936q0 -81 -5 -141t-18 -119.5t-36.5 -101.5t-61.5 -78.5t-91.5 -58t-126.5 -34t-167 -12.5q-18 0 -147 6v348h37q73 0 73 88v1039zM145 1468h447l237 -292h-387l-77 110l-72 -110h-393z" />
    <glyph glyph-name="uni0136" unicode="&#x136;" horiz-adv-x="1581" 
d="M113 0v1413h563v-495q111 192 268 495h664l-447 -567l463 -846h-645l-209 483l-94 -112v-371h-563zM852 -498h-367q124 201 152 398h405q-20 -98 -73.5 -213.5t-116.5 -184.5z" />
    <glyph glyph-name="uni0137" unicode="&#x137;" horiz-adv-x="1382" 
d="M635 1466v-739q20 47 77.5 173.5t84.5 189.5h602l-293 -408q56 -124 162 -355.5t149 -326.5h-610q-15 47 -53.5 189.5t-42.5 154.5l-76 -90v-254h-547v1466h547zM752 -498h-367q124 201 152 398h405q-20 -98 -73.5 -213.5t-116.5 -184.5z" />
    <glyph glyph-name="kgreenlandic" unicode="&#x138;" horiz-adv-x="1382" 
d="M635 1090v-363q20 47 77.5 173.5t84.5 189.5h602l-293 -408q56 -124 162 -355.5t149 -326.5h-610q-15 47 -53.5 189.5t-42.5 154.5l-76 -90v-254h-547v1090h547z" />
    <glyph glyph-name="Lacute" unicode="&#x139;" horiz-adv-x="1308" 
d="M113 0v1413h567v-1040h610l-59 -373h-1118zM451 1772h593l-448 -269h-416z" />
    <glyph glyph-name="lacute" unicode="&#x13a;" horiz-adv-x="722" 
d="M385 1819h573l-383 -269h-460zM635 0h-547v1466h547v-1466z" />
    <glyph glyph-name="uni013B" unicode="&#x13b;" horiz-adv-x="1308" 
d="M113 0v1413h567v-1040h610l-59 -373h-1118zM715 -498h-367q124 201 152 398h405q-20 -98 -73.5 -213.5t-116.5 -184.5z" />
    <glyph glyph-name="uni013C" unicode="&#x13c;" horiz-adv-x="722" 
d="M635 0h-547v1466h547v-1466zM381 -498h-367q124 201 152 398h405q-20 -98 -73.5 -213.5t-116.5 -184.5z" />
    <glyph glyph-name="Lcaron" unicode="&#x13d;" horiz-adv-x="1308" 
d="M113 0v1413h567v-1040h610l-59 -373h-1118zM1118 803h-258l-29 620h316z" />
    <glyph glyph-name="lcaron" unicode="&#x13e;" horiz-adv-x="970" 
d="M635 0h-547v1466h547v-1466zM983 846h-258l-29 620h316z" />
    <glyph glyph-name="Ldot" unicode="&#x13f;" horiz-adv-x="1308" 
d="M1219 627h-404v426h404v-426zM113 0v1413h567v-1040h610l-59 -373h-1118z" />
    <glyph glyph-name="ldot" unicode="&#x140;" horiz-adv-x="1030" 
d="M1051 641h-355v446h355v-446zM635 0h-547v1466h547v-1466z" />
    <glyph glyph-name="Lslash" unicode="&#x141;" horiz-adv-x="1335" 
d="M961 842l-254 -109v-360h610l-60 -373h-1118v494l-141 -60v291l141 59v629h568v-391l254 106v-286z" />
    <glyph glyph-name="lslash" unicode="&#x142;" horiz-adv-x="763" 
d="M655 0h-546v512l-117 -53v286l117 54v667h546v-415l117 53v-285l-117 -53v-766z" />
    <glyph glyph-name="Nacute" unicode="&#x143;" horiz-adv-x="1611" 
d="M633 0h-520v1413h655q113 -338 223 -760h13q-25 286 -25 621v139h520v-1413h-627q-70 212 -245 797h-9q4 -40 7 -91t4.5 -88t2.5 -110.5t1 -102v-122v-115.5v-168zM827 1772h594l-448 -269h-416z" />
    <glyph glyph-name="nacute" unicode="&#x144;" horiz-adv-x="1380" 
d="M88 0v793q0 101 -4 297h539q7 -33 12 -103q114 131 309 131q161 0 254.5 -102.5t93.5 -294.5v-721h-544v653q0 63 -13.5 84t-42.5 21t-43 -28t-14 -95v-635h-547zM725 1499h518l-416 -319h-374z" />
    <glyph glyph-name="uni0145" unicode="&#x145;" horiz-adv-x="1611" 
d="M633 0h-520v1413h655q113 -338 223 -760h13q-25 286 -25 621v139h520v-1413h-627q-70 212 -245 797h-9q4 -40 7 -91t4.5 -88t2.5 -110.5t1 -102v-122v-115.5v-168zM866 -498h-366q122 199 151 398h406q-20 -97 -74 -213t-117 -185z" />
    <glyph glyph-name="uni0146" unicode="&#x146;" horiz-adv-x="1380" 
d="M88 0v793q0 101 -4 297h539q7 -33 12 -103q114 131 309 131q161 0 254.5 -102.5t93.5 -294.5v-721h-544v653q0 63 -13.5 84t-42.5 21t-43 -28t-14 -95v-635h-547zM711 -498h-367q124 201 152 398h405q-20 -98 -73.5 -213.5t-116.5 -184.5z" />
    <glyph glyph-name="Ncaron" unicode="&#x147;" horiz-adv-x="1611" 
d="M633 0h-520v1413h655q113 -338 223 -760h13q-25 286 -25 621v139h520v-1413h-627q-70 212 -245 797h-9q4 -40 7 -91t4.5 -88t2.5 -110.5t1 -102v-122v-115.5v-168zM1065 1505h-479l-238 269h414l67 -109l74 109h397z" />
    <glyph glyph-name="ncaron" unicode="&#x148;" horiz-adv-x="1380" 
d="M88 0v793q0 101 -4 297h539q7 -33 12 -103q114 131 309 131q161 0 254.5 -102.5t93.5 -294.5v-721h-544v653q0 63 -13.5 84t-42.5 21t-43 -28t-14 -95v-635h-547zM874 1186h-421l-248 293h366l95 -111l92 111h377z" />
    <glyph glyph-name="napostrophe" unicode="&#x149;" horiz-adv-x="1380" 
d="M301 1169h-346q105 264 127 453h428q-25 -125 -82 -253.5t-127 -199.5zM88 0v793q0 101 -4 297h539q7 -33 12 -103q114 131 309 131q161 0 254.5 -102.5t93.5 -294.5v-721h-544v653q0 63 -13.5 84t-42.5 21t-43 -28t-14 -95v-635h-547z" />
    <glyph glyph-name="Omacron" unicode="&#x14c;" horiz-adv-x="1628" 
d="M827 1450q146 0 268.5 -39.5t209 -109t147.5 -164t90 -204.5t29 -231q0 -157 -47 -289t-138.5 -233.5t-240.5 -159t-340 -57.5q-152 0 -277.5 40t-211.5 108.5t-145.5 163.5t-86.5 202.5t-27 227.5q0 121 28 229.5t89 203.5t150 164t218 108.5t285 39.5zM815 1098
q-94 0 -135 -96t-41 -291q0 -197 39.5 -296.5t140.5 -99.5q50 0 84 25.5t53.5 77t28 119.5t8.5 163q0 82 -4 140.5t-15.5 110t-31 82t-51.5 48t-76 17.5zM453 1800h723v-268h-723v268z" />
    <glyph glyph-name="omacron" unicode="&#x14d;" horiz-adv-x="1413" 
d="M711 1118q154 0 278 -46t202.5 -125t120.5 -182t42 -220q0 -267 -170.5 -420.5t-483.5 -153.5q-135 0 -244 31.5t-182 85t-122 127.5t-71 156t-22 174q0 95 23 178.5t73 156.5t125 125.5t185 82.5t246 30zM709 807q-30 0 -47 -18.5t-27 -77.5t-10 -168
q0 -158 17.5 -212.5t64.5 -54.5q43 0 61 54.5t18 206.5q0 114 -7.5 171t-23 78t-46.5 21zM344 1483h723v-283h-723v283z" />
    <glyph glyph-name="Ohungarumlaut" unicode="&#x150;" horiz-adv-x="1628" 
d="M827 1450q146 0 268.5 -39.5t209 -109t147.5 -164t90 -204.5t29 -231q0 -157 -47 -289t-138.5 -233.5t-240.5 -159t-340 -57.5q-152 0 -277.5 40t-211.5 108.5t-145.5 163.5t-86.5 202.5t-27 227.5q0 121 28 229.5t89 203.5t150 164t218 108.5t285 39.5zM815 1098
q-94 0 -135 -96t-41 -291q0 -197 39.5 -296.5t140.5 -99.5q50 0 84 25.5t53.5 77t28 119.5t8.5 163q0 82 -4 140.5t-15.5 110t-31 82t-51.5 48t-76 17.5zM569 1788h420l-303 -268h-354zM1087 1788h418l-303 -268h-350z" />
    <glyph glyph-name="ohungarumlaut" unicode="&#x151;" horiz-adv-x="1413" 
d="M711 1118q154 0 278 -46t202.5 -125t120.5 -182t42 -220q0 -267 -170.5 -420.5t-483.5 -153.5q-135 0 -244 31.5t-182 85t-122 127.5t-71 156t-22 174q0 95 23 178.5t73 156.5t125 125.5t185 82.5t246 30zM709 807q-30 0 -47 -18.5t-27 -77.5t-10 -168
q0 -158 17.5 -212.5t64.5 -54.5q43 0 61 54.5t18 206.5q0 114 -7.5 171t-23 78t-46.5 21zM588 1200h-318l183 293h403zM1079 1200h-317l186 293h398z" />
    <glyph glyph-name="OE" unicode="&#x152;" horiz-adv-x="2213" 
d="M2134 1413v-366h-590v-156h565v-371h-565v-155h639l-59 -365h-948q-193 -14 -312 -14q-177 0 -317.5 41t-230.5 108.5t-150 161t-84.5 192.5t-24.5 209t28 212t91.5 197t158 165.5t237 112.5t317.5 42q145 0 330 -14h915zM1006 342v733q-55 8 -105 8q-61 0 -106.5 -17.5
t-82.5 -59t-56 -118t-19 -186.5q0 -372 260 -372q59 0 109 12z" />
    <glyph glyph-name="oe" unicode="&#x153;" horiz-adv-x="2119" 
d="M1438 -29q-211 0 -361 80q-157 -80 -377 -80q-135 0 -244 32.5t-182 87t-122.5 129t-71 155.5t-21.5 170q0 91 22.5 173t73.5 156t125.5 127.5t185 85t245.5 31.5q208 0 360 -84q149 84 369 84q136 0 245 -32.5t178.5 -86t116.5 -125.5t66.5 -147.5t19.5 -155.5
q0 -68 -4 -122h-710q0 -175 94 -175q71 0 86 86h526q-14 -56 -38.5 -105.5t-73 -103.5t-114 -92t-167.5 -63t-227 -25zM709 807q-45 0 -64.5 -56t-19.5 -208q0 -148 18 -207.5t64 -59.5q40 0 59 55t20 206q1 157 -15.5 213.5t-61.5 56.5zM1352 686h166q0 34 -2.5 55.5
t-10 43.5t-25 32t-44.5 10q-84 0 -84 -141z" />
    <glyph glyph-name="Racute" unicode="&#x154;" horiz-adv-x="1507" 
d="M739 500h-82v-500h-544v1413h817q134 0 236.5 -32t162.5 -88t89.5 -124.5t29.5 -148.5q0 -72 -22 -132t-59.5 -99.5t-76.5 -65t-82 -39.5q107 -32 162 -133t55 -260v-35q0 -182 15 -256h-543q-29 74 -29 287v69q0 71 -26 107.5t-103 36.5zM657 1077v-241h95
q141 0 141 122q0 119 -143 119h-93zM776 1772h594l-448 -269h-416z" />
    <glyph glyph-name="racute" unicode="&#x155;" horiz-adv-x="978" 
d="M88 0v745q0 157 -4 345h532q13 -115 13 -164q15 33 38.5 63t60.5 60t93 49t123 20v-479q-94 5 -154 -5t-94.5 -37.5t-47.5 -69t-13 -107.5v-420h-547zM547 1497h518l-416 -319h-375z" />
    <glyph glyph-name="uni0156" unicode="&#x156;" horiz-adv-x="1507" 
d="M739 500h-82v-500h-544v1413h817q134 0 236.5 -32t162.5 -88t89.5 -124.5t29.5 -148.5q0 -72 -22 -132t-59.5 -99.5t-76.5 -65t-82 -39.5q107 -32 162 -133t55 -260v-35q0 -182 15 -256h-543q-29 74 -29 287v69q0 71 -26 107.5t-103 36.5zM657 1077v-241h95
q141 0 141 122q0 119 -143 119h-93zM815 -498h-366q122 199 151 398h406q-20 -97 -74 -213t-117 -185z" />
    <glyph glyph-name="uni0157" unicode="&#x157;" horiz-adv-x="978" 
d="M88 0v745q0 157 -4 345h532q13 -115 13 -164q15 33 38.5 63t60.5 60t93 49t123 20v-479q-94 5 -154 -5t-94.5 -37.5t-47.5 -69t-13 -107.5v-420h-547zM375 -498h-367q124 201 152 398h405q-20 -98 -73.5 -213.5t-116.5 -184.5z" />
    <glyph glyph-name="Rcaron" unicode="&#x158;" horiz-adv-x="1507" 
d="M739 500h-82v-500h-544v1413h817q134 0 236.5 -32t162.5 -88t89.5 -124.5t29.5 -148.5q0 -72 -22 -132t-59.5 -99.5t-76.5 -65t-82 -39.5q107 -32 162 -133t55 -260v-35q0 -182 15 -256h-543q-29 74 -29 287v69q0 71 -26 107.5t-103 36.5zM657 1077v-241h95
q141 0 141 122q0 119 -143 119h-93zM987 1495h-479l-238 268h414l68 -108l73 108h398z" />
    <glyph glyph-name="rcaron" unicode="&#x159;" horiz-adv-x="978" 
d="M88 0v745q0 157 -4 345h532q13 -115 13 -164q15 33 38.5 63t60.5 60t93 49t123 20v-479q-94 5 -154 -5t-94.5 -37.5t-47.5 -69t-13 -107.5v-420h-547zM694 1178h-422l-247 292h366l94 -110l93 110h376z" />
    <glyph glyph-name="Sacute" unicode="&#x15a;" horiz-adv-x="1470" 
d="M35 444h528q15 -145 170 -145q123 0 123 78q0 46 -49.5 71t-210.5 66q-133 34 -229 76t-152.5 85t-89 96.5t-43 102.5t-10.5 113q0 65 18 127t64.5 124t116.5 108t183 75t255 29q165 0 292.5 -37t205.5 -101.5t120 -145t49 -175.5h-520q-13 121 -135 121q-98 0 -98 -65
q0 -37 45.5 -59t205.5 -66q139 -38 239.5 -83t160 -90t93.5 -100.5t45 -105.5t11 -115q0 -210 -173 -337.5t-517 -127.5q-325 0 -501.5 130.5t-196.5 350.5zM758 1792h594l-449 -268h-416z" />
    <glyph glyph-name="sacute" unicode="&#x15b;" horiz-adv-x="1241" 
d="M39 346h475q7 -38 36.5 -59t74.5 -21q75 0 75 43q0 26 -38.5 40t-153.5 36q-96 18 -170 42t-121.5 53t-79 59.5t-47 68t-21.5 71t-6 75.5q0 51 14 98.5t52 97t96.5 86t155.5 59.5t221 23q110 0 202 -20t154 -53t106 -78t65.5 -93t25.5 -100h-459q-13 74 -98 74
q-66 0 -66 -41q0 -24 40.5 -37.5t189.5 -44.5q228 -47 328 -133t100 -232q0 -86 -31.5 -155t-98.5 -122.5t-180.5 -82.5t-267.5 -29q-138 0 -246.5 31t-176 84.5t-105 119t-45.5 140.5zM655 1513h519l-416 -319h-375z" />
    <glyph glyph-name="Scircumflex" unicode="&#x15c;" horiz-adv-x="1470" 
d="M35 444h528q15 -145 170 -145q123 0 123 78q0 46 -49.5 71t-210.5 66q-133 34 -229 76t-152.5 85t-89 96.5t-43 102.5t-10.5 113q0 65 18 127t64.5 124t116.5 108t183 75t255 29q165 0 292.5 -37t205.5 -101.5t120 -145t49 -175.5h-520q-13 121 -135 121q-98 0 -98 -65
q0 -37 45.5 -59t205.5 -66q139 -38 239.5 -83t160 -90t93.5 -100.5t45 -105.5t11 -115q0 -210 -173 -337.5t-517 -127.5q-325 0 -501.5 130.5t-196.5 350.5zM475 1784h520l209 -268h-397l-74 112l-67 -112h-414z" />
    <glyph glyph-name="scircumflex" unicode="&#x15d;" horiz-adv-x="1241" 
d="M39 346h475q7 -38 36.5 -59t74.5 -21q75 0 75 43q0 26 -38.5 40t-153.5 36q-96 18 -170 42t-121.5 53t-79 59.5t-47 68t-21.5 71t-6 75.5q0 51 14 98.5t52 97t96.5 86t155.5 59.5t221 23q110 0 202 -20t154 -53t106 -78t65.5 -93t25.5 -100h-459q-13 74 -98 74
q-66 0 -66 -41q0 -24 40.5 -37.5t189.5 -44.5q228 -47 328 -133t100 -232q0 -86 -31.5 -155t-98.5 -122.5t-180.5 -82.5t-267.5 -29q-138 0 -246.5 31t-176 84.5t-105 119t-45.5 140.5zM401 1481h447l237 -293h-387l-77 110l-72 -110h-393z" />
    <glyph glyph-name="uni015E" unicode="&#x15e;" horiz-adv-x="1470" 
d="M35 444h528q15 -145 170 -145q123 0 123 78q0 46 -49.5 71t-210.5 66q-133 34 -229 76t-152.5 85t-89 96.5t-43 102.5t-10.5 113q0 65 18 127t64.5 124t116.5 108t183 75t255 29q165 0 292.5 -37t205.5 -101.5t120 -145t49 -175.5h-520q-13 121 -135 121q-98 0 -98 -65
q0 -37 45.5 -59t205.5 -66q139 -38 239.5 -83t160 -90t93.5 -100.5t45 -105.5t11 -115q0 -187 -134.5 -308.5t-405.5 -148.5l-41 -32q198 -46 198 -195q0 -65 -31 -111.5t-81.5 -70t-102 -33.5t-106.5 -10q-134 0 -199 18v178q46 -8 80 -8q47 0 47 41q0 21 -19.5 33.5
t-78.5 15.5l-4 113l69 59q-269 24 -415 150.5t-164 324.5z" />
    <glyph glyph-name="uni015F" unicode="&#x15f;" horiz-adv-x="1241" 
d="M39 346h475q7 -38 36.5 -59t74.5 -21q75 0 75 43q0 26 -38.5 40t-153.5 36q-96 18 -170 42t-121.5 53t-79 59.5t-47 68t-21.5 71t-6 75.5q0 51 14 98.5t52 97t96.5 86t155.5 59.5t221 23q110 0 202 -20t154 -53t106 -78t65.5 -93t25.5 -100h-459q-13 74 -98 74
q-66 0 -66 -41q0 -24 40.5 -37.5t189.5 -44.5q228 -47 328 -133t100 -232q0 -153 -100 -252t-316 -126l-82 -64q199 -46 199 -194q0 -65 -31 -111.5t-82 -70t-102.5 -34t-106.5 -10.5q-129 0 -198 19v178q46 -8 80 -8q47 0 47 41q0 21 -20 33.5t-79 15.5l-4 112l105 88
q-214 23 -330 126t-131 243z" />
    <glyph glyph-name="Scaron" unicode="&#x160;" horiz-adv-x="1470" 
d="M35 444h528q15 -145 170 -145q123 0 123 78q0 46 -49.5 71t-210.5 66q-133 34 -229 76t-152.5 85t-89 96.5t-43 102.5t-10.5 113q0 65 18 127t64.5 124t116.5 108t183 75t255 29q165 0 292.5 -37t205.5 -101.5t120 -145t49 -175.5h-520q-13 121 -135 121q-98 0 -98 -65
q0 -37 45.5 -59t205.5 -66q139 -38 239.5 -83t160 -90t93.5 -100.5t45 -105.5t11 -115q0 -210 -173 -337.5t-517 -127.5q-325 0 -501.5 130.5t-196.5 350.5zM969 1516h-480l-237 268h414l67 -109l74 109h397z" />
    <glyph glyph-name="scaron" unicode="&#x161;" horiz-adv-x="1241" 
d="M39 346h475q7 -38 36.5 -59t74.5 -21q75 0 75 43q0 26 -38.5 40t-153.5 36q-96 18 -170 42t-121.5 53t-79 59.5t-47 68t-21.5 71t-6 75.5q0 51 14 98.5t52 97t96.5 86t155.5 59.5t221 23q110 0 202 -20t154 -53t106 -78t65.5 -93t25.5 -100h-459q-13 74 -98 74
q-66 0 -66 -41q0 -24 40.5 -37.5t189.5 -44.5q228 -47 328 -133t100 -232q0 -86 -31.5 -155t-98.5 -122.5t-180.5 -82.5t-267.5 -29q-138 0 -246.5 31t-176 84.5t-105 119t-45.5 140.5zM825 1186h-422l-247 293h366l94 -111l93 111h376z" />
    <glyph glyph-name="uni0162" unicode="&#x162;" horiz-adv-x="1349" 
d="M395 0v1040h-368v373h1296v-373h-362v-1040h-121l-80 -61q198 -46 198 -195q0 -65 -31 -111.5t-81.5 -70t-102 -33.5t-106.5 -10q-134 0 -199 18v178q46 -8 80 -8q47 0 47 41q0 21 -19.5 33.5t-78.5 15.5l-4 113l106 90h-174z" />
    <glyph glyph-name="uni0163" unicode="&#x163;" horiz-adv-x="917" 
d="M18 762v328h146v270h534v-270h162v-328h-162v-381q0 -39 19 -55.5t76 -16.5q22 0 45 2v-301q-67 -22 -220 -30l-53 -41q199 -46 199 -195q0 -65 -31 -111.5t-82 -70t-102.5 -33.5t-106.5 -10q-133 0 -198 18v178q46 -8 80 -8q47 0 47 41q0 21 -20 33.5t-79 15.5l-4 113
l105 88q-81 23 -130 72.5t-67 115t-18 158.5v418h-140z" />
    <glyph glyph-name="Tcaron" unicode="&#x164;" horiz-adv-x="1349" 
d="M395 0v1040h-368v373h1296v-373h-362v-1040h-566zM907 1495h-479l-238 268h414l68 -108l73 108h398z" />
    <glyph glyph-name="tcaron" unicode="&#x165;" horiz-adv-x="917" 
d="M1024 1194h-238l-8 498h295zM18 762v328h146v270h534v-270h162v-328h-162v-381q0 -39 19 -55.5t76 -16.5q22 0 45 2v-301q-44 -14 -131 -23.5t-150 -9.5q-118 0 -197.5 24.5t-123 74t-61 113.5t-17.5 155v418h-140z" />
    <glyph glyph-name="Utilde" unicode="&#x168;" horiz-adv-x="1583" 
d="M98 1413h566v-921q0 -156 133 -156q58 0 88 41.5t30 114.5v921h570v-833q0 -617 -701 -617q-348 0 -517 152t-169 467v831zM647 1520h-254v53q0 72 15.5 123.5t36.5 78t55 41.5t58.5 18t59.5 3q71 0 169.5 -34t125.5 -34q16 0 21.5 8.5t5.5 30.5v27h250v-33
q0 -79 -15.5 -136t-38 -87t-58 -47t-63 -21t-65.5 -4q-64 0 -161.5 32t-116.5 32q-25 0 -25 -31v-20z" />
    <glyph glyph-name="utilde" unicode="&#x169;" horiz-adv-x="1378" 
d="M1290 1090v-684q0 -304 2 -406h-536q-8 27 -8 111q-58 -73 -133 -107.5t-183 -34.5q-346 0 -346 389v732h545v-660q0 -53 12.5 -75.5t42.5 -22.5q33 0 45 26.5t12 92.5v639h547zM543 1176h-254v53q0 71 14.5 122t35 77.5t53.5 42t58.5 19t61.5 3.5q71 0 170.5 -34
t126.5 -34t27 35v31h249v-39q0 -78 -15.5 -134.5t-37 -85.5t-54 -45.5t-56.5 -20t-56 -3.5q-64 0 -169 32t-124 32q-30 0 -30 -31v-20z" />
    <glyph glyph-name="Umacron" unicode="&#x16a;" horiz-adv-x="1583" 
d="M98 1413h566v-921q0 -156 133 -156q58 0 88 41.5t30 114.5v921h570v-833q0 -617 -701 -617q-348 0 -517 152t-169 467v831zM430 1780h723v-269h-723v269z" />
    <glyph glyph-name="umacron" unicode="&#x16b;" horiz-adv-x="1378" 
d="M1290 1090v-684q0 -304 2 -406h-536q-8 27 -8 111q-58 -73 -133 -107.5t-183 -34.5q-346 0 -346 389v732h545v-660q0 -53 12.5 -75.5t42.5 -22.5q33 0 45 26.5t12 92.5v639h547zM326 1479h723v-283h-723v283z" />
    <glyph glyph-name="Ubreve" unicode="&#x16c;" horiz-adv-x="1583" 
d="M98 1413h566v-921q0 -156 133 -156q58 0 88 41.5t30 114.5v921h570v-833q0 -617 -701 -617q-348 0 -517 152t-169 467v831zM389 1819h309q5 -21 9 -32t14 -28t27.5 -25t42.5 -8q45 0 64.5 28t21.5 65h311q-7 -44 -20 -84t-43 -86t-72.5 -79t-112 -55t-156.5 -22
q-85 0 -153.5 21.5t-111 54.5t-72 78t-42.5 87t-16 85z" />
    <glyph glyph-name="ubreve" unicode="&#x16d;" horiz-adv-x="1378" 
d="M1290 1090v-684q0 -304 2 -406h-536q-8 27 -8 111q-58 -73 -133 -107.5t-183 -34.5q-346 0 -346 389v732h545v-660q0 -53 12.5 -75.5t42.5 -22.5q33 0 45 26.5t12 92.5v639h547zM289 1497h340q4 -19 8 -29t17.5 -21t35.5 -11q53 0 58 61h339q-46 -326 -403 -326
q-106 0 -184.5 29t-121.5 78.5t-64 103.5t-25 115z" />
    <glyph glyph-name="Uring" unicode="&#x16e;" horiz-adv-x="1583" 
d="M98 1413h566v-921q0 -156 133 -156q58 0 88 41.5t30 114.5v921h570v-833q0 -617 -701 -617q-348 0 -517 152t-169 467v831zM793 1481q-147 0 -225.5 57t-78.5 158q0 104 77 160.5t229 56.5q145 0 220 -55t75 -160q0 -108 -77 -162.5t-220 -54.5zM786 1649q78 0 78 47
q0 25 -16.5 38t-56.5 13q-74 0 -74 -51q0 -47 69 -47z" />
    <glyph glyph-name="uring" unicode="&#x16f;" horiz-adv-x="1378" 
d="M1290 1090v-684q0 -304 2 -406h-536q-8 27 -8 111q-58 -73 -133 -107.5t-183 -34.5q-346 0 -346 389v732h545v-660q0 -53 12.5 -75.5t42.5 -22.5q33 0 45 26.5t12 92.5v639h547zM690 1163q-147 0 -225 57t-78 158q0 104 77 160.5t228 56.5q145 0 220 -55t75 -160
q0 -108 -77 -162.5t-220 -54.5zM684 1331q78 0 78 47q0 52 -74 52t-74 -52q0 -47 70 -47z" />
    <glyph glyph-name="Uhungarumlaut" unicode="&#x170;" horiz-adv-x="1583" 
d="M98 1413h566v-921q0 -156 133 -156q58 0 88 41.5t30 114.5v921h570v-833q0 -617 -701 -617q-348 0 -517 152t-169 467v831zM547 1759h420l-303 -268h-355zM1065 1759h418l-303 -268h-351z" />
    <glyph glyph-name="uhungarumlaut" unicode="&#x171;" horiz-adv-x="1378" 
d="M1290 1090v-684q0 -304 2 -406h-536q-8 27 -8 111q-58 -73 -133 -107.5t-183 -34.5q-346 0 -346 389v732h545v-660q0 -53 12.5 -75.5t42.5 -22.5q33 0 45 26.5t12 92.5v639h547zM569 1184h-317l182 293h404zM1061 1184h-318l187 293h397z" />
    <glyph glyph-name="Uogonek" unicode="&#x172;" horiz-adv-x="1583" 
d="M98 1413h566v-921q0 -156 133 -156q58 0 88 41.5t30 114.5v921h570v-833q0 -458 -383 -576q-55 -46 -55 -92q0 -68 114 -68q45 0 68 4v-280q-102 -51 -283 -51q-137 0 -224 61.5t-87 183.5q0 108 92 203q-318 10 -473.5 163t-155.5 454v831z" />
    <glyph glyph-name="uogonek" unicode="&#x173;" horiz-adv-x="1378" 
d="M1290 1090v-684q0 -304 2 -406h-127q-47 -41 -47 -86q0 -68 115 -68q44 0 67 4v-280q-102 -51 -282 -51q-137 0 -224 61.5t-87 183.5q0 67 36.5 129.5t94.5 106.5h-82q-8 27 -8 111q-58 -73 -133 -107.5t-183 -34.5q-346 0 -346 389v732h545v-660q0 -53 12.5 -75.5
t42.5 -22.5q33 0 45 26.5t12 92.5v639h547z" />
    <glyph glyph-name="Wcircumflex" unicode="&#x174;" horiz-adv-x="2029" 
d="M883 0h-572l-313 1413h584q50 -717 59 -876h14q26 161 64 433t69 443h502q50 -327 125 -858h15q9 177 65 858h537l-324 -1413h-571q-26 153 -68.5 422.5t-54.5 341.5h-10q-23 -153 -63.5 -402.5t-57.5 -361.5zM776 1763h520l209 -268h-397l-74 113l-67 -113h-414z" />
    <glyph glyph-name="wcircumflex" unicode="&#x175;" horiz-adv-x="1863" 
d="M-14 1090h581q13 -164 23 -303.5t17.5 -241.5t10.5 -144h13q32 262 71 689h508q32 -343 60 -699h14q35 424 59 699h535l-297 -1090h-596q-11 100 -28 308t-19 233h-12q-14 -179 -60 -541h-594zM713 1470h446l238 -292h-387l-78 110l-72 -110h-393z" />
    <glyph glyph-name="Ycircumflex" unicode="&#x176;" horiz-adv-x="1466" 
d="M1014 0h-568v479q0 35 -18 66l-481 868h637q76 -217 170 -508q28 89 94.5 273.5t83.5 234.5h588l-492 -874q-14 -25 -14 -64v-475zM504 1774h520l209 -269h-397l-74 113l-68 -113h-413z" />
    <glyph glyph-name="ycircumflex" unicode="&#x177;" horiz-adv-x="1265" 
d="M-31 1090h602q47 -318 82 -656h17q5 42 32.5 280.5t45.5 375.5h534l-258 -863q-36 -122 -61.5 -193.5t-65.5 -152t-85 -123t-111.5 -81t-155 -53.5t-207.5 -15q-65 0 -205 12v346q2 0 14.5 -1t30.5 -2t33 -1q112 0 133 47zM414 1470h446l238 -292h-387l-78 110l-72 -110
h-393z" />
    <glyph glyph-name="Ydieresis" unicode="&#x178;" horiz-adv-x="1466" 
d="M1014 0h-568v479q0 35 -18 66l-481 868h637q76 -217 170 -508q28 89 94.5 273.5t83.5 234.5h588l-492 -874q-14 -25 -14 -64v-475zM715 1509h-398v322h398v-322zM1210 1509h-397v322h397v-322z" />
    <glyph glyph-name="Zacute" unicode="&#x179;" horiz-adv-x="1388" 
d="M47 0v287l608 753h-575v373h1225v-336l-555 -704h612l-53 -373h-1262zM717 1772h594l-449 -269h-416z" />
    <glyph glyph-name="zacute" unicode="&#x17a;" horiz-adv-x="1142" 
d="M43 0v301q8 9 166.5 177t267.5 284h-414v328h1014v-320q-88 -104 -399 -442h455l-68 -328h-1022zM647 1497h518l-415 -319h-375z" />
    <glyph glyph-name="Zdotaccent" unicode="&#x17b;" horiz-adv-x="1388" 
d="M47 0v287l608 753h-575v373h1225v-336l-555 -704h612l-53 -373h-1262zM901 1509h-424v322h424v-322z" />
    <glyph glyph-name="zdotaccent" unicode="&#x17c;" horiz-adv-x="1142" 
d="M43 0v301q8 9 166.5 177t267.5 284h-414v328h1014v-320q-88 -104 -399 -442h455l-68 -328h-1022zM782 1176h-424v321h424v-321z" />
    <glyph glyph-name="Zcaron" unicode="&#x17d;" horiz-adv-x="1388" 
d="M47 0v287l608 753h-575v373h1225v-336l-555 -704h612l-53 -373h-1262zM928 1495h-479l-238 268h414l67 -108l74 108h397z" />
    <glyph glyph-name="zcaron" unicode="&#x17e;" horiz-adv-x="1142" 
d="M43 0v301q8 9 166.5 177t267.5 284h-414v328h1014v-320q-88 -104 -399 -442h455l-68 -328h-1022zM776 1178h-422l-248 292h367l94 -110l92 110h377z" />
    <glyph glyph-name="uni018F" unicode="&#x18f;" horiz-adv-x="1587" 
d="M1530 719q1 -126 -27 -237t-87.5 -205.5t-147.5 -162.5t-213.5 -106.5t-278.5 -38.5q-125 0 -230 25t-178 67t-130.5 100.5t-92 120.5t-56.5 132.5t-30 131.5t-8 122q0 88 6 147h908q0 67 -7.5 114.5t-27 89t-58 62.5t-96.5 21q-81 0 -121 -35.5t-63 -103.5h-522
q19 94 72.5 178.5t139.5 153t216 109t286 40.5q180 0 322 -53t234 -149.5t140.5 -229t49.5 -293.5zM956 537h-346q3 -108 46.5 -165t125.5 -57q84 0 126 54.5t48 167.5z" />
    <glyph glyph-name="florin" unicode="&#x192;" horiz-adv-x="1157" 
d="M1122 1380l-55 -323q-57 16 -100 16q-33 0 -51 -16t-25 -68l-17 -112h175v-265h-211l-54 -387q-9 -64 -25 -117t-51 -112t-85 -99.5t-133 -67t-189 -26.5q-174 0 -281 39l54 355q54 -15 104 -15q33 0 50 25t26 90l47 315h-137v265h176l8 57q7 45 14.5 82t25 89.5t41 93
t63 84t88.5 72.5t120.5 47.5t157.5 18.5q177 0 264 -41z" />
    <glyph glyph-name="Ohorn" unicode="&#x1a0;" horiz-adv-x="1628" 
d="M827 1450q262 0 443 -123q35 24 35 80q0 61 -19 129h385q23 -70 23 -156q0 -105 -53.5 -186t-155.5 -115q86 -167 86 -377q0 -157 -47 -289t-138.5 -233.5t-240.5 -159t-340 -57.5q-152 0 -277.5 40t-211.5 108.5t-145.5 163.5t-86.5 202.5t-27 227.5q0 121 28 229.5
t89 203.5t150 164t218 108.5t285 39.5zM815 1098q-94 0 -135 -96t-41 -291q0 -197 39.5 -296.5t140.5 -99.5q50 0 84 25.5t53.5 77t28 119.5t8.5 163q0 82 -4 140.5t-15.5 110t-31 82t-51.5 48t-76 17.5z" />
    <glyph glyph-name="ohorn" unicode="&#x1a1;" horiz-adv-x="1413" 
d="M711 1118q197 0 342 -74q28 25 28 76q0 64 -18 129h385q22 -67 22 -155q0 -97 -44.5 -173.5t-131.5 -115.5q60 -120 60 -260q0 -267 -170.5 -420.5t-483.5 -153.5q-135 0 -244 31.5t-182 85t-122 127.5t-71 156t-22 174q0 95 23 178.5t73 156.5t125 125.5t185 82.5
t246 30zM709 807q-30 0 -47 -18.5t-27 -77.5t-10 -168q0 -158 17.5 -212.5t64.5 -54.5q43 0 61 54.5t18 206.5q0 114 -7.5 171t-23 78t-46.5 21z" />
    <glyph glyph-name="Uhorn" unicode="&#x1af;" horiz-adv-x="1583" 
d="M98 1413h566v-921q0 -156 133 -156q58 0 88 41.5t30 114.5v921h400q20 23 20 68q0 65 -18 129h385q22 -67 22 -156q0 -114 -60.5 -197.5t-178.5 -111.5v-565q0 -617 -701 -617q-348 0 -517 152t-169 467v831z" />
    <glyph glyph-name="uhorn" unicode="&#x1b0;" horiz-adv-x="1378" 
d="M748 111q-58 -73 -133 -107.5t-183 -34.5q-346 0 -346 389v732h545v-660q0 -53 12.5 -75.5t42.5 -22.5q33 0 45 26.5t12 92.5v639h269q37 3 57.5 29t20.5 67q0 61 -19 129h385q23 -70 23 -156q0 -100 -48 -178t-141 -115v-460q0 -304 2 -406h-536q-8 27 -8 111z" />
    <glyph glyph-name="uni01CD" unicode="&#x1cd;" horiz-adv-x="1542" 
d="M915 221h-329l-47 -221h-545l395 1413h752l407 -1413h-585zM655 594h183q-8 50 -23 132t-34.5 186.5t-28.5 156.5h-13q-69 -402 -84 -475zM1004 1495h-480l-237 268h413l68 -108l74 108h397z" />
    <glyph glyph-name="uni01CE" unicode="&#x1ce;" horiz-adv-x="1337" 
d="M1245 676v-295q0 -310 10 -381h-485q-14 44 -20 104q-117 -133 -322 -133q-165 0 -272 92t-107 263q0 194 146 282t426 88h106v60q0 47 -16 66.5t-52 19.5q-65 0 -71 -92h-490q2 34 9 65.5t24 70t43 70t70 62.5t100.5 52.5t139 34.5t182.5 13q114 0 204 -14t153 -42
t106.5 -65.5t68.5 -89t36 -107t11 -124.5zM727 430v45h-51q-105 0 -105 -94q0 -37 20.5 -59.5t51.5 -22.5q49 0 66.5 30t17.5 101zM881 1186h-422l-248 293h367l94 -111l92 111h377z" />
    <glyph glyph-name="uni01CF" unicode="&#x1cf;" horiz-adv-x="792" 
d="M113 1413h567v-1413h-567v1413zM629 1495h-479l-238 268h414l67 -108l74 108h397z" />
    <glyph glyph-name="uni01D0" unicode="&#x1d0;" horiz-adv-x="722" 
d="M88 0v1090h547v-1090h-547zM565 1178h-422l-247 292h366l94 -110l93 110h376z" />
    <glyph glyph-name="uni01D1" unicode="&#x1d1;" horiz-adv-x="1628" 
d="M827 1450q146 0 268.5 -39.5t209 -109t147.5 -164t90 -204.5t29 -231q0 -157 -47 -289t-138.5 -233.5t-240.5 -159t-340 -57.5q-152 0 -277.5 40t-211.5 108.5t-145.5 163.5t-86.5 202.5t-27 227.5q0 121 28 229.5t89 203.5t150 164t218 108.5t285 39.5zM815 1098
q-94 0 -135 -96t-41 -291q0 -197 39.5 -296.5t140.5 -99.5q50 0 84 25.5t53.5 77t28 119.5t8.5 163q0 82 -4 140.5t-15.5 110t-31 82t-51.5 48t-76 17.5zM1047 1530h-480l-237 268h413l68 -108l74 108h397z" />
    <glyph glyph-name="uni01D2" unicode="&#x1d2;" horiz-adv-x="1413" 
d="M711 1118q154 0 278 -46t202.5 -125t120.5 -182t42 -220q0 -267 -170.5 -420.5t-483.5 -153.5q-135 0 -244 31.5t-182 85t-122 127.5t-71 156t-22 174q0 95 23 178.5t73 156.5t125 125.5t185 82.5t246 30zM709 807q-30 0 -47 -18.5t-27 -77.5t-10 -168
q0 -158 17.5 -212.5t64.5 -54.5q43 0 61 54.5t18 206.5q0 114 -7.5 171t-23 78t-46.5 21zM911 1194h-422l-247 293h366l94 -111l93 111h376z" />
    <glyph glyph-name="uni01D3" unicode="&#x1d3;" horiz-adv-x="1583" 
d="M98 1413h566v-921q0 -156 133 -156q58 0 88 41.5t30 114.5v921h570v-833q0 -617 -701 -617q-348 0 -517 152t-169 467v831zM1024 1495h-479l-238 268h414l67 -108l74 108h398z" />
    <glyph glyph-name="uni01D4" unicode="&#x1d4;" horiz-adv-x="1378" 
d="M1290 1090v-684q0 -304 2 -406h-536q-8 27 -8 111q-58 -73 -133 -107.5t-183 -34.5q-346 0 -346 389v732h545v-660q0 -53 12.5 -75.5t42.5 -22.5q33 0 45 26.5t12 92.5v639h547zM893 1178h-422l-248 292h367l94 -110l92 110h377z" />
    <glyph glyph-name="uni01D5" unicode="&#x1d5;" horiz-adv-x="1583" 
d="M98 1413h566v-921q0 -156 133 -156q58 0 88 41.5t30 114.5v921h570v-833q0 -617 -701 -617q-348 0 -517 152t-169 467v831zM745 1489h-350v252h350v-252zM1133 1815h-684v215h684v-215zM1186 1489h-350v252h350v-252z" />
    <glyph glyph-name="uni01D6" unicode="&#x1d6;" horiz-adv-x="1378" 
d="M1290 1090v-684q0 -304 2 -406h-536q-8 27 -8 111q-58 -73 -133 -107.5t-183 -34.5q-346 0 -346 389v732h545v-660q0 -53 12.5 -75.5t42.5 -22.5q33 0 45 26.5t12 92.5v639h547zM623 1176h-330v251h330v-251zM1030 1501h-684v209h684v-209zM1083 1176h-329v251h329v-251z
" />
    <glyph glyph-name="uni01D7" unicode="&#x1d7;" horiz-adv-x="1583" 
d="M98 1413h566v-921q0 -156 133 -156q58 0 88 41.5t30 114.5v921h570v-833q0 -617 -701 -617q-348 0 -517 152t-169 467v831zM375 1745h350v-252h-350v252zM559 1802l229 197h541l-348 -197h-422zM1206 1493h-350v252h350v-252z" />
    <glyph glyph-name="uni01D8" unicode="&#x1d8;" horiz-adv-x="1378" 
d="M1290 1090v-684q0 -304 2 -406h-536q-8 27 -8 111q-58 -73 -133 -107.5t-183 -34.5q-346 0 -346 389v732h545v-660q0 -53 12.5 -75.5t42.5 -22.5q33 0 45 26.5t12 92.5v639h547zM272 1427h351v-251h-351v251zM864 1485h-407l248 196h528zM1104 1176h-350v251h350v-251z
" />
    <glyph glyph-name="uni01D9" unicode="&#x1d9;" horiz-adv-x="1583" 
d="M98 1413h566v-921q0 -156 133 -156q58 0 88 41.5t30 114.5v921h570v-833q0 -617 -701 -617q-348 0 -517 152t-169 467v831zM1024 1796h-477l-199 221h371l69 -92l68 92h381zM725 1491h-350v252h350v-252zM1206 1491h-350v252h350v-252z" />
    <glyph glyph-name="uni01DA" unicode="&#x1da;" horiz-adv-x="1378" 
d="M1290 1090v-684q0 -304 2 -406h-536q-8 27 -8 111q-58 -73 -133 -107.5t-183 -34.5q-346 0 -346 389v732h545v-660q0 -53 12.5 -75.5t42.5 -22.5q33 0 45 26.5t12 92.5v639h547zM901 1481h-436l-219 221h370l70 -92l68 92h381zM623 1176h-351v251h351v-251zM1104 1176
h-350v251h350v-251z" />
    <glyph glyph-name="uni01DB" unicode="&#x1db;" horiz-adv-x="1583" 
d="M98 1413h566v-921q0 -156 133 -156q58 0 88 41.5t30 114.5v921h570v-833q0 -617 -701 -617q-348 0 -517 152t-169 467v831zM375 1743h350v-252h-350v252zM1028 1800h-418l-352 197h530zM1206 1491h-350v252h350v-252z" />
    <glyph glyph-name="uni01DC" unicode="&#x1dc;" horiz-adv-x="1378" 
d="M1290 1090v-684q0 -304 2 -406h-536q-8 27 -8 111q-58 -73 -133 -107.5t-183 -34.5q-346 0 -346 389v732h545v-660q0 -53 12.5 -75.5t42.5 -22.5q33 0 45 26.5t12 92.5v639h547zM272 1427h351v-251h-351v251zM141 1681h539l231 -196h-397zM1104 1176h-350v251h350v-251z
" />
    <glyph glyph-name="Gcaron" unicode="&#x1e6;" horiz-adv-x="1609" 
d="M1522 836v-836h-344q-18 52 -29 131q-125 -168 -426 -168q-138 0 -250.5 40.5t-188.5 109.5t-128 163t-75.5 198.5t-23.5 219.5q0 227 84 395.5t258.5 264.5t423.5 96q151 0 273.5 -33.5t198.5 -84.5t128.5 -117.5t74.5 -127t26 -118.5h-553q-11 59 -43 94t-103 35
q-56 0 -94 -30t-57 -86.5t-27 -121.5t-8 -151q0 -85 7.5 -150t26.5 -123t56.5 -89.5t91.5 -31.5q48 0 82 18.5t51 49t24 61t7 64.5v4h-203v324h740zM1038 1516h-479l-237 268h413l68 -109l74 109h397z" />
    <glyph glyph-name="gcaron" unicode="&#x1e7;" horiz-adv-x="1398" 
d="M1311 776v-573q0 -116 -17 -204t-61 -164t-116.5 -124t-185.5 -75t-267 -27q-100 0 -183.5 14t-140.5 37t-102.5 55.5t-72.5 65t-46 71.5t-27 68.5t-12 61.5h522q7 -34 23.5 -51t56.5 -17q46 0 65 35t19 129v82q-43 -60 -108 -91.5t-173 -31.5q-134 0 -232 69t-146 184
t-48 261q0 257 124 412t327 155q109 0 174 -35t82 -84q3 53 10 91h539q-4 -86 -4 -314zM618 580q0 -115 17 -170.5t65 -55.5q22 0 37 9.5t24 25t13.5 45t6 60.5t1.5 79q0 141 -12 186.5t-63 45.5q-46 0 -67.5 -50.5t-21.5 -174.5zM944 1194h-422l-248 293h367l94 -111
l92 111h377z" />
    <glyph glyph-name="uni0218" unicode="&#x218;" horiz-adv-x="1470" 
d="M35 444h528q15 -145 170 -145q123 0 123 78q0 46 -49.5 71t-210.5 66q-133 34 -229 76t-152.5 85t-89 96.5t-43 102.5t-10.5 113q0 65 18 127t64.5 124t116.5 108t183 75t255 29q165 0 292.5 -37t205.5 -101.5t120 -145t49 -175.5h-520q-13 121 -135 121q-98 0 -98 -65
q0 -37 45.5 -59t205.5 -66q139 -38 239.5 -83t160 -90t93.5 -100.5t45 -105.5t11 -115q0 -210 -173 -337.5t-517 -127.5q-325 0 -501.5 130.5t-196.5 350.5zM797 -498h-367q124 201 152 398h405q-20 -98 -73.5 -213.5t-116.5 -184.5z" />
    <glyph glyph-name="uni0219" unicode="&#x219;" horiz-adv-x="1241" 
d="M39 346h475q7 -38 36.5 -59t74.5 -21q75 0 75 43q0 26 -38.5 40t-153.5 36q-96 18 -170 42t-121.5 53t-79 59.5t-47 68t-21.5 71t-6 75.5q0 51 14 98.5t52 97t96.5 86t155.5 59.5t221 23q110 0 202 -20t154 -53t106 -78t65.5 -93t25.5 -100h-459q-13 74 -98 74
q-66 0 -66 -41q0 -24 40.5 -37.5t189.5 -44.5q228 -47 328 -133t100 -232q0 -86 -31.5 -155t-98.5 -122.5t-180.5 -82.5t-267.5 -29q-138 0 -246.5 31t-176 84.5t-105 119t-45.5 140.5zM682 -498h-367q124 201 152 398h405q-20 -98 -73.5 -213.5t-116.5 -184.5z" />
    <glyph glyph-name="uni021A" unicode="&#x21a;" horiz-adv-x="1349" 
d="M395 0v1040h-368v373h1296v-373h-362v-1040h-566zM694 -498h-366q122 199 151 398h406q-20 -97 -74 -213t-117 -185z" />
    <glyph glyph-name="uni021B" unicode="&#x21b;" horiz-adv-x="917" 
d="M18 762v328h146v270h534v-270h162v-328h-162v-381q0 -39 19 -55.5t76 -16.5q22 0 45 2v-301q-44 -14 -131 -23.5t-150 -9.5q-118 0 -197.5 24.5t-123 74t-61 113.5t-17.5 155v418h-140zM520 -498h-366q122 199 151 398h406q-20 -97 -74 -213t-117 -185z" />
    <glyph glyph-name="uni0237" unicode="&#x237;" horiz-adv-x="731" 
d="M98 1090h543v-936q0 -81 -5 -141t-18 -119.5t-36.5 -101.5t-61.5 -78.5t-91.5 -58t-126.5 -34t-167 -12.5q-18 0 -147 6v348h37q73 0 73 88v1039z" />
    <glyph glyph-name="uni0251" unicode="&#x251;" horiz-adv-x="1411" 
d="M764 1090h547v-709q0 -209 12 -381h-496q-12 100 -14 111q-44 -62 -127.5 -101t-187.5 -39q-100 0 -178.5 35t-126.5 90.5t-79 132t-43 152.5t-12 160q0 261 128.5 419t334.5 158q77 0 144.5 -20.5t97.5 -61.5v54zM618 553q0 -130 21 -191t66 -61q15 0 27 5t20 17
t14 23.5t10 33t6 36.5t3 43t1 43.5v46.5v2v2q0 48 -0.5 75t-3 59.5t-7.5 49t-13.5 32.5t-22 22t-32.5 6q-89 0 -89 -244z" />
    <glyph glyph-name="uni0259" unicode="&#x259;" horiz-adv-x="1363" 
d="M39 641h711q0 40 -3.5 68.5t-12.5 54t-28 38.5t-47 13q-75 0 -90 -86h-526q14 57 37.5 106t71.5 103t113 92t168 63t231 25q145 0 257.5 -33.5t182.5 -88t115.5 -131.5t63 -156t17.5 -168q0 -92 -20.5 -173.5t-68.5 -155t-120 -126.5t-181.5 -84t-247.5 -31
q-104 0 -192 18.5t-151.5 50.5t-113 76.5t-81 94.5t-52 108.5t-29 113t-8.5 112.5q0 42 4 96zM750 403h-166q0 -34 2.5 -55.5t10 -43.5t25 -32t44.5 -10q84 0 84 141z" />
    <glyph glyph-name="uni0261" unicode="&#x261;" horiz-adv-x="1398" 
d="M1311 776v-573q0 -116 -17 -204t-61 -164t-116.5 -124t-185.5 -75t-267 -27q-100 0 -183.5 14t-140.5 37t-102.5 55.5t-72.5 65t-46 71.5t-27 68.5t-12 61.5h522q7 -34 23.5 -51t56.5 -17q46 0 65 35t19 129v82q-43 -60 -108 -91.5t-173 -31.5q-134 0 -232 69t-146 184
t-48 261q0 257 124 412t327 155q109 0 174 -35t82 -84q3 53 10 91h539q-4 -86 -4 -314zM618 580q0 -115 17 -170.5t65 -55.5q22 0 37 9.5t24 25t13.5 45t6 60.5t1.5 79q0 141 -12 186.5t-63 45.5q-46 0 -67.5 -50.5t-21.5 -174.5z" />
    <glyph glyph-name="uni02BB" unicode="&#x2bb;" horiz-adv-x="903" 
d="M373 1466h325q-65 -308 -65 -641h-428q6 157 52.5 338t115.5 303z" />
    <glyph glyph-name="uni02BC" unicode="&#x2bc;" horiz-adv-x="903" 
d="M530 825h-325q65 308 65 641h428q-10 -168 -52.5 -343t-115.5 -298z" />
    <glyph glyph-name="uni02BE" unicode="&#x2be;" horiz-adv-x="718" 
d="M205 1327q74 0 74 57q0 54 -72 58v172q150 0 228.5 -59t78.5 -169q0 -103 -81 -163t-228 -60v164z" />
    <glyph glyph-name="uni02BF" unicode="&#x2bf;" horiz-adv-x="718" 
d="M512 1335v-172q-150 0 -228.5 59t-78.5 169q0 103 81 163t228 60v-164q-74 0 -74 -57q0 -54 72 -58z" />
    <glyph glyph-name="circumflex" unicode="&#x2c6;" 
d="M190 1470h447l237 -292h-387l-77 110l-72 -110h-393z" />
    <glyph glyph-name="caron" unicode="&#x2c7;" 
d="M614 1178h-421l-248 292h366l95 -110l92 110h376z" />
    <glyph glyph-name="uni02C8" unicode="&#x2c8;" horiz-adv-x="720" 
d="M516 1102h-311v436h311v-436z" />
    <glyph glyph-name="uni02C9" unicode="&#x2c9;" horiz-adv-x="1132" 
d="M205 1479h723v-283h-723v283z" />
    <glyph glyph-name="uni02CA" unicode="&#x2ca;" horiz-adv-x="1150" 
d="M528 1497h519l-416 -319h-375z" />
    <glyph glyph-name="uni02CB" unicode="&#x2cb;" horiz-adv-x="1163" 
d="M100 1497h527l280 -319h-372z" />
    <glyph glyph-name="uni02CC" unicode="&#x2cc;" horiz-adv-x="720" 
d="M516 -537h-311v437h311v-437z" />
    <glyph glyph-name="breve" unicode="&#x2d8;" 
d="M10 1497h340q3 -13 6 -21.5t9.5 -19t18 -15.5t28.5 -5q52 0 57 61h340q-46 -326 -403 -326q-86 0 -154 20t-111 51.5t-72.5 75.5t-42.5 87.5t-16 91.5z" />
    <glyph glyph-name="dotaccent" unicode="&#x2d9;" 
d="M621 1176h-424v321h424v-321z" />
    <glyph glyph-name="ring" unicode="&#x2da;" 
d="M412 1163q-147 0 -225 57t-78 158q0 104 77 160.5t228 56.5q145 0 220 -55t75 -160q0 -108 -77 -162.5t-220 -54.5zM406 1331q77 0 77 47q0 52 -73 52q-74 0 -74 -52q0 -47 70 -47z" />
    <glyph glyph-name="ogonek" unicode="&#x2db;" 
d="M297 20h326q-74 -52 -74 -106q0 -68 115 -68q44 0 67 4v-280q-102 -51 -282 -51q-138 0 -225 62t-87 183q0 75 46 144t114 112z" />
    <glyph glyph-name="tilde" unicode="&#x2dc;" 
d="M264 1176h-254v53q0 71 14.5 122t35 77.5t53.5 42t58.5 19t61.5 3.5q71 0 170.5 -34t126.5 -34t27 35v31h250v-39q0 -78 -15.5 -134.5t-37 -85.5t-54 -45.5t-56.5 -20t-56 -3.5q-64 0 -169 32t-124 32q-31 0 -31 -31v-20z" />
    <glyph glyph-name="hungarumlaut" unicode="&#x2dd;" 
d="M291 1184h-318l183 293h403zM782 1184h-317l186 293h398z" />
    <glyph glyph-name="uni0300" unicode="&#x300;" horiz-adv-x="0" 
d="M-467 1497h526l281 -319h-373z" />
    <glyph glyph-name="uni0301" unicode="&#x301;" horiz-adv-x="0" 
d="M-68 1497h519l-416 -319h-375z" />
    <glyph glyph-name="uni0302" unicode="&#x302;" horiz-adv-x="0" 
d="M-219 1470h446l238 -292h-387l-78 110l-72 -110h-393z" />
    <glyph glyph-name="uni0303" unicode="&#x303;" horiz-adv-x="0" 
d="M-145 1176h-254v53q0 71 14.5 122t35 77.5t53.5 42t58.5 19t61.5 3.5q71 0 170.5 -34t126.5 -34q26 0 26 35v31h250v-39q0 -78 -15.5 -134.5t-37 -85.5t-54 -45.5t-56.5 -20t-56 -3.5q-64 0 -169 32t-124 32q-30 0 -30 -31v-20z" />
    <glyph glyph-name="uni0304" unicode="&#x304;" horiz-adv-x="0" 
d="M-362 1479h722v-283h-722v283z" />
    <glyph glyph-name="uni0306" unicode="&#x306;" horiz-adv-x="0" 
d="M-399 1497h340q4 -19 8 -29t17.5 -21t35.5 -11q52 0 57 61h340q-46 -326 -403 -326q-106 0 -184.5 29t-121.5 78.5t-64 103.5t-25 115z" />
    <glyph glyph-name="uni0307" unicode="&#x307;" horiz-adv-x="0" 
d="M211 1176h-424v321h424v-321z" />
    <glyph glyph-name="uni0308" unicode="&#x308;" horiz-adv-x="0" 
d="M-49 1176h-397v321h397v-321zM446 1176h-397v321h397v-321z" />
    <glyph glyph-name="uni0309" unicode="&#x309;" horiz-adv-x="0" 
d="M164 1196h-311q33 40 43 61.5t10 45.5q0 14 -12 24t-33 10q-50 0 -92 -16l-76 221q46 28 128 49t169 21q134 0 207 -56t73 -155q0 -63 -30.5 -117t-75.5 -88z" />
    <glyph glyph-name="uni030A" unicode="&#x30a;" horiz-adv-x="0" 
d="M2 1163q-147 0 -225 57t-78 158q0 104 77 160.5t228 56.5q145 0 220 -55t75 -160q0 -108 -77 -162.5t-220 -54.5zM-4 1331q78 0 78 47q0 52 -74 52t-74 -52q0 -47 70 -47z" />
    <glyph glyph-name="uni030B" unicode="&#x30b;" horiz-adv-x="0" 
d="M-201 1184h-317l182 293h404zM291 1184h-318l187 293h397z" />
    <glyph glyph-name="uni030C" unicode="&#x30c;" horiz-adv-x="0" 
d="M205 1178h-422l-248 292h367l94 -110l92 110h377z" />
    <glyph glyph-name="uni031B" unicode="&#x31b;" horiz-adv-x="0" 
d="M-109 895l-124 252q37 3 57 29t20 67q0 65 -18 129h385q22 -67 22 -155q0 -137 -87.5 -228t-254.5 -94z" />
    <glyph glyph-name="uni0323" unicode="&#x323;" horiz-adv-x="0" 
d="M231 -479h-462v379h462v-379z" />
    <glyph glyph-name="uni0324" unicode="&#x324;" horiz-adv-x="0" 
d="M-49 -461h-397v322h397v-322zM446 -461h-397v322h397v-322z" />
    <glyph glyph-name="uni0326" unicode="&#x326;" horiz-adv-x="0" 
d="M61 -498h-366q122 199 151 398h406q-20 -97 -74 -213t-117 -185z" />
    <glyph glyph-name="uni0327" unicode="&#x327;" horiz-adv-x="0" 
d="M-92 10h272l-94 -71q199 -46 199 -195q0 -65 -31 -111.5t-82 -70t-102.5 -33.5t-106.5 -10q-134 0 -199 18v178q46 -8 80 -8q47 0 47 41q0 21 -19.5 33.5t-78.5 15.5l-4 113z" />
    <glyph glyph-name="uni0328" unicode="&#x328;" horiz-adv-x="0" 
d="M-154 20h326q-74 -52 -74 -106q0 -68 115 -68q45 0 68 4v-280q-102 -51 -283 -51q-137 0 -224 61.5t-87 183.5q0 75 45.5 144t113.5 112z" />
    <glyph glyph-name="uni032E" unicode="&#x32e;" horiz-adv-x="0" 
d="M-399 -100h340q4 -19 8 -29.5t17.5 -21.5t35.5 -11q52 0 57 62h340q-46 -326 -403 -326q-106 0 -184.5 29t-121.5 78.5t-64 103.5t-25 115z" />
    <glyph glyph-name="uni0331" unicode="&#x331;" horiz-adv-x="0" 
d="M-362 -127h722v-283h-722v283z" />
    <glyph glyph-name="pi" unicode="&#x3c0;" horiz-adv-x="1382" 
d="M748 0v764h-111v-764h-518v764q-58 0 -113 -2v323q54 5 199 5h1167v-326h-106v-764h-518z" />
    <glyph glyph-name="uni1E0C" unicode="&#x1e0c;" horiz-adv-x="1599" 
d="M113 0v1413h669q188 0 335 -54t238.5 -149.5t139 -220.5t47.5 -272q0 -153 -46.5 -281.5t-137 -227t-236 -153.5t-331.5 -55h-678zM678 1053v-693h57q124 0 173.5 79.5t49.5 277.5q0 194 -45.5 265t-167.5 71h-67zM928 -483h-463v379h463v-379z" />
    <glyph glyph-name="uni1E0D" unicode="&#x1e0d;" horiz-adv-x="1400" 
d="M764 1466h547v-1079q0 -344 2 -387h-533q-9 42 -12 102q-46 -65 -112.5 -98t-174.5 -33q-89 0 -161.5 32.5t-120 87.5t-80 129t-46.5 154t-14 167q0 165 52.5 294t159 206t251.5 77q78 0 145 -19.5t97 -60.5v428zM618 553q0 -130 21 -191t66 -61q27 0 43.5 14.5t24.5 50
t10.5 76t2.5 111.5q0 155 -13.5 199.5t-65.5 44.5q-89 0 -89 -244zM950 -479h-463v379h463v-379z" />
    <glyph glyph-name="uni1E0E" unicode="&#x1e0e;" horiz-adv-x="1599" 
d="M113 0v1413h669q188 0 335 -54t238.5 -149.5t139 -220.5t47.5 -272q0 -153 -46.5 -281.5t-137 -227t-236 -153.5t-331.5 -55h-678zM678 1053v-693h57q124 0 173.5 79.5t49.5 277.5q0 194 -45.5 265t-167.5 71h-67zM348 -127h723v-283h-723v283z" />
    <glyph glyph-name="uni1E0F" unicode="&#x1e0f;" horiz-adv-x="1400" 
d="M764 1466h547v-1079q0 -344 2 -387h-533q-9 42 -12 102q-46 -65 -112.5 -98t-174.5 -33q-89 0 -161.5 32.5t-120 87.5t-80 129t-46.5 154t-14 167q0 165 52.5 294t159 206t251.5 77q78 0 145 -19.5t97 -60.5v428zM618 553q0 -130 21 -191t66 -61q27 0 43.5 14.5t24.5 50
t10.5 76t2.5 111.5q0 155 -13.5 199.5t-65.5 44.5q-89 0 -89 -244zM358 -127h723v-283h-723v283z" />
    <glyph glyph-name="uni1E20" unicode="&#x1e20;" horiz-adv-x="1609" 
d="M1522 836v-836h-344q-18 52 -29 131q-125 -168 -426 -168q-138 0 -250.5 40.5t-188.5 109.5t-128 163t-75.5 198.5t-23.5 219.5q0 227 84 395.5t258.5 264.5t423.5 96q151 0 273.5 -33.5t198.5 -84.5t128.5 -117.5t74.5 -127t26 -118.5h-553q-11 59 -43 94t-103 35
q-56 0 -94 -30t-57 -86.5t-27 -121.5t-8 -151q0 -85 7.5 -150t26.5 -123t56.5 -89.5t91.5 -31.5q48 0 82 18.5t51 49t24 61t7 64.5v4h-203v324h740zM444 1800h723v-268h-723v268z" />
    <glyph glyph-name="uni1E21" unicode="&#x1e21;" horiz-adv-x="1398" 
d="M1311 776v-573q0 -116 -17 -204t-61 -164t-116.5 -124t-185.5 -75t-267 -27q-100 0 -183.5 14t-140.5 37t-102.5 55.5t-72.5 65t-46 71.5t-27 68.5t-12 61.5h522q7 -34 23.5 -51t56.5 -17q46 0 65 35t19 129v82q-43 -60 -108 -91.5t-173 -31.5q-134 0 -232 69t-146 184
t-48 261q0 257 124 412t327 155q109 0 174 -35t82 -84q3 53 10 91h539q-4 -86 -4 -314zM618 580q0 -115 17 -170.5t65 -55.5q22 0 37 9.5t24 25t13.5 45t6 60.5t1.5 79q0 141 -12 186.5t-63 45.5q-46 0 -67.5 -50.5t-21.5 -174.5zM356 1479h723v-283h-723v283z" />
    <glyph glyph-name="uni1E24" unicode="&#x1e24;" horiz-adv-x="1611" 
d="M113 0v1413h567v-504h250v504h569v-1413h-569v537h-250v-537h-567zM1036 -479h-463v379h463v-379z" />
    <glyph glyph-name="uni1E25" unicode="&#x1e25;" horiz-adv-x="1378" 
d="M88 1466h547v-477q125 129 311 129q180 0 263 -108t83 -297v-713h-544v664q0 50 -13 72t-41 22q-36 0 -47.5 -30.5t-11.5 -106.5v-621h-547v1466zM920 -479h-463v379h463v-379z" />
    <glyph glyph-name="uni1E2A" unicode="&#x1e2a;" horiz-adv-x="1611" 
d="M113 0v1413h567v-504h250v504h569v-1413h-569v537h-250v-537h-567zM406 -100h339q4 -18 8.5 -29t18 -22t35.5 -11q52 0 57 62h340q-46 -326 -403 -326q-106 0 -184.5 29t-121.5 78.5t-64 103.5t-25 115z" />
    <glyph glyph-name="uni1E2B" unicode="&#x1e2b;" horiz-adv-x="1378" 
d="M88 1466h547v-477q125 129 311 129q180 0 263 -108t83 -297v-713h-544v664q0 50 -13 72t-41 22q-36 0 -47.5 -30.5t-11.5 -106.5v-621h-547v1466zM289 -100h340q4 -19 8 -29.5t17.5 -21.5t35.5 -11q53 0 58 62h339q-46 -326 -403 -326q-106 0 -184.5 29t-121.5 78.5
t-64 103.5t-25 115z" />
    <glyph glyph-name="uni1E36" unicode="&#x1e36;" horiz-adv-x="1308" 
d="M113 0v1413h567v-1040h610l-59 -373h-1118zM885 -479h-463v379h463v-379z" />
    <glyph glyph-name="uni1E37" unicode="&#x1e37;" horiz-adv-x="722" 
d="M635 0h-547v1466h547v-1466zM592 -479h-463v379h463v-379z" />
    <glyph glyph-name="uni1E38" unicode="&#x1e38;" horiz-adv-x="1308" 
d="M113 0v1413h567v-1040h610l-59 -373h-1118zM885 -479h-463v379h463v-379zM31 1780h723v-269h-723v269z" />
    <glyph glyph-name="uni1E39" unicode="&#x1e39;" horiz-adv-x="722" 
d="M635 0h-547v1466h547v-1466zM-2 1839h723v-283h-723v283zM592 -479h-463v379h463v-379z" />
    <glyph glyph-name="uni1E3A" unicode="&#x1e3a;" horiz-adv-x="1308" 
d="M113 0v1413h567v-1040h610l-59 -373h-1118zM311 -127h723v-283h-723v283z" />
    <glyph glyph-name="uni1E3B" unicode="&#x1e3b;" horiz-adv-x="722" 
d="M635 0h-547v1466h547v-1466zM-2 -127h723v-283h-723v283z" />
    <glyph glyph-name="uni1E42" unicode="&#x1e42;" horiz-adv-x="1947" 
d="M1294 0v365q0 293 13 679h-13q-7 -53 -60 -443.5t-85 -600.5h-424q-9 73 -125 1036h-16q20 -332 20 -665v-371h-491v1413h782q51 -517 66 -723h16q17 124 43.5 360.5t46.5 362.5h768v-1413h-541zM1167 -479h-462v379h462v-379z" />
    <glyph glyph-name="uni1E43" unicode="&#x1e43;" horiz-adv-x="2015" 
d="M88 0v760q0 240 -2 330h526q11 -68 13 -107q121 135 319 135q201 0 281 -133q29 25 40.5 34.5t47.5 33t66 34.5t79 21t103 10q169 0 267.5 -108.5t98.5 -311.5v-698h-536v672q0 45 -12.5 65.5t-41.5 20.5q-59 0 -59 -96v-662h-539v684q0 74 -51 74q-36 0 -48.5 -23
t-12.5 -78v-657h-539zM1239 -479h-463v379h463v-379z" />
    <glyph glyph-name="uni1E44" unicode="&#x1e44;" horiz-adv-x="1611" 
d="M633 0h-520v1413h655q113 -338 223 -760h13q-25 286 -25 621v139h520v-1413h-627q-70 212 -245 797h-9q4 -40 7 -91t4.5 -88t2.5 -110.5t1 -102v-122v-115.5v-168zM1012 1509h-424v322h424v-322z" />
    <glyph glyph-name="uni1E45" unicode="&#x1e45;" horiz-adv-x="1380" 
d="M88 0v793q0 101 -4 297h539q7 -33 12 -103q114 131 309 131q161 0 254.5 -102.5t93.5 -294.5v-721h-544v653q0 63 -13.5 84t-42.5 21t-43 -28t-14 -95v-635h-547zM901 1194h-424v322h424v-322z" />
    <glyph glyph-name="uni1E46" unicode="&#x1e46;" horiz-adv-x="1611" 
d="M633 0h-520v1413h655q113 -338 223 -760h13q-25 286 -25 621v139h520v-1413h-627q-70 212 -245 797h-9q4 -40 7 -91t4.5 -88t2.5 -110.5t1 -102v-122v-115.5v-168zM1036 -479h-463v379h463v-379z" />
    <glyph glyph-name="uni1E47" unicode="&#x1e47;" horiz-adv-x="1380" 
d="M88 0v793q0 101 -4 297h539q7 -33 12 -103q114 131 309 131q161 0 254.5 -102.5t93.5 -294.5v-721h-544v653q0 63 -13.5 84t-42.5 21t-43 -28t-14 -95v-635h-547zM922 -479h-463v379h463v-379z" />
    <glyph glyph-name="uni1E48" unicode="&#x1e48;" horiz-adv-x="1611" 
d="M633 0h-520v1413h655q113 -338 223 -760h13q-25 286 -25 621v139h520v-1413h-627q-70 212 -245 797h-9q4 -40 7 -91t4.5 -88t2.5 -110.5t1 -102v-122v-115.5v-168zM442 -127h723v-283h-723v283z" />
    <glyph glyph-name="uni1E49" unicode="&#x1e49;" horiz-adv-x="1380" 
d="M88 0v793q0 101 -4 297h539q7 -33 12 -103q114 131 309 131q161 0 254.5 -102.5t93.5 -294.5v-721h-544v653q0 63 -13.5 84t-42.5 21t-43 -28t-14 -95v-635h-547zM328 -127h723v-283h-723v283z" />
    <glyph glyph-name="uni1E5A" unicode="&#x1e5a;" horiz-adv-x="1507" 
d="M739 500h-82v-500h-544v1413h817q134 0 236.5 -32t162.5 -88t89.5 -124.5t29.5 -148.5q0 -72 -22 -132t-59.5 -99.5t-76.5 -65t-82 -39.5q107 -32 162 -133t55 -260v-35q0 -182 15 -256h-543q-29 74 -29 287v69q0 71 -26 107.5t-103 36.5zM657 1077v-241h95
q141 0 141 122q0 119 -143 119h-93zM985 -479h-463v379h463v-379z" />
    <glyph glyph-name="uni1E5B" unicode="&#x1e5b;" horiz-adv-x="978" 
d="M88 0v745q0 157 -4 345h532q13 -115 13 -164q15 33 38.5 63t60.5 60t93 49t123 20v-479q-94 5 -154 -5t-94.5 -37.5t-47.5 -69t-13 -107.5v-420h-547zM592 -479h-463v379h463v-379z" />
    <glyph glyph-name="uni1E5C" unicode="&#x1e5c;" horiz-adv-x="1507" 
d="M739 500h-82v-500h-544v1413h817q134 0 236.5 -32t162.5 -88t89.5 -124.5t29.5 -148.5q0 -72 -22 -132t-59.5 -99.5t-76.5 -65t-82 -39.5q107 -32 162 -133t55 -260v-35q0 -182 15 -256h-543q-29 74 -29 287v69q0 71 -26 107.5t-103 36.5zM657 1077v-241h95
q141 0 141 122q0 119 -143 119h-93zM985 -479h-463v379h463v-379zM393 1780h723v-269h-723v269z" />
    <glyph glyph-name="uni1E5D" unicode="&#x1e5d;" horiz-adv-x="978" 
d="M88 0v745q0 157 -4 345h532q13 -115 13 -164q15 33 38.5 63t60.5 60t93 49t123 20v-479q-94 5 -154 -5t-94.5 -37.5t-47.5 -69t-13 -107.5v-420h-547zM127 1479h723v-283h-723v283zM592 -479h-463v379h463v-379z" />
    <glyph glyph-name="uni1E5E" unicode="&#x1e5e;" horiz-adv-x="1507" 
d="M739 500h-82v-500h-544v1413h817q134 0 236.5 -32t162.5 -88t89.5 -124.5t29.5 -148.5q0 -72 -22 -132t-59.5 -99.5t-76.5 -65t-82 -39.5q107 -32 162 -133t55 -260v-35q0 -182 15 -256h-543q-29 74 -29 287v69q0 71 -26 107.5t-103 36.5zM657 1077v-241h95
q141 0 141 122q0 119 -143 119h-93zM391 -127h723v-283h-723v283z" />
    <glyph glyph-name="uni1E5F" unicode="&#x1e5f;" horiz-adv-x="978" 
d="M88 0v745q0 157 -4 345h532q13 -115 13 -164q15 33 38.5 63t60.5 60t93 49t123 20v-479q-94 5 -154 -5t-94.5 -37.5t-47.5 -69t-13 -107.5v-420h-547zM4 -127h723v-283h-723v283z" />
    <glyph glyph-name="uni1E60" unicode="&#x1e60;" horiz-adv-x="1470" 
d="M35 444h528q15 -145 170 -145q123 0 123 78q0 46 -49.5 71t-210.5 66q-133 34 -229 76t-152.5 85t-89 96.5t-43 102.5t-10.5 113q0 65 18 127t64.5 124t116.5 108t183 75t255 29q165 0 292.5 -37t205.5 -101.5t120 -145t49 -175.5h-520q-13 121 -135 121q-98 0 -98 -65
q0 -37 45.5 -59t205.5 -66q139 -38 239.5 -83t160 -90t93.5 -100.5t45 -105.5t11 -115q0 -210 -173 -337.5t-517 -127.5q-325 0 -501.5 130.5t-196.5 350.5zM942 1530h-424v321h424v-321z" />
    <glyph glyph-name="uni1E61" unicode="&#x1e61;" horiz-adv-x="1241" 
d="M39 346h475q7 -38 36.5 -59t74.5 -21q75 0 75 43q0 26 -38.5 40t-153.5 36q-96 18 -170 42t-121.5 53t-79 59.5t-47 68t-21.5 71t-6 75.5q0 51 14 98.5t52 97t96.5 86t155.5 59.5t221 23q110 0 202 -20t154 -53t106 -78t65.5 -93t25.5 -100h-459q-13 74 -98 74
q-66 0 -66 -41q0 -24 40.5 -37.5t189.5 -44.5q228 -47 328 -133t100 -232q0 -86 -31.5 -155t-98.5 -122.5t-180.5 -82.5t-267.5 -29q-138 0 -246.5 31t-176 84.5t-105 119t-45.5 140.5zM831 1194h-423v322h423v-322z" />
    <glyph glyph-name="uni1E62" unicode="&#x1e62;" horiz-adv-x="1470" 
d="M35 444h528q15 -145 170 -145q123 0 123 78q0 46 -49.5 71t-210.5 66q-133 34 -229 76t-152.5 85t-89 96.5t-43 102.5t-10.5 113q0 65 18 127t64.5 124t116.5 108t183 75t255 29q165 0 292.5 -37t205.5 -101.5t120 -145t49 -175.5h-520q-13 121 -135 121q-98 0 -98 -65
q0 -37 45.5 -59t205.5 -66q139 -38 239.5 -83t160 -90t93.5 -100.5t45 -105.5t11 -115q0 -210 -173 -337.5t-517 -127.5q-325 0 -501.5 130.5t-196.5 350.5zM967 -500h-463v379h463v-379z" />
    <glyph glyph-name="uni1E63" unicode="&#x1e63;" horiz-adv-x="1241" 
d="M39 346h475q7 -38 36.5 -59t74.5 -21q75 0 75 43q0 26 -38.5 40t-153.5 36q-96 18 -170 42t-121.5 53t-79 59.5t-47 68t-21.5 71t-6 75.5q0 51 14 98.5t52 97t96.5 86t155.5 59.5t221 23q110 0 202 -20t154 -53t106 -78t65.5 -93t25.5 -100h-459q-13 74 -98 74
q-66 0 -66 -41q0 -24 40.5 -37.5t189.5 -44.5q228 -47 328 -133t100 -232q0 -86 -31.5 -155t-98.5 -122.5t-180.5 -82.5t-267.5 -29q-138 0 -246.5 31t-176 84.5t-105 119t-45.5 140.5zM852 -479h-463v379h463v-379z" />
    <glyph glyph-name="uni1E6C" unicode="&#x1e6c;" horiz-adv-x="1349" 
d="M395 0v1040h-368v373h1296v-373h-362v-1040h-566zM905 -479h-463v379h463v-379z" />
    <glyph glyph-name="uni1E6D" unicode="&#x1e6d;" horiz-adv-x="917" 
d="M18 762v328h146v270h534v-270h162v-328h-162v-381q0 -39 19 -55.5t76 -16.5q22 0 45 2v-301q-44 -14 -131 -23.5t-150 -9.5q-118 0 -197.5 24.5t-123 74t-61 113.5t-17.5 155v418h-140zM709 -479h-463v379h463v-379z" />
    <glyph glyph-name="uni1E6E" unicode="&#x1e6e;" horiz-adv-x="1349" 
d="M395 0v1040h-368v373h1296v-373h-362v-1040h-566zM311 -127h723v-283h-723v283z" />
    <glyph glyph-name="uni1E6F" unicode="&#x1e6f;" horiz-adv-x="917" 
d="M18 762v328h146v270h534v-270h162v-328h-162v-381q0 -39 19 -55.5t76 -16.5q22 0 45 2v-301q-44 -14 -131 -23.5t-150 -9.5q-118 0 -197.5 24.5t-123 74t-61 113.5t-17.5 155v418h-140zM121 -127h723v-283h-723v283z" />
    <glyph glyph-name="Wgrave" unicode="&#x1e80;" horiz-adv-x="2029" 
d="M883 0h-572l-313 1413h584q50 -717 59 -876h14q26 161 64 433t69 443h502q50 -327 125 -858h15q9 177 65 858h537l-324 -1413h-571q-26 153 -68.5 422.5t-54.5 341.5h-10q-23 -153 -63.5 -402.5t-57.5 -361.5zM416 1772h590l264 -269h-420z" />
    <glyph glyph-name="wgrave" unicode="&#x1e81;" horiz-adv-x="1863" 
d="M-14 1090h581q13 -164 23 -303.5t17.5 -241.5t10.5 -144h13q32 262 71 689h508q32 -343 60 -699h14q35 424 59 699h535l-297 -1090h-596q-11 100 -28 308t-19 233h-12q-14 -179 -60 -541h-594zM340 1497h526l281 -319h-373z" />
    <glyph glyph-name="Wacute" unicode="&#x1e82;" horiz-adv-x="2029" 
d="M883 0h-572l-313 1413h584q50 -717 59 -876h14q26 161 64 433t69 443h502q50 -327 125 -858h15q9 177 65 858h537l-324 -1413h-571q-26 153 -68.5 422.5t-54.5 341.5h-10q-23 -153 -63.5 -402.5t-57.5 -361.5zM1081 1772h594l-448 -269h-416z" />
    <glyph glyph-name="wacute" unicode="&#x1e83;" horiz-adv-x="1863" 
d="M-14 1090h581q13 -164 23 -303.5t17.5 -241.5t10.5 -144h13q32 262 71 689h508q32 -343 60 -699h14q35 424 59 699h535l-297 -1090h-596q-11 100 -28 308t-19 233h-12q-14 -179 -60 -541h-594zM1028 1497h518l-416 -319h-374z" />
    <glyph glyph-name="Wdieresis" unicode="&#x1e84;" horiz-adv-x="2029" 
d="M883 0h-572l-313 1413h584q50 -717 59 -876h14q26 161 64 433t69 443h502q50 -327 125 -858h15q9 177 65 858h537l-324 -1413h-571q-26 153 -68.5 422.5t-54.5 341.5h-10q-23 -153 -63.5 -402.5t-57.5 -361.5zM995 1509h-397v322h397v-322zM1491 1509h-397v322h397v-322z
" />
    <glyph glyph-name="wdieresis" unicode="&#x1e85;" horiz-adv-x="1863" 
d="M-14 1090h581q13 -164 23 -303.5t17.5 -241.5t10.5 -144h13q32 262 71 689h508q32 -343 60 -699h14q35 424 59 699h535l-297 -1090h-596q-11 100 -28 308t-19 233h-12q-14 -179 -60 -541h-594zM883 1176h-398v321h398v-321zM1378 1176h-397v321h397v-321z" />
    <glyph glyph-name="uni1E8E" unicode="&#x1e8e;" horiz-adv-x="1466" 
d="M1014 0h-568v479q0 35 -18 66l-481 868h637q76 -217 170 -508q28 89 94.5 273.5t83.5 234.5h588l-492 -874q-14 -25 -14 -64v-475zM961 1509h-424v322h424v-322z" />
    <glyph glyph-name="uni1E8F" unicode="&#x1e8f;" horiz-adv-x="1265" 
d="M-31 1090h602q47 -318 82 -656h17q5 42 32.5 280.5t45.5 375.5h534l-258 -863q-36 -122 -61.5 -193.5t-65.5 -152t-85 -123t-111.5 -81t-155 -53.5t-207.5 -15q-65 0 -205 12v346q2 0 14.5 -1t30.5 -2t33 -1q112 0 133 47zM844 1176h-424v321h424v-321z" />
    <glyph glyph-name="uni1E92" unicode="&#x1e92;" horiz-adv-x="1388" 
d="M47 0v287l608 753h-575v373h1225v-336l-555 -704h612l-53 -373h-1262zM926 -479h-463v379h463v-379z" />
    <glyph glyph-name="uni1E93" unicode="&#x1e93;" horiz-adv-x="1142" 
d="M43 0v301q8 9 166.5 177t267.5 284h-414v328h1014v-320q-88 -104 -399 -442h455l-68 -328h-1022zM803 -479h-463v379h463v-379z" />
    <glyph glyph-name="uni1E97" unicode="&#x1e97;" horiz-adv-x="917" 
d="M18 762v328h146v270h534v-270h162v-328h-162v-381q0 -39 19 -55.5t76 -16.5q22 0 45 2v-301q-44 -14 -131 -23.5t-150 -9.5q-118 0 -197.5 24.5t-123 74t-61 113.5t-17.5 155v418h-140zM389 1434h-397v321h397v-321zM885 1434h-398v321h398v-321z" />
    <glyph glyph-name="uni1E9E" unicode="&#x1e9e;" horiz-adv-x="1665" 
d="M686 987v-987h-569v1020q0 96 31.5 169.5t89.5 122.5t145 80t191.5 44.5t236.5 13.5q161 0 288.5 -24.5t207.5 -64.5t132.5 -94.5t73.5 -109.5t21 -115q0 -39 -4 -57l-232 -125v-10l78 -55q130 -92 183 -181.5t53 -205.5q0 -205 -135 -320t-375 -115q-222 0 -348 72v334
q128 -87 252 -84q49 2 70.5 15t21.5 46q0 25 -32 54.5t-122 83.5l-84 51q-79 48 -106.5 118t1 138t105.5 112l135 78q2 64 -39 98.5t-120 34.5q-75 0 -112.5 -35.5t-37.5 -101.5z" />
    <glyph glyph-name="uni1EA0" unicode="&#x1ea0;" horiz-adv-x="1542" 
d="M915 221h-329l-47 -221h-545l395 1413h752l407 -1413h-585zM655 594h183q-8 50 -23 132t-34.5 186.5t-28.5 156.5h-13q-69 -402 -84 -475zM1001 -479h-462v379h462v-379z" />
    <glyph glyph-name="uni1EA1" unicode="&#x1ea1;" horiz-adv-x="1337" 
d="M1245 676v-295q0 -310 10 -381h-485q-14 44 -20 104q-117 -133 -322 -133q-165 0 -272 92t-107 263q0 194 146 282t426 88h106v60q0 47 -16 66.5t-52 19.5q-65 0 -71 -92h-490q2 34 9 65.5t24 70t43 70t70 62.5t100.5 52.5t139 34.5t182.5 13q114 0 204 -14t153 -42
t106.5 -65.5t68.5 -89t36 -107t11 -124.5zM727 430v45h-51q-105 0 -105 -94q0 -37 20.5 -59.5t51.5 -22.5q49 0 66.5 30t17.5 101zM907 -479h-463v379h463v-379z" />
    <glyph glyph-name="uni1EA2" unicode="&#x1ea2;" horiz-adv-x="1542" 
d="M915 221h-329l-47 -221h-545l395 1413h752l407 -1413h-585zM655 594h183q-8 50 -23 132t-34.5 186.5t-28.5 156.5h-13q-69 -402 -84 -475zM934 1503h-311q33 40 43 61.5t10 45.5q0 14 -12 24.5t-33 10.5q-47 0 -92 -17l-76 221q46 28 128 49t169 21q134 0 207 -56
t73 -155q0 -63 -30.5 -117t-75.5 -88z" />
    <glyph glyph-name="uni1EA3" unicode="&#x1ea3;" horiz-adv-x="1337" 
d="M1245 676v-295q0 -310 10 -381h-485q-14 44 -20 104q-117 -133 -322 -133q-165 0 -272 92t-107 263q0 194 146 282t426 88h106v60q0 47 -16 66.5t-52 19.5q-65 0 -71 -92h-490q2 34 9 65.5t24 70t43 70t70 62.5t100.5 52.5t139 34.5t182.5 13q114 0 204 -14t153 -42
t106.5 -65.5t68.5 -89t36 -107t11 -124.5zM727 430v45h-51q-105 0 -105 -94q0 -37 20.5 -59.5t51.5 -22.5q49 0 66.5 30t17.5 101zM840 1196h-312q33 40 43.5 61.5t10.5 45.5q0 14 -12 24t-33 10q-51 0 -93 -16l-75 221q46 28 128 49t169 21q134 0 207 -56t73 -155
q0 -63 -30.5 -117t-75.5 -88z" />
    <glyph glyph-name="uni1EA4" unicode="&#x1ea4;" horiz-adv-x="1542" 
d="M915 221h-329l-47 -221h-545l395 1413h752l407 -1413h-585zM655 594h183q-8 50 -23 132t-34.5 186.5t-28.5 156.5h-13q-69 -402 -84 -475zM580 1774h385l268 -283h-356l-109 113l-115 -113h-350zM1323 1925h395l-319 -242h-283z" />
    <glyph glyph-name="uni1EA5" unicode="&#x1ea5;" horiz-adv-x="1337" 
d="M1245 676v-295q0 -310 10 -381h-485q-14 44 -20 104q-117 -133 -322 -133q-165 0 -272 92t-107 263q0 194 146 282t426 88h106v60q0 47 -16 66.5t-52 19.5q-65 0 -71 -92h-490q2 34 9 65.5t24 70t43 70t70 62.5t100.5 52.5t139 34.5t182.5 13q114 0 204 -14t153 -42
t106.5 -65.5t68.5 -89t36 -107t11 -124.5zM727 430v45h-51q-105 0 -105 -94q0 -37 20.5 -59.5t51.5 -22.5q49 0 66.5 30t17.5 101zM473 1468h408l217 -282h-357l-67 106l-74 -106h-350zM1135 1626h399l-268 -242h-293z" />
    <glyph glyph-name="uni1EA6" unicode="&#x1ea6;" horiz-adv-x="1542" 
d="M915 221h-329l-47 -221h-545l395 1413h752l407 -1413h-585zM655 594h183q-8 50 -23 132t-34.5 186.5t-28.5 156.5h-13q-69 -402 -84 -475zM578 1774h387l268 -283h-356l-109 113l-115 -113h-350zM950 1931h385l201 -241h-268z" />
    <glyph glyph-name="uni1EA7" unicode="&#x1ea7;" horiz-adv-x="1337" 
d="M1245 676v-295q0 -310 10 -381h-485q-14 44 -20 104q-117 -133 -322 -133q-165 0 -272 92t-107 263q0 194 146 282t426 88h106v60q0 47 -16 66.5t-52 19.5q-65 0 -71 -92h-490q2 34 9 65.5t24 70t43 70t70 62.5t100.5 52.5t139 34.5t182.5 13q114 0 204 -14t153 -42
t106.5 -65.5t68.5 -89t36 -107t11 -124.5zM727 430v45h-51q-105 0 -105 -94q0 -37 20.5 -59.5t51.5 -22.5q49 0 66.5 30t17.5 101zM473 1468h408l217 -282h-357l-67 106l-74 -106h-350zM838 1626h370l195 -242h-277z" />
    <glyph glyph-name="uni1EA8" unicode="&#x1ea8;" horiz-adv-x="1542" 
d="M915 221h-329l-47 -221h-545l395 1413h752l407 -1413h-585zM655 594h183q-8 50 -23 132t-34.5 186.5t-28.5 156.5h-13q-69 -402 -84 -475zM1364 1694h-266q53 44 53 86q0 24 -35 24q-26 0 -61 -12l-54 186q116 54 240 54q107 0 161 -44.5t54 -125.5q0 -54 -27.5 -97.5
t-64.5 -70.5zM567 1774h408l258 -283h-356l-109 113l-115 -113h-350z" />
    <glyph glyph-name="uni1EA9" unicode="&#x1ea9;" horiz-adv-x="1337" 
d="M1245 676v-295q0 -310 10 -381h-485q-14 44 -20 104q-117 -133 -322 -133q-165 0 -272 92t-107 263q0 194 146 282t426 88h106v60q0 47 -16 66.5t-52 19.5q-65 0 -71 -92h-490q2 34 9 65.5t24 70t43 70t70 62.5t100.5 52.5t139 34.5t182.5 13q114 0 204 -14t153 -42
t106.5 -65.5t68.5 -89t36 -107t11 -124.5zM727 430v45h-51q-105 0 -105 -94q0 -37 20.5 -59.5t51.5 -22.5q49 0 66.5 30t17.5 101zM1262 1389h-267q62 51 62 86q0 24 -27 24q-3 0 -10.5 0.5t-12 0t-12.5 -1.5t-16.5 -3.5t-17.5 -7.5l-54 186q97 53 236 53q107 0 163 -44.5
t56 -125.5q0 -105 -100 -167zM473 1468h408l217 -282h-357l-67 106l-74 -106h-350z" />
    <glyph glyph-name="uni1EAA" unicode="&#x1eaa;" horiz-adv-x="1542" 
d="M915 221h-329l-47 -221h-545l395 1413h752l407 -1413h-585zM655 594h183q-8 50 -23 132t-34.5 186.5t-28.5 156.5h-13q-69 -402 -84 -475zM625 1749h-267v37q0 217 230 217q81 0 175 -23.5t111 -23.5q35 0 35 24v21h271v-27q0 -54 -15 -95.5t-38.5 -66.5t-57 -40.5
t-65.5 -21t-68 -5.5q-72 0 -164 20.5t-113 20.5q-34 0 -34 -25v-12zM516 1698h506l235 -213h-426l-71 65l-64 -65h-415z" />
    <glyph glyph-name="uni1EAB" unicode="&#x1eab;" horiz-adv-x="1337" 
d="M1245 676v-295q0 -310 10 -381h-485q-14 44 -20 104q-117 -133 -322 -133q-165 0 -272 92t-107 263q0 194 146 282t426 88h106v60q0 47 -16 66.5t-52 19.5q-65 0 -71 -92h-490q2 34 9 65.5t24 70t43 70t70 62.5t100.5 52.5t139 34.5t182.5 13q114 0 204 -14t153 -42
t106.5 -65.5t68.5 -89t36 -107t11 -124.5zM727 430v45h-51q-105 0 -105 -94q0 -37 20.5 -59.5t51.5 -22.5q49 0 66.5 30t17.5 101zM530 1442h-266v37q0 217 230 217q81 0 175 -23.5t111 -23.5q35 0 35 24v21h270v-27q0 -67 -21.5 -114.5t-59 -71t-77 -33.5t-85.5 -10
q-72 0 -164 20.5t-113 20.5q-35 0 -35 -25v-12zM422 1391h506l235 -213h-426l-71 65l-64 -65h-416z" />
    <glyph glyph-name="uni1EAC" unicode="&#x1eac;" horiz-adv-x="1542" 
d="M915 221h-329l-47 -221h-545l395 1413h752l407 -1413h-585zM655 594h183q-8 50 -23 132t-34.5 186.5t-28.5 156.5h-13q-69 -402 -84 -475zM1001 -467h-462v379h462v-379zM510 1763h520l209 -268h-397l-74 113l-68 -113h-413z" />
    <glyph glyph-name="uni1EAD" unicode="&#x1ead;" horiz-adv-x="1337" 
d="M1245 676v-295q0 -310 10 -381h-485q-14 44 -20 104q-117 -133 -322 -133q-165 0 -272 92t-107 263q0 194 146 282t426 88h106v60q0 47 -16 66.5t-52 19.5q-65 0 -71 -92h-490q2 34 9 65.5t24 70t43 70t70 62.5t100.5 52.5t139 34.5t182.5 13q114 0 204 -14t153 -42
t106.5 -65.5t68.5 -89t36 -107t11 -124.5zM727 430v45h-51q-105 0 -105 -94q0 -37 20.5 -59.5t51.5 -22.5q49 0 66.5 30t17.5 101zM928 -479h-463v379h463v-379zM457 1470h446l238 -292h-387l-78 110l-72 -110h-393z" />
    <glyph glyph-name="uni1EAE" unicode="&#x1eae;" horiz-adv-x="1542" 
d="M915 221h-329l-47 -221h-545l395 1413h752l407 -1413h-585zM655 594h183q-8 50 -23 132t-34.5 186.5t-28.5 156.5h-13q-69 -402 -84 -475zM354 1786h295q10 -33 40 -54.5t79 -21.5q96 0 121 76h299q-6 -35 -18.5 -69.5t-43 -77t-74.5 -74t-118 -53t-168 -21.5
q-85 0 -154.5 19t-113.5 48.5t-75.5 70t-46.5 78.5t-22 79zM784 2034h498l-352 -195h-375z" />
    <glyph glyph-name="uni1EAF" unicode="&#x1eaf;" horiz-adv-x="1337" 
d="M1245 676v-295q0 -310 10 -381h-485q-14 44 -20 104q-117 -133 -322 -133q-165 0 -272 92t-107 263q0 194 146 282t426 88h106v60q0 47 -16 66.5t-52 19.5q-65 0 -71 -92h-490q2 34 9 65.5t24 70t43 70t70 62.5t100.5 52.5t139 34.5t182.5 13q114 0 204 -14t153 -42
t106.5 -65.5t68.5 -89t36 -107t11 -124.5zM727 430v45h-51q-105 0 -105 -94q0 -37 20.5 -59.5t51.5 -22.5q49 0 66.5 30t17.5 101zM260 1475h295q10 -33 40 -54.5t79 -21.5q96 0 121 76h299q-6 -35 -18.5 -69.5t-43 -77t-74.5 -74t-118 -53t-168 -21.5q-85 0 -154.5 19
t-113.5 48.5t-75.5 70t-46.5 78.5t-22 79zM709 1722h497l-372 -194h-355z" />
    <glyph glyph-name="uni1EB0" unicode="&#x1eb0;" horiz-adv-x="1542" 
d="M915 221h-329l-47 -221h-545l395 1413h752l407 -1413h-585zM655 594h183q-8 50 -23 132t-34.5 186.5t-28.5 156.5h-13q-69 -402 -84 -475zM354 1786h295q10 -33 40 -54.5t79 -21.5q96 0 121 76h299q-6 -35 -18.5 -69.5t-43 -77t-74.5 -74t-118 -53t-168 -21.5
q-85 0 -154.5 19t-113.5 48.5t-75.5 70t-46.5 78.5t-22 79zM262 2034h498l229 -195h-375z" />
    <glyph glyph-name="uni1EB1" unicode="&#x1eb1;" horiz-adv-x="1337" 
d="M1245 676v-295q0 -310 10 -381h-485q-14 44 -20 104q-117 -133 -322 -133q-165 0 -272 92t-107 263q0 194 146 282t426 88h106v60q0 47 -16 66.5t-52 19.5q-65 0 -71 -92h-490q2 34 9 65.5t24 70t43 70t70 62.5t100.5 52.5t139 34.5t182.5 13q114 0 204 -14t153 -42
t106.5 -65.5t68.5 -89t36 -107t11 -124.5zM727 430v45h-51q-105 0 -105 -94q0 -37 20.5 -59.5t51.5 -22.5q49 0 66.5 30t17.5 101zM260 1475h295q10 -33 40 -54.5t79 -21.5q96 0 121 76h299q-6 -35 -18.5 -69.5t-43 -77t-74.5 -74t-118 -53t-168 -21.5q-85 0 -154.5 19
t-113.5 48.5t-75.5 70t-46.5 78.5t-22 79zM147 1722h498l229 -194h-354z" />
    <glyph glyph-name="uni1EB2" unicode="&#x1eb2;" horiz-adv-x="1542" 
d="M915 221h-329l-47 -221h-545l395 1413h752l407 -1413h-585zM655 594h183q-8 50 -23 132t-34.5 186.5t-28.5 156.5h-13q-69 -402 -84 -475zM903 1833h-285q58 44 58 88q0 29 -37 29q-31 0 -64 -8l-55 184q99 51 250 51q119 0 181.5 -46.5t62.5 -127.5q0 -105 -111 -170z
M354 1786h295q10 -33 40 -54.5t79 -21.5q96 0 121 76h299q-6 -35 -18.5 -69.5t-43 -77t-74.5 -74t-118 -53t-168 -21.5q-85 0 -154.5 19t-113.5 48.5t-75.5 70t-46.5 78.5t-22 79z" />
    <glyph glyph-name="uni1EB3" unicode="&#x1eb3;" horiz-adv-x="1337" 
d="M1245 676v-295q0 -310 10 -381h-485q-14 44 -20 104q-117 -133 -322 -133q-165 0 -272 92t-107 263q0 194 146 282t426 88h106v60q0 47 -16 66.5t-52 19.5q-65 0 -71 -92h-490q2 34 9 65.5t24 70t43 70t70 62.5t100.5 52.5t139 34.5t182.5 13q114 0 204 -14t153 -42
t106.5 -65.5t68.5 -89t36 -107t11 -124.5zM727 430v45h-51q-105 0 -105 -94q0 -37 20.5 -59.5t51.5 -22.5q49 0 66.5 30t17.5 101zM809 1522h-285q58 44 58 88q0 28 -37 28q-31 0 -64 -8l-55 185q99 51 250 51q119 0 181.5 -46.5t62.5 -127.5q0 -105 -111 -170zM260 1475
h295q10 -33 40 -54.5t79 -21.5q96 0 121 76h299q-6 -35 -18.5 -69.5t-43 -77t-74.5 -74t-118 -53t-168 -21.5q-85 0 -154.5 19t-113.5 48.5t-75.5 70t-46.5 78.5t-22 79z" />
    <glyph glyph-name="uni1EB4" unicode="&#x1eb4;" horiz-adv-x="1542" 
d="M915 221h-329l-47 -221h-545l395 1413h752l407 -1413h-585zM655 594h183q-8 50 -23 132t-34.5 186.5t-28.5 156.5h-13q-69 -402 -84 -475zM627 1815h-267v36q0 217 230 217q81 0 175.5 -23.5t111.5 -23.5q34 0 34 25v20h271v-26q0 -67 -22 -114.5t-59.5 -71.5t-77 -34
t-85.5 -10q-72 0 -163.5 20.5t-112.5 20.5q-35 0 -35 -24v-12zM385 1737h287q10 -17 17.5 -26.5t28.5 -19.5t52 -10q34 0 56.5 12.5t27 20t12.5 23.5h291q-7 -45 -31.5 -86t-69 -79t-120 -60.5t-172.5 -22.5q-172 0 -270.5 73.5t-108.5 174.5z" />
    <glyph glyph-name="uni1EB5" unicode="&#x1eb5;" horiz-adv-x="1337" 
d="M1245 676v-295q0 -310 10 -381h-485q-14 44 -20 104q-117 -133 -322 -133q-165 0 -272 92t-107 263q0 194 146 282t426 88h106v60q0 47 -16 66.5t-52 19.5q-65 0 -71 -92h-490q2 34 9 65.5t24 70t43 70t70 62.5t100.5 52.5t139 34.5t182.5 13q114 0 204 -14t153 -42
t106.5 -65.5t68.5 -89t36 -107t11 -124.5zM727 430v45h-51q-105 0 -105 -94q0 -37 20.5 -59.5t51.5 -22.5q49 0 66.5 30t17.5 101zM532 1483h-266v37q0 217 230 217q81 0 175 -23.5t111 -23.5q35 0 35 24v21h270v-27q0 -67 -21.5 -114.5t-59 -71t-77 -33.5t-85.5 -10
q-72 0 -164 20.5t-113 20.5q-35 0 -35 -25v-12zM291 1419h287q9 -17 17 -26.5t29 -19t52 -9.5q70 0 94 52q2 2 2 3h291q-7 -45 -31.5 -86t-69 -79t-120 -60.5t-172.5 -22.5q-172 0 -270.5 73.5t-108.5 174.5z" />
    <glyph glyph-name="uni1EB6" unicode="&#x1eb6;" horiz-adv-x="1542" 
d="M915 221h-329l-47 -221h-545l395 1413h752l407 -1413h-585zM655 594h183q-8 50 -23 132t-34.5 186.5t-28.5 156.5h-13q-69 -402 -84 -475zM1001 -479h-462v379h462v-379zM369 1819h309q6 -22 9.5 -32.5t13.5 -27.5t27 -25t42 -8q45 0 64.5 28t21.5 65h311q-7 -44 -20 -84
t-43 -86t-72 -79t-111.5 -55t-156.5 -22q-85 0 -153.5 21.5t-111 54.5t-72 78t-42.5 87t-16 85z" />
    <glyph glyph-name="uni1EB7" unicode="&#x1eb7;" horiz-adv-x="1337" 
d="M1245 676v-295q0 -310 10 -381h-485q-14 44 -20 104q-117 -133 -322 -133q-165 0 -272 92t-107 263q0 194 146 282t426 88h106v60q0 47 -16 66.5t-52 19.5q-65 0 -71 -92h-490q2 34 9 65.5t24 70t43 70t70 62.5t100.5 52.5t139 34.5t182.5 13q114 0 204 -14t153 -42
t106.5 -65.5t68.5 -89t36 -107t11 -124.5zM727 430v45h-51q-105 0 -105 -94q0 -37 20.5 -59.5t51.5 -22.5q49 0 66.5 30t17.5 101zM276 1497h340q3 -13 6 -21.5t9.5 -19t18 -15.5t28.5 -5q52 0 57 61h340q-46 -326 -403 -326q-86 0 -154 20t-111 51.5t-72.5 75.5t-42.5 87.5
t-16 91.5zM948 -457h-463v379h463v-379z" />
    <glyph glyph-name="uni1EB8" unicode="&#x1eb8;" horiz-adv-x="1361" 
d="M1247 897v-373h-596v-151h680l-59 -373h-1159v1413h1159v-373h-621v-143h596zM932 -479h-463v379h463v-379z" />
    <glyph glyph-name="uni1EB9" unicode="&#x1eb9;" horiz-adv-x="1378" 
d="M1321 449h-711q0 -55 5.5 -89.5t26.5 -60t58 -25.5q76 0 91 86h526q-14 -57 -37.5 -106t-71.5 -103t-113 -92t-168 -63t-231 -25q-145 0 -258 33.5t-183 88.5t-115.5 131.5t-63 156t-17.5 168.5q0 92 20.5 173.5t68.5 155t120 126t182 83.5t248 31q144 0 256.5 -35.5
t181 -92t112.5 -134t60.5 -153t16.5 -158.5q0 -42 -4 -96zM610 686h166q0 34 -2.5 55.5t-10 43.5t-25 32t-44.5 10q-84 0 -84 -141zM920 -479h-463v379h463v-379z" />
    <glyph glyph-name="uni1EBA" unicode="&#x1eba;" horiz-adv-x="1361" 
d="M1247 897v-373h-596v-151h680l-59 -373h-1159v1413h1159v-373h-621v-143h596zM864 1503h-311q33 40 43 61.5t10 45.5q0 14 -12 24.5t-33 10.5q-47 0 -92 -17l-76 221q46 28 128 49t169 21q134 0 207.5 -56t73.5 -155q0 -63 -31 -116.5t-76 -88.5z" />
    <glyph glyph-name="uni1EBB" unicode="&#x1ebb;" horiz-adv-x="1378" 
d="M1321 449h-711q0 -55 5.5 -89.5t26.5 -60t58 -25.5q76 0 91 86h526q-14 -57 -37.5 -106t-71.5 -103t-113 -92t-168 -63t-231 -25q-145 0 -258 33.5t-183 88.5t-115.5 131.5t-63 156t-17.5 168.5q0 92 20.5 173.5t68.5 155t120 126t182 83.5t248 31q144 0 256.5 -35.5
t181 -92t112.5 -134t60.5 -153t16.5 -158.5q0 -42 -4 -96zM610 686h166q0 34 -2.5 55.5t-10 43.5t-25 32t-44.5 10q-84 0 -84 -141zM872 1196h-311q33 40 43 61.5t10 45.5q0 14 -12 24t-33 10q-50 0 -92 -16l-76 221q46 28 128 49t169 21q134 0 207.5 -56t73.5 -155
q0 -63 -31 -116.5t-76 -88.5z" />
    <glyph glyph-name="uni1EBC" unicode="&#x1ebc;" horiz-adv-x="1361" 
d="M1247 897v-373h-596v-151h680l-59 -373h-1159v1413h1159v-373h-621v-143h596zM578 1518h-254v53q0 72 15.5 123.5t36.5 78t55 41.5t58.5 18t59.5 3q71 0 169.5 -34t125.5 -34q16 0 21 8.5t5 30.5v27h250v-33q0 -79 -15.5 -136t-38 -87t-57.5 -47t-62.5 -21t-65.5 -4
q-64 0 -162 32t-117 32q-24 0 -24 -31v-20z" />
    <glyph glyph-name="uni1EBD" unicode="&#x1ebd;" horiz-adv-x="1378" 
d="M1321 449h-711q0 -55 5.5 -89.5t26.5 -60t58 -25.5q76 0 91 86h526q-14 -57 -37.5 -106t-71.5 -103t-113 -92t-168 -63t-231 -25q-145 0 -258 33.5t-183 88.5t-115.5 131.5t-63 156t-17.5 168.5q0 92 20.5 173.5t68.5 155t120 126t182 83.5t248 31q144 0 256.5 -35.5
t181 -92t112.5 -134t60.5 -153t16.5 -158.5q0 -42 -4 -96zM610 686h166q0 34 -2.5 55.5t-10 43.5t-25 32t-44.5 10q-84 0 -84 -141zM563 1196h-254v53q0 71 14.5 122t35 77.5t53.5 42t58.5 19t61.5 3.5q71 0 170.5 -33.5t126.5 -33.5t27 35v30h250v-38q0 -78 -15.5 -134.5
t-37 -85.5t-54 -45.5t-56.5 -20t-56 -3.5q-64 0 -169 31.5t-124 31.5q-31 0 -31 -30v-21z" />
    <glyph glyph-name="uni1EBE" unicode="&#x1ebe;" horiz-adv-x="1361" 
d="M1247 897v-373h-596v-151h680l-59 -373h-1159v1413h1159v-373h-621v-143h596zM510 1794h385l268 -283h-356l-109 113l-114 -113h-351zM1253 1946h396l-320 -242h-282z" />
    <glyph glyph-name="uni1EBF" unicode="&#x1ebf;" horiz-adv-x="1378" 
d="M1321 449h-711q0 -55 5.5 -89.5t26.5 -60t58 -25.5q76 0 91 86h526q-14 -57 -37.5 -106t-71.5 -103t-113 -92t-168 -63t-231 -25q-145 0 -258 33.5t-183 88.5t-115.5 131.5t-63 156t-17.5 168.5q0 92 20.5 173.5t68.5 155t120 126t182 83.5t248 31q144 0 256.5 -35.5
t181 -92t112.5 -134t60.5 -153t16.5 -158.5q0 -42 -4 -96zM610 686h166q0 34 -2.5 55.5t-10 43.5t-25 32t-44.5 10q-84 0 -84 -141zM485 1473h408l217 -283h-356l-68 106l-74 -106h-350zM1147 1630h399l-268 -241h-293z" />
    <glyph glyph-name="uni1EC0" unicode="&#x1ec0;" horiz-adv-x="1361" 
d="M1247 897v-373h-596v-151h680l-59 -373h-1159v1413h1159v-373h-621v-143h596zM508 1794h387l268 -283h-356l-109 113l-114 -113h-351zM881 1952h385l200 -242h-268z" />
    <glyph glyph-name="uni1EC1" unicode="&#x1ec1;" horiz-adv-x="1378" 
d="M1321 449h-711q0 -55 5.5 -89.5t26.5 -60t58 -25.5q76 0 91 86h526q-14 -57 -37.5 -106t-71.5 -103t-113 -92t-168 -63t-231 -25q-145 0 -258 33.5t-183 88.5t-115.5 131.5t-63 156t-17.5 168.5q0 92 20.5 173.5t68.5 155t120 126t182 83.5t248 31q144 0 256.5 -35.5
t181 -92t112.5 -134t60.5 -153t16.5 -158.5q0 -42 -4 -96zM610 686h166q0 34 -2.5 55.5t-10 43.5t-25 32t-44.5 10q-84 0 -84 -141zM494 1473h407l217 -283h-356l-68 106l-73 -106h-351zM858 1630h371l194 -241h-276z" />
    <glyph glyph-name="uni1EC2" unicode="&#x1ec2;" horiz-adv-x="1361" 
d="M1247 897v-373h-596v-151h680l-59 -373h-1159v1413h1159v-373h-621v-143h596zM1294 1714h-266q53 44 53 86q0 25 -34 25q-25 0 -62 -13l-53 187q114 53 239 53q107 0 161 -44.5t54 -125.5q0 -54 -27.5 -97.5t-64.5 -70.5zM498 1794h407l258 -283h-356l-109 113l-114 -113
h-351z" />
    <glyph glyph-name="uni1EC3" unicode="&#x1ec3;" horiz-adv-x="1378" 
d="M1321 449h-711q0 -55 5.5 -89.5t26.5 -60t58 -25.5q76 0 91 86h526q-14 -57 -37.5 -106t-71.5 -103t-113 -92t-168 -63t-231 -25q-145 0 -258 33.5t-183 88.5t-115.5 131.5t-63 156t-17.5 168.5q0 92 20.5 173.5t68.5 155t120 126t182 83.5t248 31q144 0 256.5 -35.5
t181 -92t112.5 -134t60.5 -153t16.5 -158.5q0 -42 -4 -96zM610 686h166q0 34 -2.5 55.5t-10 43.5t-25 32t-44.5 10q-84 0 -84 -141zM1274 1389h-266q61 50 61 86q0 24 -27 24q-3 0 -10.5 0.5t-12 0t-12.5 -1.5t-16.5 -3.5t-17.5 -7.5l-53 186q97 53 235 53q107 0 163 -44.5
t56 -125.5q0 -105 -100 -167zM485 1468h408l217 -282h-356l-68 106l-74 -106h-350z" />
    <glyph glyph-name="uni1EC4" unicode="&#x1ec4;" horiz-adv-x="1361" 
d="M1247 897v-373h-596v-151h680l-59 -373h-1159v1413h1159v-373h-621v-143h596zM555 1769h-266v37q0 217 229 217q81 0 175.5 -23.5t111.5 -23.5q35 0 35 25v20h270v-26q0 -67 -22 -114.5t-59.5 -71.5t-77 -34t-85.5 -10q-72 0 -163.5 20.5t-112.5 20.5q-35 0 -35 -24v-13z
M446 1718h506l236 -213h-426l-72 66l-63 -66h-416z" />
    <glyph glyph-name="uni1EC5" unicode="&#x1ec5;" horiz-adv-x="1378" 
d="M1321 449h-711q0 -55 5.5 -89.5t26.5 -60t58 -25.5q76 0 91 86h526q-14 -57 -37.5 -106t-71.5 -103t-113 -92t-168 -63t-231 -25q-145 0 -258 33.5t-183 88.5t-115.5 131.5t-63 156t-17.5 168.5q0 92 20.5 173.5t68.5 155t120 126t182 83.5t248 31q144 0 256.5 -35.5
t181 -92t112.5 -134t60.5 -153t16.5 -158.5q0 -42 -4 -96zM610 686h166q0 34 -2.5 55.5t-10 43.5t-25 32t-44.5 10q-84 0 -84 -141zM555 1456h-266v37q0 217 229 217q81 0 175.5 -23.5t111.5 -23.5q35 0 35 25v20h270v-27q0 -54 -15 -95.5t-38.5 -66.5t-57 -40.5t-65.5 -21
t-68 -5.5q-72 0 -163.5 20.5t-112.5 20.5q-35 0 -35 -25v-12zM446 1405h506l236 -213h-426l-72 65l-63 -65h-416z" />
    <glyph glyph-name="uni1EC6" unicode="&#x1ec6;" horiz-adv-x="1361" 
d="M1247 897v-373h-596v-151h680l-59 -373h-1159v1413h1159v-373h-621v-143h596zM911 -479h-462v379h462v-379zM440 1763h521l208 -268h-397l-74 113l-67 -113h-414z" />
    <glyph glyph-name="uni1EC7" unicode="&#x1ec7;" horiz-adv-x="1378" 
d="M1321 449h-711q0 -55 5.5 -89.5t26.5 -60t58 -25.5q76 0 91 86h526q-14 -57 -37.5 -106t-71.5 -103t-113 -92t-168 -63t-231 -25q-145 0 -258 33.5t-183 88.5t-115.5 131.5t-63 156t-17.5 168.5q0 92 20.5 173.5t68.5 155t120 126t182 83.5t248 31q144 0 256.5 -35.5
t181 -92t112.5 -134t60.5 -153t16.5 -158.5q0 -42 -4 -96zM610 686h166q0 34 -2.5 55.5t-10 43.5t-25 32t-44.5 10q-84 0 -84 -141zM920 -479h-463v379h463v-379zM469 1470h446l238 -292h-387l-78 110l-72 -110h-393z" />
    <glyph glyph-name="uni1EC8" unicode="&#x1ec8;" horiz-adv-x="792" 
d="M113 1413h567v-1413h-567v1413zM559 1513h-311q33 40 43 61.5t10 45.5q0 14 -12 24.5t-33 10.5q-47 0 -92 -17l-76 222q46 27 127.5 48t169.5 21q134 0 207.5 -56t73.5 -155q0 -63 -31 -116.5t-76 -88.5z" />
    <glyph glyph-name="uni1EC9" unicode="&#x1ec9;" horiz-adv-x="722" 
d="M88 0v1090h547v-1090h-547zM524 1196h-311q33 40 43 61.5t10 45.5q0 14 -12 24t-33 10q-50 0 -92 -16l-76 221q46 28 128 49t169 21q134 0 207.5 -56t73.5 -155q0 -63 -31 -116.5t-76 -88.5z" />
    <glyph glyph-name="uni1ECA" unicode="&#x1eca;" horiz-adv-x="792" 
d="M113 1413h567v-1413h-567v1413zM627 -479h-463v379h463v-379z" />
    <glyph glyph-name="uni1ECB" unicode="&#x1ecb;" horiz-adv-x="722" 
d="M88 0v1090h547v-1090h-547zM635 1174h-547v292h547v-292zM592 -479h-463v379h463v-379z" />
    <glyph glyph-name="uni1ECC" unicode="&#x1ecc;" horiz-adv-x="1628" 
d="M827 1450q146 0 268.5 -39.5t209 -109t147.5 -164t90 -204.5t29 -231q0 -157 -47 -289t-138.5 -233.5t-240.5 -159t-340 -57.5q-152 0 -277.5 40t-211.5 108.5t-145.5 163.5t-86.5 202.5t-27 227.5q0 121 28 229.5t89 203.5t150 164t218 108.5t285 39.5zM815 1098
q-94 0 -135 -96t-41 -291q0 -197 39.5 -296.5t140.5 -99.5q50 0 84 25.5t53.5 77t28 119.5t8.5 163q0 82 -4 140.5t-15.5 110t-31 82t-51.5 48t-76 17.5zM1044 -520h-462v379h462v-379z" />
    <glyph glyph-name="uni1ECD" unicode="&#x1ecd;" horiz-adv-x="1413" 
d="M711 1118q154 0 278 -46t202.5 -125t120.5 -182t42 -220q0 -267 -170.5 -420.5t-483.5 -153.5q-135 0 -244 31.5t-182 85t-122 127.5t-71 156t-22 174q0 95 23 178.5t73 156.5t125 125.5t185 82.5t246 30zM709 807q-30 0 -47 -18.5t-27 -77.5t-10 -168
q0 -158 17.5 -212.5t64.5 -54.5q43 0 61 54.5t18 206.5q0 114 -7.5 171t-23 78t-46.5 21zM938 -492h-463v379h463v-379z" />
    <glyph glyph-name="uni1ECE" unicode="&#x1ece;" horiz-adv-x="1628" 
d="M827 1450q146 0 268.5 -39.5t209 -109t147.5 -164t90 -204.5t29 -231q0 -157 -47 -289t-138.5 -233.5t-240.5 -159t-340 -57.5q-152 0 -277.5 40t-211.5 108.5t-145.5 163.5t-86.5 202.5t-27 227.5q0 121 28 229.5t89 203.5t150 164t218 108.5t285 39.5zM815 1098
q-94 0 -135 -96t-41 -291q0 -197 39.5 -296.5t140.5 -99.5q50 0 84 25.5t53.5 77t28 119.5t8.5 163q0 82 -4 140.5t-15.5 110t-31 82t-51.5 48t-76 17.5zM977 1524h-311q33 40 43 61t10 45q0 14 -12 24.5t-33 10.5q-50 0 -92 -16l-76 221q46 27 127.5 48t169.5 21
q134 0 207 -55.5t73 -154.5q0 -63 -30.5 -117t-75.5 -88z" />
    <glyph glyph-name="uni1ECF" unicode="&#x1ecf;" horiz-adv-x="1413" 
d="M711 1118q154 0 278 -46t202.5 -125t120.5 -182t42 -220q0 -267 -170.5 -420.5t-483.5 -153.5q-135 0 -244 31.5t-182 85t-122 127.5t-71 156t-22 174q0 95 23 178.5t73 156.5t125 125.5t185 82.5t246 30zM709 807q-30 0 -47 -18.5t-27 -77.5t-10 -168
q0 -158 17.5 -212.5t64.5 -54.5q43 0 61 54.5t18 206.5q0 114 -7.5 171t-23 78t-46.5 21zM870 1196h-311q33 40 43 61.5t10 45.5q0 14 -12 24t-33 10q-50 0 -92 -16l-76 221q46 28 128 49t169 21q134 0 207.5 -56t73.5 -155q0 -63 -31 -116.5t-76 -88.5z" />
    <glyph glyph-name="uni1ED0" unicode="&#x1ed0;" horiz-adv-x="1628" 
d="M827 1450q146 0 268.5 -39.5t209 -109t147.5 -164t90 -204.5t29 -231q0 -157 -47 -289t-138.5 -233.5t-240.5 -159t-340 -57.5q-152 0 -277.5 40t-211.5 108.5t-145.5 163.5t-86.5 202.5t-27 227.5q0 121 28 229.5t89 203.5t150 164t218 108.5t285 39.5zM815 1098
q-94 0 -135 -96t-41 -291q0 -197 39.5 -296.5t140.5 -99.5q50 0 84 25.5t53.5 77t28 119.5t8.5 163q0 82 -4 140.5t-15.5 110t-31 82t-51.5 48t-76 17.5zM623 1794h385l268 -283h-356l-109 113l-115 -113h-350zM1366 1946h395l-319 -242h-283z" />
    <glyph glyph-name="uni1ED1" unicode="&#x1ed1;" horiz-adv-x="1413" 
d="M711 1118q154 0 278 -46t202.5 -125t120.5 -182t42 -220q0 -267 -170.5 -420.5t-483.5 -153.5q-135 0 -244 31.5t-182 85t-122 127.5t-71 156t-22 174q0 95 23 178.5t73 156.5t125 125.5t185 82.5t246 30zM709 807q-30 0 -47 -18.5t-27 -77.5t-10 -168
q0 -158 17.5 -212.5t64.5 -54.5q43 0 61 54.5t18 206.5q0 114 -7.5 171t-23 78t-46.5 21zM504 1473h407l217 -283h-356l-67 106l-74 -106h-350zM1165 1630h400l-269 -241h-292z" />
    <glyph glyph-name="uni1ED2" unicode="&#x1ed2;" horiz-adv-x="1628" 
d="M827 1450q146 0 268.5 -39.5t209 -109t147.5 -164t90 -204.5t29 -231q0 -157 -47 -289t-138.5 -233.5t-240.5 -159t-340 -57.5q-152 0 -277.5 40t-211.5 108.5t-145.5 163.5t-86.5 202.5t-27 227.5q0 121 28 229.5t89 203.5t150 164t218 108.5t285 39.5zM815 1098
q-94 0 -135 -96t-41 -291q0 -197 39.5 -296.5t140.5 -99.5q50 0 84 25.5t53.5 77t28 119.5t8.5 163q0 82 -4 140.5t-15.5 110t-31 82t-51.5 48t-76 17.5zM621 1794h387l268 -283h-356l-109 113l-115 -113h-350zM993 1952h385l201 -242h-268z" />
    <glyph glyph-name="uni1ED3" unicode="&#x1ed3;" horiz-adv-x="1413" 
d="M711 1118q154 0 278 -46t202.5 -125t120.5 -182t42 -220q0 -267 -170.5 -420.5t-483.5 -153.5q-135 0 -244 31.5t-182 85t-122 127.5t-71 156t-22 174q0 95 23 178.5t73 156.5t125 125.5t185 82.5t246 30zM709 807q-30 0 -47 -18.5t-27 -77.5t-10 -168
q0 -158 17.5 -212.5t64.5 -54.5q43 0 61 54.5t18 206.5q0 114 -7.5 171t-23 78t-46.5 21zM504 1475h407l217 -283h-356l-67 106l-74 -106h-350zM868 1632h371l195 -241h-277z" />
    <glyph glyph-name="uni1ED4" unicode="&#x1ed4;" horiz-adv-x="1628" 
d="M827 1450q146 0 268.5 -39.5t209 -109t147.5 -164t90 -204.5t29 -231q0 -157 -47 -289t-138.5 -233.5t-240.5 -159t-340 -57.5q-152 0 -277.5 40t-211.5 108.5t-145.5 163.5t-86.5 202.5t-27 227.5q0 121 28 229.5t89 203.5t150 164t218 108.5t285 39.5zM815 1098
q-94 0 -135 -96t-41 -291q0 -197 39.5 -296.5t140.5 -99.5q50 0 84 25.5t53.5 77t28 119.5t8.5 163q0 82 -4 140.5t-15.5 110t-31 82t-51.5 48t-76 17.5zM1407 1714h-266q53 44 53 86q0 25 -35 25q-24 0 -61 -13l-54 187q114 53 240 53q107 0 161 -44.5t54 -125.5
q0 -54 -27.5 -97.5t-64.5 -70.5zM610 1794h408l258 -283h-356l-109 113l-115 -113h-350z" />
    <glyph glyph-name="uni1ED5" unicode="&#x1ed5;" horiz-adv-x="1413" 
d="M711 1118q154 0 278 -46t202.5 -125t120.5 -182t42 -220q0 -267 -170.5 -420.5t-483.5 -153.5q-135 0 -244 31.5t-182 85t-122 127.5t-71 156t-22 174q0 95 23 178.5t73 156.5t125 125.5t185 82.5t246 30zM709 807q-30 0 -47 -18.5t-27 -77.5t-10 -168
q0 -158 17.5 -212.5t64.5 -54.5q43 0 61 54.5t18 206.5q0 114 -7.5 171t-23 78t-46.5 21zM1292 1399h-266q61 50 61 86q0 24 -26 24q-3 0 -11 0.5t-12.5 0t-12.5 -1.5t-16.5 -3.5t-17.5 -7.5l-53 186q99 54 236 54q107 0 163 -44.5t56 -125.5q0 -106 -101 -168zM504 1479
h407l217 -283h-356l-67 107l-74 -107h-350z" />
    <glyph glyph-name="uni1ED6" unicode="&#x1ed6;" horiz-adv-x="1628" 
d="M827 1450q146 0 268.5 -39.5t209 -109t147.5 -164t90 -204.5t29 -231q0 -157 -47 -289t-138.5 -233.5t-240.5 -159t-340 -57.5q-152 0 -277.5 40t-211.5 108.5t-145.5 163.5t-86.5 202.5t-27 227.5q0 121 28 229.5t89 203.5t150 164t218 108.5t285 39.5zM815 1098
q-94 0 -135 -96t-41 -291q0 -197 39.5 -296.5t140.5 -99.5q50 0 84 25.5t53.5 77t28 119.5t8.5 163q0 82 -4 140.5t-15.5 110t-31 82t-51.5 48t-76 17.5zM668 1788h-267v37q0 217 230 217q81 0 175.5 -23.5t111.5 -23.5q34 0 34 24v21h271v-27q0 -54 -15 -95.5t-38.5 -66.5
t-57 -40.5t-65.5 -21t-68 -5.5q-72 0 -164 20.5t-113 20.5q-34 0 -34 -25v-12zM559 1737h506l235 -213h-426l-71 65l-64 -65h-415z" />
    <glyph glyph-name="uni1ED7" unicode="&#x1ed7;" horiz-adv-x="1413" 
d="M711 1118q154 0 278 -46t202.5 -125t120.5 -182t42 -220q0 -267 -170.5 -420.5t-483.5 -153.5q-135 0 -244 31.5t-182 85t-122 127.5t-71 156t-22 174q0 95 23 178.5t73 156.5t125 125.5t185 82.5t246 30zM709 807q-30 0 -47 -18.5t-27 -77.5t-10 -168
q0 -158 17.5 -212.5t64.5 -54.5q43 0 61 54.5t18 206.5q0 114 -7.5 171t-23 78t-46.5 21zM561 1460h-266v37q0 217 229 217q81 0 175.5 -23.5t111.5 -23.5q35 0 35 25v20h270v-26q0 -67 -22 -114.5t-59.5 -71.5t-77 -34t-85.5 -10q-72 0 -163.5 20.5t-112.5 20.5
q-35 0 -35 -24v-13zM453 1409h505l236 -213h-426l-72 66l-63 -66h-416z" />
    <glyph glyph-name="uni1ED8" unicode="&#x1ed8;" horiz-adv-x="1628" 
d="M827 1450q146 0 268.5 -39.5t209 -109t147.5 -164t90 -204.5t29 -231q0 -157 -47 -289t-138.5 -233.5t-240.5 -159t-340 -57.5q-152 0 -277.5 40t-211.5 108.5t-145.5 163.5t-86.5 202.5t-27 227.5q0 121 28 229.5t89 203.5t150 164t218 108.5t285 39.5zM815 1098
q-94 0 -135 -96t-41 -291q0 -197 39.5 -296.5t140.5 -99.5q50 0 84 25.5t53.5 77t28 119.5t8.5 163q0 82 -4 140.5t-15.5 110t-31 82t-51.5 48t-76 17.5zM1044 -520h-462v379h462v-379zM553 1784h520l209 -268h-397l-74 112l-68 -112h-413z" />
    <glyph glyph-name="uni1ED9" unicode="&#x1ed9;" horiz-adv-x="1413" 
d="M711 1118q154 0 278 -46t202.5 -125t120.5 -182t42 -220q0 -267 -170.5 -420.5t-483.5 -153.5q-135 0 -244 31.5t-182 85t-122 127.5t-71 156t-22 174q0 95 23 178.5t73 156.5t125 125.5t185 82.5t246 30zM709 807q-30 0 -47 -18.5t-27 -77.5t-10 -168
q0 -158 17.5 -212.5t64.5 -54.5q43 0 61 54.5t18 206.5q0 114 -7.5 171t-23 78t-46.5 21zM938 -479h-463v379h463v-379zM487 1470h447l237 -292h-387l-77 110l-72 -110h-393z" />
    <glyph glyph-name="uni1EDA" unicode="&#x1eda;" horiz-adv-x="1628" 
d="M827 1450q262 0 443 -123q35 24 35 80q0 61 -19 129h385q23 -70 23 -156q0 -105 -53.5 -186t-155.5 -115q86 -167 86 -377q0 -157 -47 -289t-138.5 -233.5t-240.5 -159t-340 -57.5q-152 0 -277.5 40t-211.5 108.5t-145.5 163.5t-86.5 202.5t-27 227.5q0 121 28 229.5
t89 203.5t150 164t218 108.5t285 39.5zM815 1098q-94 0 -135 -96t-41 -291q0 -197 39.5 -296.5t140.5 -99.5q50 0 84 25.5t53.5 77t28 119.5t8.5 163q0 82 -4 140.5t-15.5 110t-31 82t-51.5 48t-76 17.5zM836 1792h594l-449 -268h-416z" />
    <glyph glyph-name="uni1EDB" unicode="&#x1edb;" horiz-adv-x="1413" 
d="M711 1118q197 0 342 -74q28 25 28 76q0 64 -18 129h385q22 -67 22 -155q0 -97 -44.5 -173.5t-131.5 -115.5q60 -120 60 -260q0 -267 -170.5 -420.5t-483.5 -153.5q-135 0 -244 31.5t-182 85t-122 127.5t-71 156t-22 174q0 95 23 178.5t73 156.5t125 125.5t185 82.5
t246 30zM709 807q-30 0 -47 -18.5t-27 -77.5t-10 -168q0 -158 17.5 -212.5t64.5 -54.5q43 0 61 54.5t18 206.5q0 114 -7.5 171t-23 78t-46.5 21zM756 1518h518l-416 -320h-375z" />
    <glyph glyph-name="uni1EDC" unicode="&#x1edc;" horiz-adv-x="1628" 
d="M827 1450q262 0 443 -123q35 24 35 80q0 61 -19 129h385q23 -70 23 -156q0 -105 -53.5 -186t-155.5 -115q86 -167 86 -377q0 -157 -47 -289t-138.5 -233.5t-240.5 -159t-340 -57.5q-152 0 -277.5 40t-211.5 108.5t-145.5 163.5t-86.5 202.5t-27 227.5q0 121 28 229.5
t89 203.5t150 164t218 108.5t285 39.5zM815 1098q-94 0 -135 -96t-41 -291q0 -197 39.5 -296.5t140.5 -99.5q50 0 84 25.5t53.5 77t28 119.5t8.5 163q0 82 -4 140.5t-15.5 110t-31 82t-51.5 48t-76 17.5zM229 1792h590l264 -268h-419z" />
    <glyph glyph-name="uni1EDD" unicode="&#x1edd;" horiz-adv-x="1413" 
d="M711 1118q197 0 342 -74q28 25 28 76q0 64 -18 129h385q22 -67 22 -155q0 -97 -44.5 -173.5t-131.5 -115.5q60 -120 60 -260q0 -267 -170.5 -420.5t-483.5 -153.5q-135 0 -244 31.5t-182 85t-122 127.5t-71 156t-22 174q0 95 23 178.5t73 156.5t125 125.5t185 82.5
t246 30zM709 807q-30 0 -47 -18.5t-27 -77.5t-10 -168q0 -158 17.5 -212.5t64.5 -54.5q43 0 61 54.5t18 206.5q0 114 -7.5 171t-23 78t-46.5 21zM125 1520h526l281 -320h-373z" />
    <glyph glyph-name="uni1EDE" unicode="&#x1ede;" horiz-adv-x="1628" 
d="M827 1450q262 0 443 -123q35 24 35 80q0 61 -19 129h385q23 -70 23 -156q0 -105 -53.5 -186t-155.5 -115q86 -167 86 -377q0 -157 -47 -289t-138.5 -233.5t-240.5 -159t-340 -57.5q-152 0 -277.5 40t-211.5 108.5t-145.5 163.5t-86.5 202.5t-27 227.5q0 121 28 229.5
t89 203.5t150 164t218 108.5t285 39.5zM815 1098q-94 0 -135 -96t-41 -291q0 -197 39.5 -296.5t140.5 -99.5q50 0 84 25.5t53.5 77t28 119.5t8.5 163q0 82 -4 140.5t-15.5 110t-31 82t-51.5 48t-76 17.5zM995 1524h-311q33 40 43 61t10 45q0 14 -12 24.5t-33 10.5
q-50 0 -92 -16l-76 221q46 27 127.5 48t169.5 21q134 0 207.5 -55.5t73.5 -154.5q0 -63 -31 -116.5t-76 -88.5z" />
    <glyph glyph-name="uni1EDF" unicode="&#x1edf;" horiz-adv-x="1413" 
d="M711 1118q197 0 342 -74q28 25 28 76q0 64 -18 129h385q22 -67 22 -155q0 -97 -44.5 -173.5t-131.5 -115.5q60 -120 60 -260q0 -267 -170.5 -420.5t-483.5 -153.5q-135 0 -244 31.5t-182 85t-122 127.5t-71 156t-22 174q0 95 23 178.5t73 156.5t125 125.5t185 82.5
t246 30zM709 807q-30 0 -47 -18.5t-27 -77.5t-10 -168q0 -158 17.5 -212.5t64.5 -54.5q43 0 61 54.5t18 206.5q0 114 -7.5 171t-23 78t-46.5 21zM870 1196h-311q33 40 43 61.5t10 45.5q0 14 -12 24t-33 10q-50 0 -92 -16l-76 221q46 28 128 49t169 21q134 0 207.5 -56
t73.5 -155q0 -63 -31 -116.5t-76 -88.5z" />
    <glyph glyph-name="uni1EE0" unicode="&#x1ee0;" horiz-adv-x="1628" 
d="M827 1450q262 0 443 -123q35 24 35 80q0 61 -19 129h385q23 -70 23 -156q0 -105 -53.5 -186t-155.5 -115q86 -167 86 -377q0 -157 -47 -289t-138.5 -233.5t-240.5 -159t-340 -57.5q-152 0 -277.5 40t-211.5 108.5t-145.5 163.5t-86.5 202.5t-27 227.5q0 121 28 229.5
t89 203.5t150 164t218 108.5t285 39.5zM815 1098q-94 0 -135 -96t-41 -291q0 -197 39.5 -296.5t140.5 -99.5q50 0 84 25.5t53.5 77t28 119.5t8.5 163q0 82 -4 140.5t-15.5 110t-31 82t-51.5 48t-76 17.5zM670 1544h-254v53q0 72 15.5 123.5t36.5 78t54.5 42t59 18.5t59.5 3
q71 0 169.5 -34t125.5 -34q16 0 21.5 8.5t5.5 30.5v27h249v-33q0 -79 -15.5 -136t-38 -87t-57.5 -47t-62.5 -21t-65.5 -4q-64 0 -162 31.5t-117 31.5q-24 0 -24 -30v-21z" />
    <glyph glyph-name="uni1EE1" unicode="&#x1ee1;" horiz-adv-x="1413" 
d="M711 1118q197 0 342 -74q28 25 28 76q0 64 -18 129h385q22 -67 22 -155q0 -97 -44.5 -173.5t-131.5 -115.5q60 -120 60 -260q0 -267 -170.5 -420.5t-483.5 -153.5q-135 0 -244 31.5t-182 85t-122 127.5t-71 156t-22 174q0 95 23 178.5t73 156.5t125 125.5t185 82.5
t246 30zM709 807q-30 0 -47 -18.5t-27 -77.5t-10 -168q0 -158 17.5 -212.5t64.5 -54.5q43 0 61 54.5t18 206.5q0 114 -7.5 171t-23 78t-46.5 21zM561 1196h-254v53q0 71 14.5 122t35 77.5t53.5 42t58.5 19t61.5 3.5q71 0 170.5 -33.5t126.5 -33.5t27 35v30h250v-38
q0 -78 -15.5 -134.5t-37 -85.5t-54 -45.5t-56.5 -20t-56 -3.5q-64 0 -169 31.5t-124 31.5q-31 0 -31 -30v-21z" />
    <glyph glyph-name="uni1EE2" unicode="&#x1ee2;" horiz-adv-x="1628" 
d="M827 1450q262 0 443 -123q35 24 35 80q0 61 -19 129h385q23 -70 23 -156q0 -105 -53.5 -186t-155.5 -115q86 -167 86 -377q0 -157 -47 -289t-138.5 -233.5t-240.5 -159t-340 -57.5q-152 0 -277.5 40t-211.5 108.5t-145.5 163.5t-86.5 202.5t-27 227.5q0 121 28 229.5
t89 203.5t150 164t218 108.5t285 39.5zM815 1098q-94 0 -135 -96t-41 -291q0 -197 39.5 -296.5t140.5 -99.5q50 0 84 25.5t53.5 77t28 119.5t8.5 163q0 82 -4 140.5t-15.5 110t-31 82t-51.5 48t-76 17.5zM1044 -520h-462v379h462v-379z" />
    <glyph glyph-name="uni1EE3" unicode="&#x1ee3;" horiz-adv-x="1413" 
d="M711 1118q197 0 342 -74q28 25 28 76q0 64 -18 129h385q22 -67 22 -155q0 -97 -44.5 -173.5t-131.5 -115.5q60 -120 60 -260q0 -267 -170.5 -420.5t-483.5 -153.5q-135 0 -244 31.5t-182 85t-122 127.5t-71 156t-22 174q0 95 23 178.5t73 156.5t125 125.5t185 82.5
t246 30zM709 807q-30 0 -47 -18.5t-27 -77.5t-10 -168q0 -158 17.5 -212.5t64.5 -54.5q43 0 61 54.5t18 206.5q0 114 -7.5 171t-23 78t-46.5 21zM938 -479h-463v379h463v-379z" />
    <glyph glyph-name="uni1EE4" unicode="&#x1ee4;" horiz-adv-x="1583" 
d="M98 1413h566v-921q0 -156 133 -156q58 0 88 41.5t30 114.5v921h570v-833q0 -617 -701 -617q-348 0 -517 152t-169 467v831zM1022 -500h-463v379h463v-379z" />
    <glyph glyph-name="uni1EE5" unicode="&#x1ee5;" horiz-adv-x="1378" 
d="M1290 1090v-684q0 -304 2 -406h-536q-8 27 -8 111q-58 -73 -133 -107.5t-183 -34.5q-346 0 -346 389v732h545v-660q0 -53 12.5 -75.5t42.5 -22.5q33 0 45 26.5t12 92.5v639h547zM920 -479h-463v379h463v-379z" />
    <glyph glyph-name="uni1EE6" unicode="&#x1ee6;" horiz-adv-x="1583" 
d="M98 1413h566v-921q0 -156 133 -156q58 0 88 41.5t30 114.5v921h570v-833q0 -617 -701 -617q-348 0 -517 152t-169 467v831zM954 1503h-311q33 40 43 61.5t10 45.5q0 14 -12 24.5t-33 10.5q-47 0 -92 -17l-76 221q46 28 128 49t169 21q134 0 207.5 -56t73.5 -155
q0 -63 -31 -116.5t-76 -88.5z" />
    <glyph glyph-name="uni1EE7" unicode="&#x1ee7;" horiz-adv-x="1378" 
d="M1290 1090v-684q0 -304 2 -406h-536q-8 27 -8 111q-58 -73 -133 -107.5t-183 -34.5q-346 0 -346 389v732h545v-660q0 -53 12.5 -75.5t42.5 -22.5q33 0 45 26.5t12 92.5v639h547zM852 1182h-311q33 40 43 61t10 45q0 14 -12 24.5t-33 10.5q-50 0 -92 -16l-76 221
q46 27 127.5 48t169.5 21q134 0 207 -56t73 -155q0 -63 -30.5 -116t-75.5 -88z" />
    <glyph glyph-name="uni1EE8" unicode="&#x1ee8;" horiz-adv-x="1583" 
d="M98 1413h566v-921q0 -156 133 -156q58 0 88 41.5t30 114.5v921h400q20 23 20 68q0 65 -18 129h385q22 -67 22 -156q0 -114 -60.5 -197.5t-178.5 -111.5v-565q0 -617 -701 -617q-348 0 -517 152t-169 467v831zM813 1772h594l-449 -269h-415z" />
    <glyph glyph-name="uni1EE9" unicode="&#x1ee9;" horiz-adv-x="1378" 
d="M748 111q-58 -73 -133 -107.5t-183 -34.5q-346 0 -346 389v732h545v-660q0 -53 12.5 -75.5t42.5 -22.5q33 0 45 26.5t12 92.5v639h269q37 3 57.5 29t20.5 67q0 61 -19 129h385q23 -70 23 -156q0 -100 -48 -178t-141 -115v-460q0 -304 2 -406h-536q-8 27 -8 111zM723 1497
h518l-416 -319h-374z" />
    <glyph glyph-name="uni1EEA" unicode="&#x1eea;" horiz-adv-x="1583" 
d="M98 1413h566v-921q0 -156 133 -156q58 0 88 41.5t30 114.5v921h400q20 23 20 68q0 65 -18 129h385q22 -67 22 -156q0 -114 -60.5 -197.5t-178.5 -111.5v-565q0 -617 -701 -617q-348 0 -517 152t-169 467v831zM190 1772h590l264 -269h-419z" />
    <glyph glyph-name="uni1EEB" unicode="&#x1eeb;" horiz-adv-x="1378" 
d="M748 111q-58 -73 -133 -107.5t-183 -34.5q-346 0 -346 389v732h545v-660q0 -53 12.5 -75.5t42.5 -22.5q33 0 45 26.5t12 92.5v639h269q37 3 57.5 29t20.5 67q0 61 -19 129h385q23 -70 23 -156q0 -100 -48 -178t-141 -115v-460q0 -304 2 -406h-536q-8 27 -8 111zM119 1497
h526l281 -319h-373z" />
    <glyph glyph-name="uni1EEC" unicode="&#x1eec;" horiz-adv-x="1583" 
d="M98 1413h566v-921q0 -156 133 -156q58 0 88 41.5t30 114.5v921h400q20 23 20 68q0 65 -18 129h385q22 -67 22 -156q0 -114 -60.5 -197.5t-178.5 -111.5v-565q0 -617 -701 -617q-348 0 -517 152t-169 467v831zM954 1503h-311q33 40 43 61.5t10 45.5q0 14 -12 24.5
t-33 10.5q-47 0 -92 -17l-76 221q46 28 128 49t169 21q134 0 207.5 -56t73.5 -155q0 -63 -31 -116.5t-76 -88.5z" />
    <glyph glyph-name="uni1EED" unicode="&#x1eed;" horiz-adv-x="1378" 
d="M748 111q-58 -73 -133 -107.5t-183 -34.5q-346 0 -346 389v732h545v-660q0 -53 12.5 -75.5t42.5 -22.5q33 0 45 26.5t12 92.5v639h269q37 3 57.5 29t20.5 67q0 61 -19 129h385q23 -70 23 -156q0 -100 -48 -178t-141 -115v-460q0 -304 2 -406h-536q-8 27 -8 111zM852 1190
h-311q33 40 43 61t10 45q0 14 -12 24.5t-33 10.5q-50 0 -92 -16l-76 221q46 28 128 49t169 21q134 0 207 -56t73 -155q0 -63 -30.5 -117t-75.5 -88z" />
    <glyph glyph-name="uni1EEE" unicode="&#x1eee;" horiz-adv-x="1583" 
d="M98 1413h566v-921q0 -156 133 -156q58 0 88 41.5t30 114.5v921h400q20 23 20 68q0 65 -18 129h385q22 -67 22 -156q0 -114 -60.5 -197.5t-178.5 -111.5v-565q0 -617 -701 -617q-348 0 -517 152t-169 467v831zM647 1499h-254v53q0 72 15.5 123.5t36.5 78t54.5 42t59 18.5
t59.5 3q71 0 169.5 -34t125.5 -34q16 0 21.5 8.5t5.5 30.5v27h250v-33q0 -79 -15.5 -136t-38 -87t-58 -47t-63 -21t-65.5 -4q-64 0 -161.5 31.5t-116.5 31.5q-25 0 -25 -30v-21z" />
    <glyph glyph-name="uni1EEF" unicode="&#x1eef;" horiz-adv-x="1378" 
d="M748 111q-58 -73 -133 -107.5t-183 -34.5q-346 0 -346 389v732h545v-660q0 -53 12.5 -75.5t42.5 -22.5q33 0 45 26.5t12 92.5v639h269q37 3 57.5 29t20.5 67q0 61 -19 129h385q23 -70 23 -156q0 -100 -48 -178t-141 -115v-460q0 -304 2 -406h-536q-8 27 -8 111zM532 1196
h-253v53q0 71 14.5 122t35 77.5t53.5 42t58.5 19t61.5 3.5q71 0 170.5 -33.5t126.5 -33.5q26 0 26 35v30h250v-38q0 -78 -15.5 -134.5t-37 -85.5t-54 -45.5t-56.5 -20t-56 -3.5q-64 0 -169 31.5t-124 31.5q-31 0 -31 -30v-21z" />
    <glyph glyph-name="uni1EF0" unicode="&#x1ef0;" horiz-adv-x="1583" 
d="M98 1413h566v-921q0 -156 133 -156q58 0 88 41.5t30 114.5v921h400q20 23 20 68q0 65 -18 129h385q22 -67 22 -156q0 -114 -60.5 -197.5t-178.5 -111.5v-565q0 -617 -701 -617q-348 0 -517 152t-169 467v831zM1022 -500h-463v379h463v-379z" />
    <glyph glyph-name="uni1EF1" unicode="&#x1ef1;" horiz-adv-x="1378" 
d="M748 111q-58 -73 -133 -107.5t-183 -34.5q-346 0 -346 389v732h545v-660q0 -53 12.5 -75.5t42.5 -22.5q33 0 45 26.5t12 92.5v639h269q37 3 57.5 29t20.5 67q0 61 -19 129h385q23 -70 23 -156q0 -100 -48 -178t-141 -115v-460q0 -304 2 -406h-536q-8 27 -8 111zM920 -479
h-463v379h463v-379z" />
    <glyph glyph-name="Ygrave" unicode="&#x1ef2;" horiz-adv-x="1466" 
d="M1014 0h-568v479q0 35 -18 66l-481 868h637q76 -217 170 -508q28 89 94.5 273.5t83.5 234.5h588l-492 -874q-14 -25 -14 -64v-475zM139 1772h590l264 -269h-420z" />
    <glyph glyph-name="ygrave" unicode="&#x1ef3;" horiz-adv-x="1265" 
d="M-31 1090h602q47 -318 82 -656h17q5 42 32.5 280.5t45.5 375.5h534l-258 -863q-36 -122 -61.5 -193.5t-65.5 -152t-85 -123t-111.5 -81t-155 -53.5t-207.5 -15q-65 0 -205 12v346q2 0 14.5 -1t30.5 -2t33 -1q112 0 133 47zM63 1497h527l280 -319h-372z" />
    <glyph glyph-name="uni1EF4" unicode="&#x1ef4;" horiz-adv-x="1466" 
d="M1014 0h-568v479q0 35 -18 66l-481 868h637q76 -217 170 -508q28 89 94.5 273.5t83.5 234.5h588l-492 -874q-14 -25 -14 -64v-475zM965 -479h-463v379h463v-379z" />
    <glyph glyph-name="uni1EF5" unicode="&#x1ef5;" horiz-adv-x="1265" 
d="M-31 1090h602q47 -318 82 -656h17q5 42 32.5 280.5t45.5 375.5h534l-258 -863q-36 -122 -61.5 -193.5t-65.5 -152t-85 -123t-111.5 -81t-155 -53.5t-207.5 -15q-65 0 -205 12v346q2 0 14.5 -1t30.5 -2t33 -1q112 0 133 47zM1417 -459h-463v379h463v-379z" />
    <glyph glyph-name="uni1EF6" unicode="&#x1ef6;" horiz-adv-x="1466" 
d="M1014 0h-568v479q0 35 -18 66l-481 868h637q76 -217 170 -508q28 89 94.5 273.5t83.5 234.5h588l-492 -874q-14 -25 -14 -64v-475zM897 1491h-311q33 40 43 61t10 45q0 14 -12 24.5t-33 10.5q-50 0 -92 -16l-76 221q46 28 128 49t169 21q134 0 207.5 -56t73.5 -155
q0 -63 -31 -116.5t-76 -88.5z" />
    <glyph glyph-name="uni1EF7" unicode="&#x1ef7;" horiz-adv-x="1265" 
d="M-31 1090h602q47 -318 82 -656h17q5 42 32.5 280.5t45.5 375.5h534l-258 -863q-36 -122 -61.5 -193.5t-65.5 -152t-85 -123t-111.5 -81t-155 -53.5t-207.5 -15q-65 0 -205 12v346q2 0 14.5 -1t30.5 -2t33 -1q112 0 133 47zM797 1182h-312q33 40 43.5 61t10.5 45
q0 14 -12 24.5t-33 10.5q-51 0 -93 -16l-75 221q46 27 127.5 48t169.5 21q134 0 207 -56t73 -155q0 -63 -30.5 -116t-75.5 -88z" />
    <glyph glyph-name="uni1EF8" unicode="&#x1ef8;" horiz-adv-x="1466" 
d="M1014 0h-568v479q0 35 -18 66l-481 868h637q76 -217 170 -508q28 89 94.5 273.5t83.5 234.5h588l-492 -874q-14 -25 -14 -64v-475zM590 1499h-254v53q0 72 15.5 123.5t36.5 78t54.5 42t59 18.5t59.5 3q71 0 169.5 -34t125.5 -34q16 0 21.5 8.5t5.5 30.5v27h250v-33
q0 -79 -15.5 -136t-38 -87t-58 -47t-63 -21t-65.5 -4q-64 0 -162 31.5t-117 31.5q-24 0 -24 -30v-21z" />
    <glyph glyph-name="uni1EF9" unicode="&#x1ef9;" horiz-adv-x="1265" 
d="M-31 1090h602q47 -318 82 -656h17q5 42 32.5 280.5t45.5 375.5h534l-258 -863q-36 -122 -61.5 -193.5t-65.5 -152t-85 -123t-111.5 -81t-155 -53.5t-207.5 -15q-65 0 -205 12v346q2 0 14.5 -1t30.5 -2t33 -1q112 0 133 47zM508 1196h-254v53q0 71 14.5 122t35 77.5
t53.5 42t58.5 19t61.5 3.5q71 0 170.5 -33.5t126.5 -33.5t27 35v30h250v-38q0 -56 -8 -101.5t-20.5 -75t-32 -51.5t-37.5 -33.5t-42 -18t-41 -8t-39 -1.5q-64 0 -168.5 31.5t-123.5 31.5q-31 0 -31 -30v-21z" />
    <glyph glyph-name="uni2007" unicode="&#x2007;" horiz-adv-x="1359" 
 />
    <glyph glyph-name="uni2010" unicode="&#x2010;" horiz-adv-x="776" 
d="M63 729h650v-377h-650v377z" />
    <glyph glyph-name="figuredash" unicode="&#x2012;" horiz-adv-x="1359" 
d="M240 872h880v-376h-880v376z" />
    <glyph glyph-name="endash" unicode="&#x2013;" horiz-adv-x="946" 
d="M63 729h820v-377h-820v377z" />
    <glyph glyph-name="emdash" unicode="&#x2014;" horiz-adv-x="1660" 
d="M63 729h1534v-377h-1534v377z" />
    <glyph glyph-name="uni2015" unicode="&#x2015;" horiz-adv-x="1660" 
d="M63 729h1534v-377h-1534v377z" />
    <glyph glyph-name="quoteleft" unicode="&#x2018;" horiz-adv-x="628" 
d="M229 1466h326q-66 -313 -66 -641h-428q6 157 52.5 338t115.5 303z" />
    <glyph glyph-name="quoteright" unicode="&#x2019;" horiz-adv-x="628" 
d="M399 825h-325q65 308 65 641h428q-10 -168 -52.5 -343t-115.5 -298z" />
    <glyph glyph-name="quotesinglbase" unicode="&#x201a;" horiz-adv-x="649" 
d="M379 -172h-305q65 308 65 641h428q-7 -166 -55 -341.5t-133 -299.5z" />
    <glyph glyph-name="quotedblleft" unicode="&#x201c;" horiz-adv-x="1052" 
d="M684 1466h295q-66 -313 -66 -641h-387q6 154 49.5 331.5t108.5 309.5zM219 1466h295q-65 -308 -65 -641h-388q6 154 49.5 331.5t108.5 309.5z" />
    <glyph glyph-name="quotedblright" unicode="&#x201d;" horiz-adv-x="1052" 
d="M369 825h-295q65 308 65 641h387q-6 -155 -49 -332t-108 -309zM834 825h-295q65 308 65 641h387q-6 -156 -48.5 -333.5t-108.5 -307.5z" />
    <glyph glyph-name="quotedblbase" unicode="&#x201e;" horiz-adv-x="1052" 
d="M348 -166h-274q65 308 65 641h387q-6 -163 -52.5 -338.5t-125.5 -302.5zM813 -166h-274q65 308 65 641h387q-6 -164 -52 -339.5t-126 -301.5z" />
    <glyph glyph-name="dagger" unicode="&#x2020;" horiz-adv-x="1001" 
d="M307 1309h363l-19 -351l291 19v-324l-291 23l19 -807h-363l25 807l-293 -23v324l293 -19z" />
    <glyph glyph-name="daggerdbl" unicode="&#x2021;" horiz-adv-x="1001" 
d="M332 467v246l-293 -23v328l293 -25l-25 316h363l-19 -316l291 25v-328l-291 23v-246l291 18v-315l-291 12l19 -313h-363l25 313l-293 -12v315z" />
    <glyph glyph-name="bullet" unicode="&#x2022;" horiz-adv-x="849" 
d="M92 850h666v-664h-666v664z" />
    <glyph glyph-name="ellipsis" unicode="&#x2026;" horiz-adv-x="2015" 
d="M561 2h-498v528h498v-528zM1237 2h-498v528h498v-528zM1913 2h-498v528h498v-528z" />
    <glyph glyph-name="perthousand" unicode="&#x2030;" horiz-adv-x="2859" 
d="M2388 784q203 0 306.5 -109.5t103.5 -291.5q0 -177 -107.5 -289t-304.5 -112q-213 0 -320.5 107t-107.5 294q0 84 25 154.5t75 127t134.5 88t195.5 31.5zM2388 569q-38 0 -58 -40t-20 -146q0 -102 17.5 -147.5t56.5 -45.5q38 0 57 42.5t19 150.5q0 76 -10 119t-24.5 55
t-37.5 12zM492 1382q203 0 306 -109.5t103 -291.5q0 -177 -107.5 -289t-304.5 -112q-213 0 -320.5 107t-107.5 294q0 84 25 154.5t75.5 127t135 88t195.5 31.5zM492 1167q-38 0 -58 -40t-20 -146q0 -102 17.5 -147.5t55.5 -45.5t57 42.5t19 150.5q0 76 -10 118.5t-24 55
t-37 12.5zM586 0h-185l961 1356h186zM1481 784q203 0 306 -109.5t103 -291.5q0 -177 -107 -289t-304 -112q-213 0 -320.5 107t-107.5 294q0 84 25 154.5t75 127t134.5 88t195.5 31.5zM1481 569q-38 0 -58 -40t-20 -146q0 -102 17.5 -147.5t56.5 -45.5q38 0 56.5 42.5
t18.5 150.5q0 76 -10 118.5t-24 55t-37 12.5z" />
    <glyph glyph-name="uni2032" unicode="&#x2032;" horiz-adv-x="724" 
d="M449 727h-347l93 739h428z" />
    <glyph glyph-name="uni2033" unicode="&#x2033;" horiz-adv-x="1183" 
d="M412 727h-310l91 746h395zM903 727h-305l88 746h395z" />
    <glyph glyph-name="guilsinglleft" unicode="&#x2039;" horiz-adv-x="784" 
d="M733 958l-317 -417l315 -414h-352l-328 414l328 417h354z" />
    <glyph glyph-name="guilsinglright" unicode="&#x203a;" horiz-adv-x="784" 
d="M51 127l318 418l-316 413h353l327 -413l-327 -418h-355z" />
    <glyph glyph-name="fraction" unicode="&#x2044;" horiz-adv-x="395" 
d="M-82 0h-248l811 1356h244z" />
    <glyph glyph-name="zero.sups" unicode="&#x2070;" horiz-adv-x="964" 
d="M481 1712q98 0 176.5 -25.5t128 -66.5t83 -96t47.5 -111t14 -115q0 -204 -116.5 -315.5t-334.5 -112.5q-204 -1 -324 112.5t-120 305.5q0 88 27.5 164t80.5 134.5t140 92t198 33.5zM481 1473q-29 0 -40 -37.5t-11 -141.5q0 -105 11 -144.5t42 -39.5q49 0 49 182
q0 109 -9.5 145t-41.5 36z" />
    <glyph glyph-name="four.sups" unicode="&#x2074;" horiz-adv-x="944" 
d="M801 883h-357v149h-389v258l252 408h494v-416h110l-24 -250h-86v-149zM358 1282h86v23q0 59 7 159q-18 -29 -47.5 -91.5t-45.5 -90.5z" />
    <glyph glyph-name="five.sups" unicode="&#x2075;" horiz-adv-x="917" 
d="M842 1698l-45 -238h-373l-8 -65q55 24 155 24q137 0 223.5 -67.5t86.5 -188.5q0 -130 -112.5 -211.5t-297.5 -81.5q-115 0 -201 25t-134 67t-71.5 88.5t-27.5 98.5h340q3 -24 17 -36.5t32 -12.5q22 0 34.5 17.5t12.5 41.5q0 70 -49 70q-37 0 -51 -31l-330 23
q56 233 86 477h713z" />
    <glyph glyph-name="six.sups" unicode="&#x2076;" horiz-adv-x="948" 
d="M889 1448h-357q-9 41 -49 41q-60 0 -57 -96q69 32 176 32q137 0 228 -70.5t88 -189.5q-3 -130 -112.5 -212.5t-316.5 -82.5q-119 0 -208 32t-142 90t-78.5 133t-25.5 167q0 56 11.5 109.5t42 111.5t78.5 100.5t128 70.5t182 28q90 0 162.5 -19t116 -47t74 -65.5
t43.5 -69.5t16 -63zM477 1092q27 0 43.5 19.5t16.5 57.5q0 80 -60 80q-57 0 -57 -75q0 -35 13.5 -58.5t43.5 -23.5z" />
    <glyph glyph-name="seven.sups" unicode="&#x2077;" horiz-adv-x="841" 
d="M39 1698h756v-266q-79 -88 -155 -242t-110 -307h-430q29 137 116.5 283t172.5 241h-350v291z" />
    <glyph glyph-name="eight.sups" unicode="&#x2078;" horiz-adv-x="940" 
d="M467 870q-209 0 -321.5 68.5t-112.5 187.5q0 118 143 172q-62 34 -84 77t-22 100q0 100 102 168.5t305 68.5q105 0 185 -22t124.5 -57.5t66 -75t21.5 -80.5q0 -64 -29.5 -101.5t-90.5 -60.5q65 -21 109 -68.5t44 -118.5q0 -129 -113 -193.5t-327 -64.5zM479 1077
q27 0 42.5 16.5t15.5 39.5q0 71 -62 71q-24 0 -39.5 -15.5t-15.5 -45.5q0 -66 59 -66zM469 1501q-25 0 -41 -15t-16 -42q0 -29 16 -45.5t43 -16.5q24 0 40.5 14.5t16.5 43.5q0 28 -15.5 44.5t-43.5 16.5z" />
    <glyph glyph-name="nine.sups" unicode="&#x2079;" horiz-adv-x="946" 
d="M43 1137h371q15 -43 51 -43q61 0 59 98q-17 -14 -56.5 -22t-63 -9.5t-39.5 -1.5q-147 0 -239.5 62t-92.5 188q0 58 25 111t75 96.5t134 69.5t192 26q215 0 333.5 -110.5t118.5 -298.5q0 -433 -452 -433q-185 0 -291 75.5t-125 191.5zM471 1491q-25 0 -41 -20t-16 -58
q0 -78 63 -78q22 0 37.5 19t15.5 55q0 82 -59 82z" />
    <glyph glyph-name="parenleft.sups" unicode="&#x207d;" horiz-adv-x="591" 
d="M252 1765h283q-34 -62 -52.5 -99.5t-43 -103.5t-35.5 -141t-11 -164q0 -168 38 -283.5t104 -221.5h-283q-64 64 -117 199t-53 306q0 295 170 508z" />
    <glyph glyph-name="parenright.sups" unicode="&#x207e;" horiz-adv-x="591" 
d="M340 752h-283q34 62 52.5 99.5t43 103.5t35.5 141t11 164q0 168 -38 283.5t-104 221.5h283q64 -64 117 -199t53 -306q0 -295 -170 -508z" />
    <glyph glyph-name="n.sups" unicode="&#x207f;" horiz-adv-x="942" 
d="M61 541v471q0 49 -1 128t-1 87h359q6 -18 6 -64q84 74 209 74q126 0 188 -75.5t62 -205.5v-415h-367v397q0 55 -41 55q-49 0 -49 -65v-387h-365z" />
    <glyph glyph-name="zero.subs" unicode="&#x2080;" horiz-adv-x="964" 
d="M481 481q98 0 176.5 -25.5t128 -66.5t83 -95.5t47.5 -110.5t14 -115q0 -204 -116.5 -315.5t-334.5 -112.5q-204 -1 -324 112.5t-120 304.5q0 88 27.5 164t80.5 134.5t140 92t198 33.5zM481 242q-29 0 -40 -37.5t-11 -141.5q0 -105 11 -144.5t42 -39.5q49 0 49 182
q0 109 -9.5 145t-41.5 36z" />
    <glyph glyph-name="one.subs" unicode="&#x2081;" horiz-adv-x="641" 
d="M551 -346h-397v465q-61 5 -103 18v236q81 3 146 30t102 64h252v-813z" />
    <glyph glyph-name="two.subs" unicode="&#x2082;" horiz-adv-x="899" 
d="M827 -346h-764v29q0 131 53.5 223t186.5 166q115 64 132 78q24 20 24 45q0 17 -2 28t-11.5 21t-27.5 10q-27 0 -36.5 -18.5t-14.5 -61.5h-326q6 62 28 113t66.5 96.5t123 71.5t185.5 26q91 0 162.5 -17.5t115.5 -45.5t73 -65t40 -72.5t11 -71.5q0 -88 -38 -136.5
t-159 -105.5q-71 -32 -88 -53h313z" />
    <glyph glyph-name="three.subs" unicode="&#x2083;" horiz-adv-x="897" 
d="M330 -23v189h78q59 0 59 39q0 47 -47 47q-28 0 -39 -12t-14 -37h-320q3 39 15 74.5t41 73.5t72 66t114 46t162 18q182 0 284.5 -65.5t102.5 -182.5q0 -110 -121 -151q18 -4 41 -15t49.5 -31.5t44.5 -56t18 -79.5q0 -37 -10 -70.5t-39 -69t-74.5 -60.5t-122.5 -41.5
t-178 -16.5q-99 0 -176 21t-121 52t-72.5 72t-38.5 74.5t-11 66.5h342q3 -27 17.5 -44t37.5 -17q51 0 51 53q0 57 -78 57h-67z" />
    <glyph glyph-name="four.subs" unicode="&#x2084;" horiz-adv-x="944" 
d="M801 -348h-357v149h-389v258l252 408h494v-416h110l-24 -250h-86v-149zM358 51h86v23q0 59 7 159q-18 -29 -47.5 -91.5t-45.5 -90.5z" />
    <glyph glyph-name="five.subs" unicode="&#x2085;" horiz-adv-x="917" 
d="M842 467l-45 -238h-373l-8 -65q55 24 155 24q137 0 223.5 -67.5t86.5 -188.5q0 -130 -112.5 -211t-297.5 -81q-115 0 -201 24.5t-134 66.5t-71.5 88.5t-27.5 98.5h340q3 -24 17 -36.5t32 -12.5q22 0 34.5 17.5t12.5 41.5q0 70 -49 70q-37 0 -51 -31l-330 23
q56 233 86 477h713z" />
    <glyph glyph-name="six.subs" unicode="&#x2086;" horiz-adv-x="948" 
d="M889 217h-357q-9 41 -49 41q-60 0 -57 -96q71 33 176 33q137 0 228 -71t88 -190q-3 -130 -112.5 -212t-316.5 -82q-232 0 -343 115t-111 306q0 56 11.5 109.5t42 111.5t78.5 100.5t128 70.5t182 28q90 0 162.5 -19t116 -47t74 -65.5t43.5 -69.5t16 -63zM477 -139
q27 0 43.5 20t16.5 58q0 79 -60 79q-57 0 -57 -75q0 -35 13.5 -58.5t43.5 -23.5z" />
    <glyph glyph-name="seven.subs" unicode="&#x2087;" horiz-adv-x="841" 
d="M39 467h756v-266q-79 -88 -155 -242t-110 -307h-430q29 137 116.5 283t172.5 241h-350v291z" />
    <glyph glyph-name="eight.subs" unicode="&#x2088;" horiz-adv-x="940" 
d="M467 -360q-209 0 -321.5 68.5t-112.5 187.5q0 118 143 172q-62 34 -84 76.5t-22 99.5q0 100 102 168.5t305 68.5q105 0 185 -22t124.5 -57.5t66 -75t21.5 -80.5q0 -64 -29.5 -101.5t-90.5 -60.5q65 -21 109 -68t44 -118q0 -129 -113 -193.5t-327 -64.5zM479 -154
q27 0 42.5 16.5t15.5 39.5q0 71 -62 71q-24 0 -39.5 -15.5t-15.5 -45.5q0 -66 59 -66zM469 270q-25 0 -41 -15t-16 -42q0 -29 16 -45t43 -16q24 0 40.5 14t16.5 43q0 28 -15.5 44.5t-43.5 16.5z" />
    <glyph glyph-name="nine.subs" unicode="&#x2089;" horiz-adv-x="946" 
d="M43 -94h371q15 -43 51 -43q61 0 59 98q-17 -14 -56.5 -22t-63 -9.5t-39.5 -1.5q-147 0 -239.5 62t-92.5 188q0 58 25 111t75 96.5t134 69.5t192 26q215 0 333.5 -110.5t118.5 -298.5q0 -432 -452 -432q-185 0 -291 75.5t-125 190.5zM471 260q-25 0 -41 -20t-16 -58
q0 -78 63 -78q22 0 37.5 19t15.5 55q0 82 -59 82z" />
    <glyph glyph-name="parenleft.subs" unicode="&#x208d;" horiz-adv-x="591" 
d="M252 535h283q-34 -62 -52.5 -99.5t-43 -103.5t-35.5 -141t-11 -164q0 -168 38 -284t104 -222h-283q-64 64 -117 199.5t-53 306.5q0 295 170 508z" />
    <glyph glyph-name="parenright.subs" unicode="&#x208e;" horiz-adv-x="591" 
d="M340 -479h-283q34 62 52.5 99.5t43 103.5t35.5 141t11 164q0 168 -38 284t-104 222h283q64 -64 117 -199.5t53 -306.5q0 -295 -170 -508z" />
    <glyph glyph-name="colonmonetary" unicode="&#x20a1;" horiz-adv-x="1372" 
d="M612 682q0 -221 22.5 -303t88.5 -82q49 0 69.5 35.5t28.5 116.5h475q-24 -157 -109 -265.5t-231 -158.5v-195h-206v158q-16 -2 -54 -2h-24v-156h-209v190q-190 62 -292.5 226.5t-102.5 410.5q0 258 99 429.5t296 238.5v148h209v-111q18 2 57 2h21v109h206v-142
q84 -26 149 -72.5t104.5 -105t61 -120.5t27.5 -128h-464q-18 137 -105 137q-42 0 -66.5 -31t-37.5 -110.5t-13 -218.5z" />
    <glyph glyph-name="franc" unicode="&#x20a3;" horiz-adv-x="1280" 
d="M154 0v156h-121v225h121v975h1060v-359h-532v-151h502v-344h-502v-121h190v-225h-190v-156h-528z" />
    <glyph glyph-name="lira" unicode="&#x20a4;" horiz-adv-x="1282" 
d="M1225 0h-1166v307q60 23 93 61.5t43 104.5h-136v166h136q-1 11 -3.5 30.5t-3.5 26.5h-129v168h113q-2 16 -2 49q0 216 135.5 342.5t392.5 126.5q113 0 203.5 -23.5t150 -63t100 -94.5t59 -114t22.5 -126h-424q-7 53 -22 80.5t-48 27.5q-24 0 -37.5 -20t-13.5 -56
q0 -39 8 -129h265v-168h-250v-2v-55h250v-166h-279q-21 -70 -66 -115h664z" />
    <glyph glyph-name="uni20A6" unicode="&#x20a6;" horiz-adv-x="1384" 
d="M518 958q1 -9 2 -29.5t2 -31.5h33l-6 61h-31zM827 449h33q0 9 -1 29t-1 30h-35zM532 0h-370v508h-103v164h103v59h-103v166h103v459h598l35 -459h49q-4 226 -4 285v174h370v-459h113v-166h-113v-59h113v-164h-113v-508h-575l-45 508h-60q2 -117 2 -330v-178zM850 672
q0 39 -2 59h-41l4 -59h39zM575 672l-6 59h-41v-59h47z" />
    <glyph glyph-name="peseta" unicode="&#x20a7;" horiz-adv-x="1384" 
d="M139 0v764h-133v190h133v402h584q140 0 255.5 -45t195 -137t100.5 -220h88v-190h-88q-30 -198 -171.5 -301t-365.5 -103h-96v-360h-502zM641 1075v-121h156q-9 68 -36.5 94.5t-84.5 26.5h-35zM641 647h29q58 0 87 27.5t38 89.5h-154v-117z" />
    <glyph glyph-name="dong" unicode="&#x20ab;" horiz-adv-x="1361" 
d="M121 -113h1106v-233h-1106v233zM713 1362h506v-107h96v-229h-96v-707q0 -266 4 -319h-480q-14 35 -18 76q-86 -86 -246 -86q-198 0 -309 127t-111 340q0 113 35.5 202.5t98 146.5t145 86.5t178.5 29.5q140 0 197 -41v145h-297v229h297v107zM580 471q0 -37 2 -60
t8.5 -46.5t21.5 -34.5t39 -11q40 0 57 33t17 105q0 85 -16.5 120t-59.5 35q-69 0 -69 -141z" />
    <glyph glyph-name="Euro" unicode="&#x20ac;" horiz-adv-x="1355" 
d="M866 410h447q-22 -99 -61.5 -176t-104.5 -138.5t-165 -94t-230 -32.5q-505 0 -582 523h-104v163h90v35v25h-90v168h104q41 242 188.5 371.5t401.5 129.5q117 0 211 -28t151 -70.5t97 -98.5t56.5 -107t20.5 -101h-438q-15 92 -78 92q-40 0 -61 -37.5t-29 -150.5h277v-168
h-283v-43v-17h283v-163h-279q7 -113 28.5 -158t63.5 -45q18 0 32 7.5t22 16.5t15 29t9.5 31.5t7.5 36.5z" />
    <glyph glyph-name="uni20B1" unicode="&#x20b1;" horiz-adv-x="1390" 
d="M139 0v684h-88v137h88v47h-88v140h88v348h555q237 0 379.5 -90.5t186.5 -257.5h86v-140h-68v-18v-29h68v-137h-84q-84 -360 -562 -360h-67v-324h-494zM633 1092v-84h166q-10 45 -34 64.5t-67 19.5h-65zM811 840v0v0v0v0v1v0v1v0v1v0v1v1v1v1v1v1v1v1v1v1v1v1v1v1v1v1v9
h-178v-47h178v19zM633 594h59q49 0 74.5 21t34.5 69h-168v-90z" />
    <glyph glyph-name="uni20B2" unicode="&#x20b2;" horiz-adv-x="1384" 
d="M1303 940h-459q-6 63 -31.5 95t-77.5 32q-75 0 -102 -89t-27 -308q0 -53 1 -90.5t3.5 -77.5t8 -66.5t14 -51.5t21 -39.5t30.5 -23t41 -8.5q36 0 63 9v403h496v-639q-229 -74 -420 -94v-142h-286v144q-176 23 -293.5 115.5t-170.5 233t-53 325.5q0 135 26.5 244.5
t72.5 185.5t112.5 130t141.5 83.5t164 42.5v114h286v-114q194 -29 313 -135t126 -279z" />
    <glyph glyph-name="uni20B4" unicode="&#x20b4;" horiz-adv-x="1335" 
d="M569 985h-469q3 49 20.5 99.5t59 105.5t102.5 97t160 69.5t222 27.5q263 0 417 -116.5t154 -290.5q0 -64 -10 -103h61v-151h-166q-63 -49 -78 -59h218v-148h-461q-83 -54 -115.5 -93t-32.5 -75q0 -61 54 -61q61 0 73 96h479q-48 -414 -600 -414q-85 0 -165 15.5t-152 48
t-125.5 80t-85 115.5t-31.5 149q0 80 23 139h-53v148h172q60 43 86 59h-228v151h498q106 59 106 130q0 69 -65 69q-35 0 -50 -23t-18 -65z" />
    <glyph glyph-name="uni20B5" unicode="&#x20b5;" horiz-adv-x="1355" 
d="M612 682q0 -205 24 -292t87 -87q46 0 67.5 34.5t30.5 92.5h475q-22 -175 -133 -287t-305 -145v-148h-287v146q-239 37 -371 211t-132 450q0 298 126 476t377 219v116h287v-114q110 -17 196 -63t137 -109t77.5 -131.5t29.5 -139.5h-464q-20 125 -101 125
q-42 0 -67.5 -31.5t-39.5 -110.5t-14 -212z" />
    <glyph glyph-name="uni20B9" unicode="&#x20b9;" horiz-adv-x="1320" 
d="M1233 811h-193q-38 -190 -233 -285l395 -526h-559l-313 440h-238v305h221q115 0 168 66h-389v217h397q-50 76 -174 76h-223v250h1141v-217h-242q30 -54 43 -109h199v-217z" />
    <glyph glyph-name="uni20BA" unicode="&#x20ba;" horiz-adv-x="1380" 
d="M612 0h-428v426l-141 -53v245l141 54v84l-141 -54v246l141 53v355h535v-150l182 70v-246l-182 -69v-84l182 69v-246l-182 -69v-262q38 0 69.5 14t52.5 37.5t37 56t24 66.5t11 71h404q-2 -40 -7.5 -77.5t-24 -102.5t-46.5 -119t-82.5 -115t-125 -103t-179 -69.5
t-240.5 -27.5z" />
    <glyph glyph-name="uni20BD" unicode="&#x20bd;" horiz-adv-x="1456" 
d="M162 0v205h-117v229h117v96h-117v265h117v561h698q238 0 382 -111t144 -297q0 -202 -132 -310t-394 -108h-186v-96h252v-229h-252v-205h-512zM674 1073v-278h82q59 0 87.5 38t28.5 103q0 137 -124 137h-74z" />
    <glyph glyph-name="uni2113" unicode="&#x2113;" horiz-adv-x="1247" 
d="M825 463h398q-8 -121 -40 -208.5t-96.5 -150.5t-166.5 -93.5t-246 -30.5q-97 0 -173.5 17.5t-124 43.5t-83.5 65t-53.5 72t-32.5 76l-6 18q-13 -4 -59 -22.5t-64 -22.5l-4 346q44 22 98 54v305q0 136 41.5 240t115 167.5t167.5 95t206 31.5q216 0 336.5 -110t120.5 -305
q0 -172 -111.5 -311.5t-347.5 -258.5v-59q0 -56 12.5 -79.5t43.5 -23.5q45 0 58 49q6 22 11 95zM700 1071v-168q29 20 58.5 70t29.5 110q0 76 -40 76q-9 0 -16 -2.5t-15 -10.5t-12.5 -27t-4.5 -48z" />
    <glyph glyph-name="uni2116" unicode="&#x2116;" horiz-adv-x="2363" 
d="M578 0h-461v1356h651q96 -493 133 -748h19q-23 309 -23 621v127h465v-1356h-625q-37 174 -100 498t-66 340h-16q23 -266 23 -707v-131zM1794 881q0 -82 16.5 -120t53.5 -38t54 37t17 121q0 88 -18 120.5t-53 32.5q-70 0 -70 -153zM1491 395h747v-209h-747v209zM1866 1284
q118 0 214 -45t156 -138t60 -220q0 -187 -114 -296.5t-318 -109.5q-196 0 -317.5 105.5t-121.5 300.5q0 187 123 295t318 108z" />
    <glyph glyph-name="uni2117" unicode="&#x2117;" horiz-adv-x="1634" 
d="M506 360v715h399q123 0 212 -68t89 -190q0 -125 -88.5 -193.5t-222.5 -68.5h-96v-195h-293zM797 874v-122h51q32 0 52 15t20 44q0 63 -70 63h-53zM821 1448q201 0 366.5 -89.5t265 -260t99.5 -391.5q0 -169 -58 -309.5t-157.5 -234t-232.5 -145t-283 -51.5
q-156 0 -290.5 50.5t-234.5 143t-157 233.5t-57 313q0 217 98.5 387.5t266.5 262t374 91.5zM817 1280q-159 0 -283.5 -67t-197 -196.5t-72.5 -301.5q0 -254 156.5 -413t396.5 -159q118 0 217.5 35t175 102.5t118 176.5t42.5 248q0 132 -43.5 241.5t-118.5 181.5t-176 112
t-215 40z" />
    <glyph glyph-name="uni2120" unicode="&#x2120;" horiz-adv-x="1038" 
d="M1040 985h-172v94q1 27 13 232h-9l-59 -324h-149l-46 324h-8q4 -34 6 -168l2 -158h-167v428h286l17 -178l18 178h268v-428zM-16 1128h182q6 -36 39 -36q24 0 24 16q0 13 -14.5 19.5t-48.5 13.5q-99 20 -139.5 54t-40.5 91q0 73 54.5 109.5t152.5 36.5q184 0 204 -144
h-170q-7 31 -37 31q-26 0 -26 -16q0 -15 45 -23q64 -12 106 -29.5t61.5 -39.5t26.5 -41.5t7 -45.5q0 -67 -55 -109t-158 -42q-92 0 -149.5 40.5t-63.5 114.5z" />
    <glyph glyph-name="trademark" unicode="&#x2122;" horiz-adv-x="1048" 
d="M1051 983h-174v61q0 44 14 265h-8l-58 -322h-153l-41 322h-10q0 -5 3 -69t3 -138v-119h-166v430h282l19 -178h6l18 178h265v-430zM-2 1413h424v-147h-121v-283h-186v283h-117v147z" />
    <glyph glyph-name="uni2126" unicode="&#x2126;" horiz-adv-x="1677" 
d="M844 1444q179 0 326.5 -50t242.5 -134.5t147 -192t52 -225.5q0 -57 -10 -108t-23.5 -89t-39.5 -76.5t-47.5 -63.5t-57.5 -55.5t-58.5 -47t-62.5 -44.5h301v-358h-742v422q81 46 112.5 140.5t31.5 228.5q0 49 -4 88t-15.5 79.5t-30.5 67.5t-51.5 44t-76.5 17
q-52 0 -89 -27.5t-55.5 -75t-26.5 -98t-8 -108.5q0 -271 138 -356v-422h-734v358h275q-140 101 -204 212t-64 266q0 122 48.5 230t141.5 193t244 135t340 50z" />
    <glyph glyph-name="estimated" unicode="&#x212e;" horiz-adv-x="1714" 
d="M1628 662h-1075q-8 0 -8 -9v-383q0 -26 16 -45q45 -52 119 -90.5t178 -38.5q125 0 201 36t141 120h299q-112 -128 -281.5 -202.5t-361.5 -74.5q-165 0 -309.5 56t-245.5 151t-159 224.5t-58 273.5q0 193 102.5 354.5t284 255.5t401.5 94q165 0 307 -55t240 -150
t153.5 -224.5t55.5 -274.5v-18zM1167 793v315q0 27 -18 45q-95 109 -291 109q-185 0 -295 -115q-18 -18 -18 -45v-309q0 -11 8 -11h606q8 0 8 11z" />
    <glyph glyph-name="onethird" unicode="&#x2153;" horiz-adv-x="1943" 
d="M580 0h-248l811 1356h243zM563 543h-397v465q-61 5 -103 18v236q81 3 146 30t102 64h252v-813zM1354 319v189h78q59 0 59 39q0 47 -47 47q-28 0 -39 -12t-14 -37h-320q3 39 15 74.5t41 73.5t72 66t114 46t162 18q182 0 284.5 -65.5t102.5 -182.5q0 -110 -121 -151
q18 -4 41 -15t49.5 -31.5t44.5 -56t18 -79.5q0 -37 -10 -70.5t-39 -69t-74.5 -60.5t-122.5 -41.5t-178 -16.5q-99 0 -176 21t-121 52t-72.5 72t-38.5 74.5t-11 66.5h342q3 -27 17.5 -44t37.5 -17q51 0 51 53q0 57 -78 57h-67z" />
    <glyph glyph-name="twothirds" unicode="&#x2154;" horiz-adv-x="2193" 
d="M838 0h-248l811 1356h244zM827 543h-764v28q0 131 53.5 223.5t186.5 166.5q116 64 132 77q24 19 24 45q0 18 -2 28.5t-11.5 21t-27.5 10.5q-27 0 -36.5 -18.5t-14.5 -61.5h-326q6 62 28 113t66.5 96.5t123 71.5t185.5 26q91 0 162.5 -17.5t115.5 -45.5t73 -65t40 -72.5
t11 -71.5q0 -88 -38 -136.5t-159 -105.5q-71 -32 -88 -53h313zM1620 319v189h78q59 0 59 39q0 47 -47 47q-28 0 -39 -12t-14 -37h-320q3 39 15 74.5t41 73.5t72 66t114 46t162 18q182 0 284.5 -65.5t102.5 -182.5q0 -110 -121 -151q18 -4 41 -15t50 -31.5t45 -56t18 -79.5
q0 -37 -10 -70.5t-39 -69t-74.5 -60.5t-122.5 -41.5t-178 -16.5q-99 0 -176.5 21t-121 52t-72.5 72t-39 74.5t-11 66.5h342q3 -27 17.5 -44t37.5 -17q51 0 51 53q0 26 -16 41.5t-61 15.5h-68z" />
    <glyph glyph-name="oneeighth" unicode="&#x215b;" horiz-adv-x="2017" 
d="M604 0h-248l811 1356h244zM575 543h-397v465q-60 4 -102 18v236q81 3 146 30t102 64h251v-813zM1534 -16q-209 0 -321.5 68.5t-112.5 187.5q0 118 143 172q-62 34 -84 76.5t-22 99.5q0 100 102 168.5t305 68.5q105 0 185 -22t124.5 -57.5t66.5 -75t22 -80.5
q0 -64 -30 -101.5t-91 -60.5q65 -21 109 -68t44 -118q0 -129 -113 -193.5t-327 -64.5zM1546 190q27 0 42.5 16.5t15.5 39.5q0 71 -62 71q-24 0 -39.5 -15.5t-15.5 -45.5q0 -66 59 -66zM1536 614q-25 0 -41 -15t-16 -42q0 -29 16 -45t43 -16q24 0 40.5 14t16.5 43
q0 28 -15.5 44.5t-43.5 16.5z" />
    <glyph glyph-name="threeeighths" unicode="&#x215c;" horiz-adv-x="2146" 
d="M784 0h-247l811 1356h243zM1673 -16q-209 0 -321.5 68.5t-112.5 187.5q0 118 143 172q-62 34 -84 76.5t-22 99.5q0 100 102 168.5t305 68.5q105 0 185 -22t124.5 -57.5t66.5 -75t22 -80.5q0 -64 -30 -101.5t-91 -60.5q65 -21 109.5 -68t44.5 -118q0 -129 -113.5 -193.5
t-327.5 -64.5zM1686 190q26 0 41.5 16.5t15.5 39.5q0 71 -62 71q-24 0 -39.5 -15.5t-15.5 -45.5q0 -36 17.5 -51t42.5 -15zM1675 614q-25 0 -41 -15t-16 -42q0 -29 16 -45t43 -16q24 0 41 14t17 43q0 28 -16 44.5t-44 16.5zM330 866v189h78q59 0 59 39q0 47 -47 47
q-28 0 -39 -12t-14 -37h-320q3 39 15 74.5t41 73.5t72 66t114 46t162 18q182 0 284.5 -65.5t102.5 -182.5q0 -110 -121 -151q18 -4 41 -15t49.5 -32t44.5 -56.5t18 -79.5q0 -37 -10 -70.5t-39 -69t-74.5 -60.5t-122.5 -41.5t-178 -16.5q-99 0 -176 21.5t-121 52.5t-72.5 72
t-38.5 74.5t-11 66.5h342q3 -27 17.5 -44t37.5 -17q51 0 51 53q0 57 -78 57h-67z" />
    <glyph glyph-name="fiveeighths" unicode="&#x215d;" horiz-adv-x="2168" 
d="M778 0h-248l811 1356h244zM862 1356l-45 -238h-373l-8 -65q55 24 156 24q137 0 223 -67.5t86 -188.5q0 -130 -112 -211.5t-297 -81.5q-93 0 -167.5 17t-122 44t-80.5 64.5t-47.5 75t-17.5 78.5h340q3 -24 17 -36.5t32 -12.5q22 0 35 18t13 41q0 31 -12.5 50.5t-37.5 19.5
q-37 0 -51 -31l-330 23q58 241 87 477h712zM1667 -43q-209 0 -321.5 68.5t-112.5 187.5q0 118 143 172q-62 34 -84 76.5t-22 99.5q0 100 102 169t305 69q105 0 185 -22t124.5 -58t66.5 -75.5t22 -80.5q0 -64 -30 -101.5t-91 -60.5q65 -21 109 -68t44 -118
q0 -129 -113 -193.5t-327 -64.5zM1679 164q27 0 42.5 16t15.5 39q0 72 -62 72q-24 0 -39.5 -16t-15.5 -46q0 -65 59 -65zM1669 588q-25 0 -41 -15.5t-16 -42.5q0 -29 16 -45t43 -16q24 0 41 14t17 43q0 28 -16 45t-44 17z" />
    <glyph glyph-name="seveneighths" unicode="&#x215e;" horiz-adv-x="2060" 
d="M633 0h-248l811 1356h244zM1559 -16q-209 0 -322 68.5t-113 187.5q0 117 144 172q-62 34 -84.5 76.5t-22.5 99.5q0 100 102.5 168.5t305.5 68.5q105 0 185 -22t124.5 -57.5t66 -75t21.5 -80.5q0 -64 -30 -101.5t-91 -60.5q65 -21 109.5 -68t44.5 -118q0 -129 -113 -193.5
t-327 -64.5zM1571 190q26 0 41.5 16.5t15.5 39.5q0 71 -61 71q-25 0 -40.5 -15.5t-15.5 -45.5q0 -36 17.5 -51t42.5 -15zM1561 614q-26 0 -42 -15t-16 -42q0 -29 16.5 -45t43.5 -16q24 0 40.5 14t16.5 43q0 28 -15.5 44.5t-43.5 16.5zM63 1356h756v-266
q-79 -88 -154.5 -241.5t-109.5 -307.5h-430q29 137 116.5 283t172.5 241h-351v291z" />
    <glyph glyph-name="uni2190" unicode="&#x2190;" horiz-adv-x="1656" 
d="M1597 492h-905l418 -451l-274 -242l-777 873v4l777 862l274 -252l-418 -436h905v-358z" />
    <glyph glyph-name="arrowup" unicode="&#x2191;" horiz-adv-x="1841" 
d="M727 -121v1002l-440 -410l-236 274l873 816h4l862 -816l-246 -274l-426 410v-1002h-391z" />
    <glyph glyph-name="uni2192" unicode="&#x2192;" horiz-adv-x="1656" 
d="M59 846h906l-418 450l274 242l776 -872v-4l-776 -863l-274 252l418 436h-906v359z" />
    <glyph glyph-name="arrowdown" unicode="&#x2193;" horiz-adv-x="1841" 
d="M1114 1561v-1002l440 410l236 -275l-872 -815h-5l-862 815l246 275l426 -410v1002h391z" />
    <glyph glyph-name="partialdiff" unicode="&#x2202;" horiz-adv-x="1355" 
d="M182 1108v326q99 18 230 18q414 0 648 -218.5t234 -596.5q0 -325 -166.5 -491t-498.5 -166q-118 0 -215.5 29t-161.5 77t-108 111.5t-63.5 129.5t-19.5 134q0 213 145.5 332.5t407.5 119.5q77 0 123 -10v4q0 16 -8.5 38t-36 53t-70 56t-119 42.5t-173.5 17.5
q-99 0 -148 -6zM664 272q84 0 84 199q0 57 -6 93t-18 53t-25 22.5t-33 5.5q-29 0 -48 -15.5t-28 -44.5t-12 -57.5t-3 -66.5q0 -88 19 -138.5t70 -50.5z" />
    <glyph glyph-name="uni2206" unicode="&#x2206;" horiz-adv-x="1482" 
d="M1440 0h-1397v299l328 1114h735l334 -1120v-293zM580 383h260l-47 254q-5 29 -19 105.5t-27.5 153.5t-23.5 140h-12q-49 -290 -74 -399z" />
    <glyph glyph-name="product" unicode="&#x220f;" horiz-adv-x="1593" 
d="M119 1413h1356v-1577h-560v1174h-239v-1174h-557v1577z" />
    <glyph glyph-name="summation" unicode="&#x2211;" horiz-adv-x="1300" 
d="M1225 -164h-1176v305l377 482l-367 446v344h1153v-377h-516l310 -391l-334 -434h608z" />
    <glyph glyph-name="minus" unicode="&#x2212;" horiz-adv-x="1263" 
d="M1174 375h-1084v330h1084v-330z" />
    <glyph glyph-name="uni2215" unicode="&#x2215;" horiz-adv-x="395" 
d="M-82 0h-248l811 1356h244z" />
    <glyph glyph-name="uni2219" unicode="&#x2219;" horiz-adv-x="624" 
d="M561 412h-498v528h498v-528z" />
    <glyph glyph-name="radical" unicode="&#x221a;" horiz-adv-x="1427" 
d="M1460 1745l-598 -2028h-215l-348 740l-168 -88l-102 221l487 270q59 -115 131 -287t90 -237l408 1409h315z" />
    <glyph glyph-name="infinity" unicode="&#x221e;" horiz-adv-x="1665" 
d="M434 166q-175 0 -281 113t-106 284q0 164 110.5 279.5t286.5 115.5q66 0 122 -15.5t103.5 -47t85 -67t81.5 -87.5q45 51 80 83.5t84.5 66.5t108.5 50.5t128 16.5q168 0 274.5 -114t106.5 -281q0 -105 -48 -195t-141 -146t-212 -56q-203 0 -383 209
q-92 -102 -182.5 -155.5t-217.5 -53.5zM457 449q55 0 99.5 25.5t92.5 82.5q-53 64 -94.5 94.5t-93.5 30.5q-56 0 -89.5 -31t-33.5 -88q0 -54 36.5 -84t82.5 -30zM1202 449q55 0 89 30t34 84q0 56 -33.5 87.5t-87.5 31.5q-92 0 -188 -119q102 -114 186 -114z" />
    <glyph glyph-name="integral" unicode="&#x222b;" horiz-adv-x="856" 
d="M852 1620l-39 -340q-51 14 -129 14q-32 0 -49.5 -14t-24 -43.5t-7.5 -75t1 -108.5q2 -43 2 -66q3 -82 9.5 -235t11 -277.5t4.5 -226.5q0 -59 -1 -101t-5.5 -96.5t-12.5 -93t-23 -83.5t-36 -76t-52 -61.5t-70.5 -48.5t-92.5 -29t-117 -11q-80 0 -148.5 15t-103.5 32
l54 344q65 -19 127 -19q18 0 29 2.5t20.5 13.5t14 25t7.5 44.5t3.5 65t0.5 93.5q0 98 -4 229.5t-11 312t-9 243.5q-3 101 5.5 183.5t36.5 163t77 134.5t131.5 87.5t193.5 33.5q131 0 207 -31z" />
    <glyph glyph-name="approxequal" unicode="&#x2248;" horiz-adv-x="1298" 
d="M393 98h-301v68q0 87 19.5 150.5t48.5 98t72 54.5t79 25.5t82 5.5q62 0 134.5 -17t126 -37.5t110 -37.5t90.5 -17q51 0 51 58v34h301v-37q0 -111 -23 -186t-66.5 -113t-92 -52.5t-113.5 -14.5q-72 0 -148.5 17t-128.5 38t-107 38t-89 17q-45 0 -45 -57v-35zM393 600h-301
v68q0 87 19.5 150.5t48.5 98t72 54.5t79 25t82 5q79 0 172 -27t170.5 -54t118.5 -27q51 0 51 57v35h301v-37q0 -111 -23 -186t-66.5 -113t-92 -52.5t-113.5 -14.5q-72 0 -148.5 17t-128.5 38t-107 38t-89 17q-45 0 -45 -57v-35z" />
    <glyph glyph-name="notequal" unicode="&#x2260;" horiz-adv-x="1263" 
d="M1042 1124l-73 -163h205v-330h-353l-80 -180h433v-326h-578l-72 -160h-278l69 160h-225v326h371l80 180h-451v330h596l72 163h284z" />
    <glyph glyph-name="lessequal" unicode="&#x2264;" horiz-adv-x="1200" 
d="M90 750v331l1010 351v-334l-588 -183l588 -170v-339zM1110 0h-1020v332h1020v-332z" />
    <glyph glyph-name="greaterequal" unicode="&#x2265;" horiz-adv-x="1200" 
d="M1100 1087v-331l-1010 -350v333l588 183l-588 170v340zM1110 0h-1020v332h1020v-332z" />
    <glyph glyph-name="uni25A0" unicode="&#x25a0;" horiz-adv-x="958" 
d="M133 195v682h692v-682h-692z" />
    </font>
</defs>
</svg>
