<?xml version="1.0" standalone="no"?>
<!DOCTYPE svg PUBLIC "-//W3C//DTD SVG 1.1//EN" "http://www.w3.org/Graphics/SVG/1.1/DTD/svg11.dtd" >
<svg xmlns="http://www.w3.org/2000/svg" xmlns:xlink="http://www.w3.org/1999/xlink" version="1.1">
<metadata>
Created by FontForge 20170731 at Mon Aug  1 15:47:02 2022
 By Aleksey,,,
(c) 2014 Adobe Systems Incorporated. All Rights Reserved.
</metadata>
<defs>
<font id="AcuminPro-ExtraLight" horiz-adv-x="819" >
  <font-face 
    font-family="Acumin Pro"
    font-weight="275"
    font-stretch="normal"
    units-per-em="2048"
    panose-1="2 11 3 4 2 2 2 2 2 4"
    ascent="1505"
    descent="-543"
    x-height="1024"
    cap-height="1434"
    bbox="-334 -537 2421 2120"
    underline-thickness="102"
    underline-position="-307"
    unicode-range="U+0020-FB02"
  />
<missing-glyph horiz-adv-x="1024" 
d="M0 0v1434h1024v-1434h-1024zM512 809l348 522h-696zM573 717l349 -522v1044zM164 102h696l-348 523zM102 1239v-1044l349 522z" />
    <glyph glyph-name="f_f" unicode="ff" horiz-adv-x="1034" 
d="M711 926h-410v-926h-106v926h-177v98h177v141q0 58 5.5 106t23 98t46.5 84t78.5 55.5t116.5 21.5q63 0 92 -14v-101q-43 15 -98 15q-84 0 -121 -58.5t-37 -189.5v-158h410v141q0 365 270 365q63 0 92 -14v-101q-43 15 -98 15q-84 0 -121 -58.5t-37 -189.5v-158h217v-98
h-217v-926h-106v926z" />
    <glyph glyph-name=".notdef" horiz-adv-x="1024" 
d="M0 0v1434h1024v-1434h-1024zM512 809l348 522h-696zM573 717l349 -522v1044zM164 102h696l-348 523zM102 1239v-1044l349 522z" />
    <glyph glyph-name=".null" horiz-adv-x="0" 
 />
    <glyph glyph-name="nonmarkingreturn" horiz-adv-x="682" 
 />
    <glyph glyph-name="space" unicode=" " horiz-adv-x="532" 
 />
    <glyph glyph-name="exclam" unicode="!" horiz-adv-x="595" 
d="M406 461h-95l-12 719v254h117v-254zM410 -2h-109v246h109v-246z" />
    <glyph glyph-name="quotedbl" unicode="&#x22;" horiz-adv-x="600" 
d="M201 989h-86l-13 357v163h111v-163zM485 989h-86l-12 357v163h111v-163z" />
    <glyph glyph-name="numbersign" unicode="#" horiz-adv-x="1155" 
d="M561 0l105 438l-306 -2l-102 -436h-96l104 436h-196v105h221l86 362h-211v103h233l93 385h94l-90 -385h305l92 385h92l-90 -385h184v-103h-209l-84 -362h199v-103h-223l-103 -438h-98zM690 541l86 362h-305l-86 -362h305z" />
    <glyph glyph-name="dollar" unicode="$" horiz-adv-x="1024" 
d="M199 1030q0 -96 56 -156t194 -100v494q-129 -8 -189.5 -74t-60.5 -164zM813 344q0 104 -57 172.5t-209 118.5v-553q266 23 266 262zM547 -205h-98v193q-173 10 -277 108.5t-119 251.5h109q22 -116 101 -185.5t186 -80.5v580q-192 55 -278.5 134.5t-86.5 223.5
q0 142 100 237t265 105v145h98v-147q94 -10 164 -44t108.5 -82t57.5 -95t24 -95h-110q-51 194 -244 220v-519q112 -33 188 -74t118 -91t59.5 -104t17.5 -124q0 -161 -99 -256.5t-284 -107.5v-193z" />
    <glyph glyph-name="percent" unicode="%" horiz-adv-x="1734" 
d="M412 1372q155 0 243 -104t88 -277q0 -108 -35.5 -193t-113 -138.5t-186.5 -53.5q-154 0 -238 106.5t-84 274.5q0 104 35.5 190t111 140.5t179.5 54.5zM410 1274q-100 0 -160 -75.5t-60 -207.5q0 -128 59.5 -207t166.5 -79q104 0 162.5 77.5t58.5 208.5q0 130 -59.5 206.5
t-167.5 76.5zM485 0h-116l907 1348h115zM1341 739q157 0 244.5 -104t87.5 -277q0 -165 -85 -273.5t-249 -111.5q-105 0 -180 53.5t-109 137.5t-34 190q0 78 20.5 146.5t59.5 122t102 85t143 31.5zM1341 641q-98 0 -159.5 -77.5t-61.5 -205.5q0 -127 59.5 -206.5t166.5 -79.5
q105 0 164 77.5t59 208.5q0 128 -60.5 205.5t-167.5 77.5z" />
    <glyph glyph-name="ampersand" unicode="&#x26;" horiz-adv-x="1474" 
d="M483 84q117 0 205 53t195 207l-381 377q-115 -75 -175.5 -135t-81 -111t-20.5 -121q0 -109 78.5 -189.5t179.5 -80.5zM1247 922h123l-356 -551l375 -371h-158l-281 276q-75 -106 -140.5 -168t-146 -95t-180.5 -33q-113 0 -200 54.5t-129.5 136.5t-42.5 173q0 132 70 229
t251 211q-100 105 -142 175.5t-42 168.5q0 63 21 120.5t60.5 104t104 74t144.5 27.5q136 0 224.5 -91.5t88.5 -225.5q0 -105 -67.5 -183.5t-223.5 -175.5l344 -340zM573 1358q-99 0 -158 -60t-59 -170q0 -64 42.5 -129.5t138.5 -158.5q146 98 194.5 156.5t48.5 140.5
q0 91 -55.5 156t-151.5 65z" />
    <glyph glyph-name="quotesingle" unicode="'" horiz-adv-x="313" 
d="M203 989h-90l-11 357v163h111v-163z" />
    <glyph glyph-name="parenleft" unicode="(" horiz-adv-x="643" 
d="M440 1511h119q-326 -425 -326 -919q0 -509 326 -940h-119q-60 77 -112.5 170t-99.5 211t-74 263.5t-27 297.5q0 148 27.5 290t74.5 257.5t99 205.5t112 164z" />
    <glyph glyph-name="parenright" unicode=")" horiz-adv-x="643" 
d="M205 -348h-121q328 423 328 919q0 510 -328 940h121q60 -79 111.5 -171.5t99 -210.5t75 -263t27.5 -297q0 -148 -28 -290.5t-75 -258t-99 -205.5t-111 -163z" />
    <glyph glyph-name="asterisk" unicode="*" horiz-adv-x="774" 
d="M328 1436h116l-22 -299l242 182l61 -107l-283 -137l281 -143l-59 -103l-244 187l26 -305h-120l24 305l-239 -187l-60 103l281 141l-283 139l62 103l237 -178z" />
    <glyph glyph-name="plus" unicode="+" horiz-adv-x="1415" 
d="M653 1128h107v-503h504v-107h-504v-518h-107v518h-501v107h501v503z" />
    <glyph glyph-name="comma" unicode="," horiz-adv-x="348" 
d="M98 -233h-96q131 263 143 497h107q-10 -125 -53.5 -264t-100.5 -233z" />
    <glyph glyph-name="hyphen" unicode="-" horiz-adv-x="761" 
d="M123 575h516v-104h-516v104z" />
    <glyph glyph-name="period" unicode="." horiz-adv-x="352" 
d="M229 0h-106v266h106v-266z" />
    <glyph glyph-name="slash" unicode="/" horiz-adv-x="892" 
d="M211 -104h-107l578 1558h106z" />
    <glyph glyph-name="zero" unicode="0" horiz-adv-x="1103" 
d="M557 1372q102 0 180 -41.5t125 -107.5t77 -158.5t41 -184.5t11 -196q0 -102 -11 -194t-41 -189t-77.5 -167t-127 -114.5t-183.5 -44.5q-102 0 -180.5 41.5t-126.5 108t-79 160.5t-42.5 188t-11.5 201q0 87 9 167t28.5 160.5t54 146t82 116.5t117.5 79.5t155 28.5z
M559 1272q-80 0 -140 -34.5t-95.5 -89.5t-57.5 -136.5t-29.5 -161.5t-7.5 -178q0 -71 5.5 -135.5t18.5 -134.5t37.5 -126t58.5 -101.5t86 -71t116 -25.5q323 0 323 606q0 86 -7 161.5t-28 156.5t-54.5 138.5t-91.5 94.5t-134 37z" />
    <glyph glyph-name="one" unicode="1" horiz-adv-x="700" 
d="M492 0h-113v1214q-50 -45 -144.5 -93t-156.5 -62v98q69 24 158 79.5t163 121.5h93v-1358z" />
    <glyph glyph-name="two" unicode="2" horiz-adv-x="1038" 
d="M952 0h-856v6q0 129 105.5 281t306.5 307q66 52 102.5 81.5t75 65.5t55.5 60t33 57t20.5 65.5t4.5 75.5q0 118 -68.5 195.5t-206.5 77.5q-136 0 -210.5 -68t-100.5 -215h-109q21 175 129 279t291 104q99 0 176 -31.5t123 -84.5t69 -116.5t23 -133.5q0 -45 -6.5 -83
t-15.5 -68t-33 -64.5t-43 -58t-64 -63.5t-76.5 -66.5t-98.5 -80.5q-156 -128 -243 -226.5t-116 -191.5h752z" />
    <glyph glyph-name="three" unicode="3" horiz-adv-x="1116" 
d="M264 1044h-106q9 65 36.5 121.5t74 104t120.5 75t166 27.5q94 0 168.5 -28.5t119.5 -76.5t68 -107.5t23 -125.5q0 -114 -56 -185.5t-133 -96.5v-4q113 -35 181.5 -123t68.5 -228q0 -87 -27.5 -162t-81 -134t-139.5 -92.5t-196 -33.5q-100 0 -181 30.5t-133 82t-83 114
t-41 132.5h110q27 -111 113 -184.5t223 -73.5q83 0 146 26.5t100 72t55.5 100.5t18.5 118q0 153 -90.5 226t-247.5 73h-80v96h63q295 0 295 246q0 106 -71.5 172t-196.5 66q-126 0 -193 -59.5t-94 -168.5z" />
    <glyph glyph-name="four" unicode="4" horiz-adv-x="1073" 
d="M834 0h-109v375h-647v104l645 869h111v-871h182l-15 -102h-167v-375zM725 477v404q0 153 4 333q-16 -28 -59 -91t-108.5 -153.5t-120.5 -166t-132.5 -181t-107.5 -145.5h524z" />
    <glyph glyph-name="five" unicode="5" horiz-adv-x="1083" 
d="M938 1348l-14 -105h-580q-24 -222 -70 -465q105 131 308 131q179 0 289 -117t110 -329q0 -101 -26.5 -188t-78.5 -155t-137.5 -106.5t-195.5 -38.5q-168 0 -280.5 94t-141.5 259h112q28 -113 108.5 -182.5t207.5 -69.5q156 0 236.5 101.5t80.5 279.5q0 75 -17 137
t-51 110.5t-91.5 75.5t-133.5 27q-131 0 -203 -50.5t-120 -154.5l-105 31q53 221 109 715h684z" />
    <glyph glyph-name="six" unicode="6" horiz-adv-x="1087" 
d="M946 1075h-112q-52 199 -263 199q-94 0 -162 -42.5t-108 -123t-60 -185.5t-22 -241q106 227 365 227q196 0 301.5 -125t105.5 -325q0 -76 -16.5 -146.5t-51 -132t-84 -107t-120.5 -72t-156 -26.5q-105 0 -185 35t-130.5 94.5t-82 148t-44 185.5t-12.5 217t15 223
t49.5 195.5t87.5 157.5t134 103t183 38q93 0 164 -28.5t111.5 -75.5t62.5 -94.5t30 -98.5zM563 76q82 0 144 32t97.5 86.5t52.5 119.5t17 139q0 67 -14.5 126.5t-47 113t-94 85t-145.5 31.5q-146 0 -238.5 -95t-92.5 -265q0 -39 8 -83t30 -97t56 -94.5t93 -70t134 -28.5z
" />
    <glyph glyph-name="seven" unicode="7" horiz-adv-x="952" 
d="M45 1348h854v-103q-184 -242 -338 -591.5t-213 -653.5h-112q50 283 207.5 644t336.5 599h-735v105z" />
    <glyph glyph-name="eight" unicode="8" horiz-adv-x="1085" 
d="M539 -25q-192 0 -315.5 111.5t-123.5 290.5q0 140 75 230.5t183 129.5q-94 40 -146 115t-52 174q0 153 102.5 249.5t292.5 96.5q174 0 275.5 -97.5t101.5 -246.5q0 -103 -53.5 -178.5t-145.5 -108.5q112 -35 182 -131.5t70 -228.5q0 -182 -124 -294t-322 -112zM543 74
q149 0 238 81t89 226q0 147 -84.5 225t-240.5 78q-164 0 -247 -84t-83 -219q0 -133 87.5 -220t240.5 -87zM549 1274q-144 0 -209.5 -66.5t-65.5 -177.5q0 -105 68.5 -174.5t210.5 -69.5q134 0 199 63.5t65 174.5q0 105 -68 177.5t-200 72.5z" />
    <glyph glyph-name="nine" unicode="9" horiz-adv-x="1067" 
d="M117 272h116q36 -99 101.5 -146.5t173.5 -47.5q63 0 114 25.5t84.5 63.5t59 97t39 110t22 119t11 108.5t4.5 92.5q-92 -190 -348 -190q-176 0 -286 119t-110 307q0 89 28.5 168.5t81 140.5t134.5 97t182 36q220 0 324 -162.5t104 -453.5q0 -776 -448 -776
q-313 0 -387 292zM516 1272q-152 0 -227.5 -94.5t-75.5 -245.5q0 -148 78 -237t213 -89q317 0 317 318q0 31 -4.5 67t-23.5 88.5t-50 93t-90 70t-137 29.5z" />
    <glyph glyph-name="colon" unicode=":" horiz-adv-x="454" 
d="M279 0h-103v268h103v-268zM279 758h-103v266h103v-266z" />
    <glyph glyph-name="semicolon" unicode=";" horiz-adv-x="454" 
d="M129 -233h-92q129 267 141 497h107q-6 -122 -53 -269.5t-103 -227.5zM279 758h-103v266h103v-266z" />
    <glyph glyph-name="less" unicode="&#x3c;" horiz-adv-x="1257" 
d="M174 520v98l909 512v-124l-788 -435l788 -452v-121z" />
    <glyph glyph-name="equal" unicode="=" horiz-adv-x="1460" 
d="M174 379h1112v-107h-1112v107zM174 879h1112v-107h-1112v107z" />
    <glyph glyph-name="greater" unicode="&#x3e;" horiz-adv-x="1257" 
d="M1083 606v-98l-909 -510v123l789 434l-789 453v122z" />
    <glyph glyph-name="question" unicode="?" horiz-adv-x="980" 
d="M543 420h-109v26q0 84 37.5 163.5t151.5 181.5q93 84 123 154t30 153q0 44 -14.5 87t-44.5 82t-83 63t-122 24q-248 0 -295 -271h-106q2 35 12 76t38 95.5t70 97t115.5 72.5t167.5 30q79 0 144 -22t107 -58t70.5 -83t41 -95t12.5 -96q0 -116 -43.5 -200t-157.5 -185
q-82 -73 -113.5 -136.5t-31.5 -144.5v-14zM543 0h-109v246h109v-246z" />
    <glyph glyph-name="at" unicode="@" horiz-adv-x="1904" 
d="M1395 -123l35 -94q-184 -137 -510 -137q-229 0 -404.5 98t-274 283.5t-98.5 433.5q0 188 61 353t171.5 287t276 192.5t364.5 70.5q207 0 374.5 -83t269 -246t101.5 -380q0 -272 -124 -434t-310 -162q-91 0 -140.5 44t-43.5 135q-54 -88 -126.5 -133.5t-176.5 -45.5
q-126 0 -206.5 92.5t-80.5 266.5q0 155 55 283.5t152 202t215 73.5q65 0 115 -18t78.5 -47.5t44 -58t22.5 -58.5l39 161h102l-127 -596q-48 -198 94 -198q135 0 219.5 133t84.5 352q0 280 -175.5 447.5t-463.5 167.5q-170 0 -311 -61t-236 -168t-147.5 -254t-53.5 -318
q-1 -203 79.5 -364t233.5 -253t353 -92q279 0 469 125zM973 877q-94 0 -165 -62.5t-106.5 -163.5t-35.5 -223q0 -129 50 -197.5t142 -68.5q114 0 192 82.5t119 267.5q40 176 -10 270.5t-186 94.5z" />
    <glyph glyph-name="A" unicode="A" horiz-adv-x="1314" 
d="M952 492h-602l-180 -492h-117l525 1434h137l547 -1434h-125zM389 598h526q-245 647 -270 725h-2q-33 -106 -254 -725z" />
    <glyph glyph-name="B" unicode="B" horiz-adv-x="1286" 
d="M201 0v1434h501q202 0 312 -97t110 -256q0 -122 -62 -204.5t-157 -108.5q34 -10 67.5 -26.5t71.5 -46.5t66.5 -67.5t47 -93.5t18.5 -120q0 -104 -37 -184.5t-101.5 -130t-147 -74.5t-179.5 -25h-510zM313 817h353q179 0 258.5 64.5t79.5 191.5q0 111 -76 182.5t-219 71.5
h-396v-510zM313 713v-609h400q150 0 247 77.5t97 226.5q0 143 -97.5 224t-304.5 81h-342z" />
    <glyph glyph-name="C" unicode="C" horiz-adv-x="1372" 
d="M1169 385h115q-55 -184 -189 -292.5t-352 -108.5q-150 0 -271 57.5t-198 157.5t-118 231.5t-41 284.5q0 117 25 225.5t77 202t125.5 163t177 109t225.5 39.5q225 0 364.5 -113t176.5 -301h-115q-53 149 -154.5 228.5t-277.5 79.5q-103 0 -188 -36.5t-142 -97
t-96.5 -142.5t-57 -171t-17.5 -184q0 -94 17.5 -182.5t57 -170.5t97.5 -142.5t145 -97t193 -36.5q85 0 153.5 21.5t118 62.5t85.5 92.5t64 120.5z" />
    <glyph glyph-name="D" unicode="D" horiz-adv-x="1458" 
d="M201 0v1434h477q297 0 481 -192.5t184 -512.5q0 -212 -82.5 -378t-235 -258.5t-351.5 -92.5h-473zM315 1327v-1221h344q110 0 202 30.5t158 85.5t112 132t68 170t22 199q0 121 -33.5 227t-99.5 191.5t-176.5 135.5t-252.5 50h-344z" />
    <glyph glyph-name="E" unicode="E" horiz-adv-x="1196" 
d="M1044 809v-107h-729v-596h799l-16 -106h-897v1434h880v-107h-766v-518h729z" />
    <glyph glyph-name="F" unicode="F" horiz-adv-x="1124" 
d="M201 0v1434h870v-107h-756v-536h709v-105h-709v-686h-114z" />
    <glyph glyph-name="G" unicode="G" horiz-adv-x="1462" 
d="M1309 756v-756h-95q-13 26 -16 227q-126 -243 -461 -243q-151 0 -270.5 55t-195.5 152.5t-116 228.5t-40 285q0 217 72.5 384t220 266t352.5 99q231 0 379 -114t182 -312h-115q-98 320 -450 320q-130 0 -230.5 -48.5t-162.5 -135.5t-93.5 -201.5t-31.5 -251.5
q0 -100 18.5 -190.5t58.5 -170t98.5 -137.5t143 -91.5t186.5 -33.5q104 0 183 27.5t130 74.5t83.5 117.5t45.5 150t13 177.5v16h-459v105h570z" />
    <glyph glyph-name="H" unicode="H" horiz-adv-x="1482" 
d="M201 0v1434h114v-623h854v623h115v-1434h-115v705h-854v-705h-114z" />
    <glyph glyph-name="I" unicode="I" horiz-adv-x="514" 
d="M201 1434h114v-1434h-114v1434z" />
    <glyph glyph-name="J" unicode="J" horiz-adv-x="706" 
d="M516 1434v-1041q0 -116 -24.5 -198.5t-71 -128.5t-104.5 -66t-134 -20q-55 0 -125 12v104q48 -10 127 -10q56 0 96.5 17.5t63.5 44t36 69t17 82.5t4 94v1041h115z" />
    <glyph glyph-name="K" unicode="K" horiz-adv-x="1259" 
d="M201 0v1434h114v-744q34 33 184 175.5t314.5 300.5t276.5 268h153l-641 -611l678 -823h-143l-619 750l-203 -181v-569h-114z" />
    <glyph glyph-name="L" unicode="L" horiz-adv-x="1116" 
d="M201 0v1434h114v-1328h768l-20 -106h-862z" />
    <glyph glyph-name="M" unicode="M" horiz-adv-x="1755" 
d="M1440 0v657q0 500 8 691h-6q-16 -56 -56 -164.5t-104.5 -271t-116 -291t-134 -333.5t-116.5 -288h-112q-429 1112 -498 1350h-6q16 -262 16 -742v-608h-114v1434h172q152 -382 303 -778t188 -513h4q25 79 197 509.5t319 781.5h170v-1434h-114z" />
    <glyph glyph-name="N" unicode="N" horiz-adv-x="1507" 
d="M315 0h-114v1434h168q762 -1176 831 -1295h2q-10 171 -10 649v646h117v-1434h-156q-120 186 -463 722.5t-381 594.5h-2q8 -149 8 -658v-659z" />
    <glyph glyph-name="O" unicode="O" horiz-adv-x="1521" 
d="M768 1454q193 0 339.5 -94.5t223 -259t76.5 -373.5q0 -119 -25 -228t-78 -204t-129 -165t-184 -110t-237 -40q-196 0 -343 99t-221.5 264.5t-74.5 373.5q0 154 43 287t123 233.5t205.5 158.5t281.5 58zM764 1348q-107 0 -195.5 -34t-149 -93t-102 -139t-60.5 -170
t-19 -189q0 -125 34 -239t98 -203t165 -142t225 -53q108 0 196 34t148 93.5t101.5 141t60 174t18.5 196.5q0 126 -33.5 237.5t-97 198t-164 137t-225.5 50.5z" />
    <glyph glyph-name="P" unicode="P" horiz-adv-x="1255" 
d="M201 0v1434h512q201 0 322.5 -106.5t121.5 -295.5q0 -192 -123 -300.5t-334 -108.5h-383v-623h-116zM317 1327v-600h392q165 0 245 80.5t80 220.5q0 142 -86 220.5t-231 78.5h-400z" />
    <glyph glyph-name="Q" unicode="Q" horiz-adv-x="1540" 
d="M768 1454q193 0 339.5 -94.5t223 -259t76.5 -373.5q0 -200 -72 -369t-209 -268l367 -264l-76 -86l-403 289q-113 -49 -260 -49q-196 0 -343 99t-221.5 264.5t-74.5 373.5q0 154 43 287t123 233.5t205.5 158.5t281.5 58zM764 1348q-107 0 -195.5 -34t-149 -93t-102 -139
t-60.5 -170t-19 -189q0 -125 34 -239t98 -203t165 -142t225 -53q108 0 196 34t148 93.5t101.5 141t60 174t18.5 196.5q0 126 -33.5 237.5t-97 198t-164 137t-225.5 50.5z" />
    <glyph glyph-name="R" unicode="R" horiz-adv-x="1288" 
d="M666 668h-349v-668h-116v1434h516q208 0 320 -102t112 -275q0 -133 -72 -221t-194 -115q117 -28 180 -115t63 -260v-55q0 -18 -0.5 -62t-0.5 -69.5t1.5 -60.5t6 -59t12.5 -40h-117q-8 18 -12.5 41t-6 57.5t-2 57.5t0 73t0.5 70v37q0 91 -15 150.5t-53.5 102t-104.5 61
t-169 18.5zM317 1327v-555h345q186 0 275 70t89 211q0 133 -85 203.5t-251 70.5h-373z" />
    <glyph glyph-name="S" unicode="S" horiz-adv-x="1204" 
d="M96 385h119q69 -301 403 -301q94 0 165 22.5t112.5 62.5t61.5 90t20 110q0 64 -16.5 110.5t-58.5 89t-118 76t-192 62.5q-234 58 -334 143t-100 237q0 73 27 137.5t79.5 116.5t139.5 82.5t198 30.5q114 0 203.5 -32.5t144 -87t84.5 -117t37 -132.5h-119q-56 263 -356 263
q-152 0 -233.5 -66t-81.5 -186q0 -116 77 -175.5t279 -107.5q117 -29 202.5 -67.5t135 -78.5t78.5 -91t38 -96t9 -103q0 -81 -30 -151t-88 -124.5t-153.5 -86t-216.5 -31.5q-104 0 -188.5 23.5t-140.5 62t-96.5 91.5t-61 108t-29.5 116z" />
    <glyph glyph-name="T" unicode="T" horiz-adv-x="1103" 
d="M494 0v1327h-482v107h1080v-107h-482v-1327h-116z" />
    <glyph glyph-name="U" unicode="U" horiz-adv-x="1447" 
d="M193 1434h118v-869q0 -110 24 -195t63.5 -137t94.5 -85.5t111.5 -46.5t120.5 -13q95 0 167 22t130 74t88.5 148t30.5 233v869h116v-863q0 -587 -536 -587q-87 0 -163.5 19t-144.5 62t-116 107.5t-76 162t-28 218.5v881z" />
    <glyph glyph-name="V" unicode="V" horiz-adv-x="1275" 
d="M696 0h-137l-530 1434h123l276 -748q176 -477 201 -575h4q27 92 207 567l286 756h121z" />
    <glyph glyph-name="W" unicode="W" horiz-adv-x="1896" 
d="M580 0h-131l-396 1434h119q300 -1079 344 -1301h2q12 59 79 297.5t154.5 545t127.5 458.5h125q324 -1201 344 -1299h2q20 90 91 332t163.5 545t126.5 422h116l-438 -1434h-131q-304 1115 -340 1284h-2q-17 -84 -76.5 -301t-161.5 -571.5t-118 -411.5z" />
    <glyph glyph-name="X" unicode="X" horiz-adv-x="1140" 
d="M1135 0h-138l-428 641h-2l-426 -641h-133l488 729l-467 705h133l407 -611h2l414 611h135l-483 -697z" />
    <glyph glyph-name="Y" unicode="Y" horiz-adv-x="1171" 
d="M635 0h-117v539q0 20 -8 32l-512 863h133q50 -85 160 -271.5t188 -319.5t105 -181q107 191 463 772h127l-533 -871q-6 -12 -6 -31v-532z" />
    <glyph glyph-name="Z" unicode="Z" horiz-adv-x="1196" 
d="M63 0v94l926 1233h-876v107h1013v-101l-919 -1227h938l-19 -106h-1063z" />
    <glyph glyph-name="bracketleft" unicode="[" horiz-adv-x="679" 
d="M596 -348h-408v1859h408v-98h-305v-1665h305v-96z" />
    <glyph glyph-name="backslash" unicode="\" horiz-adv-x="892" 
d="M682 -104l-578 1558h107l577 -1558h-106z" />
    <glyph glyph-name="bracketright" unicode="]" horiz-adv-x="679" 
d="M84 1511h408v-1859h-408v96h303v1665h-303v98z" />
    <glyph glyph-name="asciicircum" unicode="^" horiz-adv-x="958" 
d="M877 655h-109l-293 621l-285 -621h-108l346 715h107z" />
    <glyph glyph-name="underscore" unicode="_" horiz-adv-x="1089" 
d="M2 -160h1085v-104h-1085v104z" />
    <glyph glyph-name="grave" unicode="`" 
d="M90 1530h141l281 -322h-115z" />
    <glyph glyph-name="a" unicode="a" horiz-adv-x="1042" 
d="M874 725v-528q0 -115 15 -197h-103q-13 39 -18 156q-15 -32 -38.5 -60.5t-62.5 -57.5t-99.5 -46t-135.5 -17q-86 0 -153 26t-107 70.5t-60 98t-20 113.5q0 166 123.5 247.5t357.5 81.5h195v103q0 35 -5 64t-21 63t-43.5 56.5t-77 38t-115.5 15.5q-59 0 -103.5 -12.5
t-69 -29t-43.5 -46.5t-26 -49t-16 -53h-107q4 39 15 74.5t37.5 75.5t65 69.5t103 48.5t146.5 19q366 0 366 -324zM770 485v37h-201q-178 0 -271 -54.5t-93 -180.5q0 -96 63.5 -155.5t169.5 -59.5q85 0 146.5 23t96.5 58.5t55.5 92t27 111.5t6.5 128z" />
    <glyph glyph-name="b" unicode="b" horiz-adv-x="1128" 
d="M168 350v1159h106v-655q94 195 349 195q185 0 302 -140.5t117 -373.5q0 -250 -118 -405t-328 -155q-237 0 -322 185q0 -102 -4 -160h-104q2 117 2 350zM930 532q0 191 -87 304.5t-233 113.5q-182 0 -262 -113.5t-80 -326.5q0 -434 330 -434q156 0 244 120.5t88 335.5z
" />
    <glyph glyph-name="c" unicode="c" horiz-adv-x="993" 
d="M815 301h109q-39 -146 -137 -236t-261 -90q-198 0 -319 141t-121 392q0 108 29 204t83.5 172t142.5 120.5t198 44.5q76 0 139 -20.5t105.5 -53.5t73.5 -77t46.5 -88t20.5 -89h-109q-25 101 -92 165t-186 64q-159 0 -248.5 -120.5t-89.5 -317.5q0 -191 86.5 -314.5
t240.5 -123.5q109 0 179.5 56t109.5 171z" />
    <glyph glyph-name="d" unicode="d" horiz-adv-x="1128" 
d="M856 1509h107v-1214q0 -193 2 -295h-103q-6 38 -6 170q-81 -195 -344 -195q-197 0 -311.5 145.5t-114.5 379.5q0 240 123.5 394.5t329.5 154.5q73 0 131 -14t94 -38t57.5 -48t34.5 -52v612zM199 504q0 -202 90.5 -315t228.5 -113q98 0 166 32.5t106 95.5t54 143.5
t16 189.5q0 83 -8.5 144.5t-30.5 114t-58 85t-92.5 51t-133.5 18.5q-155 0 -246.5 -117.5t-91.5 -328.5z" />
    <glyph glyph-name="e" unicode="e" horiz-adv-x="1030" 
d="M946 500h-751q1 -196 91 -311t238 -115q68 0 120 17t85 48.5t51.5 60t34.5 66.5h111q-18 -56 -47.5 -103.5t-76.5 -92t-119.5 -70t-162.5 -25.5q-113 0 -199 45.5t-136 122.5t-74.5 168t-24.5 193q0 113 28 210t81.5 172.5t140 119t196.5 43.5q91 0 164 -30t119 -77.5
t77 -110t43.5 -124t12.5 -123.5q0 -57 -2 -84zM201 592h637q-2 157 -83.5 257.5t-226.5 100.5q-288 0 -327 -358z" />
    <glyph glyph-name="f" unicode="f" horiz-adv-x="518" 
d="M301 0h-106v926h-177v98h177v145q0 361 278 361q58 0 102 -14v-103q-46 12 -110 12q-88 0 -126 -63t-38 -197v-141h221v-98h-221v-926z" />
    <glyph glyph-name="g" unicode="g" horiz-adv-x="1120" 
d="M954 727v-655q0 -502 -444 -502q-97 0 -172.5 25.5t-122 70t-73 96.5t-36.5 113h109q27 -102 106.5 -154.5t192.5 -52.5q97 0 164 30t104.5 89t53.5 134t16 177v107q-42 -103 -124 -154t-218 -51q-184 0 -304 140t-120 372q0 126 34.5 228.5t94 169.5t139 103t170.5 36
q75 0 134.5 -16t97.5 -43t61 -57t35 -63q5 137 6 154h100q0 -11 -2 -125.5t-2 -171.5zM199 516q0 -183 89 -299.5t234 -116.5q181 0 256.5 110.5t75.5 321.5q0 210 -74.5 314t-251.5 104q-85 0 -149.5 -34.5t-103 -95.5t-57.5 -137.5t-19 -166.5z" />
    <glyph glyph-name="h" unicode="h" horiz-adv-x="1124" 
d="M168 1509h106v-655q105 195 336 195q48 0 92.5 -10t92 -37.5t82 -70t57 -115t22.5 -165.5v-651h-106v631q0 152 -66.5 233.5t-193.5 81.5q-153 0 -234.5 -95t-81.5 -280v-571h-106v1509z" />
    <glyph glyph-name="i" unicode="i" horiz-adv-x="440" 
d="M168 0v1024h106v-1024h-106zM274 1309h-106v200h106v-200z" />
    <glyph glyph-name="j" unicode="j" horiz-adv-x="440" 
d="M168 1024h106v-1094q0 -204 -56 -282t-195 -78q-36 0 -60 4v100q16 -2 47 -2q53 0 85 14t48 48t20.5 74t4.5 110v1106zM274 1309h-106v200h106v-200z" />
    <glyph glyph-name="k" unicode="k" horiz-adv-x="964" 
d="M274 1509v-1011q188 200 514 526h136l-404 -408l455 -616h-131l-402 549l-168 -164v-385h-106v1509h106z" />
    <glyph glyph-name="l" unicode="l" horiz-adv-x="440" 
d="M274 0h-106v1509h106v-1509z" />
    <glyph glyph-name="m" unicode="m" horiz-adv-x="1699" 
d="M168 0v760q0 184 -2 264h104q6 -107 4 -180q37 88 113.5 146.5t194.5 58.5q108 0 186.5 -52.5t108.5 -148.5q43 89 125 145t208 56q50 0 95 -11.5t87.5 -39t72.5 -69t48.5 -107t18.5 -148.5v-674h-107v662q0 56 -11 103t-36.5 89.5t-74 67t-115.5 24.5q-141 0 -213 -99
t-72 -257v-590h-106v659q0 287 -232 287q-141 0 -216 -108.5t-75 -274.5v-563h-106z" />
    <glyph glyph-name="n" unicode="n" horiz-adv-x="1124" 
d="M168 0v766q0 176 -2 258h104q3 -24 4.5 -98t-0.5 -95q15 35 32.5 63t46 58t63 50.5t85.5 33.5t111 13q72 0 132 -21t108.5 -65t76 -120t27.5 -179v-664h-106v647q0 141 -61.5 220t-190.5 79q-70 0 -125.5 -23t-92.5 -62t-61 -93.5t-34.5 -114.5t-10.5 -129v-524h-106z
" />
    <glyph glyph-name="o" unicode="o" horiz-adv-x="1085" 
d="M547 1049q204 0 328 -147t124 -388q0 -108 -30 -204.5t-86 -171.5t-145.5 -119t-200.5 -44q-206 0 -328.5 150.5t-122.5 386.5q0 150 52 270t158 193.5t251 73.5zM541 950q-166 0 -254 -122t-88 -316q0 -187 94 -312.5t252 -125.5q161 0 251.5 121t90.5 317
q0 189 -91.5 313.5t-254.5 124.5z" />
    <glyph glyph-name="p" unicode="p" horiz-adv-x="1130" 
d="M274 -410h-106v1182q0 174 -2 252h104q4 -37 4 -182q108 207 359 207q182 0 295.5 -140.5t113.5 -369.5q0 -267 -125 -415.5t-319 -148.5q-229 0 -324 175v-560zM930 535q0 184 -83.5 298.5t-232.5 114.5q-180 0 -263 -109.5t-83 -322.5q0 -106 16.5 -184t54 -137
t103 -89t158.5 -30q158 0 244 122.5t86 336.5z" />
    <glyph glyph-name="q" unicode="q" horiz-adv-x="1128" 
d="M856 -410v582q-40 -94 -122 -145.5t-226 -51.5q-182 0 -302 142t-120 383q0 129 36.5 234.5t98.5 173.5t142.5 104.5t171.5 36.5q141 0 219.5 -53.5t101.5 -123.5q0 20 1 45.5t2.5 57.5t2.5 49h103q-2 -119 -2 -285v-1149h-107zM199 506q0 -85 20.5 -161t60 -136.5
t103.5 -96.5t145 -36q93 0 158 30t103 89t54.5 137.5t16.5 185.5q0 106 -15 181t-50.5 133.5t-99.5 87t-158 28.5q-160 0 -249 -121.5t-89 -320.5z" />
    <glyph glyph-name="r" unicode="r" horiz-adv-x="667" 
d="M168 0v745q0 76 -0.5 137.5t-1 96.5t-0.5 45h104q4 -62 4 -227q44 115 137.5 180.5t219.5 71.5v-113q-163 -11 -260 -118t-97 -288v-530h-106z" />
    <glyph glyph-name="s" unicode="s" horiz-adv-x="913" 
d="M63 283h109q27 -101 99.5 -156t189.5 -55q129 0 191.5 53t62.5 143q0 62 -22 100t-82 69.5t-173 58.5q-131 31 -204.5 71.5t-100.5 89t-27 119.5q0 115 87.5 194t252.5 79q84 0 152 -24t110.5 -65.5t67.5 -91.5t31 -106h-107q-7 35 -24 66.5t-46.5 60.5t-78 46t-109.5 17
q-121 0 -174 -48.5t-53 -119.5t51.5 -111.5t198.5 -76.5q108 -26 179 -57.5t111 -71.5t56 -85t16 -106q0 -137 -102 -219t-266 -82q-172 0 -272.5 82.5t-123.5 225.5z" />
    <glyph glyph-name="t" unicode="t" horiz-adv-x="595" 
d="M14 926v98h191v319h106v-319h244v-98h-244v-662q0 -92 26.5 -136t96.5 -44q68 0 105 12v-92q-45 -18 -127 -18q-102 0 -154.5 55.5t-52.5 175.5v709h-191z" />
    <glyph glyph-name="u" unicode="u" horiz-adv-x="1103" 
d="M936 1024v-725q0 -57 1 -171.5t1 -127.5h-102q-7 47 -7 176q-34 -94 -115.5 -147.5t-211.5 -53.5q-50 0 -93 8.5t-89.5 33t-79 64t-53.5 107.5t-21 158v678h104v-651q0 -293 248 -293q168 0 239.5 98.5t71.5 319.5v526h107z" />
    <glyph glyph-name="v" unicode="v" horiz-adv-x="942" 
d="M33 1024h112q36 -101 90.5 -256t82.5 -234t61.5 -175t53 -154t30.5 -96h2q19 64 334 915h112l-387 -1024h-127z" />
    <glyph glyph-name="w" unicode="w" horiz-adv-x="1521" 
d="M61 1024h113q240 -837 254 -918h2q5 24 18 71t42.5 145t52.5 172.5t77.5 249.5t86.5 280h114q48 -161 97 -323.5t73 -242.5t46.5 -154.5t32.5 -110.5t15 -60h2q29 114 263 891h112l-323 -1024h-117q-232 758 -262 897h-2q-9 -45 -43 -159.5t-109 -356.5t-117 -381h-127z
" />
    <glyph glyph-name="x" unicode="x" horiz-adv-x="874" 
d="M29 1024h125q100 -149 188.5 -283t93.5 -141h2q283 404 297 424h121l-356 -496l362 -528h-129q-114 172 -299 444h-2q-125 -189 -297 -444h-123l361 520z" />
    <glyph glyph-name="y" unicode="y" horiz-adv-x="933" 
d="M29 1024h116q78 -222 162.5 -457.5t118 -331.5t49.5 -145h2q88 269 320 934h110l-385 -1083q-42 -117 -77 -186.5t-78.5 -112t-91.5 -57.5t-121 -15q-46 0 -95 6v107q54 -7 93 -7q55 0 92 13t68 49t54 84t54 133z" />
    <glyph glyph-name="z" unicode="z" horiz-adv-x="872" 
d="M45 0v96l645 830h-612v98h735v-100l-635 -824h658l-25 -100h-766z" />
    <glyph glyph-name="braceleft" unicode="{" horiz-adv-x="739" 
d="M57 532v101q73 0 120.5 17.5t71 53.5t32 76t8.5 99v284q0 170 89.5 259t246.5 89h30v-92h-37q-223 0 -223 -254v-282q0 -256 -184 -299q96 -27 140 -97t44 -204v-281q0 -127 64 -193.5t162 -66.5h34v-92h-30q-67 0 -125.5 19.5t-106.5 59.5t-76 109t-28 160v289
q0 46 -3.5 77.5t-17.5 65.5t-38 54.5t-68 34t-105 13.5z" />
    <glyph glyph-name="bar" unicode="|" horiz-adv-x="542" 
d="M219 1599h105v-2136h-105v2136z" />
    <glyph glyph-name="braceright" unicode="}" horiz-adv-x="739" 
d="M655 629v-101q-59 0 -101 -12.5t-67 -33t-39.5 -53.5t-19 -66.5t-4.5 -79.5v-287q0 -168 -90.5 -257t-247.5 -89h-29v92h37q223 0 223 252v285q0 255 185 299q-96 27 -140.5 97t-44.5 204v278q0 129 -63.5 195.5t-161.5 66.5h-35v92h29q68 0 126.5 -19.5t107 -59.5
t76.5 -109t28 -160v-289q0 -46 3.5 -77.5t17 -65.5t38 -54.5t68 -34t104.5 -13.5z" />
    <glyph glyph-name="asciitilde" unicode="~" horiz-adv-x="1339" 
d="M276 430h-98v49q0 125 58.5 185.5t158.5 60.5q70 0 152 -29.5t144.5 -65.5t134 -65.5t122.5 -29.5q63 0 89 36.5t26 112.5v37h98v-41q0 -72 -18 -124t-50 -79t-68.5 -39t-80.5 -12q-65 0 -145 29.5t-143 64.5t-135.5 64.5t-123.5 29.5q-121 0 -121 -149v-35z" />
    <glyph glyph-name="uni00A0" unicode="&#xa0;" horiz-adv-x="532" 
 />
    <glyph glyph-name="exclamdown" unicode="&#xa1;" horiz-adv-x="450" 
d="M143 563h93l12 -719v-254h-117v254zM137 1024h109v-246h-109v246z" />
    <glyph glyph-name="cent" unicode="&#xa2;" horiz-adv-x="1054" 
d="M856 473h109q-33 -128 -125.5 -204.5t-239.5 -86.5v-188h-98v188q-180 20 -285.5 156.5t-105.5 337.5q0 197 103 334.5t288 160.5v144h98v-139q88 -5 159 -36t113 -76t65 -91.5t28 -91.5h-109q-26 75 -87 128.5t-169 61.5v-786q99 6 160 52t96 136zM225 680
q0 -148 73 -259.5t204 -133.5v782q-137 -20 -207 -123t-70 -266z" />
    <glyph glyph-name="sterling" unicode="&#xa3;" horiz-adv-x="1017" 
d="M961 0h-889v94q91 47 132.5 166t41.5 281q0 73 -2 104h-201v100h199q-4 106 -4 183q0 206 89 323t267 117q82 0 146 -27t103.5 -73t62 -100.5t28.5 -116.5h-107q-43 217 -241 217q-131 0 -183.5 -84t-52.5 -250q0 -75 4 -189h322v-100h-320q2 -31 2 -106
q0 -297 -127 -435h748z" />
    <glyph glyph-name="currency" unicode="&#xa4;" horiz-adv-x="1071" 
d="M539 1135q149 0 258 -91l131 142l71 -74l-135 -143q72 -109 72 -256q0 -145 -72 -260l135 -144l-71 -78l-133 140q-107 -90 -258 -90q-148 0 -252 90l-129 -140l-74 78l135 140q-74 110 -74 262q0 148 76 260l-137 141l74 74l133 -142q106 88 250 91zM537 1036
q-94 0 -162 -46.5t-98.5 -118t-30.5 -158.5q0 -159 84.5 -248.5t206.5 -89.5q135 0 213.5 85.5t78.5 250.5q0 140 -73.5 232.5t-218.5 92.5z" />
    <glyph glyph-name="yen" unicode="&#xa5;" horiz-adv-x="954" 
d="M805 383h-275v-383h-110v383h-273v92h273v139h-273v88h254l-387 646h127q306 -509 338 -584h2q22 41 344 584h119l-395 -646h256v-88h-275v-139h275v-92z" />
    <glyph glyph-name="brokenbar" unicode="&#xa6;" horiz-adv-x="452" 
d="M178 367h101v-734h-101v734zM178 1411h101v-729h-101v729z" />
    <glyph glyph-name="section" unicode="&#xa7;" horiz-adv-x="1097" 
d="M922 1116h-107q-10 37 -30 70.5t-51.5 64t-82 48.5t-112.5 18q-134 0 -193 -57t-59 -152q0 -43 16 -78.5t40 -61t66.5 -50.5t81.5 -43t99 -43q14 -6 22 -9q193 -82 278 -172.5t85 -228.5q0 -175 -150 -295q82 -76 82 -215q0 -148 -105.5 -238t-287.5 -90
q-191 0 -297.5 85.5t-130.5 238.5h109q27 -103 106.5 -165t216.5 -62q140 0 208.5 60t68.5 165q0 72 -27 120t-103.5 94t-222.5 99q-106 38 -176.5 78t-110.5 87t-56.5 97.5t-16.5 116.5q0 89 50.5 168t129.5 125q-88 78 -88 207q0 134 95.5 223.5t275.5 89.5
q83 0 149.5 -21.5t106.5 -53t67.5 -73.5t39 -77.5t14.5 -69.5zM190 608q0 -48 11 -82.5t41.5 -70.5t89 -69t149.5 -67q199 -74 275 -126q47 35 76.5 95t29.5 120q0 52 -11 90t-41.5 76.5t-86 74t-141.5 72.5q-127 54 -246 117q-146 -97 -146 -230z" />
    <glyph glyph-name="dieresis" unicode="&#xa8;" 
d="M283 1311h-105v200h105v-200zM639 1311h-104v200h104v-200z" />
    <glyph glyph-name="copyright" unicode="&#xa9;" horiz-adv-x="1638" 
d="M1067 557l90 2q-29 -126 -117.5 -196t-220.5 -70q-163 0 -268 118.5t-105 305.5q0 191 106 311.5t273 120.5q146 0 232 -79.5t102 -195.5h-94q-52 187 -240 187q-128 0 -204 -89.5t-76 -254.5q0 -153 78.5 -243.5t199.5 -90.5q184 0 244 174zM813 1454q202 0 362 -94.5
t249 -261.5t89 -375q0 -213 -90 -383t-250 -265t-360 -95q-206 0 -367.5 93.5t-251.5 263t-90 386.5q0 156 54.5 292t148.5 232t225.5 151.5t280.5 55.5zM811 1360q-127 0 -237.5 -44t-192.5 -125t-129 -204.5t-47 -273.5q0 -182 79.5 -329.5t218 -229.5t308.5 -82
q261 0 430.5 180t169.5 471q0 182 -76 327t-213.5 227.5t-310.5 82.5z" />
    <glyph glyph-name="ordfeminine" unicode="&#xaa;" horiz-adv-x="688" 
d="M584 1012v-346q0 -84 4 -134h-86q-6 38 -6 109q-61 -115 -220 -115q-113 0 -171 61t-58 148q0 105 79.5 160t213.5 55h154v66q0 60 -37.5 99.5t-122.5 39.5q-75 0 -113 -31t-49 -92h-90q26 203 256 203q69 0 119 -18.5t76.5 -51.5t38.5 -70.5t12 -82.5zM496 852v20h-156
q-199 0 -199 -131q0 -60 39 -95.5t119 -35.5q101 0 149 67t48 175z" />
    <glyph glyph-name="guillemotleft" unicode="&#xab;" horiz-adv-x="1046" 
d="M561 922l-313 -392l315 -397h-119l-321 397l321 392h117zM922 922l-318 -392l320 -397h-123l-320 397l320 392h121z" />
    <glyph glyph-name="logicalnot" unicode="&#xac;" horiz-adv-x="1460" 
d="M152 809h1112v-621h-107v514h-1005v107z" />
    <glyph glyph-name="uni00AD" unicode="&#xad;" horiz-adv-x="761" 
d="M123 575h516v-104h-516v104z" />
    <glyph glyph-name="registered" unicode="&#xae;" horiz-adv-x="710" 
d="M315 948h-61v344h131q58 0 92.5 -25t34.5 -73q0 -30 -19 -52.5t-40 -29.5q49 -12 49 -90q0 -45 4 -74h-62q-8 46 -8 72q0 38 -11.5 52.5t-47.5 14.5h-62v-139zM315 1243v-104h66q65 0 65 53q0 51 -63 51h-68zM381 1454q143 0 233.5 -99.5t90.5 -240.5q0 -142 -90.5 -242
t-233.5 -100q-141 0 -235.5 97.5t-94.5 244.5q0 142 93 241t237 99zM379 1393q-124 0 -193 -83.5t-69 -195.5q0 -115 75 -196.5t189 -81.5q120 0 187 78t67 198q0 117 -71.5 199t-184.5 82z" />
    <glyph glyph-name="macron" unicode="&#xaf;" 
d="M141 1419h537v-100h-537v100z" />
    <glyph glyph-name="degree" unicode="&#xb0;" horiz-adv-x="643" 
d="M336 1411q120 0 194 -78t74 -188q0 -123 -80.5 -200t-189.5 -77q-118 0 -192 75.5t-74 191.5q0 119 76.5 197.5t191.5 78.5zM334 1329q-81 0 -125.5 -54.5t-44.5 -135.5t47 -134t123 -53q79 0 127.5 53t48.5 138q0 72 -46 129t-130 57z" />
    <glyph glyph-name="plusminus" unicode="&#xb1;" horiz-adv-x="1460" 
d="M678 1346h102v-490h506v-98h-506v-500h-102v500h-504v98h504v490zM1286 0h-1112v96h1112v-96z" />
    <glyph glyph-name="two.sups" unicode="&#xb2;" horiz-adv-x="722" 
d="M647 879h-567v8q0 199 278 373q107 68 137.5 104.5t30.5 93.5q0 73 -43.5 115.5t-122.5 42.5q-156 0 -188 -172h-92q13 122 90 190t195 68q69 0 122 -23t83 -59.5t44.5 -76.5t14.5 -79q0 -40 -11 -73t-25 -55.5t-47 -49.5t-57 -43t-75 -47q-187 -116 -221 -227h473z" />
    <glyph glyph-name="three.sups" unicode="&#xb3;" horiz-adv-x="739" 
d="M295 1268v88h72q79 0 116 34t37 91q0 56 -38 96.5t-124 40.5q-139 0 -178 -135h-90q4 30 18.5 63.5t43.5 70t83 60t125 23.5q123 0 190.5 -60.5t67.5 -156.5q0 -60 -35.5 -104.5t-82.5 -61.5q71 -22 111 -74.5t40 -122.5q0 -106 -75 -179t-218 -73q-76 0 -133 24
t-88 62.5t-46.5 73.5t-20.5 70h92q12 -61 69 -104.5t134 -43.5q92 0 139 44t47 118q0 77 -48 116.5t-132 39.5h-76z" />
    <glyph glyph-name="acute" unicode="&#xb4;" 
d="M586 1530h139l-305 -322h-115z" />
    <glyph glyph-name="uni00B5" unicode="&#xb5;" horiz-adv-x="1099" 
d="M498 -20q-156 0 -234 124q3 -67 6 -256t2 -276h-106q2 124 2 780v672h104v-649q0 -49 5.5 -88.5t21.5 -79t42 -66t70 -43t103 -16.5q145 0 228 99t83 292v551h107v-735q0 -66 2 -170t2 -119h-102q-9 61 -9 188q-41 -98 -117.5 -153t-209.5 -55z" />
    <glyph glyph-name="paragraph" unicode="&#xb6;" horiz-adv-x="1181" 
d="M922 -328h-105v627h-282q-226 0 -339.5 136.5t-113.5 371.5q0 240 119.5 369t355.5 129h262q0 66 4 106h101q-2 -39 -2 -197v-1542zM717 401h100v797h-96q-45 0 -78 -11.5t-54.5 -38.5t-34.5 -56.5t-19 -80.5t-8 -94.5t-3 -113.5v-12v-68t2 -63t5 -61.5t9.5 -53.5
t16.5 -49.5t24.5 -38.5t33.5 -31t44.5 -17.5t57.5 -7.5z" />
    <glyph glyph-name="periodcentered" unicode="&#xb7;" horiz-adv-x="352" 
d="M229 410h-106v266h106v-266z" />
    <glyph glyph-name="cedilla" unicode="&#xb8;" 
d="M389 20l90 -20l-84 -113q26 -3 51.5 -9t55.5 -20.5t52 -34.5t37 -52t15 -72q0 -55 -21.5 -94.5t-57 -59.5t-72 -28.5t-76.5 -8.5q-87 0 -148 27v100q60 -26 146 -26q123 0 123 82q0 108 -234 108v47z" />
    <glyph glyph-name="one.sups" unicode="&#xb9;" horiz-adv-x="485" 
d="M328 877h-95v694q-33 -24 -94.5 -43t-91.5 -21v80q116 24 215 115h66v-825z" />
    <glyph glyph-name="ordmasculine" unicode="&#xba;" horiz-adv-x="741" 
d="M373 1235q141 0 226 -95t85 -259q0 -172 -88 -264.5t-231 -92.5q-137 0 -222.5 98t-85.5 257q0 165 92.5 260.5t223.5 95.5zM367 1153q-103 0 -159 -73t-56 -201q0 -122 58 -197.5t157 -75.5q108 0 165.5 70t57.5 203q-3 128 -60 201t-163 73z" />
    <glyph glyph-name="guillemotright" unicode="&#xbb;" horiz-adv-x="1046" 
d="M485 133l314 391l-316 398h119l322 -398l-322 -391h-117zM125 133l319 391l-321 398h123l319 -398l-319 -391h-121z" />
    <glyph glyph-name="onequarter" unicode="&#xbc;" horiz-adv-x="1527" 
d="M322 4h-111l897 1348h109zM348 535h-94v694q-33 -24 -94.5 -43t-91.5 -21v80q116 24 215 115h65v-825zM1350 0h-90v225h-416v80l395 504h111v-500h127l-9 -84h-118v-225zM956 309h304v207q0 107 4 201q-14 -23 -69 -96t-132.5 -173t-106.5 -139z" />
    <glyph glyph-name="onehalf" unicode="&#xbd;" horiz-adv-x="1611" 
d="M313 0h-110l897 1348h108zM354 535h-94v694q-33 -24 -94.5 -43t-91.5 -21v80q116 24 215 115h65v-825zM1522 0h-568v8q0 198 279 373q107 68 137.5 105t30.5 94q0 73 -43.5 115t-122.5 42q-156 0 -188 -172h-93q13 122 90 190t195 68q69 0 122 -23t83 -59.5t44.5 -76
t14.5 -78.5q0 -40 -11 -73t-25.5 -56t-47 -49.5t-57 -43t-74.5 -47.5q-187 -116 -221 -227h473z" />
    <glyph glyph-name="threequarters" unicode="&#xbe;" horiz-adv-x="1689" 
d="M543 4h-111l897 1348h109zM1526 0h-90v225h-416v80l395 504h111v-500h127l-8 -84h-119v-225zM1133 309h303v207q0 107 4 201q-14 -24 -68.5 -96t-132.5 -173.5t-106 -138.5zM330 926v88h71q79 0 116.5 34.5t37.5 90.5t-38 96.5t-124 40.5q-139 0 -178 -135h-90
q4 30 18.5 63.5t43.5 70t83 60t125 23.5q123 0 190.5 -60.5t67.5 -156.5q0 -60 -35.5 -104.5t-82.5 -61.5q71 -22 111 -74.5t40 -122.5q0 -106 -75 -179t-218 -73q-61 0 -111 17t-80.5 41.5t-52.5 57.5t-31.5 60t-13.5 54h93q12 -61 68.5 -104.5t133.5 -43.5q92 0 139.5 44
t47.5 118q0 77 -48 116.5t-132 39.5h-76z" />
    <glyph glyph-name="questiondown" unicode="&#xbf;" horiz-adv-x="860" 
d="M39 -78q0 116 44 201t157 186q83 72 115 134.5t32 144.5v14h107v-27q0 -83 -36.5 -160t-150.5 -177q-98 -88 -130 -160t-32 -154q0 -46 17 -90.5t49.5 -82.5t86.5 -61.5t122 -23.5q130 0 203 64t98 198h96q-2 -39 -12 -80t-38 -93t-70 -91.5t-116.5 -66.5t-170.5 -27
q-115 0 -201.5 51t-128 130t-41.5 171zM387 1024h107v-246h-107v246z" />
    <glyph glyph-name="Agrave" unicode="&#xc0;" horiz-adv-x="1314" 
d="M952 492h-602l-180 -492h-117l525 1434h137l547 -1434h-125zM389 598h526q-245 647 -270 725h-2q-33 -106 -254 -725zM258 1845h158l299 -280h-129z" />
    <glyph glyph-name="Aacute" unicode="&#xc1;" horiz-adv-x="1314" 
d="M952 492h-602l-180 -492h-117l525 1434h137l547 -1434h-125zM389 598h526q-245 647 -270 725h-2q-33 -106 -254 -725zM893 1845h160l-344 -280h-131z" />
    <glyph glyph-name="Acircumflex" unicode="&#xc2;" horiz-adv-x="1314" 
d="M952 492h-602l-180 -492h-117l525 1434h137l547 -1434h-125zM389 598h526q-245 647 -270 725h-2q-33 -106 -254 -725zM590 1825h125l270 -260h-139l-195 186l-213 -186h-133z" />
    <glyph glyph-name="Atilde" unicode="&#xc3;" horiz-adv-x="1314" 
d="M952 492h-602l-180 -492h-117l525 1434h137l547 -1434h-125zM389 598h526q-245 647 -270 725h-2q-33 -106 -254 -725zM401 1583h-94v27q0 186 160 186q51 0 119.5 -29t129.5 -57.5t95 -28.5t52 22.5t18 76.5v26h88v-37q0 -99 -39.5 -143.5t-116.5 -44.5
q-51 0 -117.5 30.5t-128.5 60.5t-102 30q-64 0 -64 -82v-37z" />
    <glyph glyph-name="Adieresis" unicode="&#xc4;" horiz-adv-x="1314" 
d="M952 492h-602l-180 -492h-117l525 1434h137l547 -1434h-125zM389 598h526q-245 647 -270 725h-2q-33 -106 -254 -725zM494 1593h-107v199h107v-199zM889 1593h-107v199h107v-199z" />
    <glyph glyph-name="Aring" unicode="&#xc5;" horiz-adv-x="1314" 
d="M952 492h-602l-180 -492h-117l525 1434h137l547 -1434h-125zM389 598h526q-245 647 -270 725h-2q-33 -106 -254 -725zM647 1513q-89 0 -145 55.5t-56 135.5q0 82 55.5 140.5t143.5 58.5q89 0 145 -56.5t56 -138.5t-56.5 -138.5t-142.5 -56.5zM647 1589q52 0 82.5 35.5
t30.5 81.5q0 47 -30 84t-83 37t-82.5 -35t-29.5 -82q0 -49 28.5 -85t83.5 -36z" />
    <glyph glyph-name="AE" unicode="&#xc6;" horiz-adv-x="1955" 
d="M897 1434h944v-107h-764v-516h727v-106h-727v-599h797l-16 -106h-897v539h-510l-349 -539h-129zM512 645h449v688h-5z" />
    <glyph glyph-name="Ccedilla" unicode="&#xc7;" horiz-adv-x="1372" 
d="M1169 385h115q-50 -172 -171.5 -279t-315.5 -120l-74 -99q26 -3 51.5 -9t55.5 -20.5t52 -34.5t37 -52t15 -72q0 -55 -21.5 -94.5t-57 -59.5t-72 -28.5t-76.5 -8.5q-87 0 -148 27v100q60 -26 146 -26q122 0 122 82q0 108 -233 108v47l98 140q-139 10 -249.5 70.5
t-181.5 159t-108.5 226t-37.5 273.5q0 117 25 225.5t77 202t125.5 163t177 109t225.5 39.5q225 0 364.5 -113t176.5 -301h-115q-53 149 -154.5 228.5t-277.5 79.5q-103 0 -188 -36.5t-142 -97t-96.5 -142.5t-57 -171t-17.5 -184q0 -94 17.5 -182.5t57 -170.5t97.5 -142.5
t145 -97t193 -36.5q85 0 153.5 21.5t118 62.5t85.5 92.5t64 120.5z" />
    <glyph glyph-name="Egrave" unicode="&#xc8;" horiz-adv-x="1196" 
d="M1044 809v-107h-729v-596h799l-16 -106h-897v1434h880v-107h-766v-518h729zM276 1878h158l299 -281h-129z" />
    <glyph glyph-name="Eacute" unicode="&#xc9;" horiz-adv-x="1196" 
d="M1044 809v-107h-729v-596h799l-16 -106h-897v1434h880v-107h-766v-518h729zM862 1872h160l-344 -281h-131z" />
    <glyph glyph-name="Ecircumflex" unicode="&#xca;" horiz-adv-x="1196" 
d="M1044 809v-107h-729v-596h799l-16 -106h-897v1434h880v-107h-766v-518h729zM582 1845h125l270 -260h-139l-195 187l-213 -187h-133z" />
    <glyph glyph-name="Edieresis" unicode="&#xcb;" horiz-adv-x="1196" 
d="M1044 809v-107h-729v-596h799l-16 -106h-897v1434h880v-107h-766v-518h729zM496 1610h-107v198h107v-198zM891 1610h-107v198h107v-198z" />
    <glyph glyph-name="Igrave" unicode="&#xcc;" horiz-adv-x="514" 
d="M201 1434h114v-1434h-114v1434zM-123 1855h158l299 -280h-129z" />
    <glyph glyph-name="Iacute" unicode="&#xcd;" horiz-adv-x="514" 
d="M201 1434h114v-1434h-114v1434zM506 1845h160l-344 -280h-132z" />
    <glyph glyph-name="Icircumflex" unicode="&#xce;" horiz-adv-x="514" 
d="M201 1434h114v-1434h-114v1434zM203 1825h125l270 -260h-139l-195 186l-213 -186h-133z" />
    <glyph glyph-name="Idieresis" unicode="&#xcf;" horiz-adv-x="514" 
d="M201 1434h114v-1434h-114v1434zM115 1593h-107v199h107v-199zM510 1593h-107v199h107v-199z" />
    <glyph glyph-name="Eth" unicode="&#xd0;" horiz-adv-x="1474" 
d="M37 788h184v646h477q297 0 481.5 -192.5t184.5 -512.5q0 -212 -83 -378t-235.5 -258.5t-351.5 -92.5h-473v688h-184v100zM336 1327v-539h414v-100h-414v-582h344q137 0 245 46.5t176.5 130t104 195.5t35.5 245q0 121 -33 227t-99 191.5t-176.5 135.5t-252.5 50h-344z" />
    <glyph glyph-name="Ntilde" unicode="&#xd1;" horiz-adv-x="1507" 
d="M315 0h-114v1434h168q762 -1176 831 -1295h2q-10 171 -10 649v646h117v-1434h-156q-120 186 -463 722.5t-381 594.5h-2q8 -149 8 -658v-659zM518 1583h-94v27q0 186 160 186q51 0 119.5 -29t129.5 -57.5t95 -28.5t51.5 22.5t17.5 76.5v26h88v-37q0 -99 -39.5 -143.5
t-115.5 -44.5q-51 0 -117.5 30.5t-128.5 60.5t-102 30q-64 0 -64 -82v-37z" />
    <glyph glyph-name="Ograve" unicode="&#xd2;" horiz-adv-x="1521" 
d="M768 1454q193 0 339.5 -94.5t223 -259t76.5 -373.5q0 -119 -25 -228t-78 -204t-129 -165t-184 -110t-237 -40q-196 0 -343 99t-221.5 264.5t-74.5 373.5q0 154 43 287t123 233.5t205.5 158.5t281.5 58zM764 1348q-107 0 -195.5 -34t-149 -93t-102 -139t-60.5 -170
t-19 -189q0 -125 34 -239t98 -203t165 -142t225 -53q108 0 196 34t148 93.5t101.5 141t60 174t18.5 196.5q0 126 -33.5 237.5t-97 198t-164 137t-225.5 50.5zM408 1876h157l299 -281h-129z" />
    <glyph glyph-name="Oacute" unicode="&#xd3;" horiz-adv-x="1521" 
d="M768 1454q193 0 339.5 -94.5t223 -259t76.5 -373.5q0 -119 -25 -228t-78 -204t-129 -165t-184 -110t-237 -40q-196 0 -343 99t-221.5 264.5t-74.5 373.5q0 154 43 287t123 233.5t205.5 158.5t281.5 58zM764 1348q-107 0 -195.5 -34t-149 -93t-102 -139t-60.5 -170
t-19 -189q0 -125 34 -239t98 -203t165 -142t225 -53q108 0 196 34t148 93.5t101.5 141t60 174t18.5 196.5q0 126 -33.5 237.5t-97 198t-164 137t-225.5 50.5zM985 1858h160l-344 -281h-131z" />
    <glyph glyph-name="Ocircumflex" unicode="&#xd4;" horiz-adv-x="1521" 
d="M768 1454q193 0 339.5 -94.5t223 -259t76.5 -373.5q0 -119 -25 -228t-78 -204t-129 -165t-184 -110t-237 -40q-196 0 -343 99t-221.5 264.5t-74.5 373.5q0 154 43 287t123 233.5t205.5 158.5t281.5 58zM764 1348q-107 0 -195.5 -34t-149 -93t-102 -139t-60.5 -170
t-19 -189q0 -125 34 -239t98 -203t165 -142t225 -53q108 0 196 34t148 93.5t101.5 141t60 174t18.5 196.5q0 126 -33.5 237.5t-97 198t-164 137t-225.5 50.5zM705 1837h124l271 -260h-139l-195 186l-213 -186h-133z" />
    <glyph glyph-name="Otilde" unicode="&#xd5;" horiz-adv-x="1521" 
d="M768 1454q193 0 339.5 -94.5t223 -259t76.5 -373.5q0 -119 -25 -228t-78 -204t-129 -165t-184 -110t-237 -40q-196 0 -343 99t-221.5 264.5t-74.5 373.5q0 154 43 287t123 233.5t205.5 158.5t281.5 58zM764 1348q-107 0 -195.5 -34t-149 -93t-102 -139t-60.5 -170
t-19 -189q0 -125 34 -239t98 -203t165 -142t225 -53q108 0 196 34t148 93.5t101.5 141t60 174t18.5 196.5q0 126 -33.5 237.5t-97 198t-164 137t-225.5 50.5zM524 1597h-94v27q0 186 160 186q51 0 119.5 -28.5t129.5 -57t95 -28.5q35 0 52.5 22t17.5 76v27h88v-37
q0 -99 -40 -144t-116 -45q-51 0 -117.5 30.5t-128.5 60.5t-102 30q-64 0 -64 -82v-37z" />
    <glyph glyph-name="Odieresis" unicode="&#xd6;" horiz-adv-x="1521" 
d="M768 1454q193 0 339.5 -94.5t223 -259t76.5 -373.5q0 -119 -25 -228t-78 -204t-129 -165t-184 -110t-237 -40q-196 0 -343 99t-221.5 264.5t-74.5 373.5q0 154 43 287t123 233.5t205.5 158.5t281.5 58zM764 1348q-107 0 -195.5 -34t-149 -93t-102 -139t-60.5 -170
t-19 -189q0 -125 34 -239t98 -203t165 -142t225 -53q108 0 196 34t148 93.5t101.5 141t60 174t18.5 196.5q0 126 -33.5 237.5t-97 198t-164 137t-225.5 50.5zM616 1608h-106v198h106v-198zM1012 1608h-107v198h107v-198z" />
    <glyph glyph-name="multiply" unicode="&#xd7;" horiz-adv-x="1460" 
d="M1276 76l-70 -76l-475 496l-475 -496l-72 76l475 495l-475 496l72 74l475 -496l475 496l72 -74l-475 -498z" />
    <glyph glyph-name="Oslash" unicode="&#xd8;" horiz-adv-x="1521" 
d="M768 1454q194 0 346 -100l55 80h109l-94 -138q107 -98 165 -246t58 -323q0 -124 -25 -235t-78 -205t-129 -162t-183.5 -106.5t-237.5 -38.5q-228 0 -389 133l-78 -113h-111l123 178q-89 99 -136.5 239t-47.5 300q0 153 44 286.5t125.5 234t206.5 158.5t277 58zM231 723
q0 -270 136 -447l684 986q-122 86 -287 86q-129 0 -231.5 -48t-167.5 -133t-99.5 -198t-34.5 -246zM760 86q133 0 236 49t166.5 136t95.5 201.5t32 252.5q0 144 -43.5 268.5t-128.5 210.5l-688 -997q134 -121 330 -121z" />
    <glyph glyph-name="Ugrave" unicode="&#xd9;" horiz-adv-x="1447" 
d="M193 1434h118v-869q0 -110 24 -195t63.5 -137t94.5 -85.5t111.5 -46.5t120.5 -13q95 0 167 22t130 74t88.5 148t30.5 233v869h116v-863q0 -587 -536 -587q-87 0 -163.5 19t-144.5 62t-116 107.5t-76 162t-28 218.5v881zM375 1845h157l299 -280h-129z" />
    <glyph glyph-name="Uacute" unicode="&#xda;" horiz-adv-x="1447" 
d="M193 1434h118v-869q0 -110 24 -195t63.5 -137t94.5 -85.5t111.5 -46.5t120.5 -13q95 0 167 22t130 74t88.5 148t30.5 233v869h116v-863q0 -587 -536 -587q-87 0 -163.5 19t-144.5 62t-116 107.5t-76 162t-28 218.5v881zM948 1845h160l-344 -280h-131z" />
    <glyph glyph-name="Ucircumflex" unicode="&#xdb;" horiz-adv-x="1447" 
d="M193 1434h118v-869q0 -110 24 -195t63.5 -137t94.5 -85.5t111.5 -46.5t120.5 -13q95 0 167 22t130 74t88.5 148t30.5 233v869h116v-863q0 -587 -536 -587q-87 0 -163.5 19t-144.5 62t-116 107.5t-76 162t-28 218.5v881zM668 1849h125l270 -260h-139l-195 187l-213 -187
h-133z" />
    <glyph glyph-name="Udieresis" unicode="&#xdc;" horiz-adv-x="1447" 
d="M193 1434h118v-869q0 -110 24 -195t63.5 -137t94.5 -85.5t111.5 -46.5t120.5 -13q95 0 167 22t130 74t88.5 148t30.5 233v869h116v-863q0 -587 -536 -587q-87 0 -163.5 19t-144.5 62t-116 107.5t-76 162t-28 218.5v881zM580 1593h-107v199h107v-199zM975 1593h-107v199
h107v-199z" />
    <glyph glyph-name="Yacute" unicode="&#xdd;" horiz-adv-x="1171" 
d="M635 0h-117v539q0 20 -8 32l-512 863h133q50 -85 160 -271.5t188 -319.5t105 -181q107 191 463 772h127l-533 -871q-6 -12 -6 -31v-532zM811 1845h160l-344 -280h-131z" />
    <glyph glyph-name="Thorn" unicode="&#xde;" horiz-adv-x="1245" 
d="M201 0v1434h114v-291h353q233 0 352 -110.5t119 -289.5q0 -201 -130 -307t-360 -106h-334v-330h-114zM315 1038v-602h336q82 0 145 14.5t115 48t79.5 95t27.5 149.5q0 146 -92 220.5t-262 74.5h-349z" />
    <glyph glyph-name="germandbls" unicode="&#xdf;" horiz-adv-x="1146" 
d="M592 1530q104 0 187 -32.5t131.5 -86t74 -116t27.5 -128.5q0 -43 -2 -63l-379 -256v-2l184 -127q152 -104 207 -189t55 -198q0 -157 -102.5 -254.5t-272.5 -97.5q-201 0 -313 108v129q64 -69 148.5 -105t169.5 -36q69 0 122 23t83 60.5t44.5 79.5t14.5 85
q0 86 -45.5 155.5t-163.5 149.5l-197 131q-118 77 4 160l332 229q1 33 -6.5 68t-29.5 74t-56 69t-91 50t-128 20q-154 0 -235 -75.5t-81 -258.5v-1096h-106v1104q0 216 111.5 321t312.5 105z" />
    <glyph glyph-name="agrave" unicode="&#xe0;" horiz-adv-x="1042" 
d="M874 725v-528q0 -115 15 -197h-103q-13 39 -18 156q-15 -32 -38.5 -60.5t-62.5 -57.5t-99.5 -46t-135.5 -17q-86 0 -153 26t-107 70.5t-60 98t-20 113.5q0 166 123.5 247.5t357.5 81.5h195v103q0 35 -5 64t-21 63t-43.5 56.5t-77 38t-115.5 15.5q-59 0 -103.5 -12.5
t-69 -29t-43.5 -46.5t-26 -49t-16 -53h-107q4 39 15 74.5t37.5 75.5t65 69.5t103 48.5t146.5 19q366 0 366 -324zM770 485v37h-201q-178 0 -271 -54.5t-93 -180.5q0 -96 63.5 -155.5t169.5 -59.5q85 0 146.5 23t96.5 58.5t55.5 92t27 111.5t6.5 128zM178 1530h141l281 -322
h-115z" />
    <glyph glyph-name="aacute" unicode="&#xe1;" horiz-adv-x="1042" 
d="M874 725v-528q0 -115 15 -197h-103q-13 39 -18 156q-15 -32 -38.5 -60.5t-62.5 -57.5t-99.5 -46t-135.5 -17q-86 0 -153 26t-107 70.5t-60 98t-20 113.5q0 166 123.5 247.5t357.5 81.5h195v103q0 35 -5 64t-21 63t-43.5 56.5t-77 38t-115.5 15.5q-59 0 -103.5 -12.5
t-69 -29t-43.5 -46.5t-26 -49t-16 -53h-107q4 39 15 74.5t37.5 75.5t65 69.5t103 48.5t146.5 19q366 0 366 -324zM770 485v37h-201q-178 0 -271 -54.5t-93 -180.5q0 -96 63.5 -155.5t169.5 -59.5q85 0 146.5 23t96.5 58.5t55.5 92t27 111.5t6.5 128zM700 1530h140l-305 -322
h-115z" />
    <glyph glyph-name="acircumflex" unicode="&#xe2;" horiz-adv-x="1042" 
d="M874 725v-528q0 -115 15 -197h-103q-13 39 -18 156q-15 -32 -38.5 -60.5t-62.5 -57.5t-99.5 -46t-135.5 -17q-86 0 -153 26t-107 70.5t-60 98t-20 113.5q0 166 123.5 247.5t357.5 81.5h195v103q0 35 -5 64t-21 63t-43.5 56.5t-77 38t-115.5 15.5q-59 0 -103.5 -12.5
t-69 -29t-43.5 -46.5t-26 -49t-16 -53h-107q4 39 15 74.5t37.5 75.5t65 69.5t103 48.5t146.5 19q366 0 366 -324zM770 485v37h-201q-178 0 -271 -54.5t-93 -180.5q0 -96 63.5 -155.5t169.5 -59.5q85 0 146.5 23t96.5 58.5t55.5 92t27 111.5t6.5 128zM463 1511h119l221 -315
h-121l-160 242l-157 -242h-119z" />
    <glyph glyph-name="atilde" unicode="&#xe3;" horiz-adv-x="1042" 
d="M874 725v-528q0 -115 15 -197h-103q-13 39 -18 156q-15 -32 -38.5 -60.5t-62.5 -57.5t-99.5 -46t-135.5 -17q-86 0 -153 26t-107 70.5t-60 98t-20 113.5q0 166 123.5 247.5t357.5 81.5h195v103q0 35 -5 64t-21 63t-43.5 56.5t-77 38t-115.5 15.5q-59 0 -103.5 -12.5
t-69 -29t-43.5 -46.5t-26 -49t-16 -53h-107q4 39 15 74.5t37.5 75.5t65 69.5t103 48.5t146.5 19q366 0 366 -324zM770 485v37h-201q-178 0 -271 -54.5t-93 -180.5q0 -96 63.5 -155.5t169.5 -59.5q85 0 146.5 23t96.5 58.5t55.5 92t27 111.5t6.5 128zM315 1260h-88v34
q0 179 152 179q37 0 81 -17.5t77.5 -38t71 -38t63.5 -17.5q33 0 48 20.5t15 73.5v25h86v-35q0 -186 -149 -186q-47 0 -100.5 28.5t-105 57t-91.5 28.5q-60 0 -60 -80v-34z" />
    <glyph glyph-name="adieresis" unicode="&#xe4;" horiz-adv-x="1042" 
d="M874 725v-528q0 -115 15 -197h-103q-13 39 -18 156q-15 -32 -38.5 -60.5t-62.5 -57.5t-99.5 -46t-135.5 -17q-86 0 -153 26t-107 70.5t-60 98t-20 113.5q0 166 123.5 247.5t357.5 81.5h195v103q0 35 -5 64t-21 63t-43.5 56.5t-77 38t-115.5 15.5q-59 0 -103.5 -12.5
t-69 -29t-43.5 -46.5t-26 -49t-16 -53h-107q4 39 15 74.5t37.5 75.5t65 69.5t103 48.5t146.5 19q366 0 366 -324zM770 485v37h-201q-178 0 -271 -54.5t-93 -180.5q0 -96 63.5 -155.5t169.5 -59.5q85 0 146.5 23t96.5 58.5t55.5 92t27 111.5t6.5 128zM397 1311h-104v200h104
v-200zM754 1311h-105v200h105v-200z" />
    <glyph glyph-name="aring" unicode="&#xe5;" horiz-adv-x="1042" 
d="M874 725v-528q0 -115 15 -197h-103q-13 39 -18 156q-15 -32 -38.5 -60.5t-62.5 -57.5t-99.5 -46t-135.5 -17q-86 0 -153 26t-107 70.5t-60 98t-20 113.5q0 166 123.5 247.5t357.5 81.5h195v103q0 35 -5 64t-21 63t-43.5 56.5t-77 38t-115.5 15.5q-59 0 -103.5 -12.5
t-69 -29t-43.5 -46.5t-26 -49t-16 -53h-107q4 39 15 74.5t37.5 75.5t65 69.5t103 48.5t146.5 19q366 0 366 -324zM770 485v37h-201q-178 0 -271 -54.5t-93 -180.5q0 -96 63.5 -155.5t169.5 -59.5q85 0 146.5 23t96.5 58.5t55.5 92t27 111.5t6.5 128zM524 1153
q-89 0 -144.5 55t-55.5 135q0 82 55 140.5t143 58.5q89 0 145 -56.5t56 -137.5q0 -82 -56.5 -138.5t-142.5 -56.5zM524 1229q52 0 82.5 35.5t30.5 81.5q0 47 -30 83.5t-83 36.5q-54 0 -83 -34.5t-29 -81.5q0 -49 28.5 -85t83.5 -36z" />
    <glyph glyph-name="ae" unicode="&#xe6;" horiz-adv-x="1710" 
d="M1505 270h107q-91 -290 -406 -290q-141 0 -239 67t-146 168q-99 -235 -381 -235q-165 0 -256.5 89.5t-91.5 219.5q0 53 12.5 96t36.5 74.5t54 55.5t71.5 39.5t81.5 25.5t91 15t94 7t96 2h143v96q0 35 -5.5 66.5t-22.5 66t-44 59t-74 40.5t-108 16q-125 0 -184.5 -48
t-77.5 -150h-111q11 135 104.5 214.5t266.5 79.5q130 0 219.5 -48t120.5 -148q56 92 149 144t218 52q103 0 183.5 -39.5t127.5 -105t70.5 -141.5t23.5 -158q0 -42 -4 -88h-747q-1 -207 91 -321.5t246 -114.5q120 0 185.5 48.5t105.5 145.5zM774 492v20h-151
q-80 0 -138.5 -4.5t-114.5 -18.5t-90.5 -38t-55.5 -64t-21 -96q0 -90 70.5 -150.5t172.5 -60.5q173 0 250.5 98t77.5 314zM881 604h641q-2 153 -82.5 248t-222.5 96q-140 2 -229.5 -85t-106.5 -259z" />
    <glyph glyph-name="ccedilla" unicode="&#xe7;" horiz-adv-x="993" 
d="M815 301h109q-35 -131 -117 -217t-215 -104l-70 -93q26 -3 51.5 -9t55.5 -20.5t52 -34.5t37 -52t15 -72q0 -55 -21.5 -94.5t-57 -59.5t-72 -28.5t-76.5 -8.5q-87 0 -148 27v100q60 -26 146 -26q123 0 123 82q0 108 -234 108v47l92 131q-181 14 -290 153.5t-109 377.5
q0 108 29 204t83.5 172t142.5 120.5t198 44.5q76 0 139 -20.5t105.5 -53.5t73.5 -77t46.5 -88t20.5 -89h-109q-25 101 -92 165t-186 64q-159 0 -248.5 -120.5t-89.5 -317.5q0 -191 86.5 -314.5t240.5 -123.5q109 0 179.5 56t109.5 171z" />
    <glyph glyph-name="egrave" unicode="&#xe8;" horiz-adv-x="1030" 
d="M946 500h-751q1 -196 91 -311t238 -115q68 0 120 17t85 48.5t51.5 60t34.5 66.5h111q-18 -56 -47.5 -103.5t-76.5 -92t-119.5 -70t-162.5 -25.5q-113 0 -199 45.5t-136 122.5t-74.5 168t-24.5 193q0 113 28 210t81.5 172.5t140 119t196.5 43.5q91 0 164 -30t119 -77.5
t77 -110t43.5 -124t12.5 -123.5q0 -57 -2 -84zM201 592h637q-2 157 -83.5 257.5t-226.5 100.5q-288 0 -327 -358zM197 1530h141l280 -322h-114z" />
    <glyph glyph-name="eacute" unicode="&#xe9;" horiz-adv-x="1030" 
d="M946 500h-751q1 -196 91 -311t238 -115q68 0 120 17t85 48.5t51.5 60t34.5 66.5h111q-18 -56 -47.5 -103.5t-76.5 -92t-119.5 -70t-162.5 -25.5q-113 0 -199 45.5t-136 122.5t-74.5 168t-24.5 193q0 113 28 210t81.5 172.5t140 119t196.5 43.5q91 0 164 -30t119 -77.5
t77 -110t43.5 -124t12.5 -123.5q0 -57 -2 -84zM201 592h637q-2 157 -83.5 257.5t-226.5 100.5q-288 0 -327 -358zM713 1530h139l-305 -322h-115z" />
    <glyph glyph-name="ecircumflex" unicode="&#xea;" horiz-adv-x="1030" 
d="M946 500h-751q1 -196 91 -311t238 -115q68 0 120 17t85 48.5t51.5 60t34.5 66.5h111q-18 -56 -47.5 -103.5t-76.5 -92t-119.5 -70t-162.5 -25.5q-113 0 -199 45.5t-136 122.5t-74.5 168t-24.5 193q0 113 28 210t81.5 172.5t140 119t196.5 43.5q91 0 164 -30t119 -77.5
t77 -110t43.5 -124t12.5 -123.5q0 -57 -2 -84zM201 592h637q-2 157 -83.5 257.5t-226.5 100.5q-288 0 -327 -358zM475 1511h119l221 -315h-121l-159 242l-158 -242h-119z" />
    <glyph glyph-name="edieresis" unicode="&#xeb;" horiz-adv-x="1030" 
d="M946 500h-751q1 -196 91 -311t238 -115q68 0 120 17t85 48.5t51.5 60t34.5 66.5h111q-18 -56 -47.5 -103.5t-76.5 -92t-119.5 -70t-162.5 -25.5q-113 0 -199 45.5t-136 122.5t-74.5 168t-24.5 193q0 113 28 210t81.5 172.5t140 119t196.5 43.5q91 0 164 -30t119 -77.5
t77 -110t43.5 -124t12.5 -123.5q0 -57 -2 -84zM201 592h637q-2 157 -83.5 257.5t-226.5 100.5q-288 0 -327 -358zM389 1311h-104v200h104v-200zM745 1311h-104v200h104v-200z" />
    <glyph glyph-name="igrave" unicode="&#xec;" horiz-adv-x="440" 
d="M168 0v1024h106v-1024h-106zM-139 1530h141l281 -322h-115z" />
    <glyph glyph-name="iacute" unicode="&#xed;" horiz-adv-x="440" 
d="M168 0v1024h106v-1024h-106zM436 1530h139l-305 -322h-114z" />
    <glyph glyph-name="icircumflex" unicode="&#xee;" horiz-adv-x="440" 
d="M168 0v1024h106v-1024h-106zM160 1511h119l221 -315h-121l-160 242l-158 -242h-118z" />
    <glyph glyph-name="idieresis" unicode="&#xef;" horiz-adv-x="440" 
d="M168 0v1024h106v-1024h-106zM94 1311h-104v200h104v-200zM451 1311h-105v200h105v-200z" />
    <glyph glyph-name="eth" unicode="&#xf0;" horiz-adv-x="1075" 
d="M231 1436v96q210 -43 359 -143l229 151l47 -80l-198 -129q309 -259 309 -758q0 -297 -123.5 -447.5t-331.5 -150.5q-198 0 -317 151t-119 382q0 126 36.5 229t99 169.5t144.5 102t175 35.5q102 0 157 -24t115 -76q-70 205 -231 332l-275 -180l-45 78l240 157
q-113 67 -271 105zM535 942q-110 0 -189 -61t-115 -157t-36 -216q0 -113 38.5 -210t117 -159.5t181.5 -62.5q167 0 252.5 135.5t85.5 363.5q0 78 -19 142.5t-58 116t-105 80t-153 28.5z" />
    <glyph glyph-name="ntilde" unicode="&#xf1;" horiz-adv-x="1124" 
d="M168 0v766q0 176 -2 258h104q3 -24 4.5 -98t-0.5 -95q15 35 32.5 63t46 58t63 50.5t85.5 33.5t111 13q72 0 132 -21t108.5 -65t76 -120t27.5 -179v-664h-106v647q0 141 -61.5 220t-190.5 79q-70 0 -125.5 -23t-92.5 -62t-61 -93.5t-34.5 -114.5t-10.5 -129v-524h-106z
M344 1260h-88v34q0 179 152 179q46 0 102.5 -27.5t107 -55.5t82.5 -28q33 0 48.5 21t15.5 73v25h86v-35q0 -186 -150 -186q-47 0 -100.5 28.5t-105 57t-91.5 28.5q-59 0 -59 -80v-34z" />
    <glyph glyph-name="ograve" unicode="&#xf2;" horiz-adv-x="1085" 
d="M547 1049q204 0 328 -147t124 -388q0 -108 -30 -204.5t-86 -171.5t-145.5 -119t-200.5 -44q-206 0 -328.5 150.5t-122.5 386.5q0 150 52 270t158 193.5t251 73.5zM541 950q-166 0 -254 -122t-88 -316q0 -187 94 -312.5t252 -125.5q161 0 251.5 121t90.5 317
q0 189 -91.5 313.5t-254.5 124.5zM203 1530h141l281 -322h-115z" />
    <glyph glyph-name="oacute" unicode="&#xf3;" horiz-adv-x="1085" 
d="M547 1049q204 0 328 -147t124 -388q0 -108 -30 -204.5t-86 -171.5t-145.5 -119t-200.5 -44q-206 0 -328.5 150.5t-122.5 386.5q0 150 52 270t158 193.5t251 73.5zM541 950q-166 0 -254 -122t-88 -316q0 -187 94 -312.5t252 -125.5q161 0 251.5 121t90.5 317
q0 189 -91.5 313.5t-254.5 124.5zM719 1530h139l-305 -322h-115z" />
    <glyph glyph-name="ocircumflex" unicode="&#xf4;" horiz-adv-x="1085" 
d="M547 1049q204 0 328 -147t124 -388q0 -108 -30 -204.5t-86 -171.5t-145.5 -119t-200.5 -44q-206 0 -328.5 150.5t-122.5 386.5q0 150 52 270t158 193.5t251 73.5zM541 950q-166 0 -254 -122t-88 -316q0 -187 94 -312.5t252 -125.5q161 0 251.5 121t90.5 317
q0 189 -91.5 313.5t-254.5 124.5zM481 1511h119l221 -315h-121l-159 242l-158 -242h-119z" />
    <glyph glyph-name="otilde" unicode="&#xf5;" horiz-adv-x="1085" 
d="M547 1049q204 0 328 -147t124 -388q0 -108 -30 -204.5t-86 -171.5t-145.5 -119t-200.5 -44q-206 0 -328.5 150.5t-122.5 386.5q0 150 52 270t158 193.5t251 73.5zM541 950q-166 0 -254 -122t-88 -316q0 -187 94 -312.5t252 -125.5q161 0 251.5 121t90.5 317
q0 189 -91.5 313.5t-254.5 124.5zM334 1260h-88v34q0 179 151 179q37 0 81 -17.5t77.5 -38t71 -38t63.5 -17.5q33 0 48.5 21t15.5 73v25h86v-35q0 -186 -150 -186q-47 0 -100.5 28.5t-105 57t-91.5 28.5q-59 0 -59 -80v-34z" />
    <glyph glyph-name="odieresis" unicode="&#xf6;" horiz-adv-x="1085" 
d="M547 1049q204 0 328 -147t124 -388q0 -108 -30 -204.5t-86 -171.5t-145.5 -119t-200.5 -44q-206 0 -328.5 150.5t-122.5 386.5q0 150 52 270t158 193.5t251 73.5zM541 950q-166 0 -254 -122t-88 -316q0 -187 94 -312.5t252 -125.5q161 0 251.5 121t90.5 317
q0 189 -91.5 313.5t-254.5 124.5zM416 1311h-105v200h105v-200zM772 1311h-104v200h104v-200z" />
    <glyph glyph-name="divide" unicode="&#xf7;" horiz-adv-x="1460" 
d="M778 2h-104v252h104v-252zM1286 518h-1112v107h1112v-107zM778 877h-104v253h104v-253z" />
    <glyph glyph-name="oslash" unicode="&#xf8;" horiz-adv-x="1085" 
d="M549 1049q149 0 260 -82l55 80h107l-99 -140q127 -146 127 -393q0 -244 -127.5 -392.5t-336.5 -148.5q-143 0 -256 82l-54 -75h-106l96 137q-129 147 -129 395q0 249 131 393t332 144zM541 952q-112 0 -191.5 -61t-117 -158.5t-37.5 -220.5q0 -176 84 -303l471 674
q-84 69 -209 69zM541 70q162 0 255 121.5t93 320.5q0 188 -80 303l-469 -672q82 -73 201 -73z" />
    <glyph glyph-name="ugrave" unicode="&#xf9;" horiz-adv-x="1103" 
d="M936 1024v-725q0 -57 1 -171.5t1 -127.5h-102q-7 47 -7 176q-34 -94 -115.5 -147.5t-211.5 -53.5q-50 0 -93 8.5t-89.5 33t-79 64t-53.5 107.5t-21 158v678h104v-651q0 -293 248 -293q168 0 239.5 98.5t71.5 319.5v526h107zM213 1530h141l281 -322h-115z" />
    <glyph glyph-name="uacute" unicode="&#xfa;" horiz-adv-x="1103" 
d="M936 1024v-725q0 -57 1 -171.5t1 -127.5h-102q-7 47 -7 176q-34 -94 -115.5 -147.5t-211.5 -53.5q-50 0 -93 8.5t-89.5 33t-79 64t-53.5 107.5t-21 158v678h104v-651q0 -293 248 -293q168 0 239.5 98.5t71.5 319.5v526h107zM748 1530h139l-305 -322h-115z" />
    <glyph glyph-name="ucircumflex" unicode="&#xfb;" horiz-adv-x="1103" 
d="M936 1024v-725q0 -57 1 -171.5t1 -127.5h-102q-7 47 -7 176q-34 -94 -115.5 -147.5t-211.5 -53.5q-50 0 -93 8.5t-89.5 33t-79 64t-53.5 107.5t-21 158v678h104v-651q0 -293 248 -293q168 0 239.5 98.5t71.5 319.5v526h107zM492 1511h118l221 -315h-120l-160 242
l-158 -242h-119z" />
    <glyph glyph-name="udieresis" unicode="&#xfc;" horiz-adv-x="1103" 
d="M936 1024v-725q0 -57 1 -171.5t1 -127.5h-102q-7 47 -7 176q-34 -94 -115.5 -147.5t-211.5 -53.5q-50 0 -93 8.5t-89.5 33t-79 64t-53.5 107.5t-21 158v678h104v-651q0 -293 248 -293q168 0 239.5 98.5t71.5 319.5v526h107zM426 1311h-104v200h104v-200zM782 1311h-104
v200h104v-200z" />
    <glyph glyph-name="yacute" unicode="&#xfd;" horiz-adv-x="933" 
d="M29 1024h116q78 -222 162.5 -457.5t118 -331.5t49.5 -145h2q88 269 320 934h110l-385 -1083q-42 -117 -77 -186.5t-78.5 -112t-91.5 -57.5t-121 -15q-46 0 -95 6v107q54 -7 93 -7q55 0 92 13t68 49t54 84t54 133zM655 1530h140l-306 -322h-114z" />
    <glyph glyph-name="thorn" unicode="&#xfe;" horiz-adv-x="1130" 
d="M274 -428h-106v1935h106v-678q103 215 359 215q182 0 295 -139t114 -370q1 -262 -125.5 -411t-320.5 -149q-224 0 -322 181v-584zM932 528q0 180 -86 298t-232 118q-168 0 -257 -116t-89 -312q0 -79 9 -142t32 -119t59.5 -93.5t94.5 -59.5t135 -22q158 0 246 124t88 324z
" />
    <glyph glyph-name="ydieresis" unicode="&#xff;" horiz-adv-x="933" 
d="M29 1024h116q78 -222 162.5 -457.5t118 -331.5t49.5 -145h2q88 269 320 934h110l-385 -1083q-42 -117 -77 -186.5t-78.5 -112t-91.5 -57.5t-121 -15q-46 0 -95 6v107q54 -7 93 -7q55 0 92 13t68 49t54 84t54 133zM340 1311h-104v200h104v-200zM696 1311h-104v200h104
v-200z" />
    <glyph glyph-name="Amacron" unicode="&#x100;" horiz-adv-x="1314" 
d="M952 492h-602l-180 -492h-117l525 1434h137l547 -1434h-125zM389 598h526q-245 647 -270 725h-2q-33 -106 -254 -725zM375 1710h540v-102h-540v102z" />
    <glyph glyph-name="amacron" unicode="&#x101;" horiz-adv-x="1042" 
d="M874 725v-528q0 -115 15 -197h-103q-13 39 -18 156q-15 -32 -38.5 -60.5t-62.5 -57.5t-99.5 -46t-135.5 -17q-86 0 -153 26t-107 70.5t-60 98t-20 113.5q0 166 123.5 247.5t357.5 81.5h195v103q0 35 -5 64t-21 63t-43.5 56.5t-77 38t-115.5 15.5q-59 0 -103.5 -12.5
t-69 -29t-43.5 -46.5t-26 -49t-16 -53h-107q4 39 15 74.5t37.5 75.5t65 69.5t103 48.5t146.5 19q366 0 366 -324zM770 485v37h-201q-178 0 -271 -54.5t-93 -180.5q0 -96 63.5 -155.5t169.5 -59.5q85 0 146.5 23t96.5 58.5t55.5 92t27 111.5t6.5 128zM256 1419h537v-100h-537
v100z" />
    <glyph glyph-name="Abreve" unicode="&#x102;" horiz-adv-x="1314" 
d="M952 492h-602l-180 -492h-117l525 1434h137l547 -1434h-125zM389 598h526q-245 647 -270 725h-2q-33 -106 -254 -725zM352 1806h99q14 -70 64 -109.5t132 -39.5q168 0 201 149h94q-17 -115 -94.5 -181t-200.5 -66q-136 0 -210.5 71t-84.5 176z" />
    <glyph glyph-name="abreve" unicode="&#x103;" horiz-adv-x="1042" 
d="M874 725v-528q0 -115 15 -197h-103q-13 39 -18 156q-15 -32 -38.5 -60.5t-62.5 -57.5t-99.5 -46t-135.5 -17q-86 0 -153 26t-107 70.5t-60 98t-20 113.5q0 166 123.5 247.5t357.5 81.5h195v103q0 35 -5 64t-21 63t-43.5 56.5t-77 38t-115.5 15.5q-59 0 -103.5 -12.5
t-69 -29t-43.5 -46.5t-26 -49t-16 -53h-107q4 39 15 74.5t37.5 75.5t65 69.5t103 48.5t146.5 19q366 0 366 -324zM770 485v37h-201q-178 0 -271 -54.5t-93 -180.5q0 -96 63.5 -155.5t169.5 -59.5q85 0 146.5 23t96.5 58.5t55.5 92t27 111.5t6.5 128zM248 1475h90
q15 -72 61 -118t123 -46q48 0 83 14t55.5 39.5t31.5 51t19 59.5h90q-16 -118 -88.5 -190.5t-190.5 -72.5q-66 0 -118.5 23t-84.5 61.5t-49.5 83.5t-21.5 95z" />
    <glyph glyph-name="Aogonek" unicode="&#x104;" horiz-adv-x="1314" 
d="M952 492h-602l-180 -492h-117l525 1434h137l547 -1432l2 -2q-31 -31 -48.5 -50t-42.5 -52.5t-37 -68t-12 -69.5q0 -56 34.5 -88t88.5 -32q77 0 129 22v-98q-52 -35 -149 -35q-102 0 -162.5 58t-60.5 159q0 119 133 256zM389 598h526q-245 647 -270 725h-2
q-33 -106 -254 -725z" />
    <glyph glyph-name="aogonek" unicode="&#x105;" horiz-adv-x="1042" 
d="M874 725v-528q0 -115 15 -197q-30 -30 -48 -50t-42.5 -53t-36.5 -67.5t-12 -69.5q0 -56 34 -88t88 -32q77 0 129 22v-98q-52 -35 -149 -35q-102 0 -162.5 58t-60.5 159q0 126 151 277q-7 45 -12 133q-15 -32 -38.5 -60.5t-62.5 -57.5t-99.5 -46t-135.5 -17q-86 0 -153 26
t-107 70.5t-60 98t-20 113.5q0 166 123.5 247.5t357.5 81.5h195v103q0 35 -5 64t-21 63t-43.5 56.5t-77 38t-115.5 15.5q-59 0 -103.5 -12.5t-69 -29t-43.5 -46.5t-26 -49t-16 -53h-107q4 39 15 74.5t37.5 75.5t65 69.5t103 48.5t146.5 19q366 0 366 -324zM770 485v37h-201
q-178 0 -271 -54.5t-93 -180.5q0 -96 63.5 -155.5t169.5 -59.5q85 0 146.5 23t96.5 58.5t55.5 92t27 111.5t6.5 128z" />
    <glyph glyph-name="Cacute" unicode="&#x106;" horiz-adv-x="1372" 
d="M1169 385h115q-55 -184 -189 -292.5t-352 -108.5q-150 0 -271 57.5t-198 157.5t-118 231.5t-41 284.5q0 117 25 225.5t77 202t125.5 163t177 109t225.5 39.5q225 0 364.5 -113t176.5 -301h-115q-53 149 -154.5 228.5t-277.5 79.5q-103 0 -188 -36.5t-142 -97
t-96.5 -142.5t-57 -171t-17.5 -184q0 -94 17.5 -182.5t57 -170.5t97.5 -142.5t145 -97t193 -36.5q85 0 153.5 21.5t118 62.5t85.5 92.5t64 120.5zM936 1866h160l-344 -281h-131z" />
    <glyph glyph-name="cacute" unicode="&#x107;" horiz-adv-x="993" 
d="M815 301h109q-39 -146 -137 -236t-261 -90q-198 0 -319 141t-121 392q0 108 29 204t83.5 172t142.5 120.5t198 44.5q76 0 139 -20.5t105.5 -53.5t73.5 -77t46.5 -88t20.5 -89h-109q-25 101 -92 165t-186 64q-159 0 -248.5 -120.5t-89.5 -317.5q0 -191 86.5 -314.5
t240.5 -123.5q109 0 179.5 56t109.5 171zM709 1530h139l-305 -322h-115z" />
    <glyph glyph-name="Ccircumflex" unicode="&#x108;" horiz-adv-x="1372" 
d="M1169 385h115q-55 -184 -189 -292.5t-352 -108.5q-150 0 -271 57.5t-198 157.5t-118 231.5t-41 284.5q0 117 25 225.5t77 202t125.5 163t177 109t225.5 39.5q225 0 364.5 -113t176.5 -301h-115q-53 149 -154.5 228.5t-277.5 79.5q-103 0 -188 -36.5t-142 -97
t-96.5 -142.5t-57 -171t-17.5 -184q0 -94 17.5 -182.5t57 -170.5t97.5 -142.5t145 -97t193 -36.5q85 0 153.5 21.5t118 62.5t85.5 92.5t64 120.5zM674 1833h125l270 -260h-139l-195 186l-213 -186h-133z" />
    <glyph glyph-name="ccircumflex" unicode="&#x109;" horiz-adv-x="993" 
d="M815 301h109q-39 -146 -137 -236t-261 -90q-198 0 -319 141t-121 392q0 108 29 204t83.5 172t142.5 120.5t198 44.5q76 0 139 -20.5t105.5 -53.5t73.5 -77t46.5 -88t20.5 -89h-109q-25 101 -92 165t-186 64q-159 0 -248.5 -120.5t-89.5 -317.5q0 -191 86.5 -314.5
t240.5 -123.5q109 0 179.5 56t109.5 171zM457 1511h118l222 -315h-121l-160 242l-158 -242h-118z" />
    <glyph glyph-name="Cdotaccent" unicode="&#x10a;" horiz-adv-x="1372" 
d="M1169 385h115q-55 -184 -189 -292.5t-352 -108.5q-150 0 -271 57.5t-198 157.5t-118 231.5t-41 284.5q0 117 25 225.5t77 202t125.5 163t177 109t225.5 39.5q225 0 364.5 -113t176.5 -301h-115q-53 149 -154.5 228.5t-277.5 79.5q-103 0 -188 -36.5t-142 -97
t-96.5 -142.5t-57 -171t-17.5 -184q0 -94 17.5 -182.5t57 -170.5t97.5 -142.5t145 -97t193 -36.5q85 0 153.5 21.5t118 62.5t85.5 92.5t64 120.5zM782 1608h-114v198h114v-198z" />
    <glyph glyph-name="cdotaccent" unicode="&#x10b;" horiz-adv-x="993" 
d="M815 301h109q-39 -146 -137 -236t-261 -90q-198 0 -319 141t-121 392q0 108 29 204t83.5 172t142.5 120.5t198 44.5q76 0 139 -20.5t105.5 -53.5t73.5 -77t46.5 -88t20.5 -89h-109q-25 101 -92 165t-186 64q-159 0 -248.5 -120.5t-89.5 -317.5q0 -191 86.5 -314.5
t240.5 -123.5q109 0 179.5 56t109.5 171zM571 1311h-106v200h106v-200z" />
    <glyph glyph-name="Ccaron" unicode="&#x10c;" horiz-adv-x="1372" 
d="M1169 385h115q-55 -184 -189 -292.5t-352 -108.5q-150 0 -271 57.5t-198 157.5t-118 231.5t-41 284.5q0 117 25 225.5t77 202t125.5 163t177 109t225.5 39.5q225 0 364.5 -113t176.5 -301h-115q-53 149 -154.5 228.5t-277.5 79.5q-103 0 -188 -36.5t-142 -97
t-96.5 -142.5t-57 -171t-17.5 -184q0 -94 17.5 -182.5t57 -170.5t97.5 -142.5t145 -97t193 -36.5q85 0 153.5 21.5t118 62.5t85.5 92.5t64 120.5zM795 1573h-125l-271 260h140l194 -188l213 188h133z" />
    <glyph glyph-name="ccaron" unicode="&#x10d;" horiz-adv-x="993" 
d="M815 301h109q-39 -146 -137 -236t-261 -90q-198 0 -319 141t-121 392q0 108 29 204t83.5 172t142.5 120.5t198 44.5q76 0 139 -20.5t105.5 -53.5t73.5 -77t46.5 -88t20.5 -89h-109q-25 101 -92 165t-186 64q-159 0 -248.5 -120.5t-89.5 -317.5q0 -191 86.5 -314.5
t240.5 -123.5q109 0 179.5 56t109.5 171zM584 1196h-127l-217 315h120l160 -239l158 239h119z" />
    <glyph glyph-name="Dcaron" unicode="&#x10e;" horiz-adv-x="1458" 
d="M201 0v1434h477q297 0 481 -192.5t184 -512.5q0 -212 -82.5 -378t-235 -258.5t-351.5 -92.5h-473zM315 1327v-1221h344q110 0 202 30.5t158 85.5t112 132t68 170t22 199q0 121 -33.5 227t-99.5 191.5t-176.5 135.5t-252.5 50h-344zM700 1579h-125l-270 260h139l195 -188
l213 188h133z" />
    <glyph glyph-name="dcaron" unicode="&#x10f;" horiz-adv-x="1171" 
d="M856 1509h107v-1214q0 -193 2 -295h-103q-6 38 -6 170q-81 -195 -344 -195q-197 0 -311.5 145.5t-114.5 379.5q0 240 123.5 394.5t329.5 154.5q73 0 131 -14t94 -38t57.5 -48t34.5 -52v612zM199 504q0 -202 90.5 -315t228.5 -113q98 0 166 32.5t106 95.5t54 143.5
t16 189.5q0 83 -8.5 144.5t-30.5 114t-58 85t-92.5 51t-133.5 18.5q-155 0 -246.5 -117.5t-91.5 -328.5zM1206 1030h-100l-6 479h112z" />
    <glyph glyph-name="Dcroat" unicode="&#x110;" horiz-adv-x="1474" 
d="M37 788h184v646h477q297 0 481.5 -192.5t184.5 -512.5q0 -212 -83 -378t-235.5 -258.5t-351.5 -92.5h-473v688h-184v100zM336 1327v-539h414v-100h-414v-582h344q137 0 245 46.5t176.5 130t104 195.5t35.5 245q0 121 -33 227t-99 191.5t-176.5 135.5t-252.5 50h-344z" />
    <glyph glyph-name="dcroat" unicode="&#x111;" horiz-adv-x="1128" 
d="M856 1509h107v-202h151v-86h-151v-926q0 -193 2 -295h-103q-6 38 -6 178q-87 -203 -342 -203q-133 0 -231.5 70.5t-147.5 188.5t-49 266q0 150 53 273.5t157.5 199.5t242.5 76q245 0 317 -168v340h-457v86h457v202zM197 504q0 -191 92.5 -307.5t230.5 -116.5
q78 0 137.5 23.5t97.5 63.5t62 99t33.5 124.5t9.5 146.5q0 70 -8 126.5t-30 110.5t-57 91t-93 59t-135 22q-153 0 -246.5 -119.5t-93.5 -322.5z" />
    <glyph glyph-name="Emacron" unicode="&#x112;" horiz-adv-x="1196" 
d="M1044 809v-107h-729v-596h799l-16 -106h-897v1434h880v-107h-766v-518h729zM375 1751h540v-102h-540v102z" />
    <glyph glyph-name="emacron" unicode="&#x113;" horiz-adv-x="1030" 
d="M946 500h-751q1 -196 91 -311t238 -115q68 0 120 17t85 48.5t51.5 60t34.5 66.5h111q-18 -56 -47.5 -103.5t-76.5 -92t-119.5 -70t-162.5 -25.5q-113 0 -199 45.5t-136 122.5t-74.5 168t-24.5 193q0 113 28 210t81.5 172.5t140 119t196.5 43.5q91 0 164 -30t119 -77.5
t77 -110t43.5 -124t12.5 -123.5q0 -57 -2 -84zM201 592h637q-2 157 -83.5 257.5t-226.5 100.5q-288 0 -327 -358zM268 1419h537v-100h-537v100z" />
    <glyph glyph-name="Ebreve" unicode="&#x114;" horiz-adv-x="1196" 
d="M1044 809v-107h-729v-596h799l-16 -106h-897v1434h880v-107h-766v-518h729zM356 1819h99q14 -70 64 -110t132 -40q168 0 201 150h94q-17 -115 -94.5 -181.5t-200.5 -66.5q-136 0 -210.5 71.5t-84.5 176.5z" />
    <glyph glyph-name="ebreve" unicode="&#x115;" horiz-adv-x="1030" 
d="M946 500h-751q1 -196 91 -311t238 -115q68 0 120 17t85 48.5t51.5 60t34.5 66.5h111q-18 -56 -47.5 -103.5t-76.5 -92t-119.5 -70t-162.5 -25.5q-113 0 -199 45.5t-136 122.5t-74.5 168t-24.5 193q0 113 28 210t81.5 172.5t140 119t196.5 43.5q91 0 164 -30t119 -77.5
t77 -110t43.5 -124t12.5 -123.5q0 -57 -2 -84zM201 592h637q-2 157 -83.5 257.5t-226.5 100.5q-288 0 -327 -358zM260 1475h90q15 -72 61.5 -118t123.5 -46q47 0 82 14t55.5 39.5t31.5 51t19 59.5h90q-16 -118 -88 -190.5t-190 -72.5q-66 0 -118.5 23t-84.5 61.5t-50 83.5
t-22 95z" />
    <glyph glyph-name="Edotaccent" unicode="&#x116;" horiz-adv-x="1196" 
d="M1044 809v-107h-729v-596h799l-16 -106h-897v1434h880v-107h-766v-518h729zM696 1612h-114v198h114v-198z" />
    <glyph glyph-name="edotaccent" unicode="&#x117;" horiz-adv-x="1030" 
d="M946 500h-751q1 -196 91 -311t238 -115q68 0 120 17t85 48.5t51.5 60t34.5 66.5h111q-18 -56 -47.5 -103.5t-76.5 -92t-119.5 -70t-162.5 -25.5q-113 0 -199 45.5t-136 122.5t-74.5 168t-24.5 193q0 113 28 210t81.5 172.5t140 119t196.5 43.5q91 0 164 -30t119 -77.5
t77 -110t43.5 -124t12.5 -123.5q0 -57 -2 -84zM201 592h637q-2 157 -83.5 257.5t-226.5 100.5q-288 0 -327 -358zM590 1311h-107v200h107v-200z" />
    <glyph glyph-name="Eogonek" unicode="&#x118;" horiz-adv-x="1196" 
d="M1044 809v-107h-729v-596h799l-16 -106h-84q-31 -31 -48.5 -50t-42.5 -52.5t-37 -68t-12 -69.5q0 -56 34.5 -88t88.5 -32q77 0 129 22v-98q-52 -35 -149 -35q-102 0 -162.5 58t-60.5 159q0 119 131 254h-684v1434h880v-107h-766v-518h729z" />
    <glyph glyph-name="eogonek" unicode="&#x119;" horiz-adv-x="1030" 
d="M946 500h-751q1 -196 91 -311t238 -115q68 0 120 17t85 48.5t51.5 60t34.5 66.5h111q-29 -90 -92 -164t-166 -106q-37 -37 -61 -65.5t-47 -75.5t-23 -91q0 -56 34 -88t88 -32q77 0 129 22v-98q-52 -35 -149 -35q-102 0 -162.5 58t-60.5 159q0 105 104 225
q-113 0 -199 45.5t-136 122.5t-74.5 168t-24.5 193q0 113 28 210t81.5 172.5t140 119t196.5 43.5q91 0 164 -30t119 -77.5t77 -110t43.5 -124t12.5 -123.5q0 -57 -2 -84zM201 592h637q-2 157 -83.5 257.5t-226.5 100.5q-288 0 -327 -358z" />
    <glyph glyph-name="Ecaron" unicode="&#x11a;" horiz-adv-x="1196" 
d="M1044 809v-107h-729v-596h799l-16 -106h-897v1434h880v-107h-766v-518h729zM713 1565h-125l-271 260h140l194 -189l213 189h133z" />
    <glyph glyph-name="ecaron" unicode="&#x11b;" horiz-adv-x="1030" 
d="M946 500h-751q1 -196 91 -311t238 -115q68 0 120 17t85 48.5t51.5 60t34.5 66.5h111q-18 -56 -47.5 -103.5t-76.5 -92t-119.5 -70t-162.5 -25.5q-113 0 -199 45.5t-136 122.5t-74.5 168t-24.5 193q0 113 28 210t81.5 172.5t140 119t196.5 43.5q91 0 164 -30t119 -77.5
t77 -110t43.5 -124t12.5 -123.5q0 -57 -2 -84zM201 592h637q-2 157 -83.5 257.5t-226.5 100.5q-288 0 -327 -358zM602 1196h-127l-217 315h121l160 -239l157 239h119z" />
    <glyph glyph-name="Gcircumflex" unicode="&#x11c;" horiz-adv-x="1462" 
d="M1309 756v-756h-95q-13 26 -16 227q-126 -243 -461 -243q-151 0 -270.5 55t-195.5 152.5t-116 228.5t-40 285q0 217 72.5 384t220 266t352.5 99q231 0 379 -114t182 -312h-115q-98 320 -450 320q-130 0 -230.5 -48.5t-162.5 -135.5t-93.5 -201.5t-31.5 -251.5
q0 -100 18.5 -190.5t58.5 -170t98.5 -137.5t143 -91.5t186.5 -33.5q104 0 183 27.5t130 74.5t83.5 117.5t45.5 150t13 177.5v16h-459v105h570zM694 1825h125l271 -260h-140l-194 186l-213 -186h-133z" />
    <glyph glyph-name="gcircumflex" unicode="&#x11d;" horiz-adv-x="1120" 
d="M954 727v-655q0 -502 -444 -502q-97 0 -172.5 25.5t-122 70t-73 96.5t-36.5 113h109q27 -102 106.5 -154.5t192.5 -52.5q97 0 164 30t104.5 89t53.5 134t16 177v107q-42 -103 -124 -154t-218 -51q-184 0 -304 140t-120 372q0 126 34.5 228.5t94 169.5t139 103t170.5 36
q75 0 134.5 -16t97.5 -43t61 -57t35 -63q5 137 6 154h100q0 -11 -2 -125.5t-2 -171.5zM199 516q0 -183 89 -299.5t234 -116.5q181 0 256.5 110.5t75.5 321.5q0 210 -74.5 314t-251.5 104q-85 0 -149.5 -34.5t-103 -95.5t-57.5 -137.5t-19 -166.5zM500 1511h118l222 -315
h-121l-160 242l-158 -242h-118z" />
    <glyph glyph-name="Gbreve" unicode="&#x11e;" horiz-adv-x="1462" 
d="M1309 756v-756h-95q-13 26 -16 227q-126 -243 -461 -243q-151 0 -270.5 55t-195.5 152.5t-116 228.5t-40 285q0 217 72.5 384t220 266t352.5 99q231 0 379 -114t182 -312h-115q-98 320 -450 320q-130 0 -230.5 -48.5t-162.5 -135.5t-93.5 -201.5t-31.5 -251.5
q0 -100 18.5 -190.5t58.5 -170t98.5 -137.5t143 -91.5t186.5 -33.5q104 0 183 27.5t130 74.5t83.5 117.5t45.5 150t13 177.5v16h-459v105h570zM457 1827h98q14 -70 64.5 -110t132.5 -40q167 0 200 150h95q-17 -115 -94.5 -181.5t-200.5 -66.5q-136 0 -210.5 71.5
t-84.5 176.5z" />
    <glyph glyph-name="gbreve" unicode="&#x11f;" horiz-adv-x="1120" 
d="M954 727v-655q0 -502 -444 -502q-97 0 -172.5 25.5t-122 70t-73 96.5t-36.5 113h109q27 -102 106.5 -154.5t192.5 -52.5q97 0 164 30t104.5 89t53.5 134t16 177v107q-42 -103 -124 -154t-218 -51q-184 0 -304 140t-120 372q0 126 34.5 228.5t94 169.5t139 103t170.5 36
q75 0 134.5 -16t97.5 -43t61 -57t35 -63q5 137 6 154h100q0 -11 -2 -125.5t-2 -171.5zM199 516q0 -183 89 -299.5t234 -116.5q181 0 256.5 110.5t75.5 321.5q0 210 -74.5 314t-251.5 104q-85 0 -149.5 -34.5t-103 -95.5t-57.5 -137.5t-19 -166.5zM285 1475h90
q15 -72 61 -118t123 -46q48 0 83 14t55.5 39.5t31.5 51t19 59.5h90q-16 -118 -88.5 -190.5t-190.5 -72.5q-66 0 -118.5 23t-84.5 61.5t-49.5 83.5t-21.5 95z" />
    <glyph glyph-name="Gdotaccent" unicode="&#x120;" horiz-adv-x="1462" 
d="M1309 756v-756h-95q-13 26 -16 227q-126 -243 -461 -243q-151 0 -270.5 55t-195.5 152.5t-116 228.5t-40 285q0 217 72.5 384t220 266t352.5 99q231 0 379 -114t182 -312h-115q-98 320 -450 320q-130 0 -230.5 -48.5t-162.5 -135.5t-93.5 -201.5t-31.5 -251.5
q0 -100 18.5 -190.5t58.5 -170t98.5 -137.5t143 -91.5t186.5 -33.5q104 0 183 27.5t130 74.5t83.5 117.5t45.5 150t13 177.5v16h-459v105h570zM807 1593h-115v199h115v-199z" />
    <glyph glyph-name="gdotaccent" unicode="&#x121;" horiz-adv-x="1120" 
d="M954 727v-655q0 -502 -444 -502q-97 0 -172.5 25.5t-122 70t-73 96.5t-36.5 113h109q27 -102 106.5 -154.5t192.5 -52.5q97 0 164 30t104.5 89t53.5 134t16 177v107q-42 -103 -124 -154t-218 -51q-184 0 -304 140t-120 372q0 126 34.5 228.5t94 169.5t139 103t170.5 36
q75 0 134.5 -16t97.5 -43t61 -57t35 -63q5 137 6 154h100q0 -11 -2 -125.5t-2 -171.5zM199 516q0 -183 89 -299.5t234 -116.5q181 0 256.5 110.5t75.5 321.5q0 210 -74.5 314t-251.5 104q-85 0 -149.5 -34.5t-103 -95.5t-57.5 -137.5t-19 -166.5zM614 1311h-106v200h106
v-200z" />
    <glyph glyph-name="uni0122" unicode="&#x122;" horiz-adv-x="1462" 
d="M1309 756v-756h-95q-13 26 -16 227q-126 -243 -461 -243q-151 0 -270.5 55t-195.5 152.5t-116 228.5t-40 285q0 217 72.5 384t220 266t352.5 99q231 0 379 -114t182 -312h-115q-98 320 -450 320q-130 0 -230.5 -48.5t-162.5 -135.5t-93.5 -201.5t-31.5 -251.5
q0 -100 18.5 -190.5t58.5 -170t98.5 -137.5t143 -91.5t186.5 -33.5q104 0 183 27.5t130 74.5t83.5 117.5t45.5 150t13 177.5v16h-459v105h570zM696 -504h-100q105 205 117 389h114q-4 -106 -42.5 -213t-88.5 -176z" />
    <glyph glyph-name="uni0123" unicode="&#x123;" horiz-adv-x="1120" 
d="M602 1614h103q-116 -237 -130 -420h-110q9 105 48.5 222.5t88.5 197.5zM954 727v-655q0 -502 -444 -502q-97 0 -172.5 25.5t-122 70t-73 96.5t-36.5 113h109q27 -102 106.5 -154.5t192.5 -52.5q97 0 164 30t104.5 89t53.5 134t16 177v107q-42 -103 -124 -154t-218 -51
q-184 0 -304 140t-120 372q0 126 34.5 228.5t94 169.5t139 103t170.5 36q75 0 134.5 -16t97.5 -43t61 -57t35 -63q5 137 6 154h100q0 -11 -2 -125.5t-2 -171.5zM199 516q0 -183 89 -299.5t234 -116.5q181 0 256.5 110.5t75.5 321.5q0 210 -74.5 314t-251.5 104
q-85 0 -149.5 -34.5t-103 -95.5t-57.5 -137.5t-19 -166.5z" />
    <glyph glyph-name="Hcircumflex" unicode="&#x124;" horiz-adv-x="1482" 
d="M201 0v1434h114v-623h854v623h115v-1434h-115v705h-854v-705h-114zM686 1825h125l270 -260h-139l-194 186l-213 -186h-134z" />
    <glyph glyph-name="hcircumflex" unicode="&#x125;" horiz-adv-x="1124" 
d="M147 1829h140l227 -209h-137l-160 137l-160 -137h-133zM168 1509h106v-655q105 195 336 195q48 0 92.5 -10t92 -37.5t82 -70t57 -115t22.5 -165.5v-651h-106v631q0 152 -66.5 233.5t-193.5 81.5q-153 0 -234.5 -95t-81.5 -280v-571h-106v1509z" />
    <glyph glyph-name="Hbar" unicode="&#x126;" horiz-adv-x="1482" 
d="M61 1180h140v254h114v-254h854v254h115v-254h139v-103h-139v-1077h-115v702h-854v-702h-114v1077h-140v103zM315 811h854v266h-854v-266z" />
    <glyph glyph-name="hbar" unicode="&#x127;" horiz-adv-x="1124" 
d="M168 1509h106v-202h435v-86h-435v-375q109 203 342 203q48 0 92 -10t90.5 -37.5t80.5 -70t55.5 -115t21.5 -165.5v-651h-106v631q0 153 -64 234t-190 81q-151 0 -236.5 -100t-85.5 -275v-571h-106v1221h-174v86h174v202z" />
    <glyph glyph-name="Itilde" unicode="&#x128;" horiz-adv-x="514" 
d="M201 1434h114v-1434h-114v1434zM23 1583h-95v27q0 186 160 186q51 0 119.5 -29t129.5 -57.5t95 -28.5t52 22.5t18 76.5v26h88v-37q0 -99 -39.5 -143.5t-116.5 -44.5q-51 0 -117.5 30.5t-128.5 60.5t-102 30q-63 0 -63 -82v-37z" />
    <glyph glyph-name="itilde" unicode="&#x129;" horiz-adv-x="440" 
d="M168 0v1024h106v-1024h-106zM12 1260h-88v34q0 179 152 179q37 0 81 -17.5t77.5 -38t71 -38t63.5 -17.5q33 0 48 20.5t15 73.5v25h86v-35q0 -186 -149 -186q-47 0 -100.5 28.5t-105 57t-91.5 28.5q-60 0 -60 -80v-34z" />
    <glyph glyph-name="Imacron" unicode="&#x12a;" horiz-adv-x="514" 
d="M201 1434h114v-1434h-114v1434zM-12 1710h540v-102h-540v102z" />
    <glyph glyph-name="imacron" unicode="&#x12b;" horiz-adv-x="440" 
d="M168 0v1024h106v-1024h-106zM-47 1419h536v-100h-536v100z" />
    <glyph glyph-name="Iogonek" unicode="&#x12e;" horiz-adv-x="514" 
d="M201 1434h114v-1434q-30 -30 -48 -50t-42.5 -53t-36.5 -67.5t-12 -69.5q0 -56 34.5 -88t88.5 -32q77 0 129 22v-98q-52 -35 -149 -35q-102 0 -163 58.5t-61 158.5q0 122 146 268v1420z" />
    <glyph glyph-name="iogonek" unicode="&#x12f;" horiz-adv-x="440" 
d="M387 -436q-52 -35 -149 -35q-102 0 -163 58.5t-61 158.5q0 131 154 277v1001h106v-1024q-30 -30 -48 -50t-42.5 -53t-36.5 -67.5t-12 -69.5q0 -56 34.5 -88t88.5 -32q77 0 129 22v-98zM274 1309h-106v200h106v-200z" />
    <glyph glyph-name="Idotaccent" unicode="&#x130;" horiz-adv-x="514" 
d="M201 1434h114v-1434h-114v1434zM315 1593h-114v199h114v-199z" />
    <glyph glyph-name="dotlessi" unicode="&#x131;" horiz-adv-x="440" 
d="M168 0v1024h106v-1024h-106z" />
    <glyph glyph-name="Jcircumflex" unicode="&#x134;" horiz-adv-x="706" 
d="M516 1434v-1041q0 -116 -24.5 -198.5t-71 -128.5t-104.5 -66t-134 -20q-55 0 -125 12v104q48 -10 127 -10q56 0 96.5 17.5t63.5 44t36 69t17 82.5t4 94v1041h115zM401 1825h125l271 -260h-140l-194 186l-213 -186h-133z" />
    <glyph glyph-name="jcircumflex" unicode="&#x135;" horiz-adv-x="440" 
d="M168 1024h106v-1094q0 -204 -56 -282t-195 -78q-36 0 -60 4v100q20 -2 55 -2q91 0 120.5 57.5t29.5 188.5v1106zM160 1511h119l221 -315h-121l-160 242l-158 -242h-118z" />
    <glyph glyph-name="uni0136" unicode="&#x136;" horiz-adv-x="1259" 
d="M201 0v1434h114v-744q34 33 184 175.5t314.5 300.5t276.5 268h153l-641 -611l678 -823h-143l-619 750l-203 -181v-569h-114zM610 -504h-100q105 205 117 389h114q-4 -106 -42.5 -213t-88.5 -176z" />
    <glyph glyph-name="uni0137" unicode="&#x137;" horiz-adv-x="964" 
d="M274 1509v-1011q188 200 514 526h136l-404 -408l455 -616h-131l-402 549l-168 -164v-385h-106v1509h106zM455 -504h-101q105 205 117 389h115q-4 -106 -42.5 -213t-88.5 -176z" />
    <glyph glyph-name="kgreenlandic" unicode="&#x138;" horiz-adv-x="960" 
d="M274 1024v-512q42 45 131 134t219.5 219t159.5 159h136q-70 -69 -214.5 -209.5t-209.5 -204.5q283 -370 475 -610h-131q-32 41 -192 246.5t-230 296.5l-144 -140v-403h-106v1024h106z" />
    <glyph glyph-name="Lacute" unicode="&#x139;" horiz-adv-x="1116" 
d="M201 0v1434h114v-1328h768l-20 -106h-862zM506 1849h160l-344 -280h-132z" />
    <glyph glyph-name="lacute" unicode="&#x13a;" horiz-adv-x="440" 
d="M416 1851h147l-289 -231h-114zM274 0h-106v1509h106v-1509z" />
    <glyph glyph-name="uni013B" unicode="&#x13b;" horiz-adv-x="1116" 
d="M201 0v1434h114v-1328h768l-20 -106h-862zM584 -504h-101q105 205 117 389h115q-4 -106 -42.5 -213t-88.5 -176z" />
    <glyph glyph-name="uni013C" unicode="&#x13c;" horiz-adv-x="440" 
d="M274 0h-106v1509h106v-1509zM150 -504h-101q105 205 117 389h115q-4 -106 -42.5 -213t-88.5 -176z" />
    <glyph glyph-name="Lcaron" unicode="&#x13d;" horiz-adv-x="1116" 
d="M201 0v1434h114v-1328h768l-20 -106h-862zM807 956h-100l-7 480h113z" />
    <glyph glyph-name="lcaron" unicode="&#x13e;" horiz-adv-x="524" 
d="M274 0h-106v1509h106v-1509zM547 1030h-101l-6 479h113z" />
    <glyph glyph-name="Ldot" unicode="&#x13f;" horiz-adv-x="1116" 
d="M817 635h-108v266h108v-266zM201 0v1434h114v-1328h768l-20 -106h-862z" />
    <glyph glyph-name="ldot" unicode="&#x140;" horiz-adv-x="444" 
d="M481 760h-104v264h104v-264zM274 0h-106v1509h106v-1509z" />
    <glyph glyph-name="Lslash" unicode="&#x141;" horiz-adv-x="1136" 
d="M664 881l-328 -162v-613h768l-21 -106h-862v662l-201 -99v105l201 102v664h115v-607l328 166v-112z" />
    <glyph glyph-name="lslash" unicode="&#x142;" horiz-adv-x="477" 
d="M293 0h-107v784l-141 -82v113l141 80v614h107v-553l158 91v-111l-158 -90v-846z" />
    <glyph glyph-name="Nacute" unicode="&#x143;" horiz-adv-x="1507" 
d="M315 0h-114v1434h168q762 -1176 831 -1295h2q-10 171 -10 649v646h117v-1434h-156q-120 186 -463 722.5t-381 594.5h-2q8 -149 8 -658v-659zM979 1845h160l-344 -280h-131z" />
    <glyph glyph-name="nacute" unicode="&#x144;" horiz-adv-x="1124" 
d="M168 0v766q0 176 -2 258h104q3 -24 4.5 -98t-0.5 -95q15 35 32.5 63t46 58t63 50.5t85.5 33.5t111 13q72 0 132 -21t108.5 -65t76 -120t27.5 -179v-664h-106v647q0 141 -61.5 220t-190.5 79q-70 0 -125.5 -23t-92.5 -62t-61 -93.5t-34.5 -114.5t-10.5 -129v-524h-106z
M758 1530h139l-305 -322h-115z" />
    <glyph glyph-name="uni0145" unicode="&#x145;" horiz-adv-x="1507" 
d="M315 0h-114v1434h168q762 -1176 831 -1295h2q-10 171 -10 649v646h117v-1434h-156q-120 186 -463 722.5t-381 594.5h-2q8 -149 8 -658v-659zM719 -504h-101q105 205 117 389h115q-4 -106 -42.5 -213t-88.5 -176z" />
    <glyph glyph-name="uni0146" unicode="&#x146;" horiz-adv-x="1124" 
d="M168 0v766q0 176 -2 258h104q3 -24 4.5 -98t-0.5 -95q15 35 32.5 63t46 58t63 50.5t85.5 33.5t111 13q72 0 132 -21t108.5 -65t76 -120t27.5 -179v-664h-106v647q0 141 -61.5 220t-190.5 79q-70 0 -125.5 -23t-92.5 -62t-61 -93.5t-34.5 -114.5t-10.5 -129v-524h-106z
M502 -504h-101q105 205 117 389h115q-4 -106 -42.5 -213t-88.5 -176z" />
    <glyph glyph-name="Ncaron" unicode="&#x147;" horiz-adv-x="1507" 
d="M315 0h-114v1434h168q762 -1176 831 -1295h2q-10 171 -10 649v646h117v-1434h-156q-120 186 -463 722.5t-381 594.5h-2q8 -149 8 -658v-659zM809 1565h-125l-270 260h139l195 -189l213 189h133z" />
    <glyph glyph-name="ncaron" unicode="&#x148;" horiz-adv-x="1124" 
d="M168 0v766q0 176 -2 258h104q3 -24 4.5 -98t-0.5 -95q15 35 32.5 63t46 58t63 50.5t85.5 33.5t111 13q72 0 132 -21t108.5 -65t76 -120t27.5 -179v-664h-106v647q0 141 -61.5 220t-190.5 79q-70 0 -125.5 -23t-92.5 -62t-61 -93.5t-34.5 -114.5t-10.5 -129v-524h-106z
M629 1196h-127l-217 315h121l159 -239l158 239h119z" />
    <glyph glyph-name="napostrophe" unicode="&#x149;" horiz-adv-x="1124" 
d="M143 1198h-92q63 207 78 399h111q-6 -105 -35.5 -219.5t-61.5 -179.5zM168 0v766q0 176 -2 258h104q3 -24 4.5 -98t-0.5 -95q15 35 32.5 63t46 58t63 50.5t85.5 33.5t111 13q72 0 132 -21t108.5 -65t76 -120t27.5 -179v-664h-106v647q0 141 -61.5 220t-190.5 79
q-70 0 -125.5 -23t-92.5 -62t-61 -93.5t-34.5 -114.5t-10.5 -129v-524h-106z" />
    <glyph glyph-name="Omacron" unicode="&#x14c;" horiz-adv-x="1521" 
d="M768 1454q193 0 339.5 -94.5t223 -259t76.5 -373.5q0 -119 -25 -228t-78 -204t-129 -165t-184 -110t-237 -40q-196 0 -343 99t-221.5 264.5t-74.5 373.5q0 154 43 287t123 233.5t205.5 158.5t281.5 58zM764 1348q-107 0 -195.5 -34t-149 -93t-102 -139t-60.5 -170
t-19 -189q0 -125 34 -239t98 -203t165 -142t225 -53q108 0 196 34t148 93.5t101.5 141t60 174t18.5 196.5q0 126 -33.5 237.5t-97 198t-164 137t-225.5 50.5zM489 1749h541v-102h-541v102z" />
    <glyph glyph-name="omacron" unicode="&#x14d;" horiz-adv-x="1085" 
d="M547 1049q204 0 328 -147t124 -388q0 -108 -30 -204.5t-86 -171.5t-145.5 -119t-200.5 -44q-206 0 -328.5 150.5t-122.5 386.5q0 150 52 270t158 193.5t251 73.5zM541 950q-166 0 -254 -122t-88 -316q0 -187 94 -312.5t252 -125.5q161 0 251.5 121t90.5 317
q0 189 -91.5 313.5t-254.5 124.5zM274 1419h537v-100h-537v100z" />
    <glyph glyph-name="Ohungarumlaut" unicode="&#x150;" horiz-adv-x="1521" 
d="M768 1454q193 0 339.5 -94.5t223 -259t76.5 -373.5q0 -119 -25 -228t-78 -204t-129 -165t-184 -110t-237 -40q-196 0 -343 99t-221.5 264.5t-74.5 373.5q0 154 43 287t123 233.5t205.5 158.5t281.5 58zM764 1348q-107 0 -195.5 -34t-149 -93t-102 -139t-60.5 -170
t-19 -189q0 -125 34 -239t98 -203t165 -142t225 -53q108 0 196 34t148 93.5t101.5 141t60 174t18.5 196.5q0 126 -33.5 237.5t-97 198t-164 137t-225.5 50.5zM741 1851h140l-254 -280h-113zM1071 1851h137l-254 -280h-114z" />
    <glyph glyph-name="ohungarumlaut" unicode="&#x151;" horiz-adv-x="1085" 
d="M547 1049q204 0 328 -147t124 -388q0 -108 -30 -204.5t-86 -171.5t-145.5 -119t-200.5 -44q-206 0 -328.5 150.5t-122.5 386.5q0 150 52 270t158 193.5t251 73.5zM541 950q-166 0 -254 -122t-88 -316q0 -187 94 -312.5t252 -125.5q161 0 251.5 121t90.5 317
q0 189 -91.5 313.5t-254.5 124.5zM399 1188h-104l209 323h123zM741 1188h-102l207 323h127z" />
    <glyph glyph-name="OE" unicode="&#x152;" horiz-adv-x="2070" 
d="M1958 1434v-111h-733v-512h694v-113h-694v-587h766l-19 -111h-842q-136 -20 -272 -20q-232 1 -401 94.5t-255.5 259.5t-86.5 385q0 158 52.5 293t149 232t240 151.5t317.5 54.5q173 0 275 -16h809zM1104 106v1221q-72 19 -227 19q-141 0 -257.5 -40t-202 -116.5
t-132.5 -195t-47 -269.5q0 -159 48.5 -283t134 -201.5t198.5 -117t247 -39.5q61 0 137.5 6.5t100.5 15.5z" />
    <glyph glyph-name="oe" unicode="&#x153;" horiz-adv-x="1839" 
d="M1327 -25q-143 0 -239 73t-144 194q-56 -124 -159.5 -195.5t-247.5 -71.5q-206 0 -328.5 150.5t-122.5 386.5q0 150 52 270t158 193.5t251 73.5q137 0 240.5 -69.5t158.5 -193.5q52 122 151.5 192.5t241.5 70.5q88 0 160.5 -30t119 -77.5t78.5 -109.5t46 -124.5
t14 -123.5q0 -57 -2 -84h-754q1 -194 94 -310t236 -116q66 0 118 17t85.5 48.5t53.5 60.5t36 66h109q-17 -55 -48.5 -103.5t-79 -92t-119.5 -69.5t-159 -26zM541 950q-166 0 -254 -122t-88 -316q0 -187 94 -312.5t252 -125.5q161 0 251.5 121t90.5 317q0 189 -91.5 313.5
t-254.5 124.5zM1008 592h639q-2 154 -87 255.5t-225 102.5q-150 1 -229.5 -94t-97.5 -264z" />
    <glyph glyph-name="Racute" unicode="&#x154;" horiz-adv-x="1288" 
d="M666 668h-349v-668h-116v1434h516q208 0 320 -102t112 -275q0 -133 -72 -221t-194 -115q117 -28 180 -115t63 -260v-55q0 -18 -0.5 -62t-0.5 -69.5t1.5 -60.5t6 -59t12.5 -40h-117q-8 18 -12.5 41t-6 57.5t-2 57.5t0 73t0.5 70v37q0 91 -15 150.5t-53.5 102t-104.5 61
t-169 18.5zM317 1327v-555h345q186 0 275 70t89 211q0 133 -85 203.5t-251 70.5h-373zM868 1845h160l-344 -280h-131z" />
    <glyph glyph-name="racute" unicode="&#x155;" horiz-adv-x="667" 
d="M168 0v745q0 76 -0.5 137.5t-1 96.5t-0.5 45h104q4 -62 4 -227q44 115 137.5 180.5t219.5 71.5v-113q-163 -11 -260 -118t-97 -288v-530h-106zM551 1530h139l-305 -322h-115z" />
    <glyph glyph-name="uni0156" unicode="&#x156;" horiz-adv-x="1288" 
d="M666 668h-349v-668h-116v1434h516q208 0 320 -102t112 -275q0 -133 -72 -221t-194 -115q117 -28 180 -115t63 -260v-55q0 -18 -0.5 -62t-0.5 -69.5t1.5 -60.5t6 -59t12.5 -40h-117q-8 18 -12.5 41t-6 57.5t-2 57.5t0 73t0.5 70v37q0 91 -15 150.5t-53.5 102t-104.5 61
t-169 18.5zM317 1327v-555h345q186 0 275 70t89 211q0 133 -85 203.5t-251 70.5h-373zM608 -504h-100q105 205 117 389h114q-4 -106 -42.5 -213t-88.5 -176z" />
    <glyph glyph-name="uni0157" unicode="&#x157;" horiz-adv-x="667" 
d="M168 0v745q0 76 -0.5 137.5t-1 96.5t-0.5 45h104q4 -62 4 -227q44 115 137.5 180.5t219.5 71.5v-113q-163 -11 -260 -118t-97 -288v-530h-106zM150 -504h-101q105 205 117 389h115q-4 -106 -42.5 -213t-88.5 -176z" />
    <glyph glyph-name="Rcaron" unicode="&#x158;" horiz-adv-x="1288" 
d="M666 668h-349v-668h-116v1434h516q208 0 320 -102t112 -275q0 -133 -72 -221t-194 -115q117 -28 180 -115t63 -260v-55q0 -18 -0.5 -62t-0.5 -69.5t1.5 -60.5t6 -59t12.5 -40h-117q-8 18 -12.5 41t-6 57.5t-2 57.5t0 73t0.5 70v37q0 91 -15 150.5t-53.5 102t-104.5 61
t-169 18.5zM317 1327v-555h345q186 0 275 70t89 211q0 133 -85 203.5t-251 70.5h-373zM698 1565h-125l-270 260h139l195 -189l213 189h133z" />
    <glyph glyph-name="rcaron" unicode="&#x159;" horiz-adv-x="667" 
d="M168 0v745q0 76 -0.5 137.5t-1 96.5t-0.5 45h104q4 -62 4 -227q44 115 137.5 180.5t219.5 71.5v-113q-163 -11 -260 -118t-97 -288v-530h-106zM430 1196h-127l-217 315h121l160 -239l157 239h119z" />
    <glyph glyph-name="Sacute" unicode="&#x15a;" horiz-adv-x="1204" 
d="M96 385h119q69 -301 403 -301q94 0 165 22.5t112.5 62.5t61.5 90t20 110q0 64 -16.5 110.5t-58.5 89t-118 76t-192 62.5q-234 58 -334 143t-100 237q0 73 27 137.5t79.5 116.5t139.5 82.5t198 30.5q114 0 203.5 -32.5t144 -87t84.5 -117t37 -132.5h-119q-56 263 -356 263
q-152 0 -233.5 -66t-81.5 -186q0 -116 77 -175.5t279 -107.5q117 -29 202.5 -67.5t135 -78.5t78.5 -91t38 -96t9 -103q0 -81 -30 -151t-88 -124.5t-153.5 -86t-216.5 -31.5q-104 0 -188.5 23.5t-140.5 62t-96.5 91.5t-61 108t-29.5 116zM827 1864h160l-344 -281h-131z" />
    <glyph glyph-name="sacute" unicode="&#x15b;" horiz-adv-x="913" 
d="M63 283h109q27 -101 99.5 -156t189.5 -55q129 0 191.5 53t62.5 143q0 62 -22 100t-82 69.5t-173 58.5q-131 31 -204.5 71.5t-100.5 89t-27 119.5q0 115 87.5 194t252.5 79q84 0 152 -24t110.5 -65.5t67.5 -91.5t31 -106h-107q-7 35 -24 66.5t-46.5 60.5t-78 46t-109.5 17
q-121 0 -174 -48.5t-53 -119.5t51.5 -111.5t198.5 -76.5q108 -26 179 -57.5t111 -71.5t56 -85t16 -106q0 -137 -102 -219t-266 -82q-172 0 -272.5 82.5t-123.5 225.5zM633 1530h139l-305 -322h-115z" />
    <glyph glyph-name="Scircumflex" unicode="&#x15c;" horiz-adv-x="1204" 
d="M96 385h119q69 -301 403 -301q94 0 165 22.5t112.5 62.5t61.5 90t20 110q0 64 -16.5 110.5t-58.5 89t-118 76t-192 62.5q-234 58 -334 143t-100 237q0 73 27 137.5t79.5 116.5t139.5 82.5t198 30.5q114 0 203.5 -32.5t144 -87t84.5 -117t37 -132.5h-119q-56 263 -356 263
q-152 0 -233.5 -66t-81.5 -186q0 -116 77 -175.5t279 -107.5q117 -29 202.5 -67.5t135 -78.5t78.5 -91t38 -96t9 -103q0 -81 -30 -151t-88 -124.5t-153.5 -86t-216.5 -31.5q-104 0 -188.5 23.5t-140.5 62t-96.5 91.5t-61 108t-29.5 116zM547 1825h125l270 -260h-139
l-195 186l-213 -186h-133z" />
    <glyph glyph-name="scircumflex" unicode="&#x15d;" horiz-adv-x="913" 
d="M63 283h109q27 -101 99.5 -156t189.5 -55q129 0 191.5 53t62.5 143q0 62 -22 100t-82 69.5t-173 58.5q-131 31 -204.5 71.5t-100.5 89t-27 119.5q0 115 87.5 194t252.5 79q84 0 152 -24t110.5 -65.5t67.5 -91.5t31 -106h-107q-7 35 -24 66.5t-46.5 60.5t-78 46t-109.5 17
q-121 0 -174 -48.5t-53 -119.5t51.5 -111.5t198.5 -76.5q108 -26 179 -57.5t111 -71.5t56 -85t16 -106q0 -137 -102 -219t-266 -82q-172 0 -272.5 82.5t-123.5 225.5zM395 1511h119l221 -315h-121l-159 242l-158 -242h-119z" />
    <glyph glyph-name="uni015E" unicode="&#x15e;" horiz-adv-x="1204" 
d="M96 385h119q69 -301 403 -301q94 0 165 22.5t112.5 62.5t61.5 90t20 110q0 64 -16.5 110.5t-58.5 89t-118 76t-192 62.5q-234 58 -334 143t-100 237q0 73 27 137.5t79.5 116.5t139.5 82.5t198 30.5q114 0 203.5 -32.5t144 -87t84.5 -117t37 -132.5h-119q-56 263 -356 263
q-152 0 -233.5 -66t-81.5 -186q0 -116 77 -175.5t279 -107.5q117 -29 202.5 -67.5t135 -78.5t78.5 -91t38 -96t9 -103q0 -77 -27 -144t-79.5 -120.5t-137.5 -87t-194 -39.5l-74 -99q26 -3 51.5 -9t55.5 -20.5t52 -34.5t37 -52t15 -72q0 -44 -14.5 -78.5t-37.5 -55.5
t-54.5 -34t-61 -18t-60.5 -5q-86 0 -147 27v100q60 -26 145 -26q123 0 123 82q0 108 -233 108v47l98 140q-92 6 -167 32t-125.5 64.5t-86.5 89.5t-55 103t-27 110z" />
    <glyph glyph-name="uni015F" unicode="&#x15f;" horiz-adv-x="913" 
d="M63 283h109q27 -101 99.5 -156t189.5 -55q129 0 191.5 53t62.5 143q0 62 -22 100t-82 69.5t-173 58.5q-131 31 -204.5 71.5t-100.5 89t-27 119.5q0 115 87.5 194t252.5 79q84 0 152 -24t110.5 -65.5t67.5 -91.5t31 -106h-107q-7 35 -24 66.5t-46.5 60.5t-78 46t-109.5 17
q-121 0 -174 -48.5t-53 -119.5t51.5 -111.5t198.5 -76.5q108 -26 179 -57.5t111 -71.5t56 -85t16 -106q0 -125 -86 -205t-229 -94l-68 -90q26 -3 51.5 -9t55.5 -20.5t52 -34.5t37 -52t15 -72q0 -55 -21.5 -94.5t-57 -59.5t-72 -28.5t-76.5 -8.5q-86 0 -147 27v100
q60 -26 145 -26q123 0 123 82q0 108 -234 108v47l93 131q-148 12 -236 93.5t-109 212.5z" />
    <glyph glyph-name="Scaron" unicode="&#x160;" horiz-adv-x="1204" 
d="M96 385h119q69 -301 403 -301q94 0 165 22.5t112.5 62.5t61.5 90t20 110q0 64 -16.5 110.5t-58.5 89t-118 76t-192 62.5q-234 58 -334 143t-100 237q0 73 27 137.5t79.5 116.5t139.5 82.5t198 30.5q114 0 203.5 -32.5t144 -87t84.5 -117t37 -132.5h-119q-56 263 -356 263
q-152 0 -233.5 -66t-81.5 -186q0 -116 77 -175.5t279 -107.5q117 -29 202.5 -67.5t135 -78.5t78.5 -91t38 -96t9 -103q0 -81 -30 -151t-88 -124.5t-153.5 -86t-216.5 -31.5q-104 0 -188.5 23.5t-140.5 62t-96.5 91.5t-61 108t-29.5 116zM657 1565h-125l-270 260h139
l195 -189l213 189h133z" />
    <glyph glyph-name="scaron" unicode="&#x161;" horiz-adv-x="913" 
d="M63 283h109q27 -101 99.5 -156t189.5 -55q129 0 191.5 53t62.5 143q0 62 -22 100t-82 69.5t-173 58.5q-131 31 -204.5 71.5t-100.5 89t-27 119.5q0 115 87.5 194t252.5 79q84 0 152 -24t110.5 -65.5t67.5 -91.5t31 -106h-107q-7 35 -24 66.5t-46.5 60.5t-78 46t-109.5 17
q-121 0 -174 -48.5t-53 -119.5t51.5 -111.5t198.5 -76.5q108 -26 179 -57.5t111 -71.5t56 -85t16 -106q0 -137 -102 -219t-266 -82q-172 0 -272.5 82.5t-123.5 225.5zM522 1196h-127l-217 315h121l160 -239l157 239h119z" />
    <glyph glyph-name="uni0162" unicode="&#x162;" horiz-adv-x="1103" 
d="M494 0v1327h-482v107h1080v-107h-482v-1327h-2l-84 -113q26 -3 51.5 -9t55.5 -20.5t52 -34.5t37 -52t15 -72q0 -55 -21.5 -94.5t-57 -59.5t-72 -28.5t-76.5 -8.5q-87 0 -148 27v100q60 -26 146 -26q123 0 123 82q0 108 -234 108v47l109 154h-10z" />
    <glyph glyph-name="uni0163" unicode="&#x163;" horiz-adv-x="595" 
d="M14 926v98h191v319h106v-319h244v-98h-244v-662q0 -92 26.5 -136t96.5 -44q68 0 105 12v-92q-47 -18 -113 -18l-74 -99q26 -3 51.5 -9t55.5 -20.5t52 -34.5t37 -52t15 -72q0 -55 -21.5 -94.5t-57 -59.5t-72 -28.5t-76.5 -8.5q-87 0 -148 27v100q60 -26 146 -26
q123 0 123 82q0 108 -234 108v47l107 150q-125 41 -125 221v709h-191z" />
    <glyph glyph-name="Tcaron" unicode="&#x164;" horiz-adv-x="1103" 
d="M494 0v1327h-482v107h1080v-107h-482v-1327h-116zM608 1565h-125l-270 260h139l195 -189l213 189h133z" />
    <glyph glyph-name="tcaron" unicode="&#x165;" horiz-adv-x="595" 
d="M569 1237h-86v418h115zM14 926v98h191v319h106v-319h244v-98h-244v-662q0 -92 26.5 -136t96.5 -44q68 0 105 12v-92q-45 -18 -127 -18q-102 0 -154.5 55.5t-52.5 175.5v709h-191z" />
    <glyph glyph-name="Utilde" unicode="&#x168;" horiz-adv-x="1447" 
d="M193 1434h118v-869q0 -110 24 -195t63.5 -137t94.5 -85.5t111.5 -46.5t120.5 -13q95 0 167 22t130 74t88.5 148t30.5 233v869h116v-863q0 -587 -536 -587q-87 0 -163.5 19t-144.5 62t-116 107.5t-76 162t-28 218.5v881zM487 1599h-94v27q0 186 160 186q51 0 119.5 -28.5
t129.5 -57t95 -28.5q35 0 52.5 22t17.5 76v27h88v-37q0 -99 -40 -144t-116 -45q-51 0 -117.5 30.5t-128.5 60.5t-102 30q-64 0 -64 -82v-37z" />
    <glyph glyph-name="utilde" unicode="&#x169;" horiz-adv-x="1103" 
d="M936 1024v-725q0 -57 1 -171.5t1 -127.5h-102q-7 47 -7 176q-34 -94 -115.5 -147.5t-211.5 -53.5q-50 0 -93 8.5t-89.5 33t-79 64t-53.5 107.5t-21 158v678h104v-651q0 -293 248 -293q168 0 239.5 98.5t71.5 319.5v526h107zM344 1260h-88v34q0 179 152 179
q46 0 102.5 -27.5t107 -55.5t82.5 -28q33 0 48.5 21t15.5 73v25h86v-35q0 -186 -150 -186q-47 0 -100.5 28.5t-105 57t-91.5 28.5q-59 0 -59 -80v-34z" />
    <glyph glyph-name="Umacron" unicode="&#x16a;" horiz-adv-x="1447" 
d="M193 1434h118v-869q0 -110 24 -195t63.5 -137t94.5 -85.5t111.5 -46.5t120.5 -13q95 0 167 22t130 74t88.5 148t30.5 233v869h116v-863q0 -587 -536 -587q-87 0 -163.5 19t-144.5 62t-116 107.5t-76 162t-28 218.5v881zM453 1739h540v-103h-540v103z" />
    <glyph glyph-name="umacron" unicode="&#x16b;" horiz-adv-x="1103" 
d="M936 1024v-725q0 -57 1 -171.5t1 -127.5h-102q-7 47 -7 176q-34 -94 -115.5 -147.5t-211.5 -53.5q-50 0 -93 8.5t-89.5 33t-79 64t-53.5 107.5t-21 158v678h104v-651q0 -293 248 -293q168 0 239.5 98.5t71.5 319.5v526h107zM285 1419h536v-100h-536v100z" />
    <glyph glyph-name="Ubreve" unicode="&#x16c;" horiz-adv-x="1447" 
d="M193 1434h118v-869q0 -110 24 -195t63.5 -137t94.5 -85.5t111.5 -46.5t120.5 -13q95 0 167 22t130 74t88.5 148t30.5 233v869h116v-863q0 -587 -536 -587q-87 0 -163.5 19t-144.5 62t-116 107.5t-76 162t-28 218.5v881zM428 1821h98q14 -70 64.5 -110t132.5 -40
q168 0 201 150h94q-17 -115 -94.5 -181.5t-200.5 -66.5q-136 0 -210.5 71.5t-84.5 176.5z" />
    <glyph glyph-name="ubreve" unicode="&#x16d;" horiz-adv-x="1103" 
d="M936 1024v-725q0 -57 1 -171.5t1 -127.5h-102q-7 47 -7 176q-34 -94 -115.5 -147.5t-211.5 -53.5q-50 0 -93 8.5t-89.5 33t-79 64t-53.5 107.5t-21 158v678h104v-651q0 -293 248 -293q168 0 239.5 98.5t71.5 319.5v526h107zM276 1475h91q15 -72 61 -118t123 -46
q47 0 82 14t55.5 39.5t31.5 51t19 59.5h90q-16 -118 -88 -190.5t-190 -72.5q-66 0 -118.5 23t-84.5 61.5t-50 83.5t-22 95z" />
    <glyph glyph-name="Uring" unicode="&#x16e;" horiz-adv-x="1447" 
d="M193 1434h118v-869q0 -110 24 -195t63.5 -137t94.5 -85.5t111.5 -46.5t120.5 -13q95 0 167 22t130 74t88.5 148t30.5 233v869h116v-863q0 -587 -536 -587q-87 0 -163.5 19t-144.5 62t-116 107.5t-76 162t-28 218.5v881zM723 1526q-89 0 -145 55t-56 135q0 82 55.5 140.5
t143.5 58.5q89 0 145 -56.5t56 -138.5t-56.5 -138t-142.5 -56zM723 1602q52 0 82.5 35t30.5 81q0 47 -30 84t-83 37q-54 0 -83.5 -35t-29.5 -82q0 -49 29 -84.5t84 -35.5z" />
    <glyph glyph-name="uring" unicode="&#x16f;" horiz-adv-x="1103" 
d="M936 1024v-725q0 -57 1 -171.5t1 -127.5h-102q-7 47 -7 176q-34 -94 -115.5 -147.5t-211.5 -53.5q-50 0 -93 8.5t-89.5 33t-79 64t-53.5 107.5t-21 158v678h104v-651q0 -293 248 -293q168 0 239.5 98.5t71.5 319.5v526h107zM553 1153q-89 0 -145 55t-56 135
q0 82 55.5 140.5t143.5 58.5q89 0 145 -56.5t56 -137.5q0 -82 -56.5 -138.5t-142.5 -56.5zM553 1229q52 0 82.5 35.5t30.5 81.5q0 47 -30 83.5t-83 36.5q-54 0 -83.5 -34.5t-29.5 -81.5q0 -49 29 -85t84 -36z" />
    <glyph glyph-name="Uhungarumlaut" unicode="&#x170;" horiz-adv-x="1447" 
d="M193 1434h118v-869q0 -110 24 -195t63.5 -137t94.5 -85.5t111.5 -46.5t120.5 -13q95 0 167 22t130 74t88.5 148t30.5 233v869h116v-863q0 -587 -536 -587q-87 0 -163.5 19t-144.5 62t-116 107.5t-76 162t-28 218.5v881zM705 1864h139l-254 -281h-113zM1034 1864h137
l-253 -281h-115z" />
    <glyph glyph-name="uhungarumlaut" unicode="&#x171;" horiz-adv-x="1103" 
d="M936 1024v-725q0 -57 1 -171.5t1 -127.5h-102q-7 47 -7 176q-34 -94 -115.5 -147.5t-211.5 -53.5q-50 0 -93 8.5t-89.5 33t-79 64t-53.5 107.5t-21 158v678h104v-651q0 -293 248 -293q168 0 239.5 98.5t71.5 319.5v526h107zM395 1188h-104l209 323h123zM737 1188h-102
l207 323h127z" />
    <glyph glyph-name="Uogonek" unicode="&#x172;" horiz-adv-x="1447" 
d="M193 1434h118v-869q0 -110 24 -195t63.5 -137t94.5 -85.5t111.5 -46.5t120.5 -13q95 0 167 22t130 74t88.5 148t30.5 233v869h116v-863q0 -421 -282 -542q-29 -29 -47.5 -50t-42 -53t-35.5 -66t-12 -69q0 -56 34.5 -88.5t88.5 -32.5q75 0 129 23v-99q-50 -34 -150 -34
q-102 0 -162.5 58t-60.5 159q0 97 92 211q-58 -4 -88 -4q-87 0 -163.5 19t-144.5 62t-116 107.5t-76 162t-28 218.5v881z" />
    <glyph glyph-name="uogonek" unicode="&#x173;" horiz-adv-x="1103" 
d="M936 1024v-725q0 -57 1 -171.5t1 -127.5h2q-30 -30 -48 -50t-42.5 -53t-36.5 -67.5t-12 -69.5q0 -56 34.5 -88t88.5 -32q77 0 129 22v-98q-52 -35 -150 -35q-102 0 -162.5 58t-60.5 159q0 131 154 277q-5 87 -5 153q-34 -94 -115.5 -147.5t-211.5 -53.5q-50 0 -93 8.5
t-89.5 33t-79 64t-53.5 107.5t-21 158v678h104v-651q0 -293 248 -293q168 0 239.5 98.5t71.5 319.5v526h107z" />
    <glyph glyph-name="Wcircumflex" unicode="&#x174;" horiz-adv-x="1896" 
d="M580 0h-131l-396 1434h119q300 -1079 344 -1301h2q12 59 79 297.5t154.5 545t127.5 458.5h125q324 -1201 344 -1299h2q20 90 91 332t163.5 545t126.5 422h116l-438 -1434h-131q-304 1115 -340 1284h-2q-17 -84 -76.5 -301t-161.5 -571.5t-118 -411.5zM891 1825h125
l270 -260h-139l-195 186l-213 -186h-133z" />
    <glyph glyph-name="wcircumflex" unicode="&#x175;" horiz-adv-x="1521" 
d="M61 1024h113q240 -837 254 -918h2q5 24 18 71t42.5 145t52.5 172.5t77.5 249.5t86.5 280h114q48 -161 97 -323.5t73 -242.5t46.5 -154.5t32.5 -110.5t15 -60h2q29 114 263 891h112l-323 -1024h-117q-232 758 -262 897h-2q-9 -45 -43 -159.5t-109 -356.5t-117 -381h-127z
M700 1511h119l221 -315h-120l-160 242l-158 -242h-119z" />
    <glyph glyph-name="Ycircumflex" unicode="&#x176;" horiz-adv-x="1171" 
d="M635 0h-117v539q0 20 -8 32l-512 863h133q50 -85 160 -271.5t188 -319.5t105 -181q107 191 463 772h127l-533 -871q-6 -12 -6 -31v-532zM530 1825h125l271 -260h-140l-194 186l-213 -186h-133z" />
    <glyph glyph-name="ycircumflex" unicode="&#x177;" horiz-adv-x="933" 
d="M29 1024h116q78 -222 162.5 -457.5t118 -331.5t49.5 -145h2q88 269 320 934h110l-385 -1083q-42 -117 -77 -186.5t-78.5 -112t-91.5 -57.5t-121 -15q-46 0 -95 6v107q54 -7 93 -7q55 0 92 13t68 49t54 84t54 133zM406 1511h118l221 -315h-120l-160 242l-158 -242h-119z
" />
    <glyph glyph-name="Ydieresis" unicode="&#x178;" horiz-adv-x="1171" 
d="M635 0h-117v539q0 20 -8 32l-512 863h133q50 -85 160 -271.5t188 -319.5t105 -181q107 191 463 772h127l-533 -871q-6 -12 -6 -31v-532zM442 1593h-106v199h106v-199zM838 1593h-107v199h107v-199z" />
    <glyph glyph-name="Zacute" unicode="&#x179;" horiz-adv-x="1196" 
d="M63 0v94l926 1233h-876v107h1013v-101l-919 -1227h938l-19 -106h-1063zM821 1866h160l-344 -281h-131z" />
    <glyph glyph-name="zacute" unicode="&#x17a;" horiz-adv-x="872" 
d="M45 0v96l645 830h-612v98h735v-100l-635 -824h658l-25 -100h-766zM612 1530h140l-306 -322h-114z" />
    <glyph glyph-name="Zdotaccent" unicode="&#x17b;" horiz-adv-x="1196" 
d="M63 0v94l926 1233h-876v107h1013v-101l-919 -1227h938l-19 -106h-1063zM653 1624h-114v199h114v-199z" />
    <glyph glyph-name="zdotaccent" unicode="&#x17c;" horiz-adv-x="872" 
d="M45 0v96l645 830h-612v98h735v-100l-635 -824h658l-25 -100h-766zM489 1311h-106v200h106v-200z" />
    <glyph glyph-name="Zcaron" unicode="&#x17d;" horiz-adv-x="1196" 
d="M63 0v94l926 1233h-876v107h1013v-101l-919 -1227h938l-19 -106h-1063zM651 1585h-125l-270 260h139l195 -188l213 188h133z" />
    <glyph glyph-name="zcaron" unicode="&#x17e;" horiz-adv-x="872" 
d="M45 0v96l645 830h-612v98h735v-100l-635 -824h658l-25 -100h-766zM502 1196h-127l-217 315h121l159 -239l158 239h119z" />
    <glyph glyph-name="uni018F" unicode="&#x18f;" horiz-adv-x="1447" 
d="M1333 743q0 -225 -73 -396.5t-215 -269t-336 -97.5q-281 0 -443 182t-162 500q0 19 1 49.5t1 40.5h1106q-4 284 -141.5 440t-365.5 156q-82 0 -150.5 -17.5t-115.5 -45t-86.5 -68.5t-63.5 -80t-47 -88h-115q22 74 66.5 142.5t114 129t174 97t229.5 36.5q124 0 227.5 -39
t175.5 -105.5t122 -157.5t73.5 -194t23.5 -215zM1210 649h-983q-4 -267 131 -415t357 -148q212 0 342.5 148.5t152.5 414.5z" />
    <glyph glyph-name="florin" unicode="&#x192;" horiz-adv-x="1040" 
d="M979 1395l-31 -99q-42 29 -112 29q-44 0 -79 -19.5t-57 -48t-39.5 -75.5t-26 -85.5t-18.5 -95.5l-28 -180h262v-102h-279l-79 -506q-13 -86 -28.5 -150t-40 -123.5t-57 -97t-79.5 -60t-107 -22.5q-114 0 -170 37l29 99q50 -31 141 -31q90 0 129.5 77t71.5 271l82 506
h-211v102h227l25 152q11 73 25.5 132t40.5 122t60.5 105.5t88 70t119.5 27.5q97 0 141 -35z" />
    <glyph glyph-name="Ohorn" unicode="&#x1a0;" horiz-adv-x="1521" 
d="M768 1454q245 0 408 -147q116 38 116 149q0 58 -22 111h110q15 -45 15 -105q0 -78 -39 -139t-109 -90q160 -202 160 -506q0 -119 -25 -228t-78 -204t-129 -165t-184 -110t-237 -40q-196 0 -343 99t-221.5 264.5t-74.5 373.5q0 154 43 287t123 233.5t205.5 158.5t281.5 58
zM764 1348q-107 0 -195.5 -34t-149 -93t-102 -139t-60.5 -170t-19 -189q0 -125 34 -239t98 -203t165 -142t225 -53q108 0 196 34t148 93.5t101.5 141t60 174t18.5 196.5q0 126 -33.5 237.5t-97 198t-164 137t-225.5 50.5z" />
    <glyph glyph-name="ohorn" unicode="&#x1a1;" horiz-adv-x="1085" 
d="M547 1049q181 0 301 -117q147 33 147 158q0 57 -22 110h110q15 -45 15 -104q0 -90 -49.5 -155.5t-137.5 -88.5q88 -136 88 -338q0 -108 -30 -204.5t-86 -171.5t-145.5 -119t-200.5 -44q-206 0 -328.5 150.5t-122.5 386.5q0 150 52 270t158 193.5t251 73.5zM541 950
q-166 0 -254 -122t-88 -316q0 -187 94 -312.5t252 -125.5q161 0 251.5 121t90.5 317q0 189 -91.5 313.5t-254.5 124.5z" />
    <glyph glyph-name="Uhorn" unicode="&#x1af;" horiz-adv-x="1447" 
d="M193 1434h118v-869q0 -110 24 -195t63.5 -137t94.5 -85.5t111.5 -46.5t120.5 -13q95 0 167 22t130 74t88.5 148t30.5 233v869h57q76 19 108.5 57.5t32.5 97.5q0 58 -22 111h110q15 -45 15 -105q0 -88 -49 -153t-136 -90v-781q0 -587 -536 -587q-87 0 -163.5 19t-144.5 62
t-116 107.5t-76 162t-28 218.5v881z" />
    <glyph glyph-name="uhorn" unicode="&#x1b0;" horiz-adv-x="1103" 
d="M829 176q-34 -94 -115.5 -147.5t-211.5 -53.5q-50 0 -93 8.5t-89.5 33t-79 64t-53.5 107.5t-21 158v678h104v-651q0 -293 248 -293q168 0 239.5 98.5t71.5 319.5v526h50q92 16 131 57t39 105q0 54 -23 110h111q14 -42 14 -104q0 -99 -59 -168.5t-156 -81.5v-643
q0 -57 1 -171.5t1 -127.5h-102q-7 47 -7 176z" />
    <glyph glyph-name="uni01CD" unicode="&#x1cd;" horiz-adv-x="1314" 
d="M952 492h-602l-180 -492h-117l525 1434h137l547 -1434h-125zM389 598h526q-245 647 -270 725h-2q-33 -106 -254 -725zM705 1565h-125l-271 260h140l194 -189l213 189h133z" />
    <glyph glyph-name="uni01CE" unicode="&#x1ce;" horiz-adv-x="1042" 
d="M874 725v-528q0 -115 15 -197h-103q-13 39 -18 156q-15 -32 -38.5 -60.5t-62.5 -57.5t-99.5 -46t-135.5 -17q-86 0 -153 26t-107 70.5t-60 98t-20 113.5q0 166 123.5 247.5t357.5 81.5h195v103q0 35 -5 64t-21 63t-43.5 56.5t-77 38t-115.5 15.5q-59 0 -103.5 -12.5
t-69 -29t-43.5 -46.5t-26 -49t-16 -53h-107q4 39 15 74.5t37.5 75.5t65 69.5t103 48.5t146.5 19q366 0 366 -324zM770 485v37h-201q-178 0 -271 -54.5t-93 -180.5q0 -96 63.5 -155.5t169.5 -59.5q85 0 146.5 23t96.5 58.5t55.5 92t27 111.5t6.5 128zM590 1196h-127l-217 315
h121l159 -239l158 239h119z" />
    <glyph glyph-name="uni01CF" unicode="&#x1cf;" horiz-adv-x="514" 
d="M201 1434h114v-1434h-114v1434zM324 1565h-125l-271 260h140l194 -189l213 189h133z" />
    <glyph glyph-name="uni01D0" unicode="&#x1d0;" horiz-adv-x="440" 
d="M168 0v1024h106v-1024h-106zM287 1196h-127l-217 315h120l160 -239l158 239h119z" />
    <glyph glyph-name="uni01D1" unicode="&#x1d1;" horiz-adv-x="1521" 
d="M768 1454q193 0 339.5 -94.5t223 -259t76.5 -373.5q0 -119 -25 -228t-78 -204t-129 -165t-184 -110t-237 -40q-196 0 -343 99t-221.5 264.5t-74.5 373.5q0 154 43 287t123 233.5t205.5 158.5t281.5 58zM764 1348q-107 0 -195.5 -34t-149 -93t-102 -139t-60.5 -170
t-19 -189q0 -125 34 -239t98 -203t165 -142t225 -53q108 0 196 34t148 93.5t101.5 141t60 174t18.5 196.5q0 126 -33.5 237.5t-97 198t-164 137t-225.5 50.5zM815 1581h-125l-270 260h139l195 -188l213 188h133z" />
    <glyph glyph-name="uni01D2" unicode="&#x1d2;" horiz-adv-x="1085" 
d="M547 1049q204 0 328 -147t124 -388q0 -108 -30 -204.5t-86 -171.5t-145.5 -119t-200.5 -44q-206 0 -328.5 150.5t-122.5 386.5q0 150 52 270t158 193.5t251 73.5zM541 950q-166 0 -254 -122t-88 -316q0 -187 94 -312.5t252 -125.5q161 0 251.5 121t90.5 317
q0 189 -91.5 313.5t-254.5 124.5zM608 1196h-127l-217 315h121l160 -239l157 239h119z" />
    <glyph glyph-name="uni01D3" unicode="&#x1d3;" horiz-adv-x="1447" 
d="M193 1434h118v-869q0 -110 24 -195t63.5 -137t94.5 -85.5t111.5 -46.5t120.5 -13q95 0 167 22t130 74t88.5 148t30.5 233v869h116v-863q0 -587 -536 -587q-87 0 -163.5 19t-144.5 62t-116 107.5t-76 162t-28 218.5v881zM778 1583h-125l-270 260h139l195 -188l213 188h133
z" />
    <glyph glyph-name="uni01D4" unicode="&#x1d4;" horiz-adv-x="1103" 
d="M936 1024v-725q0 -57 1 -171.5t1 -127.5h-102q-7 47 -7 176q-34 -94 -115.5 -147.5t-211.5 -53.5q-50 0 -93 8.5t-89.5 33t-79 64t-53.5 107.5t-21 158v678h104v-651q0 -293 248 -293q168 0 239.5 98.5t71.5 319.5v526h107zM618 1196h-126l-218 315h121l160 -239l158 239
h118z" />
    <glyph glyph-name="uni01D5" unicode="&#x1d5;" horiz-adv-x="1447" 
d="M193 1434h118v-869q0 -110 24 -195t63.5 -137t94.5 -85.5t111.5 -46.5t120.5 -13q95 0 167 22t130 74t88.5 148t30.5 233v869h116v-863q0 -587 -536 -587q-87 0 -163.5 19t-144.5 62t-116 107.5t-76 162t-28 218.5v881zM567 1567h-108v155h108v-155zM973 1825h-500v100
h500v-100zM987 1567h-108v155h108v-155z" />
    <glyph glyph-name="uni01D6" unicode="&#x1d6;" horiz-adv-x="1103" 
d="M936 1024v-725q0 -57 1 -171.5t1 -127.5h-102q-7 47 -7 176q-34 -94 -115.5 -147.5t-211.5 -53.5q-50 0 -93 8.5t-89.5 33t-79 64t-53.5 107.5t-21 158v678h104v-651q0 -293 248 -293q168 0 239.5 98.5t71.5 319.5v526h107zM418 1159h-109v158h109v-158zM803 1438h-500
v100h500v-100zM797 1159h-109v158h109v-158z" />
    <glyph glyph-name="uni01D7" unicode="&#x1d7;" horiz-adv-x="1447" 
d="M193 1434h118v-869q0 -110 24 -195t63.5 -137t94.5 -85.5t111.5 -46.5t120.5 -13q95 0 167 22t130 74t88.5 148t30.5 233v869h116v-863q0 -587 -536 -587q-87 0 -163.5 19t-144.5 62t-116 107.5t-76 162t-28 218.5v881zM459 1716h108v-153h-108v153zM653 1780l205 248
h150l-238 -248h-117zM987 1563h-108v153h108v-153z" />
    <glyph glyph-name="uni01D8" unicode="&#x1d8;" horiz-adv-x="1103" 
d="M936 1024v-725q0 -57 1 -171.5t1 -127.5h-102q-7 47 -7 176q-34 -94 -115.5 -147.5t-211.5 -53.5q-50 0 -93 8.5t-89.5 33t-79 64t-53.5 107.5t-21 158v678h104v-651q0 -293 248 -293q168 0 239.5 98.5t71.5 319.5v526h107zM309 1317h109v-158h-109v158zM586 1378h-111
l199 250h141zM797 1159h-109v158h109v-158z" />
    <glyph glyph-name="uni01D9" unicode="&#x1d9;" horiz-adv-x="1447" 
d="M193 1434h118v-869q0 -110 24 -195t63.5 -137t94.5 -85.5t111.5 -46.5t120.5 -13q95 0 167 22t130 74t88.5 148t30.5 233v869h116v-863q0 -587 -536 -587q-87 0 -163.5 19t-144.5 62t-116 107.5t-76 162t-28 218.5v881zM774 1767h-115l-229 250h129l158 -174l162 174h120
zM573 1559h-108v153h108v-153zM993 1559h-108v153h108v-153z" />
    <glyph glyph-name="uni01DA" unicode="&#x1da;" horiz-adv-x="1103" 
d="M936 1024v-725q0 -57 1 -171.5t1 -127.5h-102q-7 47 -7 176q-34 -94 -115.5 -147.5t-211.5 -53.5q-50 0 -93 8.5t-89.5 33t-79 64t-53.5 107.5t-21 158v678h104v-651q0 -293 248 -293q168 0 239.5 98.5t71.5 319.5v526h107zM610 1378h-110l-226 250h123l158 -176l160 176
h116zM418 1159h-109v158h109v-158zM797 1159h-109v158h109v-158z" />
    <glyph glyph-name="uni01DB" unicode="&#x1db;" horiz-adv-x="1447" 
d="M193 1434h118v-869q0 -110 24 -195t63.5 -137t94.5 -85.5t111.5 -46.5t120.5 -13q95 0 167 22t130 74t88.5 148t30.5 233v869h116v-863q0 -587 -536 -587q-87 0 -163.5 19t-144.5 62t-116 107.5t-76 162t-28 218.5v881zM459 1716h108v-153h-108v153zM797 1780h-115
l-231 248h143zM987 1563h-108v153h108v-153z" />
    <glyph glyph-name="uni01DC" unicode="&#x1dc;" horiz-adv-x="1103" 
d="M936 1024v-725q0 -57 1 -171.5t1 -127.5h-102q-7 47 -7 176q-34 -94 -115.5 -147.5t-211.5 -53.5q-50 0 -93 8.5t-89.5 33t-79 64t-53.5 107.5t-21 158v678h104v-651q0 -293 248 -293q168 0 239.5 98.5t71.5 319.5v526h107zM309 1317h109v-158h-109v158zM289 1628h147
l193 -250h-111zM797 1159h-109v158h109v-158z" />
    <glyph glyph-name="Gcaron" unicode="&#x1e6;" horiz-adv-x="1462" 
d="M1309 756v-756h-95q-13 26 -16 227q-126 -243 -461 -243q-151 0 -270.5 55t-195.5 152.5t-116 228.5t-40 285q0 217 72.5 384t220 266t352.5 99q231 0 379 -114t182 -312h-115q-98 320 -450 320q-130 0 -230.5 -48.5t-162.5 -135.5t-93.5 -201.5t-31.5 -251.5
q0 -100 18.5 -190.5t58.5 -170t98.5 -137.5t143 -91.5t186.5 -33.5q104 0 183 27.5t130 74.5t83.5 117.5t45.5 150t13 177.5v16h-459v105h570zM805 1583h-125l-270 260h139l194 -188l213 188h134z" />
    <glyph glyph-name="gcaron" unicode="&#x1e7;" horiz-adv-x="1120" 
d="M954 727v-655q0 -502 -444 -502q-97 0 -172.5 25.5t-122 70t-73 96.5t-36.5 113h109q27 -102 106.5 -154.5t192.5 -52.5q97 0 164 30t104.5 89t53.5 134t16 177v107q-42 -103 -124 -154t-218 -51q-184 0 -304 140t-120 372q0 126 34.5 228.5t94 169.5t139 103t170.5 36
q75 0 134.5 -16t97.5 -43t61 -57t35 -63q5 137 6 154h100q0 -11 -2 -125.5t-2 -171.5zM199 516q0 -183 89 -299.5t234 -116.5q181 0 256.5 110.5t75.5 321.5q0 210 -74.5 314t-251.5 104q-85 0 -149.5 -34.5t-103 -95.5t-57.5 -137.5t-19 -166.5zM621 1196h-127l-218 315
h121l160 -239l158 239h119z" />
    <glyph glyph-name="uni0218" unicode="&#x218;" horiz-adv-x="1204" 
d="M96 385h119q69 -301 403 -301q94 0 165 22.5t112.5 62.5t61.5 90t20 110q0 64 -16.5 110.5t-58.5 89t-118 76t-192 62.5q-234 58 -334 143t-100 237q0 73 27 137.5t79.5 116.5t139.5 82.5t198 30.5q114 0 203.5 -32.5t144 -87t84.5 -117t37 -132.5h-119q-56 263 -356 263
q-152 0 -233.5 -66t-81.5 -186q0 -116 77 -175.5t279 -107.5q117 -29 202.5 -67.5t135 -78.5t78.5 -91t38 -96t9 -103q0 -81 -30 -151t-88 -124.5t-153.5 -86t-216.5 -31.5q-104 0 -188.5 23.5t-140.5 62t-96.5 91.5t-61 108t-29.5 116zM565 -504h-100q105 205 117 389h114
q-4 -106 -42.5 -213t-88.5 -176z" />
    <glyph glyph-name="uni0219" unicode="&#x219;" horiz-adv-x="913" 
d="M63 283h109q27 -101 99.5 -156t189.5 -55q129 0 191.5 53t62.5 143q0 62 -22 100t-82 69.5t-173 58.5q-131 31 -204.5 71.5t-100.5 89t-27 119.5q0 115 87.5 194t252.5 79q84 0 152 -24t110.5 -65.5t67.5 -91.5t31 -106h-107q-7 35 -24 66.5t-46.5 60.5t-78 46t-109.5 17
q-121 0 -174 -48.5t-53 -119.5t51.5 -111.5t198.5 -76.5q108 -26 179 -57.5t111 -71.5t56 -85t16 -106q0 -137 -102 -219t-266 -82q-172 0 -272.5 82.5t-123.5 225.5zM401 -504h-100q105 205 117 389h114q-4 -106 -42.5 -213t-88.5 -176z" />
    <glyph glyph-name="uni021A" unicode="&#x21a;" horiz-adv-x="1103" 
d="M494 0v1327h-482v107h1080v-107h-482v-1327h-116zM477 -504h-100q105 205 117 389h114q-4 -106 -42.5 -213t-88.5 -176z" />
    <glyph glyph-name="uni021B" unicode="&#x21b;" horiz-adv-x="595" 
d="M14 926v98h191v319h106v-319h244v-98h-244v-662q0 -92 26.5 -136t96.5 -44q68 0 105 12v-92q-45 -18 -127 -18q-102 0 -154.5 55.5t-52.5 175.5v709h-191zM262 -504h-100q105 205 117 389h114q-4 -106 -42.5 -213t-88.5 -176z" />
    <glyph glyph-name="uni0237" unicode="&#x237;" horiz-adv-x="440" 
d="M168 1024h106v-1094q0 -204 -56 -282t-195 -78q-36 0 -60 4v100q20 -2 55 -2q91 0 120.5 57.5t29.5 188.5v1106z" />
    <glyph glyph-name="uni0251" unicode="&#x251;" horiz-adv-x="1134" 
d="M856 1024h107v-807q0 -129 10 -219h-101q-7 45 -16 182q-40 -96 -126.5 -150.5t-215.5 -54.5q-197 0 -312.5 145.5t-115.5 379.5q0 152 54 276t158.5 198.5t240.5 74.5q245 0 317 -168v143zM197 504q0 -199 92.5 -311.5t230.5 -112.5q97 0 165.5 34.5t105.5 99t53 143
t16 180.5q0 88 -14.5 156.5t-49 128t-100 92t-159.5 32.5q-153 0 -246.5 -118t-93.5 -324z" />
    <glyph glyph-name="uni0259" unicode="&#x259;" horiz-adv-x="1015" 
d="M70 524h751q-1 196 -91 311t-238 115q-68 0 -120 -17t-85 -48.5t-51.5 -60t-34.5 -66.5h-111q18 56 47.5 103.5t76.5 92t119.5 70t162.5 25.5q113 0 199 -45.5t136 -122.5t74.5 -168t24.5 -193q0 -112 -28 -209.5t-82 -173t-140.5 -119t-196.5 -43.5q-91 0 -164 30
t-118.5 77.5t-76.5 110t-43.5 124t-12.5 123.5q0 57 2 84zM815 432h-637q2 -157 83.5 -257.5t225.5 -100.5q289 0 328 358z" />
    <glyph glyph-name="uni0261" unicode="&#x261;" horiz-adv-x="1120" 
d="M954 727v-655q0 -502 -444 -502q-97 0 -172.5 25.5t-122 70t-73 96.5t-36.5 113h109q27 -102 106.5 -154.5t192.5 -52.5q97 0 164 30t104.5 89t53.5 134t16 177v107q-42 -103 -124 -154t-218 -51q-184 0 -304 140t-120 372q0 126 34.5 228.5t94 169.5t139 103t170.5 36
q75 0 134.5 -16t97.5 -43t61 -57t35 -63q5 137 6 154h100q0 -11 -2 -125.5t-2 -171.5zM199 516q0 -183 89 -299.5t234 -116.5q181 0 256.5 110.5t75.5 321.5q0 210 -74.5 314t-251.5 104q-85 0 -149.5 -34.5t-103 -95.5t-57.5 -137.5t-19 -166.5z" />
    <glyph glyph-name="uni02BB" unicode="&#x2bb;" horiz-adv-x="610" 
d="M313 1509h95q-38 -115 -65 -262t-30 -235h-108q7 113 40 263t68 234z" />
    <glyph glyph-name="uni02BC" unicode="&#x2bc;" horiz-adv-x="610" 
d="M299 1012h-94q38 112 63.5 258t28.5 239h111q-7 -114 -40.5 -264.5t-68.5 -232.5z" />
    <glyph glyph-name="uni02BE" unicode="&#x2be;" horiz-adv-x="622" 
d="M205 1241q51 3 82.5 30.5t31.5 78.5q0 48 -32.5 73.5t-81.5 30.5v92q92 0 152.5 -56t60.5 -140t-61 -143.5t-152 -59.5v94z" />
    <glyph glyph-name="uni02BF" unicode="&#x2bf;" horiz-adv-x="622" 
d="M418 1239v-94q-93 0 -153 56t-60 140q0 86 60 144.5t153 58.5v-92q-50 -3 -82.5 -31.5t-32.5 -79.5q0 -47 32.5 -72t82.5 -30z" />
    <glyph glyph-name="circumflex" unicode="&#x2c6;" 
d="M348 1511h119l221 -315h-121l-159 242l-158 -242h-119z" />
    <glyph glyph-name="caron" unicode="&#x2c7;" 
d="M475 1196h-127l-217 315h121l160 -239l157 239h119z" />
    <glyph glyph-name="uni02C8" unicode="&#x2c8;" horiz-adv-x="520" 
d="M315 1180h-110v352h110v-352z" />
    <glyph glyph-name="uni02C9" unicode="&#x2c9;" horiz-adv-x="948" 
d="M205 1419h536v-100h-536v100z" />
    <glyph glyph-name="uni02CA" unicode="&#x2ca;" horiz-adv-x="788" 
d="M489 1530h140l-305 -322h-115z" />
    <glyph glyph-name="uni02CB" unicode="&#x2cb;" horiz-adv-x="790" 
d="M158 1530h141l281 -322h-115z" />
    <glyph glyph-name="uni02CC" unicode="&#x2cc;" horiz-adv-x="520" 
d="M315 -459h-110v353h110v-353z" />
    <glyph glyph-name="breve" unicode="&#x2d8;" 
d="M133 1475h90q15 -72 61.5 -118t123.5 -46q47 0 82 14t55.5 39.5t31.5 51t19 59.5h90q-16 -118 -88 -190.5t-190 -72.5q-66 0 -118.5 23t-84.5 61.5t-50 83.5t-22 95z" />
    <glyph glyph-name="dotaccent" unicode="&#x2d9;" 
d="M463 1311h-107v200h107v-200z" />
    <glyph glyph-name="ring" unicode="&#x2da;" 
d="M410 1153q-89 0 -145 55t-56 135q0 82 55.5 140.5t143.5 58.5q89 0 144.5 -56t55.5 -138t-56 -138.5t-142 -56.5zM410 1229q52 0 82 35t30 82t-29.5 83.5t-82.5 36.5q-54 0 -83.5 -34.5t-29.5 -81.5q0 -49 29 -85t84 -36z" />
    <glyph glyph-name="ogonek" unicode="&#x2db;" 
d="M434 41l88 -41q-30 -30 -48 -50t-42.5 -53t-36.5 -67.5t-12 -69.5q0 -56 34.5 -88t88.5 -32q77 0 129 22v-98q-52 -35 -150 -35q-102 0 -162.5 58t-60.5 159q0 136 172 295z" />
    <glyph glyph-name="tilde" unicode="&#x2dc;" 
d="M201 1260h-88v34q0 179 151 179q37 0 81 -17.5t77.5 -38t71 -38t63.5 -17.5q33 0 48.5 21t15.5 73v25h86v-35q0 -186 -150 -186q-47 0 -100.5 28.5t-105 57t-91.5 28.5q-59 0 -59 -80v-34z" />
    <glyph glyph-name="hungarumlaut" unicode="&#x2dd;" 
d="M252 1188h-105l209 323h123zM594 1188h-102l206 323h127z" />
    <glyph glyph-name="uni0300" unicode="&#x300;" horiz-adv-x="0" 
d="M-238 1530h142l280 -322h-114z" />
    <glyph glyph-name="uni0301" unicode="&#x301;" horiz-adv-x="0" 
d="M94 1530h139l-305 -322h-114z" />
    <glyph glyph-name="uni0302" unicode="&#x302;" horiz-adv-x="0" 
d="M-61 1511h118l222 -315h-121l-160 242l-158 -242h-119z" />
    <glyph glyph-name="uni0303" unicode="&#x303;" horiz-adv-x="0" 
d="M-209 1260h-88v34q0 179 152 179q46 0 102.5 -27.5t107 -55.5t82.5 -28q33 0 48.5 21t15.5 73v25h86v-35q0 -186 -150 -186q-47 0 -100.5 28.5t-105 57t-91.5 28.5q-59 0 -59 -80v-34z" />
    <glyph glyph-name="uni0304" unicode="&#x304;" horiz-adv-x="0" 
d="M-268 1419h536v-100h-536v100z" />
    <glyph glyph-name="uni0306" unicode="&#x306;" horiz-adv-x="0" 
d="M-276 1475h90q15 -72 61 -118t123 -46q47 0 82 14t55.5 39.5t31.5 51t19 59.5h90q-16 -118 -88 -190.5t-190 -72.5q-66 0 -118.5 23t-84.5 61.5t-49.5 83.5t-21.5 95z" />
    <glyph glyph-name="uni0307" unicode="&#x307;" horiz-adv-x="0" 
d="M53 1311h-106v200h106v-200z" />
    <glyph glyph-name="uni0308" unicode="&#x308;" horiz-adv-x="0" 
d="M-127 1311h-104v200h104v-200zM229 1311h-104v200h104v-200z" />
    <glyph glyph-name="uni0309" unicode="&#x309;" horiz-adv-x="0" 
d="M66 1202h-129q135 107 135 187q0 36 -24 60t-73 24q-65 0 -129 -39l-34 75q79 60 182 60q87 0 135.5 -50.5t48.5 -119.5q0 -35 -9.5 -65t-28.5 -55t-34.5 -41t-39.5 -36z" />
    <glyph glyph-name="uni030A" unicode="&#x30a;" horiz-adv-x="0" 
d="M0 1153q-89 0 -145 55t-56 135q0 82 55.5 140.5t143.5 58.5q89 0 145 -56.5t56 -137.5q0 -82 -56.5 -138.5t-142.5 -56.5zM0 1229q52 0 82.5 35.5t30.5 81.5q0 47 -30 83.5t-83 36.5q-54 0 -83.5 -34.5t-29.5 -81.5q0 -49 29 -85t84 -36z" />
    <glyph glyph-name="uni030B" unicode="&#x30b;" horiz-adv-x="0" 
d="M-229 1188h-105l209 323h123zM113 1188h-103l207 323h127z" />
    <glyph glyph-name="uni030C" unicode="&#x30c;" horiz-adv-x="0" 
d="M66 1196h-127l-218 315h121l160 -239l158 239h119z" />
    <glyph glyph-name="uni031B" unicode="&#x31b;" horiz-adv-x="0" 
d="M-68 983l-45 84q92 16 131 57t39 105q0 57 -22 110h110q15 -45 15 -104q0 -100 -61 -169.5t-167 -82.5z" />
    <glyph glyph-name="uni0323" unicode="&#x323;" horiz-adv-x="0" 
d="M59 -356h-120v182h120v-182z" />
    <glyph glyph-name="uni0324" unicode="&#x324;" horiz-adv-x="0" 
d="M-127 -367h-104v201h104v-201zM229 -367h-104v201h104v-201z" />
    <glyph glyph-name="uni0326" unicode="&#x326;" horiz-adv-x="0" 
d="M-35 -504h-100q105 205 117 389h114q-4 -106 -42.5 -213t-88.5 -176z" />
    <glyph glyph-name="uni0327" unicode="&#x327;" horiz-adv-x="0" 
d="M-20 20l90 -20l-84 -113q26 -3 51.5 -9t55.5 -20.5t52 -34.5t37 -52t15 -72q0 -44 -14.5 -78.5t-37.5 -55.5t-54.5 -34t-61 -18t-60.5 -5q-86 0 -147 27v100q60 -26 145 -26q123 0 123 82q0 108 -233 108v47z" />
    <glyph glyph-name="uni0328" unicode="&#x328;" horiz-adv-x="0" 
d="M-27 41l88 -41q-30 -30 -48 -50t-42.5 -53t-36.5 -67.5t-12 -69.5q0 -56 34.5 -88t88.5 -32q77 0 129 22v-98q-52 -35 -149 -35q-102 0 -163 58.5t-61 158.5q0 136 172 295z" />
    <glyph glyph-name="uni032E" unicode="&#x32e;" horiz-adv-x="0" 
d="M-276 -137h90q15 -72 61 -118t123 -46q47 0 82 14t55.5 39.5t31.5 51t19 59.5h90q-16 -118 -88 -190t-190 -72q-66 0 -118.5 22.5t-84.5 61t-49.5 83.5t-21.5 95z" />
    <glyph glyph-name="uni0331" unicode="&#x331;" horiz-adv-x="0" 
d="M-268 -231h536v-101h-536v101z" />
    <glyph glyph-name="pi" unicode="&#x3c0;" horiz-adv-x="1044" 
d="M758 0l4 926h-486v-926h-106v926q-145 0 -180 -2v92q57 8 315 8h737v-98h-178v-926h-106z" />
    <glyph glyph-name="uni1E0C" unicode="&#x1e0c;" horiz-adv-x="1458" 
d="M201 0v1434h477q297 0 481 -192.5t184 -512.5q0 -212 -82.5 -378t-235 -258.5t-351.5 -92.5h-473zM315 1327v-1221h344q110 0 202 30.5t158 85.5t112 132t68 170t22 199q0 121 -33.5 227t-99.5 191.5t-176.5 135.5t-252.5 50h-344zM725 -356h-121v182h121v-182z" />
    <glyph glyph-name="uni1E0D" unicode="&#x1e0d;" horiz-adv-x="1128" 
d="M856 1509h107v-1214q0 -193 2 -295h-103q-6 38 -6 170q-81 -195 -344 -195q-197 0 -311.5 145.5t-114.5 379.5q0 240 123.5 394.5t329.5 154.5q73 0 131 -14t94 -38t57.5 -48t34.5 -52v612zM199 504q0 -202 90.5 -315t228.5 -113q98 0 166 32.5t106 95.5t54 143.5
t16 189.5q0 83 -8.5 144.5t-30.5 114t-58 85t-92.5 51t-133.5 18.5q-155 0 -246.5 -117.5t-91.5 -328.5zM625 -356h-121v182h121v-182z" />
    <glyph glyph-name="uni1E0E" unicode="&#x1e0e;" horiz-adv-x="1458" 
d="M201 0v1434h477q297 0 481 -192.5t184 -512.5q0 -212 -82.5 -378t-235 -258.5t-351.5 -92.5h-473zM315 1327v-1221h344q110 0 202 30.5t158 85.5t112 132t68 170t22 199q0 121 -33.5 227t-99.5 191.5t-176.5 135.5t-252.5 50h-344zM397 -231h537v-101h-537v101z" />
    <glyph glyph-name="uni1E0F" unicode="&#x1e0f;" horiz-adv-x="1128" 
d="M856 1509h107v-1214q0 -193 2 -295h-103q-6 38 -6 170q-81 -195 -344 -195q-197 0 -311.5 145.5t-114.5 379.5q0 240 123.5 394.5t329.5 154.5q73 0 131 -14t94 -38t57.5 -48t34.5 -52v612zM199 504q0 -202 90.5 -315t228.5 -113q98 0 166 32.5t106 95.5t54 143.5
t16 189.5q0 83 -8.5 144.5t-30.5 114t-58 85t-92.5 51t-133.5 18.5q-155 0 -246.5 -117.5t-91.5 -328.5zM297 -231h537v-101h-537v101z" />
    <glyph glyph-name="uni1E20" unicode="&#x1e20;" horiz-adv-x="1462" 
d="M1309 756v-756h-95q-13 26 -16 227q-126 -243 -461 -243q-151 0 -270.5 55t-195.5 152.5t-116 228.5t-40 285q0 217 72.5 384t220 266t352.5 99q231 0 379 -114t182 -312h-115q-98 320 -450 320q-130 0 -230.5 -48.5t-162.5 -135.5t-93.5 -201.5t-31.5 -251.5
q0 -100 18.5 -190.5t58.5 -170t98.5 -137.5t143 -91.5t186.5 -33.5q104 0 183 27.5t130 74.5t83.5 117.5t45.5 150t13 177.5v16h-459v105h570zM479 1749h541v-102h-541v102z" />
    <glyph glyph-name="uni1E21" unicode="&#x1e21;" horiz-adv-x="1120" 
d="M954 727v-655q0 -502 -444 -502q-97 0 -172.5 25.5t-122 70t-73 96.5t-36.5 113h109q27 -102 106.5 -154.5t192.5 -52.5q97 0 164 30t104.5 89t53.5 134t16 177v107q-42 -103 -124 -154t-218 -51q-184 0 -304 140t-120 372q0 126 34.5 228.5t94 169.5t139 103t170.5 36
q75 0 134.5 -16t97.5 -43t61 -57t35 -63q5 137 6 154h100q0 -11 -2 -125.5t-2 -171.5zM199 516q0 -183 89 -299.5t234 -116.5q181 0 256.5 110.5t75.5 321.5q0 210 -74.5 314t-251.5 104q-85 0 -149.5 -34.5t-103 -95.5t-57.5 -137.5t-19 -166.5zM293 1419h536v-100h-536
v100z" />
    <glyph glyph-name="uni1E24" unicode="&#x1e24;" horiz-adv-x="1482" 
d="M201 0v1434h114v-623h854v623h115v-1434h-115v705h-854v-705h-114zM801 -356h-121v182h121v-182z" />
    <glyph glyph-name="uni1E25" unicode="&#x1e25;" horiz-adv-x="1124" 
d="M168 1509h106v-655q105 195 336 195q48 0 92.5 -10t92 -37.5t82 -70t57 -115t22.5 -165.5v-651h-106v631q0 152 -66.5 233.5t-193.5 81.5q-153 0 -234.5 -95t-81.5 -280v-571h-106v1509zM623 -356h-121v182h121v-182z" />
    <glyph glyph-name="uni1E2A" unicode="&#x1e2a;" horiz-adv-x="1482" 
d="M201 0v1434h114v-623h854v623h115v-1434h-115v705h-854v-705h-114zM465 -137h90q15 -72 61 -118t123 -46q48 0 83 14t55.5 39.5t31.5 51t19 59.5h90q-16 -118 -88.5 -190t-190.5 -72q-66 0 -118.5 22.5t-84.5 61t-49.5 83.5t-21.5 95z" />
    <glyph glyph-name="uni1E2B" unicode="&#x1e2b;" horiz-adv-x="1124" 
d="M168 1509h106v-655q105 195 336 195q48 0 92.5 -10t92 -37.5t82 -70t57 -115t22.5 -165.5v-651h-106v631q0 152 -66.5 233.5t-193.5 81.5q-153 0 -234.5 -95t-81.5 -280v-571h-106v1509zM287 -137h90q15 -72 61 -118t123 -46q48 0 83 14t55.5 39.5t31.5 51t19 59.5h90
q-16 -118 -88.5 -190t-190.5 -72q-66 0 -118.5 22.5t-84.5 61t-49.5 83.5t-21.5 95z" />
    <glyph glyph-name="uni1E36" unicode="&#x1e36;" horiz-adv-x="1116" 
d="M201 0v1434h114v-1328h768l-20 -106h-862zM680 -356h-121v182h121v-182z" />
    <glyph glyph-name="uni1E37" unicode="&#x1e37;" horiz-adv-x="440" 
d="M274 0h-106v1509h106v-1509zM281 -356h-121v182h121v-182z" />
    <glyph glyph-name="uni1E38" unicode="&#x1e38;" horiz-adv-x="1116" 
d="M201 0v1434h114v-1328h768l-20 -106h-862zM680 -356h-121v182h121v-182zM2 1710h541v-102h-541v102z" />
    <glyph glyph-name="uni1E39" unicode="&#x1e39;" horiz-adv-x="440" 
d="M274 0h-106v1509h106v-1509zM-47 1749h536v-100h-536v100zM283 -356h-121v182h121v-182z" />
    <glyph glyph-name="uni1E3A" unicode="&#x1e3a;" horiz-adv-x="1116" 
d="M201 0v1434h114v-1328h768l-20 -106h-862zM371 -231h536v-101h-536v101z" />
    <glyph glyph-name="uni1E3B" unicode="&#x1e3b;" horiz-adv-x="440" 
d="M274 0h-106v1509h106v-1509zM-47 -231h536v-101h-536v101z" />
    <glyph glyph-name="uni1E42" unicode="&#x1e42;" horiz-adv-x="1755" 
d="M1440 0v657q0 500 8 691h-6q-16 -56 -56 -164.5t-104.5 -271t-116 -291t-134 -333.5t-116.5 -288h-112q-429 1112 -498 1350h-6q16 -262 16 -742v-608h-114v1434h172q152 -382 303 -778t188 -513h4q25 79 197 509.5t319 781.5h170v-1434h-114zM922 -356h-121v182h121
v-182z" />
    <glyph glyph-name="uni1E43" unicode="&#x1e43;" horiz-adv-x="1699" 
d="M168 0v760q0 184 -2 264h104q6 -107 4 -180q37 88 113.5 146.5t194.5 58.5q108 0 186.5 -52.5t108.5 -148.5q43 89 125 145t208 56q50 0 95 -11.5t87.5 -39t72.5 -69t48.5 -107t18.5 -148.5v-674h-107v662q0 56 -11 103t-36.5 89.5t-74 67t-115.5 24.5q-141 0 -213 -99
t-72 -257v-590h-106v659q0 287 -232 287q-141 0 -216 -108.5t-75 -274.5v-563h-106zM907 -356h-121v182h121v-182z" />
    <glyph glyph-name="uni1E44" unicode="&#x1e44;" horiz-adv-x="1507" 
d="M315 0h-114v1434h168q762 -1176 831 -1295h2q-10 171 -10 649v646h117v-1434h-156q-120 186 -463 722.5t-381 594.5h-2q8 -149 8 -658v-659zM811 1593h-115v199h115v-199z" />
    <glyph glyph-name="uni1E45" unicode="&#x1e45;" horiz-adv-x="1124" 
d="M168 0v766q0 176 -2 258h104q3 -24 4.5 -98t-0.5 -95q15 35 32.5 63t46 58t63 50.5t85.5 33.5t111 13q72 0 132 -21t108.5 -65t76 -120t27.5 -179v-664h-106v647q0 141 -61.5 220t-190.5 79q-70 0 -125.5 -23t-92.5 -62t-61 -93.5t-34.5 -114.5t-10.5 -129v-524h-106z
M616 1311h-106v200h106v-200z" />
    <glyph glyph-name="uni1E46" unicode="&#x1e46;" horiz-adv-x="1507" 
d="M315 0h-114v1434h168q762 -1176 831 -1295h2q-10 171 -10 649v646h117v-1434h-156q-120 186 -463 722.5t-381 594.5h-2q8 -149 8 -658v-659zM813 -356h-121v182h121v-182z" />
    <glyph glyph-name="uni1E47" unicode="&#x1e47;" horiz-adv-x="1124" 
d="M168 0v766q0 176 -2 258h104q3 -24 4.5 -98t-0.5 -95q15 35 32.5 63t46 58t63 50.5t85.5 33.5t111 13q72 0 132 -21t108.5 -65t76 -120t27.5 -179v-664h-106v647q0 141 -61.5 220t-190.5 79q-70 0 -125.5 -23t-92.5 -62t-61 -93.5t-34.5 -114.5t-10.5 -129v-524h-106z
M623 -356h-121v182h121v-182z" />
    <glyph glyph-name="uni1E48" unicode="&#x1e48;" horiz-adv-x="1507" 
d="M315 0h-114v1434h168q762 -1176 831 -1295h2q-10 171 -10 649v646h117v-1434h-156q-120 186 -463 722.5t-381 594.5h-2q8 -149 8 -658v-659zM485 -231h537v-101h-537v101z" />
    <glyph glyph-name="uni1E49" unicode="&#x1e49;" horiz-adv-x="1124" 
d="M168 0v766q0 176 -2 258h104q3 -24 4.5 -98t-0.5 -95q15 35 32.5 63t46 58t63 50.5t85.5 33.5t111 13q72 0 132 -21t108.5 -65t76 -120t27.5 -179v-664h-106v647q0 141 -61.5 220t-190.5 79q-70 0 -125.5 -23t-92.5 -62t-61 -93.5t-34.5 -114.5t-10.5 -129v-524h-106z
M295 -231h536v-101h-536v101z" />
    <glyph glyph-name="uni1E5A" unicode="&#x1e5a;" horiz-adv-x="1288" 
d="M666 668h-349v-668h-116v1434h516q208 0 320 -102t112 -275q0 -133 -72 -221t-194 -115q117 -28 180 -115t63 -260v-55q0 -18 -0.5 -62t-0.5 -69.5t1.5 -60.5t6 -59t12.5 -40h-117q-8 18 -12.5 41t-6 57.5t-2 57.5t0 73t0.5 70v37q0 91 -15 150.5t-53.5 102t-104.5 61
t-169 18.5zM317 1327v-555h345q186 0 275 70t89 211q0 133 -85 203.5t-251 70.5h-373zM721 -336h-121v182h121v-182z" />
    <glyph glyph-name="uni1E5B" unicode="&#x1e5b;" horiz-adv-x="667" 
d="M168 0v745q0 76 -0.5 137.5t-1 96.5t-0.5 45h104q4 -62 4 -227q44 115 137.5 180.5t219.5 71.5v-113q-163 -11 -260 -118t-97 -288v-530h-106zM283 -356h-121v182h121v-182z" />
    <glyph glyph-name="uni1E5C" unicode="&#x1e5c;" horiz-adv-x="1288" 
d="M666 668h-349v-668h-116v1434h516q208 0 320 -102t112 -275q0 -133 -72 -221t-194 -115q117 -28 180 -115t63 -260v-55q0 -18 -0.5 -62t-0.5 -69.5t1.5 -60.5t6 -59t12.5 -40h-117q-8 18 -12.5 41t-6 57.5t-2 57.5t0 73t0.5 70v37q0 91 -15 150.5t-53.5 102t-104.5 61
t-169 18.5zM317 1327v-555h345q186 0 275 70t89 211q0 133 -85 203.5t-251 70.5h-373zM723 -332h-121v182h121v-182zM367 1720h540v-102h-540v102z" />
    <glyph glyph-name="uni1E5D" unicode="&#x1e5d;" horiz-adv-x="667" 
d="M168 0v745q0 76 -0.5 137.5t-1 96.5t-0.5 45h104q4 -62 4 -227q44 115 137.5 180.5t219.5 71.5v-113q-163 -11 -260 -118t-97 -288v-530h-106zM121 1419h536v-100h-536v100zM287 -356h-121v182h121v-182z" />
    <glyph glyph-name="uni1E5E" unicode="&#x1e5e;" horiz-adv-x="1288" 
d="M666 668h-349v-668h-116v1434h516q208 0 320 -102t112 -275q0 -133 -72 -221t-194 -115q117 -28 180 -115t63 -260v-55q0 -18 -0.5 -62t-0.5 -69.5t1.5 -60.5t6 -59t12.5 -40h-117q-8 18 -12.5 41t-6 57.5t-2 57.5t0 73t0.5 70v37q0 91 -15 150.5t-53.5 102t-104.5 61
t-169 18.5zM317 1327v-555h345q186 0 275 70t89 211q0 133 -85 203.5t-251 70.5h-373zM395 -217h537v-100h-537v100z" />
    <glyph glyph-name="uni1E5F" unicode="&#x1e5f;" horiz-adv-x="667" 
d="M168 0v745q0 76 -0.5 137.5t-1 96.5t-0.5 45h104q4 -62 4 -227q44 115 137.5 180.5t219.5 71.5v-113q-163 -11 -260 -118t-97 -288v-530h-106zM-37 -231h537v-101h-537v101z" />
    <glyph glyph-name="uni1E60" unicode="&#x1e60;" horiz-adv-x="1204" 
d="M96 385h119q69 -301 403 -301q94 0 165 22.5t112.5 62.5t61.5 90t20 110q0 64 -16.5 110.5t-58.5 89t-118 76t-192 62.5q-234 58 -334 143t-100 237q0 73 27 137.5t79.5 116.5t139.5 82.5t198 30.5q114 0 203.5 -32.5t144 -87t84.5 -117t37 -132.5h-119q-56 263 -356 263
q-152 0 -233.5 -66t-81.5 -186q0 -116 77 -175.5t279 -107.5q117 -29 202.5 -67.5t135 -78.5t78.5 -91t38 -96t9 -103q0 -81 -30 -151t-88 -124.5t-153.5 -86t-216.5 -31.5q-104 0 -188.5 23.5t-140.5 62t-96.5 91.5t-61 108t-29.5 116zM659 1593h-114v199h114v-199z" />
    <glyph glyph-name="uni1E61" unicode="&#x1e61;" horiz-adv-x="913" 
d="M63 283h109q27 -101 99.5 -156t189.5 -55q129 0 191.5 53t62.5 143q0 62 -22 100t-82 69.5t-173 58.5q-131 31 -204.5 71.5t-100.5 89t-27 119.5q0 115 87.5 194t252.5 79q84 0 152 -24t110.5 -65.5t67.5 -91.5t31 -106h-107q-7 35 -24 66.5t-46.5 60.5t-78 46t-109.5 17
q-121 0 -174 -48.5t-53 -119.5t51.5 -111.5t198.5 -76.5q108 -26 179 -57.5t111 -71.5t56 -85t16 -106q0 -137 -102 -219t-266 -82q-172 0 -272.5 82.5t-123.5 225.5zM510 1311h-107v200h107v-200z" />
    <glyph glyph-name="uni1E62" unicode="&#x1e62;" horiz-adv-x="1204" 
d="M96 385h119q69 -301 403 -301q94 0 165 22.5t112.5 62.5t61.5 90t20 110q0 64 -16.5 110.5t-58.5 89t-118 76t-192 62.5q-234 58 -334 143t-100 237q0 73 27 137.5t79.5 116.5t139.5 82.5t198 30.5q114 0 203.5 -32.5t144 -87t84.5 -117t37 -132.5h-119q-56 263 -356 263
q-152 0 -233.5 -66t-81.5 -186q0 -116 77 -175.5t279 -107.5q117 -29 202.5 -67.5t135 -78.5t78.5 -91t38 -96t9 -103q0 -81 -30 -151t-88 -124.5t-153.5 -86t-216.5 -31.5q-104 0 -188.5 23.5t-140.5 62t-96.5 91.5t-61 108t-29.5 116zM662 -356h-121v182h121v-182z" />
    <glyph glyph-name="uni1E63" unicode="&#x1e63;" horiz-adv-x="913" 
d="M63 283h109q27 -101 99.5 -156t189.5 -55q129 0 191.5 53t62.5 143q0 62 -22 100t-82 69.5t-173 58.5q-131 31 -204.5 71.5t-100.5 89t-27 119.5q0 115 87.5 194t252.5 79q84 0 152 -24t110.5 -65.5t67.5 -91.5t31 -106h-107q-7 35 -24 66.5t-46.5 60.5t-78 46t-109.5 17
q-121 0 -174 -48.5t-53 -119.5t51.5 -111.5t198.5 -76.5q108 -26 179 -57.5t111 -71.5t56 -85t16 -106q0 -137 -102 -219t-266 -82q-172 0 -272.5 82.5t-123.5 225.5zM516 -356h-121v182h121v-182z" />
    <glyph glyph-name="uni1E6C" unicode="&#x1e6c;" horiz-adv-x="1103" 
d="M494 0v1327h-482v107h1080v-107h-482v-1327h-116zM612 -356h-120v182h120v-182z" />
    <glyph glyph-name="uni1E6D" unicode="&#x1e6d;" horiz-adv-x="595" 
d="M14 926v98h191v319h106v-319h244v-98h-244v-662q0 -92 26.5 -136t96.5 -44q68 0 105 12v-92q-45 -18 -127 -18q-102 0 -154.5 55.5t-52.5 175.5v709h-191zM397 -356h-121v182h121v-182z" />
    <glyph glyph-name="uni1E6E" unicode="&#x1e6e;" horiz-adv-x="1103" 
d="M494 0v1327h-482v107h1080v-107h-482v-1327h-116zM285 -231h536v-101h-536v101z" />
    <glyph glyph-name="uni1E6F" unicode="&#x1e6f;" horiz-adv-x="595" 
d="M14 926v98h191v319h106v-319h244v-98h-244v-662q0 -92 26.5 -136t96.5 -44q68 0 105 12v-92q-45 -18 -127 -18q-102 0 -154.5 55.5t-52.5 175.5v709h-191zM49 -231h537v-101h-537v101z" />
    <glyph glyph-name="Wgrave" unicode="&#x1e80;" horiz-adv-x="1896" 
d="M580 0h-131l-396 1434h119q300 -1079 344 -1301h2q12 59 79 297.5t154.5 545t127.5 458.5h125q324 -1201 344 -1299h2q20 90 91 332t163.5 545t126.5 422h116l-438 -1434h-131q-304 1115 -340 1284h-2q-17 -84 -76.5 -301t-161.5 -571.5t-118 -411.5zM559 1845h158
l299 -280h-129z" />
    <glyph glyph-name="wgrave" unicode="&#x1e81;" horiz-adv-x="1521" 
d="M61 1024h113q240 -837 254 -918h2q5 24 18 71t42.5 145t52.5 172.5t77.5 249.5t86.5 280h114q48 -161 97 -323.5t73 -242.5t46.5 -154.5t32.5 -110.5t15 -60h2q29 114 263 891h112l-323 -1024h-117q-232 758 -262 897h-2q-9 -45 -43 -159.5t-109 -356.5t-117 -381h-127z
M401 1530h142l280 -322h-114z" />
    <glyph glyph-name="Wacute" unicode="&#x1e82;" horiz-adv-x="1896" 
d="M580 0h-131l-396 1434h119q300 -1079 344 -1301h2q12 59 79 297.5t154.5 545t127.5 458.5h125q324 -1201 344 -1299h2q20 90 91 332t163.5 545t126.5 422h116l-438 -1434h-131q-304 1115 -340 1284h-2q-17 -84 -76.5 -301t-161.5 -571.5t-118 -411.5zM1182 1843h159
l-344 -280h-131z" />
    <glyph glyph-name="wacute" unicode="&#x1e83;" horiz-adv-x="1521" 
d="M61 1024h113q240 -837 254 -918h2q5 24 18 71t42.5 145t52.5 172.5t77.5 249.5t86.5 280h114q48 -161 97 -323.5t73 -242.5t46.5 -154.5t32.5 -110.5t15 -60h2q29 114 263 891h112l-323 -1024h-117q-232 758 -262 897h-2q-9 -45 -43 -159.5t-109 -356.5t-117 -381h-127z
M979 1530h139l-305 -322h-115z" />
    <glyph glyph-name="Wdieresis" unicode="&#x1e84;" horiz-adv-x="1896" 
d="M580 0h-131l-396 1434h119q300 -1079 344 -1301h2q12 59 79 297.5t154.5 545t127.5 458.5h125q324 -1201 344 -1299h2q20 90 91 332t163.5 545t126.5 422h116l-438 -1434h-131q-304 1115 -340 1284h-2q-17 -84 -76.5 -301t-161.5 -571.5t-118 -411.5zM803 1593h-107v199
h107v-199zM1198 1593h-106v199h106v-199z" />
    <glyph glyph-name="wdieresis" unicode="&#x1e85;" horiz-adv-x="1521" 
d="M61 1024h113q240 -837 254 -918h2q5 24 18 71t42.5 145t52.5 172.5t77.5 249.5t86.5 280h114q48 -161 97 -323.5t73 -242.5t46.5 -154.5t32.5 -110.5t15 -60h2q29 114 263 891h112l-323 -1024h-117q-232 758 -262 897h-2q-9 -45 -43 -159.5t-109 -356.5t-117 -381h-127z
M635 1311h-105v200h105v-200zM991 1311h-104v200h104v-200z" />
    <glyph glyph-name="uni1E8E" unicode="&#x1e8e;" horiz-adv-x="1171" 
d="M635 0h-117v539q0 20 -8 32l-512 863h133q50 -85 160 -271.5t188 -319.5t105 -181q107 191 463 772h127l-533 -871q-6 -12 -6 -31v-532zM643 1593h-115v199h115v-199z" />
    <glyph glyph-name="uni1E8F" unicode="&#x1e8f;" horiz-adv-x="933" 
d="M29 1024h116q78 -222 162.5 -457.5t118 -331.5t49.5 -145h2q88 269 320 934h110l-385 -1083q-42 -117 -77 -186.5t-78.5 -112t-91.5 -57.5t-121 -15q-46 0 -95 6v107q54 -7 93 -7q55 0 92 13t68 49t54 84t54 133zM520 1311h-106v200h106v-200z" />
    <glyph glyph-name="uni1E92" unicode="&#x1e92;" horiz-adv-x="1196" 
d="M63 0v94l926 1233h-876v107h1013v-101l-919 -1227h938l-19 -106h-1063zM655 -356h-120v182h120v-182z" />
    <glyph glyph-name="uni1E93" unicode="&#x1e93;" horiz-adv-x="872" 
d="M45 0v96l645 830h-612v98h735v-100l-635 -824h658l-25 -100h-766zM496 -356h-121v182h121v-182z" />
    <glyph glyph-name="uni1E97" unicode="&#x1e97;" horiz-adv-x="595" 
d="M14 926v98h191v319h106v-319h244v-98h-244v-662q0 -92 26.5 -136t96.5 -44q68 0 105 12v-92q-45 -18 -127 -18q-102 0 -154.5 55.5t-52.5 175.5v709h-191zM137 1446h-104v201h104v-201zM494 1446h-105v201h105v-201z" />
    <glyph glyph-name="uni1E9E" unicode="&#x1e9e;" horiz-adv-x="1282" 
d="M315 1014v-1014h-112v1055q0 108 36 187.5t101.5 124.5t145.5 66t178 21q103 0 185.5 -22t135 -57.5t88 -82.5t50 -95t14.5 -97q0 -38 -4 -58l-377 -233v-8l176 -103q163 -94 225 -177.5t62 -194.5q0 -157 -108 -251.5t-296 -94.5q-218 0 -344 122v138q68 -76 161.5 -119
t184.5 -43q76 0 133.5 20.5t90.5 55.5t49 76t16 87q0 88 -49.5 149.5t-184.5 139.5l-237 137q-31 18 -32 49.5t32 53.5l383 246q1 29 -6.5 60t-31 68.5t-60.5 66t-103 48t-151 19.5q-88 0 -148 -14t-108.5 -50.5t-71.5 -104.5t-23 -171z" />
    <glyph glyph-name="uni1EA0" unicode="&#x1ea0;" horiz-adv-x="1314" 
d="M952 492h-602l-180 -492h-117l525 1434h137l547 -1434h-125zM389 598h526q-245 647 -270 725h-2q-33 -106 -254 -725zM717 -356h-121v182h121v-182z" />
    <glyph glyph-name="uni1EA1" unicode="&#x1ea1;" horiz-adv-x="1042" 
d="M874 725v-528q0 -115 15 -197h-103q-13 39 -18 156q-15 -32 -38.5 -60.5t-62.5 -57.5t-99.5 -46t-135.5 -17q-86 0 -153 26t-107 70.5t-60 98t-20 113.5q0 166 123.5 247.5t357.5 81.5h195v103q0 35 -5 64t-21 63t-43.5 56.5t-77 38t-115.5 15.5q-59 0 -103.5 -12.5
t-69 -29t-43.5 -46.5t-26 -49t-16 -53h-107q4 39 15 74.5t37.5 75.5t65 69.5t103 48.5t146.5 19q366 0 366 -324zM770 485v37h-201q-178 0 -271 -54.5t-93 -180.5q0 -96 63.5 -155.5t169.5 -59.5q85 0 146.5 23t96.5 58.5t55.5 92t27 111.5t6.5 128zM584 -356h-121v182h121
v-182z" />
    <glyph glyph-name="uni1EA2" unicode="&#x1ea2;" horiz-adv-x="1314" 
d="M952 492h-602l-180 -492h-117l525 1434h137l547 -1434h-125zM389 598h526q-245 647 -270 725h-2q-33 -106 -254 -725zM715 1565h-129q135 107 135 186q0 36 -23.5 60t-72.5 24q-65 0 -129 -39l-35 76q78 59 182 59q87 0 135.5 -50.5t48.5 -119.5q0 -46 -19.5 -86t-39 -61
t-53.5 -49z" />
    <glyph glyph-name="uni1EA3" unicode="&#x1ea3;" horiz-adv-x="1042" 
d="M874 725v-528q0 -115 15 -197h-103q-13 39 -18 156q-15 -32 -38.5 -60.5t-62.5 -57.5t-99.5 -46t-135.5 -17q-86 0 -153 26t-107 70.5t-60 98t-20 113.5q0 166 123.5 247.5t357.5 81.5h195v103q0 35 -5 64t-21 63t-43.5 56.5t-77 38t-115.5 15.5q-59 0 -103.5 -12.5
t-69 -29t-43.5 -46.5t-26 -49t-16 -53h-107q4 39 15 74.5t37.5 75.5t65 69.5t103 48.5t146.5 19q366 0 366 -324zM770 485v37h-201q-178 0 -271 -54.5t-93 -180.5q0 -96 63.5 -155.5t169.5 -59.5q85 0 146.5 23t96.5 58.5t55.5 92t27 111.5t6.5 128zM590 1202h-129
q135 107 135 187q0 36 -23.5 60t-72.5 24q-65 0 -129 -39l-35 75q79 60 182 60q87 0 135.5 -50.5t48.5 -119.5q0 -35 -9.5 -65t-28.5 -55t-34.5 -41t-39.5 -36z" />
    <glyph glyph-name="uni1EA4" unicode="&#x1ea4;" horiz-adv-x="1314" 
d="M952 492h-602l-180 -492h-117l525 1434h137l547 -1434h-125zM389 598h526q-245 647 -270 725h-2q-33 -106 -254 -725zM596 1800h117l272 -235h-145l-187 153l-184 -153h-137zM1081 2001h150l-246 -227h-123z" />
    <glyph glyph-name="uni1EA5" unicode="&#x1ea5;" horiz-adv-x="1042" 
d="M874 725v-528q0 -115 15 -197h-103q-13 39 -18 156q-15 -32 -38.5 -60.5t-62.5 -57.5t-99.5 -46t-135.5 -17q-86 0 -153 26t-107 70.5t-60 98t-20 113.5q0 166 123.5 247.5t357.5 81.5h195v103q0 35 -5 64t-21 63t-43.5 56.5t-77 38t-115.5 15.5q-59 0 -103.5 -12.5
t-69 -29t-43.5 -46.5t-26 -49t-16 -53h-107q4 39 15 74.5t37.5 75.5t65 69.5t103 48.5t146.5 19q366 0 366 -324zM770 485v37h-201q-178 0 -271 -54.5t-93 -180.5q0 -96 63.5 -155.5t169.5 -59.5q85 0 146.5 23t96.5 58.5t55.5 92t27 111.5t6.5 128zM461 1436h123l221 -277
h-123l-160 203l-157 -203h-121zM956 1661h140l-256 -264h-111z" />
    <glyph glyph-name="uni1EA6" unicode="&#x1ea6;" horiz-adv-x="1314" 
d="M952 492h-602l-180 -492h-117l525 1434h137l547 -1434h-125zM389 598h526q-245 647 -270 725h-2q-33 -106 -254 -725zM596 1800h117l272 -235h-145l-187 153l-184 -153h-137zM778 1968h160l227 -221h-123z" />
    <glyph glyph-name="uni1EA7" unicode="&#x1ea7;" horiz-adv-x="1042" 
d="M874 725v-528q0 -115 15 -197h-103q-13 39 -18 156q-15 -32 -38.5 -60.5t-62.5 -57.5t-99.5 -46t-135.5 -17q-86 0 -153 26t-107 70.5t-60 98t-20 113.5q0 166 123.5 247.5t357.5 81.5h195v103q0 35 -5 64t-21 63t-43.5 56.5t-77 38t-115.5 15.5q-59 0 -103.5 -12.5
t-69 -29t-43.5 -46.5t-26 -49t-16 -53h-107q4 39 15 74.5t37.5 75.5t65 69.5t103 48.5t146.5 19q366 0 366 -324zM770 485v37h-201q-178 0 -271 -54.5t-93 -180.5q0 -96 63.5 -155.5t169.5 -59.5q85 0 146.5 23t96.5 58.5t55.5 92t27 111.5t6.5 128zM461 1436h123l221 -277
h-123l-160 203l-157 -203h-121zM639 1645h139l205 -271h-106z" />
    <glyph glyph-name="uni1EA8" unicode="&#x1ea8;" horiz-adv-x="1314" 
d="M952 492h-602l-180 -492h-117l525 1434h137l547 -1434h-125zM389 598h526q-245 647 -270 725h-2q-33 -106 -254 -725zM1026 1765h-121q121 84 121 160q0 33 -20 53.5t-64 20.5q-63 0 -123 -39l-35 76q79 55 168 55q82 0 128 -43.5t46 -110.5q0 -52 -28 -97t-72 -75z
M596 1800h117l272 -235h-145l-187 153l-184 -153h-137z" />
    <glyph glyph-name="uni1EA9" unicode="&#x1ea9;" horiz-adv-x="1042" 
d="M874 725v-528q0 -115 15 -197h-103q-13 39 -18 156q-15 -32 -38.5 -60.5t-62.5 -57.5t-99.5 -46t-135.5 -17q-86 0 -153 26t-107 70.5t-60 98t-20 113.5q0 166 123.5 247.5t357.5 81.5h195v103q0 35 -5 64t-21 63t-43.5 56.5t-77 38t-115.5 15.5q-59 0 -103.5 -12.5
t-69 -29t-43.5 -46.5t-26 -49t-16 -53h-107q4 39 15 74.5t37.5 75.5t65 69.5t103 48.5t146.5 19q366 0 366 -324zM770 485v37h-201q-178 0 -271 -54.5t-93 -180.5q0 -96 63.5 -155.5t169.5 -59.5q85 0 146.5 23t96.5 58.5t55.5 92t27 111.5t6.5 128zM883 1370h-117
q121 93 121 166q0 33 -21 51.5t-61 18.5q-73 0 -121 -41l-37 67q71 64 170 64q81 0 123.5 -40.5t42.5 -111.5q0 -94 -100 -174zM461 1436h123l221 -277h-123l-160 203l-157 -203h-121z" />
    <glyph glyph-name="uni1EAA" unicode="&#x1eaa;" horiz-adv-x="1314" 
d="M952 492h-602l-180 -492h-117l525 1434h137l547 -1434h-125zM389 598h526q-245 647 -270 725h-2q-33 -106 -254 -725zM438 1817h-80v20q0 79 37 115.5t99 36.5q56 0 169 -38t148 -38q30 0 46.5 11.5t16.5 45.5v17h82v-23q0 -147 -141 -147q-45 0 -160 39.5t-155 39.5
q-27 0 -44.5 -16t-17.5 -49v-14zM592 1735h125l270 -187h-151l-183 117l-178 -117h-147z" />
    <glyph glyph-name="uni1EAB" unicode="&#x1eab;" horiz-adv-x="1042" 
d="M874 725v-528q0 -115 15 -197h-103q-13 39 -18 156q-15 -32 -38.5 -60.5t-62.5 -57.5t-99.5 -46t-135.5 -17q-86 0 -153 26t-107 70.5t-60 98t-20 113.5q0 166 123.5 247.5t357.5 81.5h195v103q0 35 -5 64t-21 63t-43.5 56.5t-77 38t-115.5 15.5q-59 0 -103.5 -12.5
t-69 -29t-43.5 -46.5t-26 -49t-16 -53h-107q4 39 15 74.5t37.5 75.5t65 69.5t103 48.5t146.5 19q366 0 366 -324zM770 485v37h-201q-178 0 -271 -54.5t-93 -180.5q0 -96 63.5 -155.5t169.5 -59.5q85 0 146.5 23t96.5 58.5t55.5 92t27 111.5t6.5 128zM334 1444h-80v20
q0 80 36.5 117t96.5 37q45 0 94.5 -20t91.5 -40t68 -20q29 0 44 13.5t15 47.5v17h82v-23q0 -149 -141 -149q-48 0 -129.5 42t-116.5 42q-26 0 -43.5 -18t-17.5 -52v-14zM449 1354h131l225 -199h-135l-156 137l-152 -137h-133z" />
    <glyph glyph-name="uni1EAC" unicode="&#x1eac;" horiz-adv-x="1314" 
d="M952 492h-602l-180 -492h-117l525 1434h137l547 -1434h-125zM389 598h526q-245 647 -270 725h-2q-33 -106 -254 -725zM717 -356h-121v182h121v-182zM582 1812h125l270 -260h-139l-195 187l-213 -187h-133z" />
    <glyph glyph-name="uni1EAD" unicode="&#x1ead;" horiz-adv-x="1042" 
d="M874 725v-528q0 -115 15 -197h-103q-13 39 -18 156q-15 -32 -38.5 -60.5t-62.5 -57.5t-99.5 -46t-135.5 -17q-86 0 -153 26t-107 70.5t-60 98t-20 113.5q0 166 123.5 247.5t357.5 81.5h195v103q0 35 -5 64t-21 63t-43.5 56.5t-77 38t-115.5 15.5q-59 0 -103.5 -12.5
t-69 -29t-43.5 -46.5t-26 -49t-16 -53h-107q4 39 15 74.5t37.5 75.5t65 69.5t103 48.5t146.5 19q366 0 366 -324zM770 485v37h-201q-178 0 -271 -54.5t-93 -180.5q0 -96 63.5 -155.5t169.5 -59.5q85 0 146.5 23t96.5 58.5t55.5 92t27 111.5t6.5 128zM584 -356h-121v182h121
v-182zM463 1511h119l221 -315h-121l-160 242l-157 -242h-119z" />
    <glyph glyph-name="uni1EAE" unicode="&#x1eae;" horiz-adv-x="1314" 
d="M952 492h-602l-180 -492h-117l525 1434h137l547 -1434h-125zM389 598h526q-245 647 -270 725h-2q-33 -106 -254 -725zM336 1769h104q56 -122 207 -122q65 0 111 20.5t65.5 44t36.5 57.5h101q-64 -216 -314 -219q-62 -1 -113.5 15t-84.5 39.5t-58 54.5t-37 57.5t-18 52.5z
M780 2030h158l-242 -222h-118z" />
    <glyph glyph-name="uni1EAF" unicode="&#x1eaf;" horiz-adv-x="1042" 
d="M874 725v-528q0 -115 15 -197h-103q-13 39 -18 156q-15 -32 -38.5 -60.5t-62.5 -57.5t-99.5 -46t-135.5 -17q-86 0 -153 26t-107 70.5t-60 98t-20 113.5q0 166 123.5 247.5t357.5 81.5h195v103q0 35 -5 64t-21 63t-43.5 56.5t-77 38t-115.5 15.5q-59 0 -103.5 -12.5
t-69 -29t-43.5 -46.5t-26 -49t-16 -53h-107q4 39 15 74.5t37.5 75.5t65 69.5t103 48.5t146.5 19q366 0 366 -324zM770 485v37h-201q-178 0 -271 -54.5t-93 -180.5q0 -96 63.5 -155.5t169.5 -59.5q85 0 146.5 23t96.5 58.5t55.5 92t27 111.5t6.5 128zM236 1389h96
q19 -56 65.5 -91.5t120.5 -35.5q85 0 127.5 34.5t63.5 92.5h90q-24 -106 -96.5 -166t-184.5 -60q-121 0 -191.5 66t-90.5 160zM651 1688h129l-221 -248h-113z" />
    <glyph glyph-name="uni1EB0" unicode="&#x1eb0;" horiz-adv-x="1314" 
d="M952 492h-602l-180 -492h-117l525 1434h137l547 -1434h-125zM389 598h526q-245 647 -270 725h-2q-33 -106 -254 -725zM336 1769h104q56 -122 207 -122q65 0 111 20.5t65.5 44t36.5 57.5h101q-29 -98 -105.5 -158.5t-208.5 -60.5q-61 0 -112.5 15.5t-84.5 39t-58 54.5
t-37.5 57.5t-18.5 52.5zM383 2030h154l202 -222h-121z" />
    <glyph glyph-name="uni1EB1" unicode="&#x1eb1;" horiz-adv-x="1042" 
d="M874 725v-528q0 -115 15 -197h-103q-13 39 -18 156q-15 -32 -38.5 -60.5t-62.5 -57.5t-99.5 -46t-135.5 -17q-86 0 -153 26t-107 70.5t-60 98t-20 113.5q0 166 123.5 247.5t357.5 81.5h195v103q0 35 -5 64t-21 63t-43.5 56.5t-77 38t-115.5 15.5q-59 0 -103.5 -12.5
t-69 -29t-43.5 -46.5t-26 -49t-16 -53h-107q4 39 15 74.5t37.5 75.5t65 69.5t103 48.5t146.5 19q366 0 366 -324zM770 485v37h-201q-178 0 -271 -54.5t-93 -180.5q0 -96 63.5 -155.5t169.5 -59.5q85 0 146.5 23t96.5 58.5t55.5 92t27 111.5t6.5 128zM238 1393h96
q19 -56 65.5 -91.5t120.5 -35.5q85 0 127.5 34.5t63.5 92.5h90q-24 -106 -96.5 -166t-184.5 -60q-121 0 -191.5 66t-90.5 160zM248 1692h137l205 -248h-113z" />
    <glyph glyph-name="uni1EB2" unicode="&#x1eb2;" horiz-adv-x="1314" 
d="M952 492h-602l-180 -492h-117l525 1434h137l547 -1434h-125zM389 598h526q-245 647 -270 725h-2q-33 -106 -254 -725zM698 1794h-120q122 94 122 164t-84 70q-68 0 -122 -43l-37 69q78 66 174 66q80 0 124 -42.5t44 -109.5q0 -91 -101 -174zM338 1769h100
q60 -122 211 -122q64 0 110 20.5t66 44t37 57.5h101q-32 -96 -108 -157.5t-206 -61.5q-61 0 -112.5 15.5t-84.5 39t-58 54.5t-37.5 57.5t-18.5 52.5z" />
    <glyph glyph-name="uni1EB3" unicode="&#x1eb3;" horiz-adv-x="1042" 
d="M874 725v-528q0 -115 15 -197h-103q-13 39 -18 156q-15 -32 -38.5 -60.5t-62.5 -57.5t-99.5 -46t-135.5 -17q-86 0 -153 26t-107 70.5t-60 98t-20 113.5q0 166 123.5 247.5t357.5 81.5h195v103q0 35 -5 64t-21 63t-43.5 56.5t-77 38t-115.5 15.5q-59 0 -103.5 -12.5
t-69 -29t-43.5 -46.5t-26 -49t-16 -53h-107q4 39 15 74.5t37.5 75.5t65 69.5t103 48.5t146.5 19q366 0 366 -324zM770 485v37h-201q-178 0 -271 -54.5t-93 -180.5q0 -96 63.5 -155.5t169.5 -59.5q85 0 146.5 23t96.5 58.5t55.5 92t27 111.5t6.5 128zM561 1432h-112
q133 97 133 163q0 70 -80 70q-71 0 -125 -47l-33 68q69 69 168 69q81 0 122.5 -39.5t41.5 -109.5q0 -50 -32.5 -96.5t-82.5 -77.5zM242 1395h96q19 -56 65.5 -91.5t120.5 -35.5q85 0 127.5 34.5t63.5 92.5h90q-24 -106 -96.5 -166t-184.5 -60q-121 0 -191.5 66t-90.5 160z
" />
    <glyph glyph-name="uni1EB4" unicode="&#x1eb4;" horiz-adv-x="1314" 
d="M952 492h-602l-180 -492h-117l525 1434h137l547 -1434h-125zM389 598h526q-245 647 -270 725h-2q-33 -106 -254 -725zM430 1833h-80v20q0 79 37 115.5t98 36.5q57 0 170 -38t148 -38q30 0 46.5 12t16.5 46v16h82v-23q0 -147 -141 -147q-45 0 -160 40t-155 40
q-27 0 -44.5 -16.5t-17.5 -49.5v-14zM346 1737h103q52 -97 198 -97q92 0 137 25t66 72h98q-28 -87 -101 -141t-200 -54q-71 0 -127.5 18.5t-91 49.5t-54.5 62.5t-28 64.5z" />
    <glyph glyph-name="uni1EB5" unicode="&#x1eb5;" horiz-adv-x="1042" 
d="M874 725v-528q0 -115 15 -197h-103q-13 39 -18 156q-15 -32 -38.5 -60.5t-62.5 -57.5t-99.5 -46t-135.5 -17q-86 0 -153 26t-107 70.5t-60 98t-20 113.5q0 166 123.5 247.5t357.5 81.5h195v103q0 35 -5 64t-21 63t-43.5 56.5t-77 38t-115.5 15.5q-59 0 -103.5 -12.5
t-69 -29t-43.5 -46.5t-26 -49t-16 -53h-107q4 39 15 74.5t37.5 75.5t65 69.5t103 48.5t146.5 19q366 0 366 -324zM770 485v37h-201q-178 0 -271 -54.5t-93 -180.5q0 -96 63.5 -155.5t169.5 -59.5q85 0 146.5 23t96.5 58.5t55.5 92t27 111.5t6.5 128zM342 1477h-80v20
q0 78 37.5 115t97.5 37q58 0 139 -38t109 -38q31 0 47.5 11.5t16.5 45.5v17h82v-23q0 -147 -142 -147q-48 0 -129.5 39.5t-116.5 39.5q-27 0 -44 -16t-17 -49v-14zM258 1372h94q50 -110 172 -110q81 0 118 29t58 81h93q-18 -96 -88 -152.5t-181 -56.5q-114 0 -183 63.5
t-83 145.5z" />
    <glyph glyph-name="uni1EB6" unicode="&#x1eb6;" horiz-adv-x="1314" 
d="M952 492h-602l-180 -492h-117l525 1434h137l547 -1434h-125zM389 598h526q-245 647 -270 725h-2q-33 -106 -254 -725zM717 -356h-121v182h121v-182zM352 1806h99q14 -70 64 -109.5t132 -39.5q168 0 201 149h94q-17 -115 -94.5 -181t-200.5 -66q-136 0 -210.5 71
t-84.5 176z" />
    <glyph glyph-name="uni1EB7" unicode="&#x1eb7;" horiz-adv-x="1042" 
d="M874 725v-528q0 -115 15 -197h-103q-13 39 -18 156q-15 -32 -38.5 -60.5t-62.5 -57.5t-99.5 -46t-135.5 -17q-86 0 -153 26t-107 70.5t-60 98t-20 113.5q0 166 123.5 247.5t357.5 81.5h195v103q0 35 -5 64t-21 63t-43.5 56.5t-77 38t-115.5 15.5q-59 0 -103.5 -12.5
t-69 -29t-43.5 -46.5t-26 -49t-16 -53h-107q4 39 15 74.5t37.5 75.5t65 69.5t103 48.5t146.5 19q366 0 366 -324zM770 485v37h-201q-178 0 -271 -54.5t-93 -180.5q0 -96 63.5 -155.5t169.5 -59.5q85 0 146.5 23t96.5 58.5t55.5 92t27 111.5t6.5 128zM248 1475h90
q15 -72 61 -118t123 -46q48 0 83 14t55.5 39.5t31.5 51t19 59.5h90q-16 -118 -88.5 -190.5t-190.5 -72.5q-66 0 -118.5 23t-84.5 61.5t-49.5 83.5t-21.5 95zM584 -356h-121v182h121v-182z" />
    <glyph glyph-name="uni1EB8" unicode="&#x1eb8;" horiz-adv-x="1196" 
d="M1044 809v-107h-729v-596h799l-16 -106h-897v1434h880v-107h-766v-518h729zM717 -356h-121v182h121v-182z" />
    <glyph glyph-name="uni1EB9" unicode="&#x1eb9;" horiz-adv-x="1030" 
d="M946 500h-751q1 -196 91 -311t238 -115q68 0 120 17t85 48.5t51.5 60t34.5 66.5h111q-18 -56 -47.5 -103.5t-76.5 -92t-119.5 -70t-162.5 -25.5q-113 0 -199 45.5t-136 122.5t-74.5 168t-24.5 193q0 113 28 210t81.5 172.5t140 119t196.5 43.5q91 0 164 -30t119 -77.5
t77 -110t43.5 -124t12.5 -123.5q0 -57 -2 -84zM201 592h637q-2 157 -83.5 257.5t-226.5 100.5q-288 0 -327 -358zM596 -356h-121v182h121v-182z" />
    <glyph glyph-name="uni1EBA" unicode="&#x1eba;" horiz-adv-x="1196" 
d="M1044 809v-107h-729v-596h799l-16 -106h-897v1434h880v-107h-766v-518h729zM702 1573h-129q69 55 102.5 99t33.5 87q0 36 -24 60t-73 24q-65 0 -129 -39l-34 76q78 59 182 59q87 0 135.5 -50.5t48.5 -119.5q0 -45 -19.5 -85.5t-39.5 -61t-54 -49.5z" />
    <glyph glyph-name="uni1EBB" unicode="&#x1ebb;" horiz-adv-x="1030" 
d="M946 500h-751q1 -196 91 -311t238 -115q68 0 120 17t85 48.5t51.5 60t34.5 66.5h111q-18 -56 -47.5 -103.5t-76.5 -92t-119.5 -70t-162.5 -25.5q-113 0 -199 45.5t-136 122.5t-74.5 168t-24.5 193q0 113 28 210t81.5 172.5t140 119t196.5 43.5q91 0 164 -30t119 -77.5
t77 -110t43.5 -124t12.5 -123.5q0 -57 -2 -84zM201 592h637q-2 157 -83.5 257.5t-226.5 100.5q-288 0 -327 -358zM594 1184h-129q135 107 135 186q0 36 -23.5 60t-72.5 24q-65 0 -129 -39l-35 76q78 59 182 59q87 0 136 -51t49 -119q0 -45 -19.5 -85.5t-39.5 -61t-54 -49.5z
" />
    <glyph glyph-name="uni1EBC" unicode="&#x1ebc;" horiz-adv-x="1196" 
d="M1044 809v-107h-729v-596h799l-16 -106h-897v1434h880v-107h-766v-518h729zM401 1614h-94v26q0 187 160 187q51 0 119.5 -28.5t129.5 -57.5t95 -29q35 0 52.5 22t17.5 76v27h88v-37q0 -99 -39.5 -143.5t-116.5 -44.5q-41 0 -92 19t-91 41.5t-86.5 41.5t-78.5 19
q-64 0 -64 -82v-37z" />
    <glyph glyph-name="uni1EBD" unicode="&#x1ebd;" horiz-adv-x="1030" 
d="M946 500h-751q1 -196 91 -311t238 -115q68 0 120 17t85 48.5t51.5 60t34.5 66.5h111q-18 -56 -47.5 -103.5t-76.5 -92t-119.5 -70t-162.5 -25.5q-113 0 -199 45.5t-136 122.5t-74.5 168t-24.5 193q0 113 28 210t81.5 172.5t140 119t196.5 43.5q91 0 164 -30t119 -77.5
t77 -110t43.5 -124t12.5 -123.5q0 -57 -2 -84zM201 592h637q-2 157 -83.5 257.5t-226.5 100.5q-288 0 -327 -358zM307 1260h-88v34q0 179 152 179q37 0 81 -17.5t77.5 -38t71 -38t63.5 -17.5q33 0 48 20.5t15 73.5v25h86v-35q0 -186 -149 -186q-47 0 -100.5 28.5t-105 57
t-91.5 28.5q-60 0 -60 -80v-34z" />
    <glyph glyph-name="uni1EBE" unicode="&#x1ebe;" horiz-adv-x="1196" 
d="M1044 809v-107h-729v-596h799l-16 -106h-897v1434h880v-107h-766v-518h729zM575 1804h117l273 -235h-146l-186 153l-184 -153h-138zM1061 2005h149l-245 -227h-123z" />
    <glyph glyph-name="uni1EBF" unicode="&#x1ebf;" horiz-adv-x="1030" 
d="M946 500h-751q1 -196 91 -311t238 -115q68 0 120 17t85 48.5t51.5 60t34.5 66.5h111q-18 -56 -47.5 -103.5t-76.5 -92t-119.5 -70t-162.5 -25.5q-113 0 -199 45.5t-136 122.5t-74.5 168t-24.5 193q0 113 28 210t81.5 172.5t140 119t196.5 43.5q91 0 164 -30t119 -77.5
t77 -110t43.5 -124t12.5 -123.5q0 -57 -2 -84zM201 592h637q-2 157 -83.5 257.5t-226.5 100.5q-288 0 -327 -358zM463 1436h123l221 -277h-123l-160 203l-157 -203h-121zM958 1661h140l-256 -264h-111z" />
    <glyph glyph-name="uni1EC0" unicode="&#x1ec0;" horiz-adv-x="1196" 
d="M1044 809v-107h-729v-596h799l-16 -106h-897v1434h880v-107h-766v-518h729zM575 1812h117l273 -235h-146l-186 154l-184 -154h-138zM758 1980h160l227 -221h-123z" />
    <glyph glyph-name="uni1EC1" unicode="&#x1ec1;" horiz-adv-x="1030" 
d="M946 500h-751q1 -196 91 -311t238 -115q68 0 120 17t85 48.5t51.5 60t34.5 66.5h111q-18 -56 -47.5 -103.5t-76.5 -92t-119.5 -70t-162.5 -25.5q-113 0 -199 45.5t-136 122.5t-74.5 168t-24.5 193q0 113 28 210t81.5 172.5t140 119t196.5 43.5q91 0 164 -30t119 -77.5
t77 -110t43.5 -124t12.5 -123.5q0 -57 -2 -84zM201 592h637q-2 157 -83.5 257.5t-226.5 100.5q-288 0 -327 -358zM463 1436h123l221 -277h-123l-160 203l-157 -203h-121zM641 1645h139l205 -271h-106z" />
    <glyph glyph-name="uni1EC2" unicode="&#x1ec2;" horiz-adv-x="1196" 
d="M1044 809v-107h-729v-596h799l-16 -106h-897v1434h880v-107h-766v-518h729zM1001 1780h-120q120 83 120 159q0 74 -83 74q-63 0 -123 -39l-35 76q79 55 168 55q82 0 128 -43t46 -110q0 -51 -28.5 -96.5t-72.5 -75.5zM571 1815h117l273 -236h-146l-186 154l-185 -154h-137
z" />
    <glyph glyph-name="uni1EC3" unicode="&#x1ec3;" horiz-adv-x="1030" 
d="M946 500h-751q1 -196 91 -311t238 -115q68 0 120 17t85 48.5t51.5 60t34.5 66.5h111q-18 -56 -47.5 -103.5t-76.5 -92t-119.5 -70t-162.5 -25.5q-113 0 -199 45.5t-136 122.5t-74.5 168t-24.5 193q0 113 28 210t81.5 172.5t140 119t196.5 43.5q91 0 164 -30t119 -77.5
t77 -110t43.5 -124t12.5 -123.5q0 -57 -2 -84zM201 592h637q-2 157 -83.5 257.5t-226.5 100.5q-288 0 -327 -358zM874 1370h-116q121 93 121 166q0 33 -21 51.5t-61 18.5q-73 0 -121 -41l-37 67q71 64 170 64q81 0 123.5 -40.5t42.5 -111.5q0 -93 -101 -174zM453 1436h122
l222 -277h-123l-160 203l-158 -203h-120z" />
    <glyph glyph-name="uni1EC4" unicode="&#x1ec4;" horiz-adv-x="1196" 
d="M1044 809v-107h-729v-596h799l-16 -106h-897v1434h880v-107h-766v-518h729zM418 1845h-80v21q0 79 36.5 115t98.5 36q57 0 170 -37.5t148 -37.5q30 0 46.5 11.5t16.5 45.5v16h82v-22q0 -148 -141 -148q-45 0 -160.5 40t-155.5 40q-27 0 -44 -16t-17 -49v-15zM571 1763
h125l271 -186h-152l-182 117l-178 -117h-148z" />
    <glyph glyph-name="uni1EC5" unicode="&#x1ec5;" horiz-adv-x="1030" 
d="M946 500h-751q1 -196 91 -311t238 -115q68 0 120 17t85 48.5t51.5 60t34.5 66.5h111q-18 -56 -47.5 -103.5t-76.5 -92t-119.5 -70t-162.5 -25.5q-113 0 -199 45.5t-136 122.5t-74.5 168t-24.5 193q0 113 28 210t81.5 172.5t140 119t196.5 43.5q91 0 164 -30t119 -77.5
t77 -110t43.5 -124t12.5 -123.5q0 -57 -2 -84zM201 592h637q-2 157 -83.5 257.5t-226.5 100.5q-288 0 -327 -358zM334 1438h-80v20q0 80 36.5 117t96.5 37q45 0 94.5 -20t91.5 -40t68 -20q29 0 44 13.5t15 47.5v17h82v-23q0 -149 -141 -149q-48 0 -129.5 42t-116.5 42
q-26 0 -43.5 -18t-17.5 -52v-14zM449 1348h131l225 -199h-135l-156 137l-152 -137h-133z" />
    <glyph glyph-name="uni1EC6" unicode="&#x1ec6;" horiz-adv-x="1196" 
d="M1044 809v-107h-729v-596h799l-16 -106h-897v1434h880v-107h-766v-518h729zM698 -356h-120v182h120v-182zM575 1841h125l271 -260h-140l-194 186l-213 -186h-133z" />
    <glyph glyph-name="uni1EC7" unicode="&#x1ec7;" horiz-adv-x="1030" 
d="M946 500h-751q1 -196 91 -311t238 -115q68 0 120 17t85 48.5t51.5 60t34.5 66.5h111q-18 -56 -47.5 -103.5t-76.5 -92t-119.5 -70t-162.5 -25.5q-113 0 -199 45.5t-136 122.5t-74.5 168t-24.5 193q0 113 28 210t81.5 172.5t140 119t196.5 43.5q91 0 164 -30t119 -77.5
t77 -110t43.5 -124t12.5 -123.5q0 -57 -2 -84zM201 592h637q-2 157 -83.5 257.5t-226.5 100.5q-288 0 -327 -358zM596 -356h-121v182h121v-182zM475 1511h119l221 -315h-121l-159 242l-158 -242h-119z" />
    <glyph glyph-name="uni1EC8" unicode="&#x1ec8;" horiz-adv-x="514" 
d="M201 1434h114v-1434h-114v1434zM324 1565h-129q135 107 135 186q0 36 -24 60t-73 24q-65 0 -129 -39l-34 76q78 59 182 59q87 0 135.5 -50.5t48.5 -119.5q0 -46 -19.5 -86t-39 -61t-53.5 -49z" />
    <glyph glyph-name="uni1EC9" unicode="&#x1ec9;" horiz-adv-x="440" 
d="M168 0v1024h106v-1024h-106zM287 1202h-129q135 107 135 187q0 36 -23.5 60t-72.5 24q-65 0 -129 -39l-35 75q79 60 182 60q87 0 135.5 -50.5t48.5 -119.5q0 -35 -9.5 -65t-28.5 -55t-34.5 -41t-39.5 -36z" />
    <glyph glyph-name="uni1ECA" unicode="&#x1eca;" horiz-adv-x="514" 
d="M201 1434h114v-1434h-114v1434zM317 -356h-120v182h120v-182z" />
    <glyph glyph-name="uni1ECB" unicode="&#x1ecb;" horiz-adv-x="440" 
d="M168 0v1024h106v-1024h-106zM274 1309h-106v200h106v-200zM281 -356h-121v182h121v-182z" />
    <glyph glyph-name="uni1ECC" unicode="&#x1ecc;" horiz-adv-x="1521" 
d="M768 1454q193 0 339.5 -94.5t223 -259t76.5 -373.5q0 -119 -25 -228t-78 -204t-129 -165t-184 -110t-237 -40q-196 0 -343 99t-221.5 264.5t-74.5 373.5q0 154 43 287t123 233.5t205.5 158.5t281.5 58zM764 1348q-107 0 -195.5 -34t-149 -93t-102 -139t-60.5 -170
t-19 -189q0 -125 34 -239t98 -203t165 -142t225 -53q108 0 196 34t148 93.5t101.5 141t60 174t18.5 196.5q0 126 -33.5 237.5t-97 198t-164 137t-225.5 50.5zM819 -356h-121v182h121v-182z" />
    <glyph glyph-name="uni1ECD" unicode="&#x1ecd;" horiz-adv-x="1085" 
d="M547 1049q204 0 328 -147t124 -388q0 -108 -30 -204.5t-86 -171.5t-145.5 -119t-200.5 -44q-206 0 -328.5 150.5t-122.5 386.5q0 150 52 270t158 193.5t251 73.5zM541 950q-166 0 -254 -122t-88 -316q0 -187 94 -312.5t252 -125.5q161 0 251.5 121t90.5 317
q0 189 -91.5 313.5t-254.5 124.5zM602 -356h-121v182h121v-182z" />
    <glyph glyph-name="uni1ECE" unicode="&#x1ece;" horiz-adv-x="1521" 
d="M768 1454q193 0 339.5 -94.5t223 -259t76.5 -373.5q0 -119 -25 -228t-78 -204t-129 -165t-184 -110t-237 -40q-196 0 -343 99t-221.5 264.5t-74.5 373.5q0 154 43 287t123 233.5t205.5 158.5t281.5 58zM764 1348q-107 0 -195.5 -34t-149 -93t-102 -139t-60.5 -170
t-19 -189q0 -125 34 -239t98 -203t165 -142t225 -53q108 0 196 34t148 93.5t101.5 141t60 174t18.5 196.5q0 126 -33.5 237.5t-97 198t-164 137t-225.5 50.5zM825 1565h-129q135 107 135 186q0 36 -23.5 60t-72.5 24q-65 0 -129 -39l-35 76q78 59 183 59q87 0 135.5 -50.5
t48.5 -119.5q0 -45 -19.5 -85.5t-39.5 -61t-54 -49.5z" />
    <glyph glyph-name="uni1ECF" unicode="&#x1ecf;" horiz-adv-x="1085" 
d="M547 1049q204 0 328 -147t124 -388q0 -108 -30 -204.5t-86 -171.5t-145.5 -119t-200.5 -44q-206 0 -328.5 150.5t-122.5 386.5q0 150 52 270t158 193.5t251 73.5zM541 950q-166 0 -254 -122t-88 -316q0 -187 94 -312.5t252 -125.5q161 0 251.5 121t90.5 317
q0 189 -91.5 313.5t-254.5 124.5zM608 1202h-129q135 107 135 187q0 36 -23.5 60t-72.5 24q-65 0 -129 -39l-35 75q79 60 183 60q87 0 135.5 -50.5t48.5 -119.5q0 -35 -9.5 -65t-28.5 -55t-34.5 -40.5t-40.5 -36.5z" />
    <glyph glyph-name="uni1ED0" unicode="&#x1ed0;" horiz-adv-x="1521" 
d="M768 1454q193 0 339.5 -94.5t223 -259t76.5 -373.5q0 -119 -25 -228t-78 -204t-129 -165t-184 -110t-237 -40q-196 0 -343 99t-221.5 264.5t-74.5 373.5q0 154 43 287t123 233.5t205.5 158.5t281.5 58zM764 1348q-107 0 -195.5 -34t-149 -93t-102 -139t-60.5 -170
t-19 -189q0 -125 34 -239t98 -203t165 -142t225 -53q108 0 196 34t148 93.5t101.5 141t60 174t18.5 196.5q0 126 -33.5 237.5t-97 198t-164 137t-225.5 50.5zM698 1800h117l272 -235h-145l-186 153l-185 -153h-137zM1184 2001h149l-246 -227h-122z" />
    <glyph glyph-name="uni1ED1" unicode="&#x1ed1;" horiz-adv-x="1085" 
d="M547 1049q204 0 328 -147t124 -388q0 -108 -30 -204.5t-86 -171.5t-145.5 -119t-200.5 -44q-206 0 -328.5 150.5t-122.5 386.5q0 150 52 270t158 193.5t251 73.5zM541 950q-166 0 -254 -122t-88 -316q0 -187 94 -312.5t252 -125.5q161 0 251.5 121t90.5 317
q0 189 -91.5 313.5t-254.5 124.5zM479 1436h123l221 -277h-123l-159 203l-158 -203h-121zM975 1661h139l-256 -264h-110z" />
    <glyph glyph-name="uni1ED2" unicode="&#x1ed2;" horiz-adv-x="1521" 
d="M768 1454q193 0 339.5 -94.5t223 -259t76.5 -373.5q0 -119 -25 -228t-78 -204t-129 -165t-184 -110t-237 -40q-196 0 -343 99t-221.5 264.5t-74.5 373.5q0 154 43 287t123 233.5t205.5 158.5t281.5 58zM764 1348q-107 0 -195.5 -34t-149 -93t-102 -139t-60.5 -170
t-19 -189q0 -125 34 -239t98 -203t165 -142t225 -53q108 0 196 34t148 93.5t101.5 141t60 174t18.5 196.5q0 126 -33.5 237.5t-97 198t-164 137t-225.5 50.5zM698 1800h117l272 -235h-145l-186 153l-185 -153h-137zM881 1968h159l228 -221h-123z" />
    <glyph glyph-name="uni1ED3" unicode="&#x1ed3;" horiz-adv-x="1085" 
d="M547 1049q204 0 328 -147t124 -388q0 -108 -30 -204.5t-86 -171.5t-145.5 -119t-200.5 -44q-206 0 -328.5 150.5t-122.5 386.5q0 150 52 270t158 193.5t251 73.5zM541 950q-166 0 -254 -122t-88 -316q0 -187 94 -312.5t252 -125.5q161 0 251.5 121t90.5 317
q0 189 -91.5 313.5t-254.5 124.5zM479 1436h123l221 -277h-123l-159 203l-158 -203h-121zM657 1645h140l204 -271h-106z" />
    <glyph glyph-name="uni1ED4" unicode="&#x1ed4;" horiz-adv-x="1521" 
d="M768 1454q193 0 339.5 -94.5t223 -259t76.5 -373.5q0 -119 -25 -228t-78 -204t-129 -165t-184 -110t-237 -40q-196 0 -343 99t-221.5 264.5t-74.5 373.5q0 154 43 287t123 233.5t205.5 158.5t281.5 58zM764 1348q-107 0 -195.5 -34t-149 -93t-102 -139t-60.5 -170
t-19 -189q0 -125 34 -239t98 -203t165 -142t225 -53q108 0 196 34t148 93.5t101.5 141t60 174t18.5 196.5q0 126 -33.5 237.5t-97 198t-164 137t-225.5 50.5zM1128 1765h-120q120 83 120 160q0 33 -20 53.5t-64 20.5q-62 0 -122 -39l-35 76q79 55 168 55q82 0 128 -43.5
t46 -110.5q0 -51 -28.5 -96.5t-72.5 -75.5zM698 1800h117l272 -235h-145l-186 153l-185 -153h-137z" />
    <glyph glyph-name="uni1ED5" unicode="&#x1ed5;" horiz-adv-x="1085" 
d="M547 1049q204 0 328 -147t124 -388q0 -108 -30 -204.5t-86 -171.5t-145.5 -119t-200.5 -44q-206 0 -328.5 150.5t-122.5 386.5q0 150 52 270t158 193.5t251 73.5zM541 950q-166 0 -254 -122t-88 -316q0 -187 94 -312.5t252 -125.5q161 0 251.5 121t90.5 317
q0 189 -91.5 313.5t-254.5 124.5zM901 1370h-117q121 93 121 166q0 33 -21 51.5t-61 18.5q-73 0 -121 -41l-36 67q71 64 170 64q81 0 123 -40.5t42 -111.5q0 -94 -100 -174zM479 1436h123l221 -277h-123l-159 203l-158 -203h-121z" />
    <glyph glyph-name="uni1ED6" unicode="&#x1ed6;" horiz-adv-x="1521" 
d="M768 1454q193 0 339.5 -94.5t223 -259t76.5 -373.5q0 -119 -25 -228t-78 -204t-129 -165t-184 -110t-237 -40q-196 0 -343 99t-221.5 264.5t-74.5 373.5q0 154 43 287t123 233.5t205.5 158.5t281.5 58zM764 1348q-107 0 -195.5 -34t-149 -93t-102 -139t-60.5 -170
t-19 -189q0 -125 34 -239t98 -203t165 -142t225 -53q108 0 196 34t148 93.5t101.5 141t60 174t18.5 196.5q0 126 -33.5 237.5t-97 198t-164 137t-225.5 50.5zM541 1833h-80v20q0 79 37 115.5t98 36.5q57 0 169.5 -38t147.5 -38q30 0 47 12t17 46v16h82v-23q0 -147 -141 -147
q-45 0 -160.5 40t-155.5 40q-27 0 -44 -16.5t-17 -49.5v-14zM694 1751h125l271 -186h-152l-182 116l-178 -116h-148z" />
    <glyph glyph-name="uni1ED7" unicode="&#x1ed7;" horiz-adv-x="1085" 
d="M547 1049q204 0 328 -147t124 -388q0 -108 -30 -204.5t-86 -171.5t-145.5 -119t-200.5 -44q-206 0 -328.5 150.5t-122.5 386.5q0 150 52 270t158 193.5t251 73.5zM541 950q-166 0 -254 -122t-88 -316q0 -187 94 -312.5t252 -125.5q161 0 251.5 121t90.5 317
q0 189 -91.5 313.5t-254.5 124.5zM360 1438h-79v20q0 80 36.5 117t96.5 37q45 0 94.5 -20t91.5 -40t68 -20q29 0 44 13.5t15 47.5v17h82v-23q0 -149 -141 -149q-48 0 -129.5 42t-116.5 42q-26 0 -44 -18t-18 -52v-14zM475 1348h131l225 -199h-135l-155 137l-152 -137h-133z
" />
    <glyph glyph-name="uni1ED8" unicode="&#x1ed8;" horiz-adv-x="1521" 
d="M768 1454q193 0 339.5 -94.5t223 -259t76.5 -373.5q0 -119 -25 -228t-78 -204t-129 -165t-184 -110t-237 -40q-196 0 -343 99t-221.5 264.5t-74.5 373.5q0 154 43 287t123 233.5t205.5 158.5t281.5 58zM764 1348q-107 0 -195.5 -34t-149 -93t-102 -139t-60.5 -170
t-19 -189q0 -125 34 -239t98 -203t165 -142t225 -53q108 0 196 34t148 93.5t101.5 141t60 174t18.5 196.5q0 126 -33.5 237.5t-97 198t-164 137t-225.5 50.5zM819 -356h-121v182h121v-182zM705 1825h124l271 -260h-139l-195 186l-213 -186h-133z" />
    <glyph glyph-name="uni1ED9" unicode="&#x1ed9;" horiz-adv-x="1085" 
d="M547 1049q204 0 328 -147t124 -388q0 -108 -30 -204.5t-86 -171.5t-145.5 -119t-200.5 -44q-206 0 -328.5 150.5t-122.5 386.5q0 150 52 270t158 193.5t251 73.5zM541 950q-166 0 -254 -122t-88 -316q0 -187 94 -312.5t252 -125.5q161 0 251.5 121t90.5 317
q0 189 -91.5 313.5t-254.5 124.5zM602 -356h-121v182h121v-182zM481 1511h119l221 -315h-121l-159 242l-158 -242h-119z" />
    <glyph glyph-name="uni1EDA" unicode="&#x1eda;" horiz-adv-x="1521" 
d="M768 1454q245 0 408 -147q116 38 116 149q0 58 -22 111h110q15 -45 15 -105q0 -78 -39 -139t-109 -90q160 -202 160 -506q0 -119 -25 -228t-78 -204t-129 -165t-184 -110t-237 -40q-196 0 -343 99t-221.5 264.5t-74.5 373.5q0 154 43 287t123 233.5t205.5 158.5t281.5 58
zM764 1348q-107 0 -195.5 -34t-149 -93t-102 -139t-60.5 -170t-19 -189q0 -125 34 -239t98 -203t165 -142t225 -53q108 0 196 34t148 93.5t101.5 141t60 174t18.5 196.5q0 126 -33.5 237.5t-97 198t-164 137t-225.5 50.5zM985 1845h160l-344 -280h-131z" />
    <glyph glyph-name="uni1EDB" unicode="&#x1edb;" horiz-adv-x="1085" 
d="M547 1049q181 0 301 -117q147 33 147 158q0 57 -22 110h110q15 -45 15 -104q0 -90 -49.5 -155.5t-137.5 -88.5q88 -136 88 -338q0 -108 -30 -204.5t-86 -171.5t-145.5 -119t-200.5 -44q-206 0 -328.5 150.5t-122.5 386.5q0 150 52 270t158 193.5t251 73.5zM541 950
q-166 0 -254 -122t-88 -316q0 -187 94 -312.5t252 -125.5q161 0 251.5 121t90.5 317q0 189 -91.5 313.5t-254.5 124.5zM737 1530h140l-306 -322h-114z" />
    <glyph glyph-name="uni1EDC" unicode="&#x1edc;" horiz-adv-x="1521" 
d="M768 1454q245 0 408 -147q116 38 116 149q0 58 -22 111h110q15 -45 15 -105q0 -78 -39 -139t-109 -90q160 -202 160 -506q0 -119 -25 -228t-78 -204t-129 -165t-184 -110t-237 -40q-196 0 -343 99t-221.5 264.5t-74.5 373.5q0 154 43 287t123 233.5t205.5 158.5t281.5 58
zM764 1348q-107 0 -195.5 -34t-149 -93t-102 -139t-60.5 -170t-19 -189q0 -125 34 -239t98 -203t165 -142t225 -53q108 0 196 34t148 93.5t101.5 141t60 174t18.5 196.5q0 126 -33.5 237.5t-97 198t-164 137t-225.5 50.5zM412 1845h157l299 -280h-129z" />
    <glyph glyph-name="uni1EDD" unicode="&#x1edd;" horiz-adv-x="1085" 
d="M547 1049q181 0 301 -117q147 33 147 158q0 57 -22 110h110q15 -45 15 -104q0 -90 -49.5 -155.5t-137.5 -88.5q88 -136 88 -338q0 -108 -30 -204.5t-86 -171.5t-145.5 -119t-200.5 -44q-206 0 -328.5 150.5t-122.5 386.5q0 150 52 270t158 193.5t251 73.5zM541 950
q-166 0 -254 -122t-88 -316q0 -187 94 -312.5t252 -125.5q161 0 251.5 121t90.5 317q0 189 -91.5 313.5t-254.5 124.5zM203 1530h141l281 -322h-115z" />
    <glyph glyph-name="uni1EDE" unicode="&#x1ede;" horiz-adv-x="1521" 
d="M768 1454q245 0 408 -147q116 38 116 149q0 58 -22 111h110q15 -45 15 -105q0 -78 -39 -139t-109 -90q160 -202 160 -506q0 -119 -25 -228t-78 -204t-129 -165t-184 -110t-237 -40q-196 0 -343 99t-221.5 264.5t-74.5 373.5q0 154 43 287t123 233.5t205.5 158.5t281.5 58
zM764 1348q-107 0 -195.5 -34t-149 -93t-102 -139t-60.5 -170t-19 -189q0 -125 34 -239t98 -203t165 -142t225 -53q108 0 196 34t148 93.5t101.5 141t60 174t18.5 196.5q0 126 -33.5 237.5t-97 198t-164 137t-225.5 50.5zM825 1565h-129q135 107 135 186q0 36 -23.5 60
t-72.5 24q-65 0 -129 -39l-35 76q78 59 183 59q87 0 135.5 -50.5t48.5 -119.5q0 -45 -19.5 -85.5t-39.5 -61t-54 -49.5z" />
    <glyph glyph-name="uni1EDF" unicode="&#x1edf;" horiz-adv-x="1085" 
d="M547 1049q181 0 301 -117q147 33 147 158q0 57 -22 110h110q15 -45 15 -104q0 -90 -49.5 -155.5t-137.5 -88.5q88 -136 88 -338q0 -108 -30 -204.5t-86 -171.5t-145.5 -119t-200.5 -44q-206 0 -328.5 150.5t-122.5 386.5q0 150 52 270t158 193.5t251 73.5zM541 950
q-166 0 -254 -122t-88 -316q0 -187 94 -312.5t252 -125.5q161 0 251.5 121t90.5 317q0 189 -91.5 313.5t-254.5 124.5zM608 1202h-129q135 107 135 187q0 36 -23.5 60t-72.5 24q-65 0 -129 -39l-35 75q79 60 183 60q87 0 135.5 -50.5t48.5 -119.5q0 -35 -9.5 -65t-28.5 -55
t-34.5 -40.5t-40.5 -36.5z" />
    <glyph glyph-name="uni1EE0" unicode="&#x1ee0;" horiz-adv-x="1521" 
d="M768 1454q245 0 408 -147q116 38 116 149q0 58 -22 111h110q15 -45 15 -105q0 -78 -39 -139t-109 -90q160 -202 160 -506q0 -119 -25 -228t-78 -204t-129 -165t-184 -110t-237 -40q-196 0 -343 99t-221.5 264.5t-74.5 373.5q0 154 43 287t123 233.5t205.5 158.5t281.5 58
zM764 1348q-107 0 -195.5 -34t-149 -93t-102 -139t-60.5 -170t-19 -189q0 -125 34 -239t98 -203t165 -142t225 -53q108 0 196 34t148 93.5t101.5 141t60 174t18.5 196.5q0 126 -33.5 237.5t-97 198t-164 137t-225.5 50.5zM524 1583h-94v27q0 186 160 186q51 0 119.5 -29
t129.5 -57.5t95 -28.5t52 22.5t18 76.5v26h88v-37q0 -99 -39.5 -143.5t-116.5 -44.5q-51 0 -117.5 30.5t-128.5 60.5t-102 30q-64 0 -64 -82v-37z" />
    <glyph glyph-name="uni1EE1" unicode="&#x1ee1;" horiz-adv-x="1085" 
d="M547 1049q181 0 301 -117q147 33 147 158q0 57 -22 110h110q15 -45 15 -104q0 -90 -49.5 -155.5t-137.5 -88.5q88 -136 88 -338q0 -108 -30 -204.5t-86 -171.5t-145.5 -119t-200.5 -44q-206 0 -328.5 150.5t-122.5 386.5q0 150 52 270t158 193.5t251 73.5zM541 950
q-166 0 -254 -122t-88 -316q0 -187 94 -312.5t252 -125.5q161 0 251.5 121t90.5 317q0 189 -91.5 313.5t-254.5 124.5zM334 1260h-88v34q0 179 151 179q37 0 81 -17.5t77.5 -38t71 -38t63.5 -17.5q33 0 48.5 21t15.5 73v25h86v-35q0 -186 -150 -186q-47 0 -100.5 28.5
t-105 57t-91.5 28.5q-59 0 -59 -80v-34z" />
    <glyph glyph-name="uni1EE2" unicode="&#x1ee2;" horiz-adv-x="1521" 
d="M768 1454q245 0 408 -147q116 38 116 149q0 58 -22 111h110q15 -45 15 -105q0 -78 -39 -139t-109 -90q160 -202 160 -506q0 -119 -25 -228t-78 -204t-129 -165t-184 -110t-237 -40q-196 0 -343 99t-221.5 264.5t-74.5 373.5q0 154 43 287t123 233.5t205.5 158.5t281.5 58
zM764 1348q-107 0 -195.5 -34t-149 -93t-102 -139t-60.5 -170t-19 -189q0 -125 34 -239t98 -203t165 -142t225 -53q108 0 196 34t148 93.5t101.5 141t60 174t18.5 196.5q0 126 -33.5 237.5t-97 198t-164 137t-225.5 50.5zM819 -356h-121v182h121v-182z" />
    <glyph glyph-name="uni1EE3" unicode="&#x1ee3;" horiz-adv-x="1085" 
d="M547 1049q181 0 301 -117q147 33 147 158q0 57 -22 110h110q15 -45 15 -104q0 -90 -49.5 -155.5t-137.5 -88.5q88 -136 88 -338q0 -108 -30 -204.5t-86 -171.5t-145.5 -119t-200.5 -44q-206 0 -328.5 150.5t-122.5 386.5q0 150 52 270t158 193.5t251 73.5zM541 950
q-166 0 -254 -122t-88 -316q0 -187 94 -312.5t252 -125.5q161 0 251.5 121t90.5 317q0 189 -91.5 313.5t-254.5 124.5zM602 -356h-121v182h121v-182z" />
    <glyph glyph-name="uni1EE4" unicode="&#x1ee4;" horiz-adv-x="1447" 
d="M193 1434h118v-869q0 -110 24 -195t63.5 -137t94.5 -85.5t111.5 -46.5t120.5 -13q95 0 167 22t130 74t88.5 148t30.5 233v869h116v-863q0 -587 -536 -587q-87 0 -163.5 19t-144.5 62t-116 107.5t-76 162t-28 218.5v881zM782 -356h-120v182h120v-182z" />
    <glyph glyph-name="uni1EE5" unicode="&#x1ee5;" horiz-adv-x="1103" 
d="M936 1024v-725q0 -57 1 -171.5t1 -127.5h-102q-7 47 -7 176q-34 -94 -115.5 -147.5t-211.5 -53.5q-50 0 -93 8.5t-89.5 33t-79 64t-53.5 107.5t-21 158v678h104v-651q0 -293 248 -293q168 0 239.5 98.5t71.5 319.5v526h107zM612 -356h-120v182h120v-182z" />
    <glyph glyph-name="uni1EE6" unicode="&#x1ee6;" horiz-adv-x="1447" 
d="M193 1434h118v-869q0 -110 24 -195t63.5 -137t94.5 -85.5t111.5 -46.5t120.5 -13q95 0 167 22t130 74t88.5 148t30.5 233v869h116v-863q0 -587 -536 -587q-87 0 -163.5 19t-144.5 62t-116 107.5t-76 162t-28 218.5v881zM788 1565h-129q69 55 102.5 99t33.5 87
q0 36 -24 60t-73 24q-65 0 -129 -39l-34 76q78 59 182 59q87 0 135.5 -50.5t48.5 -119.5q0 -45 -19.5 -85.5t-39.5 -61t-54 -49.5z" />
    <glyph glyph-name="uni1EE7" unicode="&#x1ee7;" horiz-adv-x="1103" 
d="M936 1024v-725q0 -57 1 -171.5t1 -127.5h-102q-7 47 -7 176q-34 -94 -115.5 -147.5t-211.5 -53.5q-50 0 -93 8.5t-89.5 33t-79 64t-53.5 107.5t-21 158v678h104v-651q0 -293 248 -293q168 0 239.5 98.5t71.5 319.5v526h107zM590 1202h-129q135 107 135 187q0 36 -23.5 60
t-72.5 24q-65 0 -129 -39l-35 75q79 60 182 60q87 0 135.5 -50.5t48.5 -119.5q0 -35 -9.5 -65t-28.5 -55t-34.5 -41t-39.5 -36z" />
    <glyph glyph-name="uni1EE8" unicode="&#x1ee8;" horiz-adv-x="1447" 
d="M193 1434h118v-869q0 -110 24 -195t63.5 -137t94.5 -85.5t111.5 -46.5t120.5 -13q95 0 167 22t130 74t88.5 148t30.5 233v869h57q76 19 108.5 57.5t32.5 97.5q0 58 -22 111h110q15 -45 15 -105q0 -88 -49 -153t-136 -90v-781q0 -587 -536 -587q-87 0 -163.5 19t-144.5 62
t-116 107.5t-76 162t-28 218.5v881zM948 1845h160l-344 -280h-131z" />
    <glyph glyph-name="uni1EE9" unicode="&#x1ee9;" horiz-adv-x="1103" 
d="M829 176q-34 -94 -115.5 -147.5t-211.5 -53.5q-50 0 -93 8.5t-89.5 33t-79 64t-53.5 107.5t-21 158v678h104v-651q0 -293 248 -293q168 0 239.5 98.5t71.5 319.5v526h50q92 16 131 57t39 105q0 54 -23 110h111q14 -42 14 -104q0 -99 -59 -168.5t-156 -81.5v-643
q0 -57 1 -171.5t1 -127.5h-102q-7 47 -7 176zM748 1530h139l-305 -322h-115z" />
    <glyph glyph-name="uni1EEA" unicode="&#x1eea;" horiz-adv-x="1447" 
d="M193 1434h118v-869q0 -110 24 -195t63.5 -137t94.5 -85.5t111.5 -46.5t120.5 -13q95 0 167 22t130 74t88.5 148t30.5 233v869h57q76 19 108.5 57.5t32.5 97.5q0 58 -22 111h110q15 -45 15 -105q0 -88 -49 -153t-136 -90v-781q0 -587 -536 -587q-87 0 -163.5 19t-144.5 62
t-116 107.5t-76 162t-28 218.5v881zM375 1845h157l299 -280h-129z" />
    <glyph glyph-name="uni1EEB" unicode="&#x1eeb;" horiz-adv-x="1103" 
d="M829 176q-34 -94 -115.5 -147.5t-211.5 -53.5q-50 0 -93 8.5t-89.5 33t-79 64t-53.5 107.5t-21 158v678h104v-651q0 -293 248 -293q168 0 239.5 98.5t71.5 319.5v526h50q92 16 131 57t39 105q0 54 -23 110h111q14 -42 14 -104q0 -99 -59 -168.5t-156 -81.5v-643
q0 -57 1 -171.5t1 -127.5h-102q-7 47 -7 176zM233 1530h142l280 -322h-114z" />
    <glyph glyph-name="uni1EEC" unicode="&#x1eec;" horiz-adv-x="1447" 
d="M193 1434h118v-869q0 -110 24 -195t63.5 -137t94.5 -85.5t111.5 -46.5t120.5 -13q95 0 167 22t130 74t88.5 148t30.5 233v869h57q76 19 108.5 57.5t32.5 97.5q0 58 -22 111h110q15 -45 15 -105q0 -88 -49 -153t-136 -90v-781q0 -587 -536 -587q-87 0 -163.5 19t-144.5 62
t-116 107.5t-76 162t-28 218.5v881zM788 1565h-129q69 55 102.5 99t33.5 87q0 36 -24 60t-73 24q-65 0 -129 -39l-34 76q78 59 182 59q87 0 135.5 -50.5t48.5 -119.5q0 -45 -19.5 -85.5t-39.5 -61t-54 -49.5z" />
    <glyph glyph-name="uni1EED" unicode="&#x1eed;" horiz-adv-x="1103" 
d="M829 176q-34 -94 -115.5 -147.5t-211.5 -53.5q-50 0 -93 8.5t-89.5 33t-79 64t-53.5 107.5t-21 158v678h104v-651q0 -293 248 -293q168 0 239.5 98.5t71.5 319.5v526h50q92 16 131 57t39 105q0 54 -23 110h111q14 -42 14 -104q0 -99 -59 -168.5t-156 -81.5v-643
q0 -57 1 -171.5t1 -127.5h-102q-7 47 -7 176zM618 1202h-129q136 108 136 187q0 36 -24 60t-73 24q-65 0 -129 -39l-34 75q79 60 182 60q87 0 135.5 -50.5t48.5 -119.5q0 -35 -9.5 -65t-28.5 -55t-34.5 -40.5t-40.5 -36.5z" />
    <glyph glyph-name="uni1EEE" unicode="&#x1eee;" horiz-adv-x="1447" 
d="M193 1434h118v-869q0 -110 24 -195t63.5 -137t94.5 -85.5t111.5 -46.5t120.5 -13q95 0 167 22t130 74t88.5 148t30.5 233v869h57q76 19 108.5 57.5t32.5 97.5q0 58 -22 111h110q15 -45 15 -105q0 -88 -49 -153t-136 -90v-781q0 -587 -536 -587q-87 0 -163.5 19t-144.5 62
t-116 107.5t-76 162t-28 218.5v881zM487 1583h-94v27q0 186 160 186q51 0 119.5 -29t129.5 -57.5t95 -28.5t52 22.5t18 76.5v26h88v-37q0 -99 -39.5 -143.5t-116.5 -44.5q-51 0 -117.5 30.5t-128.5 60.5t-102 30q-64 0 -64 -82v-37z" />
    <glyph glyph-name="uni1EEF" unicode="&#x1eef;" horiz-adv-x="1103" 
d="M829 176q-34 -94 -115.5 -147.5t-211.5 -53.5q-50 0 -93 8.5t-89.5 33t-79 64t-53.5 107.5t-21 158v678h104v-651q0 -293 248 -293q168 0 239.5 98.5t71.5 319.5v526h50q92 16 131 57t39 105q0 54 -23 110h111q14 -42 14 -104q0 -99 -59 -168.5t-156 -81.5v-643
q0 -57 1 -171.5t1 -127.5h-102q-7 47 -7 176zM344 1260h-88v34q0 179 152 179q46 0 102.5 -27.5t107 -55.5t82.5 -28q33 0 48.5 21t15.5 73v25h86v-35q0 -186 -150 -186q-47 0 -100.5 28.5t-105 57t-91.5 28.5q-59 0 -59 -80v-34z" />
    <glyph glyph-name="uni1EF0" unicode="&#x1ef0;" horiz-adv-x="1447" 
d="M193 1434h118v-869q0 -110 24 -195t63.5 -137t94.5 -85.5t111.5 -46.5t120.5 -13q95 0 167 22t130 74t88.5 148t30.5 233v869h57q76 19 108.5 57.5t32.5 97.5q0 58 -22 111h110q15 -45 15 -105q0 -88 -49 -153t-136 -90v-781q0 -587 -536 -587q-87 0 -163.5 19t-144.5 62
t-116 107.5t-76 162t-28 218.5v881zM782 -356h-120v182h120v-182z" />
    <glyph glyph-name="uni1EF1" unicode="&#x1ef1;" horiz-adv-x="1103" 
d="M829 176q-34 -94 -115.5 -147.5t-211.5 -53.5q-50 0 -93 8.5t-89.5 33t-79 64t-53.5 107.5t-21 158v678h104v-651q0 -293 248 -293q168 0 239.5 98.5t71.5 319.5v526h50q92 16 131 57t39 105q0 54 -23 110h111q14 -42 14 -104q0 -99 -59 -168.5t-156 -81.5v-643
q0 -57 1 -171.5t1 -127.5h-102q-7 47 -7 176zM612 -356h-120v182h120v-182z" />
    <glyph glyph-name="Ygrave" unicode="&#x1ef2;" horiz-adv-x="1171" 
d="M635 0h-117v539q0 20 -8 32l-512 863h133q50 -85 160 -271.5t188 -319.5t105 -181q107 191 463 772h127l-533 -871q-6 -12 -6 -31v-532zM238 1845h157l299 -280h-129z" />
    <glyph glyph-name="ygrave" unicode="&#x1ef3;" horiz-adv-x="933" 
d="M29 1024h116q78 -222 162.5 -457.5t118 -331.5t49.5 -145h2q88 269 320 934h110l-385 -1083q-42 -117 -77 -186.5t-78.5 -112t-91.5 -57.5t-121 -15q-46 0 -95 6v107q54 -7 93 -7q55 0 92 13t68 49t54 84t54 133zM127 1530h141l281 -322h-115z" />
    <glyph glyph-name="uni1EF4" unicode="&#x1ef4;" horiz-adv-x="1171" 
d="M635 0h-117v539q0 20 -8 32l-512 863h133q50 -85 160 -271.5t188 -319.5t105 -181q107 191 463 772h127l-533 -871q-6 -12 -6 -31v-532zM637 -356h-121v182h121v-182z" />
    <glyph glyph-name="uni1EF5" unicode="&#x1ef5;" horiz-adv-x="933" 
d="M29 1024h116q78 -222 162.5 -457.5t118 -331.5t49.5 -145h2q88 269 320 934h110l-385 -1083q-42 -117 -77 -186.5t-78.5 -112t-91.5 -57.5t-121 -15q-46 0 -95 6v107q54 -7 93 -7q55 0 92 13t68 49t54 84t54 133zM795 -356h-121v182h121v-182z" />
    <glyph glyph-name="uni1EF6" unicode="&#x1ef6;" horiz-adv-x="1171" 
d="M635 0h-117v539q0 20 -8 32l-512 863h133q50 -85 160 -271.5t188 -319.5t105 -181q107 191 463 772h127l-533 -871q-6 -12 -6 -31v-532zM651 1544h-129q135 107 135 187q0 36 -23.5 60t-72.5 24q-65 0 -129 -39l-35 75q79 60 183 60q87 0 135.5 -50.5t48.5 -119.5
q0 -35 -9.5 -65t-28.5 -55t-34.5 -40.5t-40.5 -36.5z" />
    <glyph glyph-name="uni1EF7" unicode="&#x1ef7;" horiz-adv-x="933" 
d="M29 1024h116q78 -222 162.5 -457.5t118 -331.5t49.5 -145h2q88 269 320 934h110l-385 -1083q-42 -117 -77 -186.5t-78.5 -112t-91.5 -57.5t-121 -15q-46 0 -95 6v107q54 -7 93 -7q55 0 92 13t68 49t54 84t54 133zM532 1202h-129q136 108 136 187q0 36 -24 60t-73 24
q-65 0 -129 -39l-34 75q79 60 182 60q87 0 135.5 -50.5t48.5 -119.5q0 -35 -9.5 -65t-28.5 -55t-34.5 -40.5t-40.5 -36.5z" />
    <glyph glyph-name="uni1EF8" unicode="&#x1ef8;" horiz-adv-x="1171" 
d="M635 0h-117v539q0 20 -8 32l-512 863h133q50 -85 160 -271.5t188 -319.5t105 -181q107 191 463 772h127l-533 -871q-6 -12 -6 -31v-532zM350 1583h-94v27q0 186 160 186q51 0 119.5 -29t129.5 -57.5t95 -28.5t51.5 22.5t17.5 76.5v26h89v-37q0 -99 -39.5 -143.5
t-116.5 -44.5q-51 0 -117.5 30.5t-128.5 60.5t-102 30q-64 0 -64 -82v-37z" />
    <glyph glyph-name="uni1EF9" unicode="&#x1ef9;" horiz-adv-x="933" 
d="M29 1024h116q78 -222 162.5 -457.5t118 -331.5t49.5 -145h2q88 269 320 934h110l-385 -1083q-42 -117 -77 -186.5t-78.5 -112t-91.5 -57.5t-121 -15q-46 0 -95 6v107q54 -7 93 -7q55 0 92 13t68 49t54 84t54 133zM258 1260h-88v34q0 179 152 179q46 0 102.5 -27.5
t107 -55.5t82.5 -28q33 0 48.5 21t15.5 73v25h86v-35q0 -186 -150 -186q-47 0 -100.5 28.5t-105 57t-91.5 28.5q-59 0 -59 -80v-34z" />
    <glyph glyph-name="uni2007" unicode="&#x2007;" horiz-adv-x="1091" 
 />
    <glyph glyph-name="uni2010" unicode="&#x2010;" horiz-adv-x="761" 
d="M123 575h516v-104h-516v104z" />
    <glyph glyph-name="figuredash" unicode="&#x2012;" horiz-adv-x="1091" 
d="M182 731h727v-102h-727v102z" />
    <glyph glyph-name="endash" unicode="&#x2013;" horiz-adv-x="1089" 
d="M123 575h844v-104h-844v104z" />
    <glyph glyph-name="emdash" unicode="&#x2014;" horiz-adv-x="1753" 
d="M123 575h1507v-104h-1507v104z" />
    <glyph glyph-name="uni2015" unicode="&#x2015;" horiz-adv-x="1753" 
d="M123 575h1507v-104h-1507v104z" />
    <glyph glyph-name="quoteleft" unicode="&#x2018;" horiz-adv-x="309" 
d="M174 1509h94q-38 -114 -64.5 -261t-29.5 -236h-108q7 113 40 263t68 234z" />
    <glyph glyph-name="quoteright" unicode="&#x2019;" horiz-adv-x="309" 
d="M135 1012h-94q38 112 63.5 258t28.5 239h111q-7 -114 -40.5 -264.5t-68.5 -232.5z" />
    <glyph glyph-name="quotesinglbase" unicode="&#x201a;" horiz-adv-x="309" 
d="M135 -254h-94q38 112 63.5 258.5t28.5 239.5h111q-7 -114 -40.5 -265.5t-68.5 -232.5z" />
    <glyph glyph-name="quotedblleft" unicode="&#x201c;" horiz-adv-x="641" 
d="M479 1483h90q-38 -118 -63.5 -260t-28.5 -238h-106q4 104 40 264t68 234zM182 1483h88q-39 -114 -64 -257t-28 -241h-106q6 110 41 266.5t69 231.5z" />
    <glyph glyph-name="quotedblright" unicode="&#x201d;" horiz-adv-x="641" 
d="M162 1012h-90q38 118 63.5 259.5t28.5 237.5h106q-4 -104 -40 -263.5t-68 -233.5zM459 1012h-88q39 114 64 256t28 241h106q-6 -112 -41 -268t-69 -229z" />
    <glyph glyph-name="quotedblbase" unicode="&#x201e;" horiz-adv-x="559" 
d="M131 -254h-90q38 118 63.5 260t28.5 238h109q-4 -103 -41 -262.5t-70 -235.5zM430 -254h-90q39 114 64 256.5t28 241.5h107q-6 -110 -41 -266.5t-68 -231.5z" />
    <glyph glyph-name="dagger" unicode="&#x2020;" horiz-adv-x="1011" 
d="M403 1329h109l-10 -469l348 10v-108l-348 10l10 -1042h-109l11 1042l-353 -10v108l353 -10z" />
    <glyph glyph-name="daggerdbl" unicode="&#x2021;" horiz-adv-x="1011" 
d="M414 295v532l-353 -8v107l353 -13l-11 416h109l-10 -416l348 13v-107l-348 8v-532l348 8v-108l-348 14l10 -479h-109l11 479l-353 -14v108z" />
    <glyph glyph-name="bullet" unicode="&#x2022;" horiz-adv-x="710" 
d="M184 696h342v-360h-342v360z" />
    <glyph glyph-name="ellipsis" unicode="&#x2026;" horiz-adv-x="1630" 
d="M262 0h-106v266h106v-266zM809 0h-107v266h107v-266zM1352 0h-107v266h107v-266z" />
    <glyph glyph-name="perthousand" unicode="&#x2030;" horiz-adv-x="2504" 
d="M2089 739q156 0 244 -105t88 -276q0 -77 -20.5 -144.5t-61 -121.5t-106 -86t-148.5 -33q-105 0 -179 53t-108.5 137.5t-34.5 190.5q0 75 20.5 143t60 122.5t103 87t142.5 32.5zM2087 643q-98 0 -158.5 -75t-60.5 -210q0 -127 59 -206.5t166 -79.5q105 0 163 77t58 209
q0 129 -59.5 207t-167.5 78zM412 1372q155 0 243 -104t88 -277q0 -108 -35.5 -193t-113 -138.5t-186.5 -53.5q-154 0 -238 106.5t-84 274.5q0 104 35.5 190t111 140.5t179.5 54.5zM410 1274q-100 0 -160 -75.5t-60 -207.5q0 -128 59.5 -207t166.5 -79q104 0 162.5 77.5
t58.5 208.5q0 130 -59.5 206.5t-167.5 76.5zM485 0h-116l907 1348h115zM1341 739q157 0 244.5 -104t87.5 -277q0 -165 -85 -273.5t-249 -111.5q-105 0 -180 53.5t-109 137.5t-34 190q0 78 20.5 146.5t59.5 122t102 85t143 31.5zM1341 641q-98 0 -159.5 -77.5t-61.5 -205.5
q0 -127 59.5 -206.5t166.5 -79.5q105 0 164 77.5t59 208.5q0 128 -60.5 205.5t-167.5 77.5z" />
    <glyph glyph-name="uni2032" unicode="&#x2032;" horiz-adv-x="395" 
d="M193 989h-91l80 520h111z" />
    <glyph glyph-name="uni2033" unicode="&#x2033;" horiz-adv-x="677" 
d="M186 989h-84l78 520h111zM473 989h-88l80 520h110z" />
    <glyph glyph-name="guilsinglleft" unicode="&#x2039;" horiz-adv-x="727" 
d="M602 922l-350 -392l352 -397h-127l-354 397l354 392h125z" />
    <glyph glyph-name="guilsinglright" unicode="&#x203a;" horiz-adv-x="727" 
d="M125 133l350 391l-352 398h127l354 -398l-354 -391h-125z" />
    <glyph glyph-name="fraction" unicode="&#x2044;" horiz-adv-x="376" 
d="M-199 0h-110l897 1348h108z" />
    <glyph glyph-name="zero.sups" unicode="&#x2070;" horiz-adv-x="765" 
d="M387 1702q144 0 221.5 -109.5t77.5 -304.5q0 -205 -77 -312.5t-228 -107.5q-141 0 -221 111.5t-80 302.5q0 197 83.5 308.5t223.5 111.5zM383 1614q-97 0 -151 -81.5t-54 -250.5q0 -156 56 -241t151 -85q107 0 156 82t49 248q0 162 -53.5 245t-153.5 83z" />
    <glyph glyph-name="four.sups" unicode="&#x2074;" horiz-adv-x="724" 
d="M557 877h-90v225h-416v80l395 504h111v-500h127l-8 -84h-119v-225zM164 1186h303v207q0 106 4 200q-14 -24 -68.5 -96t-132 -172t-106.5 -139z" />
    <glyph glyph-name="five.sups" unicode="&#x2075;" horiz-adv-x="765" 
d="M653 1690l-14 -91h-391q-4 -33 -39 -247q40 34 83.5 52.5t117.5 18.5q123 0 197.5 -74.5t74.5 -191.5q0 -127 -82 -208t-217 -81q-128 0 -207 68t-92 164h94q20 -67 71.5 -106.5t135.5 -39.5q92 0 142.5 53.5t50.5 141.5q0 83 -45.5 134.5t-141.5 51.5q-134 0 -194 -98
l-86 18q57 386 61 435h481z" />
    <glyph glyph-name="six.sups" unicode="&#x2076;" horiz-adv-x="749" 
d="M653 1505h-92q-42 113 -166 113q-60 0 -103 -24.5t-66.5 -70t-35.5 -97t-16 -119.5q77 116 240 116q124 0 193 -77.5t69 -190.5q0 -124 -81 -205.5t-206 -81.5q-140 0 -224.5 101t-84.5 311q0 63 10.5 121t34.5 113.5t59.5 96t90 65t122.5 24.5q111 0 176.5 -58.5
t79.5 -136.5zM389 952q82 0 136.5 47.5t54.5 147.5q0 92 -50.5 142t-142.5 50q-87 0 -143 -48t-56 -117q0 -35 11 -71.5t33 -71.5t63 -57t94 -22z" />
    <glyph glyph-name="seven.sups" unicode="&#x2077;" horiz-adv-x="679" 
d="M57 1690h564v-80q-120 -139 -208.5 -329.5t-133.5 -399.5h-103q32 184 130 386t206 332h-455v91z" />
    <glyph glyph-name="eight.sups" unicode="&#x2078;" horiz-adv-x="720" 
d="M356 868q-136 0 -211 70.5t-75 165.5q0 152 145 211q-54 25 -84.5 70.5t-30.5 99.5q0 95 68.5 156t198.5 61q121 0 185 -62t64 -147q0 -58 -28.5 -104.5t-83.5 -67.5q147 -57 147 -211q0 -104 -82.5 -173t-212.5 -69zM356 950q99 0 147 43.5t48 114.5q0 166 -193 166
q-190 0 -190 -160q0 -71 48.5 -117.5t139.5 -46.5zM360 1620q-76 0 -118.5 -33.5t-42.5 -93.5q0 -137 166 -137q71 0 112 34t41 103q0 58 -41 92.5t-117 34.5z" />
    <glyph glyph-name="nine.sups" unicode="&#x2079;" horiz-adv-x="724" 
d="M84 1065h94q44 -117 168 -117q55 0 95 24t63 70.5t35 103t16 132.5q-70 -104 -223 -104q-120 0 -191 73t-71 183q0 114 77 193t205 79q293 0 293 -395q0 -84 -14 -156.5t-46.5 -139.5t-94 -106t-146.5 -39q-118 0 -183 60t-77 139zM348 1620q-80 0 -133 -45t-53 -141
q0 -81 49.5 -131t140.5 -50t140 38.5t49 115.5q0 97 -50.5 155t-142.5 58z" />
    <glyph glyph-name="parenleft.sups" unicode="&#x207d;" horiz-adv-x="417" 
d="M248 1792h100q-178 -237 -178 -524q0 -278 178 -518h-100q-67 79 -117.5 217.5t-50.5 300.5q0 307 168 524z" />
    <glyph glyph-name="parenright.sups" unicode="&#x207e;" horiz-adv-x="417" 
d="M172 786h-100q178 237 178 525q0 278 -178 518h100q67 -79 117.5 -217.5t50.5 -300.5q0 -308 -168 -525z" />
    <glyph glyph-name="n.sups" unicode="&#x207f;" horiz-adv-x="759" 
d="M102 539v462q0 183 -2 218h86q4 -50 4 -115q66 131 230 131q44 0 82.5 -12t75 -39.5t58 -82.5t21.5 -132v-430h-90v407q0 92 -40 147.5t-130 55.5q-204 0 -204 -238v-372h-91z" />
    <glyph glyph-name="zero.subs" unicode="&#x2080;" horiz-adv-x="765" 
d="M387 471q144 0 221.5 -109.5t77.5 -304.5q0 -205 -77 -312t-228 -107q-141 0 -221 111t-80 302q0 197 83.5 308.5t223.5 111.5zM383 383q-97 0 -151 -81.5t-54 -250.5q0 -156 56 -240.5t151 -84.5q107 0 156 81.5t49 247.5q0 162 -53.5 245t-153.5 83z" />
    <glyph glyph-name="one.subs" unicode="&#x2081;" horiz-adv-x="485" 
d="M328 -354h-95v694q-33 -24 -94.5 -43t-91.5 -21v80q116 24 215 115h66v-825z" />
    <glyph glyph-name="two.subs" unicode="&#x2082;" horiz-adv-x="722" 
d="M647 -352h-567v8q0 199 278 373q107 68 137.5 104.5t30.5 93.5q0 73 -43.5 115.5t-122.5 42.5q-156 0 -188 -172h-92q13 122 90 190t195 68q69 0 122 -23t83 -59.5t44.5 -76.5t14.5 -79q0 -40 -11 -73t-25 -55.5t-47 -49.5t-57 -43t-75 -47q-187 -116 -221 -227h473z" />
    <glyph glyph-name="three.subs" unicode="&#x2083;" horiz-adv-x="739" 
d="M295 37v88h72q79 0 116 34t37 91q0 56 -38 96.5t-124 40.5q-139 0 -178 -135h-90q4 30 18.5 63.5t43.5 70t83 60t125 23.5q123 0 190.5 -60.5t67.5 -156.5q0 -60 -35.5 -104.5t-82.5 -61.5q71 -22 111 -74.5t40 -122.5q0 -106 -75 -178.5t-218 -72.5q-76 0 -133 24
t-88 62.5t-46.5 73t-20.5 69.5h92q12 -61 69 -104.5t134 -43.5q92 0 139 44t47 118q0 77 -48 116.5t-132 39.5h-76z" />
    <glyph glyph-name="four.subs" unicode="&#x2084;" horiz-adv-x="724" 
d="M557 -354h-90v225h-416v80l395 504h111v-500h127l-8 -84h-119v-225zM164 -45h303v207q0 106 4 200q-14 -24 -68.5 -96t-132 -172t-106.5 -139z" />
    <glyph glyph-name="five.subs" unicode="&#x2085;" horiz-adv-x="765" 
d="M653 459l-14 -90h-391q-4 -37 -39 -248q40 35 83.5 53.5t117.5 18.5q123 0 197.5 -75t74.5 -192q0 -127 -82 -207.5t-217 -80.5q-128 0 -207 67.5t-92 163.5h94q20 -67 71.5 -106t135.5 -39q92 0 142.5 53t50.5 141q0 83 -45.5 134.5t-141.5 51.5q-134 0 -194 -98l-86 19
q2 17 19 124t27.5 183t14.5 127h481z" />
    <glyph glyph-name="six.subs" unicode="&#x2086;" horiz-adv-x="749" 
d="M653 274h-92q-42 113 -166 113q-60 0 -103 -24.5t-66.5 -70t-35.5 -97t-16 -119.5q77 117 240 117q124 0 193 -78t69 -191q0 -124 -81 -205t-206 -81q-141 0 -225 101t-84 310q0 63 10.5 121t34.5 113.5t59.5 96t90 65t122.5 24.5q111 0 176.5 -58.5t79.5 -136.5z
M389 -279q82 0 136.5 47.5t54.5 147.5q0 92 -50.5 142.5t-142.5 50.5q-87 0 -143 -48.5t-56 -117.5q0 -35 11 -71.5t33 -71.5t63 -57t94 -22z" />
    <glyph glyph-name="seven.subs" unicode="&#x2087;" horiz-adv-x="679" 
d="M57 459h564v-80q-120 -139 -208.5 -329.5t-133.5 -399.5h-103q32 184 130 386.5t206 332.5h-455v90z" />
    <glyph glyph-name="eight.subs" unicode="&#x2088;" horiz-adv-x="720" 
d="M356 -362q-136 0 -211 70.5t-75 164.5q0 152 145 211q-54 25 -84.5 70.5t-30.5 99.5q0 95 68.5 156t198.5 61q121 0 185 -62t64 -147q0 -58 -28.5 -104.5t-83.5 -67.5q147 -57 147 -211q0 -104 -82 -172.5t-213 -68.5zM356 -281q99 0 147 43.5t48 114.5q0 166 -193 166
q-190 0 -190 -160q0 -71 48.5 -117.5t139.5 -46.5zM360 389q-76 0 -118.5 -33.5t-42.5 -93.5q0 -137 166 -137q71 0 112 34t41 103q0 58 -41 92.5t-117 34.5z" />
    <glyph glyph-name="nine.subs" unicode="&#x2089;" horiz-adv-x="724" 
d="M84 -166h94q44 -117 168 -117q55 0 95 24t63 70.5t35 103t16 132.5q-70 -104 -223 -104q-120 0 -191 73t-71 183q0 114 77 193t205 79q293 0 293 -395q0 -84 -14 -156.5t-46.5 -139.5t-94 -106t-146.5 -39q-118 0 -183 60t-77 139zM348 389q-80 0 -133 -45t-53 -141
q0 -81 49.5 -130.5t140.5 -49.5t140 38t49 115q0 97 -50.5 155t-142.5 58z" />
    <glyph glyph-name="parenleft.subs" unicode="&#x208d;" horiz-adv-x="417" 
d="M248 561h100q-178 -237 -178 -524q0 -278 178 -518h-100q-67 79 -117.5 217.5t-50.5 300.5q0 307 168 524z" />
    <glyph glyph-name="parenright.subs" unicode="&#x208e;" horiz-adv-x="417" 
d="M172 -444h-100q178 237 178 524q0 278 -178 518h100q67 -79 117.5 -217.5t50.5 -300.5q0 -307 -168 -524z" />
    <glyph glyph-name="colonmonetary" unicode="&#x20a1;" horiz-adv-x="1040" 
d="M561 84q27 0 39 2v1182q-10 2 -31 2q-35 0 -69 -6v-1174q30 -6 61 -6zM217 670q0 -205 50 -345t145 -200v1104q-195 -117 -195 -559zM500 -195h-88v201q-152 56 -231 229t-79 433q0 273 80 442t230 227v166h88v-143q38 6 73 6h27v137h88v-151q120 -29 188.5 -115
t84.5 -197h-107q-24 81 -62 133.5t-104 77.5v-1149q59 23 99 70t73 127h107q-71 -244 -279 -301v-193h-88v179q-14 -2 -45 -2q-19 0 -55 4v-181z" />
    <glyph glyph-name="franc" unicode="&#x20a3;" horiz-adv-x="985" 
d="M219 0v307h-188v96h188v945h701v-103h-588v-493h545v-103h-545v-246h291v-96h-291v-307h-113z" />
    <glyph glyph-name="lira" unicode="&#x20a4;" horiz-adv-x="1017" 
d="M961 0h-889v94q47 22 80.5 63.5t51.5 98.5t26 118t10 136h-201v86h201q0 58 -4 156h-197v88h194v73q0 455 355 455q83 0 147.5 -26t104.5 -70.5t61.5 -98t26.5 -114.5h-107q-14 100 -73.5 155.5t-165.5 55.5q-133 0 -185.5 -86.5t-52.5 -263.5v-80h326v-88h-324
q4 -90 4 -156h320v-86h-320q-3 -142 -30.5 -240.5t-90.5 -165.5h750z" />
    <glyph glyph-name="uni20A6" unicode="&#x20a6;" horiz-adv-x="1067" 
d="M231 1245q11 -164 11 -381h151l-155 381h-7zM793 756v18h-261l66 -162h195v144zM242 629v-17h256l-66 162h-190v-145zM799 129h8q-10 132 -14 395h-158zM242 0h-99v524h-102v88h102v162h-102v90h102v484h152l201 -484h297v484h96v-484h106v-90h-106v-162h106v-88h-106
v-524h-139l-215 524h-293v-524z" />
    <glyph glyph-name="peseta" unicode="&#x20a7;" horiz-adv-x="1040" 
d="M135 0v887h-127v96h127v365h311q182 0 304 -96t139 -269h102v-96h-102q-15 -175 -136 -273t-321 -98h-188v-516h-109zM244 1247v-264h532q-15 126 -108 195t-242 69h-182zM244 616h178q326 0 354 271h-532v-271z" />
    <glyph glyph-name="dong" unicode="&#x20ab;" horiz-adv-x="1042" 
d="M104 -164h789v-96h-789v96zM772 1368h107v-160h135v-96h-135v-821q0 -197 2 -291h-101q-8 50 -8 162q-93 -182 -317 -182q-80 0 -150.5 30t-126 87.5t-87.5 151.5t-32 212q0 117 34 212t92 155t133 92t159 32q68 0 120 -12.5t85.5 -36t53.5 -45.5t36 -51v305h-481v96h481
v160zM172 463q0 -180 84 -279.5t223 -99.5q60 0 110 19t95 63t70.5 127.5t25.5 200.5q0 98 -23.5 169t-65 111t-92 58t-112.5 18q-154 0 -234.5 -105t-80.5 -282z" />
    <glyph glyph-name="Euro" unicode="&#x20ac;" horiz-adv-x="1058" 
d="M889 305h106q-40 -161 -141.5 -244.5t-239.5 -83.5q-195 0 -302 143.5t-130 401.5h-133v94h127v54q0 59 2 88h-129v94h137q31 249 146.5 384.5t294.5 135.5q83 0 151 -27.5t111.5 -74.5t70 -102.5t35.5 -118.5h-108q-29 103 -96.5 161t-169.5 58q-273 0 -322 -416h418
v-94h-424q-2 -27 -2 -84v-58h426v-94h-420q21 -212 101 -326t223 -114q192 0 268 223z" />
    <glyph glyph-name="uni20B1" unicode="&#x20b1;" horiz-adv-x="1120" 
d="M184 0v776h-121v92h121v123h-121v92h121v265h336q154 0 265 -69.5t153 -195.5h117v-92h-97q5 -50 5 -65q0 -10 -1 -29.5t-1 -28.5h94v-92h-115q-43 -134 -164.5 -206t-290.5 -72h-190v-498h-111zM295 1253v-170h526q-80 170 -307 170h-219zM854 926q0 25 -4 65h-555v-123
h555q4 36 4 58zM295 592h190q123 0 212.5 45.5t127.5 138.5h-530v-184z" />
    <glyph glyph-name="uni20B2" unicode="&#x20b2;" horiz-adv-x="1093" 
d="M973 1038h-107q-55 213 -243 234v-1192q155 4 227 49v522h115v-579q-154 -90 -342 -90v-187h-99v193q-413 56 -413 700q0 304 106 479t307 197v143h99v-141q149 -11 242 -97.5t108 -230.5zM225 694q0 -541 299 -606v1182q-299 -44 -299 -576z" />
    <glyph glyph-name="uni20B4" unicode="&#x20b4;" horiz-adv-x="1028" 
d="M246 1053h-105q16 107 73 181t133 106t167 32q92 0 164 -29.5t112.5 -77.5t61 -102.5t20.5 -111.5q0 -118 -59 -193h115v-88h-207q-72 -54 -197 -123q-30 -17 -67 -39h450v-84h-573q-65 -53 -89 -101t-24 -110q0 -101 81.5 -171t199.5 -70q66 0 118 15.5t84.5 39
t56.5 58.5t36 67.5t20 73.5h103q-22 -165 -128.5 -258t-289.5 -93q-167 0 -278 92t-111 240q0 64 18 115t62 102h-99v84h195q75 57 196 123q5 3 31.5 17.5t38.5 21.5h-440v88h565q46 42 65 85.5t19 100.5q0 90 -64.5 161t-183.5 71q-222 0 -270 -223z" />
    <glyph glyph-name="uni20B5" unicode="&#x20b5;" horiz-adv-x="1056" 
d="M217 670q0 -262 73 -409.5t214 -172.5v1178q-151 -24 -219 -169.5t-68 -426.5zM602 -205h-98v189q-200 21 -301 197.5t-101 486.5q0 316 102.5 492t299.5 202v145h98v-141q86 -4 152.5 -34t107.5 -79.5t65 -108t34 -128.5h-107q-30 112 -90 178t-162 74v-1182
q98 6 158.5 60t99.5 188h107q-37 -163 -126 -250.5t-239 -99.5v-189z" />
    <glyph glyph-name="uni20B9" unicode="&#x20b9;" horiz-adv-x="1040" 
d="M106 584v92h191q55 0 102.5 6.5t99.5 26.5t88.5 51.5t60.5 86t24 126.5q0 25 -2 37h-564v84h545q-68 163 -342 163h-203v91h871v-86h-338q94 -62 127 -168h211v-84h-195q2 -10 2 -35q0 -155 -87.5 -247.5t-233.5 -125.5l459 -602h-134l-446 586q-16 -2 -49 -2h-187z" />
    <glyph glyph-name="uni20BA" unicode="&#x20ba;" horiz-adv-x="1107" 
d="M393 0h-110v549l-201 -88v100l201 88v168l-201 -88v100l201 89v430h106v-383l287 127v-101l-287 -127v-168l287 127v-102l-287 -125v-500q233 0 346.5 101t136.5 321h103q-41 -518 -582 -518z" />
    <glyph glyph-name="uni20BD" unicode="&#x20bd;" horiz-adv-x="1144" 
d="M238 0v360h-172v97h172v166h-172v100h172v625h354q202 0 317 -96t115 -263q0 -188 -111.5 -277t-316.5 -89h-244v-166h412v-97h-412v-360h-114zM352 1245v-522h252q162 0 231.5 64t69.5 200q0 124 -80 191t-231 67h-242z" />
    <glyph glyph-name="uni2113" unicode="&#x2113;" horiz-adv-x="806" 
d="M662 305h102q-19 -169 -93.5 -247t-215.5 -78q-271 0 -271 337v115q-16 -15 -36.5 -29t-46 -30t-38.5 -25l-34 88q51 32 155 109v557q0 111 22 193.5t60.5 128t84.5 66.5t100 21q127 0 188 -85t61 -232q0 -196 -97 -359t-308 -337v-154q0 -144 43.5 -204t126.5 -60
q40 0 68 8.5t54 31.5t44.5 68.5t30.5 116.5zM295 1122v-495q154 136 224.5 274.5t70.5 288.5q0 116 -35.5 169.5t-108.5 53.5q-74 0 -112.5 -69.5t-38.5 -221.5z" />
    <glyph glyph-name="uni2116" unicode="&#x2116;" horiz-adv-x="2091" 
d="M295 0h-105v1391h156q85 -143 175 -295.5t145.5 -247t115.5 -196t94 -159.5t70 -119.5t55 -95t37.5 -66.5t28.5 -53t18 -38h2q-5 73 -7.5 168.5t-3 145.5t0 189.5t0.5 163.5v603h103v-1391h-140q-256 440 -437.5 750.5t-243.5 415.5t-74 126h-2q12 -188 12 -667v-625z
M1432 885q0 -146 63 -225.5t168 -79.5q109 0 168 77.5t59 227.5q0 146 -62.5 226.5t-172.5 80.5q-99 0 -161 -80.5t-62 -226.5zM1380 346h559v-102h-559v102zM1657 1282q164 0 252 -108.5t88 -288.5q0 -183 -92 -293.5t-250 -110.5q-148 0 -238 111t-90 293
q0 178 90.5 287.5t239.5 109.5z" />
    <glyph glyph-name="uni2117" unicode="&#x2117;" horiz-adv-x="1638" 
d="M561 311v817h309q115 0 198 -66.5t83 -189.5q0 -130 -78.5 -198t-208.5 -68h-207v-295h-96zM659 1040v-350h209q97 0 139 46t42 130q0 83 -47 126.5t-136 45.5zM813 1454q202 0 362 -94.5t249 -261.5t89 -375q0 -213 -90 -383t-250 -265t-360 -95q-206 0 -367.5 93.5
t-251.5 263t-90 386.5q0 156 54.5 292t148.5 232t225.5 151.5t280.5 55.5zM811 1360q-127 0 -237.5 -44t-192.5 -125t-129 -204.5t-47 -273.5q0 -182 79.5 -329.5t218 -229.5t308.5 -82q261 0 430.5 180t169.5 471q0 182 -76 327t-213.5 227.5t-310.5 82.5z" />
    <glyph glyph-name="uni2120" unicode="&#x2120;" horiz-adv-x="925" 
d="M946 956h-74v164q0 152 9 258h-4q-15 -40 -168 -422h-62q-80 210 -155 422h-3q4 -48 7 -262v-160h-72v478h119q29 -76 79.5 -208.5t61.5 -160.5h2q83 210 145 369h115v-478zM-39 1112h74q6 -54 42 -82.5t87 -28.5q108 0 108 80q0 61 -129 90q-92 21 -124.5 56.5
t-32.5 87.5q0 58 41.5 94.5t126.5 36.5q89 0 133 -41.5t49 -108.5h-74q-8 44 -33.5 68.5t-78.5 24.5q-47 0 -69 -19t-22 -49q0 -19 4.5 -30t28.5 -25.5t70 -26.5q100 -25 143 -56.5t43 -92.5q0 -68 -45.5 -107t-142.5 -39q-89 0 -141 44.5t-58 123.5z" />
    <glyph glyph-name="trademark" unicode="&#x2122;" horiz-adv-x="958" 
d="M985 956h-76v164q0 152 9 258h-5l-165 -422h-64l-154 422h-2q4 -48 7 -262v-160h-74v478h121l141 -369h2l145 369h115v-478zM-27 1434h422v-70h-168v-408h-80v408h-174v70z" />
    <glyph glyph-name="uni2126" unicode="&#x2126;" horiz-adv-x="1511" 
d="M758 1454q122 0 226 -37t178.5 -101t127 -149.5t78 -183t25.5 -201.5q0 -466 -389 -680h419v-102h-528v139q177 89 279 251.5t102 391.5q0 113 -35 215t-100 181t-165 125.5t-222 46.5q-233 0 -377 -157t-144 -417q0 -116 31.5 -220t86 -182.5t121 -137t144.5 -97.5v-139
h-528v102h410q-381 226 -381 674q0 140 45.5 264t127.5 215.5t203.5 145t264.5 53.5z" />
    <glyph glyph-name="estimated" unicode="&#x212e;" horiz-adv-x="1701" 
d="M1610 649h-1274q-8 0 -8 -8v-291q0 -24 16 -43q86 -117 219.5 -180.5t278.5 -63.5q152 0 266 56t207 178h172q-51 -60 -89.5 -99t-99 -85t-122 -73t-149 -45t-189.5 -18q-166 0 -307 57.5t-235.5 154.5t-147 224t-52.5 265t58 264.5t157.5 221t241 150.5t299.5 56
q167 0 310.5 -58t240.5 -155t152 -224.5t55 -264.5v-19zM1374 748v243q0 7 -2 14t-4.5 11.5t-7 11.5t-6.5 10q-80 117 -217 181.5t-281 64.5q-145 0 -285 -68t-225 -184q-18 -27 -18 -47v-237q0 -11 8 -11h1030q8 0 8 11z" />
    <glyph glyph-name="onethird" unicode="&#x2153;" horiz-adv-x="1622" 
d="M319 4h-110l897 1348h108zM342 535h-94v694q-33 -24 -95 -43t-92 -21v80q116 24 215 115h66v-825zM1174 387v88h71q79 0 116.5 34.5t37.5 90.5t-38 96.5t-124 40.5q-139 0 -178 -135h-90q4 30 18.5 63.5t43.5 70t83 60t125 23.5q123 0 190.5 -60.5t67.5 -156.5
q0 -60 -35.5 -104.5t-83.5 -61.5q71 -22 111.5 -74t40.5 -122q0 -106 -75 -179t-218 -73q-61 0 -111 16.5t-80.5 41t-52.5 57.5t-31.5 60t-13.5 54h92q12 -61 69 -104t134 -43q92 0 139.5 44t47.5 117q0 77 -48.5 116.5t-132.5 39.5h-75z" />
    <glyph glyph-name="twothirds" unicode="&#x2154;" horiz-adv-x="1826" 
d="M551 4h-111l897 1348h109zM651 537h-567v8q0 199 278 373q107 68 137.5 104.5t30.5 93.5q0 73 -43.5 115.5t-121.5 42.5q-157 0 -189 -172h-92q13 122 90 190t195 68q69 0 122 -23t83 -59.5t44.5 -76.5t14.5 -79q0 -40 -11 -73t-25 -55.5t-47 -49.5t-57 -43t-75 -47
q-187 -116 -221 -227h473zM1389 387v88h71q79 0 116.5 34.5t37.5 90.5t-38 96.5t-124 40.5q-139 0 -178 -135h-90q4 30 18.5 63.5t43.5 70t83 60t125 23.5q123 0 190.5 -60.5t67.5 -156.5q0 -60 -35.5 -104.5t-83.5 -61.5q71 -22 111.5 -74t40.5 -122q0 -106 -75 -179
t-218 -73q-61 0 -111 16.5t-80.5 41t-52.5 57.5t-31.5 60t-13.5 54h92q12 -61 69 -104t134 -43q92 0 139.5 44t47.5 117q0 77 -48.5 116.5t-132.5 39.5h-75z" />
    </font>
</defs>
</svg>
