<?xml version="1.0" standalone="no"?>
<!DOCTYPE svg PUBLIC "-//W3C//DTD SVG 1.1//EN" "http://www.w3.org/Graphics/SVG/1.1/DTD/svg11.dtd" >
<svg xmlns="http://www.w3.org/2000/svg" xmlns:xlink="http://www.w3.org/1999/xlink" version="1.1">
<metadata>
Created by FontForge 20170731 at Mon Aug  1 15:47:04 2022
 By Aleksey,,,
(c) 2014 Adobe Systems Incorporated. All Rights Reserved.
</metadata>
<defs>
<font id="AcuminPro-Thin" horiz-adv-x="819" >
  <font-face 
    font-family="Acumin Pro"
    font-weight="250"
    font-stretch="normal"
    units-per-em="2048"
    panose-1="2 11 2 4 2 2 2 2 2 4"
    ascent="1505"
    descent="-543"
    x-height="1018"
    cap-height="1442"
    bbox="-336 -539 2091 2111"
    underline-thickness="102"
    underline-position="-307"
    unicode-range="U+0020-FB02"
  />
<missing-glyph horiz-adv-x="1024" 
d="M0 0v1434h1024v-1434h-1024zM512 809l348 522h-696zM573 717l349 -522v1044zM164 102h696l-348 523zM102 1239v-1044l349 522z" />
    <glyph glyph-name="f_f" unicode="ff" horiz-adv-x="958" 
d="M692 981h-442v-981h-41v981h-182v37h182v182q0 46 2.5 82t10 80.5t23.5 77t40.5 61t63.5 43.5t89 15q59 0 92 -17v-41q-36 19 -92 19q-101 0 -144.5 -68t-43.5 -231v-203h442v182q0 56 3.5 99t17.5 94.5t37.5 85.5t67.5 57t104 23q59 0 92 -17v-41q-36 19 -92 19
q-101 0 -145 -68t-44 -231v-203h215v-37h-215v-981h-41v981z" />
    <glyph glyph-name=".notdef" horiz-adv-x="1024" 
d="M0 0v1434h1024v-1434h-1024zM512 809l348 522h-696zM573 717l349 -522v1044zM164 102h696l-348 523zM102 1239v-1044l349 522z" />
    <glyph glyph-name=".null" horiz-adv-x="0" 
 />
    <glyph glyph-name="nonmarkingreturn" horiz-adv-x="682" 
 />
    <glyph glyph-name="space" unicode=" " horiz-adv-x="481" 
 />
    <glyph glyph-name="exclam" unicode="!" horiz-adv-x="532" 
d="M330 440h-37l-2 744v258h41v-258zM332 0h-41v229h41v-229z" />
    <glyph glyph-name="quotedbl" unicode="&#x22;" horiz-adv-x="452" 
d="M139 1090h-33l-4 296v152h41v-152zM346 1090h-33l-4 296v152h41v-152z" />
    <glyph glyph-name="numbersign" unicode="#" horiz-adv-x="1052" 
d="M563 0l88 463l-338 -2l-88 -461h-37l88 461h-210v39h217l75 403h-225v37h234l75 406h39l-78 -406h338l76 406h39l-78 -406h207v-37h-213l-78 -403h224v-37h-230l-88 -463h-37zM657 500l76 403h-336l-78 -403h338z" />
    <glyph glyph-name="dollar" unicode="$" horiz-adv-x="974" 
d="M131 1053q0 -117 71.5 -183.5t262.5 -119.5v598q-145 -2 -239.5 -79t-94.5 -216zM856 354q0 68 -22.5 122.5t-54 88t-83.5 61.5t-92.5 42t-99.5 30v-669q160 3 256 86.5t96 238.5zM504 -195h-39v189q-176 6 -289 96.5t-139 243.5h41q31 -143 134.5 -220t252.5 -85v680
q-100 29 -163 55t-114.5 65.5t-74.5 94t-23 129.5q0 144 102 236.5t273 92.5v168h39v-168q92 -4 161 -30t110 -69t63.5 -91t31.5 -105h-43q-18 112 -99.5 183t-223.5 78v-611q54 -14 94 -27.5t89.5 -35.5t84 -50t65.5 -65.5t46.5 -88.5t15.5 -112q0 -164 -103 -262
t-292 -102v-189z" />
    <glyph glyph-name="percent" unicode="%" horiz-adv-x="1507" 
d="M360 1380q139 0 211 -99t72 -269q0 -175 -76.5 -273t-206.5 -98t-205 99.5t-75 271.5q0 162 75 265t205 103zM360 1343q-114 0 -176.5 -88t-62.5 -243q0 -154 62.5 -245t176.5 -91q113 0 177.5 90t64.5 246q0 161 -63.5 246t-178.5 85zM330 0h-47l905 1356h47zM1143 719
q138 0 210 -99.5t72 -269.5q0 -175 -76 -272.5t-206 -97.5q-132 0 -207.5 98t-75.5 272q0 163 75.5 266t207.5 103zM1143 684q-114 0 -178 -91t-64 -243q0 -156 63.5 -245t178.5 -89q114 0 178.5 89t64.5 245q0 157 -65 245.5t-178 88.5z" />
    <glyph glyph-name="ampersand" unicode="&#x26;" horiz-adv-x="1415" 
d="M489 16q74 0 137.5 23.5t117 71t93.5 96t89 121.5l-443 428q-48 -29 -76.5 -47t-69 -46t-64.5 -50t-51.5 -53.5t-42 -61.5t-24.5 -68t-10 -80q0 -88 37.5 -162t117.5 -123t189 -49zM1300 887h48l-373 -553l348 -334h-59l-312 301q-118 -173 -218.5 -247t-246.5 -74
q-96 0 -172 32t-121 85.5t-68.5 117t-23.5 131.5q0 40 6.5 76t22.5 68.5t32 58.5t45 54t51 47t62 45.5t65 42.5t71 44q-101 97 -153 182t-52 187q0 133 87 222t224 89q75 0 134.5 -27t94 -70t52.5 -92t18 -99q0 -58 -16.5 -107t-42.5 -86t-73.5 -75t-92.5 -66.5t-117 -67.5
l428 -412zM561 1425q-119 0 -193.5 -79.5t-74.5 -194.5q0 -90 46.5 -169t154.5 -183q92 51 145 86t98 79.5t63.5 94.5t18.5 115q0 35 -13.5 75t-41 81t-81 68t-122.5 27z" />
    <glyph glyph-name="quotesingle" unicode="'" horiz-adv-x="245" 
d="M141 1090h-35l-4 296v152h41v-152z" />
    <glyph glyph-name="parenleft" unicode="(" horiz-adv-x="606" 
d="M438 1518h45q-340 -416 -340 -918q0 -533 340 -944h-45q-88 101 -160.5 235t-124 323t-51.5 384q0 155 31 300.5t84 261t106 200t115 158.5z" />
    <glyph glyph-name="parenright" unicode=")" horiz-adv-x="606" 
d="M168 -344h-45q340 416 340 917q0 534 -340 945h45q88 -101 160.5 -235t124 -323.5t51.5 -384.5q0 -155 -31 -300t-84 -260.5t-106 -200t-115 -158.5z" />
    <glyph glyph-name="asterisk" unicode="*" horiz-adv-x="712" 
d="M305 1442h41l-4 -303l248 172l22 -35l-260 -162l258 -160l-22 -34l-246 170l4 -299h-41l8 299l-247 -168l-23 34l260 158l-262 160l22 35l250 -170z" />
    <glyph glyph-name="plus" unicode="+" horiz-adv-x="1230" 
d="M594 1059h41v-492h493v-37h-493v-530h-41v530h-492v37h492v492z" />
    <glyph glyph-name="comma" unicode="," horiz-adv-x="296" 
d="M51 -238h-39q111 214 131 467h41q-8 -125 -48 -256.5t-85 -210.5z" />
    <glyph glyph-name="hyphen" unicode="-" horiz-adv-x="712" 
d="M102 535h508v-37h-508v37z" />
    <glyph glyph-name="period" unicode="." horiz-adv-x="245" 
d="M143 0h-41v229h41v-229z" />
    <glyph glyph-name="slash" unicode="/" horiz-adv-x="749" 
d="M152 -70h-41l479 1553h39z" />
    <glyph glyph-name="zero" unicode="0" horiz-adv-x="1136" 
d="M578 1380q82 0 149.5 -29.5t114 -81.5t81 -118.5t54 -146.5t28.5 -158.5t9 -161.5q0 -84 -8 -161.5t-25.5 -160.5t-51.5 -150.5t-81.5 -122t-118.5 -84.5t-160 -30q-101 0 -180.5 43t-128 111.5t-80.5 162.5t-44.5 187t-12.5 193q0 85 9 164t28.5 161t54.5 149
t83.5 120.5t120 83.5t159.5 30zM575 1343q-79 0 -143.5 -28.5t-108 -79.5t-75 -115t-49 -142t-25.5 -153t-8 -155q0 -91 11 -177t39.5 -175.5t72.5 -155.5t116.5 -108t165.5 -42q95 0 167.5 42t115.5 107.5t70.5 157t37 179.5t9.5 186q0 61 -5 121t-18 126.5t-33 124.5
t-51.5 111.5t-71.5 92t-95.5 61t-121.5 22.5z" />
    <glyph glyph-name="one" unicode="1" horiz-adv-x="630" 
d="M403 0h-41v1313q-43 -52 -150.5 -115.5t-160.5 -77.5v41q75 30 163 84t157 125h32v-1370z" />
    <glyph glyph-name="two" unicode="2" horiz-adv-x="1044" 
d="M981 0h-883v20q19 128 122 270t308 283q57 39 85.5 59t71 51.5t62.5 50.5t47.5 47t39.5 50.5t25 51.5t17.5 60t4.5 67q0 152 -91.5 242.5t-252.5 90.5q-160 0 -257.5 -90.5t-125.5 -263.5h-39q25 178 131 284.5t293 106.5q181 0 283 -103.5t102 -268.5
q0 -70 -17.5 -123.5t-65 -108t-111.5 -105t-177 -126.5q-353 -240 -412 -508h854z" />
    <glyph glyph-name="three" unicode="3" horiz-adv-x="1081" 
d="M170 1063h-39q4 27 15 60.5t39.5 81t68.5 84.5t109.5 64t154.5 27q169 0 271 -92.5t102 -247.5q0 -129 -71 -202.5t-179 -94.5v-2q135 -26 224 -123t89 -239q0 -79 -25.5 -149.5t-76 -128.5t-135 -92t-193.5 -34q-70 0 -130 14t-102 36.5t-77 53.5t-56.5 61t-37.5 63.5
t-23.5 57t-11.5 44.5h41q15 -58 45 -108t76.5 -93t117.5 -67.5t158 -24.5q170 0 277.5 92.5t107.5 264.5q0 167 -107.5 260.5t-297.5 93.5h-119v37h129q160 0 248 73.5t88 204.5q0 59 -19 111.5t-57 97t-104 70.5t-152 26q-69 0 -125 -18.5t-91.5 -45.5t-63.5 -66.5
t-42.5 -74t-25.5 -75.5z" />
    <glyph glyph-name="four" unicode="4" horiz-adv-x="1052" 
d="M799 0h-41v430h-690v43l690 895h41v-901h213l-8 -37h-205v-430zM758 467v438q0 354 8 420q-43 -62 -655 -858h647z" />
    <glyph glyph-name="five" unicode="5" horiz-adv-x="1114" 
d="M938 1356v-37h-639q-14 -131 -45 -337t-47 -275q116 184 366 184q190 0 302 -124.5t112 -317.5q0 -218 -120.5 -346t-323.5 -128q-167 0 -278.5 90.5t-141.5 241.5h41q31 -134 131 -214.5t246 -80.5q189 0 296 119t107 313q0 81 -22.5 153t-67 130t-118 92.5t-167.5 34.5
q-75 0 -137 -18.5t-105 -52t-71.5 -68t-52.5 -78.5l-45 14q27 117 61.5 362.5t42.5 342.5h676z" />
    <glyph glyph-name="six" unicode="6" horiz-adv-x="1112" 
d="M958 1104h-40q-34 109 -116 174t-210 65q-97 0 -172.5 -39.5t-123.5 -106t-78.5 -162.5t-43 -201t-12.5 -230q39 124 148 202.5t270 78.5q192 0 306.5 -128t114.5 -319q0 -112 -34 -202t-93 -146t-134.5 -85.5t-161.5 -29.5q-455 0 -455 660q0 115 13 217t46.5 201
t85 169.5t134.5 114t190 43.5q86 0 155 -26.5t110.5 -70t66 -88t34.5 -91.5zM580 12q161 0 271 114t110 310q0 113 -43 205t-131.5 149.5t-208.5 57.5q-82 0 -151.5 -22.5t-114.5 -59t-76.5 -83t-45.5 -92t-14 -89.5q0 -59 9.5 -118.5t37 -128.5t70.5 -121t117.5 -87
t169.5 -35z" />
    <glyph glyph-name="seven" unicode="7" horiz-adv-x="944" 
d="M37 1356h858v-35q-206 -265 -377.5 -623.5t-247.5 -697.5h-41q68 322 247.5 699.5t373.5 619.5h-813v37z" />
    <glyph glyph-name="eight" unicode="8" horiz-adv-x="1073" 
d="M532 -25q-180 0 -303 110.5t-123 281.5q0 153 87 247t215 123q-119 29 -182.5 111.5t-63.5 198.5q0 151 106 242t279 91q162 0 264 -90.5t102 -247.5q0 -115 -68 -199.5t-179 -107.5q144 -31 222.5 -132.5t78.5 -237.5q0 -167 -121.5 -278.5t-313.5 -111.5zM532 12
q168 0 281 96.5t113 253.5q0 158 -105.5 256.5t-277.5 98.5q-102 0 -180 -28.5t-123.5 -78t-67.5 -110t-22 -131.5q0 -154 109 -255.5t273 -101.5zM541 1343q-154 0 -245 -79.5t-91 -214.5q0 -134 85 -214.5t255 -80.5q147 0 236 76t89 210q0 136 -85 219.5t-244 83.5z" />
    <glyph glyph-name="nine" unicode="9" horiz-adv-x="1081" 
d="M133 256h41q41 -121 126 -182.5t206 -61.5q74 0 134.5 24t102.5 64.5t74 101t51.5 126t31.5 147t16 157t4 163.5q-87 -271 -400 -271q-191 0 -300 117t-109 303q0 190 111.5 313t299.5 123q115 0 200.5 -47t136 -131.5t75 -191.5t24.5 -236q0 -146 -13.5 -263.5
t-46 -219.5t-84 -170.5t-130.5 -107t-182 -38.5q-149 0 -241.5 77t-127.5 204zM522 1343q-162 0 -265 -104t-103 -295q0 -170 100 -276.5t266 -106.5q186 0 283.5 101.5t97.5 267.5q0 15 -3 39t-12.5 64.5t-25.5 80t-45.5 82t-67.5 74.5t-96.5 52.5t-128.5 20.5z" />
    <glyph glyph-name="colon" unicode=":" horiz-adv-x="430" 
d="M236 0h-41v229h41v-229zM236 793h-41v225h41v-225z" />
    <glyph glyph-name="semicolon" unicode=";" horiz-adv-x="471" 
d="M147 -238h-41q55 108 88 216t44 251h41q-24 -260 -132 -467zM276 793h-40v225h40v-225z" />
    <glyph glyph-name="less" unicode="&#x3c;" horiz-adv-x="1128" 
d="M102 492v45l924 458v-43l-887 -436l887 -455v-43z" />
    <glyph glyph-name="equal" unicode="=" horiz-adv-x="1271" 
d="M123 342h1026v-37h-1026v37zM123 793h1026v-37h-1026v37z" />
    <glyph glyph-name="greater" unicode="&#x3e;" horiz-adv-x="1128" 
d="M1026 522v-45l-924 -459v43l887 437l-887 454v43z" />
    <glyph glyph-name="question" unicode="?" horiz-adv-x="1005" 
d="M547 412h-39v4q0 42 5 73.5t22 75.5t56 93.5t101 105.5q60 54 98 103t55.5 94t23 79t5.5 78q0 57 -18.5 110t-55.5 98t-99 72t-142 27q-144 0 -235 -78t-117 -233h-41q6 44 18 85.5t41.5 91t70.5 86t109.5 61t153.5 24.5q116 0 199.5 -50.5t121.5 -126t38 -163.5
q0 -118 -44.5 -202.5t-162.5 -192.5q-88 -80 -126 -149.5t-38 -155.5v-10zM549 0h-41v219h41v-219z" />
    <glyph glyph-name="at" unicode="@" horiz-adv-x="1640" 
d="M1262 -139l16 -33q-85 -64 -196.5 -101.5t-276.5 -37.5q-145 0 -273 50.5t-223.5 142t-151 230.5t-55.5 306q0 175 57 328.5t157 264t245 174.5t313 64q155 0 285 -49.5t217 -135.5t135 -201.5t48 -246.5q0 -132 -34.5 -240t-91 -175t-125 -102.5t-141.5 -35.5
q-74 0 -113 49.5t-20 153.5q-41 -89 -125.5 -146t-185.5 -57q-122 0 -192 80t-70 228q0 116 34 216.5t90.5 169t130.5 107.5t154 39q64 0 112 -19t75.5 -52t41.5 -68.5t19 -77.5l41 199h41l-119 -572q-11 -53 -11.5 -92.5t7 -62.5t23.5 -37t33.5 -18.5t40.5 -4.5q45 0 92 19
t92.5 61t81 101.5t57 147.5t21.5 191q0 118 -43 224.5t-123 189t-204.5 131.5t-275.5 49q-159 0 -295.5 -61t-231.5 -166.5t-148.5 -251.5t-53.5 -313q0 -313 186.5 -503.5t479.5 -190.5q148 0 251.5 33.5t201.5 101.5zM870 866q-69 0 -134 -34t-117 -95.5t-83.5 -157
t-31.5 -208.5q0 -135 62 -203t159 -68q126 0 223.5 97t130.5 299q60 370 -209 370z" />
    <glyph glyph-name="A" unicode="A" horiz-adv-x="1277" 
d="M956 561h-645l-215 -561h-43l553 1442h43l576 -1442h-45zM326 598h614q-80 200 -151.5 384t-112 289t-49.5 128h-2q-15 -55 -299 -801z" />
    <glyph glyph-name="B" unicode="B" horiz-adv-x="1220" 
d="M193 0v1442h464q194 0 302 -92t108 -256q0 -130 -71 -214t-193 -106q56 -11 107.5 -35.5t102 -66.5t81 -111.5t30.5 -157.5q0 -194 -129 -298.5t-348 -104.5h-454zM233 791h433q165 0 261.5 77.5t96.5 223.5q0 158 -103.5 235.5t-281.5 77.5h-406v-614zM233 754v-717h406
q90 0 165.5 18.5t139.5 58.5t100.5 113t36.5 174q0 169 -117 261t-305 92h-426z" />
    <glyph glyph-name="C" unicode="C" horiz-adv-x="1353" 
d="M1227 381h43q-128 -401 -547 -401q-152 0 -272.5 57.5t-195.5 158.5t-114 232.5t-39 284.5q0 156 39 289.5t115.5 237.5t199 163t279.5 59q208 0 347.5 -112t185.5 -310h-43q-45 176 -173 279.5t-317 103.5q-121 0 -220 -37.5t-167 -103t-114.5 -156t-67.5 -194
t-21 -219.5q0 -109 21.5 -209.5t67.5 -189.5t113 -154.5t164 -103.5t214 -38q198 0 321.5 98.5t180.5 264.5z" />
    <glyph glyph-name="D" unicode="D" horiz-adv-x="1413" 
d="M193 0v1442h436q212 0 368.5 -91.5t235 -246.5t78.5 -352q0 -221 -77.5 -389t-234 -265.5t-374.5 -97.5h-432zM233 1405v-1368h396q293 0 466 188.5t173 524.5q0 189 -73.5 336t-221 233t-350.5 86h-390z" />
    <glyph glyph-name="E" unicode="E" horiz-adv-x="1142" 
d="M1018 782v-37h-785v-708h854l-8 -37h-886v1442h866v-37h-826v-623h785z" />
    <glyph glyph-name="F" unicode="F" horiz-adv-x="1120" 
d="M193 0v1442h864v-37h-824v-657h773v-37h-773v-711h-40z" />
    <glyph glyph-name="G" unicode="G" horiz-adv-x="1421" 
d="M1276 721v-721h-37q-1 30 -4 338q-61 -183 -189 -270.5t-329 -87.5q-125 0 -227.5 38t-173.5 105t-120 159.5t-71.5 199t-22.5 225.5q0 122 24.5 232.5t75.5 206.5t125 166t178.5 110t229.5 40q228 0 364 -106t175 -283h-41q-44 167 -170 259.5t-330 92.5
q-143 0 -257 -56.5t-185 -155t-108.5 -226t-37.5 -274.5q0 -112 20.5 -213t65.5 -190t111 -154t163 -102.5t216 -37.5q170 0 287 72.5t172 197t55 292.5v106h-516v37h557z" />
    <glyph glyph-name="H" unicode="H" horiz-adv-x="1417" 
d="M193 0v1442h40v-654h951v654h41v-1442h-41v752h-951v-752h-40z" />
    <glyph glyph-name="I" unicode="I" horiz-adv-x="425" 
d="M193 1442h40v-1442h-40v1442z" />
    <glyph glyph-name="J" unicode="J" horiz-adv-x="512" 
d="M340 1442v-1098q0 -109 -20.5 -183t-60.5 -112.5t-88 -53.5t-114 -15q-55 0 -71 4v36q32 -4 75 -4q74 0 122.5 24.5t73 74.5t33.5 109.5t9 146.5v1071h41z" />
    <glyph glyph-name="K" unicode="K" horiz-adv-x="1216" 
d="M193 0v1442h40v-793q330 286 885 793h60l-691 -619l732 -823h-56l-704 797l-226 -197v-600h-40z" />
    <glyph glyph-name="L" unicode="L" horiz-adv-x="1040" 
d="M193 0v1442h40v-1405h816l-15 -37h-841z" />
    <glyph glyph-name="M" unicode="M" horiz-adv-x="1753" 
d="M1520 0v705q0 76 -0.5 209t-0.5 205.5t1 156t4 131.5h-4q-114 -281 -625 -1407h-51q-514 1164 -611 1407h-2q2 -44 2 -760v-647h-40v1442h65q13 -30 612 -1395h2q20 47 127.5 286.5t254 566.5t241.5 542h66v-1442h-41z" />
    <glyph glyph-name="N" unicode="N" horiz-adv-x="1437" 
d="M233 0h-40v1442h65q845 -1241 948 -1399l4 -6q-6 39 -6 682v723h41v-1442h-59q-862 1272 -955 1407l-4 6q4 -68 5.5 -155.5t1.5 -149t-0.5 -185.5t-0.5 -184v-739z" />
    <glyph glyph-name="O" unicode="O" horiz-adv-x="1478" 
d="M745 1462q143 0 263 -57.5t200 -156t124 -231.5t44 -284q0 -156 -40.5 -291t-118.5 -239t-202.5 -163.5t-281.5 -59.5q-146 0 -266 57.5t-199 157.5t-122.5 235.5t-43.5 290.5q0 120 26.5 229.5t80 203t129 162t180.5 107.5t227 39zM743 1425q-138 0 -252 -54.5
t-189 -149.5t-116 -222.5t-41 -273.5q0 -141 37.5 -267t108.5 -225.5t185 -158t257 -58.5q146 0 261.5 55.5t188.5 153.5t111.5 226.5t38.5 279.5q0 142 -40.5 267.5t-114 220.5t-186.5 150.5t-249 55.5z" />
    <glyph glyph-name="P" unicode="P" horiz-adv-x="1198" 
d="M193 0v1442h481q192 0 312 -102.5t120 -284.5q0 -188 -119 -287.5t-336 -99.5h-418v-668h-40zM233 1405v-700h424q68 0 126 11t110.5 36.5t89.5 64.5t58.5 99.5t21.5 136.5q0 153 -102.5 252.5t-288.5 99.5h-439z" />
    <glyph glyph-name="Q" unicode="Q" horiz-adv-x="1478" 
d="M745 1462q143 0 263 -57.5t200 -156t124 -231.5t44 -284q0 -242 -94 -428t-274 -268l405 -291l-27 -31l-423 303q-103 -38 -230 -38q-146 0 -266 57.5t-199 157.5t-122.5 235.5t-43.5 290.5q0 120 26.5 229.5t80 203t129 162t180.5 107.5t227 39zM743 1425
q-138 0 -252 -54.5t-189 -149.5t-116 -222.5t-41 -273.5q0 -141 37.5 -267t108.5 -225.5t185 -158t257 -58.5q146 0 261.5 55.5t188.5 153.5t111.5 226.5t38.5 279.5q0 142 -40.5 267.5t-114 220.5t-186.5 150.5t-249 55.5z" />
    <glyph glyph-name="R" unicode="R" horiz-adv-x="1222" 
d="M653 707h-417v-707h-43v1442h475q199 0 317.5 -93.5t118.5 -275.5q0 -136 -72.5 -227t-228.5 -117q51 -9 89.5 -23t75.5 -43t60.5 -71.5t38 -109t14.5 -154.5v-27q0 -248 19 -301h-45q-8 31 -11 81.5t-3.5 85t-0.5 134.5v18q0 102 -15.5 169t-57 119t-118.5 76t-196 24z
M236 1405v-660h401q424 0 424 326q0 158 -102.5 246t-290.5 88h-432z" />
    <glyph glyph-name="S" unicode="S" horiz-adv-x="1130" 
d="M74 375h43q32 -174 151 -266.5t305 -92.5q194 0 308 91.5t114 250.5q0 105 -36 172.5t-127 120t-259 97.5q-116 31 -191 62t-131 74t-81 101t-25 137q0 158 113.5 249t308.5 91q91 0 164.5 -21t121.5 -55t82.5 -81t52 -93t24.5 -98h-41q-29 147 -130 229t-276 82
q-172 0 -274.5 -77t-102.5 -222q0 -136 87.5 -209.5t302.5 -128.5q114 -29 195 -63t132.5 -71t81 -84t40.5 -95.5t11 -112.5q0 -177 -124.5 -279.5t-342.5 -102.5q-216 0 -340.5 105t-156.5 290z" />
    <glyph glyph-name="T" unicode="T" horiz-adv-x="1054" 
d="M506 0v1405h-510v37h1063v-37h-512v-1405h-41z" />
    <glyph glyph-name="U" unicode="U" horiz-adv-x="1376" 
d="M172 1442h41v-901q0 -114 26.5 -204.5t70.5 -149.5t106.5 -98.5t130.5 -56t145 -16.5q232 0 351.5 133.5t119.5 391.5v901h41v-893q0 -127 -25.5 -225t-70.5 -162.5t-110.5 -105.5t-141.5 -58.5t-168 -17.5q-81 0 -152.5 16t-139.5 56t-116.5 100t-78 155t-29.5 215v920z
" />
    <glyph glyph-name="V" unicode="V" horiz-adv-x="1261" 
d="M645 0h-51l-555 1442h43l311 -801q164 -425 225 -596h5q23 71 233 590l322 807h45z" />
    <glyph glyph-name="W" unicode="W" horiz-adv-x="1892" 
d="M512 0h-57l-406 1442h43q378 -1338 391 -1405h2q15 58 188.5 634.5t227.5 770.5h62q37 -127 141.5 -485.5t180 -621t83.5 -296.5h2q248 821 430 1403h43l-446 -1442h-60q-42 153 -141 494t-177.5 610.5t-86.5 306.5h-2q-32 -137 -418 -1411z" />
    <glyph glyph-name="X" unicode="X" horiz-adv-x="1103" 
d="M1092 0h-52l-487 702h-2l-490 -702h-49l516 737l-493 705h51l467 -670h2l475 670h49l-501 -703z" />
    <glyph glyph-name="Y" unicode="Y" horiz-adv-x="1105" 
d="M569 0h-41v590q0 12 -12 28l-506 824h49q407 -653 490 -803q24 44 108 178.5t207.5 330t184.5 294.5h47l-516 -821q-11 -17 -11 -29v-592z" />
    <glyph glyph-name="Z" unicode="Z" horiz-adv-x="1122" 
d="M12 0v31l1008 1374h-942v37h997v-31l-1007 -1374h1026l-11 -37h-1071z" />
    <glyph glyph-name="bracketleft" unicode="[" horiz-adv-x="692" 
d="M569 -346h-376v1864h376v-37h-336v-1790h336v-37z" />
    <glyph glyph-name="backslash" unicode="\" horiz-adv-x="749" 
d="M584 -70l-478 1553h39l480 -1553h-41z" />
    <glyph glyph-name="bracketright" unicode="]" horiz-adv-x="692" 
d="M123 1518h377v-1864h-377v37h336v1790h-336v37z" />
    <glyph glyph-name="asciicircum" unicode="^" horiz-adv-x="925" 
d="M850 633h-43l-344 721l-344 -721h-41l358 747h56z" />
    <glyph glyph-name="underscore" unicode="_" horiz-adv-x="1107" 
d="M0 -160h1108v-104h-1108v104z" />
    <glyph glyph-name="grave" unicode="`" 
d="M119 1556h51l299 -325h-47z" />
    <glyph glyph-name="a" unicode="a" horiz-adv-x="1036" 
d="M862 729v-500q0 -161 10 -229h-41q-10 82 -10 227q-81 -252 -370 -252q-89 0 -157 24.5t-107 67t-58.5 92.5t-19.5 107q0 309 454 309q184 0 258 -2v144q0 289 -303 289q-159 0 -232.5 -71t-84.5 -198h-41q3 47 14.5 88.5t38 82t66 69.5t101.5 47t140 18q174 0 258 -85.5
t84 -227.5zM821 438v99q-70 2 -260 2q-207 0 -308 -67t-101 -204q0 -117 83.5 -185.5t217.5 -68.5q179 0 273.5 108t94.5 316z" />
    <glyph glyph-name="b" unicode="b" horiz-adv-x="1122" 
d="M174 283v1255h41v-776q93 280 383 280q186 0 304 -136.5t118 -373.5q0 -144 -36 -254t-98 -174.5t-137.5 -96.5t-162.5 -32q-285 0 -371 269q4 -151 -2 -244h-41q2 41 2 283zM977 530q0 220 -108.5 347t-272.5 127q-82 0 -149.5 -27.5t-121.5 -84.5t-84 -156.5
t-30 -233.5q0 -107 21.5 -194t65 -154t117 -103.5t171.5 -36.5q174 0 282.5 135.5t108.5 380.5z" />
    <glyph glyph-name="c" unicode="c" horiz-adv-x="991" 
d="M879 276h41q-85 -301 -388 -301q-199 0 -314.5 143.5t-115.5 389.5q0 240 122.5 387t318.5 147q81 0 148 -25.5t112.5 -70t74.5 -98.5t42 -115h-43q-73 273 -338 273q-95 0 -171.5 -40.5t-124.5 -110t-73 -158t-25 -189.5q0 -221 101 -358.5t289 -137.5q259 0 344 264z
" />
    <glyph glyph-name="d" unicode="d" horiz-adv-x="1122" 
d="M907 1538h41v-1294q0 -38 1 -127t1 -117h-39q-4 70 -4 256q-88 -281 -385 -281q-84 0 -159 33.5t-133.5 97t-93 165t-34.5 227.5q0 134 37 240t99.5 171t142 99t168.5 34q72 0 131.5 -19t96 -45.5t66 -63t42 -61.5t22.5 -52v737zM145 502q0 -225 106 -356.5t273 -131.5
q190 0 288.5 129.5t98.5 386.5q0 230 -91.5 352t-274.5 122q-121 0 -213 -66t-139.5 -179t-47.5 -257z" />
    <glyph glyph-name="e" unicode="e" horiz-adv-x="1036" 
d="M940 520h-797q0 -234 105 -369t274 -135q140 0 223.5 64.5t133.5 177.5h41q-106 -278 -396 -278q-91 0 -164 31.5t-120 83t-79 121.5t-45.5 143.5t-13.5 152.5q0 242 118 386t308 144q91 0 164 -30.5t118.5 -79t76 -112t43 -125.5t12.5 -124q0 -28 -2 -51zM145 557h758
q0 126 -40 225.5t-127 161.5t-210 62q-166 0 -269 -124.5t-112 -324.5z" />
    <glyph glyph-name="f" unicode="f" horiz-adv-x="475" 
d="M250 0h-41v981h-182v37h182v174q0 63 4.5 110.5t19 98.5t39.5 83.5t69 53.5t105 21q64 0 95 -17v-39q-44 19 -95 19q-103 0 -149.5 -70.5t-46.5 -239.5v-194h223v-37h-223v-981z" />
    <glyph glyph-name="g" unicode="g" horiz-adv-x="1116" 
d="M942 741v-706q0 -127 -21.5 -218t-71 -158.5t-134 -100.5t-207.5 -33q-172 0 -269 83.5t-116 209.5h41q24 -117 112 -186.5t234 -69.5q113 0 189.5 30.5t120.5 94t62.5 148.5t18.5 206v225q-81 -266 -373 -266q-185 0 -304.5 137t-119.5 371q0 129 37.5 233t100.5 168.5
t141.5 98.5t163.5 34q80 0 144.5 -21t105.5 -57.5t67 -78t39 -90.5q0 50 0.5 102t1 85t0.5 36h39q0 -7 -0.5 -49.5t-1 -106t-0.5 -121.5zM147 510q0 -219 109.5 -345t273.5 -126q373 0 373 489q0 50 -2.5 91t-11.5 92t-24 90.5t-42.5 79t-64 65.5t-91 42t-122.5 16
q-181 0 -289.5 -138t-108.5 -356z" />
    <glyph glyph-name="h" unicode="h" horiz-adv-x="1120" 
d="M174 1538h41v-768q16 48 42 90.5t70.5 86t115 69.5t159.5 26q66 0 124 -20t109 -62.5t81 -120.5t30 -184v-655h-43v651q0 158 -79 255.5t-228 97.5q-182 0 -281.5 -122t-99.5 -315v-567h-41v1538z" />
    <glyph glyph-name="i" unicode="i" horiz-adv-x="389" 
d="M174 0v1018h41v-1018h-41zM215 1352h-41v186h41v-186z" />
    <glyph glyph-name="j" unicode="j" horiz-adv-x="389" 
d="M174 1018h41v-1208q0 -68 -8.5 -116.5t-29.5 -88.5t-61 -60t-100 -20h-14v37h4q30 0 48.5 2.5t43.5 15.5t40 37.5t25.5 71.5t10.5 114v1215zM215 1352h-41v186h41v-186z" />
    <glyph glyph-name="k" unicode="k" horiz-adv-x="933" 
d="M215 1538v-1065q56 52 299.5 273.5t298.5 271.5h57l-464 -422q290 -339 522 -596h-58q-222 253 -495 571l-160 -143v-428h-41v1538h41z" />
    <glyph glyph-name="l" unicode="l" horiz-adv-x="389" 
d="M215 0h-41v1538h41v-1538z" />
    <glyph glyph-name="m" unicode="m" horiz-adv-x="1736" 
d="M174 0v786q0 185 -2 232h41q6 -96 2 -240q11 38 28 72t47 70t67 62.5t91.5 43t118.5 16.5q125 0 204 -65t106 -176q11 30 26 58.5t44.5 63t66.5 60t93 42.5t122 17q147 0 240.5 -93.5t93.5 -282.5v-666h-43v662q0 95 -29 170t-97.5 123.5t-168.5 48.5
q-159 0 -247.5 -103.5t-88.5 -269.5v-631h-43v668q0 153 -72 244.5t-213 91.5q-155 0 -250.5 -118.5t-95.5 -322.5v-563h-41z" />
    <glyph glyph-name="n" unicode="n" horiz-adv-x="1120" 
d="M174 0v770q0 60 -1 153t-1 95h41q4 -105 2 -256q12 37 30.5 72t51 74t73.5 67.5t101 47.5t131 19q53 0 101 -12t93 -41.5t78 -73.5t52.5 -112t19.5 -154v-649h-43v645q0 160 -78 259.5t-229 99.5q-176 0 -278.5 -128.5t-102.5 -316.5v-559h-41z" />
    <glyph glyph-name="o" unicode="o" horiz-adv-x="1095" 
d="M553 1047q193 0 316.5 -144t123.5 -393q0 -253 -122.5 -396t-327.5 -143q-201 0 -321 145t-120 390q0 255 127 398t324 143zM549 1010q-96 0 -174 -40.5t-127.5 -110t-76 -159.5t-26.5 -192t26 -192t74.5 -159t125.5 -109t172 -40q192 0 299.5 139.5t107.5 360.5
q0 139 -45 251.5t-137.5 181.5t-218.5 69z" />
    <glyph glyph-name="p" unicode="p" horiz-adv-x="1122" 
d="M215 -459h-41v1182q0 232 -2 295h41q5 -123 2 -268q47 135 144 213.5t247 78.5q184 0 299 -138t115 -367q0 -141 -34.5 -250.5t-94.5 -176.5t-136 -101t-165 -34q-278 0 -375 265v-699zM977 535q0 210 -106 339.5t-267 129.5q-179 0 -286 -135t-107 -367q0 -84 13 -156
t42 -134t72 -105.5t107.5 -68t144.5 -24.5q173 0 280 140t107 381z" />
    <glyph glyph-name="q" unicode="q" horiz-adv-x="1122" 
d="M907 -459v727q-12 -40 -29 -76.5t-48.5 -77.5t-71.5 -70.5t-100 -49t-132 -19.5q-86 0 -161.5 32.5t-134.5 95t-93.5 164t-34.5 229.5q0 133 35.5 238.5t97.5 172t142 101t172 34.5q70 0 128.5 -17.5t95.5 -43t66 -61.5t43.5 -65.5t24.5 -61.5q0 179 4 225h39
q0 -14 -1 -124t-1 -149v-1204h-41zM145 500q0 -229 107 -357.5t276 -128.5q181 0 282 132.5t101 383.5q0 474 -366 474q-183 0 -291.5 -141t-108.5 -363z" />
    <glyph glyph-name="r" unicode="r" horiz-adv-x="610" 
d="M174 0v670q0 285 -2 348h39q4 -51 4 -295q38 132 149.5 223t235.5 96v-41q-103 -4 -192 -67t-141 -166t-52 -219v-549h-41z" />
    <glyph glyph-name="s" unicode="s" horiz-adv-x="897" 
d="M86 270h41q27 -131 107 -194.5t229 -63.5q148 0 226.5 66.5t78.5 169.5q0 70 -23.5 115t-93 85t-198.5 74q-126 34 -195.5 73t-94 85t-24.5 115q0 104 81 175.5t235 71.5q150 0 237.5 -77t100.5 -199h-41q-7 46 -25 86t-51.5 76t-90.5 57t-132 21q-138 0 -205.5 -60
t-67.5 -147q0 -93 60 -146t229 -96q194 -50 268 -119.5t74 -185.5q0 -127 -94.5 -202t-253.5 -75q-329 0 -377 295z" />
    <glyph glyph-name="t" unicode="t" horiz-adv-x="518" 
d="M14 981v37h191v338h41v-338h254v-37h-254v-770q0 -95 30.5 -144t118.5 -49q57 0 82 11v-37q-32 -12 -84 -12q-103 0 -145.5 53t-42.5 188v760h-191z" />
    <glyph glyph-name="u" unicode="u" horiz-adv-x="1107" 
d="M934 1018v-739q0 -57 1 -160t1 -119h-41q-2 13 -3.5 98.5t-0.5 153.5q-38 -124 -129 -198t-236 -74q-48 0 -92 9t-93 34.5t-84.5 66.5t-59 111t-23.5 161v656h41v-672q0 -65 18 -122.5t54 -104.5t98 -74t143 -27q165 0 264 112.5t99 328.5v559h43z" />
    <glyph glyph-name="v" unicode="v" horiz-adv-x="952" 
d="M41 1018h45q73 -186 177.5 -448t149 -375t56.5 -152h2q21 61 178.5 445t218.5 530h43l-417 -1018h-50z" />
    <glyph glyph-name="w" unicode="w" horiz-adv-x="1558" 
d="M63 1018h46q67 -215 147.5 -467.5t114.5 -361.5t41 -148h2q23 85 249 724q18 52 28.5 81.5t28 79t32.5 92.5h55q54 -164 110 -332t87.5 -263.5t60 -180.5t42.5 -129t19 -64h2q7 26 21 68.5t41 122.5t58 172t88 261t116 345h43l-344 -1018h-49q-305 912 -324 977h-2
q-43 -145 -340 -977h-49z" />
    <glyph glyph-name="x" unicode="x" horiz-adv-x="884" 
d="M39 1018h53q116 -157 228 -307t118 -158h2q164 211 357 465h51l-381 -494l389 -524h-55q-197 274 -361 489h-2q-20 -30 -66 -93t-132 -178.5t-160 -217.5h-51l383 518z" />
    <glyph glyph-name="y" unicode="y" horiz-adv-x="974" 
d="M53 1018h45q69 -171 144.5 -359t110.5 -275t69 -173t48 -122.5t19 -55.5h3q3 9 387 985h45l-408 -1030q-45 -114 -77.5 -184t-67 -127.5t-68 -86t-73.5 -43t-93 -14.5q-54 0 -78 6l4 41q27 -6 76 -6q50 0 86 14.5t75 58t78.5 122.5t90.5 208z" />
    <glyph glyph-name="z" unicode="z" horiz-adv-x="894" 
d="M59 0v31q183 238 715 950h-682v37h737v-31q-42 -54 -714 -950h725l-9 -37h-772z" />
    <glyph glyph-name="braceleft" unicode="{" horiz-adv-x="679" 
d="M63 565v45q115 0 165.5 62.5t50.5 183.5v344q0 160 85 239t238 79h16v-37h-14q-139 0 -212 -69.5t-73 -207.5v-321q0 -141 -43 -211t-139 -82q104 -20 143 -84.5t39 -214.5v-320q0 -151 69.5 -213.5t215.5 -62.5h14v-37h-16q-77 0 -133.5 14.5t-100.5 49t-66.5 98
t-22.5 155.5v342q0 139 -54.5 193.5t-161.5 54.5z" />
    <glyph glyph-name="bar" unicode="|" horiz-adv-x="425" 
d="M193 1599h40v-2136h-40v2136z" />
    <glyph glyph-name="braceright" unicode="}" horiz-adv-x="679" 
d="M616 610v-45q-115 0 -165 -62.5t-50 -183.5v-344q0 -159 -85.5 -238t-237.5 -79h-17v37h15q284 0 284 276v322q0 140 43.5 210.5t139.5 82.5q-100 17 -141.5 84t-41.5 215v319q0 151 -69 214t-215 63h-15v37h17q77 0 133.5 -14.5t100.5 -49.5t66.5 -98.5t22.5 -155.5
v-342q0 -139 54 -193.5t161 -54.5z" />
    <glyph glyph-name="asciitilde" unicode="~" horiz-adv-x="1222" 
d="M172 401h-39v17q0 101 50.5 156t142.5 55q54 0 115.5 -20t117.5 -48.5t111.5 -56.5t115 -48t111.5 -20q74 0 114 43t40 129v21h39v-17q0 -103 -49.5 -157t-143.5 -54q-68 0 -149 30t-143.5 65.5t-140 65.5t-138.5 30q-154 0 -154 -172v-19z" />
    <glyph glyph-name="uni00A0" unicode="&#xa0;" horiz-adv-x="481" 
 />
    <glyph glyph-name="exclamdown" unicode="&#xa1;" horiz-adv-x="491" 
d="M193 578h36l2 -744v-258h-41v258zM190 1018h41v-230h-41v230z" />
    <glyph glyph-name="cent" unicode="&#xa2;" horiz-adv-x="1021" 
d="M895 457h43q-44 -140 -142 -206.5t-229 -66.5v-207h-39v207q-186 11 -298.5 140t-112.5 356q0 218 115 343t296 134v166h39v-166q157 -3 250 -81.5t121 -201.5h-43q-70 238 -328 246v-899q250 6 328 236zM160 680q0 -202 99 -325t269 -134v899q-75 -4 -140.5 -33
t-117 -82t-81 -136.5t-29.5 -188.5z" />
    <glyph glyph-name="sterling" unicode="&#xa3;" horiz-adv-x="948" 
d="M924 0h-897v35q114 69 163.5 203t49.5 290q0 28 -1 74t-1 64h-211v36h209q-13 186 -13 287q0 195 87 294t233 99q79 0 138.5 -23t95 -64.5t55.5 -89t28 -105.5h-39q-43 246 -278 246q-134 0 -206.5 -90.5t-72.5 -262.5q0 -55 5.5 -161t6.5 -130h355v-36h-352q0 -20 1 -65
t1 -69q0 -333 -185 -495h838z" />
    <glyph glyph-name="currency" unicode="&#xa4;" horiz-adv-x="1013" 
d="M498 1083q166 0 276 -110l137 143l27 -31l-141 -141q84 -107 84 -258q0 -158 -84 -268l141 -139l-29 -31l-135 141q-107 -113 -276 -113q-166 0 -273 113l-139 -141l-27 31l142 139q-86 113 -86 268q0 154 88 262l-144 137l29 31l139 -141q105 108 271 108zM498 1047
q-158 0 -251 -103.5t-93 -257.5q0 -159 93 -266t251 -107q159 0 251.5 104.5t92.5 268.5q0 153 -93 257t-251 104z" />
    <glyph glyph-name="yen" unicode="&#xa5;" horiz-adv-x="892" 
d="M739 436h-284v-436h-41v436h-279v35h279v176h-279v35h273l-418 674h47q369 -597 397 -647h2q35 62 395 647h43l-415 -674h280v-35h-284v-176h284v-35z" />
    <glyph glyph-name="brokenbar" unicode="&#xa6;" horiz-adv-x="428" 
d="M195 367h41v-906h-41v906zM195 1599h41v-917h-41v917z" />
    <glyph glyph-name="section" unicode="&#xa7;" horiz-adv-x="1067" 
d="M903 1196h-39q-21 107 -104.5 168t-220.5 61q-142 0 -217.5 -67t-75.5 -174q0 -50 15.5 -89t39 -66.5t73 -56t94 -48t124.5 -50.5q92 -36 151.5 -67.5t107.5 -73.5t69.5 -96t21.5 -125q0 -171 -156 -279q91 -79 91 -217q0 -134 -95.5 -218.5t-261.5 -84.5t-268 79.5
t-127 215.5h43q28 -128 123 -193t229 -65q149 0 231.5 72t82.5 190q0 59 -13 100.5t-51.5 84t-110 81t-186.5 82.5q-204 76 -278 152t-74 195q0 83 49.5 155t130.5 111q-96 86 -96 205q0 126 88.5 205.5t247.5 78.5q88 -1 156.5 -24t110 -62.5t65 -84t30.5 -95.5zM160 711
q0 -112 66.5 -177t260.5 -139q189 -72 277 -137q64 43 101.5 107t37.5 141q0 79 -26 132.5t-94.5 101.5t-196.5 98q-178 71 -254 112q-84 -41 -128 -103.5t-44 -135.5z" />
    <glyph glyph-name="dieresis" unicode="&#xa8;" 
d="M264 1362h-41v176h41v-176zM592 1362h-41v176h41v-176z" />
    <glyph glyph-name="copyright" unicode="&#xa9;" horiz-adv-x="1648" 
d="M1124 565h39q-33 -126 -116 -190t-203 -64q-171 0 -275 112.5t-104 311.5q0 198 98.5 316t274.5 118q134 0 219 -75t106 -191h-39q-30 117 -108 173.5t-178 56.5q-158 0 -245 -106.5t-87 -291.5q0 -184 94 -285.5t244 -101.5q104 0 173.5 52t106.5 165zM819 1456
q160 0 295.5 -57.5t227 -155.5t143 -231t51.5 -283q0 -209 -84.5 -373t-249 -260t-383.5 -96q-163 0 -299 57.5t-227 156t-141 231.5t-50 284q0 150 50.5 282t141 231t226.5 156.5t299 57.5zM819 1419q-202 0 -358 -94t-237 -250t-81 -346q0 -135 46 -259t130 -221
t214 -154.5t286 -57.5q126 0 235 35.5t189 99t137.5 150t86 190t28.5 217.5q0 135 -46 258.5t-130 220t-214 154t-286 57.5z" />
    <glyph glyph-name="ordfeminine" unicode="&#xaa;" horiz-adv-x="679" 
d="M573 1020v-318q0 -101 5 -151h-39q-7 61 -4 133q-62 -149 -250 -149q-59 0 -105 18t-71.5 48t-38.5 63t-13 67q0 217 310 217h168v68q0 198 -195 198q-194 0 -203 -176h-39q3 95 63.5 153t182.5 58q124 0 176.5 -63.5t52.5 -165.5zM535 827v86h-166q-148 0 -209.5 -45.5
t-61.5 -136.5q0 -71 54 -116.5t135 -45.5q122 0 185 66.5t63 191.5z" />
    <glyph glyph-name="guillemotleft" unicode="&#xab;" horiz-adv-x="831" 
d="M442 915l-331 -391l331 -391h-47l-334 391l334 391h47zM770 915l-332 -391l332 -391h-47l-334 391l334 391h47z" />
    <glyph glyph-name="logicalnot" unicode="&#xac;" horiz-adv-x="1323" 
d="M133 723h1026v-539h-41v502h-985v37z" />
    <glyph glyph-name="uni00AD" unicode="&#xad;" horiz-adv-x="712" 
d="M102 535h508v-37h-508v37z" />
    <glyph glyph-name="registered" unicode="&#xae;" horiz-adv-x="538" 
d="M227 1104h-32v252h88q92 0 92 -70q0 -44 -45 -57q37 -14 37 -64q0 -25 4 -61h-31q-6 21 -6 61q0 27 -11.5 39.5t-39.5 12.5h-56v-113zM227 1329v-88h58q57 0 57 47q0 41 -59 41h-56zM279 1462q98 0 168.5 -65.5t70.5 -175.5q0 -115 -68.5 -180.5t-173.5 -65.5
q-100 0 -167.5 66.5t-67.5 179.5q0 109 70.5 175t167.5 66zM279 1434q-84 0 -144.5 -58t-60.5 -155q0 -100 59 -158.5t143 -58.5q91 0 149 56t58 161q0 99 -59.5 156t-144.5 57z" />
    <glyph glyph-name="macron" unicode="&#xaf;" 
d="M143 1405h525v-37h-525v37z" />
    <glyph glyph-name="degree" unicode="&#xb0;" horiz-adv-x="552" 
d="M276 1434q99 0 167.5 -63.5t68.5 -172.5q0 -105 -69 -171t-167 -66t-166.5 66t-68.5 171t68.5 170.5t166.5 65.5zM276 1399q-86 0 -141 -56.5t-55 -144.5q0 -89 55 -146t141 -57t141.5 57t55.5 146q0 88 -55.5 144.5t-141.5 56.5z" />
    <glyph glyph-name="plusminus" unicode="&#xb1;" horiz-adv-x="1292" 
d="M625 1200h41v-469h493v-37h-493v-489h-41v489h-492v37h492v469zM1159 0h-1026v37h1026v-37z" />
    <glyph glyph-name="two.sups" unicode="&#xb2;" horiz-adv-x="657" 
d="M600 889h-537v6q0 70 61.5 158.5t197.5 177.5q51 34 71.5 47.5t52 37.5t42 37.5t24 36t17 44t3.5 51.5q0 87 -53 137.5t-145 50.5q-94 0 -149 -51t-70 -143h-39q13 102 80 165.5t180 63.5t175 -62.5t62 -158.5q0 -39 -9 -69.5t-22.5 -54t-45.5 -51t-61.5 -48.5t-86.5 -58
q-218 -144 -246 -282h508z" />
    <glyph glyph-name="three.sups" unicode="&#xb3;" horiz-adv-x="657" 
d="M260 1313v35h41q213 0 213 155q0 77 -49.5 123.5t-145.5 46.5q-169 0 -206 -164h-39q16 89 78.5 144t169.5 55q105 0 168 -52.5t63 -152.5q0 -77 -43.5 -119t-99.5 -53q82 -16 134 -69t52 -144q0 -117 -78.5 -179t-193.5 -62q-63 0 -113 16.5t-79.5 40t-50.5 55.5
t-29.5 56.5t-12.5 50.5h39q19 -88 82 -136.5t164 -48.5q106 0 168.5 54.5t62.5 146.5q0 201 -256 201h-39z" />
    <glyph glyph-name="acute" unicode="&#xb4;" 
d="M631 1556h51l-315 -325h-48z" />
    <glyph glyph-name="uni00B5" unicode="&#xb5;" horiz-adv-x="1087" 
d="M512 -16q-237 0 -309 180q0 -459 2 -623h-41v807v670h41v-686q0 -62 17 -115.5t52.5 -98t97 -70t142.5 -25.5q75 0 140.5 27t116.5 79t80.5 137t29.5 193v559h43v-739q0 -234 6 -279h-39q-3 12 -7 97.5t-3 154.5q-36 -119 -134 -193.5t-235 -74.5z" />
    <glyph glyph-name="paragraph" unicode="&#xb6;" horiz-adv-x="1069" 
d="M831 -328h-40v701q-39 -2 -269 -2q-102 0 -180.5 26.5t-127 70t-79 108t-42 132.5t-11.5 150q0 95 24.5 177t72.5 146t127 101t181 37h304q5 136 6 143h37q-3 -83 -3 -166v-1624zM651 410h140v870h-148q-37 0 -65 -8.5t-56 -36t-46 -74t-29 -126t-11 -189.5
q0 -165 23 -261t69 -135.5t123 -39.5z" />
    <glyph glyph-name="periodcentered" unicode="&#xb7;" horiz-adv-x="245" 
d="M143 410h-41v229h41v-229z" />
    <glyph glyph-name="cedilla" unicode="&#xb8;" 
d="M389 0h39l-68 -137q115 0 174.5 -45.5t59.5 -118.5q0 -74 -52 -117t-136 -43q-90 0 -150 29v39q63 -31 150 -31q71 0 109 34t38 87q0 62 -58.5 99t-183.5 30v20z" />
    <glyph glyph-name="one.sups" unicode="&#xb9;" horiz-adv-x="434" 
d="M262 889h-39v764q-31 -26 -85 -48.5t-89 -29.5v35q47 10 98 37t86 57h29v-815z" />
    <glyph glyph-name="ordmasculine" unicode="&#xba;" horiz-adv-x="731" 
d="M369 1249q131 0 215 -98.5t84 -259.5q0 -168 -84 -262t-222 -94q-140 0 -219.5 101t-79.5 253q0 173 89 266.5t217 93.5zM367 1214q-126 0 -194.5 -92.5t-68.5 -232.5q0 -137 70 -228.5t188 -91.5q128 0 196.5 90t68.5 230q0 137 -69.5 231t-190.5 94z" />
    <glyph glyph-name="guillemotright" unicode="&#xbb;" horiz-adv-x="831" 
d="M389 133l332 391l-332 391h47l334 -391l-334 -391h-47zM61 133l332 391l-332 391h48l333 -391l-333 -391h-48z" />
    <glyph glyph-name="onequarter" unicode="&#xbc;" horiz-adv-x="1421" 
d="M207 0h-47l930 1356h45zM293 547h-39v764q-31 -26 -85 -48.5t-89 -29.5v35q47 10 98 37t86 57h29v-815zM1212 0h-38v240h-424v36l421 533h41v-535h129l-8 -34h-121v-240zM795 274h379v263q0 188 4 229q-14 -23 -85 -114t-164.5 -208.5t-133.5 -169.5z" />
    <glyph glyph-name="onehalf" unicode="&#xbd;" horiz-adv-x="1486" 
d="M195 0h-48l930 1356h45zM283 547h-39v764q-31 -26 -85 -48.5t-89 -29.5v35q47 10 98 37t86 57h29v-815zM1403 0h-537v6q0 71 61 159t197 177q46 30 62.5 41.5t47.5 33.5t40.5 32.5t26 29.5t21 34.5t9 36.5t4.5 46q0 87 -53 137.5t-145 50.5q-94 0 -149 -51t-70 -143h-39
q13 102 80 165.5t180 63.5t175 -62.5t62 -158.5q0 -39 -9 -69.5t-22.5 -54t-45.5 -51t-61.5 -48.5t-86.5 -58q-218 -144 -246 -282h508z" />
    <glyph glyph-name="threequarters" unicode="&#xbe;" horiz-adv-x="1570" 
d="M408 0h-48l930 1356h45zM1350 0h-39v240h-424v36l422 533h41v-535h129l-9 -34h-120v-240zM932 274h379v263q0 188 4 229q-14 -23 -85 -114t-164.5 -208.5t-133.5 -169.5zM291 971v35h41q213 0 213 155q0 77 -49.5 123.5t-145.5 46.5q-90 0 -140 -45.5t-67 -118.5h-39
q16 89 78.5 144t169.5 55q105 0 168.5 -52.5t63.5 -152.5q0 -76 -43.5 -118.5t-100.5 -53.5q82 -16 134.5 -69t52.5 -144q0 -117 -79 -179t-194 -62q-63 0 -113 16.5t-79 40t-50 55.5t-29.5 56.5t-12.5 50.5h39q19 -88 81.5 -136.5t163.5 -48.5q106 0 169 54.5t63 146.5
q0 201 -256 201h-39z" />
    <glyph glyph-name="questiondown" unicode="&#xbf;" horiz-adv-x="841" 
d="M41 -104q0 118 44.5 201.5t162.5 191.5q88 80 126 150.5t38 156.5v10h39v-4q0 -57 -9 -99t-52 -109t-124 -140q-60 -54 -98 -103t-55.5 -94t-23 -79t-5.5 -78q0 -57 18.5 -110.5t55.5 -99t99.5 -73t141.5 -27.5q144 0 235.5 79t117.5 235h41q-6 -44 -18.5 -85t-42 -91
t-70.5 -86t-109.5 -61t-153.5 -25q-88 0 -157.5 28.5t-112.5 77t-65.5 108.5t-22.5 126zM410 1018h41v-219h-41v219z" />
    <glyph glyph-name="Agrave" unicode="&#xc0;" horiz-adv-x="1277" 
d="M956 561h-645l-215 -561h-43l553 1442h43l576 -1442h-45zM326 598h614q-80 200 -151.5 384t-112 289t-49.5 128h-2q-15 -55 -299 -801zM268 1882h60l338 -307h-52z" />
    <glyph glyph-name="Aacute" unicode="&#xc1;" horiz-adv-x="1277" 
d="M956 561h-645l-215 -561h-43l553 1442h43l576 -1442h-45zM326 598h614q-80 200 -151.5 384t-112 289t-49.5 128h-2q-15 -55 -299 -801zM932 1882h59l-350 -307h-51z" />
    <glyph glyph-name="Acircumflex" unicode="&#xc2;" horiz-adv-x="1277" 
d="M956 561h-645l-215 -561h-43l553 1442h43l576 -1442h-45zM326 598h614q-80 200 -151.5 384t-112 289t-49.5 128h-2q-15 -55 -299 -801zM606 1837h51l261 -262h-52l-235 233l-230 -233h-49z" />
    <glyph glyph-name="Atilde" unicode="&#xc3;" horiz-adv-x="1277" 
d="M956 561h-645l-215 -561h-43l553 1442h43l576 -1442h-45zM326 598h614q-80 200 -151.5 384t-112 289t-49.5 128h-2q-15 -55 -299 -801zM387 1618h-37v22q0 144 129 144q48 0 106 -31t113 -62.5t95 -31.5q42 0 67 24.5t25 92.5v18h37v-22q0 -154 -125 -154q-37 0 -83 20
t-82.5 43.5t-79 43.5t-73.5 20q-92 0 -92 -109v-18z" />
    <glyph glyph-name="Adieresis" unicode="&#xc4;" horiz-adv-x="1277" 
d="M956 561h-645l-215 -561h-43l553 1442h43l576 -1442h-45zM326 598h614q-80 200 -151.5 384t-112 289t-49.5 128h-2q-15 -55 -299 -801zM465 1614h-41v176h41v-176zM854 1614h-41v176h41v-176z" />
    <glyph glyph-name="Aring" unicode="&#xc5;" horiz-adv-x="1277" 
d="M956 561h-645l-215 -561h-43l553 1442h43l576 -1442h-45zM326 598h614q-80 200 -151.5 384t-112 289t-49.5 128h-2q-15 -55 -299 -801zM625 1563q-77 0 -125.5 52t-48.5 126t48.5 126t125.5 52q78 0 127 -52t49 -126t-49 -126t-127 -52zM625 1599q63 0 100 42t37 100
q0 57 -37 99t-100 42t-99.5 -41.5t-36.5 -99.5t36.5 -100t99.5 -42z" />
    <glyph glyph-name="AE" unicode="&#xc6;" horiz-adv-x="1902" 
d="M956 1442h863v-37h-805v-623h764v-37h-764v-708h833l-8 -37h-866v602h-543l-410 -602h-51zM457 639h516v752h-2z" />
    <glyph glyph-name="Ccedilla" unicode="&#xc7;" horiz-adv-x="1353" 
d="M1227 381h43q-20 -62 -47 -115.5t-70.5 -106t-99 -90t-134 -62t-171.5 -27.5l-58 -117q115 0 174.5 -45.5t59.5 -118.5q0 -74 -52 -117t-137 -43q-89 0 -149 29v39q63 -31 149 -31q71 0 109.5 34t38.5 87q0 62 -58.5 99t-183.5 30v20l68 134q-149 3 -266.5 61.5t-191 159
t-111.5 230.5t-38 282q0 156 39 289.5t115.5 237.5t199 163t279.5 59q208 0 347.5 -112t185.5 -310h-43q-45 176 -173 279.5t-317 103.5q-121 0 -220 -37.5t-167 -103t-114.5 -156t-67.5 -194t-21 -219.5q0 -109 21.5 -209.5t67.5 -189.5t113 -154.5t164 -103.5t214 -38
q198 0 321.5 98.5t180.5 264.5z" />
    <glyph glyph-name="Egrave" unicode="&#xc8;" horiz-adv-x="1142" 
d="M1018 782v-37h-785v-708h854l-8 -37h-886v1442h866v-37h-826v-623h785zM283 1903h59l338 -308h-51z" />
    <glyph glyph-name="Eacute" unicode="&#xc9;" horiz-adv-x="1142" 
d="M1018 782v-37h-785v-708h854l-8 -37h-886v1442h866v-37h-826v-623h785zM905 1903h60l-351 -308h-51z" />
    <glyph glyph-name="Ecircumflex" unicode="&#xca;" horiz-adv-x="1142" 
d="M1018 782v-37h-785v-708h854l-8 -37h-886v1442h866v-37h-826v-623h785zM600 1858h51l260 -263h-51l-235 234l-230 -234h-49z" />
    <glyph glyph-name="Edieresis" unicode="&#xcb;" horiz-adv-x="1142" 
d="M1018 782v-37h-785v-708h854l-8 -37h-886v1442h866v-37h-826v-623h785zM459 1614h-41v176h41v-176zM848 1614h-41v176h41v-176z" />
    <glyph glyph-name="Igrave" unicode="&#xcc;" horiz-adv-x="425" 
d="M193 1442h40v-1442h-40v1442zM-137 1903h59l338 -308h-51z" />
    <glyph glyph-name="Iacute" unicode="&#xcd;" horiz-adv-x="425" 
d="M193 1442h40v-1442h-40v1442zM526 1903h60l-350 -308h-52z" />
    <glyph glyph-name="Icircumflex" unicode="&#xce;" horiz-adv-x="425" 
d="M193 1442h40v-1442h-40v1442zM180 1858h51l261 -263h-52l-235 234l-230 -234h-49z" />
    <glyph glyph-name="Idieresis" unicode="&#xcf;" horiz-adv-x="425" 
d="M193 1442h40v-1442h-40v1442zM39 1614h-41v176h41v-176zM428 1614h-41v176h41v-176z" />
    <glyph glyph-name="Eth" unicode="&#xd0;" horiz-adv-x="1433" 
d="M10 768h203v674h436q212 0 368.5 -91.5t235 -246.5t78.5 -352q0 -221 -77.5 -389t-234 -265.5t-374.5 -97.5h-432v729h-203v39zM254 1405v-637h479v-39h-479v-692h395q293 0 466 188.5t173 524.5q0 189 -73.5 336t-221 233t-350.5 86h-389z" />
    <glyph glyph-name="Ntilde" unicode="&#xd1;" horiz-adv-x="1437" 
d="M233 0h-40v1442h65q845 -1241 948 -1399l4 -6q-6 39 -6 682v723h41v-1442h-59q-862 1272 -955 1407l-4 6q4 -68 5.5 -155.5t1.5 -149t-0.5 -185.5t-0.5 -184v-739zM467 1618h-37v22q0 144 129 144q38 0 83 -19.5t80 -43t76.5 -43t73.5 -19.5q42 0 67.5 24.5t25.5 92.5v18
h36v-22q0 -154 -124 -154q-37 0 -83 20t-82.5 43.5t-79 43.5t-73.5 20q-92 0 -92 -109v-18z" />
    <glyph glyph-name="Ograve" unicode="&#xd2;" horiz-adv-x="1478" 
d="M745 1462q143 0 263 -57.5t200 -156t124 -231.5t44 -284q0 -156 -40.5 -291t-118.5 -239t-202.5 -163.5t-281.5 -59.5q-146 0 -266 57.5t-199 157.5t-122.5 235.5t-43.5 290.5q0 120 26.5 229.5t80 203t129 162t180.5 107.5t227 39zM743 1425q-138 0 -252 -54.5
t-189 -149.5t-116 -222.5t-41 -273.5q0 -141 37.5 -267t108.5 -225.5t185 -158t257 -58.5q146 0 261.5 55.5t188.5 153.5t111.5 226.5t38.5 279.5q0 142 -40.5 267.5t-114 220.5t-186.5 150.5t-249 55.5zM410 1921h59l338 -307h-51z" />
    <glyph glyph-name="Oacute" unicode="&#xd3;" horiz-adv-x="1478" 
d="M745 1462q143 0 263 -57.5t200 -156t124 -231.5t44 -284q0 -156 -40.5 -291t-118.5 -239t-202.5 -163.5t-281.5 -59.5q-146 0 -266 57.5t-199 157.5t-122.5 235.5t-43.5 290.5q0 120 26.5 229.5t80 203t129 162t180.5 107.5t227 39zM743 1425q-138 0 -252 -54.5
t-189 -149.5t-116 -222.5t-41 -273.5q0 -141 37.5 -267t108.5 -225.5t185 -158t257 -58.5q146 0 261.5 55.5t188.5 153.5t111.5 226.5t38.5 279.5q0 142 -40.5 267.5t-114 220.5t-186.5 150.5t-249 55.5zM1012 1919h59l-350 -307h-51z" />
    <glyph glyph-name="Ocircumflex" unicode="&#xd4;" horiz-adv-x="1478" 
d="M745 1462q143 0 263 -57.5t200 -156t124 -231.5t44 -284q0 -156 -40.5 -291t-118.5 -239t-202.5 -163.5t-281.5 -59.5q-146 0 -266 57.5t-199 157.5t-122.5 235.5t-43.5 290.5q0 120 26.5 229.5t80 203t129 162t180.5 107.5t227 39zM743 1425q-138 0 -252 -54.5
t-189 -149.5t-116 -222.5t-41 -273.5q0 -141 37.5 -267t108.5 -225.5t185 -158t257 -58.5q146 0 261.5 55.5t188.5 153.5t111.5 226.5t38.5 279.5q0 142 -40.5 267.5t-114 220.5t-186.5 150.5t-249 55.5zM707 1858h51l260 -263h-51l-236 234l-229 -234h-49z" />
    <glyph glyph-name="Otilde" unicode="&#xd5;" horiz-adv-x="1478" 
d="M745 1462q143 0 263 -57.5t200 -156t124 -231.5t44 -284q0 -156 -40.5 -291t-118.5 -239t-202.5 -163.5t-281.5 -59.5q-146 0 -266 57.5t-199 157.5t-122.5 235.5t-43.5 290.5q0 120 26.5 229.5t80 203t129 162t180.5 107.5t227 39zM743 1425q-138 0 -252 -54.5
t-189 -149.5t-116 -222.5t-41 -273.5q0 -141 37.5 -267t108.5 -225.5t185 -158t257 -58.5q146 0 261.5 55.5t188.5 153.5t111.5 226.5t38.5 279.5q0 142 -40.5 267.5t-114 220.5t-186.5 150.5t-249 55.5zM487 1638h-36v23q0 143 129 143q38 0 83 -19.5t80 -43t76.5 -43
t73.5 -19.5q42 0 67 24.5t25 92.5v19h37v-23q0 -154 -125 -154q-47 0 -106.5 32t-115.5 63.5t-95 31.5q-93 0 -93 -108v-19z" />
    <glyph glyph-name="Odieresis" unicode="&#xd6;" horiz-adv-x="1478" 
d="M745 1462q143 0 263 -57.5t200 -156t124 -231.5t44 -284q0 -156 -40.5 -291t-118.5 -239t-202.5 -163.5t-281.5 -59.5q-146 0 -266 57.5t-199 157.5t-122.5 235.5t-43.5 290.5q0 120 26.5 229.5t80 203t129 162t180.5 107.5t227 39zM743 1425q-138 0 -252 -54.5
t-189 -149.5t-116 -222.5t-41 -273.5q0 -141 37.5 -267t108.5 -225.5t185 -158t257 -58.5q146 0 261.5 55.5t188.5 153.5t111.5 226.5t38.5 279.5q0 142 -40.5 267.5t-114 220.5t-186.5 150.5t-249 55.5zM565 1614h-41v176h41v-176zM954 1614h-41v176h41v-176z" />
    <glyph glyph-name="multiply" unicode="&#xd7;" horiz-adv-x="1226" 
d="M1090 55l-27 -30l-451 458l-448 -456l-29 28l451 457l-453 461l27 24l452 -458l455 460l27 -24l-455 -463z" />
    <glyph glyph-name="Oslash" unicode="&#xd8;" horiz-adv-x="1478" 
d="M745 1462q227 0 385 -133l82 113h50l-101 -139q104 -99 159.5 -247.5t55.5 -322.5q0 -156 -39 -289.5t-115.5 -238.5t-202 -165t-286.5 -60q-249 0 -414 155l-98 -135h-49l119 166q-92 101 -140.5 244.5t-48.5 310.5q0 120 25.5 229.5t78 203t128 162t181 107.5t230.5 39
zM145 725q0 -151 43.5 -287.5t128.5 -234.5l789 1089q-152 129 -363 129q-142 0 -257 -54t-188.5 -148.5t-113 -220.5t-39.5 -273zM733 20q148 0 264 55t188.5 152t110 225t37.5 279q0 159 -51 299.5t-147 235.5l-789 -1092q154 -154 387 -154z" />
    <glyph glyph-name="Ugrave" unicode="&#xd9;" horiz-adv-x="1376" 
d="M172 1442h41v-901q0 -114 26.5 -204.5t70.5 -149.5t106.5 -98.5t130.5 -56t145 -16.5q232 0 351.5 133.5t119.5 391.5v901h41v-893q0 -127 -25.5 -225t-70.5 -162.5t-110.5 -105.5t-141.5 -58.5t-168 -17.5q-81 0 -152.5 16t-139.5 56t-116.5 100t-78 155t-29.5 215v920z
M358 1903h60l338 -308h-51z" />
    <glyph glyph-name="Uacute" unicode="&#xda;" horiz-adv-x="1376" 
d="M172 1442h41v-901q0 -114 26.5 -204.5t70.5 -149.5t106.5 -98.5t130.5 -56t145 -16.5q232 0 351.5 133.5t119.5 391.5v901h41v-893q0 -127 -25.5 -225t-70.5 -162.5t-110.5 -105.5t-141.5 -58.5t-168 -17.5q-81 0 -152.5 16t-139.5 56t-116.5 100t-78 155t-29.5 215v920z
M961 1903h59l-350 -308h-52z" />
    <glyph glyph-name="Ucircumflex" unicode="&#xdb;" horiz-adv-x="1376" 
d="M172 1442h41v-901q0 -114 26.5 -204.5t70.5 -149.5t106.5 -98.5t130.5 -56t145 -16.5q232 0 351.5 133.5t119.5 391.5v901h41v-893q0 -127 -25.5 -225t-70.5 -162.5t-110.5 -105.5t-141.5 -58.5t-168 -17.5q-81 0 -152.5 16t-139.5 56t-116.5 100t-78 155t-29.5 215v920z
M655 1858h52l260 -263h-52l-235 234l-229 -234h-50z" />
    <glyph glyph-name="Udieresis" unicode="&#xdc;" horiz-adv-x="1376" 
d="M172 1442h41v-901q0 -114 26.5 -204.5t70.5 -149.5t106.5 -98.5t130.5 -56t145 -16.5q232 0 351.5 133.5t119.5 391.5v901h41v-893q0 -127 -25.5 -225t-70.5 -162.5t-110.5 -105.5t-141.5 -58.5t-168 -17.5q-81 0 -152.5 16t-139.5 56t-116.5 100t-78 155t-29.5 215v920z
M514 1614h-41v176h41v-176zM903 1614h-41v176h41v-176z" />
    <glyph glyph-name="Yacute" unicode="&#xdd;" horiz-adv-x="1105" 
d="M569 0h-41v590q0 12 -12 28l-506 824h49q407 -653 490 -803q24 44 108 178.5t207.5 330t184.5 294.5h47l-516 -821q-11 -17 -11 -29v-592zM825 1903h60l-350 -308h-52z" />
    <glyph glyph-name="Thorn" unicode="&#xde;" horiz-adv-x="1142" 
d="M195 0v1442h41v-322h319q252 0 379 -96t127 -274q0 -102 -40 -177t-111 -118t-159.5 -63.5t-195.5 -20.5h-319v-371h-41zM236 1081v-671h331q212 0 331.5 84.5t119.5 253.5q0 333 -451 333h-331z" />
    <glyph glyph-name="germandbls" unicode="&#xdf;" horiz-adv-x="1155" 
d="M578 1559q92 0 164.5 -24t116.5 -62t73 -89t40 -100.5t11 -101.5v-31l-444 -279v-2q21 -12 100.5 -55t118.5 -65q63 -36 107.5 -67.5t84.5 -69.5t64 -77.5t37.5 -89.5t13.5 -108q0 -167 -108 -262.5t-279 -95.5q-231 0 -356 147l2 61q60 -85 152.5 -128.5t201.5 -43.5
q162 0 253 92.5t91 223.5q0 128 -63.5 211t-223.5 176q-108 61 -209 115q-65 30 0 71l416 264q1 47 -7.5 91.5t-33.5 93.5t-64 85t-106 59.5t-153 23.5q-181 0 -273 -97t-92 -282v-1143h-39v1163q0 184 105.5 290t298.5 106z" />
    <glyph glyph-name="agrave" unicode="&#xe0;" horiz-adv-x="1036" 
d="M862 729v-500q0 -161 10 -229h-41q-10 82 -10 227q-81 -252 -370 -252q-89 0 -157 24.5t-107 67t-58.5 92.5t-19.5 107q0 309 454 309q184 0 258 -2v144q0 289 -303 289q-159 0 -232.5 -71t-84.5 -198h-41q3 47 14.5 88.5t38 82t66 69.5t101.5 47t140 18q174 0 258 -85.5
t84 -227.5zM821 438v99q-70 2 -260 2q-207 0 -308 -67t-101 -204q0 -117 83.5 -185.5t217.5 -68.5q179 0 273.5 108t94.5 316zM227 1556h52l299 -325h-48z" />
    <glyph glyph-name="aacute" unicode="&#xe1;" horiz-adv-x="1036" 
d="M862 729v-500q0 -161 10 -229h-41q-10 82 -10 227q-81 -252 -370 -252q-89 0 -157 24.5t-107 67t-58.5 92.5t-19.5 107q0 309 454 309q184 0 258 -2v144q0 289 -303 289q-159 0 -232.5 -71t-84.5 -198h-41q3 47 14.5 88.5t38 82t66 69.5t101.5 47t140 18q174 0 258 -85.5
t84 -227.5zM821 438v99q-70 2 -260 2q-207 0 -308 -67t-101 -204q0 -117 83.5 -185.5t217.5 -68.5q179 0 273.5 108t94.5 316zM739 1556h52l-316 -325h-47z" />
    <glyph glyph-name="acircumflex" unicode="&#xe2;" horiz-adv-x="1036" 
d="M862 729v-500q0 -161 10 -229h-41q-10 82 -10 227q-81 -252 -370 -252q-89 0 -157 24.5t-107 67t-58.5 92.5t-19.5 107q0 309 454 309q184 0 258 -2v144q0 289 -303 289q-159 0 -232.5 -71t-84.5 -198h-41q3 47 14.5 88.5t38 82t66 69.5t101.5 47t140 18q174 0 258 -85.5
t84 -227.5zM821 438v99q-70 2 -260 2q-207 0 -308 -67t-101 -204q0 -117 83.5 -185.5t217.5 -68.5q179 0 273.5 108t94.5 316zM496 1554h39l231 -307h-47l-205 275l-199 -275h-45z" />
    <glyph glyph-name="atilde" unicode="&#xe3;" horiz-adv-x="1036" 
d="M862 729v-500q0 -161 10 -229h-41q-10 82 -10 227q-81 -252 -370 -252q-89 0 -157 24.5t-107 67t-58.5 92.5t-19.5 107q0 309 454 309q184 0 258 -2v144q0 289 -303 289q-159 0 -232.5 -71t-84.5 -198h-41q3 47 14.5 88.5t38 82t66 69.5t101.5 47t140 18q174 0 258 -85.5
t84 -227.5zM821 438v99q-70 2 -260 2q-207 0 -308 -67t-101 -204q0 -117 83.5 -185.5t217.5 -68.5q179 0 273.5 108t94.5 316zM274 1327h-34v21q0 72 32.5 105.5t87.5 33.5q41 0 87 -19t80.5 -42.5t75.5 -42.5t73 -19q41 0 59.5 24.5t18.5 75.5v25h34v-25q0 -66 -29 -100.5
t-83 -34.5q-44 0 -103 31.5t-116 62.5t-99 31q-84 0 -84 -106v-21z" />
    <glyph glyph-name="adieresis" unicode="&#xe4;" horiz-adv-x="1036" 
d="M862 729v-500q0 -161 10 -229h-41q-10 82 -10 227q-81 -252 -370 -252q-89 0 -157 24.5t-107 67t-58.5 92.5t-19.5 107q0 309 454 309q184 0 258 -2v144q0 289 -303 289q-159 0 -232.5 -71t-84.5 -198h-41q3 47 14.5 88.5t38 82t66 69.5t101.5 47t140 18q174 0 258 -85.5
t84 -227.5zM821 438v99q-70 2 -260 2q-207 0 -308 -67t-101 -204q0 -117 83.5 -185.5t217.5 -68.5q179 0 273.5 108t94.5 316zM373 1362h-41v176h41v-176zM700 1362h-41v176h41v-176z" />
    <glyph glyph-name="aring" unicode="&#xe5;" horiz-adv-x="1036" 
d="M862 729v-500q0 -161 10 -229h-41q-10 82 -10 227q-81 -252 -370 -252q-89 0 -157 24.5t-107 67t-58.5 92.5t-19.5 107q0 309 454 309q184 0 258 -2v144q0 289 -303 289q-159 0 -232.5 -71t-84.5 -198h-41q3 47 14.5 88.5t38 82t66 69.5t101.5 47t140 18q174 0 258 -85.5
t84 -227.5zM821 438v99q-70 2 -260 2q-207 0 -308 -67t-101 -204q0 -117 83.5 -185.5t217.5 -68.5q179 0 273.5 108t94.5 316zM512 1214q-77 0 -125.5 52.5t-48.5 126.5t48.5 126t125.5 52q78 0 127 -52t49 -126t-49 -126.5t-127 -52.5zM512 1251q63 0 100 42t37 100
q0 57 -37 99t-100 42t-99 -41.5t-36 -99.5t36 -100t99 -42z" />
    <glyph glyph-name="ae" unicode="&#xe6;" horiz-adv-x="1757" 
d="M1612 258h41q-108 -274 -400 -274q-163 0 -262.5 86t-140.5 223q-84 -309 -393 -309q-72 0 -131.5 17.5t-99 46.5t-66.5 67.5t-39 79.5t-12 84q0 72 25.5 125.5t67.5 86t106.5 51.5t131 26t152.5 7h229v148q0 52 -14.5 98t-46.5 88t-94 67t-148 25q-146 0 -224.5 -68
t-92.5 -185h-41q5 57 27.5 107t64 92t111.5 66.5t161 24.5q162 0 246.5 -80.5t89.5 -203.5q48 133 150.5 208.5t242.5 75.5q86 0 157 -28t117 -73.5t77.5 -105t45 -120t13.5 -121.5q0 -28 -2 -51h-799q-7 -245 102.5 -380.5t288.5 -135.5q256 0 359 235zM821 438v101h-205
q-52 0 -87.5 -1t-88 -6.5t-88.5 -15t-76.5 -28.5t-64.5 -45.5t-40.5 -67.5t-16.5 -92q0 -120 83.5 -190t217.5 -70q182 0 274 106t92 309zM864 575h758q0 121 -40 215t-125.5 152t-205.5 59q-165 1 -272 -117.5t-115 -308.5z" />
    <glyph glyph-name="ccedilla" unicode="&#xe7;" horiz-adv-x="991" 
d="M879 276h41q-85 -301 -377 -301l-56 -112q115 0 174.5 -45.5t59.5 -118.5q0 -74 -52 -117t-137 -43q-89 0 -149 29v39q63 -31 149 -31q71 0 109.5 34t38.5 87q0 62 -58.5 99t-183.5 30v20l66 129q-187 10 -294.5 153t-107.5 380q0 240 122.5 387t318.5 147
q81 0 148 -25.5t112.5 -70t74.5 -98.5t42 -115h-43q-73 273 -338 273q-95 0 -171.5 -40.5t-124.5 -110t-73 -158t-25 -189.5q0 -221 101 -358.5t289 -137.5q259 0 344 264z" />
    <glyph glyph-name="egrave" unicode="&#xe8;" horiz-adv-x="1036" 
d="M940 520h-797q0 -234 105 -369t274 -135q140 0 223.5 64.5t133.5 177.5h41q-106 -278 -396 -278q-91 0 -164 31.5t-120 83t-79 121.5t-45.5 143.5t-13.5 152.5q0 242 118 386t308 144q91 0 164 -30.5t118.5 -79t76 -112t43 -125.5t12.5 -124q0 -28 -2 -51zM145 557h758
q0 126 -40 225.5t-127 161.5t-210 62q-166 0 -269 -124.5t-112 -324.5zM250 1556h51l299 -325h-47z" />
    <glyph glyph-name="eacute" unicode="&#xe9;" horiz-adv-x="1036" 
d="M940 520h-797q0 -234 105 -369t274 -135q140 0 223.5 64.5t133.5 177.5h41q-106 -278 -396 -278q-91 0 -164 31.5t-120 83t-79 121.5t-45.5 143.5t-13.5 152.5q0 242 118 386t308 144q91 0 164 -30.5t118.5 -79t76 -112t43 -125.5t12.5 -124q0 -28 -2 -51zM145 557h758
q0 126 -40 225.5t-127 161.5t-210 62q-166 0 -269 -124.5t-112 -324.5zM766 1556h51l-315 -325h-47z" />
    <glyph glyph-name="ecircumflex" unicode="&#xea;" horiz-adv-x="1036" 
d="M940 520h-797q0 -234 105 -369t274 -135q140 0 223.5 64.5t133.5 177.5h41q-106 -278 -396 -278q-91 0 -164 31.5t-120 83t-79 121.5t-45.5 143.5t-13.5 152.5q0 242 118 386t308 144q91 0 164 -30.5t118.5 -79t76 -112t43 -125.5t12.5 -124q0 -28 -2 -51zM145 557h758
q0 126 -40 225.5t-127 161.5t-210 62q-166 0 -269 -124.5t-112 -324.5zM516 1554h39l231 -307h-47l-204 275l-199 -275h-45z" />
    <glyph glyph-name="edieresis" unicode="&#xeb;" horiz-adv-x="1036" 
d="M940 520h-797q0 -234 105 -369t274 -135q140 0 223.5 64.5t133.5 177.5h41q-106 -278 -396 -278q-91 0 -164 31.5t-120 83t-79 121.5t-45.5 143.5t-13.5 152.5q0 242 118 386t308 144q91 0 164 -30.5t118.5 -79t76 -112t43 -125.5t12.5 -124q0 -28 -2 -51zM145 557h758
q0 126 -40 225.5t-127 161.5t-210 62q-166 0 -269 -124.5t-112 -324.5zM393 1362h-41v176h41v-176zM721 1362h-41v176h41v-176z" />
    <glyph glyph-name="igrave" unicode="&#xec;" horiz-adv-x="389" 
d="M174 0v1018h41v-1018h-41zM-123 1556h51l299 -325h-47z" />
    <glyph glyph-name="iacute" unicode="&#xed;" horiz-adv-x="389" 
d="M174 0v1018h41v-1018h-41zM471 1556h51l-315 -325h-47z" />
    <glyph glyph-name="icircumflex" unicode="&#xee;" horiz-adv-x="389" 
d="M174 0v1018h41v-1018h-41zM172 1554h39l231 -307h-47l-205 275l-198 -275h-45z" />
    <glyph glyph-name="idieresis" unicode="&#xef;" horiz-adv-x="389" 
d="M174 0v1018h41v-1018h-41zM49 1362h-41v176h41v-176zM377 1362h-41v176h41v-176z" />
    <glyph glyph-name="eth" unicode="&#xf0;" horiz-adv-x="1097" 
d="M248 1520v41q202 -56 362 -177l226 158l18 -31l-215 -151q166 -135 257 -339t91 -472q0 -142 -34.5 -252.5t-95.5 -178.5t-142 -103t-178 -35q-197 0 -319 148.5t-122 381.5q0 127 37 230t100.5 168.5t145 100.5t174.5 35q233 0 354 -190q-76 299 -301 483l-272 -192
l-21 31l262 184q-135 102 -327 160zM551 1004q-98 0 -177.5 -40t-130 -109t-77.5 -157.5t-27 -187.5q0 -113 33 -207.5t88.5 -156t126.5 -95t148 -33.5q192 0 300.5 138t108.5 387q0 224 -107 342.5t-286 118.5z" />
    <glyph glyph-name="ntilde" unicode="&#xf1;" horiz-adv-x="1120" 
d="M174 0v770q0 60 -1 153t-1 95h41q4 -105 2 -256q12 37 30.5 72t51 74t73.5 67.5t101 47.5t131 19q53 0 101 -12t93 -41.5t78 -73.5t52.5 -112t19.5 -154v-649h-43v645q0 160 -78 259.5t-229 99.5q-176 0 -278.5 -128.5t-102.5 -316.5v-559h-41zM315 1327h-34v21
q0 72 32.5 105.5t87.5 33.5q41 0 87 -19t80.5 -42.5t75.5 -42.5t73 -19q41 0 59.5 24.5t18.5 75.5v25h34v-25q0 -66 -29 -100.5t-83 -34.5q-44 0 -103 31.5t-116 62.5t-99 31q-84 0 -84 -106v-21z" />
    <glyph glyph-name="ograve" unicode="&#xf2;" horiz-adv-x="1095" 
d="M553 1047q193 0 316.5 -144t123.5 -393q0 -253 -122.5 -396t-327.5 -143q-201 0 -321 145t-120 390q0 255 127 398t324 143zM549 1010q-96 0 -174 -40.5t-127.5 -110t-76 -159.5t-26.5 -192t26 -192t74.5 -159t125.5 -109t172 -40q192 0 299.5 139.5t107.5 360.5
q0 139 -45 251.5t-137.5 181.5t-218.5 69zM256 1556h51l299 -325h-47z" />
    <glyph glyph-name="oacute" unicode="&#xf3;" horiz-adv-x="1095" 
d="M553 1047q193 0 316.5 -144t123.5 -393q0 -253 -122.5 -396t-327.5 -143q-201 0 -321 145t-120 390q0 255 127 398t324 143zM549 1010q-96 0 -174 -40.5t-127.5 -110t-76 -159.5t-26.5 -192t26 -192t74.5 -159t125.5 -109t172 -40q192 0 299.5 139.5t107.5 360.5
q0 139 -45 251.5t-137.5 181.5t-218.5 69zM793 1556h51l-316 -325h-47z" />
    <glyph glyph-name="ocircumflex" unicode="&#xf4;" horiz-adv-x="1095" 
d="M553 1047q193 0 316.5 -144t123.5 -393q0 -253 -122.5 -396t-327.5 -143q-201 0 -321 145t-120 390q0 255 127 398t324 143zM549 1010q-96 0 -174 -40.5t-127.5 -110t-76 -159.5t-26.5 -192t26 -192t74.5 -159t125.5 -109t172 -40q192 0 299.5 139.5t107.5 360.5
q0 139 -45 251.5t-137.5 181.5t-218.5 69zM524 1554h39l232 -307h-47l-205 275l-199 -275h-45z" />
    <glyph glyph-name="otilde" unicode="&#xf5;" horiz-adv-x="1095" 
d="M553 1047q193 0 316.5 -144t123.5 -393q0 -253 -122.5 -396t-327.5 -143q-201 0 -321 145t-120 390q0 255 127 398t324 143zM549 1010q-96 0 -174 -40.5t-127.5 -110t-76 -159.5t-26.5 -192t26 -192t74.5 -159t125.5 -109t172 -40q192 0 299.5 139.5t107.5 360.5
q0 139 -45 251.5t-137.5 181.5t-218.5 69zM303 1327h-35v21q0 72 33 105.5t88 33.5q41 0 87 -19t80.5 -42.5t75.5 -42.5t73 -19q41 0 59 24t18 76v25h35v-25q0 -66 -29 -100.5t-83 -34.5q-44 0 -103 31.5t-116 62.5t-99 31q-84 0 -84 -106v-21z" />
    <glyph glyph-name="odieresis" unicode="&#xf6;" horiz-adv-x="1095" 
d="M553 1047q193 0 316.5 -144t123.5 -393q0 -253 -122.5 -396t-327.5 -143q-201 0 -321 145t-120 390q0 255 127 398t324 143zM549 1010q-96 0 -174 -40.5t-127.5 -110t-76 -159.5t-26.5 -192t26 -192t74.5 -159t125.5 -109t172 -40q192 0 299.5 139.5t107.5 360.5
q0 139 -45 251.5t-137.5 181.5t-218.5 69zM401 1362h-41v176h41v-176zM729 1362h-41v176h41v-176z" />
    <glyph glyph-name="divide" unicode="&#xf7;" horiz-adv-x="1292" 
d="M664 0h-41v229h41v-229zM1159 510h-1026v37h1026v-37zM664 788h-41v230h41v-230z" />
    <glyph glyph-name="oslash" unicode="&#xf8;" horiz-adv-x="1095" 
d="M553 1047q152 0 268 -99l64 90h45l-82 -114q145 -151 145 -414q0 -247 -124.5 -393t-325.5 -146q-166 0 -287 115l-76 -106h-45l96 135q-129 148 -129 391q0 126 36.5 230t98.5 171t143.5 103.5t172.5 36.5zM549 1008q-96 0 -174 -40.5t-127.5 -109.5t-76 -158.5
t-26.5 -191.5q0 -222 109 -361l545 768q-108 93 -250 93zM543 10q129 0 222.5 67t139 178t45.5 253q0 244 -125 381l-546 -770q106 -109 264 -109z" />
    <glyph glyph-name="ugrave" unicode="&#xf9;" horiz-adv-x="1107" 
d="M934 1018v-739q0 -57 1 -160t1 -119h-41q-2 13 -3.5 98.5t-0.5 153.5q-38 -124 -129 -198t-236 -74q-48 0 -92 9t-93 34.5t-84.5 66.5t-59 111t-23.5 161v656h41v-672q0 -65 18 -122.5t54 -104.5t98 -74t143 -27q165 0 264 112.5t99 328.5v559h43zM262 1556h51l299 -325
h-47z" />
    <glyph glyph-name="uacute" unicode="&#xfa;" horiz-adv-x="1107" 
d="M934 1018v-739q0 -57 1 -160t1 -119h-41q-2 13 -3.5 98.5t-0.5 153.5q-38 -124 -129 -198t-236 -74q-48 0 -92 9t-93 34.5t-84.5 66.5t-59 111t-23.5 161v656h41v-672q0 -65 18 -122.5t54 -104.5t98 -74t143 -27q165 0 264 112.5t99 328.5v559h43zM774 1556h51l-315 -325
h-47z" />
    <glyph glyph-name="ucircumflex" unicode="&#xfb;" horiz-adv-x="1107" 
d="M934 1018v-739q0 -57 1 -160t1 -119h-41q-2 13 -3.5 98.5t-0.5 153.5q-38 -124 -129 -198t-236 -74q-48 0 -92 9t-93 34.5t-84.5 66.5t-59 111t-23.5 161v656h41v-672q0 -65 18 -122.5t54 -104.5t98 -74t143 -27q165 0 264 112.5t99 328.5v559h43zM530 1554h39l232 -307
h-47l-205 275l-199 -275h-45z" />
    <glyph glyph-name="udieresis" unicode="&#xfc;" horiz-adv-x="1107" 
d="M934 1018v-739q0 -57 1 -160t1 -119h-41q-2 13 -3.5 98.5t-0.5 153.5q-38 -124 -129 -198t-236 -74q-48 0 -92 9t-93 34.5t-84.5 66.5t-59 111t-23.5 161v656h41v-672q0 -65 18 -122.5t54 -104.5t98 -74t143 -27q165 0 264 112.5t99 328.5v559h43zM408 1362h-41v176h41
v-176zM735 1362h-41v176h41v-176z" />
    <glyph glyph-name="yacute" unicode="&#xfd;" horiz-adv-x="974" 
d="M53 1018h45q69 -171 144.5 -359t110.5 -275t69 -173t48 -122.5t19 -55.5h3q3 9 387 985h45l-408 -1030q-45 -114 -77.5 -184t-67 -127.5t-68 -86t-73.5 -43t-93 -14.5q-54 0 -78 6l4 41q27 -6 76 -6q50 0 86 14.5t75 58t78.5 122.5t90.5 208zM733 1540h51l-315 -326h-47z
" />
    <glyph glyph-name="thorn" unicode="&#xfe;" horiz-adv-x="1110" 
d="M209 -459h-41v1997h41v-782q106 282 389 282q184 0 300 -136.5t116 -364.5q0 -111 -24 -203.5t-65.5 -156t-97 -108t-118 -65t-129.5 -20.5q-277 0 -371 256v-699zM971 535q0 207 -107 335.5t-268 128.5q-185 0 -288 -133t-103 -364q0 -101 19 -183.5t60.5 -151
t116.5 -106.5t179 -38q172 0 281.5 138.5t109.5 373.5z" />
    <glyph glyph-name="ydieresis" unicode="&#xff;" horiz-adv-x="974" 
d="M53 1018h45q69 -171 144.5 -359t110.5 -275t69 -173t48 -122.5t19 -55.5h3q3 9 387 985h45l-408 -1030q-45 -114 -77.5 -184t-67 -127.5t-68 -86t-73.5 -43t-93 -14.5q-54 0 -78 6l4 41q27 -6 76 -6q50 0 86 14.5t75 58t78.5 122.5t90.5 208zM342 1362h-41v176h41v-176z
M670 1362h-41v176h41v-176z" />
    <glyph glyph-name="Amacron" unicode="&#x100;" horiz-adv-x="1277" 
d="M956 561h-645l-215 -561h-43l553 1442h43l576 -1442h-45zM326 598h614q-80 200 -151.5 384t-112 289t-49.5 128h-2q-15 -55 -299 -801zM377 1688h516v-37h-516v37z" />
    <glyph glyph-name="amacron" unicode="&#x101;" horiz-adv-x="1036" 
d="M862 729v-500q0 -161 10 -229h-41q-10 82 -10 227q-81 -252 -370 -252q-89 0 -157 24.5t-107 67t-58.5 92.5t-19.5 107q0 309 454 309q184 0 258 -2v144q0 289 -303 289q-159 0 -232.5 -71t-84.5 -198h-41q3 47 14.5 88.5t38 82t66 69.5t101.5 47t140 18q174 0 258 -85.5
t84 -227.5zM821 438v99q-70 2 -260 2q-207 0 -308 -67t-101 -204q0 -117 83.5 -185.5t217.5 -68.5q179 0 273.5 108t94.5 316zM256 1405h524v-37h-524v37z" />
    <glyph glyph-name="Abreve" unicode="&#x102;" horiz-adv-x="1277" 
d="M956 561h-645l-215 -561h-43l553 1442h43l576 -1442h-45zM326 598h614q-80 200 -151.5 384t-112 289t-49.5 128h-2q-15 -55 -299 -801zM356 1817h37q21 -86 80.5 -139.5t161.5 -53.5q192 0 242 193h36q-23 -116 -95.5 -174t-182.5 -58t-183 58t-96 174z" />
    <glyph glyph-name="abreve" unicode="&#x103;" horiz-adv-x="1036" 
d="M862 729v-500q0 -161 10 -229h-41q-10 82 -10 227q-81 -252 -370 -252q-89 0 -157 24.5t-107 67t-58.5 92.5t-19.5 107q0 309 454 309q184 0 258 -2v144q0 289 -303 289q-159 0 -232.5 -71t-84.5 -198h-41q3 47 14.5 88.5t38 82t66 69.5t101.5 47t140 18q174 0 258 -85.5
t84 -227.5zM821 438v99q-70 2 -260 2q-207 0 -308 -67t-101 -204q0 -117 83.5 -185.5t217.5 -68.5q179 0 273.5 108t94.5 316zM279 1501h32q17 -87 70.5 -132.5t132.5 -45.5q81 0 133.5 45t69.5 133h33q-8 -90 -69 -152.5t-167 -62.5t-166.5 62t-68.5 153z" />
    <glyph glyph-name="Aogonek" unicode="&#x104;" horiz-adv-x="1277" 
d="M956 561h-645l-215 -561h-43l553 1442h43l576 -1442q-37 -47 -53 -68t-40 -59t-33 -71t-9 -70q0 -65 40.5 -102.5t108.5 -37.5q61 0 125 27l8 -37q-50 -31 -135 -31q-89 0 -138.5 49.5t-49.5 127.5q0 120 133 272h-2zM326 598h614q-80 200 -151.5 384t-112 289t-49.5 128
h-2q-15 -55 -299 -801z" />
    <glyph glyph-name="aogonek" unicode="&#x105;" horiz-adv-x="1036" 
d="M862 729v-500q0 -161 10 -229q-38 -47 -53.5 -68t-39.5 -59t-33 -71t-9 -70q0 -65 41 -102.5t109 -37.5q61 0 125 27l8 -37q-50 -31 -135 -31q-89 0 -139 49.5t-50 127.5q0 73 37 138.5t98 135.5q-10 83 -10 225q-81 -252 -370 -252q-89 0 -157 24.5t-107 67t-58.5 92.5
t-19.5 107q0 309 454 309q184 0 258 -2v144q0 289 -303 289q-159 0 -232.5 -71t-84.5 -198h-41q3 47 14.5 88.5t38 82t66 69.5t101.5 47t140 18q174 0 258 -85.5t84 -227.5zM821 438v99q-70 2 -260 2q-207 0 -308 -67t-101 -204q0 -117 83.5 -185.5t217.5 -68.5
q179 0 273.5 108t94.5 316z" />
    <glyph glyph-name="Cacute" unicode="&#x106;" horiz-adv-x="1353" 
d="M1227 381h43q-128 -401 -547 -401q-152 0 -272.5 57.5t-195.5 158.5t-114 232.5t-39 284.5q0 156 39 289.5t115.5 237.5t199 163t279.5 59q208 0 347.5 -112t185.5 -310h-43q-45 176 -173 279.5t-317 103.5q-121 0 -220 -37.5t-167 -103t-114.5 -156t-67.5 -194
t-21 -219.5q0 -109 21.5 -209.5t67.5 -189.5t113 -154.5t164 -103.5t214 -38q198 0 321.5 98.5t180.5 264.5zM989 1903h60l-351 -308h-51z" />
    <glyph glyph-name="cacute" unicode="&#x107;" horiz-adv-x="991" 
d="M879 276h41q-85 -301 -388 -301q-199 0 -314.5 143.5t-115.5 389.5q0 240 122.5 387t318.5 147q81 0 148 -25.5t112.5 -70t74.5 -98.5t42 -115h-43q-73 273 -338 273q-95 0 -171.5 -40.5t-124.5 -110t-73 -158t-25 -189.5q0 -221 101 -358.5t289 -137.5q259 0 344 264z
M786 1556h52l-316 -325h-47z" />
    <glyph glyph-name="Ccircumflex" unicode="&#x108;" horiz-adv-x="1353" 
d="M1227 381h43q-128 -401 -547 -401q-152 0 -272.5 57.5t-195.5 158.5t-114 232.5t-39 284.5q0 156 39 289.5t115.5 237.5t199 163t279.5 59q208 0 347.5 -112t185.5 -310h-43q-45 176 -173 279.5t-317 103.5q-121 0 -220 -37.5t-167 -103t-114.5 -156t-67.5 -194
t-21 -219.5q0 -109 21.5 -209.5t67.5 -189.5t113 -154.5t164 -103.5t214 -38q198 0 321.5 98.5t180.5 264.5zM696 1858h52l260 -263h-52l-235 234l-229 -234h-50z" />
    <glyph glyph-name="ccircumflex" unicode="&#x109;" horiz-adv-x="991" 
d="M879 276h41q-85 -301 -388 -301q-199 0 -314.5 143.5t-115.5 389.5q0 240 122.5 387t318.5 147q81 0 148 -25.5t112.5 -70t74.5 -98.5t42 -115h-43q-73 273 -338 273q-95 0 -171.5 -40.5t-124.5 -110t-73 -158t-25 -189.5q0 -221 101 -358.5t289 -137.5q259 0 344 264z
M514 1554h39l231 -307h-47l-205 275l-198 -275h-45z" />
    <glyph glyph-name="Cdotaccent" unicode="&#x10a;" horiz-adv-x="1353" 
d="M1227 381h43q-128 -401 -547 -401q-152 0 -272.5 57.5t-195.5 158.5t-114 232.5t-39 284.5q0 156 39 289.5t115.5 237.5t199 163t279.5 59q208 0 347.5 -112t185.5 -310h-43q-45 176 -173 279.5t-317 103.5q-121 0 -220 -37.5t-167 -103t-114.5 -156t-67.5 -194
t-21 -219.5q0 -109 21.5 -209.5t67.5 -189.5t113 -154.5t164 -103.5t214 -38q198 0 321.5 98.5t180.5 264.5zM737 1651h-41v176h41v-176z" />
    <glyph glyph-name="cdotaccent" unicode="&#x10b;" horiz-adv-x="991" 
d="M879 276h41q-85 -301 -388 -301q-199 0 -314.5 143.5t-115.5 389.5q0 240 122.5 387t318.5 147q81 0 148 -25.5t112.5 -70t74.5 -98.5t42 -115h-43q-73 273 -338 273q-95 0 -171.5 -40.5t-124.5 -110t-73 -158t-25 -189.5q0 -221 101 -358.5t289 -137.5q259 0 344 264z
M555 1362h-41v176h41v-176z" />
    <glyph glyph-name="Ccaron" unicode="&#x10c;" horiz-adv-x="1353" 
d="M1227 381h43q-128 -401 -547 -401q-152 0 -272.5 57.5t-195.5 158.5t-114 232.5t-39 284.5q0 156 39 289.5t115.5 237.5t199 163t279.5 59q208 0 347.5 -112t185.5 -310h-43q-45 176 -173 279.5t-317 103.5q-121 0 -220 -37.5t-167 -103t-114.5 -156t-67.5 -194
t-21 -219.5q0 -109 21.5 -209.5t67.5 -189.5t113 -154.5t164 -103.5t214 -38q198 0 321.5 98.5t180.5 264.5zM756 1595h-51l-261 263h52l235 -234l230 234h49z" />
    <glyph glyph-name="ccaron" unicode="&#x10d;" horiz-adv-x="991" 
d="M879 276h41q-85 -301 -388 -301q-199 0 -314.5 143.5t-115.5 389.5q0 240 122.5 387t318.5 147q81 0 148 -25.5t112.5 -70t74.5 -98.5t42 -115h-43q-73 273 -338 273q-95 0 -171.5 -40.5t-124.5 -110t-73 -158t-25 -189.5q0 -221 101 -358.5t289 -137.5q259 0 344 264z
M559 1237h-39l-231 307h47l205 -274l198 274h45z" />
    <glyph glyph-name="Dcaron" unicode="&#x10e;" horiz-adv-x="1413" 
d="M193 0v1442h436q212 0 368.5 -91.5t235 -246.5t78.5 -352q0 -221 -77.5 -389t-234 -265.5t-374.5 -97.5h-432zM233 1405v-1368h396q293 0 466 188.5t173 524.5q0 189 -73.5 336t-221 233t-350.5 86h-390zM657 1595h-51l-260 263h51l236 -234l229 234h49z" />
    <glyph glyph-name="dcaron" unicode="&#x10f;" horiz-adv-x="1142" 
d="M907 1538h41v-1294q0 -38 1 -127t1 -117h-39q-4 70 -4 256q-88 -281 -385 -281q-84 0 -159 33.5t-133.5 97t-93 165t-34.5 227.5q0 134 37 240t99.5 171t142 99t168.5 34q72 0 131.5 -19t96 -45.5t66 -63t42 -61.5t22.5 -52v737zM145 502q0 -225 106 -356.5t273 -131.5
q190 0 288.5 129.5t98.5 386.5q0 230 -91.5 352t-274.5 122q-121 0 -213 -66t-139.5 -179t-47.5 -257zM1163 1112h-37l-2 426h41z" />
    <glyph glyph-name="Dcroat" unicode="&#x110;" horiz-adv-x="1433" 
d="M10 768h203v674h436q212 0 368.5 -91.5t235 -246.5t78.5 -352q0 -221 -77.5 -389t-234 -265.5t-374.5 -97.5h-432v729h-203v39zM254 1405v-637h479v-39h-479v-692h395q293 0 466 188.5t173 524.5q0 189 -73.5 336t-221 233t-350.5 86h-389z" />
    <glyph glyph-name="dcroat" unicode="&#x111;" horiz-adv-x="1118" 
d="M907 1538h41v-242h185v-39h-185v-1013q0 -164 6 -244h-39q-6 68 -6 262q-93 -287 -395 -287q-81 0 -154 33t-131 96.5t-92.5 165t-34.5 228.5q0 132 37 238t99.5 171.5t142 100t168.5 34.5q268 0 358 -241v456h-467v39h467v242zM145 502q0 -225 106 -355.5t265 -130.5
q189 0 292 126t103 388q0 471 -366 471q-183 0 -291.5 -138.5t-108.5 -360.5z" />
    <glyph glyph-name="Emacron" unicode="&#x112;" horiz-adv-x="1142" 
d="M1018 782v-37h-785v-708h854l-8 -37h-886v1442h866v-37h-826v-623h785zM371 1708h516v-37h-516v37z" />
    <glyph glyph-name="emacron" unicode="&#x113;" horiz-adv-x="1036" 
d="M940 520h-797q0 -234 105 -369t274 -135q140 0 223.5 64.5t133.5 177.5h41q-106 -278 -396 -278q-91 0 -164 31.5t-120 83t-79 121.5t-45.5 143.5t-13.5 152.5q0 242 118 386t308 144q91 0 164 -30.5t118.5 -79t76 -112t43 -125.5t12.5 -124q0 -28 -2 -51zM145 557h758
q0 126 -40 225.5t-127 161.5t-210 62q-166 0 -269 -124.5t-112 -324.5zM276 1405h525v-37h-525v37z" />
    <glyph glyph-name="Ebreve" unicode="&#x114;" horiz-adv-x="1142" 
d="M1018 782v-37h-785v-708h854l-8 -37h-886v1442h866v-37h-826v-623h785zM350 1845h37q21 -86 80.5 -139t161.5 -53q191 0 241 192h37q-23 -116 -95.5 -173.5t-182.5 -57.5t-183 57.5t-96 173.5z" />
    <glyph glyph-name="ebreve" unicode="&#x115;" horiz-adv-x="1036" 
d="M940 520h-797q0 -234 105 -369t274 -135q140 0 223.5 64.5t133.5 177.5h41q-106 -278 -396 -278q-91 0 -164 31.5t-120 83t-79 121.5t-45.5 143.5t-13.5 152.5q0 242 118 386t308 144q91 0 164 -30.5t118.5 -79t76 -112t43 -125.5t12.5 -124q0 -28 -2 -51zM145 557h758
q0 126 -40 225.5t-127 161.5t-210 62q-166 0 -269 -124.5t-112 -324.5zM299 1501h33q17 -87 70.5 -132.5t132.5 -45.5q81 0 133 45t69 133h33q-8 -91 -68.5 -153t-166.5 -62t-167 62.5t-69 152.5z" />
    <glyph glyph-name="Edotaccent" unicode="&#x116;" horiz-adv-x="1142" 
d="M1018 782v-37h-785v-708h854l-8 -37h-886v1442h866v-37h-826v-623h785zM653 1614h-41v176h41v-176z" />
    <glyph glyph-name="edotaccent" unicode="&#x117;" horiz-adv-x="1036" 
d="M940 520h-797q0 -234 105 -369t274 -135q140 0 223.5 64.5t133.5 177.5h41q-106 -278 -396 -278q-91 0 -164 31.5t-120 83t-79 121.5t-45.5 143.5t-13.5 152.5q0 242 118 386t308 144q91 0 164 -30.5t118.5 -79t76 -112t43 -125.5t12.5 -124q0 -28 -2 -51zM145 557h758
q0 126 -40 225.5t-127 161.5t-210 62q-166 0 -269 -124.5t-112 -324.5zM557 1362h-41v176h41v-176z" />
    <glyph glyph-name="Eogonek" unicode="&#x118;" horiz-adv-x="1142" 
d="M1018 782v-37h-785v-708h854l-8 -37h-129q-38 -47 -53.5 -68t-39.5 -59t-33 -71t-9 -70q0 -65 41 -102.5t109 -37.5q61 0 125 27l8 -37q-50 -31 -135 -31q-89 0 -139 49.5t-50 127.5q0 120 133 272h-714v1442h866v-37h-826v-623h785z" />
    <glyph glyph-name="eogonek" unicode="&#x119;" horiz-adv-x="1036" 
d="M940 520h-797q0 -234 105 -369t274 -135q140 0 223.5 64.5t133.5 177.5h41q-79 -203 -252 -258q-37 -47 -52 -67t-39 -58t-33 -71t-9 -70q0 -65 40.5 -102.5t108.5 -37.5q60 0 125 27l8 -37q-48 -30 -135 -30q-89 0 -138.5 49t-49.5 127q0 118 118 258q-36 -8 -88 -8
q-91 0 -164 31.5t-120 83t-79 121.5t-45.5 143.5t-13.5 152.5q0 242 118 386t308 144q91 0 164 -30.5t118.5 -79t76 -112t43 -125.5t12.5 -124q0 -28 -2 -51zM145 557h758q0 126 -40 225.5t-127 161.5t-210 62q-166 0 -269 -124.5t-112 -324.5z" />
    <glyph glyph-name="Ecaron" unicode="&#x11a;" horiz-adv-x="1142" 
d="M1018 782v-37h-785v-708h854l-8 -37h-886v1442h866v-37h-826v-623h785zM657 1595h-51l-260 263h51l236 -234l229 234h49z" />
    <glyph glyph-name="ecaron" unicode="&#x11b;" horiz-adv-x="1036" 
d="M940 520h-797q0 -234 105 -369t274 -135q140 0 223.5 64.5t133.5 177.5h41q-106 -278 -396 -278q-91 0 -164 31.5t-120 83t-79 121.5t-45.5 143.5t-13.5 152.5q0 242 118 386t308 144q91 0 164 -30.5t118.5 -79t76 -112t43 -125.5t12.5 -124q0 -28 -2 -51zM145 557h758
q0 126 -40 225.5t-127 161.5t-210 62q-166 0 -269 -124.5t-112 -324.5zM561 1237h-39l-231 307h47l205 -274l198 274h45z" />
    <glyph glyph-name="Gcircumflex" unicode="&#x11c;" horiz-adv-x="1421" 
d="M1276 721v-721h-37q-1 30 -4 338q-61 -183 -189 -270.5t-329 -87.5q-125 0 -227.5 38t-173.5 105t-120 159.5t-71.5 199t-22.5 225.5q0 122 24.5 232.5t75.5 206.5t125 166t178.5 110t229.5 40q228 0 364 -106t175 -283h-41q-44 167 -170 259.5t-330 92.5
q-143 0 -257 -56.5t-185 -155t-108.5 -226t-37.5 -274.5q0 -112 20.5 -213t65.5 -190t111 -154t163 -102.5t216 -37.5q170 0 287 72.5t172 197t55 292.5v106h-516v37h557zM698 1858h52l260 -263h-52l-235 234l-229 -234h-50z" />
    <glyph glyph-name="gcircumflex" unicode="&#x11d;" horiz-adv-x="1116" 
d="M942 741v-706q0 -127 -21.5 -218t-71 -158.5t-134 -100.5t-207.5 -33q-172 0 -269 83.5t-116 209.5h41q24 -117 112 -186.5t234 -69.5q113 0 189.5 30.5t120.5 94t62.5 148.5t18.5 206v225q-81 -266 -373 -266q-185 0 -304.5 137t-119.5 371q0 129 37.5 233t100.5 168.5
t141.5 98.5t163.5 34q80 0 144.5 -21t105.5 -57.5t67 -78t39 -90.5q0 50 0.5 102t1 85t0.5 36h39q0 -7 -0.5 -49.5t-1 -106t-0.5 -121.5zM147 510q0 -219 109.5 -345t273.5 -126q373 0 373 489q0 50 -2.5 91t-11.5 92t-24 90.5t-42.5 79t-64 65.5t-91 42t-122.5 16
q-181 0 -289.5 -138t-108.5 -356zM535 1554h38l232 -307h-47l-205 275l-199 -275h-45z" />
    <glyph glyph-name="Gbreve" unicode="&#x11e;" horiz-adv-x="1421" 
d="M1276 721v-721h-37q-1 30 -4 338q-61 -183 -189 -270.5t-329 -87.5q-125 0 -227.5 38t-173.5 105t-120 159.5t-71.5 199t-22.5 225.5q0 122 24.5 232.5t75.5 206.5t125 166t178.5 110t229.5 40q228 0 364 -106t175 -283h-41q-44 167 -170 259.5t-330 92.5
q-143 0 -257 -56.5t-185 -155t-108.5 -226t-37.5 -274.5q0 -112 20.5 -213t65.5 -190t111 -154t163 -102.5t216 -37.5q170 0 287 72.5t172 197t55 292.5v106h-516v37h557zM449 1843h36q21 -86 80.5 -139t161.5 -53q192 0 242 192h37q-23 -116 -96 -173.5t-183 -57.5
t-182.5 57.5t-95.5 173.5z" />
    <glyph glyph-name="gbreve" unicode="&#x11f;" horiz-adv-x="1116" 
d="M942 741v-706q0 -127 -21.5 -218t-71 -158.5t-134 -100.5t-207.5 -33q-172 0 -269 83.5t-116 209.5h41q24 -117 112 -186.5t234 -69.5q113 0 189.5 30.5t120.5 94t62.5 148.5t18.5 206v225q-81 -266 -373 -266q-185 0 -304.5 137t-119.5 371q0 129 37.5 233t100.5 168.5
t141.5 98.5t163.5 34q80 0 144.5 -21t105.5 -57.5t67 -78t39 -90.5q0 50 0.5 102t1 85t0.5 36h39q0 -7 -0.5 -49.5t-1 -106t-0.5 -121.5zM147 510q0 -219 109.5 -345t273.5 -126q373 0 373 489q0 50 -2.5 91t-11.5 92t-24 90.5t-42.5 79t-64 65.5t-91 42t-122.5 16
q-181 0 -289.5 -138t-108.5 -356zM317 1501h33q17 -87 70.5 -132.5t132.5 -45.5q81 0 133.5 45t69.5 133h32q-8 -91 -68.5 -153t-166.5 -62t-167 62.5t-69 152.5z" />
    <glyph glyph-name="Gdotaccent" unicode="&#x120;" horiz-adv-x="1421" 
d="M1276 721v-721h-37q-1 30 -4 338q-61 -183 -189 -270.5t-329 -87.5q-125 0 -227.5 38t-173.5 105t-120 159.5t-71.5 199t-22.5 225.5q0 122 24.5 232.5t75.5 206.5t125 166t178.5 110t229.5 40q228 0 364 -106t175 -283h-41q-44 167 -170 259.5t-330 92.5
q-143 0 -257 -56.5t-185 -155t-108.5 -226t-37.5 -274.5q0 -112 20.5 -213t65.5 -190t111 -154t163 -102.5t216 -37.5q170 0 287 72.5t172 197t55 292.5v106h-516v37h557zM752 1630h-41v176h41v-176z" />
    <glyph glyph-name="gdotaccent" unicode="&#x121;" horiz-adv-x="1116" 
d="M942 741v-706q0 -127 -21.5 -218t-71 -158.5t-134 -100.5t-207.5 -33q-172 0 -269 83.5t-116 209.5h41q24 -117 112 -186.5t234 -69.5q113 0 189.5 30.5t120.5 94t62.5 148.5t18.5 206v225q-81 -266 -373 -266q-185 0 -304.5 137t-119.5 371q0 129 37.5 233t100.5 168.5
t141.5 98.5t163.5 34q80 0 144.5 -21t105.5 -57.5t67 -78t39 -90.5q0 50 0.5 102t1 85t0.5 36h39q0 -7 -0.5 -49.5t-1 -106t-0.5 -121.5zM147 510q0 -219 109.5 -345t273.5 -126q373 0 373 489q0 50 -2.5 91t-11.5 92t-24 90.5t-42.5 79t-64 65.5t-91 42t-122.5 16
q-181 0 -289.5 -138t-108.5 -356zM575 1362h-40v176h40v-176z" />
    <glyph glyph-name="uni0122" unicode="&#x122;" horiz-adv-x="1421" 
d="M1276 721v-721h-37q-1 30 -4 338q-61 -183 -189 -270.5t-329 -87.5q-125 0 -227.5 38t-173.5 105t-120 159.5t-71.5 199t-22.5 225.5q0 122 24.5 232.5t75.5 206.5t125 166t178.5 110t229.5 40q228 0 364 -106t175 -283h-41q-44 167 -170 259.5t-330 92.5
q-143 0 -257 -56.5t-185 -155t-108.5 -226t-37.5 -274.5q0 -112 20.5 -213t65.5 -190t111 -154t163 -102.5t216 -37.5q170 0 287 72.5t172 197t55 292.5v106h-516v37h557zM676 -524h-41q52 91 78 181.5t26 207.5h41q0 -226 -104 -389z" />
    <glyph glyph-name="uni0123" unicode="&#x123;" horiz-adv-x="1116" 
d="M612 1591h37q-84 -193 -100 -381h-39q9 104 38.5 209.5t63.5 171.5zM942 741v-706q0 -127 -21.5 -218t-71 -158.5t-134 -100.5t-207.5 -33q-172 0 -269 83.5t-116 209.5h41q24 -117 112 -186.5t234 -69.5q113 0 189.5 30.5t120.5 94t62.5 148.5t18.5 206v225
q-81 -266 -373 -266q-185 0 -304.5 137t-119.5 371q0 129 37.5 233t100.5 168.5t141.5 98.5t163.5 34q80 0 144.5 -21t105.5 -57.5t67 -78t39 -90.5q0 50 0.5 102t1 85t0.5 36h39q0 -7 -0.5 -49.5t-1 -106t-0.5 -121.5zM147 510q0 -219 109.5 -345t273.5 -126q373 0 373 489
q0 50 -2.5 91t-11.5 92t-24 90.5t-42.5 79t-64 65.5t-91 42t-122.5 16q-181 0 -289.5 -138t-108.5 -356z" />
    <glyph glyph-name="Hcircumflex" unicode="&#x124;" horiz-adv-x="1417" 
d="M193 0v1442h40v-654h951v654h41v-1442h-41v752h-951v-752h-40zM676 1858h51l260 -263h-51l-236 234l-229 -234h-49z" />
    <glyph glyph-name="hcircumflex" unicode="&#x125;" horiz-adv-x="1120" 
d="M170 1819h51l225 -197h-53l-198 168l-195 -168h-49zM174 1538h41v-768q16 48 42 90.5t70.5 86t115 69.5t159.5 26q66 0 124 -20t109 -62.5t81 -120.5t30 -184v-655h-43v651q0 158 -79 255.5t-228 97.5q-182 0 -281.5 -122t-99.5 -315v-567h-41v1538z" />
    <glyph glyph-name="Hbar" unicode="&#x126;" horiz-adv-x="1417" 
d="M53 1135h140v307h40v-307h951v307h41v-307h139v-37h-139v-1098h-41v743h-951v-743h-40v1098h-140v37zM233 782h951v316h-951v-316z" />
    <glyph glyph-name="hbar" unicode="&#x127;" horiz-adv-x="1120" 
d="M174 1538h41v-242h461v-36h-461v-490q16 47 43 90t71.5 86.5t115 69.5t157.5 26q66 0 123.5 -18t109 -58.5t81.5 -117t30 -182.5v-666h-43v662q0 157 -78.5 249.5t-228.5 92.5q-178 0 -279.5 -121t-101.5 -310v-573h-41v1260h-190v36h190v242z" />
    <glyph glyph-name="Itilde" unicode="&#x128;" horiz-adv-x="425" 
d="M193 1442h40v-1442h-40v1442zM-39 1638h-37v23q0 143 129 143q48 0 106 -31t113 -62.5t95 -31.5q42 0 67 24.5t25 92.5v19h37v-23q0 -154 -125 -154q-37 0 -83 20t-82.5 43.5t-79 43.5t-73.5 20q-92 0 -92 -108v-19z" />
    <glyph glyph-name="itilde" unicode="&#x129;" horiz-adv-x="389" 
d="M174 0v1018h41v-1018h-41zM-49 1327h-35v21q0 72 33 105.5t88 33.5q41 0 87 -19t80 -42.5t75 -42.5t73 -19q41 0 59.5 24.5t18.5 75.5v25h35v-25q0 -66 -29.5 -100.5t-83.5 -34.5q-35 0 -80 19.5t-81 43t-79.5 43t-76.5 19.5q-84 0 -84 -106v-21z" />
    <glyph glyph-name="Imacron" unicode="&#x12a;" horiz-adv-x="425" 
d="M193 1442h40v-1442h-40v1442zM-49 1708h516v-37h-516v37z" />
    <glyph glyph-name="imacron" unicode="&#x12b;" horiz-adv-x="389" 
d="M174 0v1018h41v-1018h-41zM-72 1405h525v-37h-525v37z" />
    <glyph glyph-name="Iogonek" unicode="&#x12e;" horiz-adv-x="425" 
d="M193 1442h40v-1442q-37 -47 -53 -68t-40 -59t-33 -71t-9 -70q0 -65 41 -102.5t109 -37.5q60 0 125 27l8 -37q-50 -31 -135 -31q-89 0 -139 49.5t-50 127.5q0 73 37 138.5t99 135.5v1440z" />
    <glyph glyph-name="iogonek" unicode="&#x12f;" horiz-adv-x="389" 
d="M362 -418q-50 -31 -135 -31q-89 0 -138.5 49.5t-49.5 127.5q0 73 37 138.5t98 135.5v1016h41v-1018q-37 -47 -53 -68t-40 -59t-33 -71t-9 -70q0 -65 40.5 -102.5t108.5 -37.5q61 0 125 27zM215 1352h-41v186h41v-186z" />
    <glyph glyph-name="Idotaccent" unicode="&#x130;" horiz-adv-x="425" 
d="M193 1442h40v-1442h-40v1442zM233 1614h-40v176h40v-176z" />
    <glyph glyph-name="dotlessi" unicode="&#x131;" horiz-adv-x="389" 
d="M174 0v1018h41v-1018h-41z" />
    <glyph glyph-name="Jcircumflex" unicode="&#x134;" horiz-adv-x="512" 
d="M340 1442v-1098q0 -109 -20.5 -183t-60.5 -112.5t-88 -53.5t-114 -15q-55 0 -71 4v36q32 -4 75 -4q74 0 122.5 24.5t73 74.5t33.5 109.5t9 146.5v1071h41zM285 1858h51l260 -263h-51l-236 234l-229 -234h-49z" />
    <glyph glyph-name="jcircumflex" unicode="&#x135;" horiz-adv-x="389" 
d="M174 1018h41v-1208q0 -68 -8.5 -116.5t-29.5 -88.5t-61 -60t-100 -20h-14v37h4q30 0 48.5 2.5t43.5 15.5t40 37.5t25.5 71.5t10.5 114v1215zM168 1554h39l231 -307h-47l-205 275l-198 -275h-45z" />
    <glyph glyph-name="uni0136" unicode="&#x136;" horiz-adv-x="1216" 
d="M193 0v1442h40v-793q330 286 885 793h60l-691 -619l732 -823h-56l-704 797l-226 -197v-600h-40zM526 -504h-41q52 92 78.5 182t26.5 207h41q0 -225 -105 -389z" />
    <glyph glyph-name="uni0137" unicode="&#x137;" horiz-adv-x="933" 
d="M215 1538v-1065q56 52 299.5 273.5t298.5 271.5h57l-464 -422q290 -339 522 -596h-58q-222 253 -495 571l-160 -143v-428h-41v1538h41zM385 -504h-41q52 92 78.5 182t26.5 207h40q0 -226 -104 -389z" />
    <glyph glyph-name="kgreenlandic" unicode="&#x138;" horiz-adv-x="933" 
d="M215 1018v-545q428 394 598 545h57l-464 -422q331 -388 522 -596h-62q-301 349 -493 569l-158 -141v-428h-41v1018h41z" />
    <glyph glyph-name="Lacute" unicode="&#x139;" horiz-adv-x="1040" 
d="M193 0v1442h40v-1405h816l-15 -37h-841zM526 1903h60l-350 -308h-52z" />
    <glyph glyph-name="lacute" unicode="&#x13a;" horiz-adv-x="389" 
d="M418 1862h55l-260 -232h-49zM215 0h-41v1538h41v-1538z" />
    <glyph glyph-name="uni013B" unicode="&#x13b;" horiz-adv-x="1040" 
d="M193 0v1442h40v-1405h816l-15 -37h-841zM561 -504h-41q52 92 78.5 182t26.5 207h41q0 -225 -105 -389z" />
    <glyph glyph-name="uni013C" unicode="&#x13c;" horiz-adv-x="389" 
d="M215 0h-41v1538h41v-1538zM113 -504h-41q52 91 78 181.5t26 207.5h41q0 -226 -104 -389z" />
    <glyph glyph-name="Lcaron" unicode="&#x13d;" horiz-adv-x="1040" 
d="M193 0v1442h40v-1405h816l-15 -37h-841zM680 1032h-37l-2 426h41z" />
    <glyph glyph-name="lcaron" unicode="&#x13e;" horiz-adv-x="409" 
d="M215 0h-41v1538h41v-1538zM414 1128h-37l-2 426h41z" />
    <glyph glyph-name="Ldot" unicode="&#x13f;" horiz-adv-x="1040" 
d="M705 696h-41v230h41v-230zM193 0v1442h40v-1405h816l-15 -37h-841z" />
    <glyph glyph-name="ldot" unicode="&#x140;" horiz-adv-x="421" 
d="M422 788h-41v230h41v-230zM215 0h-41v1538h41v-1538z" />
    <glyph glyph-name="Lslash" unicode="&#x141;" horiz-adv-x="1060" 
d="M606 918l-352 -187v-694h815l-14 -37h-842v709l-223 -119l-2 39l225 121v692h41v-670l352 189v-43z" />
    <glyph glyph-name="lslash" unicode="&#x142;" horiz-adv-x="417" 
d="M229 0h-41v872l-151 -88v41l151 88v625h41v-600l168 98v-41l-168 -98v-897z" />
    <glyph glyph-name="Nacute" unicode="&#x143;" horiz-adv-x="1437" 
d="M233 0h-40v1442h65q845 -1241 948 -1399l4 -6q-6 39 -6 682v723h41v-1442h-59q-862 1272 -955 1407l-4 6q4 -68 5.5 -155.5t1.5 -149t-0.5 -185.5t-0.5 -184v-739zM1012 1903h59l-350 -308h-51z" />
    <glyph glyph-name="nacute" unicode="&#x144;" horiz-adv-x="1120" 
d="M174 0v770q0 60 -1 153t-1 95h41q4 -105 2 -256q12 37 30.5 72t51 74t73.5 67.5t101 47.5t131 19q53 0 101 -12t93 -41.5t78 -73.5t52.5 -112t19.5 -154v-649h-43v645q0 160 -78 259.5t-229 99.5q-176 0 -278.5 -128.5t-102.5 -316.5v-559h-41zM821 1556h51l-315 -325
h-47z" />
    <glyph glyph-name="uni0145" unicode="&#x145;" horiz-adv-x="1437" 
d="M233 0h-40v1442h65q845 -1241 948 -1399l4 -6q-6 39 -6 682v723h41v-1442h-59q-862 1272 -955 1407l-4 6q4 -68 5.5 -155.5t1.5 -149t-0.5 -185.5t-0.5 -184v-739zM637 -504h-41q52 91 78 181.5t26 207.5h41q0 -226 -104 -389z" />
    <glyph glyph-name="uni0146" unicode="&#x146;" horiz-adv-x="1120" 
d="M174 0v770q0 60 -1 153t-1 95h41q4 -105 2 -256q12 37 30.5 72t51 74t73.5 67.5t101 47.5t131 19q53 0 101 -12t93 -41.5t78 -73.5t52.5 -112t19.5 -154v-649h-43v645q0 160 -78 259.5t-229 99.5q-176 0 -278.5 -128.5t-102.5 -316.5v-559h-41zM496 -504h-41
q52 91 78 181.5t26 207.5h41q0 -226 -104 -389z" />
    <glyph glyph-name="Ncaron" unicode="&#x147;" horiz-adv-x="1437" 
d="M233 0h-40v1442h65q845 -1241 948 -1399l4 -6q-6 39 -6 682v723h41v-1442h-59q-862 1272 -955 1407l-4 6q4 -68 5.5 -155.5t1.5 -149t-0.5 -185.5t-0.5 -184v-739zM743 1575h-51l-260 262h51l236 -233l229 233h49z" />
    <glyph glyph-name="ncaron" unicode="&#x148;" horiz-adv-x="1120" 
d="M174 0v770q0 60 -1 153t-1 95h41q4 -105 2 -256q12 37 30.5 72t51 74t73.5 67.5t101 47.5t131 19q53 0 101 -12t93 -41.5t78 -73.5t52.5 -112t19.5 -154v-649h-43v645q0 160 -78 259.5t-229 99.5q-176 0 -278.5 -128.5t-102.5 -316.5v-559h-41zM582 1237h-39l-232 307h47
l205 -274l199 274h45z" />
    <glyph glyph-name="napostrophe" unicode="&#x149;" horiz-adv-x="1120" 
d="M84 1204h-39q64 177 82 389h39q-4 -101 -30 -212.5t-52 -176.5zM174 0v770q0 60 -1 153t-1 95h41q4 -105 2 -256q12 37 30.5 72t51 74t73.5 67.5t101 47.5t131 19q53 0 101 -12t93 -41.5t78 -73.5t52.5 -112t19.5 -154v-649h-43v645q0 160 -78 259.5t-229 99.5
q-176 0 -278.5 -128.5t-102.5 -316.5v-559h-41z" />
    <glyph glyph-name="Omacron" unicode="&#x14c;" horiz-adv-x="1478" 
d="M745 1462q143 0 263 -57.5t200 -156t124 -231.5t44 -284q0 -156 -40.5 -291t-118.5 -239t-202.5 -163.5t-281.5 -59.5q-146 0 -266 57.5t-199 157.5t-122.5 235.5t-43.5 290.5q0 120 26.5 229.5t80 203t129 162t180.5 107.5t227 39zM743 1425q-138 0 -252 -54.5
t-189 -149.5t-116 -222.5t-41 -273.5q0 -141 37.5 -267t108.5 -225.5t185 -158t257 -58.5q146 0 261.5 55.5t188.5 153.5t111.5 226.5t38.5 279.5q0 142 -40.5 267.5t-114 220.5t-186.5 150.5t-249 55.5zM477 1708h516v-37h-516v37z" />
    <glyph glyph-name="omacron" unicode="&#x14d;" horiz-adv-x="1095" 
d="M553 1047q193 0 316.5 -144t123.5 -393q0 -253 -122.5 -396t-327.5 -143q-201 0 -321 145t-120 390q0 255 127 398t324 143zM549 1010q-96 0 -174 -40.5t-127.5 -110t-76 -159.5t-26.5 -192t26 -192t74.5 -159t125.5 -109t172 -40q192 0 299.5 139.5t107.5 360.5
q0 139 -45 251.5t-137.5 181.5t-218.5 69zM285 1405h524v-37h-524v37z" />
    <glyph glyph-name="Ohungarumlaut" unicode="&#x150;" horiz-adv-x="1478" 
d="M745 1462q143 0 263 -57.5t200 -156t124 -231.5t44 -284q0 -156 -40.5 -291t-118.5 -239t-202.5 -163.5t-281.5 -59.5q-146 0 -266 57.5t-199 157.5t-122.5 235.5t-43.5 290.5q0 120 26.5 229.5t80 203t129 162t180.5 107.5t227 39zM743 1425q-138 0 -252 -54.5
t-189 -149.5t-116 -222.5t-41 -273.5q0 -141 37.5 -267t108.5 -225.5t185 -158t257 -58.5q146 0 261.5 55.5t188.5 153.5t111.5 226.5t38.5 279.5q0 142 -40.5 267.5t-114 220.5t-186.5 150.5t-249 55.5zM754 1903h51l-221 -308h-47zM1055 1903h51l-221 -308h-47z" />
    <glyph glyph-name="ohungarumlaut" unicode="&#x151;" horiz-adv-x="1095" 
d="M553 1047q193 0 316.5 -144t123.5 -393q0 -253 -122.5 -396t-327.5 -143q-201 0 -321 145t-120 390q0 255 127 398t324 143zM549 1010q-96 0 -174 -40.5t-127.5 -110t-76 -159.5t-26.5 -192t26 -192t74.5 -159t125.5 -109t172 -40q192 0 299.5 139.5t107.5 360.5
q0 139 -45 251.5t-137.5 181.5t-218.5 69zM424 1210h-43l227 326h45zM690 1210h-43l227 326h46z" />
    <glyph glyph-name="OE" unicode="&#x152;" horiz-adv-x="2033" 
d="M1950 1442v-39h-809v-621h768v-39h-768v-704h837l-10 -39h-848q-2 0 -16.5 -1t-39 -2.5t-56.5 -3t-78 -2.5t-94 -1q-163 0 -298 48.5t-232 140t-150.5 231t-53.5 315.5q0 142 40.5 261.5t110 203t164.5 142.5t203 86.5t226 27.5q64 0 127.5 -1t101.5 -2t39 -1h836z
M1100 39v1360q-78 6 -254 6q-141 0 -266 -43t-223.5 -124.5t-156 -213t-57.5 -295.5q0 -173 53.5 -308.5t148.5 -219.5t219 -127t272 -43q204 0 264 8z" />
    <glyph glyph-name="oe" unicode="&#x153;" horiz-adv-x="1886" 
d="M1374 -20q-86 0 -156 27.5t-117.5 76.5t-78.5 109.5t-49 134.5q-41 -170 -155 -263.5t-275 -93.5q-196 0 -318.5 146t-122.5 389q0 129 36.5 233.5t98.5 170.5t143 101.5t173 35.5q153 0 266 -93.5t154 -261.5q40 164 147 257t258 93q91 0 164 -30.5t118.5 -79t76 -112
t43 -125.5t12.5 -124q0 -28 -2 -51h-797q0 -234 105 -369t274 -135q134 0 222 68t135 174h40q-47 -125 -147 -201.5t-248 -76.5zM549 1010q-96 0 -174 -40.5t-127.5 -110t-76 -159.5t-26.5 -192t26 -192t74.5 -159t125.5 -109t172 -40q129 0 222.5 66t139 178t45.5 256
q0 139 -45 251.5t-137.5 181.5t-218.5 69zM995 557h758q0 126 -40.5 225.5t-127 161t-209.5 62.5q-165 1 -268.5 -125.5t-112.5 -323.5z" />
    <glyph glyph-name="Racute" unicode="&#x154;" horiz-adv-x="1222" 
d="M653 707h-417v-707h-43v1442h475q199 0 317.5 -93.5t118.5 -275.5q0 -136 -72.5 -227t-228.5 -117q51 -9 89.5 -23t75.5 -43t60.5 -71.5t38 -109t14.5 -154.5v-27q0 -248 19 -301h-45q-8 31 -11 81.5t-3.5 85t-0.5 134.5v18q0 102 -15.5 169t-57 119t-118.5 76t-196 24z
M236 1405v-660h401q424 0 424 326q0 158 -102.5 246t-290.5 88h-432zM899 1903h59l-350 -308h-51z" />
    <glyph glyph-name="racute" unicode="&#x155;" horiz-adv-x="610" 
d="M174 0v670q0 285 -2 348h39q4 -51 4 -295q38 132 149.5 223t235.5 96v-41q-103 -4 -192 -67t-141 -166t-52 -219v-549h-41zM598 1556h51l-315 -325h-47z" />
    <glyph glyph-name="uni0156" unicode="&#x156;" horiz-adv-x="1222" 
d="M653 707h-417v-707h-43v1442h475q199 0 317.5 -93.5t118.5 -275.5q0 -136 -72.5 -227t-228.5 -117q51 -9 89.5 -23t75.5 -43t60.5 -71.5t38 -109t14.5 -154.5v-27q0 -248 19 -301h-45q-8 31 -11 81.5t-3.5 85t-0.5 134.5v18q0 102 -15.5 169t-57 119t-118.5 76t-196 24z
M236 1405v-660h401q424 0 424 326q0 158 -102.5 246t-290.5 88h-432zM528 -504h-41q52 92 78.5 182t26.5 207h41q0 -225 -105 -389z" />
    <glyph glyph-name="uni0157" unicode="&#x157;" horiz-adv-x="610" 
d="M174 0v670q0 285 -2 348h39q4 -51 4 -295q38 132 149.5 223t235.5 96v-41q-103 -4 -192 -67t-141 -166t-52 -219v-549h-41zM113 -504h-41q52 91 78 181.5t26 207.5h41q0 -226 -104 -389z" />
    <glyph glyph-name="Rcaron" unicode="&#x158;" horiz-adv-x="1222" 
d="M653 707h-417v-707h-43v1442h475q199 0 317.5 -93.5t118.5 -275.5q0 -136 -72.5 -227t-228.5 -117q51 -9 89.5 -23t75.5 -43t60.5 -71.5t38 -109t14.5 -154.5v-27q0 -248 19 -301h-45q-8 31 -11 81.5t-3.5 85t-0.5 134.5v18q0 102 -15.5 169t-57 119t-118.5 76t-196 24z
M236 1405v-660h401q424 0 424 326q0 158 -102.5 246t-290.5 88h-432zM635 1595h-51l-260 263h51l235 -234l230 234h49z" />
    <glyph glyph-name="rcaron" unicode="&#x159;" horiz-adv-x="610" 
d="M174 0v670q0 285 -2 348h39q4 -51 4 -295q38 132 149.5 223t235.5 96v-41q-103 -4 -192 -67t-141 -166t-52 -219v-549h-41zM369 1237h-39l-232 307h47l205 -274l199 274h45z" />
    <glyph glyph-name="Sacute" unicode="&#x15a;" horiz-adv-x="1130" 
d="M74 375h43q32 -174 151 -266.5t305 -92.5q194 0 308 91.5t114 250.5q0 105 -36 172.5t-127 120t-259 97.5q-116 31 -191 62t-131 74t-81 101t-25 137q0 158 113.5 249t308.5 91q91 0 164.5 -21t121.5 -55t82.5 -81t52 -93t24.5 -98h-41q-29 147 -130 229t-276 82
q-172 0 -274.5 -77t-102.5 -222q0 -136 87.5 -209.5t302.5 -128.5q114 -29 195 -63t132.5 -71t81 -84t40.5 -95.5t11 -112.5q0 -177 -124.5 -279.5t-342.5 -102.5q-216 0 -340.5 105t-156.5 290zM868 1903h60l-350 -308h-52z" />
    <glyph glyph-name="sacute" unicode="&#x15b;" horiz-adv-x="897" 
d="M86 270h41q27 -131 107 -194.5t229 -63.5q148 0 226.5 66.5t78.5 169.5q0 70 -23.5 115t-93 85t-198.5 74q-126 34 -195.5 73t-94 85t-24.5 115q0 104 81 175.5t235 71.5q150 0 237.5 -77t100.5 -199h-41q-7 46 -25 86t-51.5 76t-90.5 57t-132 21q-138 0 -205.5 -60
t-67.5 -147q0 -93 60 -146t229 -96q194 -50 268 -119.5t74 -185.5q0 -127 -94.5 -202t-253.5 -75q-329 0 -377 295zM692 1556h51l-315 -325h-47z" />
    <glyph glyph-name="Scircumflex" unicode="&#x15c;" horiz-adv-x="1130" 
d="M74 375h43q32 -174 151 -266.5t305 -92.5q194 0 308 91.5t114 250.5q0 105 -36 172.5t-127 120t-259 97.5q-116 31 -191 62t-131 74t-81 101t-25 137q0 158 113.5 249t308.5 91q91 0 164.5 -21t121.5 -55t82.5 -81t52 -93t24.5 -98h-41q-29 147 -130 229t-276 82
q-172 0 -274.5 -77t-102.5 -222q0 -136 87.5 -209.5t302.5 -128.5q114 -29 195 -63t132.5 -71t81 -84t40.5 -95.5t11 -112.5q0 -177 -124.5 -279.5t-342.5 -102.5q-216 0 -340.5 105t-156.5 290zM553 1853h51l260 -262h-51l-235 234l-230 -234h-49z" />
    <glyph glyph-name="scircumflex" unicode="&#x15d;" horiz-adv-x="897" 
d="M86 270h41q27 -131 107 -194.5t229 -63.5q148 0 226.5 66.5t78.5 169.5q0 70 -23.5 115t-93 85t-198.5 74q-126 34 -195.5 73t-94 85t-24.5 115q0 104 81 175.5t235 71.5q150 0 237.5 -77t100.5 -199h-41q-7 46 -25 86t-51.5 76t-90.5 57t-132 21q-138 0 -205.5 -60
t-67.5 -147q0 -93 60 -146t229 -96q194 -50 268 -119.5t74 -185.5q0 -127 -94.5 -202t-253.5 -75q-329 0 -377 295zM426 1554h39l231 -307h-47l-205 275l-198 -275h-45z" />
    <glyph glyph-name="uni015E" unicode="&#x15e;" horiz-adv-x="1130" 
d="M74 375h43q32 -174 151 -266.5t305 -92.5q194 0 308 91.5t114 250.5q0 105 -36 172.5t-127 120t-259 97.5q-116 31 -191 62t-131 74t-81 101t-25 137q0 158 113.5 249t308.5 91q91 0 164.5 -21t121.5 -55t82.5 -81t52 -93t24.5 -98h-41q-29 147 -130 229t-276 82
q-172 0 -274.5 -77t-102.5 -222q0 -136 87.5 -209.5t302.5 -128.5q114 -29 195 -63t132.5 -71t81 -84t40.5 -95.5t11 -112.5q0 -172 -118.5 -274t-325.5 -108l-57 -117q115 0 174 -45.5t59 -118.5q0 -74 -52 -117t-136 -43q-90 0 -150 29v39q63 -31 150 -31q71 0 109 34
t38 87q0 62 -58.5 99t-183.5 30v20l68 134q-208 4 -328.5 108.5t-152.5 286.5z" />
    <glyph glyph-name="uni015F" unicode="&#x15f;" horiz-adv-x="897" 
d="M86 270h41q27 -131 107 -194.5t229 -63.5q148 0 226.5 66.5t78.5 169.5q0 70 -23.5 115t-93 85t-198.5 74q-126 34 -195.5 73t-94 85t-24.5 115q0 104 81 175.5t235 71.5q150 0 237.5 -77t100.5 -199h-41q-7 46 -25 86t-51.5 76t-90.5 57t-132 21q-138 0 -205.5 -60
t-67.5 -147q0 -93 60 -146t229 -96q194 -50 268 -119.5t74 -185.5q0 -127 -93 -202t-245 -75l-55 -112q115 0 174 -45.5t59 -118.5q0 -74 -52 -117t-136 -43q-90 0 -150 29v39q63 -31 150 -31q71 0 109 34t38 87q0 62 -58 99t-183 30v20l65 129q-304 14 -348 295z" />
    <glyph glyph-name="Scaron" unicode="&#x160;" horiz-adv-x="1130" 
d="M74 375h43q32 -174 151 -266.5t305 -92.5q194 0 308 91.5t114 250.5q0 105 -36 172.5t-127 120t-259 97.5q-116 31 -191 62t-131 74t-81 101t-25 137q0 158 113.5 249t308.5 91q91 0 164.5 -21t121.5 -55t82.5 -81t52 -93t24.5 -98h-41q-29 147 -130 229t-276 82
q-172 0 -274.5 -77t-102.5 -222q0 -136 87.5 -209.5t302.5 -128.5q114 -29 195 -63t132.5 -71t81 -84t40.5 -95.5t11 -112.5q0 -177 -124.5 -279.5t-342.5 -102.5q-216 0 -340.5 105t-156.5 290zM590 1595h-51l-260 263h51l235 -234l230 234h49z" />
    <glyph glyph-name="scaron" unicode="&#x161;" horiz-adv-x="897" 
d="M86 270h41q27 -131 107 -194.5t229 -63.5q148 0 226.5 66.5t78.5 169.5q0 70 -23.5 115t-93 85t-198.5 74q-126 34 -195.5 73t-94 85t-24.5 115q0 104 81 175.5t235 71.5q150 0 237.5 -77t100.5 -199h-41q-7 46 -25 86t-51.5 76t-90.5 57t-132 21q-138 0 -205.5 -60
t-67.5 -147q0 -93 60 -146t229 -96q194 -50 268 -119.5t74 -185.5q0 -127 -94.5 -202t-253.5 -75q-329 0 -377 295zM471 1237h-39l-231 307h47l205 -274l198 274h45z" />
    <glyph glyph-name="uni0162" unicode="&#x162;" horiz-adv-x="1054" 
d="M506 0v1405h-510v37h1063v-37h-512v-1405h-2l-68 -137q115 0 174.5 -45.5t59.5 -118.5q0 -74 -52 -117t-137 -43q-89 0 -149 29v39q63 -31 149 -31q71 0 109.5 34t38.5 87q0 62 -58.5 99t-183.5 30v20z" />
    <glyph glyph-name="uni0163" unicode="&#x163;" horiz-adv-x="518" 
d="M14 981v37h191v338h41v-338h254v-37h-254v-770q0 -95 30.5 -144t118.5 -49q57 0 82 11v-37q-32 -12 -84 -12q-21 0 -57 4l-60 -121q115 0 174.5 -45.5t59.5 -118.5q0 -74 -52 -117t-136 -43q-90 0 -150 29v39q63 -31 150 -31q71 0 109 34t38 87q0 62 -58.5 99t-183.5 30
v20l74 148q-51 20 -73.5 73.5t-22.5 153.5v760h-191z" />
    <glyph glyph-name="Tcaron" unicode="&#x164;" horiz-adv-x="1054" 
d="M506 0v1405h-510v37h1063v-37h-512v-1405h-41zM551 1595h-51l-260 263h51l235 -234l230 234h49z" />
    <glyph glyph-name="tcaron" unicode="&#x165;" horiz-adv-x="518" 
d="M494 1233h-37l14 395h41zM14 981v37h191v338h41v-338h254v-37h-254v-770q0 -95 30.5 -144t118.5 -49q57 0 82 11v-37q-32 -12 -84 -12q-103 0 -145.5 53t-42.5 188v760h-191z" />
    <glyph glyph-name="Utilde" unicode="&#x168;" horiz-adv-x="1376" 
d="M172 1442h41v-901q0 -114 26.5 -204.5t70.5 -149.5t106.5 -98.5t130.5 -56t145 -16.5q232 0 351.5 133.5t119.5 391.5v901h41v-893q0 -127 -25.5 -225t-70.5 -162.5t-110.5 -105.5t-141.5 -58.5t-168 -17.5q-81 0 -152.5 16t-139.5 56t-116.5 100t-78 155t-29.5 215v920z
M436 1638h-37v23q0 143 129 143q48 0 106 -31t113 -62.5t95 -31.5q42 0 67 24.5t25 92.5v19h37v-23q0 -154 -125 -154q-37 0 -83 20t-82.5 43.5t-79 43.5t-73.5 20q-92 0 -92 -108v-19z" />
    <glyph glyph-name="utilde" unicode="&#x169;" horiz-adv-x="1107" 
d="M934 1018v-739q0 -57 1 -160t1 -119h-41q-2 13 -3.5 98.5t-0.5 153.5q-38 -124 -129 -198t-236 -74q-48 0 -92 9t-93 34.5t-84.5 66.5t-59 111t-23.5 161v656h41v-672q0 -65 18 -122.5t54 -104.5t98 -74t143 -27q165 0 264 112.5t99 328.5v559h43zM309 1327h-35v21
q0 72 33 105.5t88 33.5q41 0 87 -19t80.5 -42.5t75.5 -42.5t73 -19q41 0 59 24t18 76v25h35v-25q0 -66 -29 -100.5t-83 -34.5q-44 0 -103 31.5t-116 62.5t-99 31q-84 0 -84 -106v-21z" />
    <glyph glyph-name="Umacron" unicode="&#x16a;" horiz-adv-x="1376" 
d="M172 1442h41v-901q0 -114 26.5 -204.5t70.5 -149.5t106.5 -98.5t130.5 -56t145 -16.5q232 0 351.5 133.5t119.5 391.5v901h41v-893q0 -127 -25.5 -225t-70.5 -162.5t-110.5 -105.5t-141.5 -58.5t-168 -17.5q-81 0 -152.5 16t-139.5 56t-116.5 100t-78 155t-29.5 215v920z
M426 1708h516v-37h-516v37z" />
    <glyph glyph-name="umacron" unicode="&#x16b;" horiz-adv-x="1107" 
d="M934 1018v-739q0 -57 1 -160t1 -119h-41q-2 13 -3.5 98.5t-0.5 153.5q-38 -124 -129 -198t-236 -74q-48 0 -92 9t-93 34.5t-84.5 66.5t-59 111t-23.5 161v656h41v-672q0 -65 18 -122.5t54 -104.5t98 -74t143 -27q165 0 264 112.5t99 328.5v559h43zM291 1405h524v-37h-524
v37z" />
    <glyph glyph-name="Ubreve" unicode="&#x16c;" horiz-adv-x="1376" 
d="M172 1442h41v-901q0 -114 26.5 -204.5t70.5 -149.5t106.5 -98.5t130.5 -56t145 -16.5q232 0 351.5 133.5t119.5 391.5v901h41v-893q0 -127 -25.5 -225t-70.5 -162.5t-110.5 -105.5t-141.5 -58.5t-168 -17.5q-81 0 -152.5 16t-139.5 56t-116.5 100t-78 155t-29.5 215v920z
M406 1817h36q21 -86 80.5 -139.5t161.5 -53.5q192 0 242 193h37q-23 -116 -96 -174t-183 -58t-182.5 58t-95.5 174z" />
    <glyph glyph-name="ubreve" unicode="&#x16d;" horiz-adv-x="1107" 
d="M934 1018v-739q0 -57 1 -160t1 -119h-41q-2 13 -3.5 98.5t-0.5 153.5q-38 -124 -129 -198t-236 -74q-48 0 -92 9t-93 34.5t-84.5 66.5t-59 111t-23.5 161v656h41v-672q0 -65 18 -122.5t54 -104.5t98 -74t143 -27q165 0 264 112.5t99 328.5v559h43zM313 1501h33
q17 -87 70.5 -132.5t132.5 -45.5q81 0 133.5 45t69.5 133h32q-8 -91 -68.5 -153t-166.5 -62t-167 62.5t-69 152.5z" />
    <glyph glyph-name="Uring" unicode="&#x16e;" horiz-adv-x="1376" 
d="M172 1442h41v-901q0 -114 26.5 -204.5t70.5 -149.5t106.5 -98.5t130.5 -56t145 -16.5q232 0 351.5 133.5t119.5 391.5v901h41v-893q0 -127 -25.5 -225t-70.5 -162.5t-110.5 -105.5t-141.5 -58.5t-168 -17.5q-81 0 -152.5 16t-139.5 56t-116.5 100t-78 155t-29.5 215v920z
M686 1563q-77 0 -125.5 52t-48.5 126t48.5 126t125.5 52q78 0 127 -52t49 -126t-49 -126t-127 -52zM686 1599q63 0 100 42t37 100q0 57 -37 99t-100 42t-99 -41.5t-36 -99.5t36 -100t99 -42z" />
    <glyph glyph-name="uring" unicode="&#x16f;" horiz-adv-x="1107" 
d="M934 1018v-739q0 -57 1 -160t1 -119h-41q-2 13 -3.5 98.5t-0.5 153.5q-38 -124 -129 -198t-236 -74q-48 0 -92 9t-93 34.5t-84.5 66.5t-59 111t-23.5 161v656h41v-672q0 -65 18 -122.5t54 -104.5t98 -74t143 -27q165 0 264 112.5t99 328.5v559h43zM547 1214
q-77 0 -125.5 52.5t-48.5 126.5t48.5 126t125.5 52q78 0 127 -52t49 -126t-49 -126.5t-127 -52.5zM547 1251q63 0 100 42t37 100q0 57 -37 99t-100 42t-99 -41.5t-36 -99.5t36 -100t99 -42z" />
    <glyph glyph-name="Uhungarumlaut" unicode="&#x170;" horiz-adv-x="1376" 
d="M172 1442h41v-901q0 -114 26.5 -204.5t70.5 -149.5t106.5 -98.5t130.5 -56t145 -16.5q232 0 351.5 133.5t119.5 391.5v901h41v-893q0 -127 -25.5 -225t-70.5 -162.5t-110.5 -105.5t-141.5 -58.5t-168 -17.5q-81 0 -152.5 16t-139.5 56t-116.5 100t-78 155t-29.5 215v920z
M702 1903h52l-222 -308h-47zM1004 1903h51l-221 -308h-48z" />
    <glyph glyph-name="uhungarumlaut" unicode="&#x171;" horiz-adv-x="1107" 
d="M934 1018v-739q0 -57 1 -160t1 -119h-41q-2 13 -3.5 98.5t-0.5 153.5q-38 -124 -129 -198t-236 -74q-48 0 -92 9t-93 34.5t-84.5 66.5t-59 111t-23.5 161v656h41v-672q0 -65 18 -122.5t54 -104.5t98 -74t143 -27q165 0 264 112.5t99 328.5v559h43zM420 1210h-43l227 326
h45zM686 1210h-43l227 326h45z" />
    <glyph glyph-name="Uogonek" unicode="&#x172;" horiz-adv-x="1376" 
d="M172 1442h41v-901q0 -114 26.5 -204.5t70.5 -149.5t106.5 -98.5t130.5 -56t145 -16.5q232 0 351.5 133.5t119.5 391.5v901h41v-893q0 -459 -332 -547q-46 -58 -67.5 -88t-42.5 -79.5t-21 -96.5q0 -65 41 -102t109 -37q63 0 125 26l8 -37q-48 -30 -135 -30
q-90 0 -139.5 49t-49.5 127q0 115 119 256q-68 -10 -131 -10q-81 0 -152.5 16t-139.5 56t-116.5 100t-78 155t-29.5 215v920z" />
    <glyph glyph-name="uogonek" unicode="&#x173;" horiz-adv-x="1107" 
d="M934 1018v-739q0 -57 1 -160t1 -119q-37 -47 -53 -68t-40 -59t-33 -71t-9 -70q0 -65 40.5 -102.5t108.5 -37.5q60 0 125 27l8 -37q-50 -31 -135 -31q-89 0 -138.5 49.5t-49.5 127.5q0 73 37 138.5t98 135.5q-7 85 -4 250q-38 -124 -129 -198t-236 -74q-48 0 -92 9
t-93 34.5t-84.5 66.5t-59 111t-23.5 161v656h41v-672q0 -65 18 -122.5t54 -104.5t98 -74t143 -27q165 0 264 112.5t99 328.5v559h43z" />
    <glyph glyph-name="Wcircumflex" unicode="&#x174;" horiz-adv-x="1892" 
d="M512 0h-57l-406 1442h43q378 -1338 391 -1405h2q15 58 188.5 634.5t227.5 770.5h62q37 -127 141.5 -485.5t180 -621t83.5 -296.5h2q248 821 430 1403h43l-446 -1442h-60q-42 153 -141 494t-177.5 610.5t-86.5 306.5h-2q-32 -137 -418 -1411zM913 1858h52l260 -263h-51
l-236 234l-229 -234h-50z" />
    <glyph glyph-name="wcircumflex" unicode="&#x175;" horiz-adv-x="1558" 
d="M63 1018h46q67 -215 147.5 -467.5t114.5 -361.5t41 -148h2q23 85 249 724q18 52 28.5 81.5t28 79t32.5 92.5h55q54 -164 110 -332t87.5 -263.5t60 -180.5t42.5 -129t19 -64h2q7 26 21 68.5t41 122.5t58 172t88 261t116 345h43l-344 -1018h-49q-305 912 -324 977h-2
q-43 -145 -340 -977h-49zM756 1554h39l231 -307h-47l-205 275l-199 -275h-45z" />
    <glyph glyph-name="Ycircumflex" unicode="&#x176;" horiz-adv-x="1105" 
d="M569 0h-41v590q0 12 -12 28l-506 824h49q407 -653 490 -803q24 44 108 178.5t207.5 330t184.5 294.5h47l-516 -821q-11 -17 -11 -29v-592zM520 1858h51l260 -263h-51l-235 234l-230 -234h-49z" />
    <glyph glyph-name="ycircumflex" unicode="&#x177;" horiz-adv-x="974" 
d="M53 1018h45q69 -171 144.5 -359t110.5 -275t69 -173t48 -122.5t19 -55.5h3q3 9 387 985h45l-408 -1030q-45 -114 -77.5 -184t-67 -127.5t-68 -86t-73.5 -43t-93 -14.5q-54 0 -78 6l4 41q27 -6 76 -6q50 0 86 14.5t75 58t78.5 122.5t90.5 208zM465 1554h39l231 -307h-47
l-205 275l-198 -275h-45z" />
    <glyph glyph-name="Ydieresis" unicode="&#x178;" horiz-adv-x="1105" 
d="M569 0h-41v590q0 12 -12 28l-506 824h49q407 -653 490 -803q24 44 108 178.5t207.5 330t184.5 294.5h47l-516 -821q-11 -17 -11 -29v-592zM379 1614h-41v176h41v-176zM768 1614h-41v176h41v-176z" />
    <glyph glyph-name="Zacute" unicode="&#x179;" horiz-adv-x="1122" 
d="M12 0v31l1008 1374h-942v37h997v-31l-1007 -1374h1026l-11 -37h-1071zM834 1903h59l-350 -308h-51z" />
    <glyph glyph-name="zacute" unicode="&#x17a;" horiz-adv-x="894" 
d="M59 0v31q183 238 715 950h-682v37h737v-31q-42 -54 -714 -950h725l-9 -37h-772zM711 1556h51l-316 -325h-47z" />
    <glyph glyph-name="Zdotaccent" unicode="&#x17b;" horiz-adv-x="1122" 
d="M12 0v31l1008 1374h-942v37h997v-31l-1007 -1374h1026l-11 -37h-1071zM582 1614h-41v176h41v-176z" />
    <glyph glyph-name="zdotaccent" unicode="&#x17c;" horiz-adv-x="894" 
d="M59 0v31q183 238 715 950h-682v37h737v-31q-42 -54 -714 -950h725l-9 -37h-772zM465 1362h-41v176h41v-176z" />
    <glyph glyph-name="Zcaron" unicode="&#x17d;" horiz-adv-x="1122" 
d="M12 0v31l1008 1374h-942v37h997v-31l-1007 -1374h1026l-11 -37h-1071zM586 1595h-51l-261 263h52l235 -234l230 234h49z" />
    <glyph glyph-name="zcaron" unicode="&#x17e;" horiz-adv-x="894" 
d="M59 0v31q183 238 715 950h-682v37h737v-31q-42 -54 -714 -950h725l-9 -37h-772zM473 1237h-39l-231 307h47l205 -274l198 274h45z" />
    <glyph glyph-name="uni018F" unicode="&#x18f;" horiz-adv-x="1394" 
d="M1292 731q0 -221 -68 -389t-205 -265t-327 -97q-281 0 -442.5 189.5t-161.5 518.5v35h1161q0 336 -154.5 518t-410.5 182q-199 0 -323.5 -92t-198.5 -262h-41q64 179 207 286t358 107q146 0 261.5 -54.5t190.5 -152t114.5 -231t39.5 -293.5zM1247 686h-1116
q2 -196 65 -345t190.5 -236t305.5 -87q246 0 394.5 178t160.5 490z" />
    <glyph glyph-name="florin" unicode="&#x192;" horiz-adv-x="1052" 
d="M926 1350l-15 -39q-56 32 -127 32q-90 0 -141.5 -78.5t-83.5 -273.5l-29 -182h234v-37h-240l-82 -516q-14 -89 -28.5 -153.5t-36 -124t-48.5 -96t-65.5 -58t-87.5 -21.5q-89 0 -145 43l16 35q57 -39 131 -39q34 0 61.5 13.5t49 41.5t37.5 61t29.5 83.5t23 96t20.5 110.5
l84 524h-204v37h210l23 147q9 57 16.5 97t20 88t26.5 80.5t35 65t46 52t59.5 31.5t75.5 12q84 0 135 -32z" />
    <glyph glyph-name="Ohorn" unicode="&#x1a0;" horiz-adv-x="1478" 
d="M745 1462q143 0 263 -57.5t200 -156t124 -231.5t44 -284q0 -156 -40.5 -291t-118.5 -239t-202.5 -163.5t-281.5 -59.5q-146 0 -266 57.5t-199 157.5t-122.5 235.5t-43.5 290.5q0 120 26.5 229.5t80 203t129 162t180.5 107.5t227 39zM743 1425q-138 0 -252 -54.5
t-189 -149.5t-116 -222.5t-41 -273.5q0 -141 37.5 -267t108.5 -225.5t185 -158t257 -58.5q146 0 261.5 55.5t188.5 153.5t111.5 226.5t38.5 279.5q0 142 -40.5 267.5t-114 220.5t-186.5 150.5t-249 55.5zM1190 1272l-33 33q180 15 180 159q0 59 -22 111h45q18 -45 18 -100
q0 -173 -188 -203z" />
    <glyph glyph-name="ohorn" unicode="&#x1a1;" horiz-adv-x="1095" 
d="M553 1047q179 0 299 -123q141 25 141 153q0 59 -22 111h45q18 -45 18 -101q0 -155 -155 -196q114 -142 114 -381q0 -253 -122.5 -396t-327.5 -143q-201 0 -321 145t-120 390q0 255 127 398t324 143zM549 1010q-96 0 -174 -40.5t-127.5 -110t-76 -159.5t-26.5 -192
t26 -192t74.5 -159t125.5 -109t172 -40q192 0 299.5 139.5t107.5 360.5q0 139 -45 251.5t-137.5 181.5t-218.5 69z" />
    <glyph glyph-name="Uhorn" unicode="&#x1af;" horiz-adv-x="1376" 
d="M172 1442h41v-901q0 -114 26.5 -204.5t70.5 -149.5t106.5 -98.5t130.5 -56t145 -16.5q232 0 351.5 133.5t119.5 391.5v901h4q181 15 181 160q0 56 -23 110h45q19 -47 19 -100q0 -172 -185 -203v-860q0 -127 -25.5 -225t-70.5 -162.5t-110.5 -105.5t-141.5 -58.5
t-168 -17.5q-81 0 -152.5 16t-139.5 56t-116.5 100t-78 155t-29.5 215v920z" />
    <glyph glyph-name="uhorn" unicode="&#x1b0;" horiz-adv-x="1107" 
d="M891 252q-38 -124 -129 -198t-236 -74q-48 0 -92 9t-93 34.5t-84.5 66.5t-59 111t-23.5 161v656h41v-672q0 -65 18 -122.5t54 -104.5t98 -74t143 -27q165 0 264 112.5t99 328.5v559h22q162 20 162 158q0 58 -22 110h45q18 -45 18 -100q0 -174 -182 -201v-706
q0 -57 1 -160t1 -119h-41q-2 13 -3.5 98.5t-0.5 153.5z" />
    <glyph glyph-name="uni01CD" unicode="&#x1cd;" horiz-adv-x="1277" 
d="M956 561h-645l-215 -561h-43l553 1442h43l576 -1442h-45zM326 598h614q-80 200 -151.5 384t-112 289t-49.5 128h-2q-15 -55 -299 -801zM653 1559h-51l-260 262h51l236 -234l229 234h49z" />
    <glyph glyph-name="uni01CE" unicode="&#x1ce;" horiz-adv-x="1036" 
d="M862 729v-500q0 -161 10 -229h-41q-10 82 -10 227q-81 -252 -370 -252q-89 0 -157 24.5t-107 67t-58.5 92.5t-19.5 107q0 309 454 309q184 0 258 -2v144q0 289 -303 289q-159 0 -232.5 -71t-84.5 -198h-41q3 47 14.5 88.5t38 82t66 69.5t101.5 47t140 18q174 0 258 -85.5
t84 -227.5zM821 438v99q-70 2 -260 2q-207 0 -308 -67t-101 -204q0 -117 83.5 -185.5t217.5 -68.5q179 0 273.5 108t94.5 316zM541 1237h-39l-232 307h47l205 -274l199 274h45z" />
    <glyph glyph-name="uni01CF" unicode="&#x1cf;" horiz-adv-x="425" 
d="M193 1442h40v-1442h-40v1442zM238 1595h-52l-260 263h51l236 -234l229 234h50z" />
    <glyph glyph-name="uni01D0" unicode="&#x1d0;" horiz-adv-x="389" 
d="M174 0v1018h41v-1018h-41zM217 1237h-39l-231 307h47l205 -274l198 274h45z" />
    <glyph glyph-name="uni01D1" unicode="&#x1d1;" horiz-adv-x="1478" 
d="M745 1462q143 0 263 -57.5t200 -156t124 -231.5t44 -284q0 -156 -40.5 -291t-118.5 -239t-202.5 -163.5t-281.5 -59.5q-146 0 -266 57.5t-199 157.5t-122.5 235.5t-43.5 290.5q0 120 26.5 229.5t80 203t129 162t180.5 107.5t227 39zM743 1425q-138 0 -252 -54.5
t-189 -149.5t-116 -222.5t-41 -273.5q0 -141 37.5 -267t108.5 -225.5t185 -158t257 -58.5q146 0 261.5 55.5t188.5 153.5t111.5 226.5t38.5 279.5q0 142 -40.5 267.5t-114 220.5t-186.5 150.5t-249 55.5zM764 1595h-51l-260 263h51l235 -234l230 234h49z" />
    <glyph glyph-name="uni01D2" unicode="&#x1d2;" horiz-adv-x="1095" 
d="M553 1047q193 0 316.5 -144t123.5 -393q0 -253 -122.5 -396t-327.5 -143q-201 0 -321 145t-120 390q0 255 127 398t324 143zM549 1010q-96 0 -174 -40.5t-127.5 -110t-76 -159.5t-26.5 -192t26 -192t74.5 -159t125.5 -109t172 -40q192 0 299.5 139.5t107.5 360.5
q0 139 -45 251.5t-137.5 181.5t-218.5 69zM569 1237h-39l-231 307h47l205 -274l199 274h45z" />
    <glyph glyph-name="uni01D3" unicode="&#x1d3;" horiz-adv-x="1376" 
d="M172 1442h41v-901q0 -114 26.5 -204.5t70.5 -149.5t106.5 -98.5t130.5 -56t145 -16.5q232 0 351.5 133.5t119.5 391.5v901h41v-893q0 -127 -25.5 -225t-70.5 -162.5t-110.5 -105.5t-141.5 -58.5t-168 -17.5q-81 0 -152.5 16t-139.5 56t-116.5 100t-78 155t-29.5 215v920z
M713 1595h-51l-261 263h52l235 -234l230 234h49z" />
    <glyph glyph-name="uni01D4" unicode="&#x1d4;" horiz-adv-x="1107" 
d="M934 1018v-739q0 -57 1 -160t1 -119h-41q-2 13 -3.5 98.5t-0.5 153.5q-38 -124 -129 -198t-236 -74q-48 0 -92 9t-93 34.5t-84.5 66.5t-59 111t-23.5 161v656h41v-672q0 -65 18 -122.5t54 -104.5t98 -74t143 -27q165 0 264 112.5t99 328.5v559h43zM575 1237h-38l-232 307
h47l205 -274l199 274h45z" />
    <glyph glyph-name="uni01D5" unicode="&#x1d5;" horiz-adv-x="1376" 
d="M172 1442h41v-901q0 -114 26.5 -204.5t70.5 -149.5t106.5 -98.5t130.5 -56t145 -16.5q232 0 351.5 133.5t119.5 391.5v901h41v-893q0 -127 -25.5 -225t-70.5 -162.5t-110.5 -105.5t-141.5 -58.5t-168 -17.5q-81 0 -152.5 16t-139.5 56t-116.5 100t-78 155t-29.5 215v920z
M510 1561h-41v176h41v-176zM958 1884h-505v39h505v-39zM942 1561h-41v176h41v-176z" />
    <glyph glyph-name="uni01D6" unicode="&#x1d6;" horiz-adv-x="1107" 
d="M934 1018v-739q0 -57 1 -160t1 -119h-41q-2 13 -3.5 98.5t-0.5 153.5q-38 -124 -129 -198t-236 -74q-48 0 -92 9t-93 34.5t-84.5 66.5t-59 111t-23.5 161v656h41v-672q0 -65 18 -122.5t54 -104.5t98 -74t143 -27q165 0 264 112.5t99 328.5v559h43zM385 1165h-41v176h41
v-176zM780 1507h-452v35h452v-35zM756 1165h-41v176h41v-176z" />
    <glyph glyph-name="uni01D7" unicode="&#x1d7;" horiz-adv-x="1376" 
d="M172 1442h41v-901q0 -114 26.5 -204.5t70.5 -149.5t106.5 -98.5t130.5 -56t145 -16.5q232 0 351.5 133.5t119.5 391.5v901h41v-893q0 -127 -25.5 -225t-70.5 -162.5t-110.5 -105.5t-141.5 -58.5t-168 -17.5q-81 0 -152.5 16t-139.5 56t-116.5 100t-78 155t-29.5 215v920z
M469 1716h41v-155h-41v155zM651 1792l244 252h57l-250 -252h-51zM922 1561h-41v155h41v-155z" />
    <glyph glyph-name="uni01D8" unicode="&#x1d8;" horiz-adv-x="1107" 
d="M934 1018v-739q0 -57 1 -160t1 -119h-41q-2 13 -3.5 98.5t-0.5 153.5q-38 -124 -129 -198t-236 -74q-48 0 -92 9t-93 34.5t-84.5 66.5t-59 111t-23.5 161v656h41v-672q0 -65 18 -122.5t54 -104.5t98 -74t143 -27q165 0 264 112.5t99 328.5v559h43zM354 1331h41v-176h-41
v176zM559 1413h-45l223 252h51zM762 1155h-41v176h41v-176z" />
    <glyph glyph-name="uni01D9" unicode="&#x1d9;" horiz-adv-x="1376" 
d="M172 1442h41v-901q0 -114 26.5 -204.5t70.5 -149.5t106.5 -98.5t130.5 -56t145 -16.5q232 0 351.5 133.5t119.5 391.5v901h41v-893q0 -127 -25.5 -225t-70.5 -162.5t-110.5 -105.5t-141.5 -58.5t-168 -17.5q-81 0 -152.5 16t-139.5 56t-116.5 100t-78 155t-29.5 215v920z
M711 1776h-49l-236 211h53l209 -183l209 183h53zM508 1561h-41v145h41v-145zM922 1561h-41v145h41v-145z" />
    <glyph glyph-name="uni01DA" unicode="&#x1da;" horiz-adv-x="1107" 
d="M934 1018v-739q0 -57 1 -160t1 -119h-41q-2 13 -3.5 98.5t-0.5 153.5q-38 -124 -129 -198t-236 -74q-48 0 -92 9t-93 34.5t-84.5 66.5t-59 111t-23.5 161v656h41v-672q0 -65 18 -122.5t54 -104.5t98 -74t143 -27q165 0 264 112.5t99 328.5v559h43zM573 1427h-49l-215 232
h47l195 -205l194 205h48zM389 1169h-41v177h41v-177zM760 1169h-41v177h41v-177z" />
    <glyph glyph-name="uni01DB" unicode="&#x1db;" horiz-adv-x="1376" 
d="M172 1442h41v-901q0 -114 26.5 -204.5t70.5 -149.5t106.5 -98.5t130.5 -56t145 -16.5q232 0 351.5 133.5t119.5 391.5v901h41v-893q0 -127 -25.5 -225t-70.5 -162.5t-110.5 -105.5t-141.5 -58.5t-168 -17.5q-81 0 -152.5 16t-139.5 56t-116.5 100t-78 155t-29.5 215v920z
M469 1716h41v-155h-41v155zM737 1812h-49l-250 252h56zM922 1561h-41v155h41v-155z" />
    <glyph glyph-name="uni01DC" unicode="&#x1dc;" horiz-adv-x="1107" 
d="M934 1018v-739q0 -57 1 -160t1 -119h-41q-2 13 -3.5 98.5t-0.5 153.5q-38 -124 -129 -198t-236 -74q-48 0 -92 9t-93 34.5t-84.5 66.5t-59 111t-23.5 161v656h41v-672q0 -65 18 -122.5t54 -104.5t98 -74t143 -27q165 0 264 112.5t99 328.5v559h43zM350 1331h41v-176h-41
v176zM319 1665h52l219 -252h-41zM762 1155h-41v176h41v-176z" />
    <glyph glyph-name="Gcaron" unicode="&#x1e6;" horiz-adv-x="1421" 
d="M1276 721v-721h-37q-1 30 -4 338q-61 -183 -189 -270.5t-329 -87.5q-125 0 -227.5 38t-173.5 105t-120 159.5t-71.5 199t-22.5 225.5q0 122 24.5 232.5t75.5 206.5t125 166t178.5 110t229.5 40q228 0 364 -106t175 -283h-41q-44 167 -170 259.5t-330 92.5
q-143 0 -257 -56.5t-185 -155t-108.5 -226t-37.5 -274.5q0 -112 20.5 -213t65.5 -190t111 -154t163 -102.5t216 -37.5q170 0 287 72.5t172 197t55 292.5v106h-516v37h557zM756 1595h-51l-261 263h52l235 -234l230 234h49z" />
    <glyph glyph-name="gcaron" unicode="&#x1e7;" horiz-adv-x="1116" 
d="M942 741v-706q0 -127 -21.5 -218t-71 -158.5t-134 -100.5t-207.5 -33q-172 0 -269 83.5t-116 209.5h41q24 -117 112 -186.5t234 -69.5q113 0 189.5 30.5t120.5 94t62.5 148.5t18.5 206v225q-81 -266 -373 -266q-185 0 -304.5 137t-119.5 371q0 129 37.5 233t100.5 168.5
t141.5 98.5t163.5 34q80 0 144.5 -21t105.5 -57.5t67 -78t39 -90.5q0 50 0.5 102t1 85t0.5 36h39q0 -7 -0.5 -49.5t-1 -106t-0.5 -121.5zM147 510q0 -219 109.5 -345t273.5 -126q373 0 373 489q0 50 -2.5 91t-11.5 92t-24 90.5t-42.5 79t-64 65.5t-91 42t-122.5 16
q-181 0 -289.5 -138t-108.5 -356zM580 1237h-39l-232 307h47l205 -274l199 274h45z" />
    <glyph glyph-name="uni0218" unicode="&#x218;" horiz-adv-x="1130" 
d="M74 375h43q32 -174 151 -266.5t305 -92.5q194 0 308 91.5t114 250.5q0 105 -36 172.5t-127 120t-259 97.5q-116 31 -191 62t-131 74t-81 101t-25 137q0 158 113.5 249t308.5 91q91 0 164.5 -21t121.5 -55t82.5 -81t52 -93t24.5 -98h-41q-29 147 -130 229t-276 82
q-172 0 -274.5 -77t-102.5 -222q0 -136 87.5 -209.5t302.5 -128.5q114 -29 195 -63t132.5 -71t81 -84t40.5 -95.5t11 -112.5q0 -177 -124.5 -279.5t-342.5 -102.5q-216 0 -340.5 105t-156.5 290zM504 -504h-41q52 91 78 181.5t26 207.5h41q0 -226 -104 -389z" />
    <glyph glyph-name="uni0219" unicode="&#x219;" horiz-adv-x="897" 
d="M86 270h41q27 -131 107 -194.5t229 -63.5q148 0 226.5 66.5t78.5 169.5q0 70 -23.5 115t-93 85t-198.5 74q-126 34 -195.5 73t-94 85t-24.5 115q0 104 81 175.5t235 71.5q150 0 237.5 -77t100.5 -199h-41q-7 46 -25 86t-51.5 76t-90.5 57t-132 21q-138 0 -205.5 -60
t-67.5 -147q0 -93 60 -146t229 -96q194 -50 268 -119.5t74 -185.5q0 -127 -94.5 -202t-253.5 -75q-329 0 -377 295zM367 -504h-41q52 91 78 181.5t26 207.5h41q0 -226 -104 -389z" />
    <glyph glyph-name="uni021A" unicode="&#x21a;" horiz-adv-x="1054" 
d="M506 0v1405h-510v37h1063v-37h-512v-1405h-41zM444 -504h-41q52 92 78.5 182t26.5 207h41q0 -225 -105 -389z" />
    <glyph glyph-name="uni021B" unicode="&#x21b;" horiz-adv-x="518" 
d="M14 981v37h191v338h41v-338h254v-37h-254v-770q0 -95 30.5 -144t118.5 -49q57 0 82 11v-37q-32 -12 -84 -12q-103 0 -145.5 53t-42.5 188v760h-191zM233 -504h-40q52 91 78 181.5t26 207.5h41q0 -225 -105 -389z" />
    <glyph glyph-name="uni0237" unicode="&#x237;" horiz-adv-x="389" 
d="M174 1018h41v-1208q0 -68 -8.5 -116.5t-29.5 -88.5t-61 -60t-100 -20h-14v37h4q30 0 48.5 2.5t43.5 15.5t40 37.5t25.5 71.5t10.5 114v1215z" />
    <glyph glyph-name="uni0251" unicode="&#x251;" horiz-adv-x="1122" 
d="M907 1018h41v-803q0 -147 8 -217h-36q-13 75 -13 258q-20 -61 -48 -108.5t-72.5 -88t-111.5 -62.5t-153 -22q-85 0 -159.5 32.5t-133 95.5t-93 164.5t-34.5 230.5q0 134 37 240t99.5 171t142 99t168.5 34q268 0 358 -241v217zM145 502q0 -229 105.5 -358.5t273.5 -129.5
q387 0 387 516q0 474 -366 474q-121 0 -213 -66t-139.5 -179t-47.5 -257z" />
    <glyph glyph-name="uni0259" unicode="&#x259;" horiz-adv-x="1017" 
d="M74 502h796q0 234 -104.5 369t-273.5 135q-140 0 -223.5 -64.5t-133.5 -177.5h-41q106 278 395 278q91 0 164 -31.5t120 -83t79 -121.5t45.5 -143.5t13.5 -152.5q0 -242 -118 -386t-308 -144q-91 0 -163.5 30.5t-118 79t-76 112t-43 125.5t-12.5 124q0 28 2 51zM868 465
h-757q0 -126 40 -225.5t126.5 -161.5t209.5 -62q166 0 269 124.5t112 324.5z" />
    <glyph glyph-name="uni0261" unicode="&#x261;" horiz-adv-x="1116" 
d="M942 741v-706q0 -127 -21.5 -218t-71 -158.5t-134 -100.5t-207.5 -33q-172 0 -269 83.5t-116 209.5h41q24 -117 112 -186.5t234 -69.5q113 0 189.5 30.5t120.5 94t62.5 148.5t18.5 206v225q-81 -266 -373 -266q-185 0 -304.5 137t-119.5 371q0 129 37.5 233t100.5 168.5
t141.5 98.5t163.5 34q80 0 144.5 -21t105.5 -57.5t67 -78t39 -90.5q0 50 0.5 102t1 85t0.5 36h39q0 -7 -0.5 -49.5t-1 -106t-0.5 -121.5zM147 510q0 -219 109.5 -345t273.5 -126q373 0 373 489q0 50 -2.5 91t-11.5 92t-24 90.5t-42.5 79t-64 65.5t-91 42t-122.5 16
q-181 0 -289.5 -138t-108.5 -356z" />
    <glyph glyph-name="uni02BB" unicode="&#x2bb;" horiz-adv-x="544" 
d="M301 1538h39q-48 -109 -71 -234.5t-23 -211.5h-41q3 124 32.5 248t63.5 198z" />
    <glyph glyph-name="uni02BC" unicode="&#x2bc;" horiz-adv-x="544" 
d="M244 1092h-39q48 109 71 234.5t23 211.5h41q-3 -124 -32.5 -248t-63.5 -198z" />
    <glyph glyph-name="uni02BE" unicode="&#x2be;" horiz-adv-x="591" 
d="M205 1200q73 7 109 47.5t36 98.5t-36 98t-109 47v35q83 0 132.5 -53t49.5 -127t-49.5 -127.5t-132.5 -53.5v35z" />
    <glyph glyph-name="uni02BF" unicode="&#x2bf;" horiz-adv-x="591" 
d="M387 1206v-35q-83 0 -132.5 53.5t-49.5 127.5t49.5 127t132.5 53v-35q-73 -7 -109 -47t-36 -98t36 -98.5t109 -47.5z" />
    <glyph glyph-name="circumflex" unicode="&#x2c6;" 
d="M387 1554h39l231 -307h-47l-204 275l-199 -275h-45z" />
    <glyph glyph-name="caron" unicode="&#x2c7;" 
d="M432 1237h-39l-231 307h47l205 -274l198 274h45z" />
    <glyph glyph-name="uni02C8" unicode="&#x2c8;" horiz-adv-x="450" 
d="M246 1182h-41v350h41v-350z" />
    <glyph glyph-name="uni02C9" unicode="&#x2c9;" horiz-adv-x="933" 
d="M205 1405h524v-37h-524v37z" />
    <glyph glyph-name="uni02CA" unicode="&#x2ca;" horiz-adv-x="733" 
d="M516 1556h51l-315 -325h-47z" />
    <glyph glyph-name="uni02CB" unicode="&#x2cb;" horiz-adv-x="733" 
d="M178 1556h51l299 -325h-47z" />
    <glyph glyph-name="uni02CC" unicode="&#x2cc;" horiz-adv-x="450" 
d="M246 -457h-41v351h41v-351z" />
    <glyph glyph-name="breve" unicode="&#x2d8;" 
d="M170 1501h33q17 -87 70.5 -132.5t132.5 -45.5q81 0 133 45t69 133h33q-8 -91 -68.5 -153t-166.5 -62t-167 62.5t-69 152.5z" />
    <glyph glyph-name="dotaccent" unicode="&#x2d9;" 
d="M428 1362h-41v176h41v-176z" />
    <glyph glyph-name="ring" unicode="&#x2da;" 
d="M403 1214q-77 0 -125.5 52.5t-48.5 126.5t48.5 126t125.5 52q78 0 127.5 -52t49.5 -126t-49.5 -126.5t-127.5 -52.5zM403 1251q63 0 100.5 42.5t37.5 99.5t-37.5 99t-100.5 42t-99 -41.5t-36 -99.5t36 -100t99 -42z" />
    <glyph glyph-name="ogonek" unicode="&#x2db;" 
d="M502 18l26 -18q-37 -47 -53 -68t-40 -59t-33 -71t-9 -70q0 -65 41 -102.5t109 -37.5q61 0 125 27l8 -37q-50 -31 -135 -31q-89 0 -139 49.5t-50 127.5t41.5 147.5t108.5 142.5z" />
    <glyph glyph-name="tilde" unicode="&#x2dc;" 
d="M166 1327h-35v21q0 72 33 105.5t88 33.5q41 0 87 -19t80 -42.5t75 -42.5t73 -19q41 0 59.5 24.5t18.5 75.5v25h35v-25q0 -66 -29.5 -100.5t-83.5 -34.5q-35 0 -80 19.5t-81 43t-79.5 43t-76.5 19.5q-84 0 -84 -106v-21z" />
    <glyph glyph-name="hungarumlaut" unicode="&#x2dd;" 
d="M272 1210h-43l228 326h45zM539 1210h-43l227 326h45z" />
    <glyph glyph-name="uni0300" unicode="&#x300;" horiz-adv-x="0" 
d="M-199 1556h52l299 -325h-48z" />
    <glyph glyph-name="uni0301" unicode="&#x301;" horiz-adv-x="0" 
d="M145 1556h52l-316 -325h-47z" />
    <glyph glyph-name="uni0302" unicode="&#x302;" horiz-adv-x="0" 
d="M-23 1554h39l232 -307h-47l-205 275l-199 -275h-45z" />
    <glyph glyph-name="uni0303" unicode="&#x303;" horiz-adv-x="0" 
d="M-240 1327h-34v21q0 72 32.5 105.5t87.5 33.5q41 0 87 -19t80.5 -42.5t75.5 -42.5t73 -19q41 0 59.5 24.5t18.5 75.5v25h34v-25q0 -66 -29 -100.5t-83 -34.5q-44 0 -103 31.5t-116 62.5t-99 31q-84 0 -84 -106v-21z" />
    <glyph glyph-name="uni0304" unicode="&#x304;" horiz-adv-x="0" 
d="M-262 1405h524v-37h-524v37z" />
    <glyph glyph-name="uni0306" unicode="&#x306;" horiz-adv-x="0" 
d="M-236 1501h33q17 -87 70.5 -132.5t132.5 -45.5q81 0 133.5 45t69.5 133h33q-8 -90 -69 -152.5t-167 -62.5t-167 62.5t-69 152.5z" />
    <glyph glyph-name="uni0307" unicode="&#x307;" horiz-adv-x="0" 
d="M20 1362h-40v176h40v-176z" />
    <glyph glyph-name="uni0308" unicode="&#x308;" horiz-adv-x="0" 
d="M-143 1362h-41v176h41v-176zM184 1362h-41v176h41v-176z" />
    <glyph glyph-name="uni0309" unicode="&#x309;" horiz-adv-x="0" 
d="M23 1196h-54q150 99 150 199q0 49 -32 81.5t-89 32.5q-82 0 -145 -51l-17 31q66 59 164 59q76 0 118 -44t42 -109q0 -53 -40 -109t-97 -90z" />
    <glyph glyph-name="uni030A" unicode="&#x30a;" horiz-adv-x="0" 
d="M-2 1214q-77 0 -125.5 52.5t-48.5 126.5t48.5 126t125.5 52q78 0 127 -52t49 -126t-49 -126.5t-127 -52.5zM-2 1251q63 0 100 42t37 100q0 57 -37 99t-100 42t-99 -41.5t-36 -99.5t36 -100t99 -42z" />
    <glyph glyph-name="uni030B" unicode="&#x30b;" horiz-adv-x="0" 
d="M-209 1210h-43l227 326h45zM57 1210h-43l228 326h45z" />
    <glyph glyph-name="uni030C" unicode="&#x30c;" horiz-adv-x="0" 
d="M23 1237h-39l-232 307h47l205 -274l199 274h45z" />
    <glyph glyph-name="uni031B" unicode="&#x31b;" horiz-adv-x="0" 
d="M-68 918l-32 32q180 15 180 160q0 57 -23 111h45q19 -47 19 -101q0 -172 -189 -202z" />
    <glyph glyph-name="uni0323" unicode="&#x323;" horiz-adv-x="0" 
d="M20 -354h-40v172h40v-172z" />
    <glyph glyph-name="uni0324" unicode="&#x324;" horiz-adv-x="0" 
d="M-143 -315h-41v176h41v-176zM184 -315h-41v176h41v-176z" />
    <glyph glyph-name="uni0326" unicode="&#x326;" horiz-adv-x="0" 
d="M-82 -504h-41q52 92 78.5 182t26.5 207h41q0 -225 -105 -389z" />
    <glyph glyph-name="uni0327" unicode="&#x327;" horiz-adv-x="0" 
d="M-16 0h39l-68 -137q115 0 174 -45.5t59 -118.5q0 -74 -52 -117t-136 -43q-90 0 -150 29v39q63 -31 150 -31q71 0 109 34t38 87q0 62 -58 99t-183 30v20z" />
    <glyph glyph-name="uni0328" unicode="&#x328;" horiz-adv-x="0" 
d="M80 18l26 -18q-38 -47 -53.5 -68t-39.5 -59t-33 -71t-9 -70q0 -65 41 -102.5t109 -37.5q61 0 125 27l8 -37q-50 -31 -135 -31q-89 0 -139 49.5t-50 127.5t41.5 147.5t108.5 142.5z" />
    <glyph glyph-name="uni032E" unicode="&#x32e;" horiz-adv-x="0" 
d="M-236 -94h33q17 -87 70.5 -132.5t132.5 -45.5q81 0 133.5 45t69.5 133h33q-8 -90 -69 -152.5t-167 -62.5t-167 62.5t-69 152.5z" />
    <glyph glyph-name="uni0331" unicode="&#x331;" horiz-adv-x="0" 
d="M-262 -190h524v-37h-524v37z" />
    <glyph glyph-name="pi" unicode="&#x3c0;" horiz-adv-x="1028" 
d="M786 0v981h-567v-981h-41v981q-133 0 -188 -2v35q43 4 274 4h742v-37h-179v-981h-41z" />
    <glyph glyph-name="uni1E0C" unicode="&#x1e0c;" horiz-adv-x="1413" 
d="M193 0v1442h436q212 0 368.5 -91.5t235 -246.5t78.5 -352q0 -221 -77.5 -389t-234 -265.5t-374.5 -97.5h-432zM233 1405v-1368h396q293 0 466 188.5t173 524.5q0 189 -73.5 336t-221 233t-350.5 86h-390zM627 -354h-41v172h41v-172z" />
    <glyph glyph-name="uni1E0D" unicode="&#x1e0d;" horiz-adv-x="1122" 
d="M907 1538h41v-1294q0 -38 1 -127t1 -117h-39q-4 70 -4 256q-88 -281 -385 -281q-84 0 -159 33.5t-133.5 97t-93 165t-34.5 227.5q0 134 37 240t99.5 171t142 99t168.5 34q72 0 131.5 -19t96 -45.5t66 -63t42 -61.5t22.5 -52v737zM145 502q0 -225 106 -356.5t273 -131.5
q190 0 288.5 129.5t98.5 386.5q0 230 -91.5 352t-274.5 122q-121 0 -213 -66t-139.5 -179t-47.5 -257zM582 -354h-41v172h41v-172z" />
    <glyph glyph-name="uni1E0E" unicode="&#x1e0e;" horiz-adv-x="1413" 
d="M193 0v1442h436q212 0 368.5 -91.5t235 -246.5t78.5 -352q0 -221 -77.5 -389t-234 -265.5t-374.5 -97.5h-432zM233 1405v-1368h396q293 0 466 188.5t173 524.5q0 189 -73.5 336t-221 233t-350.5 86h-390zM383 -190h524v-37h-524v37z" />
    <glyph glyph-name="uni1E0F" unicode="&#x1e0f;" horiz-adv-x="1122" 
d="M907 1538h41v-1294q0 -38 1 -127t1 -117h-39q-4 70 -4 256q-88 -281 -385 -281q-84 0 -159 33.5t-133.5 97t-93 165t-34.5 227.5q0 134 37 240t99.5 171t142 99t168.5 34q72 0 131.5 -19t96 -45.5t66 -63t42 -61.5t22.5 -52v737zM145 502q0 -225 106 -356.5t273 -131.5
q190 0 288.5 129.5t98.5 386.5q0 230 -91.5 352t-274.5 122q-121 0 -213 -66t-139.5 -179t-47.5 -257zM299 -213h524v-37h-524v37z" />
    <glyph glyph-name="uni1E20" unicode="&#x1e20;" horiz-adv-x="1421" 
d="M1276 721v-721h-37q-1 30 -4 338q-61 -183 -189 -270.5t-329 -87.5q-125 0 -227.5 38t-173.5 105t-120 159.5t-71.5 199t-22.5 225.5q0 122 24.5 232.5t75.5 206.5t125 166t178.5 110t229.5 40q228 0 364 -106t175 -283h-41q-44 167 -170 259.5t-330 92.5
q-143 0 -257 -56.5t-185 -155t-108.5 -226t-37.5 -274.5q0 -112 20.5 -213t65.5 -190t111 -154t163 -102.5t216 -37.5q170 0 287 72.5t172 197t55 292.5v106h-516v37h557zM483 1708h516v-37h-516v37z" />
    <glyph glyph-name="uni1E21" unicode="&#x1e21;" horiz-adv-x="1116" 
d="M942 741v-706q0 -127 -21.5 -218t-71 -158.5t-134 -100.5t-207.5 -33q-172 0 -269 83.5t-116 209.5h41q24 -117 112 -186.5t234 -69.5q113 0 189.5 30.5t120.5 94t62.5 148.5t18.5 206v225q-81 -266 -373 -266q-185 0 -304.5 137t-119.5 371q0 129 37.5 233t100.5 168.5
t141.5 98.5t163.5 34q80 0 144.5 -21t105.5 -57.5t67 -78t39 -90.5q0 50 0.5 102t1 85t0.5 36h39q0 -7 -0.5 -49.5t-1 -106t-0.5 -121.5zM147 510q0 -219 109.5 -345t273.5 -126q373 0 373 489q0 50 -2.5 91t-11.5 92t-24 90.5t-42.5 79t-64 65.5t-91 42t-122.5 16
q-181 0 -289.5 -138t-108.5 -356zM295 1405h524v-37h-524v37z" />
    <glyph glyph-name="uni1E24" unicode="&#x1e24;" horiz-adv-x="1417" 
d="M193 0v1442h40v-654h951v654h41v-1442h-41v752h-951v-752h-40zM729 -354h-41v172h41v-172z" />
    <glyph glyph-name="uni1E25" unicode="&#x1e25;" horiz-adv-x="1120" 
d="M174 1538h41v-768q16 48 42 90.5t70.5 86t115 69.5t159.5 26q66 0 124 -20t109 -62.5t81 -120.5t30 -184v-655h-43v651q0 158 -79 255.5t-228 97.5q-182 0 -281.5 -122t-99.5 -315v-567h-41v1538zM580 -354h-41v172h41v-172z" />
    <glyph glyph-name="uni1E2A" unicode="&#x1e2a;" horiz-adv-x="1417" 
d="M193 0v1442h40v-654h951v654h41v-1442h-41v752h-951v-752h-40zM473 -94h33q17 -87 70.5 -132.5t132.5 -45.5q81 0 133 45t69 133h33q-8 -91 -68.5 -153t-166.5 -62t-167 62.5t-69 152.5z" />
    <glyph glyph-name="uni1E2B" unicode="&#x1e2b;" horiz-adv-x="1120" 
d="M174 1538h41v-768q16 48 42 90.5t70.5 86t115 69.5t159.5 26q66 0 124 -20t109 -62.5t81 -120.5t30 -184v-655h-43v651q0 158 -79 255.5t-228 97.5q-182 0 -281.5 -122t-99.5 -315v-567h-41v1538zM324 -141h32q17 -87 70.5 -132.5t132.5 -45.5q81 0 133.5 45t69.5 133h33
q-8 -90 -69 -152.5t-167 -62.5t-166.5 62t-68.5 153z" />
    <glyph glyph-name="uni1E36" unicode="&#x1e36;" horiz-adv-x="1040" 
d="M193 0v1442h40v-1405h816l-15 -37h-841zM643 -354h-41v172h41v-172z" />
    <glyph glyph-name="uni1E37" unicode="&#x1e37;" horiz-adv-x="389" 
d="M215 0h-41v1538h41v-1538zM215 -354h-41v172h41v-172z" />
    <glyph glyph-name="uni1E38" unicode="&#x1e38;" horiz-adv-x="1040" 
d="M193 0v1442h40v-1405h816l-15 -37h-841zM643 -354h-41v172h41v-172zM-35 1688h516v-37h-516v37z" />
    <glyph glyph-name="uni1E39" unicode="&#x1e39;" horiz-adv-x="389" 
d="M215 0h-41v1538h41v-1538zM-68 1808h525v-36h-525v36zM215 -354h-41v172h41v-172z" />
    <glyph glyph-name="uni1E3A" unicode="&#x1e3a;" horiz-adv-x="1040" 
d="M193 0v1442h40v-1405h816l-15 -37h-841zM360 -231h525v-37h-525v37z" />
    <glyph glyph-name="uni1E3B" unicode="&#x1e3b;" horiz-adv-x="389" 
d="M215 0h-41v1538h41v-1538zM-68 -190h525v-37h-525v37z" />
    <glyph glyph-name="uni1E42" unicode="&#x1e42;" horiz-adv-x="1753" 
d="M1520 0v705q0 76 -0.5 209t-0.5 205.5t1 156t4 131.5h-4q-114 -281 -625 -1407h-51q-514 1164 -611 1407h-2q2 -44 2 -760v-647h-40v1442h65q13 -30 612 -1395h2q20 47 127.5 286.5t254 566.5t241.5 542h66v-1442h-41zM891 -354h-41v172h41v-172z" />
    <glyph glyph-name="uni1E43" unicode="&#x1e43;" horiz-adv-x="1736" 
d="M174 0v786q0 185 -2 232h41q6 -96 2 -240q11 38 28 72t47 70t67 62.5t91.5 43t118.5 16.5q125 0 204 -65t106 -176q11 30 26 58.5t44.5 63t66.5 60t93 42.5t122 17q147 0 240.5 -93.5t93.5 -282.5v-666h-43v662q0 95 -29 170t-97.5 123.5t-168.5 48.5
q-159 0 -247.5 -103.5t-88.5 -269.5v-631h-43v668q0 153 -72 244.5t-213 91.5q-155 0 -250.5 -118.5t-95.5 -322.5v-563h-41zM889 -354h-41v172h41v-172z" />
    <glyph glyph-name="uni1E44" unicode="&#x1e44;" horiz-adv-x="1437" 
d="M233 0h-40v1442h65q845 -1241 948 -1399l4 -6q-6 39 -6 682v723h41v-1442h-59q-862 1272 -955 1407l-4 6q4 -68 5.5 -155.5t1.5 -149t-0.5 -185.5t-0.5 -184v-739zM739 1614h-41v176h41v-176z" />
    <glyph glyph-name="uni1E45" unicode="&#x1e45;" horiz-adv-x="1120" 
d="M174 0v770q0 60 -1 153t-1 95h41q4 -105 2 -256q12 37 30.5 72t51 74t73.5 67.5t101 47.5t131 19q53 0 101 -12t93 -41.5t78 -73.5t52.5 -112t19.5 -154v-649h-43v645q0 160 -78 259.5t-229 99.5q-176 0 -278.5 -128.5t-102.5 -316.5v-559h-41zM578 1362h-41v176h41v-176
z" />
    <glyph glyph-name="uni1E46" unicode="&#x1e46;" horiz-adv-x="1437" 
d="M233 0h-40v1442h65q845 -1241 948 -1399l4 -6q-6 39 -6 682v723h41v-1442h-59q-862 1272 -955 1407l-4 6q4 -68 5.5 -155.5t1.5 -149t-0.5 -185.5t-0.5 -184v-739zM739 -354h-41v172h41v-172z" />
    <glyph glyph-name="uni1E47" unicode="&#x1e47;" horiz-adv-x="1120" 
d="M174 0v770q0 60 -1 153t-1 95h41q4 -105 2 -256q12 37 30.5 72t51 74t73.5 67.5t101 47.5t131 19q53 0 101 -12t93 -41.5t78 -73.5t52.5 -112t19.5 -154v-649h-43v645q0 160 -78 259.5t-229 99.5q-176 0 -278.5 -128.5t-102.5 -316.5v-559h-41zM580 -354h-41v172h41v-172
z" />
    <glyph glyph-name="uni1E48" unicode="&#x1e48;" horiz-adv-x="1437" 
d="M233 0h-40v1442h65q845 -1241 948 -1399l4 -6q-6 39 -6 682v723h41v-1442h-59q-862 1272 -955 1407l-4 6q4 -68 5.5 -155.5t1.5 -149t-0.5 -185.5t-0.5 -184v-739zM457 -190h524v-37h-524v37z" />
    <glyph glyph-name="uni1E49" unicode="&#x1e49;" horiz-adv-x="1120" 
d="M174 0v770q0 60 -1 153t-1 95h41q4 -105 2 -256q12 37 30.5 72t51 74t73.5 67.5t101 47.5t131 19q53 0 101 -12t93 -41.5t78 -73.5t52.5 -112t19.5 -154v-649h-43v645q0 160 -78 259.5t-229 99.5q-176 0 -278.5 -128.5t-102.5 -316.5v-559h-41zM297 -190h524v-37h-524v37
z" />
    <glyph glyph-name="uni1E5A" unicode="&#x1e5a;" horiz-adv-x="1222" 
d="M653 707h-417v-707h-43v1442h475q199 0 317.5 -93.5t118.5 -275.5q0 -136 -72.5 -227t-228.5 -117q51 -9 89.5 -23t75.5 -43t60.5 -71.5t38 -109t14.5 -154.5v-27q0 -248 19 -301h-45q-8 31 -11 81.5t-3.5 85t-0.5 134.5v18q0 102 -15.5 169t-57 119t-118.5 76t-196 24z
M236 1405v-660h401q424 0 424 326q0 158 -102.5 246t-290.5 88h-432zM631 -354h-41v172h41v-172z" />
    <glyph glyph-name="uni1E5B" unicode="&#x1e5b;" horiz-adv-x="610" 
d="M174 0v670q0 285 -2 348h39q4 -51 4 -295q38 132 149.5 223t235.5 96v-41q-103 -4 -192 -67t-141 -166t-52 -219v-549h-41zM217 -354h-41v172h41v-172z" />
    <glyph glyph-name="uni1E5C" unicode="&#x1e5c;" horiz-adv-x="1222" 
d="M653 707h-417v-707h-43v1442h475q199 0 317.5 -93.5t118.5 -275.5q0 -136 -72.5 -227t-228.5 -117q51 -9 89.5 -23t75.5 -43t60.5 -71.5t38 -109t14.5 -154.5v-27q0 -248 19 -301h-45q-8 31 -11 81.5t-3.5 85t-0.5 134.5v18q0 102 -15.5 169t-57 119t-118.5 76t-196 24z
M236 1405v-660h401q424 0 424 326q0 158 -102.5 246t-290.5 88h-432zM631 -354h-41v172h41v-172zM348 1698h516v-37h-516v37z" />
    <glyph glyph-name="uni1E5D" unicode="&#x1e5d;" horiz-adv-x="610" 
d="M174 0v670q0 285 -2 348h39q4 -51 4 -295q38 132 149.5 223t235.5 96v-41q-103 -4 -192 -67t-141 -166t-52 -219v-549h-41zM104 1405h525v-37h-525v37zM217 -354h-41v172h41v-172z" />
    <glyph glyph-name="uni1E5E" unicode="&#x1e5e;" horiz-adv-x="1222" 
d="M653 707h-417v-707h-43v1442h475q199 0 317.5 -93.5t118.5 -275.5q0 -136 -72.5 -227t-228.5 -117q51 -9 89.5 -23t75.5 -43t60.5 -71.5t38 -109t14.5 -154.5v-27q0 -248 19 -301h-45q-8 31 -11 81.5t-3.5 85t-0.5 134.5v18q0 102 -15.5 169t-57 119t-118.5 76t-196 24z
M236 1405v-660h401q424 0 424 326q0 158 -102.5 246t-290.5 88h-432zM348 -190h524v-37h-524v37z" />
    <glyph glyph-name="uni1E5F" unicode="&#x1e5f;" horiz-adv-x="610" 
d="M174 0v670q0 285 -2 348h39q4 -51 4 -295q38 132 149.5 223t235.5 96v-41q-103 -4 -192 -67t-141 -166t-52 -219v-549h-41zM2 -213h524v-37h-524v37z" />
    <glyph glyph-name="uni1E60" unicode="&#x1e60;" horiz-adv-x="1130" 
d="M74 375h43q32 -174 151 -266.5t305 -92.5q194 0 308 91.5t114 250.5q0 105 -36 172.5t-127 120t-259 97.5q-116 31 -191 62t-131 74t-81 101t-25 137q0 158 113.5 249t308.5 91q91 0 164.5 -21t121.5 -55t82.5 -81t52 -93t24.5 -98h-41q-29 147 -130 229t-276 82
q-172 0 -274.5 -77t-102.5 -222q0 -136 87.5 -209.5t302.5 -128.5q114 -29 195 -63t132.5 -71t81 -84t40.5 -95.5t11 -112.5q0 -177 -124.5 -279.5t-342.5 -102.5q-216 0 -340.5 105t-156.5 290zM586 1614h-41v176h41v-176z" />
    <glyph glyph-name="uni1E61" unicode="&#x1e61;" horiz-adv-x="897" 
d="M86 270h41q27 -131 107 -194.5t229 -63.5q148 0 226.5 66.5t78.5 169.5q0 70 -23.5 115t-93 85t-198.5 74q-126 34 -195.5 73t-94 85t-24.5 115q0 104 81 175.5t235 71.5q150 0 237.5 -77t100.5 -199h-41q-7 46 -25 86t-51.5 76t-90.5 57t-132 21q-138 0 -205.5 -60
t-67.5 -147q0 -93 60 -146t229 -96q194 -50 268 -119.5t74 -185.5q0 -127 -94.5 -202t-253.5 -75q-329 0 -377 295zM467 1362h-41v176h41v-176z" />
    <glyph glyph-name="uni1E62" unicode="&#x1e62;" horiz-adv-x="1130" 
d="M74 375h43q32 -174 151 -266.5t305 -92.5q194 0 308 91.5t114 250.5q0 105 -36 172.5t-127 120t-259 97.5q-116 31 -191 62t-131 74t-81 101t-25 137q0 158 113.5 249t308.5 91q91 0 164.5 -21t121.5 -55t82.5 -81t52 -93t24.5 -98h-41q-29 147 -130 229t-276 82
q-172 0 -274.5 -77t-102.5 -222q0 -136 87.5 -209.5t302.5 -128.5q114 -29 195 -63t132.5 -71t81 -84t40.5 -95.5t11 -112.5q0 -177 -124.5 -279.5t-342.5 -102.5q-216 0 -340.5 105t-156.5 290zM586 -354h-41v172h41v-172z" />
    <glyph glyph-name="uni1E63" unicode="&#x1e63;" horiz-adv-x="897" 
d="M86 270h41q27 -131 107 -194.5t229 -63.5q148 0 226.5 66.5t78.5 169.5q0 70 -23.5 115t-93 85t-198.5 74q-126 34 -195.5 73t-94 85t-24.5 115q0 104 81 175.5t235 71.5q150 0 237.5 -77t100.5 -199h-41q-7 46 -25 86t-51.5 76t-90.5 57t-132 21q-138 0 -205.5 -60
t-67.5 -147q0 -93 60 -146t229 -96q194 -50 268 -119.5t74 -185.5q0 -127 -94.5 -202t-253.5 -75q-329 0 -377 295zM469 -354h-41v172h41v-172z" />
    <glyph glyph-name="uni1E6C" unicode="&#x1e6c;" horiz-adv-x="1054" 
d="M506 0v1405h-510v37h1063v-37h-512v-1405h-41zM547 -354h-41v172h41v-172z" />
    <glyph glyph-name="uni1E6D" unicode="&#x1e6d;" horiz-adv-x="518" 
d="M14 981v37h191v338h41v-338h254v-37h-254v-770q0 -95 30.5 -144t118.5 -49q57 0 82 11v-37q-32 -12 -84 -12q-103 0 -145.5 53t-42.5 188v760h-191zM319 -354h-40v172h40v-172z" />
    <glyph glyph-name="uni1E6E" unicode="&#x1e6e;" horiz-adv-x="1054" 
d="M506 0v1405h-510v37h1063v-37h-512v-1405h-41zM264 -190h524v-37h-524v37z" />
    <glyph glyph-name="uni1E6F" unicode="&#x1e6f;" horiz-adv-x="518" 
d="M14 981v37h191v338h41v-338h254v-37h-254v-770q0 -95 30.5 -144t118.5 -49q57 0 82 11v-37q-32 -12 -84 -12q-103 0 -145.5 53t-42.5 188v760h-191zM37 -190h524v-37h-524v37z" />
    <glyph glyph-name="Wgrave" unicode="&#x1e80;" horiz-adv-x="1892" 
d="M512 0h-57l-406 1442h43q378 -1338 391 -1405h2q15 58 188.5 634.5t227.5 770.5h62q37 -127 141.5 -485.5t180 -621t83.5 -296.5h2q248 821 430 1403h43l-446 -1442h-60q-42 153 -141 494t-177.5 610.5t-86.5 306.5h-2q-32 -137 -418 -1411zM582 1903h59l338 -308h-51z
" />
    <glyph glyph-name="wgrave" unicode="&#x1e81;" horiz-adv-x="1558" 
d="M63 1018h46q67 -215 147.5 -467.5t114.5 -361.5t41 -148h2q23 85 249 724q18 52 28.5 81.5t28 79t32.5 92.5h55q54 -164 110 -332t87.5 -263.5t60 -180.5t42.5 -129t19 -64h2q7 26 21 68.5t41 122.5t58 172t88 261t116 345h43l-344 -1018h-49q-305 912 -324 977h-2
q-43 -145 -340 -977h-49zM467 1542h51l299 -325h-47z" />
    <glyph glyph-name="Wacute" unicode="&#x1e82;" horiz-adv-x="1892" 
d="M512 0h-57l-406 1442h43q378 -1338 391 -1405h2q15 58 188.5 634.5t227.5 770.5h62q37 -127 141.5 -485.5t180 -621t83.5 -296.5h2q248 821 430 1403h43l-446 -1442h-60q-42 153 -141 494t-177.5 610.5t-86.5 306.5h-2q-32 -137 -418 -1411zM1219 1903h59l-350 -308h-51z
" />
    <glyph glyph-name="wacute" unicode="&#x1e83;" horiz-adv-x="1558" 
d="M63 1018h46q67 -215 147.5 -467.5t114.5 -361.5t41 -148h2q23 85 249 724q18 52 28.5 81.5t28 79t32.5 92.5h55q54 -164 110 -332t87.5 -263.5t60 -180.5t42.5 -129t19 -64h2q7 26 21 68.5t41 122.5t58 172t88 261t116 345h43l-344 -1018h-49q-305 912 -324 977h-2
q-43 -145 -340 -977h-49zM1028 1556h51l-315 -325h-47z" />
    <glyph glyph-name="Wdieresis" unicode="&#x1e84;" horiz-adv-x="1892" 
d="M512 0h-57l-406 1442h43q378 -1338 391 -1405h2q15 58 188.5 634.5t227.5 770.5h62q37 -127 141.5 -485.5t180 -621t83.5 -296.5h2q248 821 430 1403h43l-446 -1442h-60q-42 153 -141 494t-177.5 610.5t-86.5 306.5h-2q-32 -137 -418 -1411zM762 1614h-41v176h41v-176z
M1151 1614h-41v176h41v-176z" />
    <glyph glyph-name="wdieresis" unicode="&#x1e85;" horiz-adv-x="1558" 
d="M63 1018h46q67 -215 147.5 -467.5t114.5 -361.5t41 -148h2q23 85 249 724q18 52 28.5 81.5t28 79t32.5 92.5h55q54 -164 110 -332t87.5 -263.5t60 -180.5t42.5 -129t19 -64h2q7 26 21 68.5t41 122.5t58 172t88 261t116 345h43l-344 -1018h-49q-305 912 -324 977h-2
q-43 -145 -340 -977h-49zM633 1362h-41v176h41v-176zM961 1362h-41v176h41v-176z" />
    <glyph glyph-name="uni1E8E" unicode="&#x1e8e;" horiz-adv-x="1105" 
d="M569 0h-41v590q0 12 -12 28l-506 824h49q407 -653 490 -803q24 44 108 178.5t207.5 330t184.5 294.5h47l-516 -821q-11 -17 -11 -29v-592zM573 1614h-41v176h41v-176z" />
    <glyph glyph-name="uni1E8F" unicode="&#x1e8f;" horiz-adv-x="974" 
d="M53 1018h45q69 -171 144.5 -359t110.5 -275t69 -173t48 -122.5t19 -55.5h3q3 9 387 985h45l-408 -1030q-45 -114 -77.5 -184t-67 -127.5t-68 -86t-73.5 -43t-93 -14.5q-54 0 -78 6l4 41q27 -6 76 -6q50 0 86 14.5t75 58t78.5 122.5t90.5 208zM506 1362h-41v176h41v-176z
" />
    <glyph glyph-name="uni1E92" unicode="&#x1e92;" horiz-adv-x="1122" 
d="M12 0v31l1008 1374h-942v37h997v-31l-1007 -1374h1026l-11 -37h-1071zM582 -354h-41v172h41v-172z" />
    <glyph glyph-name="uni1E93" unicode="&#x1e93;" horiz-adv-x="894" 
d="M59 0v31q183 238 715 950h-682v37h737v-31q-42 -54 -714 -950h725l-9 -37h-772zM467 -354h-41v172h41v-172z" />
    <glyph glyph-name="uni1E97" unicode="&#x1e97;" horiz-adv-x="518" 
d="M14 981v37h191v338h41v-338h254v-37h-254v-770q0 -95 30.5 -144t118.5 -49q57 0 82 11v-37q-32 -12 -84 -12q-103 0 -145.5 53t-42.5 188v760h-191zM82 1546h-41v176h41v-176zM410 1546h-41v176h41v-176z" />
    <glyph glyph-name="uni1E9E" unicode="&#x1e9e;" horiz-adv-x="1306" 
d="M233 1077v-1077h-40v1094q0 82 25.5 146t68 105t101.5 68t122.5 38t134.5 11q116 0 207.5 -30t144.5 -78t80 -103t27 -110v-37l-481 -270v-3q79 -36 239 -112q182 -87 262 -171t80 -214q0 -172 -116.5 -263t-309.5 -91q-135 0 -236 46t-157 109v58q65 -82 169.5 -129.5
t223.5 -47.5q182 0 282.5 85t100.5 229q0 120 -68 192.5t-251 163.5q-47 23 -260 123q-17 7 -17 21.5t17 23.5l481 272q0 50 -22.5 99.5t-69 95t-131 74t-195.5 28.5q-60 0 -112.5 -7.5t-109.5 -30t-97.5 -59t-66.5 -100.5t-26 -149z" />
    <glyph glyph-name="uni1EA0" unicode="&#x1ea0;" horiz-adv-x="1277" 
d="M956 561h-645l-215 -561h-43l553 1442h43l576 -1442h-45zM326 598h614q-80 200 -151.5 384t-112 289t-49.5 128h-2q-15 -55 -299 -801zM659 -354h-41v172h41v-172z" />
    <glyph glyph-name="uni1EA1" unicode="&#x1ea1;" horiz-adv-x="1036" 
d="M862 729v-500q0 -161 10 -229h-41q-10 82 -10 227q-81 -252 -370 -252q-89 0 -157 24.5t-107 67t-58.5 92.5t-19.5 107q0 309 454 309q184 0 258 -2v144q0 289 -303 289q-159 0 -232.5 -71t-84.5 -198h-41q3 47 14.5 88.5t38 82t66 69.5t101.5 47t140 18q174 0 258 -85.5
t84 -227.5zM821 438v99q-70 2 -260 2q-207 0 -308 -67t-101 -204q0 -117 83.5 -185.5t217.5 -68.5q179 0 273.5 108t94.5 316zM539 -354h-41v172h41v-172z" />
    <glyph glyph-name="uni1EA2" unicode="&#x1ea2;" horiz-adv-x="1277" 
d="M956 561h-645l-215 -561h-43l553 1442h43l576 -1442h-45zM326 598h614q-80 200 -151.5 384t-112 289t-49.5 128h-2q-15 -55 -299 -801zM635 1587h-53q149 99 149 199q0 49 -32.5 82t-88.5 33q-80 0 -145 -52l-16 31q66 59 163 59q76 0 118 -44t42 -109q0 -53 -40 -109
t-97 -90z" />
    <glyph glyph-name="uni1EA3" unicode="&#x1ea3;" horiz-adv-x="1036" 
d="M862 729v-500q0 -161 10 -229h-41q-10 82 -10 227q-81 -252 -370 -252q-89 0 -157 24.5t-107 67t-58.5 92.5t-19.5 107q0 309 454 309q184 0 258 -2v144q0 289 -303 289q-159 0 -232.5 -71t-84.5 -198h-41q3 47 14.5 88.5t38 82t66 69.5t101.5 47t140 18q174 0 258 -85.5
t84 -227.5zM821 438v99q-70 2 -260 2q-207 0 -308 -67t-101 -204q0 -117 83.5 -185.5t217.5 -68.5q179 0 273.5 108t94.5 316zM543 1196h-54q150 99 150 199q0 49 -32 81.5t-89 32.5q-82 0 -145 -51l-17 31q66 59 164 59q76 0 118 -44t42 -109q0 -53 -40 -109t-97 -90z" />
    <glyph glyph-name="uni1EA4" unicode="&#x1ea4;" horiz-adv-x="1277" 
d="M956 561h-645l-215 -561h-43l553 1442h43l576 -1442h-45zM326 598h614q-80 200 -151.5 384t-112 289t-49.5 128h-2q-15 -55 -299 -801zM621 1815h38l279 -234h-57l-240 201l-238 -201h-55zM1126 2023h58l-291 -237h-51z" />
    <glyph glyph-name="uni1EA5" unicode="&#x1ea5;" horiz-adv-x="1036" 
d="M862 729v-500q0 -161 10 -229h-41q-10 82 -10 227q-81 -252 -370 -252q-89 0 -157 24.5t-107 67t-58.5 92.5t-19.5 107q0 309 454 309q184 0 258 -2v144q0 289 -303 289q-159 0 -232.5 -71t-84.5 -198h-41q3 47 14.5 88.5t38 82t66 69.5t101.5 47t140 18q174 0 258 -85.5
t84 -227.5zM821 438v99q-70 2 -260 2q-207 0 -308 -67t-101 -204q0 -117 83.5 -185.5t217.5 -68.5q179 0 273.5 108t94.5 316zM500 1497h39l231 -287h-49l-201 252l-201 -252h-45zM946 1710h53l-243 -258h-43z" />
    <glyph glyph-name="uni1EA6" unicode="&#x1ea6;" horiz-adv-x="1277" 
d="M956 561h-645l-215 -561h-43l553 1442h43l576 -1442h-45zM326 598h614q-80 200 -151.5 384t-112 289t-49.5 128h-2q-15 -55 -299 -801zM608 1808h39l279 -233h-58l-239 201l-238 -201h-55zM791 1970h59l248 -215h-54z" />
    <glyph glyph-name="uni1EA7" unicode="&#x1ea7;" horiz-adv-x="1036" 
d="M862 729v-500q0 -161 10 -229h-41q-10 82 -10 227q-81 -252 -370 -252q-89 0 -157 24.5t-107 67t-58.5 92.5t-19.5 107q0 309 454 309q184 0 258 -2v144q0 289 -303 289q-159 0 -232.5 -71t-84.5 -198h-41q3 47 14.5 88.5t38 82t66 69.5t101.5 47t140 18q174 0 258 -85.5
t84 -227.5zM821 438v99q-70 2 -260 2q-207 0 -308 -67t-101 -204q0 -117 83.5 -185.5t217.5 -68.5q179 0 273.5 108t94.5 316zM500 1497h39l231 -287h-49l-203 252l-199 -252h-45zM678 1679h51l223 -258h-43z" />
    <glyph glyph-name="uni1EA8" unicode="&#x1ea8;" horiz-adv-x="1277" 
d="M956 561h-645l-215 -561h-43l553 1442h43l576 -1442h-45zM326 598h614q-80 200 -151.5 384t-112 289t-49.5 128h-2q-15 -55 -299 -801zM889 1751h-55q68 41 105.5 86.5t37.5 87.5q0 43 -26 65.5t-72 22.5q-68 0 -131 -47l-15 29q71 57 146 57q65 0 102 -35t37 -90
q0 -49 -37.5 -98t-91.5 -78zM602 1776h39l279 -234h-58l-239 199l-238 -199h-55z" />
    <glyph glyph-name="uni1EA9" unicode="&#x1ea9;" horiz-adv-x="1036" 
d="M862 729v-500q0 -161 10 -229h-41q-10 82 -10 227q-81 -252 -370 -252q-89 0 -157 24.5t-107 67t-58.5 92.5t-19.5 107q0 309 454 309q184 0 258 -2v144q0 289 -303 289q-159 0 -232.5 -71t-84.5 -198h-41q3 47 14.5 88.5t38 82t66 69.5t101.5 47t140 18q174 0 258 -85.5
t84 -227.5zM821 438v99q-70 2 -260 2q-207 0 -308 -67t-101 -204q0 -117 83.5 -185.5t217.5 -68.5q179 0 273.5 108t94.5 316zM791 1423h-54q71 41 108.5 86.5t37.5 87.5q0 43 -27.5 66t-73.5 23q-66 0 -131 -48l-14 29q69 55 145 55q65 0 102.5 -34t37.5 -89
q0 -49 -38.5 -98t-92.5 -78zM500 1497h39l231 -287h-49l-203 252l-199 -252h-45z" />
    <glyph glyph-name="uni1EAA" unicode="&#x1eaa;" horiz-adv-x="1277" 
d="M956 561h-645l-215 -561h-43l553 1442h43l576 -1442h-45zM326 598h614q-80 200 -151.5 384t-112 289t-49.5 128h-2q-15 -55 -299 -801zM395 1815h-33v18q0 115 103 115q55 0 176.5 -46.5t165.5 -46.5q63 0 63 76v19h33v-19q0 -114 -96 -114q-52 0 -174.5 47t-169.5 47
q-68 0 -68 -78v-18zM608 1714h43l271 -172h-62l-231 141l-226 -141h-59z" />
    <glyph glyph-name="uni1EAB" unicode="&#x1eab;" horiz-adv-x="1036" 
d="M862 729v-500q0 -161 10 -229h-41q-10 82 -10 227q-81 -252 -370 -252q-89 0 -157 24.5t-107 67t-58.5 92.5t-19.5 107q0 309 454 309q184 0 258 -2v144q0 289 -303 289q-159 0 -232.5 -71t-84.5 -198h-41q3 47 14.5 88.5t38 82t66 69.5t101.5 47t140 18q174 0 258 -85.5
t84 -227.5zM821 438v99q-70 2 -260 2q-207 0 -308 -67t-101 -204q0 -117 83.5 -185.5t217.5 -68.5q179 0 273.5 108t94.5 316zM301 1466h-35v19q0 114 105 114q55 0 156 -47t145 -47q63 0 63 78v19h35v-19q0 -115 -98 -115q-52 0 -154 48.5t-149 48.5q-34 0 -51 -21.5
t-17 -58.5v-19zM494 1382h43l249 -192h-55l-217 162l-211 -162h-53z" />
    <glyph glyph-name="uni1EAC" unicode="&#x1eac;" horiz-adv-x="1277" 
d="M956 561h-645l-215 -561h-43l553 1442h43l576 -1442h-45zM326 598h614q-80 200 -151.5 384t-112 289t-49.5 128h-2q-15 -55 -299 -801zM659 -354h-41v172h41v-172zM600 1817h51l260 -263h-51l-235 234l-230 -234h-49z" />
    <glyph glyph-name="uni1EAD" unicode="&#x1ead;" horiz-adv-x="1036" 
d="M862 729v-500q0 -161 10 -229h-41q-10 82 -10 227q-81 -252 -370 -252q-89 0 -157 24.5t-107 67t-58.5 92.5t-19.5 107q0 309 454 309q184 0 258 -2v144q0 289 -303 289q-159 0 -232.5 -71t-84.5 -198h-41q3 47 14.5 88.5t38 82t66 69.5t101.5 47t140 18q174 0 258 -85.5
t84 -227.5zM821 438v99q-70 2 -260 2q-207 0 -308 -67t-101 -204q0 -117 83.5 -185.5t217.5 -68.5q179 0 273.5 108t94.5 316zM539 -354h-41v172h41v-172zM496 1554h39l231 -307h-47l-205 275l-199 -275h-45z" />
    <glyph glyph-name="uni1EAE" unicode="&#x1eae;" horiz-adv-x="1277" 
d="M956 561h-645l-215 -561h-43l553 1442h43l576 -1442h-45zM326 598h614q-80 200 -151.5 384t-112 289t-49.5 128h-2q-15 -55 -299 -801zM338 1769h37q71 -145 254 -145q97 0 155.5 35.5t100.5 109.5h37q-37 -83 -105 -132.5t-188 -49.5q-117 0 -190.5 51t-100.5 131z
M829 2058h52l-248 -252h-45z" />
    <glyph glyph-name="uni1EAF" unicode="&#x1eaf;" horiz-adv-x="1036" 
d="M862 729v-500q0 -161 10 -229h-41q-10 82 -10 227q-81 -252 -370 -252q-89 0 -157 24.5t-107 67t-58.5 92.5t-19.5 107q0 309 454 309q184 0 258 -2v144q0 289 -303 289q-159 0 -232.5 -71t-84.5 -198h-41q3 47 14.5 88.5t38 82t66 69.5t101.5 47t140 18q174 0 258 -85.5
t84 -227.5zM821 438v99q-70 2 -260 2q-207 0 -308 -67t-101 -204q0 -117 83.5 -185.5t217.5 -68.5q179 0 273.5 108t94.5 316zM258 1405h37q58 -145 227 -145q86 0 140.5 35.5t89.5 109.5h36q-70 -182 -266 -182q-108 0 -175 51t-89 131zM707 1710h49l-230 -252h-45z" />
    <glyph glyph-name="uni1EB0" unicode="&#x1eb0;" horiz-adv-x="1277" 
d="M956 561h-645l-215 -561h-43l553 1442h43l576 -1442h-45zM326 598h614q-80 200 -151.5 384t-112 289t-49.5 128h-2q-15 -55 -299 -801zM336 1769h37q65 -145 254 -145q97 0 155.5 35.5t100.5 109.5h37q-37 -83 -105 -132.5t-188 -49.5q-117 0 -190.5 51t-100.5 131z
M383 2058h49l236 -252h-45z" />
    <glyph glyph-name="uni1EB1" unicode="&#x1eb1;" horiz-adv-x="1036" 
d="M862 729v-500q0 -161 10 -229h-41q-10 82 -10 227q-81 -252 -370 -252q-89 0 -157 24.5t-107 67t-58.5 92.5t-19.5 107q0 309 454 309q184 0 258 -2v144q0 289 -303 289q-159 0 -232.5 -71t-84.5 -198h-41q3 47 14.5 88.5t38 82t66 69.5t101.5 47t140 18q174 0 258 -85.5
t84 -227.5zM821 438v99q-70 2 -260 2q-207 0 -308 -67t-101 -204q0 -117 83.5 -185.5t217.5 -68.5q179 0 273.5 108t94.5 316zM254 1380h37q60 -145 227 -145q89 0 142 35t88 110h36q-70 -182 -266 -182q-108 0 -175 51t-89 131zM293 1686h49l227 -252h-45z" />
    <glyph glyph-name="uni1EB2" unicode="&#x1eb2;" horiz-adv-x="1277" 
d="M956 561h-645l-215 -561h-43l553 1442h43l576 -1442h-45zM326 598h614q-80 200 -151.5 384t-112 289t-49.5 128h-2q-15 -55 -299 -801zM631 1784h-53q63 40 100 86.5t37 87.5q0 43 -27.5 65.5t-73.5 22.5q-68 0 -131 -47l-14 29q69 55 145 55q65 0 102.5 -34t37.5 -89
q0 -49 -36.5 -97t-86.5 -79zM332 1763h37q63 -143 254 -143q98 0 156.5 34t99.5 109h36q-37 -84 -104.5 -133t-187.5 -49q-117 0 -190.5 51t-100.5 131z" />
    <glyph glyph-name="uni1EB3" unicode="&#x1eb3;" horiz-adv-x="1036" 
d="M862 729v-500q0 -161 10 -229h-41q-10 82 -10 227q-81 -252 -370 -252q-89 0 -157 24.5t-107 67t-58.5 92.5t-19.5 107q0 309 454 309q184 0 258 -2v144q0 289 -303 289q-159 0 -232.5 -71t-84.5 -198h-41q3 47 14.5 88.5t38 82t66 69.5t101.5 47t140 18q174 0 258 -85.5
t84 -227.5zM821 438v99q-70 2 -260 2q-207 0 -308 -67t-101 -204q0 -117 83.5 -185.5t217.5 -68.5q179 0 273.5 108t94.5 316zM532 1423h-53q67 41 103 86.5t36 87.5q0 43 -27 66t-73 23q-66 0 -131 -48l-14 29q69 55 145 55q65 0 102 -34t37 -89q0 -48 -37.5 -97t-87.5 -79
zM258 1389h37q60 -146 227 -146q89 0 142 35.5t88 110.5h36q-71 -183 -266 -183q-108 0 -175 51.5t-89 131.5z" />
    <glyph glyph-name="uni1EB4" unicode="&#x1eb4;" horiz-adv-x="1277" 
d="M956 561h-645l-215 -561h-43l553 1442h43l576 -1442h-45zM326 598h614q-80 200 -151.5 384t-112 289t-49.5 128h-2q-15 -55 -299 -801zM381 1841h-33v19q0 114 103 114q55 0 176.5 -46t165.5 -46q63 0 63 76v18h33v-18q0 -115 -96 -115q-52 0 -174.5 47t-169.5 47
q-68 0 -68 -77v-19zM348 1749h37q64 -131 238 -131q92 0 148 31t91 100h37q-70 -170 -276 -170q-109 0 -179 47t-96 123z" />
    <glyph glyph-name="uni1EB5" unicode="&#x1eb5;" horiz-adv-x="1036" 
d="M862 729v-500q0 -161 10 -229h-41q-10 82 -10 227q-81 -252 -370 -252q-89 0 -157 24.5t-107 67t-58.5 92.5t-19.5 107q0 309 454 309q184 0 258 -2v144q0 289 -303 289q-159 0 -232.5 -71t-84.5 -198h-41q3 47 14.5 88.5t38 82t66 69.5t101.5 47t140 18q174 0 258 -85.5
t84 -227.5zM821 438v99q-70 2 -260 2q-207 0 -308 -67t-101 -204q0 -117 83.5 -185.5t217.5 -68.5q179 0 273.5 108t94.5 316zM291 1470h-33v17q0 112 102 112q55 0 166.5 -46t155.5 -46q63 0 63 76v19h33v-19q0 -110 -96 -110q-52 0 -164.5 47t-159.5 47q-67 0 -67 -80v-17
zM258 1354h37q31 -63 84 -98t143 -35t142 31t88 102h36q-34 -82 -95.5 -126t-170.5 -44q-206 0 -264 170z" />
    <glyph glyph-name="uni1EB6" unicode="&#x1eb6;" horiz-adv-x="1277" 
d="M956 561h-645l-215 -561h-43l553 1442h43l576 -1442h-45zM326 598h614q-80 200 -151.5 384t-112 289t-49.5 128h-2q-15 -55 -299 -801zM659 -354h-41v172h41v-172zM352 1815h37q21 -86 80.5 -139.5t161.5 -53.5q191 0 241 193h37q-23 -116 -95.5 -174t-182.5 -58t-183 58
t-96 174z" />
    <glyph glyph-name="uni1EB7" unicode="&#x1eb7;" horiz-adv-x="1036" 
d="M862 729v-500q0 -161 10 -229h-41q-10 82 -10 227q-81 -252 -370 -252q-89 0 -157 24.5t-107 67t-58.5 92.5t-19.5 107q0 309 454 309q184 0 258 -2v144q0 289 -303 289q-159 0 -232.5 -71t-84.5 -198h-41q3 47 14.5 88.5t38 82t66 69.5t101.5 47t140 18q174 0 258 -85.5
t84 -227.5zM821 438v99q-70 2 -260 2q-207 0 -308 -67t-101 -204q0 -117 83.5 -185.5t217.5 -68.5q179 0 273.5 108t94.5 316zM279 1501h32q17 -87 70.5 -132.5t132.5 -45.5q81 0 133.5 45t69.5 133h33q-8 -90 -69 -152.5t-167 -62.5t-166.5 62t-68.5 153zM539 -354h-41v172
h41v-172z" />
    <glyph glyph-name="uni1EB8" unicode="&#x1eb8;" horiz-adv-x="1142" 
d="M1018 782v-37h-785v-708h854l-8 -37h-886v1442h866v-37h-826v-623h785zM649 -354h-41v172h41v-172z" />
    <glyph glyph-name="uni1EB9" unicode="&#x1eb9;" horiz-adv-x="1036" 
d="M940 520h-797q0 -234 105 -369t274 -135q140 0 223.5 64.5t133.5 177.5h41q-106 -278 -396 -278q-91 0 -164 31.5t-120 83t-79 121.5t-45.5 143.5t-13.5 152.5q0 242 118 386t308 144q91 0 164 -30.5t118.5 -79t76 -112t43 -125.5t12.5 -124q0 -28 -2 -51zM145 557h758
q0 126 -40 225.5t-127 161.5t-210 62q-166 0 -269 -124.5t-112 -324.5zM559 -354h-41v172h41v-172z" />
    <glyph glyph-name="uni1EBA" unicode="&#x1eba;" horiz-adv-x="1142" 
d="M1018 782v-37h-785v-708h854l-8 -37h-886v1442h866v-37h-826v-623h785zM641 1614h-53q149 99 149 198q0 49 -32.5 82t-88.5 33q-82 0 -145 -51l-16 31q66 59 163 59q76 0 118 -44.5t42 -109.5q0 -53 -40 -108.5t-97 -89.5z" />
    <glyph glyph-name="uni1EBB" unicode="&#x1ebb;" horiz-adv-x="1036" 
d="M940 520h-797q0 -234 105 -369t274 -135q140 0 223.5 64.5t133.5 177.5h41q-106 -278 -396 -278q-91 0 -164 31.5t-120 83t-79 121.5t-45.5 143.5t-13.5 152.5q0 242 118 386t308 144q91 0 164 -30.5t118.5 -79t76 -112t43 -125.5t12.5 -124q0 -28 -2 -51zM145 557h758
q0 126 -40 225.5t-127 161.5t-210 62q-166 0 -269 -124.5t-112 -324.5zM545 1196h-53q149 99 149 199q0 49 -32 81.5t-89 32.5q-82 0 -145 -51l-17 31q66 59 164 59q76 0 118 -44t42 -109q0 -53 -40 -109t-97 -90z" />
    <glyph glyph-name="uni1EBC" unicode="&#x1ebc;" horiz-adv-x="1142" 
d="M1018 782v-37h-785v-708h854l-8 -37h-886v1442h866v-37h-826v-623h785zM381 1638h-37v23q0 143 129 143q38 0 83 -19.5t80 -43t76.5 -43t73.5 -19.5q42 0 67.5 24.5t25.5 92.5v19h36v-23q0 -154 -124 -154q-37 0 -83 20t-82.5 43.5t-79 43.5t-73.5 20q-92 0 -92 -108v-19
z" />
    <glyph glyph-name="uni1EBD" unicode="&#x1ebd;" horiz-adv-x="1036" 
d="M940 520h-797q0 -234 105 -369t274 -135q140 0 223.5 64.5t133.5 177.5h41q-106 -278 -396 -278q-91 0 -164 31.5t-120 83t-79 121.5t-45.5 143.5t-13.5 152.5q0 242 118 386t308 144q91 0 164 -30.5t118.5 -79t76 -112t43 -125.5t12.5 -124q0 -28 -2 -51zM145 557h758
q0 126 -40 225.5t-127 161.5t-210 62q-166 0 -269 -124.5t-112 -324.5zM295 1327h-35v21q0 72 33 105.5t88 33.5q41 0 87 -19t80 -42.5t75 -42.5t73 -19q41 0 59.5 24.5t18.5 75.5v25h35v-25q0 -66 -29.5 -100.5t-83.5 -34.5q-35 0 -80 19.5t-81 43t-79.5 43t-76.5 19.5
q-84 0 -84 -106v-21z" />
    <glyph glyph-name="uni1EBE" unicode="&#x1ebe;" horiz-adv-x="1142" 
d="M1018 782v-37h-785v-708h854l-8 -37h-886v1442h866v-37h-826v-623h785zM600 1835h39l279 -233h-58l-239 200l-238 -200h-55zM1106 2044h57l-291 -238h-51z" />
    <glyph glyph-name="uni1EBF" unicode="&#x1ebf;" horiz-adv-x="1036" 
d="M940 520h-797q0 -234 105 -369t274 -135q140 0 223.5 64.5t133.5 177.5h41q-106 -278 -396 -278q-91 0 -164 31.5t-120 83t-79 121.5t-45.5 143.5t-13.5 152.5q0 242 118 386t308 144q91 0 164 -30.5t118.5 -79t76 -112t43 -125.5t12.5 -124q0 -28 -2 -51zM145 557h758
q0 126 -40 225.5t-127 161.5t-210 62q-166 0 -269 -124.5t-112 -324.5zM500 1497h39l231 -287h-49l-201 252l-201 -252h-45zM946 1710h53l-243 -258h-43z" />
    <glyph glyph-name="uni1EC0" unicode="&#x1ec0;" horiz-adv-x="1142" 
d="M1018 782v-37h-785v-708h854l-8 -37h-886v1442h866v-37h-826v-623h785zM602 1835h39l279 -233h-58l-239 200l-238 -200h-55zM784 1997h60l248 -215h-54z" />
    <glyph glyph-name="uni1EC1" unicode="&#x1ec1;" horiz-adv-x="1036" 
d="M940 520h-797q0 -234 105 -369t274 -135q140 0 223.5 64.5t133.5 177.5h41q-106 -278 -396 -278q-91 0 -164 31.5t-120 83t-79 121.5t-45.5 143.5t-13.5 152.5q0 242 118 386t308 144q91 0 164 -30.5t118.5 -79t76 -112t43 -125.5t12.5 -124q0 -28 -2 -51zM145 557h758
q0 126 -40 225.5t-127 161.5t-210 62q-166 0 -269 -124.5t-112 -324.5zM500 1497h39l231 -287h-49l-203 252l-199 -252h-45zM678 1679h51l223 -258h-43z" />
    <glyph glyph-name="uni1EC2" unicode="&#x1ec2;" horiz-adv-x="1142" 
d="M1018 782v-37h-785v-708h854l-8 -37h-886v1442h866v-37h-826v-623h785zM881 1810h-56q68 41 106 87t38 88q0 43 -26.5 65.5t-72.5 22.5q-66 0 -131 -48l-14 29q71 57 145 57q65 0 102.5 -34.5t37.5 -89.5q0 -49 -37.5 -98.5t-91.5 -78.5zM594 1835h39l278 -233h-57
l-240 198l-237 -198h-55z" />
    <glyph glyph-name="uni1EC3" unicode="&#x1ec3;" horiz-adv-x="1036" 
d="M940 520h-797q0 -234 105 -369t274 -135q140 0 223.5 64.5t133.5 177.5h41q-106 -278 -396 -278q-91 0 -164 31.5t-120 83t-79 121.5t-45.5 143.5t-13.5 152.5q0 242 118 386t308 144q91 0 164 -30.5t118.5 -79t76 -112t43 -125.5t12.5 -124q0 -28 -2 -51zM145 557h758
q0 126 -40 225.5t-127 161.5t-210 62q-166 0 -269 -124.5t-112 -324.5zM791 1423h-54q71 41 108.5 86.5t37.5 87.5q0 43 -27.5 66t-73.5 23q-66 0 -131 -48l-14 29q69 55 145 55q65 0 102.5 -34t37.5 -89q0 -49 -38.5 -98t-92.5 -78zM500 1497h39l231 -287h-49l-203 252
l-199 -252h-45z" />
    <glyph glyph-name="uni1EC4" unicode="&#x1ec4;" horiz-adv-x="1142" 
d="M1018 782v-37h-785v-708h854l-8 -37h-886v1442h866v-37h-826v-623h785zM395 1868h-33v18q0 115 103 115q55 0 176.5 -46t165.5 -46q63 0 63 76v18h33v-18q0 -115 -96 -115q-52 0 -174.5 47t-169.5 47q-68 0 -68 -78v-18zM608 1767h43l271 -172h-62l-231 142l-226 -142
h-59z" />
    <glyph glyph-name="uni1EC5" unicode="&#x1ec5;" horiz-adv-x="1036" 
d="M940 520h-797q0 -234 105 -369t274 -135q140 0 223.5 64.5t133.5 177.5h41q-106 -278 -396 -278q-91 0 -164 31.5t-120 83t-79 121.5t-45.5 143.5t-13.5 152.5q0 242 118 386t308 144q91 0 164 -30.5t118.5 -79t76 -112t43 -125.5t12.5 -124q0 -28 -2 -51zM145 557h758
q0 126 -40 225.5t-127 161.5t-210 62q-166 0 -269 -124.5t-112 -324.5zM322 1479h-35v18q0 115 104 115q55 0 156 -47t145 -47q64 0 64 77v19h35v-19q0 -114 -99 -114q-52 0 -154 48t-149 48q-67 0 -67 -80v-18zM514 1395h43l250 -193h-55l-217 162l-211 -162h-54z" />
    <glyph glyph-name="uni1EC6" unicode="&#x1ec6;" horiz-adv-x="1142" 
d="M1018 782v-37h-785v-708h854l-8 -37h-886v1442h866v-37h-826v-623h785zM674 -354h-41v172h41v-172zM600 1858h51l260 -263h-51l-235 234l-230 -234h-49z" />
    <glyph glyph-name="uni1EC7" unicode="&#x1ec7;" horiz-adv-x="1036" 
d="M940 520h-797q0 -234 105 -369t274 -135q140 0 223.5 64.5t133.5 177.5h41q-106 -278 -396 -278q-91 0 -164 31.5t-120 83t-79 121.5t-45.5 143.5t-13.5 152.5q0 242 118 386t308 144q91 0 164 -30.5t118.5 -79t76 -112t43 -125.5t12.5 -124q0 -28 -2 -51zM145 557h758
q0 126 -40 225.5t-127 161.5t-210 62q-166 0 -269 -124.5t-112 -324.5zM559 -354h-41v172h41v-172zM516 1554h39l231 -307h-47l-204 275l-199 -275h-45z" />
    <glyph glyph-name="uni1EC8" unicode="&#x1ec8;" horiz-adv-x="425" 
d="M193 1442h40v-1442h-40v1442zM229 1614h-53q150 99 150 198q0 49 -32.5 82t-88.5 33q-83 0 -146 -51l-16 31q66 59 164 59q76 0 118 -44.5t42 -109.5q0 -53 -40.5 -108.5t-97.5 -89.5z" />
    <glyph glyph-name="uni1EC9" unicode="&#x1ec9;" horiz-adv-x="389" 
d="M174 0v1018h41v-1018h-41zM201 1196h-54q150 99 150 199q0 49 -32 81.5t-89 32.5q-82 0 -145 -51l-17 31q66 59 164 59q76 0 118 -44t42 -109q0 -53 -40 -109t-97 -90z" />
    <glyph glyph-name="uni1ECA" unicode="&#x1eca;" horiz-adv-x="425" 
d="M193 1442h40v-1442h-40v1442zM233 -354h-40v172h40v-172z" />
    <glyph glyph-name="uni1ECB" unicode="&#x1ecb;" horiz-adv-x="389" 
d="M174 0v1018h41v-1018h-41zM215 1352h-41v186h41v-186zM215 -354h-41v172h41v-172z" />
    <glyph glyph-name="uni1ECC" unicode="&#x1ecc;" horiz-adv-x="1478" 
d="M745 1462q143 0 263 -57.5t200 -156t124 -231.5t44 -284q0 -156 -40.5 -291t-118.5 -239t-202.5 -163.5t-281.5 -59.5q-146 0 -266 57.5t-199 157.5t-122.5 235.5t-43.5 290.5q0 120 26.5 229.5t80 203t129 162t180.5 107.5t227 39zM743 1425q-138 0 -252 -54.5
t-189 -149.5t-116 -222.5t-41 -273.5q0 -141 37.5 -267t108.5 -225.5t185 -158t257 -58.5q146 0 261.5 55.5t188.5 153.5t111.5 226.5t38.5 279.5q0 142 -40.5 267.5t-114 220.5t-186.5 150.5t-249 55.5zM760 -354h-41v172h41v-172z" />
    <glyph glyph-name="uni1ECD" unicode="&#x1ecd;" horiz-adv-x="1095" 
d="M553 1047q193 0 316.5 -144t123.5 -393q0 -253 -122.5 -396t-327.5 -143q-201 0 -321 145t-120 390q0 255 127 398t324 143zM549 1010q-96 0 -174 -40.5t-127.5 -110t-76 -159.5t-26.5 -192t26 -192t74.5 -159t125.5 -109t172 -40q192 0 299.5 139.5t107.5 360.5
q0 139 -45 251.5t-137.5 181.5t-218.5 69zM567 -354h-41v172h41v-172z" />
    <glyph glyph-name="uni1ECE" unicode="&#x1ece;" horiz-adv-x="1478" 
d="M745 1462q143 0 263 -57.5t200 -156t124 -231.5t44 -284q0 -156 -40.5 -291t-118.5 -239t-202.5 -163.5t-281.5 -59.5q-146 0 -266 57.5t-199 157.5t-122.5 235.5t-43.5 290.5q0 120 26.5 229.5t80 203t129 162t180.5 107.5t227 39zM743 1425q-138 0 -252 -54.5
t-189 -149.5t-116 -222.5t-41 -273.5q0 -141 37.5 -267t108.5 -225.5t185 -158t257 -58.5q146 0 261.5 55.5t188.5 153.5t111.5 226.5t38.5 279.5q0 142 -40.5 267.5t-114 220.5t-186.5 150.5t-249 55.5zM772 1614h-53q149 99 149 198q0 49 -32 82t-88 33q-83 0 -146 -51
l-16 31q66 59 164 59q76 0 117.5 -44.5t41.5 -109.5q0 -53 -40 -108.5t-97 -89.5z" />
    <glyph glyph-name="uni1ECF" unicode="&#x1ecf;" horiz-adv-x="1095" 
d="M553 1047q193 0 316.5 -144t123.5 -393q0 -253 -122.5 -396t-327.5 -143q-201 0 -321 145t-120 390q0 255 127 398t324 143zM549 1010q-96 0 -174 -40.5t-127.5 -110t-76 -159.5t-26.5 -192t26 -192t74.5 -159t125.5 -109t172 -40q192 0 299.5 139.5t107.5 360.5
q0 139 -45 251.5t-137.5 181.5t-218.5 69zM569 1196h-53q150 99 150 199q0 49 -32 81.5t-89 32.5q-83 0 -146 -51l-16 31q66 59 164 59q76 0 118 -44t42 -109q0 -53 -40.5 -109t-97.5 -90z" />
    <glyph glyph-name="uni1ED0" unicode="&#x1ed0;" horiz-adv-x="1478" 
d="M745 1462q143 0 263 -57.5t200 -156t124 -231.5t44 -284q0 -156 -40.5 -291t-118.5 -239t-202.5 -163.5t-281.5 -59.5q-146 0 -266 57.5t-199 157.5t-122.5 235.5t-43.5 290.5q0 120 26.5 229.5t80 203t129 162t180.5 107.5t227 39zM743 1425q-138 0 -252 -54.5
t-189 -149.5t-116 -222.5t-41 -273.5q0 -141 37.5 -267t108.5 -225.5t185 -158t257 -58.5q146 0 261.5 55.5t188.5 153.5t111.5 226.5t38.5 279.5q0 142 -40.5 267.5t-114 220.5t-186.5 150.5t-249 55.5zM721 1829h39l278 -234h-57l-240 201l-237 -201h-55zM1227 2038h57
l-291 -238h-51z" />
    <glyph glyph-name="uni1ED1" unicode="&#x1ed1;" horiz-adv-x="1095" 
d="M553 1047q193 0 316.5 -144t123.5 -393q0 -253 -122.5 -396t-327.5 -143q-201 0 -321 145t-120 390q0 255 127 398t324 143zM549 1010q-96 0 -174 -40.5t-127.5 -110t-76 -159.5t-26.5 -192t26 -192t74.5 -159t125.5 -109t172 -40q192 0 299.5 139.5t107.5 360.5
q0 139 -45 251.5t-137.5 181.5t-218.5 69zM528 1526h39l232 -287h-49l-201 252l-201 -252h-45zM975 1739h53l-244 -258h-43z" />
    <glyph glyph-name="uni1ED2" unicode="&#x1ed2;" horiz-adv-x="1478" 
d="M745 1462q143 0 263 -57.5t200 -156t124 -231.5t44 -284q0 -156 -40.5 -291t-118.5 -239t-202.5 -163.5t-281.5 -59.5q-146 0 -266 57.5t-199 157.5t-122.5 235.5t-43.5 290.5q0 120 26.5 229.5t80 203t129 162t180.5 107.5t227 39zM743 1425q-138 0 -252 -54.5
t-189 -149.5t-116 -222.5t-41 -273.5q0 -141 37.5 -267t108.5 -225.5t185 -158t257 -58.5q146 0 261.5 55.5t188.5 153.5t111.5 226.5t38.5 279.5q0 142 -40.5 267.5t-114 220.5t-186.5 150.5t-249 55.5zM721 1831h39l278 -234h-57l-240 201l-237 -201h-55zM903 1993h60
l247 -215h-53z" />
    <glyph glyph-name="uni1ED3" unicode="&#x1ed3;" horiz-adv-x="1095" 
d="M553 1047q193 0 316.5 -144t123.5 -393q0 -253 -122.5 -396t-327.5 -143q-201 0 -321 145t-120 390q0 255 127 398t324 143zM549 1010q-96 0 -174 -40.5t-127.5 -110t-76 -159.5t-26.5 -192t26 -192t74.5 -159t125.5 -109t172 -40q192 0 299.5 139.5t107.5 360.5
q0 139 -45 251.5t-137.5 181.5t-218.5 69zM528 1524h39l232 -287h-49l-203 252l-199 -252h-45zM707 1706h51l223 -258h-43z" />
    <glyph glyph-name="uni1ED4" unicode="&#x1ed4;" horiz-adv-x="1478" 
d="M745 1462q143 0 263 -57.5t200 -156t124 -231.5t44 -284q0 -156 -40.5 -291t-118.5 -239t-202.5 -163.5t-281.5 -59.5q-146 0 -266 57.5t-199 157.5t-122.5 235.5t-43.5 290.5q0 120 26.5 229.5t80 203t129 162t180.5 107.5t227 39zM743 1425q-138 0 -252 -54.5
t-189 -149.5t-116 -222.5t-41 -273.5q0 -141 37.5 -267t108.5 -225.5t185 -158t257 -58.5q146 0 261.5 55.5t188.5 153.5t111.5 226.5t38.5 279.5q0 142 -40.5 267.5t-114 220.5t-186.5 150.5t-249 55.5zM1008 1790h-56q69 41 106.5 87t37.5 87q0 43 -26.5 65.5t-72.5 22.5
q-68 0 -131 -47l-14 29q71 57 145 57q65 0 102.5 -35t37.5 -90q0 -49 -37.5 -98t-91.5 -78zM721 1815h39l278 -234h-57l-240 199l-237 -199h-55z" />
    <glyph glyph-name="uni1ED5" unicode="&#x1ed5;" horiz-adv-x="1095" 
d="M553 1047q193 0 316.5 -144t123.5 -393q0 -253 -122.5 -396t-327.5 -143q-201 0 -321 145t-120 390q0 255 127 398t324 143zM549 1010q-96 0 -174 -40.5t-127.5 -110t-76 -159.5t-26.5 -192t26 -192t74.5 -159t125.5 -109t172 -40q192 0 299.5 139.5t107.5 360.5
q0 139 -45 251.5t-137.5 181.5t-218.5 69zM819 1448h-53q71 40 108 86t37 88q0 43 -27 65.5t-73 22.5q-68 0 -131 -47l-14 29q69 55 145 55q65 0 102 -34t37 -89q0 -49 -38.5 -98t-92.5 -78zM528 1522h39l232 -287h-49l-203 252l-199 -252h-45z" />
    <glyph glyph-name="uni1ED6" unicode="&#x1ed6;" horiz-adv-x="1478" 
d="M745 1462q143 0 263 -57.5t200 -156t124 -231.5t44 -284q0 -156 -40.5 -291t-118.5 -239t-202.5 -163.5t-281.5 -59.5q-146 0 -266 57.5t-199 157.5t-122.5 235.5t-43.5 290.5q0 120 26.5 229.5t80 203t129 162t180.5 107.5t227 39zM743 1425q-138 0 -252 -54.5
t-189 -149.5t-116 -222.5t-41 -273.5q0 -141 37.5 -267t108.5 -225.5t185 -158t257 -58.5q146 0 261.5 55.5t188.5 153.5t111.5 226.5t38.5 279.5q0 142 -40.5 267.5t-114 220.5t-186.5 150.5t-249 55.5zM502 1847h-33v19q0 114 102 114q55 0 176.5 -46t165.5 -46
q64 0 64 76v18h33v-18q0 -115 -97 -115q-52 0 -174.5 47.5t-169.5 47.5q-67 0 -67 -78v-19zM715 1747h43l270 -172h-61l-232 141l-225 -141h-59z" />
    <glyph glyph-name="uni1ED7" unicode="&#x1ed7;" horiz-adv-x="1095" 
d="M553 1047q193 0 316.5 -144t123.5 -393q0 -253 -122.5 -396t-327.5 -143q-201 0 -321 145t-120 390q0 255 127 398t324 143zM549 1010q-96 0 -174 -40.5t-127.5 -110t-76 -159.5t-26.5 -192t26 -192t74.5 -159t125.5 -109t172 -40q192 0 299.5 139.5t107.5 360.5
q0 139 -45 251.5t-137.5 181.5t-218.5 69zM330 1487h-35v18q0 115 104 115q55 0 156 -47t145 -47q64 0 64 78v18h35v-18q0 -115 -99 -115q-52 0 -154 48t-149 48q-67 0 -67 -80v-18zM522 1403h43l250 -193h-55l-217 162l-211 -162h-53z" />
    <glyph glyph-name="uni1ED8" unicode="&#x1ed8;" horiz-adv-x="1478" 
d="M745 1462q143 0 263 -57.5t200 -156t124 -231.5t44 -284q0 -156 -40.5 -291t-118.5 -239t-202.5 -163.5t-281.5 -59.5q-146 0 -266 57.5t-199 157.5t-122.5 235.5t-43.5 290.5q0 120 26.5 229.5t80 203t129 162t180.5 107.5t227 39zM743 1425q-138 0 -252 -54.5
t-189 -149.5t-116 -222.5t-41 -273.5q0 -141 37.5 -267t108.5 -225.5t185 -158t257 -58.5q146 0 261.5 55.5t188.5 153.5t111.5 226.5t38.5 279.5q0 142 -40.5 267.5t-114 220.5t-186.5 150.5t-249 55.5zM760 -354h-41v172h41v-172zM707 1858h51l260 -263h-51l-236 234
l-229 -234h-49z" />
    <glyph glyph-name="uni1ED9" unicode="&#x1ed9;" horiz-adv-x="1095" 
d="M553 1047q193 0 316.5 -144t123.5 -393q0 -253 -122.5 -396t-327.5 -143q-201 0 -321 145t-120 390q0 255 127 398t324 143zM549 1010q-96 0 -174 -40.5t-127.5 -110t-76 -159.5t-26.5 -192t26 -192t74.5 -159t125.5 -109t172 -40q192 0 299.5 139.5t107.5 360.5
q0 139 -45 251.5t-137.5 181.5t-218.5 69zM567 -354h-41v172h41v-172zM524 1554h39l232 -307h-47l-205 275l-199 -275h-45z" />
    <glyph glyph-name="uni1EDA" unicode="&#x1eda;" horiz-adv-x="1478" 
d="M745 1462q143 0 263 -57.5t200 -156t124 -231.5t44 -284q0 -156 -40.5 -291t-118.5 -239t-202.5 -163.5t-281.5 -59.5q-146 0 -266 57.5t-199 157.5t-122.5 235.5t-43.5 290.5q0 120 26.5 229.5t80 203t129 162t180.5 107.5t227 39zM743 1425q-138 0 -252 -54.5
t-189 -149.5t-116 -222.5t-41 -273.5q0 -141 37.5 -267t108.5 -225.5t185 -158t257 -58.5q146 0 261.5 55.5t188.5 153.5t111.5 226.5t38.5 279.5q0 142 -40.5 267.5t-114 220.5t-186.5 150.5t-249 55.5zM1190 1272l-33 33q180 15 180 159q0 59 -22 111h45q18 -45 18 -100
q0 -173 -188 -203zM1012 1903h59l-350 -308h-51z" />
    <glyph glyph-name="uni1EDB" unicode="&#x1edb;" horiz-adv-x="1095" 
d="M553 1047q179 0 299 -123q141 25 141 153q0 59 -22 111h45q18 -45 18 -101q0 -155 -155 -196q114 -142 114 -381q0 -253 -122.5 -396t-327.5 -143q-201 0 -321 145t-120 390q0 255 127 398t324 143zM549 1010q-96 0 -174 -40.5t-127.5 -110t-76 -159.5t-26.5 -192
t26 -192t74.5 -159t125.5 -109t172 -40q192 0 299.5 139.5t107.5 360.5q0 139 -45 251.5t-137.5 181.5t-218.5 69zM768 1556h51l-315 -325h-47z" />
    <glyph glyph-name="uni1EDC" unicode="&#x1edc;" horiz-adv-x="1478" 
d="M745 1462q143 0 263 -57.5t200 -156t124 -231.5t44 -284q0 -156 -40.5 -291t-118.5 -239t-202.5 -163.5t-281.5 -59.5q-146 0 -266 57.5t-199 157.5t-122.5 235.5t-43.5 290.5q0 120 26.5 229.5t80 203t129 162t180.5 107.5t227 39zM743 1425q-138 0 -252 -54.5
t-189 -149.5t-116 -222.5t-41 -273.5q0 -141 37.5 -267t108.5 -225.5t185 -158t257 -58.5q146 0 261.5 55.5t188.5 153.5t111.5 226.5t38.5 279.5q0 142 -40.5 267.5t-114 220.5t-186.5 150.5t-249 55.5zM1190 1272l-33 33q180 15 180 159q0 59 -22 111h45q18 -45 18 -100
q0 -173 -188 -203zM410 1903h59l338 -308h-51z" />
    <glyph glyph-name="uni1EDD" unicode="&#x1edd;" horiz-adv-x="1095" 
d="M553 1047q179 0 299 -123q141 25 141 153q0 59 -22 111h45q18 -45 18 -101q0 -155 -155 -196q114 -142 114 -381q0 -253 -122.5 -396t-327.5 -143q-201 0 -321 145t-120 390q0 255 127 398t324 143zM549 1010q-96 0 -174 -40.5t-127.5 -110t-76 -159.5t-26.5 -192
t26 -192t74.5 -159t125.5 -109t172 -40q192 0 299.5 139.5t107.5 360.5q0 139 -45 251.5t-137.5 181.5t-218.5 69zM256 1556h51l299 -325h-47z" />
    <glyph glyph-name="uni1EDE" unicode="&#x1ede;" horiz-adv-x="1478" 
d="M745 1462q143 0 263 -57.5t200 -156t124 -231.5t44 -284q0 -156 -40.5 -291t-118.5 -239t-202.5 -163.5t-281.5 -59.5q-146 0 -266 57.5t-199 157.5t-122.5 235.5t-43.5 290.5q0 120 26.5 229.5t80 203t129 162t180.5 107.5t227 39zM743 1425q-138 0 -252 -54.5
t-189 -149.5t-116 -222.5t-41 -273.5q0 -141 37.5 -267t108.5 -225.5t185 -158t257 -58.5q146 0 261.5 55.5t188.5 153.5t111.5 226.5t38.5 279.5q0 142 -40.5 267.5t-114 220.5t-186.5 150.5t-249 55.5zM1190 1272l-33 33q180 15 180 159q0 59 -22 111h45q18 -45 18 -100
q0 -173 -188 -203zM784 1614h-53q150 99 150 198q0 49 -32.5 82t-88.5 33q-83 0 -146 -51l-16 31q66 59 164 59q76 0 118 -44.5t42 -109.5q0 -53 -40.5 -108.5t-97.5 -89.5z" />
    <glyph glyph-name="uni1EDF" unicode="&#x1edf;" horiz-adv-x="1095" 
d="M553 1047q179 0 299 -123q141 25 141 153q0 59 -22 111h45q18 -45 18 -101q0 -155 -155 -196q114 -142 114 -381q0 -253 -122.5 -396t-327.5 -143q-201 0 -321 145t-120 390q0 255 127 398t324 143zM549 1010q-96 0 -174 -40.5t-127.5 -110t-76 -159.5t-26.5 -192
t26 -192t74.5 -159t125.5 -109t172 -40q192 0 299.5 139.5t107.5 360.5q0 139 -45 251.5t-137.5 181.5t-218.5 69zM573 1196h-53q150 99 150 199q0 49 -32 81.5t-89 32.5q-83 0 -146 -51l-16 31q66 59 164 59q76 0 118 -44t42 -109q0 -53 -40.5 -109t-97.5 -90z" />
    <glyph glyph-name="uni1EE0" unicode="&#x1ee0;" horiz-adv-x="1478" 
d="M745 1462q143 0 263 -57.5t200 -156t124 -231.5t44 -284q0 -156 -40.5 -291t-118.5 -239t-202.5 -163.5t-281.5 -59.5q-146 0 -266 57.5t-199 157.5t-122.5 235.5t-43.5 290.5q0 120 26.5 229.5t80 203t129 162t180.5 107.5t227 39zM743 1425q-138 0 -252 -54.5
t-189 -149.5t-116 -222.5t-41 -273.5q0 -141 37.5 -267t108.5 -225.5t185 -158t257 -58.5q146 0 261.5 55.5t188.5 153.5t111.5 226.5t38.5 279.5q0 142 -40.5 267.5t-114 220.5t-186.5 150.5t-249 55.5zM1190 1272l-33 33q180 15 180 159q0 59 -22 111h45q18 -45 18 -100
q0 -173 -188 -203zM487 1638h-36v23q0 143 129 143q38 0 83 -19.5t80 -43t76.5 -43t73.5 -19.5q42 0 67 24.5t25 92.5v19h37v-23q0 -154 -125 -154q-47 0 -106.5 32t-115.5 63.5t-95 31.5q-93 0 -93 -108v-19z" />
    <glyph glyph-name="uni1EE1" unicode="&#x1ee1;" horiz-adv-x="1095" 
d="M553 1047q179 0 299 -123q141 25 141 153q0 59 -22 111h45q18 -45 18 -101q0 -155 -155 -196q114 -142 114 -381q0 -253 -122.5 -396t-327.5 -143q-201 0 -321 145t-120 390q0 255 127 398t324 143zM549 1010q-96 0 -174 -40.5t-127.5 -110t-76 -159.5t-26.5 -192
t26 -192t74.5 -159t125.5 -109t172 -40q192 0 299.5 139.5t107.5 360.5q0 139 -45 251.5t-137.5 181.5t-218.5 69zM303 1327h-35v21q0 72 33 105.5t88 33.5q41 0 87 -19t80.5 -42.5t75.5 -42.5t73 -19q41 0 59 24t18 76v25h35v-25q0 -66 -29 -100.5t-83 -34.5
q-44 0 -103 31.5t-116 62.5t-99 31q-84 0 -84 -106v-21z" />
    <glyph glyph-name="uni1EE2" unicode="&#x1ee2;" horiz-adv-x="1478" 
d="M745 1462q143 0 263 -57.5t200 -156t124 -231.5t44 -284q0 -156 -40.5 -291t-118.5 -239t-202.5 -163.5t-281.5 -59.5q-146 0 -266 57.5t-199 157.5t-122.5 235.5t-43.5 290.5q0 120 26.5 229.5t80 203t129 162t180.5 107.5t227 39zM743 1425q-138 0 -252 -54.5
t-189 -149.5t-116 -222.5t-41 -273.5q0 -141 37.5 -267t108.5 -225.5t185 -158t257 -58.5q146 0 261.5 55.5t188.5 153.5t111.5 226.5t38.5 279.5q0 142 -40.5 267.5t-114 220.5t-186.5 150.5t-249 55.5zM1190 1272l-33 33q180 15 180 159q0 59 -22 111h45q18 -45 18 -100
q0 -173 -188 -203zM760 -354h-41v172h41v-172z" />
    <glyph glyph-name="uni1EE3" unicode="&#x1ee3;" horiz-adv-x="1095" 
d="M553 1047q179 0 299 -123q141 25 141 153q0 59 -22 111h45q18 -45 18 -101q0 -155 -155 -196q114 -142 114 -381q0 -253 -122.5 -396t-327.5 -143q-201 0 -321 145t-120 390q0 255 127 398t324 143zM549 1010q-96 0 -174 -40.5t-127.5 -110t-76 -159.5t-26.5 -192
t26 -192t74.5 -159t125.5 -109t172 -40q192 0 299.5 139.5t107.5 360.5q0 139 -45 251.5t-137.5 181.5t-218.5 69zM567 -354h-41v172h41v-172z" />
    <glyph glyph-name="uni1EE4" unicode="&#x1ee4;" horiz-adv-x="1376" 
d="M172 1442h41v-901q0 -114 26.5 -204.5t70.5 -149.5t106.5 -98.5t130.5 -56t145 -16.5q232 0 351.5 133.5t119.5 391.5v901h41v-893q0 -127 -25.5 -225t-70.5 -162.5t-110.5 -105.5t-141.5 -58.5t-168 -17.5q-81 0 -152.5 16t-139.5 56t-116.5 100t-78 155t-29.5 215v920z
M709 -354h-41v172h41v-172z" />
    <glyph glyph-name="uni1EE5" unicode="&#x1ee5;" horiz-adv-x="1107" 
d="M934 1018v-739q0 -57 1 -160t1 -119h-41q-2 13 -3.5 98.5t-0.5 153.5q-38 -124 -129 -198t-236 -74q-48 0 -92 9t-93 34.5t-84.5 66.5t-59 111t-23.5 161v656h41v-672q0 -65 18 -122.5t54 -104.5t98 -74t143 -27q165 0 264 112.5t99 328.5v559h43zM573 -354h-41v172h41
v-172z" />
    <glyph glyph-name="uni1EE6" unicode="&#x1ee6;" horiz-adv-x="1376" 
d="M172 1442h41v-901q0 -114 26.5 -204.5t70.5 -149.5t106.5 -98.5t130.5 -56t145 -16.5q232 0 351.5 133.5t119.5 391.5v901h41v-893q0 -127 -25.5 -225t-70.5 -162.5t-110.5 -105.5t-141.5 -58.5t-168 -17.5q-81 0 -152.5 16t-139.5 56t-116.5 100t-78 155t-29.5 215v920z
M731 1583h-53q149 99 149 199q0 49 -32 81.5t-88 32.5q-83 0 -146 -51l-16 31q66 59 164 59q76 0 117.5 -44t41.5 -109q0 -53 -40 -109t-97 -90z" />
    <glyph glyph-name="uni1EE7" unicode="&#x1ee7;" horiz-adv-x="1107" 
d="M934 1018v-739q0 -57 1 -160t1 -119h-41q-2 13 -3.5 98.5t-0.5 153.5q-38 -124 -129 -198t-236 -74q-48 0 -92 9t-93 34.5t-84.5 66.5t-59 111t-23.5 161v656h41v-672q0 -65 18 -122.5t54 -104.5t98 -74t143 -27q165 0 264 112.5t99 328.5v559h43zM569 1196h-53
q150 99 150 199q0 49 -32 81.5t-89 32.5q-83 0 -146 -51l-16 31q66 59 164 59q76 0 118 -44t42 -109q0 -53 -40.5 -109t-97.5 -90z" />
    <glyph glyph-name="uni1EE8" unicode="&#x1ee8;" horiz-adv-x="1376" 
d="M172 1442h41v-901q0 -114 26.5 -204.5t70.5 -149.5t106.5 -98.5t130.5 -56t145 -16.5q232 0 351.5 133.5t119.5 391.5v901h4q181 15 181 160q0 56 -23 110h45q19 -47 19 -100q0 -172 -185 -203v-860q0 -127 -25.5 -225t-70.5 -162.5t-110.5 -105.5t-141.5 -58.5
t-168 -17.5q-81 0 -152.5 16t-139.5 56t-116.5 100t-78 155t-29.5 215v920zM961 1903h59l-350 -308h-52z" />
    <glyph glyph-name="uni1EE9" unicode="&#x1ee9;" horiz-adv-x="1107" 
d="M891 252q-38 -124 -129 -198t-236 -74q-48 0 -92 9t-93 34.5t-84.5 66.5t-59 111t-23.5 161v656h41v-672q0 -65 18 -122.5t54 -104.5t98 -74t143 -27q165 0 264 112.5t99 328.5v559h22q162 20 162 158q0 58 -22 110h45q18 -45 18 -100q0 -174 -182 -201v-706
q0 -57 1 -160t1 -119h-41q-2 13 -3.5 98.5t-0.5 153.5zM811 1556h51l-315 -325h-47z" />
    <glyph glyph-name="uni1EEA" unicode="&#x1eea;" horiz-adv-x="1376" 
d="M172 1442h41v-901q0 -114 26.5 -204.5t70.5 -149.5t106.5 -98.5t130.5 -56t145 -16.5q232 0 351.5 133.5t119.5 391.5v901h4q181 15 181 160q0 56 -23 110h45q19 -47 19 -100q0 -172 -185 -203v-860q0 -127 -25.5 -225t-70.5 -162.5t-110.5 -105.5t-141.5 -58.5
t-168 -17.5q-81 0 -152.5 16t-139.5 56t-116.5 100t-78 155t-29.5 215v920zM358 1903h60l338 -308h-51z" />
    <glyph glyph-name="uni1EEB" unicode="&#x1eeb;" horiz-adv-x="1107" 
d="M891 252q-38 -124 -129 -198t-236 -74q-48 0 -92 9t-93 34.5t-84.5 66.5t-59 111t-23.5 161v656h41v-672q0 -65 18 -122.5t54 -104.5t98 -74t143 -27q165 0 264 112.5t99 328.5v559h22q162 20 162 158q0 58 -22 110h45q18 -45 18 -100q0 -174 -182 -201v-706
q0 -57 1 -160t1 -119h-41q-2 13 -3.5 98.5t-0.5 153.5zM262 1556h51l299 -325h-47z" />
    <glyph glyph-name="uni1EEC" unicode="&#x1eec;" horiz-adv-x="1376" 
d="M172 1442h41v-901q0 -114 26.5 -204.5t70.5 -149.5t106.5 -98.5t130.5 -56t145 -16.5q232 0 351.5 133.5t119.5 391.5v901h4q181 15 181 160q0 56 -23 110h45q19 -47 19 -100q0 -172 -185 -203v-860q0 -127 -25.5 -225t-70.5 -162.5t-110.5 -105.5t-141.5 -58.5
t-168 -17.5q-81 0 -152.5 16t-139.5 56t-116.5 100t-78 155t-29.5 215v920zM727 1614h-53q149 99 149 198q0 49 -32.5 82t-88.5 33q-82 0 -145 -51l-16 31q66 59 164 59q76 0 117.5 -44.5t41.5 -109.5q0 -53 -40 -108.5t-97 -89.5z" />
    <glyph glyph-name="uni1EED" unicode="&#x1eed;" horiz-adv-x="1107" 
d="M891 252q-38 -124 -129 -198t-236 -74q-48 0 -92 9t-93 34.5t-84.5 66.5t-59 111t-23.5 161v656h41v-672q0 -65 18 -122.5t54 -104.5t98 -74t143 -27q165 0 264 112.5t99 328.5v559h22q162 20 162 158q0 58 -22 110h45q18 -45 18 -100q0 -174 -182 -201v-706
q0 -57 1 -160t1 -119h-41q-2 13 -3.5 98.5t-0.5 153.5zM573 1196h-53q150 99 150 199q0 49 -32 81.5t-89 32.5q-83 0 -146 -51l-16 31q66 59 164 59q76 0 118 -44t42 -109q0 -53 -40.5 -109t-97.5 -90z" />
    <glyph glyph-name="uni1EEE" unicode="&#x1eee;" horiz-adv-x="1376" 
d="M172 1442h41v-901q0 -114 26.5 -204.5t70.5 -149.5t106.5 -98.5t130.5 -56t145 -16.5q232 0 351.5 133.5t119.5 391.5v901h4q181 15 181 160q0 56 -23 110h45q19 -47 19 -100q0 -172 -185 -203v-860q0 -127 -25.5 -225t-70.5 -162.5t-110.5 -105.5t-141.5 -58.5
t-168 -17.5q-81 0 -152.5 16t-139.5 56t-116.5 100t-78 155t-29.5 215v920zM436 1638h-37v23q0 143 129 143q48 0 106 -31t113 -62.5t95 -31.5q42 0 67 24.5t25 92.5v19h37v-23q0 -154 -125 -154q-37 0 -83 20t-82.5 43.5t-79 43.5t-73.5 20q-92 0 -92 -108v-19z" />
    <glyph glyph-name="uni1EEF" unicode="&#x1eef;" horiz-adv-x="1107" 
d="M891 252q-38 -124 -129 -198t-236 -74q-48 0 -92 9t-93 34.5t-84.5 66.5t-59 111t-23.5 161v656h41v-672q0 -65 18 -122.5t54 -104.5t98 -74t143 -27q165 0 264 112.5t99 328.5v559h22q162 20 162 158q0 58 -22 110h45q18 -45 18 -100q0 -174 -182 -201v-706
q0 -57 1 -160t1 -119h-41q-2 13 -3.5 98.5t-0.5 153.5zM309 1327h-35v21q0 72 33 105.5t88 33.5q41 0 87 -19t80.5 -42.5t75.5 -42.5t73 -19q41 0 59 24t18 76v25h35v-25q0 -66 -29 -100.5t-83 -34.5q-44 0 -103 31.5t-116 62.5t-99 31q-84 0 -84 -106v-21z" />
    <glyph glyph-name="uni1EF0" unicode="&#x1ef0;" horiz-adv-x="1376" 
d="M172 1442h41v-901q0 -114 26.5 -204.5t70.5 -149.5t106.5 -98.5t130.5 -56t145 -16.5q232 0 351.5 133.5t119.5 391.5v901h4q181 15 181 160q0 56 -23 110h45q19 -47 19 -100q0 -172 -185 -203v-860q0 -127 -25.5 -225t-70.5 -162.5t-110.5 -105.5t-141.5 -58.5
t-168 -17.5q-81 0 -152.5 16t-139.5 56t-116.5 100t-78 155t-29.5 215v920zM709 -354h-41v172h41v-172z" />
    <glyph glyph-name="uni1EF1" unicode="&#x1ef1;" horiz-adv-x="1107" 
d="M891 252q-38 -124 -129 -198t-236 -74q-48 0 -92 9t-93 34.5t-84.5 66.5t-59 111t-23.5 161v656h41v-672q0 -65 18 -122.5t54 -104.5t98 -74t143 -27q165 0 264 112.5t99 328.5v559h22q162 20 162 158q0 58 -22 110h45q18 -45 18 -100q0 -174 -182 -201v-706
q0 -57 1 -160t1 -119h-41q-2 13 -3.5 98.5t-0.5 153.5zM573 -354h-41v172h41v-172z" />
    <glyph glyph-name="Ygrave" unicode="&#x1ef2;" horiz-adv-x="1105" 
d="M569 0h-41v590q0 12 -12 28l-506 824h49q407 -653 490 -803q24 44 108 178.5t207.5 330t184.5 294.5h47l-516 -821q-11 -17 -11 -29v-592zM223 1903h60l338 -308h-52z" />
    <glyph glyph-name="ygrave" unicode="&#x1ef3;" horiz-adv-x="974" 
d="M53 1018h45q69 -171 144.5 -359t110.5 -275t69 -173t48 -122.5t19 -55.5h3q3 9 387 985h45l-408 -1030q-45 -114 -77.5 -184t-67 -127.5t-68 -86t-73.5 -43t-93 -14.5q-54 0 -78 6l4 41q27 -6 76 -6q50 0 86 14.5t75 58t78.5 122.5t90.5 208zM197 1556h51l299 -325h-47z
" />
    <glyph glyph-name="uni1EF4" unicode="&#x1ef4;" horiz-adv-x="1105" 
d="M569 0h-41v590q0 12 -12 28l-506 824h49q407 -653 490 -803q24 44 108 178.5t207.5 330t184.5 294.5h47l-516 -821q-11 -17 -11 -29v-592zM573 -354h-41v172h41v-172z" />
    <glyph glyph-name="uni1EF5" unicode="&#x1ef5;" horiz-adv-x="974" 
d="M53 1018h45q69 -171 144.5 -359t110.5 -275t69 -173t48 -122.5t19 -55.5h3q3 9 387 985h45l-408 -1030q-45 -114 -77.5 -184t-67 -127.5t-68 -86t-73.5 -43t-93 -14.5q-54 0 -78 6l4 41q27 -6 76 -6q50 0 86 14.5t75 58t78.5 122.5t90.5 208zM713 -436h-41v172h41v-172z
" />
    <glyph glyph-name="uni1EF6" unicode="&#x1ef6;" horiz-adv-x="1105" 
d="M569 0h-41v590q0 12 -12 28l-506 824h49q407 -653 490 -803q24 44 108 178.5t207.5 330t184.5 294.5h47l-516 -821q-11 -17 -11 -29v-592zM561 1561h-53q149 99 149 198q0 49 -32 82t-88 33q-83 0 -146 -51l-16 30q67 60 164 60q76 0 117.5 -44.5t41.5 -109.5
q0 -53 -40 -108.5t-97 -89.5z" />
    <glyph glyph-name="uni1EF7" unicode="&#x1ef7;" horiz-adv-x="974" 
d="M53 1018h45q69 -171 144.5 -359t110.5 -275t69 -173t48 -122.5t19 -55.5h3q3 9 387 985h45l-408 -1030q-45 -114 -77.5 -184t-67 -127.5t-68 -86t-73.5 -43t-93 -14.5q-54 0 -78 6l4 41q27 -6 76 -6q50 0 86 14.5t75 58t78.5 122.5t90.5 208zM494 1196h-54
q150 99 150 199q0 49 -32 81.5t-89 32.5q-82 0 -145 -51l-17 31q66 59 164 59q76 0 118 -44t42 -109q0 -53 -40 -109t-97 -90z" />
    <glyph glyph-name="uni1EF8" unicode="&#x1ef8;" horiz-adv-x="1105" 
d="M569 0h-41v590q0 12 -12 28l-506 824h49q407 -653 490 -803q24 44 108 178.5t207.5 330t184.5 294.5h47l-516 -821q-11 -17 -11 -29v-592zM301 1618h-37v22q0 144 129 144q48 0 106 -31t113 -62.5t95 -31.5q42 0 67 24.5t25 92.5v18h37v-22q0 -154 -125 -154
q-37 0 -83 20t-82.5 43.5t-79 43.5t-73.5 20q-92 0 -92 -109v-18z" />
    <glyph glyph-name="uni1EF9" unicode="&#x1ef9;" horiz-adv-x="974" 
d="M53 1018h45q69 -171 144.5 -359t110.5 -275t69 -173t48 -122.5t19 -55.5h3q3 9 387 985h45l-408 -1030q-45 -114 -77.5 -184t-67 -127.5t-68 -86t-73.5 -43t-93 -14.5q-54 0 -78 6l4 41q27 -6 76 -6q50 0 86 14.5t75 58t78.5 122.5t90.5 208zM244 1327h-35v21
q0 72 33 105.5t88 33.5q41 0 87 -19t80 -42.5t75 -42.5t73 -19q41 0 59.5 24.5t18.5 75.5v25h35v-25q0 -66 -29.5 -100.5t-83.5 -34.5q-35 0 -80 19.5t-81 43t-79.5 43t-76.5 19.5q-84 0 -84 -106v-21z" />
    <glyph glyph-name="uni2007" unicode="&#x2007;" horiz-adv-x="1064" 
 />
    <glyph glyph-name="uni2010" unicode="&#x2010;" horiz-adv-x="712" 
d="M102 535h508v-37h-508v37z" />
    <glyph glyph-name="figuredash" unicode="&#x2012;" horiz-adv-x="1064" 
d="M180 717h703v-37h-703v37z" />
    <glyph glyph-name="endash" unicode="&#x2013;" horiz-adv-x="1089" 
d="M102 549h885v-37h-885v37z" />
    <glyph glyph-name="emdash" unicode="&#x2014;" horiz-adv-x="1742" 
d="M102 549h1538v-37h-1538v37z" />
    <glyph glyph-name="uni2015" unicode="&#x2015;" horiz-adv-x="1742" 
d="M102 549h1538v-37h-1538v37z" />
    <glyph glyph-name="quoteleft" unicode="&#x2018;" horiz-adv-x="282" 
d="M154 1538h39q-49 -109 -72 -235t-23 -211h-41q3 123 32.5 247.5t64.5 198.5z" />
    <glyph glyph-name="quoteright" unicode="&#x2019;" horiz-adv-x="282" 
d="M96 1092h-39q49 109 72 235t23 211h41q-3 -123 -32.5 -247.5t-64.5 -198.5z" />
    <glyph glyph-name="quotesinglbase" unicode="&#x201a;" horiz-adv-x="282" 
d="M96 -178h-39q49 109 72 235t23 211h41q-3 -123 -32.5 -247.5t-64.5 -198.5z" />
    <glyph glyph-name="quotedblleft" unicode="&#x201c;" horiz-adv-x="425" 
d="M330 1538h37q-78 -201 -78 -446h-41q0 247 82 446zM115 1538h37q-78 -201 -78 -446h-41q0 247 82 446z" />
    <glyph glyph-name="quotedblright" unicode="&#x201d;" horiz-adv-x="425" 
d="M70 1092h-37q78 201 78 446h41q0 -247 -82 -446zM285 1092h-37q78 201 78 446h41q0 -247 -82 -446z" />
    <glyph glyph-name="quotedblbase" unicode="&#x201e;" horiz-adv-x="425" 
d="M70 -178h-37q78 201 78 446h41q0 -247 -82 -446zM285 -178h-37q78 201 78 446h41q0 -247 -82 -446z" />
    <glyph glyph-name="dagger" unicode="&#x2020;" horiz-adv-x="954" 
d="M426 1434h45l-4 -482l364 6v-43l-364 5l4 -1086h-45l4 1086l-369 -5v43l369 -6z" />
    <glyph glyph-name="daggerdbl" unicode="&#x2021;" horiz-adv-x="954" 
d="M430 350v613l-369 -5v43l369 -6l-4 439h45l-4 -439l364 6v-43l-364 5v-613l364 4v-43l-364 6l4 -483h-45l4 483l-369 -6v43z" />
    <glyph glyph-name="bullet" unicode="&#x2022;" horiz-adv-x="409" 
d="M143 604h123v-127h-123v127z" />
    <glyph glyph-name="ellipsis" unicode="&#x2026;" horiz-adv-x="1382" 
d="M203 0h-41v229h41v-229zM668 0h-41v229h41v-229zM1133 0h-41v229h41v-229z" />
    <glyph glyph-name="perthousand" unicode="&#x2030;" horiz-adv-x="2170" 
d="M1808 719q139 0 211 -99.5t72 -269.5q0 -175 -76 -272.5t-207 -97.5q-132 0 -207 98t-75 272q0 163 75 266t207 103zM1808 684q-114 0 -177.5 -91t-63.5 -243t63.5 -243t177.5 -91t179 89.5t65 244.5q0 157 -65.5 245.5t-178.5 88.5zM360 1380q139 0 211 -99t72 -269
q0 -175 -76.5 -273t-206.5 -98t-205 99.5t-75 271.5q0 162 75 265t205 103zM360 1343q-114 0 -176.5 -88t-62.5 -243q0 -154 62.5 -245t176.5 -91q113 0 177.5 90t64.5 246q0 161 -63.5 246t-178.5 85zM330 0h-47l905 1356h47zM1143 719q138 0 210 -99.5t72 -269.5
q0 -175 -76 -272.5t-206 -97.5q-132 0 -207.5 98t-75.5 272q0 163 75.5 266t207.5 103zM1143 684q-114 0 -178 -91t-64 -243q0 -156 63.5 -245t178.5 -89q114 0 178.5 89t64.5 245q0 157 -65 245.5t-178 88.5z" />
    <glyph glyph-name="uni2032" unicode="&#x2032;" horiz-adv-x="319" 
d="M137 1090h-35l74 448h41z" />
    <glyph glyph-name="uni2033" unicode="&#x2033;" horiz-adv-x="528" 
d="M139 1090h-37l76 448h41zM346 1090h-37l76 448h41z" />
    <glyph glyph-name="guilsinglleft" unicode="&#x2039;" horiz-adv-x="540" 
d="M479 915l-368 -391l368 -391h-47l-371 391l371 391h47z" />
    <glyph glyph-name="guilsinglright" unicode="&#x203a;" horiz-adv-x="540" 
d="M61 133l369 391l-369 391h48l370 -391l-370 -391h-48z" />
    <glyph glyph-name="fraction" unicode="&#x2044;" horiz-adv-x="303" 
d="M-289 0h-47l930 1356h45z" />
    <glyph glyph-name="zero.sups" unicode="&#x2070;" horiz-adv-x="684" 
d="M348 1708q73 0 128 -36.5t86 -97.5t46 -131t15 -147q0 -64 -8 -120.5t-28 -112.5t-50.5 -96t-80.5 -65t-114 -25q-63 0 -112.5 25.5t-80.5 66.5t-51.5 96.5t-28.5 110.5t-8 114q0 78 14.5 148t46 132.5t90 100t136.5 37.5zM346 1673q-69 0 -119.5 -36t-76 -96t-37 -122.5
t-11.5 -130.5q0 -48 6.5 -96t23.5 -100t43 -91t69.5 -64.5t97.5 -25.5q57 0 101 24t69.5 62t42 90.5t22 102.5t5.5 106q0 61 -11.5 122t-36.5 121t-73.5 97t-114.5 37z" />
    <glyph glyph-name="four.sups" unicode="&#x2074;" horiz-adv-x="657" 
d="M506 889h-39v239h-424v37l422 533h41v-535h129l-8 -35h-121v-239zM88 1163h379v262q0 189 4 230q-14 -23 -85 -114t-164.5 -208.5t-133.5 -169.5z" />
    <glyph glyph-name="five.sups" unicode="&#x2075;" horiz-adv-x="669" 
d="M575 1698l-8 -35h-387q-21 -168 -47 -346q74 102 221 102q122 0 190 -73.5t68 -190.5q0 -124 -76 -201t-196 -77q-108 0 -180 55.5t-92 154.5h41q19 -76 77 -126t154 -50q108 0 168.5 66.5t60.5 173.5q0 101 -53 167t-168 66q-87 0 -136 -33.5t-83 -88.5l-39 14
q14 80 34 228t23 194h428z" />
    <glyph glyph-name="six.sups" unicode="&#x2076;" horiz-adv-x="669" 
d="M592 1530h-41q-20 65 -69.5 104t-125.5 39q-70 0 -121.5 -33t-80 -91t-42 -128.5t-12.5 -154.5q74 155 250 155q124 0 194 -75t70 -187q0 -122 -72 -202t-194 -80q-78 0 -135.5 32.5t-89.5 90t-47 126.5t-15 152q0 86 16.5 161t50 136.5t93 97t137.5 35.5q99 0 158 -51.5
t76 -126.5zM350 911q102 0 162.5 68t60.5 176q2 96 -56 163.5t-167 67.5q-107 0 -172 -61.5t-65 -144.5q0 -40 11.5 -83t36.5 -86.5t74 -71.5t115 -28z" />
    <glyph glyph-name="seven.sups" unicode="&#x2077;" horiz-adv-x="632" 
d="M57 1698h523v-31q-116 -160 -213 -372.5t-129 -405.5h-43q35 200 136 416t206 358h-480v35z" />
    <glyph glyph-name="eight.sups" unicode="&#x2078;" horiz-adv-x="661" 
d="M330 877q-116 0 -192.5 66t-76.5 169q0 86 48 139t120 76q-60 20 -94.5 67t-34.5 111q0 93 66 148t172 55q99 0 164 -55.5t65 -147.5q0 -65 -36.5 -111.5t-104.5 -66.5q82 -20 129 -78.5t47 -134.5q0 -105 -74.5 -171t-197.5 -66zM330 911q103 0 167 51t64 150
q0 92 -64 144.5t-163 52.5q-114 0 -173 -54.5t-59 -140.5q0 -89 62 -146t166 -57zM334 1673q-90 0 -142.5 -44t-52.5 -122q0 -73 48 -118.5t151 -45.5q89 0 138.5 41.5t49.5 118.5q0 76 -51.5 123t-140.5 47z" />
    <glyph glyph-name="nine.sups" unicode="&#x2079;" horiz-adv-x="659" 
d="M72 1055h43q43 -144 200 -144q50 0 90 18t66 52t44 73.5t27.5 91.5t13.5 96.5t5 96.5q-60 -143 -242 -143q-115 0 -187.5 69t-72.5 183q0 109 71.5 184.5t186.5 75.5q146 0 213.5 -99.5t67.5 -273.5q0 -76 -8.5 -141t-29.5 -124.5t-53 -101.5t-81.5 -66.5t-112.5 -24.5
q-191 0 -241 178zM319 1673q-95 0 -157 -60t-62 -163t64 -161t162 -58q99 0 160 52t61 144q0 38 -10.5 76.5t-34 78.5t-71 65.5t-112.5 25.5z" />
    <glyph glyph-name="parenleft.sups" unicode="&#x207d;" horiz-adv-x="415" 
d="M274 1759h41q-202 -235 -202 -516q0 -152 50 -280.5t152 -249.5h-43q-84 92 -141 228.5t-57 301.5q0 163 59 293.5t141 222.5z" />
    <glyph glyph-name="parenright.sups" unicode="&#x207e;" horiz-adv-x="415" 
d="M121 770h-43q203 237 203 516q0 290 -203 531h45q83 -91 139.5 -228t56.5 -303q0 -164 -58 -294.5t-140 -221.5z" />
    <glyph glyph-name="n.sups" unicode="&#x207f;" horiz-adv-x="743" 
d="M109 549v680h36q5 -92 2 -156q11 33 29 61t46.5 55.5t72.5 43.5t98 16q49 0 91 -14.5t76.5 -44.5t54.5 -83t20 -124v-434h-39v428q0 108 -49.5 171.5t-157.5 63.5q-115 0 -178.5 -79.5t-63.5 -202.5v-381h-38z" />
    <glyph glyph-name="zero.subs" unicode="&#x2080;" horiz-adv-x="684" 
d="M348 477q73 0 128 -36t86 -97t46 -131t15 -147q0 -64 -8 -120.5t-28 -113t-50.5 -96.5t-80.5 -65t-114 -25q-63 0 -112.5 25.5t-80.5 66.5t-51.5 96.5t-28.5 110.5t-8 114q0 78 14.5 148t46 132.5t90 100t136.5 37.5zM346 442q-69 0 -119.5 -36t-76 -96t-37 -122.5
t-11.5 -130.5q0 -48 6.5 -96t23.5 -99.5t43 -90.5t69.5 -64.5t97.5 -25.5q57 0 101 24t69.5 62t42 90.5t22 102.5t5.5 106q0 61 -11.5 121.5t-36.5 120.5t-73.5 97t-114.5 37z" />
    <glyph glyph-name="one.subs" unicode="&#x2081;" horiz-adv-x="434" 
d="M262 -342h-39v764q-31 -26 -85 -48.5t-89 -29.5v35q47 10 98 37t86 57h29v-815z" />
    <glyph glyph-name="two.subs" unicode="&#x2082;" horiz-adv-x="657" 
d="M600 -342h-537v6q0 70 61.5 158.5t197.5 177.5q51 34 71.5 47.5t52 37.5t42 37.5t24 36t17 44t3.5 51.5q0 87 -53 137.5t-145 50.5q-94 0 -149 -51t-70 -143h-39q13 102 80 165.5t180 63.5t175 -62.5t62 -158.5q0 -39 -9 -69.5t-22.5 -54t-45.5 -51t-61.5 -48.5
t-86.5 -58q-218 -144 -246 -282h508z" />
    <glyph glyph-name="three.subs" unicode="&#x2083;" horiz-adv-x="657" 
d="M260 82v35h41q213 0 213 155q0 77 -49.5 123.5t-145.5 46.5q-169 0 -206 -163h-39q16 89 78.5 143.5t169.5 54.5q105 0 168 -52.5t63 -152.5q0 -77 -43.5 -119t-99.5 -53q82 -16 134 -69t52 -144q0 -117 -78.5 -179t-193.5 -62q-63 0 -113 16.5t-79.5 40t-50.5 55.5
t-29.5 56.5t-12.5 50.5h39q19 -88 82 -136t164 -48q106 0 168.5 54t62.5 146q0 201 -256 201h-39z" />
    <glyph glyph-name="four.subs" unicode="&#x2084;" horiz-adv-x="657" 
d="M506 -342h-39v240h-424v36l422 533h41v-535h129l-8 -34h-121v-240zM88 -68h379v263q0 188 4 229q-14 -23 -85 -114t-164.5 -208.5t-133.5 -169.5z" />
    <glyph glyph-name="five.subs" unicode="&#x2085;" horiz-adv-x="669" 
d="M575 467l-8 -35h-387q-21 -168 -47 -346q74 102 221 102q122 0 190 -73.5t68 -190.5q0 -124 -76 -201t-196 -77q-108 0 -180 56t-92 155h41q19 -76 77 -126t154 -50q108 0 168.5 66t60.5 173q0 101 -53 167.5t-168 66.5q-87 0 -136 -34t-83 -89l-39 14q14 80 34 228
t23 194h428z" />
    <glyph glyph-name="six.subs" unicode="&#x2086;" horiz-adv-x="669" 
d="M592 299h-41q-20 65 -69.5 104t-125.5 39q-70 0 -121.5 -33t-80 -91t-42 -128.5t-12.5 -154.5q74 155 250 155q124 0 194 -75t70 -187q0 -122 -72 -202t-194 -80q-78 0 -135.5 32.5t-89.5 90t-47 126.5t-15 152q0 86 16.5 161t50 136.5t93 97t137.5 35.5q99 0 158 -51.5
t76 -126.5zM350 -319q103 0 163 67.5t60 175.5q2 97 -56 164.5t-167 67.5q-107 0 -172 -62t-65 -145q0 -31 6.5 -64.5t23.5 -71t43 -66t68.5 -47.5t95.5 -19z" />
    <glyph glyph-name="seven.subs" unicode="&#x2087;" horiz-adv-x="632" 
d="M57 467h523v-31q-116 -160 -213 -372.5t-129 -405.5h-43q35 200 136 416t206 358h-480v35z" />
    <glyph glyph-name="eight.subs" unicode="&#x2088;" horiz-adv-x="661" 
d="M330 -354q-116 0 -192.5 66t-76.5 169q0 86 48 139t120 76q-60 20 -94.5 67t-34.5 111q0 93 66 148t172 55q99 0 164 -55.5t65 -147.5q0 -65 -36.5 -111.5t-104.5 -66.5q82 -20 129 -78.5t47 -134.5q0 -105 -74.5 -171t-197.5 -66zM330 -319q103 0 167 50.5t64 149.5
q0 92 -64 144.5t-163 52.5q-114 0 -173 -54.5t-59 -140.5q0 -89 62 -145.5t166 -56.5zM334 442q-90 0 -142.5 -44t-52.5 -122q0 -73 48 -118t151 -45q89 0 138.5 41t49.5 118q0 76 -51.5 123t-140.5 47z" />
    <glyph glyph-name="nine.subs" unicode="&#x2089;" horiz-adv-x="659" 
d="M72 -176h43q43 -143 200 -143q50 0 90 18t66 52t44 73.5t27.5 91.5t13.5 96.5t5 96.5q-60 -144 -242 -144q-115 0 -187.5 69t-72.5 183q0 109 71.5 184.5t186.5 75.5q146 0 213.5 -99.5t67.5 -273.5q0 -76 -8.5 -141t-29.5 -124.5t-53 -101.5t-81.5 -66.5t-112.5 -24.5
q-191 0 -241 178zM319 442q-95 0 -157 -60t-62 -163t64 -161t162 -58q99 0 160 52.5t61 144.5q0 29 -6 59.5t-22 64.5t-40 60t-65.5 43.5t-94.5 17.5z" />
    <glyph glyph-name="parenleft.subs" unicode="&#x208d;" horiz-adv-x="415" 
d="M274 528h41q-202 -235 -202 -516q0 -152 50 -280.5t152 -249.5h-43q-84 92 -141 228.5t-57 301.5q0 163 59 293.5t141 222.5z" />
    <glyph glyph-name="parenright.subs" unicode="&#x208e;" horiz-adv-x="415" 
d="M121 -461h-43q203 237 203 516q0 290 -203 531h45q83 -91 139.5 -228t56.5 -303q0 -164 -58 -294.5t-140 -221.5z" />
    <glyph glyph-name="colonmonetary" unicode="&#x20a1;" horiz-adv-x="1052" 
d="M567 18q33 0 56 5v1318q-45 5 -56 5q-45 0 -88 -9v-1310q41 -9 88 -9zM139 670q0 -545 301 -633v1290q-148 -48 -224.5 -213t-76.5 -444zM479 -195h-39v191q-174 45 -258 218.5t-84 453.5q0 299 88 475.5t254 222.5v137h39v-129q39 8 88 8q38 0 56 -2v123h39v-129
q226 -46 292 -315h-41q-68 227 -251 276v-1306q89 22 154 92.5t106 210.5h41q-35 -139 -111 -227.5t-190 -114.5v-185h-39v179q-36 -4 -56 -4q-45 0 -88 6v-181z" />
    <glyph glyph-name="franc" unicode="&#x20a3;" horiz-adv-x="978" 
d="M231 0v362h-202v37h202v957h687v-37h-648v-594h602v-37h-602v-289h328v-37h-328v-362h-39z" />
    <glyph glyph-name="lira" unicode="&#x20a4;" horiz-adv-x="948" 
d="M924 0h-897v35q78 47 128 133.5t67.5 174.5t17.5 187v25h-205v35h205q-3 91 -9 178h-196v35h194q-6 86 -6 203q0 189 86.5 282.5t233.5 93.5q267 0 317 -282h-39q-54 246 -278 246q-134 0 -205.5 -87t-71.5 -251q0 -29 1 -63t2.5 -75.5t2.5 -66.5h349v-35h-347
q1 -20 3.5 -81t3.5 -97h340v-35h-340v-20q0 -336 -187 -498h840z" />
    <glyph glyph-name="uni20A6" unicode="&#x20a6;" horiz-adv-x="1052" 
d="M201 1315q6 -217 6 -479h211l-215 479h-2zM809 696v105h-332l88 -197h244v92zM207 705v-101h315l-88 197h-227v-96zM817 47h2q-10 76 -10 522h-227zM207 0h-41v569h-123v35h123v197h-123v35h123v520h59l236 -520h348v520h41v-520h121v-35h-121v-197h121v-35h-121v-569
h-55l-256 569h-332v-569z" />
    <glyph glyph-name="peseta" unicode="&#x20a7;" horiz-adv-x="1052" 
d="M158 0v948h-131v37h131v371h321q184 0 297 -98.5t117 -272.5h113v-37h-113q-4 -93 -36.5 -165.5t-88 -118.5t-128 -69.5t-157.5 -23.5h-284v-571h-41zM199 1319v-334h653q-7 156 -105.5 245t-259.5 89h-288zM199 608h284q160 0 261.5 87.5t107.5 252.5h-653v-340z" />
    <glyph glyph-name="dong" unicode="&#x20ab;" horiz-adv-x="1052" 
d="M129 -229h766v-37h-766v37zM836 1362h38v-191h150v-36h-150v-899q0 -165 5 -236h-39q-8 97 -4 254q-17 -53 -44 -97.5t-70 -85t-108.5 -64t-146.5 -23.5q-78 0 -147 31t-122.5 90t-84.5 153t-31 213q0 113 33 205.5t90 152t130 91.5t154 32q69 0 127 -16.5t92.5 -38
t63 -54.5t40.5 -54t24 -48v394h-525v36h525v191zM125 475q0 -212 96.5 -333.5t245.5 -121.5q81 0 145.5 25.5t106.5 70t69.5 107t39.5 133t12 152.5q0 407 -355 407q-161 0 -260.5 -124.5t-99.5 -315.5z" />
    <glyph glyph-name="Euro" unicode="&#x20ac;" horiz-adv-x="1138" 
d="M1006 295h38q-94 -315 -393 -315q-109 0 -194.5 44.5t-141 124.5t-86.5 185.5t-39 234.5h-139v35h137q-2 20 -2 64q0 59 7 131h-142v37h146q30 255 149 399.5t307 144.5q89 0 159 -25t115 -69t72.5 -96t42.5 -115h-41q-69 268 -346 268q-176 0 -283.5 -134.5
t-135.5 -372.5h491v-37h-494q-6 -61 -6 -129q0 -46 2 -66h498v-35h-496q8 -119 35 -216.5t76.5 -174.5t128 -119.5t180.5 -42.5q57 0 104 12t95 41t88 86t68 140z" />
    <glyph glyph-name="uni20B1" unicode="&#x20b1;" horiz-adv-x="1069" 
d="M195 0v848h-123v35h123v155h-123v35h123v283h286q178 0 290 -69t142 -214h99v-35h-92q6 -38 6 -80q0 -25 -4 -75h90v-35h-97q-31 -151 -140.5 -221t-272.5 -70h-266v-557h-41zM236 1319v-246h638q-30 122 -127 184t-251 62h-260zM887 958q0 43 -6 80h-645v-155h647
q4 46 4 75zM236 594h274q138 0 236.5 60.5t127.5 193.5h-638v-254z" />
    <glyph glyph-name="uni20B2" unicode="&#x20b2;" horiz-adv-x="1073" 
d="M133 682q0 -182 42 -323t132 -232.5t219 -106.5v1323q-189 -17 -291 -187t-102 -474zM954 1067h-41q-32 135 -124.5 207t-221.5 72h-2v-1328h13q101 0 169.5 17.5t141.5 58.5v537h39v-559q-2 -1 -17.5 -10t-29.5 -15.5t-37.5 -17t-50 -18.5t-59 -15.5t-72.5 -11.5t-82 -4
h-15v-175h-39v177q-215 21 -325.5 205t-110.5 493q0 328 115.5 506.5t320.5 193.5v146h39v-144q165 0 263 -87t126 -228z" />
    <glyph glyph-name="uni20B4" unicode="&#x20b4;" horiz-adv-x="1011" 
d="M168 1085h-39q24 132 119 213.5t250 81.5q156 0 252 -91.5t96 -225.5q0 -138 -103 -238h142v-34h-185q-66 -52 -192 -117q-35 -17 -109 -60h475v-34h-532q-109 -69 -148.5 -132.5t-39.5 -152.5q0 -112 91 -195.5t244 -83.5q92 0 160 21.5t110 62.5t66 86t39 105h41
q-13 -54 -31 -96.5t-50.5 -84t-76 -69t-108.5 -44.5t-147 -17q-175 0 -277 92.5t-102 222.5q0 85 37 152t126 133h-174v34h226q77 50 161 91q94 48 152 86h-526v34h573q66 54 90.5 109t24.5 127q0 120 -82.5 201t-220.5 81q-269 0 -332 -258z" />
    <glyph glyph-name="uni20B5" unicode="&#x20b5;" horiz-adv-x="1052" 
d="M141 670q0 -615 385 -647v1318q-188 -17 -286.5 -186.5t-98.5 -484.5zM565 -199h-39v181q-218 15 -323 192.5t-105 493.5q0 330 111 512.5t317 199.5v162h39v-160h2q306 0 387 -323h-43q-83 284 -342 284h-4v-1323h2q123 0 209.5 70t143.5 242h43q-46 -164 -145.5 -258
t-250.5 -94h-2v-179z" />
    <glyph glyph-name="uni20B9" unicode="&#x20b9;" horiz-adv-x="1026" 
d="M104 627v37h195q420 0 420 333q0 45 -10 93h-603v36h592q-69 193 -356 193h-236v37h861v-37h-408q137 -59 182 -193h226v-36h-217q10 -48 10 -93q0 -162 -93 -254.5t-266 -111.5l433 -631h-50l-430 627h-37h-213z" />
    <glyph glyph-name="uni20BA" unicode="&#x20ba;" horiz-adv-x="1001" 
d="M303 0h-39v641l-203 -82v39l203 82v176l-203 -82v39l203 82v461h41v-443l279 113v-39l-279 -113v-176l279 113v-39l-279 -113v-622q252 0 394.5 119t174.5 376h39q-34 -277 -187 -404.5t-423 -127.5z" />
    <glyph glyph-name="uni20BD" unicode="&#x20bd;" horiz-adv-x="1114" 
d="M266 0v440h-166v37h166v170h-166v37h166v672h320q207 0 311 -94.5t104 -257.5q0 -357 -423 -357h-271v-170h447v-37h-447v-440h-41zM307 1319v-635h262q196 0 292.5 77.5t96.5 239.5q0 145 -88.5 231.5t-285.5 86.5h-277z" />
    <glyph glyph-name="uni2113" unicode="&#x2113;" horiz-adv-x="765" 
d="M657 244h41q-26 -130 -86 -195t-176 -65q-125 0 -185.5 77.5t-60.5 249.5v172q-36 -30 -135 -98l-18 31q111 78 153 112v594q0 208 66 302t168 94q211 0 211 -312q0 -169 -98.5 -346t-307.5 -350v-168q0 -96 15 -161t45 -99.5t65.5 -48t85.5 -13.5q87 0 140 52t77 172z
M229 1124v-565q365 316 365 647q0 275 -170 275q-87 0 -141 -85.5t-54 -271.5z" />
    <glyph glyph-name="uni2116" unicode="&#x2116;" horiz-adv-x="1974" 
d="M221 0h-39v1356h60q96 -150 313 -487.5t359.5 -560t168.5 -267.5h2q-4 149 -4 653v662h41v-1356h-59q-114 181 -312.5 490t-349 543t-184.5 290h-2q6 -163 6 -643v-680zM1323 879q0 -163 71 -256t193 -93q125 0 193.5 92t68.5 257q0 162 -71 254t-191 92q-124 0 -194 -91
t-70 -255zM1339 344h498v-39h-498v39zM1587 1262q144 0 223.5 -104.5t79.5 -278.5q0 -175 -79.5 -280t-223.5 -105q-148 0 -225.5 104.5t-77.5 280.5q0 173 80.5 278t222.5 105z" />
    <glyph glyph-name="uni2117" unicode="&#x2117;" horiz-adv-x="1648" 
d="M588 332v819h297q123 0 194.5 -61t71.5 -172q0 -117 -72.5 -176.5t-201.5 -59.5h-250v-350h-39zM627 1114v-395h256q227 0 227 199q0 88 -57.5 142t-159.5 54h-266zM819 1456q131 0 245 -37t199.5 -103.5t147.5 -157t93.5 -200t31.5 -229.5q0 -155 -50 -289
t-141.5 -231.5t-227 -153t-298.5 -55.5t-299 57.5t-227 156t-141 231.5t-50 284q0 206 85.5 370.5t250 260.5t381.5 96zM819 1417q-157 0 -286 -54t-213.5 -148t-130.5 -218.5t-46 -267.5q0 -138 46 -262.5t130 -220t213.5 -151.5t286.5 -56q159 0 288 54.5t213 148.5
t129.5 219t45.5 268q0 138 -46 262t-130 219t-213.5 151t-286.5 56z" />
    <glyph glyph-name="uni2120" unicode="&#x2120;" horiz-adv-x="862" 
d="M836 1034h-33v174q0 129 4 203h-2l-172 -377h-39l-160 377h-2q6 -91 6 -215v-162h-32v408h51l157 -369h2l168 369h52v-408zM25 1161h32q24 -106 131 -106q55 0 83 23.5t28 60.5q0 41 -24.5 58t-96.5 36q-28 7 -38.5 10t-33.5 13t-33 19.5t-19 27.5t-9 40q0 47 35.5 77
t99.5 30q71 0 106 -34t40 -81h-31q-24 86 -115 86q-100 0 -100 -73q0 -35 25 -53t81 -31q39 -9 60.5 -16.5t44.5 -21t33 -34.5t10 -51q0 -54 -41 -84.5t-105 -30.5q-73 0 -114 36.5t-49 98.5z" />
    <glyph glyph-name="trademark" unicode="&#x2122;" horiz-adv-x="856" 
d="M829 1034h-32v176q0 129 4 203h-2l-172 -377h-39l-160 377h-2q6 -61 6 -215v-164h-33v408h52l157 -371h2l170 371h49v-408zM2 1442h338v-29h-150v-379h-34v379h-154v29z" />
    <glyph glyph-name="uni2126" unicode="&#x2126;" horiz-adv-x="1462" 
d="M729 1462q203 0 347.5 -89t215 -242.5t70.5 -356.5q0 -244 -111.5 -430.5t-324.5 -306.5h452v-37h-508v49q218 107 333.5 297.5t115.5 427.5q0 140 -38.5 258.5t-111 206t-185 137t-253.5 49.5q-178 0 -312 -83.5t-205 -231t-71 -336.5q0 -239 115.5 -431t333.5 -294v-49
h-508v37h451q-435 240 -435 737q0 196 76.5 352t220.5 246t332 90z" />
    <glyph glyph-name="estimated" unicode="&#x212e;" horiz-adv-x="1499" 
d="M1427 664h-1187q-11 0 -11 -11v-254q0 -25 17 -59q69 -146 203 -237t319 -91q288 0 426 238h94q-197 -275 -524 -275q-141 0 -265 56.5t-211 152.5t-137.5 225.5t-50.5 272.5q0 140 54 269.5t143.5 223.5t212 150.5t254.5 56.5q137 0 260 -55t211 -148.5t140 -223.5
t52 -273v-18zM1298 713v276q0 17 -16 45q-49 87 -114.5 151t-136 97.5t-135.5 48.5t-130 15q-67 0 -134.5 -16t-138 -50.5t-135.5 -98.5t-112 -151q-17 -34 -17 -45v-272q0 -11 11 -11h1048q10 0 10 11z" />
    <glyph glyph-name="onethird" unicode="&#x2153;" horiz-adv-x="1544" 
d="M233 4h-47l930 1356h45zM287 547h-39v764q-31 -26 -85 -48.5t-89 -29.5v35q47 10 98 37t86 57h29v-815zM1118 424v35h41q213 0 213 155q0 77 -49 123.5t-145 46.5q-170 0 -207 -163h-39q16 89 78.5 143.5t169.5 54.5q105 0 168 -52.5t63 -152.5q0 -77 -43.5 -119
t-99.5 -53q82 -16 134 -69t52 -144q0 -117 -78.5 -179t-193.5 -62q-63 0 -113 16.5t-79.5 40t-50.5 55.5t-29.5 56.5t-12.5 50.5h39q19 -88 82 -136t164 -48q106 0 168.5 54t62.5 146q0 201 -256 201h-39z" />
    <glyph glyph-name="twothirds" unicode="&#x2154;" horiz-adv-x="1748" 
d="M477 4h-47l930 1356h45zM621 547h-537v6q0 71 61 159t197 177q46 30 62.5 41.5t47.5 33.5t40.5 32.5t26 29.5t21 34.5t9 36.5t4.5 46q0 86 -53.5 137t-145.5 51q-94 0 -149 -51t-70 -143h-39q13 102 80 165.5t180 63.5t175.5 -62.5t62.5 -158.5q0 -39 -9 -69.5t-22.5 -54
t-45.5 -51t-61.5 -48.5t-86.5 -58q-218 -144 -246 -282h508zM1313 424v35h41q213 0 213 155q0 77 -49.5 123.5t-145.5 46.5q-170 0 -207 -163h-39q16 89 78.5 143.5t169.5 54.5q105 0 168.5 -52.5t63.5 -152.5q0 -76 -43.5 -118.5t-100.5 -53.5q82 -16 134.5 -69t52.5 -144
q0 -117 -79 -179t-194 -62q-63 0 -113 16.5t-79 40t-50 55.5t-29.5 56.5t-12.5 50.5h38q19 -88 82 -136t164 -48q106 0 169 54t63 146q0 201 -256 201h-39z" />
    <glyph glyph-name="oneeighth" unicode="&#x215b;" horiz-adv-x="1482" 
d="M211 4h-47l930 1356h45zM283 547h-39v764q-31 -26 -85 -48.5t-89 -29.5v35q47 10 98 37t86 57h29v-815zM1124 -12q-116 0 -192 65.5t-76 169.5q0 86 48 139t120 76q-60 20 -94.5 67t-34.5 111q0 93 66 148t172 55q99 0 164 -55.5t65 -147.5q0 -65 -36.5 -111.5
t-104.5 -66.5q82 -20 129 -78.5t47 -134.5q0 -105 -75 -171t-198 -66zM1124 23q104 0 168 50.5t64 149.5q0 92 -64.5 144.5t-163.5 52.5q-113 0 -172 -54.5t-59 -140.5q0 -89 61.5 -145.5t165.5 -56.5zM1128 784q-90 0 -142 -44t-52 -122q0 -73 48 -118t151 -45
q89 0 138.5 41t49.5 118q0 76 -52 123t-141 47z" />
    <glyph glyph-name="threeeighths" unicode="&#x215c;" horiz-adv-x="1646" 
d="M403 4h-47l930 1356h45zM1294 -12q-116 0 -192 65.5t-76 169.5q0 86 48 139t120 76q-60 20 -94.5 67t-34.5 111q0 93 66 148t172 55q99 0 164 -55.5t65 -147.5q0 -65 -36.5 -111.5t-104.5 -66.5q82 -20 129 -78.5t47 -134.5q0 -105 -75 -171t-198 -66zM1294 23
q104 0 168 50.5t64 149.5q0 92 -64.5 144.5t-163.5 52.5q-113 0 -172 -54.5t-59 -140.5q0 -89 61.5 -145.5t165.5 -56.5zM1298 784q-90 0 -142 -44t-52 -122q0 -73 48 -118t151 -45q89 0 138.5 41t49.5 118q0 76 -52 123t-141 47zM281 971v35h41q213 0 213 155
q0 77 -49.5 123.5t-145.5 46.5q-90 0 -140 -45.5t-67 -118.5h-39q16 89 78.5 144t169.5 55q105 0 168 -52.5t63 -152.5q0 -77 -43.5 -119t-99.5 -53q82 -16 134 -69t52 -144q0 -117 -78.5 -179t-193.5 -62q-63 0 -113 16.5t-79.5 40t-50.5 55.5t-29.5 56.5t-12.5 50.5h39
q19 -88 82 -136.5t164 -48.5q106 0 168.5 54.5t62.5 146.5q0 201 -256 201h-38z" />
    </font>
</defs>
</svg>
